M48
INCH
T01C0.126
T02C0.2047
T03C0.2362
T04C0.248
T05C0.3661
%
T01
X+003587Y+001187G85X+002288Y+001187
X+047712Y+001187G85X+046413Y+001187
X+047712Y+049375G85X+046413Y+049375
X+003587Y+049375G85X+002288Y+049375
T02
X+013562Y+039875
X+013562Y+032500
X+013562Y+025125
X+013562Y+010375
T03
X+007687Y+010312
T04
X+013562Y+017687
X+019500Y+017687
X+025375Y+017750
X+025375Y+025125
X+019500Y+025125
X+019500Y+032437
X+025375Y+032500
X+025375Y+039875
X+019500Y+039875
X+034250Y+039875
X+034250Y+032437
X+034250Y+025125
X+034250Y+017687
X+034250Y+010312
X+025375Y+010312
X+019500Y+010312
X+043125Y+010312
X+043125Y+017750
X+043125Y+025062
X+043125Y+032500
X+043125Y+039875
T05
X+007687Y+039875
X+007687Y+032500
X+007687Y+025125
X+007687Y+017750
T00
M30
