G04 DipTrace 3.3.1.3*
G04 Top.gbr*
%MOIN*%
G04 #@! TF.FileFunction,Copper,L1,Top*
G04 #@! TF.Part,Single*
G04 #@! TA.AperFunction,CopperBalancing*
%ADD13C,0.025*%
G04 #@! TA.AperFunction,ComponentPad*
%ADD14C,0.511811*%
%ADD15O,0.287402X0.15748*%
%ADD16C,0.330709*%
%ADD17R,0.472441X0.472441*%
%ADD18C,0.366142*%
%FSLAX26Y26*%
G04*
G70*
G90*
G75*
G01*
G04 Top*
%LPD*%
X47293Y5013812D2*
D13*
X161823D1*
X425692D2*
X4574323D1*
X4838190D2*
X4952722D1*
X44996Y4988944D2*
X140652D1*
X446864D2*
X4553151D1*
X4859362D2*
X4955018D1*
X44996Y4964075D2*
X129995D1*
X457521D2*
X4542493D1*
X4870020D2*
X4955018D1*
X44996Y4939206D2*
X126406D1*
X461110D2*
X4538904D1*
X4873609D2*
X4955018D1*
X44996Y4914337D2*
X129097D1*
X458382D2*
X4541596D1*
X4870882D2*
X4955018D1*
X44996Y4889469D2*
X138678D1*
X448802D2*
X4551177D1*
X4861301D2*
X4955018D1*
X44996Y4864600D2*
X157984D1*
X429531D2*
X4570483D1*
X4842030D2*
X4955018D1*
X44996Y4839731D2*
X205745D1*
X381734D2*
X4618244D1*
X4794232D2*
X4955018D1*
X44996Y4814862D2*
X4955018D1*
X44996Y4789993D2*
X4955018D1*
X44996Y4765125D2*
X4955018D1*
X44996Y4740256D2*
X4955018D1*
X44996Y4715387D2*
X4955018D1*
X44996Y4690518D2*
X4955018D1*
X44996Y4665650D2*
X4955018D1*
X44996Y4640781D2*
X4955018D1*
X44996Y4615912D2*
X4955018D1*
X44996Y4591043D2*
X4955018D1*
X44996Y4566175D2*
X4955018D1*
X44996Y4541306D2*
X4955018D1*
X44996Y4516437D2*
X4955018D1*
X44996Y4491568D2*
X4955018D1*
X44996Y4466699D2*
X4955018D1*
X44996Y4441831D2*
X4955018D1*
X44996Y4416962D2*
X4955018D1*
X44996Y4392093D2*
X4955018D1*
X44996Y4367224D2*
X4955018D1*
X44996Y4342356D2*
X4955018D1*
X44996Y4317487D2*
X4955018D1*
X44996Y4292618D2*
X4955018D1*
X44996Y4267749D2*
X4955018D1*
X44996Y4242881D2*
X658783D1*
X878694D2*
X1690131D1*
X2209890D2*
X2277627D1*
X2797386D2*
X3165114D1*
X3684873D2*
X4955018D1*
X44996Y4218012D2*
X612529D1*
X924984D2*
X1690131D1*
X2209890D2*
X2277627D1*
X2797386D2*
X3165114D1*
X3684873D2*
X4955018D1*
X44996Y4193143D2*
X580556D1*
X956921D2*
X1690131D1*
X2209890D2*
X2277627D1*
X2797386D2*
X3165114D1*
X3684873D2*
X4955018D1*
X44996Y4168274D2*
X556298D1*
X981215D2*
X1307820D1*
X1404684D2*
X1690131D1*
X2209890D2*
X2277627D1*
X2797386D2*
X3165114D1*
X3684873D2*
X4214978D1*
X4410021D2*
X4955018D1*
X44996Y4143406D2*
X537207D1*
X1000306D2*
X1251375D1*
X1461130D2*
X1690131D1*
X2209890D2*
X2277627D1*
X2797386D2*
X3165114D1*
X3684873D2*
X4178089D1*
X4446909D2*
X4955018D1*
X44996Y4118537D2*
X522136D1*
X1015377D2*
X1221017D1*
X1491488D2*
X1690131D1*
X2209890D2*
X2277627D1*
X2797386D2*
X3165114D1*
X3684873D2*
X4153329D1*
X4471669D2*
X4955018D1*
X44996Y4093668D2*
X510331D1*
X1027182D2*
X1200383D1*
X1512085D2*
X1690131D1*
X2209890D2*
X2277627D1*
X2797386D2*
X3165114D1*
X3684873D2*
X4135530D1*
X4489469D2*
X4955018D1*
X44996Y4068799D2*
X501395D1*
X1036118D2*
X1185886D1*
X1526619D2*
X1690131D1*
X2209890D2*
X2277627D1*
X2797386D2*
X3165114D1*
X3684873D2*
X4122648D1*
X4502350D2*
X4955018D1*
X44996Y4043930D2*
X494972D1*
X1042505D2*
X1175983D1*
X1536522D2*
X1690131D1*
X2209890D2*
X2277627D1*
X2797386D2*
X3165114D1*
X3684873D2*
X4113713D1*
X4511286D2*
X4955018D1*
X44996Y4019062D2*
X490990D1*
X1046524D2*
X1169917D1*
X1542587D2*
X1690131D1*
X2209890D2*
X2277627D1*
X2797386D2*
X3165114D1*
X3684873D2*
X4108223D1*
X4516777D2*
X4955018D1*
X44996Y3994193D2*
X489266D1*
X1048247D2*
X1167370D1*
X1545135D2*
X1690131D1*
X2209890D2*
X2277627D1*
X2797386D2*
X3165114D1*
X3684873D2*
X4105890D1*
X4519109D2*
X4955018D1*
X44996Y3969324D2*
X489769D1*
X1047709D2*
X1168123D1*
X1544382D2*
X1690131D1*
X2209890D2*
X2277627D1*
X2797386D2*
X3165114D1*
X3684873D2*
X4106572D1*
X4518427D2*
X4955018D1*
X44996Y3944455D2*
X492531D1*
X1044945D2*
X1172286D1*
X1540219D2*
X1690131D1*
X2209890D2*
X2277627D1*
X2797386D2*
X3165114D1*
X3684873D2*
X4110340D1*
X4514659D2*
X4955018D1*
X44996Y3919587D2*
X497627D1*
X1039850D2*
X1180037D1*
X1532469D2*
X1690131D1*
X2209890D2*
X2277627D1*
X2797386D2*
X3165114D1*
X3684873D2*
X4117373D1*
X4507626D2*
X4955018D1*
X44996Y3894718D2*
X505163D1*
X1032314D2*
X1191950D1*
X1520554D2*
X1690131D1*
X2209890D2*
X2277627D1*
X2797386D2*
X3165114D1*
X3684873D2*
X4128067D1*
X4496932D2*
X4955018D1*
X44996Y3869849D2*
X515390D1*
X1022087D2*
X1209031D1*
X1503474D2*
X1690131D1*
X2209890D2*
X2277627D1*
X2797386D2*
X3165114D1*
X3684873D2*
X4143066D1*
X4481933D2*
X4955018D1*
X44996Y3844980D2*
X528631D1*
X1008846D2*
X1233433D1*
X1479072D2*
X1690131D1*
X2209890D2*
X2277627D1*
X2797386D2*
X3165114D1*
X3684873D2*
X4163699D1*
X4461299D2*
X4955018D1*
X44996Y3820112D2*
X545461D1*
X992052D2*
X1271470D1*
X1441035D2*
X1690131D1*
X2209890D2*
X2277627D1*
X2797386D2*
X3165114D1*
X3684873D2*
X4192982D1*
X4432018D2*
X4955018D1*
X44996Y3795243D2*
X566740D1*
X970773D2*
X1690131D1*
X2209890D2*
X2277627D1*
X2797386D2*
X3165114D1*
X3684873D2*
X4241102D1*
X4383898D2*
X4955018D1*
X44996Y3770374D2*
X594121D1*
X943357D2*
X1690131D1*
X2209890D2*
X2277627D1*
X2797386D2*
X3165114D1*
X3684873D2*
X4955018D1*
X44996Y3745505D2*
X631332D1*
X906181D2*
X1690131D1*
X2209890D2*
X2277627D1*
X2797386D2*
X3165114D1*
X3684873D2*
X4955018D1*
X44996Y3720636D2*
X691761D1*
X845752D2*
X4955018D1*
X44996Y3695768D2*
X4955018D1*
X44996Y3670899D2*
X4955018D1*
X44996Y3646030D2*
X4955018D1*
X44996Y3621161D2*
X4955018D1*
X44996Y3596293D2*
X4955018D1*
X44996Y3571424D2*
X4955018D1*
X44996Y3546555D2*
X4955018D1*
X44996Y3521686D2*
X711928D1*
X825585D2*
X4955018D1*
X44996Y3496818D2*
X640375D1*
X897138D2*
X1690131D1*
X2209890D2*
X2277627D1*
X2797386D2*
X3165114D1*
X3684873D2*
X4955018D1*
X44996Y3471949D2*
X600400D1*
X937077D2*
X1690131D1*
X2209890D2*
X2277627D1*
X2797386D2*
X3165114D1*
X3684873D2*
X4955018D1*
X44996Y3447080D2*
X571513D1*
X966000D2*
X1690131D1*
X2209890D2*
X2277627D1*
X2797386D2*
X3165114D1*
X3684873D2*
X4256424D1*
X4368575D2*
X4955018D1*
X44996Y3422211D2*
X549193D1*
X988285D2*
X1282127D1*
X1430378D2*
X1690131D1*
X2209890D2*
X2277627D1*
X2797386D2*
X3165114D1*
X3684873D2*
X4200194D1*
X4424804D2*
X4955018D1*
X44996Y3397343D2*
X531610D1*
X1005903D2*
X1239390D1*
X1473115D2*
X1690131D1*
X2209890D2*
X2277627D1*
X2797386D2*
X3165114D1*
X3684873D2*
X4168580D1*
X4456419D2*
X4955018D1*
X44996Y3372474D2*
X517723D1*
X1019790D2*
X1213087D1*
X1499419D2*
X1690131D1*
X2209890D2*
X2277627D1*
X2797386D2*
X3165114D1*
X3684873D2*
X4146583D1*
X4478451D2*
X4955018D1*
X44996Y3347605D2*
X506958D1*
X1030556D2*
X1194822D1*
X1517684D2*
X1690131D1*
X2209890D2*
X2277627D1*
X2797386D2*
X3165114D1*
X3684873D2*
X4130614D1*
X4494385D2*
X4955018D1*
X44996Y3322736D2*
X498883D1*
X1038594D2*
X1182010D1*
X1530495D2*
X1690131D1*
X2209890D2*
X2277627D1*
X2797386D2*
X3165114D1*
X3684873D2*
X4119168D1*
X4505832D2*
X4955018D1*
X44996Y3297867D2*
X493357D1*
X1044156D2*
X1173470D1*
X1539034D2*
X1690131D1*
X2209890D2*
X2277627D1*
X2797386D2*
X3165114D1*
X3684873D2*
X4111453D1*
X4513547D2*
X4955018D1*
X44996Y3272999D2*
X490127D1*
X1047349D2*
X1168661D1*
X1543844D2*
X1690131D1*
X2209890D2*
X2277627D1*
X2797386D2*
X3165114D1*
X3684873D2*
X4107075D1*
X4517925D2*
X4955018D1*
X44996Y3248130D2*
X489194D1*
X1048319D2*
X1167227D1*
X1545243D2*
X1690131D1*
X2209890D2*
X2277627D1*
X2797386D2*
X3165114D1*
X3684873D2*
X4105782D1*
X4519217D2*
X4955018D1*
X44996Y3223261D2*
X490487D1*
X1047026D2*
X1169164D1*
X1543341D2*
X1690131D1*
X2209890D2*
X2277627D1*
X2797386D2*
X3165114D1*
X3684873D2*
X4107541D1*
X4517458D2*
X4955018D1*
X44996Y3198392D2*
X494039D1*
X1043474D2*
X1174510D1*
X1537993D2*
X1690131D1*
X2209890D2*
X2277627D1*
X2797386D2*
X3165114D1*
X3684873D2*
X4112386D1*
X4512614D2*
X4955018D1*
X44996Y3173524D2*
X499961D1*
X1037554D2*
X1183626D1*
X1528879D2*
X1690131D1*
X2209890D2*
X2277627D1*
X2797386D2*
X3165114D1*
X3684873D2*
X4120639D1*
X4504361D2*
X4955018D1*
X44996Y3148655D2*
X508392D1*
X1029121D2*
X1197154D1*
X1515315D2*
X1690131D1*
X2209890D2*
X2277627D1*
X2797386D2*
X3165114D1*
X3684873D2*
X4132696D1*
X4492303D2*
X4955018D1*
X44996Y3123786D2*
X519589D1*
X1017888D2*
X1216424D1*
X1496081D2*
X1690131D1*
X2209890D2*
X2277627D1*
X2797386D2*
X3165114D1*
X3684873D2*
X4149454D1*
X4475581D2*
X4955018D1*
X44996Y3098917D2*
X534014D1*
X1003499D2*
X1244378D1*
X1468127D2*
X1690131D1*
X2209890D2*
X2277627D1*
X2797386D2*
X3165114D1*
X3684873D2*
X4172563D1*
X4452436D2*
X4955018D1*
X44996Y3074049D2*
X552207D1*
X985270D2*
X1291852D1*
X1420617D2*
X1690131D1*
X2209890D2*
X2277627D1*
X2797386D2*
X3165114D1*
X3684873D2*
X4206294D1*
X4418705D2*
X4955018D1*
X44996Y3049180D2*
X575353D1*
X962125D2*
X1690131D1*
X2209890D2*
X2277627D1*
X2797386D2*
X3165114D1*
X3684873D2*
X4272823D1*
X4352176D2*
X4955018D1*
X44996Y3024311D2*
X605531D1*
X931982D2*
X1690131D1*
X2209890D2*
X2277627D1*
X2797386D2*
X3165114D1*
X3684873D2*
X4955018D1*
X44996Y2999442D2*
X647983D1*
X889531D2*
X1690131D1*
X2209890D2*
X2277627D1*
X2797386D2*
X3165114D1*
X3684873D2*
X4955018D1*
X44996Y2974573D2*
X736150D1*
X801364D2*
X4955018D1*
X44996Y2949705D2*
X4955018D1*
X44996Y2924836D2*
X4955018D1*
X44996Y2899967D2*
X4955018D1*
X44996Y2875098D2*
X4955018D1*
X44996Y2850230D2*
X4955018D1*
X44996Y2825361D2*
X4955018D1*
X44996Y2800492D2*
X4955018D1*
X44996Y2775623D2*
X679453D1*
X858025D2*
X4955018D1*
X44996Y2750755D2*
X624837D1*
X912676D2*
X1690131D1*
X2209890D2*
X2277627D1*
X2797386D2*
X3165114D1*
X3684873D2*
X4955018D1*
X44996Y2725886D2*
X589528D1*
X947987D2*
X1690131D1*
X2209890D2*
X2277627D1*
X2797386D2*
X3165114D1*
X3684873D2*
X4955018D1*
X44996Y2701017D2*
X563188D1*
X974290D2*
X1690131D1*
X2209890D2*
X2277627D1*
X2797386D2*
X3165114D1*
X3684873D2*
X4248566D1*
X4376469D2*
X4955018D1*
X44996Y2676148D2*
X542663D1*
X994815D2*
X1264257D1*
X1448248D2*
X1690131D1*
X2209890D2*
X2277627D1*
X2797386D2*
X3165114D1*
X3684873D2*
X4196677D1*
X4428322D2*
X4955018D1*
X44996Y2651280D2*
X526442D1*
X1011071D2*
X1229127D1*
X1483378D2*
X1690131D1*
X2209890D2*
X2277627D1*
X2797386D2*
X3165114D1*
X3684873D2*
X4166211D1*
X4458787D2*
X4955018D1*
X44996Y2626411D2*
X513668D1*
X1023810D2*
X1206054D1*
X1506451D2*
X1690131D1*
X2209890D2*
X2277627D1*
X2797386D2*
X3165114D1*
X3684873D2*
X4144861D1*
X4480139D2*
X4955018D1*
X44996Y2601542D2*
X503871D1*
X1033606D2*
X1189870D1*
X1522635D2*
X1690131D1*
X2209890D2*
X2277627D1*
X2797386D2*
X3165114D1*
X3684873D2*
X4129358D1*
X4495640D2*
X4955018D1*
X44996Y2576673D2*
X496731D1*
X1040782D2*
X1178638D1*
X1533867D2*
X1690131D1*
X2209890D2*
X2277627D1*
X2797386D2*
X3165114D1*
X3684873D2*
X4118306D1*
X4506693D2*
X4955018D1*
X44996Y2551804D2*
X491993D1*
X1045520D2*
X1171425D1*
X1541080D2*
X1690131D1*
X2209890D2*
X2277627D1*
X2797386D2*
X3165114D1*
X3684873D2*
X4110913D1*
X4514085D2*
X4955018D1*
X44996Y2526936D2*
X489554D1*
X1047924D2*
X1167801D1*
X1544705D2*
X1690131D1*
X2209890D2*
X2277627D1*
X2797386D2*
X3165114D1*
X3684873D2*
X4106823D1*
X4518176D2*
X4955018D1*
X44996Y2502067D2*
X489374D1*
X1048104D2*
X1167513D1*
X1544955D2*
X1690131D1*
X2209890D2*
X2277627D1*
X2797386D2*
X3165114D1*
X3684873D2*
X4105819D1*
X4519181D2*
X4955018D1*
X44996Y2477198D2*
X491455D1*
X1046058D2*
X1170600D1*
X1541906D2*
X1690131D1*
X2209890D2*
X2277627D1*
X2797386D2*
X3165114D1*
X3684873D2*
X4107828D1*
X4517171D2*
X4955018D1*
X44996Y2452329D2*
X495798D1*
X1041715D2*
X1177202D1*
X1535303D2*
X1690131D1*
X2209890D2*
X2277627D1*
X2797386D2*
X3165114D1*
X3684873D2*
X4113031D1*
X4512004D2*
X4955018D1*
X44996Y2427461D2*
X502543D1*
X1034933D2*
X1187752D1*
X1524753D2*
X1690131D1*
X2209890D2*
X2277627D1*
X2797386D2*
X3165114D1*
X3684873D2*
X4121572D1*
X4503428D2*
X4955018D1*
X44996Y2402592D2*
X511909D1*
X1025568D2*
X1203039D1*
X1509430D2*
X1690131D1*
X2209890D2*
X2277627D1*
X2797386D2*
X3165114D1*
X3684873D2*
X4134024D1*
X4490975D2*
X4955018D1*
X44996Y2377723D2*
X524182D1*
X1013332D2*
X1224820D1*
X1487685D2*
X1690131D1*
X2209890D2*
X2277627D1*
X2797386D2*
X3165114D1*
X3684873D2*
X4151283D1*
X4473715D2*
X4955018D1*
X44996Y2352854D2*
X539791D1*
X997686D2*
X1257295D1*
X1455209D2*
X1690131D1*
X2209890D2*
X2277627D1*
X2797386D2*
X3165114D1*
X3684873D2*
X4175147D1*
X4449852D2*
X4955018D1*
X44996Y2327986D2*
X559564D1*
X977950D2*
X1326480D1*
X1386025D2*
X1690131D1*
X2209890D2*
X2277627D1*
X2797386D2*
X3165114D1*
X3684873D2*
X4210349D1*
X4414650D2*
X4955018D1*
X44996Y2303117D2*
X584790D1*
X952688D2*
X1690131D1*
X2209890D2*
X2277627D1*
X2797386D2*
X3165114D1*
X3684873D2*
X4288828D1*
X4336171D2*
X4955018D1*
X44996Y2278248D2*
X618306D1*
X919207D2*
X1690131D1*
X2209890D2*
X2277627D1*
X2797386D2*
X3165114D1*
X3684873D2*
X4955018D1*
X44996Y2253379D2*
X668150D1*
X869328D2*
X4955018D1*
X44996Y2228510D2*
X4955018D1*
X44996Y2203642D2*
X4955018D1*
X44996Y2178773D2*
X4955018D1*
X44996Y2153904D2*
X4955018D1*
X44996Y2129035D2*
X4955018D1*
X44996Y2104167D2*
X4955018D1*
X44996Y2079298D2*
X4955018D1*
X44996Y2054429D2*
X4955018D1*
X44996Y2029560D2*
X656882D1*
X880631D2*
X2277627D1*
X2797386D2*
X4955018D1*
X44996Y2004692D2*
X611308D1*
X926205D2*
X1096356D1*
X1616114D2*
X1690131D1*
X2209890D2*
X2277627D1*
X2797386D2*
X3165114D1*
X3684873D2*
X4955018D1*
X44996Y1979823D2*
X579659D1*
X957819D2*
X1096356D1*
X1616114D2*
X1690131D1*
X2209890D2*
X2277627D1*
X2797386D2*
X3165114D1*
X3684873D2*
X4955018D1*
X44996Y1954954D2*
X555580D1*
X981933D2*
X1096356D1*
X1616114D2*
X1690131D1*
X2209890D2*
X2277627D1*
X2797386D2*
X3165114D1*
X3684873D2*
X4213436D1*
X4411564D2*
X4955018D1*
X44996Y1930085D2*
X536669D1*
X1000844D2*
X1096356D1*
X1616114D2*
X1690131D1*
X2209890D2*
X2277627D1*
X2797386D2*
X3165114D1*
X3684873D2*
X4177121D1*
X4447879D2*
X4955018D1*
X44996Y1905217D2*
X521706D1*
X1015807D2*
X1096356D1*
X1616114D2*
X1690131D1*
X2209890D2*
X2277627D1*
X2797386D2*
X3165114D1*
X3684873D2*
X4152647D1*
X4472352D2*
X4955018D1*
X44996Y1880348D2*
X510008D1*
X1027505D2*
X1096356D1*
X1616114D2*
X1690131D1*
X2209890D2*
X2277627D1*
X2797386D2*
X3165114D1*
X3684873D2*
X4135028D1*
X4489971D2*
X4955018D1*
X44996Y1855479D2*
X501144D1*
X1036369D2*
X1096356D1*
X1616114D2*
X1690131D1*
X2209890D2*
X2277627D1*
X2797386D2*
X3165114D1*
X3684873D2*
X4122289D1*
X4502710D2*
X4955018D1*
X44996Y1830610D2*
X494828D1*
X1042685D2*
X1096356D1*
X1616114D2*
X1690131D1*
X2209890D2*
X2277627D1*
X2797386D2*
X3165114D1*
X3684873D2*
X4113497D1*
X4511501D2*
X4955018D1*
X44996Y1805741D2*
X490882D1*
X1046596D2*
X1096356D1*
X1616114D2*
X1690131D1*
X2209890D2*
X2277627D1*
X2797386D2*
X3165114D1*
X3684873D2*
X4108079D1*
X4516920D2*
X4955018D1*
X44996Y1780873D2*
X489231D1*
X1048247D2*
X1096356D1*
X1616114D2*
X1690131D1*
X2209890D2*
X2277627D1*
X2797386D2*
X3165114D1*
X3684873D2*
X4105854D1*
X4519144D2*
X4955018D1*
X44996Y1756004D2*
X489841D1*
X1047672D2*
X1096356D1*
X1616114D2*
X1690131D1*
X2209890D2*
X2277627D1*
X2797386D2*
X3165114D1*
X3684873D2*
X4106644D1*
X4518356D2*
X4955018D1*
X44996Y1731135D2*
X492676D1*
X1044837D2*
X1096356D1*
X1616114D2*
X1690131D1*
X2209890D2*
X2277627D1*
X2797386D2*
X3165114D1*
X3684873D2*
X4110520D1*
X4514480D2*
X4955018D1*
X44996Y1706266D2*
X497843D1*
X1039671D2*
X1096356D1*
X1616114D2*
X1690131D1*
X2209890D2*
X2277627D1*
X2797386D2*
X3165114D1*
X3684873D2*
X4117696D1*
X4507303D2*
X4955018D1*
X44996Y1681398D2*
X505487D1*
X1032028D2*
X1096356D1*
X1616114D2*
X1690131D1*
X2209890D2*
X2277627D1*
X2797386D2*
X3165114D1*
X3684873D2*
X4128497D1*
X4496538D2*
X4955018D1*
X44996Y1656529D2*
X515785D1*
X1021693D2*
X1096356D1*
X1616114D2*
X1690131D1*
X2209890D2*
X2277627D1*
X2797386D2*
X3165114D1*
X3684873D2*
X4143640D1*
X4481358D2*
X4955018D1*
X44996Y1631660D2*
X529134D1*
X1008344D2*
X1096356D1*
X1616114D2*
X1690131D1*
X2209890D2*
X2277627D1*
X2797386D2*
X3165114D1*
X3684873D2*
X4164525D1*
X4460474D2*
X4955018D1*
X44996Y1606791D2*
X546071D1*
X991406D2*
X1096356D1*
X1616114D2*
X1690131D1*
X2209890D2*
X2277627D1*
X2797386D2*
X3165114D1*
X3684873D2*
X4194165D1*
X4430833D2*
X4955018D1*
X44996Y1581923D2*
X567530D1*
X969948D2*
X1096356D1*
X1616114D2*
X1690131D1*
X2209890D2*
X2277627D1*
X2797386D2*
X3165114D1*
X3684873D2*
X4243434D1*
X4381564D2*
X4955018D1*
X44996Y1557054D2*
X595161D1*
X942316D2*
X1096356D1*
X1616114D2*
X1690131D1*
X2209890D2*
X2277627D1*
X2797386D2*
X3165114D1*
X3684873D2*
X4955018D1*
X44996Y1532185D2*
X632803D1*
X904710D2*
X1096356D1*
X1616114D2*
X1690131D1*
X2209890D2*
X2277627D1*
X2797386D2*
X3165114D1*
X3684873D2*
X4955018D1*
X44996Y1507316D2*
X694739D1*
X842738D2*
X4955018D1*
X44996Y1482448D2*
X4955018D1*
X44996Y1457579D2*
X4955018D1*
X44996Y1432710D2*
X4955018D1*
X44996Y1407841D2*
X4955018D1*
X44996Y1382972D2*
X4955018D1*
X44996Y1358104D2*
X4955018D1*
X44996Y1333235D2*
X4955018D1*
X44996Y1308366D2*
X4955018D1*
X44996Y1283497D2*
X508860D1*
X1028618D2*
X2277627D1*
X2797386D2*
X3165114D1*
X3684873D2*
X4955018D1*
X44996Y1258629D2*
X508860D1*
X1028618D2*
X2277627D1*
X2797386D2*
X3165114D1*
X3684873D2*
X4955018D1*
X44996Y1233760D2*
X508860D1*
X1028618D2*
X1921046D1*
X1978975D2*
X2277627D1*
X2797386D2*
X3165114D1*
X3684873D2*
X4283552D1*
X4341446D2*
X4955018D1*
X44996Y1208891D2*
X508860D1*
X1028618D2*
X1280190D1*
X1432315D2*
X1846730D1*
X2053255D2*
X2277627D1*
X2797386D2*
X3165114D1*
X3684873D2*
X4209236D1*
X4415762D2*
X4955018D1*
X44996Y1184022D2*
X508860D1*
X1028618D2*
X1238349D1*
X1474156D2*
X1811958D1*
X2088026D2*
X2277627D1*
X2797386D2*
X3165114D1*
X3684873D2*
X4174465D1*
X4450534D2*
X4955018D1*
X44996Y1159154D2*
X508860D1*
X1028618D2*
X1212369D1*
X1500136D2*
X1788274D1*
X2111710D2*
X2277627D1*
X2797386D2*
X3165114D1*
X3684873D2*
X4150781D1*
X4474218D2*
X4955018D1*
X44996Y1134285D2*
X508860D1*
X1028618D2*
X1194319D1*
X1518186D2*
X1771157D1*
X2128827D2*
X2277627D1*
X2797386D2*
X3165114D1*
X3684873D2*
X4133664D1*
X4491335D2*
X4955018D1*
X44996Y1109416D2*
X508860D1*
X1028618D2*
X1181652D1*
X1530853D2*
X1758814D1*
X2141172D2*
X2277627D1*
X2797386D2*
X3165114D1*
X3684873D2*
X4121320D1*
X4503678D2*
X4955018D1*
X44996Y1084547D2*
X508860D1*
X1028618D2*
X1173255D1*
X1539251D2*
X1750345D1*
X2149640D2*
X2277627D1*
X2797386D2*
X3165114D1*
X3684873D2*
X4112852D1*
X4512147D2*
X4955018D1*
X44996Y1059678D2*
X508860D1*
X1028618D2*
X1168554D1*
X1543951D2*
X1745249D1*
X2154736D2*
X2277627D1*
X2797386D2*
X3165114D1*
X3684873D2*
X4107756D1*
X4517243D2*
X4955018D1*
X44996Y1034810D2*
X508860D1*
X1028618D2*
X1167262D1*
X1545243D2*
X1743311D1*
X2156709D2*
X2277627D1*
X2797386D2*
X3165114D1*
X3684873D2*
X4105782D1*
X4519217D2*
X4955018D1*
X44996Y1009941D2*
X508860D1*
X1028618D2*
X1169272D1*
X1543234D2*
X1744388D1*
X2155633D2*
X2277627D1*
X2797386D2*
X3165114D1*
X3684873D2*
X4106895D1*
X4518104D2*
X4955018D1*
X44996Y985072D2*
X508860D1*
X1028618D2*
X1174762D1*
X1537743D2*
X1748550D1*
X2151434D2*
X2277627D1*
X2797386D2*
X3165114D1*
X3684873D2*
X4111058D1*
X4513941D2*
X4955018D1*
X44996Y960203D2*
X508860D1*
X1028618D2*
X1184021D1*
X1528484D2*
X1756014D1*
X2143970D2*
X2277627D1*
X2797386D2*
X3165114D1*
X3684873D2*
X4118521D1*
X4506478D2*
X4955018D1*
X44996Y935335D2*
X508860D1*
X1028618D2*
X1197692D1*
X1514812D2*
X1767175D1*
X2132810D2*
X2277627D1*
X2797386D2*
X3165114D1*
X3684873D2*
X4129681D1*
X4495318D2*
X4955018D1*
X44996Y910466D2*
X508860D1*
X1028618D2*
X1217177D1*
X1495328D2*
X1782820D1*
X2117201D2*
X2277627D1*
X2797386D2*
X3165114D1*
X3684873D2*
X4145327D1*
X4479672D2*
X4955018D1*
X44996Y885597D2*
X508860D1*
X1028618D2*
X1245526D1*
X1466979D2*
X1804350D1*
X2095671D2*
X2277627D1*
X2797386D2*
X3165114D1*
X3684873D2*
X4166822D1*
X4458177D2*
X4955018D1*
X44996Y860728D2*
X508860D1*
X1028618D2*
X1294257D1*
X1418248D2*
X1835104D1*
X2064882D2*
X2277627D1*
X2797386D2*
X3165114D1*
X3684873D2*
X4197610D1*
X4427388D2*
X4955018D1*
X44996Y835860D2*
X508860D1*
X1028618D2*
X1888068D1*
X2011953D2*
X2277627D1*
X2797386D2*
X3165114D1*
X3684873D2*
X4250539D1*
X4374459D2*
X4955018D1*
X44996Y810991D2*
X508860D1*
X1028618D2*
X2277627D1*
X2797386D2*
X3165114D1*
X3684873D2*
X4955018D1*
X44996Y786122D2*
X508860D1*
X1028618D2*
X2277627D1*
X2797386D2*
X3165114D1*
X3684873D2*
X4955018D1*
X44996Y761253D2*
X4955018D1*
X44996Y736385D2*
X4955018D1*
X44996Y711516D2*
X4955018D1*
X44996Y686647D2*
X4955018D1*
X44996Y661778D2*
X4955018D1*
X44996Y636909D2*
X4955018D1*
X44996Y612041D2*
X4955018D1*
X44996Y587172D2*
X4955018D1*
X44996Y562303D2*
X4955018D1*
X44996Y537434D2*
X4955018D1*
X44996Y512566D2*
X4955018D1*
X44996Y487697D2*
X4955018D1*
X44996Y462828D2*
X4955018D1*
X44996Y437959D2*
X4955018D1*
X44996Y413091D2*
X4955018D1*
X44996Y388222D2*
X4955018D1*
X44996Y363353D2*
X4955018D1*
X44996Y338484D2*
X4955018D1*
X44996Y313615D2*
X4955018D1*
X44996Y288747D2*
X4955018D1*
X44996Y263878D2*
X4955018D1*
X44996Y239009D2*
X4955018D1*
X44996Y214140D2*
X196596D1*
X390885D2*
X4609094D1*
X4803383D2*
X4955018D1*
X44996Y189272D2*
X155543D1*
X431971D2*
X4568043D1*
X4844471D2*
X4955018D1*
X44996Y164403D2*
X137423D1*
X450058D2*
X4549921D1*
X4862556D2*
X4955018D1*
X44996Y139534D2*
X128559D1*
X458921D2*
X4541058D1*
X4871420D2*
X4955018D1*
X44996Y114665D2*
X126478D1*
X461038D2*
X4538976D1*
X4873537D2*
X4955018D1*
X44996Y89797D2*
X130676D1*
X456840D2*
X4543175D1*
X4869339D2*
X4955018D1*
X44996Y64928D2*
X142123D1*
X445357D2*
X4554622D1*
X4857891D2*
X4955018D1*
X1045664Y3978315D2*
X1044446Y3959987D1*
X1042018Y3941778D1*
X1038387Y3923772D1*
X1033572Y3906045D1*
X1027593Y3888676D1*
X1020475Y3871741D1*
X1012252Y3855315D1*
X1002958Y3839471D1*
X992634Y3824277D1*
X981327Y3809801D1*
X969084Y3796105D1*
X955962Y3783251D1*
X942016Y3771294D1*
X927308Y3760289D1*
X911904Y3750281D1*
X895871Y3741316D1*
X879278Y3733434D1*
X862201Y3726669D1*
X844713Y3721050D1*
X826890Y3716602D1*
X808811Y3713345D1*
X790556Y3711293D1*
X772206Y3710454D1*
X753841Y3710835D1*
X735541Y3712430D1*
X717387Y3715235D1*
X699459Y3719238D1*
X681836Y3724419D1*
X664594Y3730756D1*
X647810Y3738222D1*
X631558Y3746783D1*
X615909Y3756403D1*
X600932Y3767038D1*
X586693Y3778643D1*
X573253Y3791165D1*
X560673Y3804551D1*
X549008Y3818741D1*
X538308Y3833673D1*
X528622Y3849281D1*
X519991Y3865496D1*
X512453Y3882247D1*
X506042Y3899462D1*
X500785Y3917063D1*
X496707Y3934974D1*
X493824Y3953115D1*
X492150Y3971408D1*
X491692Y3989772D1*
X492451Y4008126D1*
X494425Y4026388D1*
X497605Y4044480D1*
X501976Y4062322D1*
X507521Y4079835D1*
X514214Y4096942D1*
X522025Y4113567D1*
X530920Y4129639D1*
X540862Y4145085D1*
X551804Y4159840D1*
X563701Y4173836D1*
X576499Y4187014D1*
X590142Y4199315D1*
X604570Y4210684D1*
X619719Y4221072D1*
X635524Y4230434D1*
X651915Y4238728D1*
X668819Y4245919D1*
X686161Y4251972D1*
X703867Y4256864D1*
X721860Y4260571D1*
X740056Y4263077D1*
X758381Y4264373D1*
X776749Y4264451D1*
X795084Y4263312D1*
X813302Y4260962D1*
X831324Y4257408D1*
X849071Y4252669D1*
X866466Y4246764D1*
X883430Y4239719D1*
X899891Y4231566D1*
X915776Y4222339D1*
X931013Y4212080D1*
X945538Y4200835D1*
X959286Y4188652D1*
X972196Y4175584D1*
X984211Y4161690D1*
X995281Y4147030D1*
X1005353Y4131668D1*
X1014387Y4115673D1*
X1022340Y4099115D1*
X1029178Y4082067D1*
X1034873Y4064602D1*
X1039396Y4046798D1*
X1042731Y4028734D1*
X1044861Y4010488D1*
X1045777Y3992142D1*
X1045664Y3978315D1*
Y3240815D2*
X1044446Y3222487D1*
X1042018Y3204278D1*
X1038387Y3186272D1*
X1033572Y3168545D1*
X1027593Y3151176D1*
X1020475Y3134241D1*
X1012252Y3117815D1*
X1002958Y3101971D1*
X992634Y3086777D1*
X981327Y3072301D1*
X969084Y3058605D1*
X955962Y3045751D1*
X942016Y3033794D1*
X927308Y3022789D1*
X911904Y3012781D1*
X895871Y3003816D1*
X879278Y2995934D1*
X862201Y2989169D1*
X844713Y2983550D1*
X826890Y2979102D1*
X808811Y2975845D1*
X790556Y2973793D1*
X772206Y2972954D1*
X753841Y2973335D1*
X735541Y2974930D1*
X717387Y2977735D1*
X699459Y2981738D1*
X681836Y2986919D1*
X664594Y2993256D1*
X647810Y3000722D1*
X631558Y3009283D1*
X615909Y3018903D1*
X600932Y3029538D1*
X586693Y3041143D1*
X573253Y3053665D1*
X560673Y3067051D1*
X549008Y3081241D1*
X538308Y3096173D1*
X528622Y3111781D1*
X519991Y3127996D1*
X512453Y3144747D1*
X506042Y3161962D1*
X500785Y3179563D1*
X496707Y3197474D1*
X493824Y3215615D1*
X492150Y3233908D1*
X491692Y3252272D1*
X492451Y3270626D1*
X494425Y3288888D1*
X497605Y3306980D1*
X501976Y3324822D1*
X507521Y3342335D1*
X514214Y3359442D1*
X522025Y3376067D1*
X530920Y3392139D1*
X540862Y3407585D1*
X551804Y3422340D1*
X563701Y3436336D1*
X576499Y3449514D1*
X590142Y3461815D1*
X604570Y3473184D1*
X619719Y3483572D1*
X635524Y3492934D1*
X651915Y3501228D1*
X668819Y3508419D1*
X686161Y3514472D1*
X703867Y3519364D1*
X721860Y3523071D1*
X740056Y3525577D1*
X758381Y3526873D1*
X776749Y3526951D1*
X795084Y3525812D1*
X813302Y3523462D1*
X831324Y3519908D1*
X849071Y3515169D1*
X866466Y3509264D1*
X883430Y3502219D1*
X899891Y3494066D1*
X915776Y3484839D1*
X931013Y3474580D1*
X945538Y3463335D1*
X959286Y3451152D1*
X972196Y3438084D1*
X984211Y3424190D1*
X995281Y3409530D1*
X1005353Y3394168D1*
X1014387Y3378173D1*
X1022340Y3361615D1*
X1029178Y3344567D1*
X1034873Y3327102D1*
X1039396Y3309298D1*
X1042731Y3291234D1*
X1044861Y3272988D1*
X1045777Y3254642D1*
X1045664Y3240815D1*
Y2503315D2*
X1044446Y2484987D1*
X1042018Y2466778D1*
X1038387Y2448772D1*
X1033572Y2431045D1*
X1027593Y2413676D1*
X1020475Y2396741D1*
X1012252Y2380315D1*
X1002958Y2364471D1*
X992634Y2349277D1*
X981327Y2334801D1*
X969084Y2321105D1*
X955962Y2308251D1*
X942016Y2296294D1*
X927308Y2285289D1*
X911904Y2275281D1*
X895871Y2266316D1*
X879278Y2258434D1*
X862201Y2251669D1*
X844713Y2246050D1*
X826890Y2241602D1*
X808811Y2238345D1*
X790556Y2236293D1*
X772206Y2235454D1*
X753841Y2235835D1*
X735541Y2237430D1*
X717387Y2240235D1*
X699459Y2244238D1*
X681836Y2249419D1*
X664594Y2255756D1*
X647810Y2263222D1*
X631558Y2271783D1*
X615909Y2281403D1*
X600932Y2292038D1*
X586693Y2303643D1*
X573253Y2316165D1*
X560673Y2329551D1*
X549008Y2343741D1*
X538308Y2358673D1*
X528622Y2374281D1*
X519991Y2390496D1*
X512453Y2407247D1*
X506042Y2424462D1*
X500785Y2442063D1*
X496707Y2459974D1*
X493824Y2478115D1*
X492150Y2496408D1*
X491692Y2514772D1*
X492451Y2533126D1*
X494425Y2551388D1*
X497605Y2569480D1*
X501976Y2587322D1*
X507521Y2604835D1*
X514214Y2621942D1*
X522025Y2638567D1*
X530920Y2654639D1*
X540862Y2670085D1*
X551804Y2684840D1*
X563701Y2698836D1*
X576499Y2712014D1*
X590142Y2724315D1*
X604570Y2735684D1*
X619719Y2746072D1*
X635524Y2755434D1*
X651915Y2763728D1*
X668819Y2770919D1*
X686161Y2776972D1*
X703867Y2781864D1*
X721860Y2785571D1*
X740056Y2788077D1*
X758381Y2789373D1*
X776749Y2789451D1*
X795084Y2788312D1*
X813302Y2785962D1*
X831324Y2782408D1*
X849071Y2777669D1*
X866466Y2771764D1*
X883430Y2764719D1*
X899891Y2756566D1*
X915776Y2747339D1*
X931013Y2737080D1*
X945538Y2725835D1*
X959286Y2713652D1*
X972196Y2700584D1*
X984211Y2686690D1*
X995281Y2672030D1*
X1005353Y2656668D1*
X1014387Y2640673D1*
X1022340Y2624115D1*
X1029178Y2607067D1*
X1034873Y2589602D1*
X1039396Y2571798D1*
X1042731Y2553734D1*
X1044861Y2535488D1*
X1045777Y2517142D1*
X1045664Y2503315D1*
Y1765815D2*
X1044446Y1747487D1*
X1042018Y1729278D1*
X1038387Y1711272D1*
X1033572Y1693545D1*
X1027593Y1676176D1*
X1020475Y1659241D1*
X1012252Y1642815D1*
X1002958Y1626971D1*
X992634Y1611777D1*
X981327Y1597301D1*
X969084Y1583605D1*
X955962Y1570751D1*
X942016Y1558794D1*
X927308Y1547789D1*
X911904Y1537781D1*
X895871Y1528816D1*
X879278Y1520934D1*
X862201Y1514169D1*
X844713Y1508550D1*
X826890Y1504102D1*
X808811Y1500845D1*
X790556Y1498793D1*
X772206Y1497954D1*
X753841Y1498335D1*
X735541Y1499930D1*
X717387Y1502735D1*
X699459Y1506738D1*
X681836Y1511919D1*
X664594Y1518256D1*
X647810Y1525722D1*
X631558Y1534283D1*
X615909Y1543903D1*
X600932Y1554538D1*
X586693Y1566143D1*
X573253Y1578665D1*
X560673Y1592051D1*
X549008Y1606241D1*
X538308Y1621173D1*
X528622Y1636781D1*
X519991Y1652996D1*
X512453Y1669747D1*
X506042Y1686962D1*
X500785Y1704563D1*
X496707Y1722474D1*
X493824Y1740615D1*
X492150Y1758908D1*
X491692Y1777272D1*
X492451Y1795626D1*
X494425Y1813888D1*
X497605Y1831980D1*
X501976Y1849822D1*
X507521Y1867335D1*
X514214Y1884442D1*
X522025Y1901067D1*
X530920Y1917139D1*
X540862Y1932585D1*
X551804Y1947340D1*
X563701Y1961336D1*
X576499Y1974514D1*
X590142Y1986815D1*
X604570Y1998184D1*
X619719Y2008572D1*
X635524Y2017934D1*
X651915Y2026228D1*
X668819Y2033419D1*
X686161Y2039472D1*
X703867Y2044364D1*
X721860Y2048071D1*
X740056Y2050577D1*
X758381Y2051873D1*
X776749Y2051951D1*
X795084Y2050812D1*
X813302Y2048462D1*
X831324Y2044908D1*
X849071Y2040169D1*
X866466Y2034264D1*
X883430Y2027219D1*
X899891Y2019066D1*
X915776Y2009839D1*
X931013Y1999580D1*
X945538Y1988335D1*
X959286Y1976152D1*
X972196Y1963084D1*
X984211Y1949190D1*
X995281Y1934530D1*
X1005353Y1919168D1*
X1014387Y1903173D1*
X1022340Y1886615D1*
X1029178Y1869567D1*
X1034873Y1852102D1*
X1039396Y1834298D1*
X1042731Y1816234D1*
X1044861Y1797988D1*
X1045777Y1779642D1*
X1045664Y1765815D1*
X164269Y42499D2*
X158147Y48108D1*
X152823Y53869D1*
X147967Y60029D1*
X143609Y66551D1*
X139776Y73395D1*
X136492Y80518D1*
X133777Y87878D1*
X131647Y95428D1*
X130117Y103121D1*
X129196Y110911D1*
X128887Y118749D1*
X129196Y126588D1*
X130117Y134378D1*
X131647Y142071D1*
X133777Y149621D1*
X136492Y156980D1*
X139776Y164104D1*
X143609Y170948D1*
X147967Y177470D1*
X152823Y183630D1*
X158147Y189391D1*
X163908Y194715D1*
X170068Y199571D1*
X176591Y203929D1*
X183434Y207762D1*
X190558Y211046D1*
X197917Y213761D1*
X205467Y215891D1*
X213160Y217421D1*
X220950Y218343D1*
X237975Y218651D1*
X358710D1*
X366549Y218343D1*
X374339Y217421D1*
X382031Y215891D1*
X389581Y213761D1*
X396941Y211046D1*
X404064Y207762D1*
X410908Y203929D1*
X417430Y199571D1*
X423591Y194715D1*
X429352Y189391D1*
X434676Y183630D1*
X439531Y177470D1*
X443890Y170948D1*
X447723Y164104D1*
X451007Y156980D1*
X453722Y149621D1*
X455852Y142071D1*
X457382Y134378D1*
X458303Y126588D1*
X458612Y118749D1*
X458303Y110911D1*
X457382Y103121D1*
X455852Y95428D1*
X453722Y87878D1*
X451007Y80518D1*
X447723Y73395D1*
X443890Y66551D1*
X439531Y60029D1*
X434676Y53869D1*
X429352Y48108D1*
X423230Y42499D1*
X4576777Y42500D1*
X4570647Y48108D1*
X4565323Y53869D1*
X4560467Y60029D1*
X4556109Y66551D1*
X4552276Y73395D1*
X4548992Y80518D1*
X4546277Y87878D1*
X4544147Y95428D1*
X4542617Y103121D1*
X4541696Y110911D1*
X4541387Y118749D1*
X4541696Y126588D1*
X4542617Y134378D1*
X4544147Y142071D1*
X4546277Y149621D1*
X4548992Y156980D1*
X4552276Y164104D1*
X4556109Y170948D1*
X4560467Y177470D1*
X4565323Y183630D1*
X4570647Y189391D1*
X4576408Y194715D1*
X4582568Y199571D1*
X4589091Y203929D1*
X4595934Y207762D1*
X4603058Y211046D1*
X4610417Y213761D1*
X4617967Y215891D1*
X4625660Y217421D1*
X4633450Y218343D1*
X4650475Y218651D1*
X4771210D1*
X4779049Y218343D1*
X4786839Y217421D1*
X4794531Y215891D1*
X4802081Y213761D1*
X4809441Y211046D1*
X4816564Y207762D1*
X4823408Y203929D1*
X4829930Y199571D1*
X4836091Y194715D1*
X4841852Y189391D1*
X4847176Y183630D1*
X4852031Y177470D1*
X4856390Y170948D1*
X4860223Y164104D1*
X4863507Y156980D1*
X4866222Y149621D1*
X4868352Y142071D1*
X4869882Y134378D1*
X4870803Y126588D1*
X4871112Y118749D1*
X4870803Y110911D1*
X4869882Y103121D1*
X4868352Y95428D1*
X4866222Y87878D1*
X4863507Y80518D1*
X4860223Y73395D1*
X4856390Y66551D1*
X4852031Y60029D1*
X4847176Y53869D1*
X4841852Y48108D1*
X4835730Y42499D1*
X4952627Y42500D1*
X4957493Y47335D1*
X4957500Y5011693D1*
X4952665Y5016549D1*
X4832314Y5016555D1*
X4841852Y5008142D1*
X4847176Y5002381D1*
X4852031Y4996220D1*
X4856390Y4989698D1*
X4860223Y4982854D1*
X4863507Y4975731D1*
X4866222Y4968371D1*
X4868352Y4960822D1*
X4869882Y4953129D1*
X4870803Y4945339D1*
X4871112Y4937500D1*
X4870803Y4929661D1*
X4869882Y4921871D1*
X4868352Y4914178D1*
X4866222Y4906629D1*
X4863507Y4899269D1*
X4860223Y4892146D1*
X4856390Y4885302D1*
X4852031Y4878780D1*
X4847176Y4872619D1*
X4841852Y4866858D1*
X4836091Y4861534D1*
X4829930Y4856678D1*
X4823408Y4852320D1*
X4816564Y4848487D1*
X4809441Y4845203D1*
X4802081Y4842488D1*
X4794531Y4840358D1*
X4786839Y4838828D1*
X4779049Y4837907D1*
X4762024Y4837598D1*
X4641289D1*
X4633450Y4837907D1*
X4625660Y4838828D1*
X4617967Y4840358D1*
X4610417Y4842488D1*
X4603058Y4845203D1*
X4595934Y4848487D1*
X4589091Y4852320D1*
X4582568Y4856678D1*
X4576408Y4861534D1*
X4570647Y4866858D1*
X4565323Y4872619D1*
X4560467Y4878780D1*
X4556109Y4885302D1*
X4552276Y4892146D1*
X4548992Y4899269D1*
X4546277Y4906629D1*
X4544147Y4914178D1*
X4542617Y4921871D1*
X4541696Y4929661D1*
X4541387Y4937500D1*
X4541696Y4945339D1*
X4542617Y4953129D1*
X4544147Y4960822D1*
X4546277Y4968371D1*
X4548992Y4975731D1*
X4552276Y4982854D1*
X4556109Y4989698D1*
X4560467Y4996220D1*
X4565323Y5002381D1*
X4570647Y5008142D1*
X4576408Y5013466D1*
X4580331Y5016558D1*
X419778Y5016555D1*
X429352Y5008142D1*
X434676Y5002381D1*
X439531Y4996220D1*
X443890Y4989698D1*
X447723Y4982854D1*
X451007Y4975731D1*
X453722Y4968371D1*
X455852Y4960822D1*
X457382Y4953129D1*
X458303Y4945339D1*
X458612Y4937500D1*
X458303Y4929661D1*
X457382Y4921871D1*
X455852Y4914178D1*
X453722Y4906629D1*
X451007Y4899269D1*
X447723Y4892146D1*
X443890Y4885302D1*
X439531Y4878780D1*
X434676Y4872619D1*
X429352Y4866858D1*
X423591Y4861534D1*
X417430Y4856678D1*
X410908Y4852320D1*
X404064Y4848487D1*
X396941Y4845203D1*
X389581Y4842488D1*
X382031Y4840358D1*
X374339Y4838828D1*
X366549Y4837907D1*
X349524Y4837598D1*
X228789D1*
X220950Y4837907D1*
X213160Y4838828D1*
X205467Y4840358D1*
X197917Y4842488D1*
X190558Y4845203D1*
X183434Y4848487D1*
X176591Y4852320D1*
X170068Y4856678D1*
X163908Y4861534D1*
X158147Y4866858D1*
X152823Y4872619D1*
X147967Y4878780D1*
X143609Y4885302D1*
X139776Y4892146D1*
X136492Y4899269D1*
X133777Y4906629D1*
X131647Y4914178D1*
X130117Y4921871D1*
X129196Y4929661D1*
X128887Y4937500D1*
X129196Y4945339D1*
X130117Y4953129D1*
X131647Y4960822D1*
X133777Y4968371D1*
X136492Y4975731D1*
X139776Y4982854D1*
X143609Y4989698D1*
X147967Y4996220D1*
X152823Y5002381D1*
X158147Y5008142D1*
X163908Y5013466D1*
X167831Y5016558D1*
X47373Y5016555D1*
X42507Y5011720D1*
X42500Y47362D1*
X47335Y42507D1*
X164241Y42500D1*
X1542539Y3978318D2*
X1540732Y3960041D1*
X1537138Y3942031D1*
X1531790Y3924462D1*
X1524739Y3907504D1*
X1516055Y3891322D1*
X1505822Y3876072D1*
X1494138Y3861902D1*
X1481117Y3848950D1*
X1466886Y3837341D1*
X1451583Y3827189D1*
X1435354Y3818591D1*
X1418360Y3811630D1*
X1400762Y3806374D1*
X1382734Y3802874D1*
X1364448Y3801164D1*
X1346083Y3801261D1*
X1327816Y3803164D1*
X1309825Y3806854D1*
X1292285Y3812295D1*
X1275365Y3819436D1*
X1259228Y3828205D1*
X1244033Y3838518D1*
X1229925Y3850277D1*
X1217042Y3863365D1*
X1205509Y3877657D1*
X1195437Y3893014D1*
X1186924Y3909287D1*
X1180054Y3926319D1*
X1174891Y3943944D1*
X1171486Y3961991D1*
X1169873Y3980286D1*
X1170067Y3998650D1*
X1172066Y4016906D1*
X1175850Y4034877D1*
X1181385Y4052388D1*
X1188614Y4069272D1*
X1197469Y4085361D1*
X1207862Y4100503D1*
X1219696Y4114547D1*
X1232852Y4127361D1*
X1247205Y4138819D1*
X1262614Y4148810D1*
X1278933Y4157236D1*
X1296000Y4164017D1*
X1313652Y4169087D1*
X1331717Y4172395D1*
X1350020Y4173912D1*
X1368382Y4173621D1*
X1386627Y4171525D1*
X1404579Y4167646D1*
X1422060Y4162020D1*
X1438904Y4154701D1*
X1454948Y4145761D1*
X1470033Y4135287D1*
X1484016Y4123382D1*
X1496760Y4110157D1*
X1508142Y4095744D1*
X1518051Y4080282D1*
X1526391Y4063920D1*
X1533081Y4046816D1*
X1538058Y4029138D1*
X1541272Y4011056D1*
X1542692Y3992745D1*
X1542539Y3978318D1*
X520554Y1288631D2*
X1026131D1*
Y773867D1*
X511367D1*
Y1288631D1*
X520554D1*
X1542539Y3240818D2*
X1540732Y3222541D1*
X1537138Y3204531D1*
X1531790Y3186962D1*
X1524739Y3170004D1*
X1516055Y3153822D1*
X1505822Y3138572D1*
X1494138Y3124402D1*
X1481117Y3111450D1*
X1466886Y3099841D1*
X1451583Y3089689D1*
X1435354Y3081091D1*
X1418360Y3074130D1*
X1400762Y3068874D1*
X1382734Y3065374D1*
X1364448Y3063664D1*
X1346083Y3063761D1*
X1327816Y3065664D1*
X1309825Y3069354D1*
X1292285Y3074795D1*
X1275365Y3081936D1*
X1259228Y3090705D1*
X1244033Y3101018D1*
X1229925Y3112777D1*
X1217042Y3125865D1*
X1205509Y3140157D1*
X1195437Y3155514D1*
X1186924Y3171787D1*
X1180054Y3188819D1*
X1174891Y3206444D1*
X1171486Y3224491D1*
X1169873Y3242786D1*
X1170067Y3261150D1*
X1172066Y3279406D1*
X1175850Y3297377D1*
X1181385Y3314888D1*
X1188614Y3331772D1*
X1197469Y3347861D1*
X1207862Y3363003D1*
X1219696Y3377047D1*
X1232852Y3389861D1*
X1247205Y3401319D1*
X1262614Y3411310D1*
X1278933Y3419736D1*
X1296000Y3426517D1*
X1313652Y3431587D1*
X1331717Y3434895D1*
X1350020Y3436412D1*
X1368382Y3436121D1*
X1386627Y3434025D1*
X1404579Y3430146D1*
X1422060Y3424520D1*
X1438904Y3417201D1*
X1454948Y3408261D1*
X1470033Y3397787D1*
X1484016Y3385882D1*
X1496760Y3372657D1*
X1508142Y3358244D1*
X1518051Y3342782D1*
X1526391Y3326420D1*
X1533081Y3309316D1*
X1538058Y3291638D1*
X1541272Y3273556D1*
X1542692Y3255245D1*
X1542539Y3240818D1*
Y1028316D2*
X1540732Y1010039D1*
X1537138Y992030D1*
X1531790Y974461D1*
X1524739Y957503D1*
X1516055Y941320D1*
X1505822Y926071D1*
X1494138Y911900D1*
X1481117Y898949D1*
X1466886Y887340D1*
X1451583Y877188D1*
X1435354Y868589D1*
X1418360Y861629D1*
X1400762Y856373D1*
X1382734Y852873D1*
X1364448Y851163D1*
X1346083Y851260D1*
X1327816Y853163D1*
X1309825Y856853D1*
X1292285Y862294D1*
X1275365Y869434D1*
X1259228Y878203D1*
X1244033Y888517D1*
X1229925Y900276D1*
X1217042Y913364D1*
X1205509Y927656D1*
X1195437Y943013D1*
X1186924Y959286D1*
X1180054Y976318D1*
X1174891Y993942D1*
X1171486Y1011990D1*
X1169873Y1030285D1*
X1170067Y1048648D1*
X1172066Y1066904D1*
X1175850Y1084875D1*
X1181385Y1102387D1*
X1188614Y1119270D1*
X1197469Y1135360D1*
X1207862Y1150501D1*
X1219696Y1164546D1*
X1232852Y1177360D1*
X1247205Y1188818D1*
X1262614Y1198808D1*
X1278933Y1207235D1*
X1296000Y1214016D1*
X1313652Y1219085D1*
X1331717Y1222394D1*
X1350020Y1223911D1*
X1368382Y1223619D1*
X1386627Y1221524D1*
X1404579Y1217644D1*
X1422060Y1212018D1*
X1438904Y1204699D1*
X1454948Y1195760D1*
X1470033Y1185286D1*
X1484016Y1173381D1*
X1496760Y1160156D1*
X1508142Y1145743D1*
X1518051Y1130281D1*
X1526391Y1113919D1*
X1533081Y1096815D1*
X1538058Y1079136D1*
X1541272Y1061055D1*
X1542692Y1042744D1*
X1542539Y1028316D1*
Y2503316D2*
X1540732Y2485039D1*
X1537138Y2467030D1*
X1531790Y2449461D1*
X1524739Y2432503D1*
X1516055Y2416320D1*
X1505822Y2401071D1*
X1494138Y2386900D1*
X1481117Y2373949D1*
X1466886Y2362340D1*
X1451583Y2352188D1*
X1435354Y2343589D1*
X1418360Y2336629D1*
X1400762Y2331373D1*
X1382734Y2327873D1*
X1364448Y2326163D1*
X1346083Y2326260D1*
X1327816Y2328163D1*
X1309825Y2331853D1*
X1292285Y2337294D1*
X1275365Y2344434D1*
X1259228Y2353203D1*
X1244033Y2363517D1*
X1229925Y2375276D1*
X1217042Y2388364D1*
X1205509Y2402656D1*
X1195437Y2418013D1*
X1186924Y2434286D1*
X1180054Y2451318D1*
X1174891Y2468942D1*
X1171486Y2486990D1*
X1169873Y2505285D1*
X1170067Y2523648D1*
X1172066Y2541904D1*
X1175850Y2559875D1*
X1181385Y2577387D1*
X1188614Y2594270D1*
X1197469Y2610360D1*
X1207862Y2625501D1*
X1219696Y2639546D1*
X1232852Y2652360D1*
X1247205Y2663818D1*
X1262614Y2673808D1*
X1278933Y2682235D1*
X1296000Y2689016D1*
X1313652Y2694085D1*
X1331717Y2697394D1*
X1350020Y2698911D1*
X1368382Y2698619D1*
X1386627Y2696524D1*
X1404579Y2692644D1*
X1422060Y2687018D1*
X1438904Y2679699D1*
X1454948Y2670760D1*
X1470033Y2660286D1*
X1484016Y2648381D1*
X1496760Y2635156D1*
X1508142Y2620743D1*
X1518051Y2605281D1*
X1526391Y2588919D1*
X1533081Y2571815D1*
X1538058Y2554136D1*
X1541272Y2536055D1*
X1542692Y2517744D1*
X1542539Y2503316D1*
X1108054Y2026131D2*
X1613631D1*
Y1511367D1*
X1098867D1*
Y2026131D1*
X1108054D1*
X1701804D2*
X2207382D1*
Y1511367D1*
X1692618D1*
Y2026131D1*
X1701804D1*
X2289304Y2032382D2*
X2794882D1*
Y1517618D1*
X2280118D1*
Y2032382D1*
X2289304D1*
Y1288631D2*
X2794882D1*
Y773867D1*
X2280118D1*
Y1288631D1*
X2289304D1*
X1701804Y2769882D2*
X2207382D1*
Y2255118D1*
X1692618D1*
Y2769882D1*
X1701804D1*
X2289304D2*
X2794882D1*
Y2255118D1*
X2280118D1*
Y2769882D1*
X2289304D1*
X1701804Y3501131D2*
X2207382D1*
Y2986367D1*
X1692618D1*
Y3501131D1*
X1701804D1*
X2289304Y3507382D2*
X2794882D1*
Y2992618D1*
X2280118D1*
Y3507382D1*
X2289304D1*
X1701804Y4244882D2*
X2207382D1*
Y3730118D1*
X1692618D1*
Y4244882D1*
X1701804D1*
X2289304D2*
X2794882D1*
Y3730118D1*
X2280118D1*
Y4244882D1*
X2289304D1*
X3176804D2*
X3682382D1*
Y3730118D1*
X3167618D1*
Y4244882D1*
X3176804D1*
Y3501131D2*
X3682382D1*
Y2986367D1*
X3167618D1*
Y3501131D1*
X3176804D1*
Y2769882D2*
X3682382D1*
Y2255118D1*
X3167618D1*
Y2769882D1*
X3176804D1*
Y2026131D2*
X3682382D1*
Y1511367D1*
X3167618D1*
Y2026131D1*
X3176804D1*
Y1288631D2*
X3682382D1*
Y773867D1*
X3167618D1*
Y1288631D1*
X3176804D1*
X2154026Y1022066D2*
X2152375Y1003774D1*
X2149089Y985703D1*
X2144192Y968003D1*
X2137724Y950812D1*
X2129739Y934272D1*
X2120301Y918517D1*
X2109484Y903673D1*
X2097378Y889861D1*
X2084080Y877193D1*
X2069697Y865770D1*
X2054346Y855686D1*
X2038152Y847021D1*
X2021245Y839846D1*
X2003762Y834220D1*
X1985844Y830188D1*
X1967635Y827780D1*
X1949285Y827018D1*
X1930940Y827908D1*
X1912749Y830444D1*
X1894860Y834601D1*
X1877416Y840350D1*
X1860559Y847643D1*
X1844427Y856421D1*
X1829147Y866613D1*
X1814845Y878135D1*
X1801635Y890896D1*
X1789627Y904793D1*
X1778915Y919713D1*
X1769587Y935533D1*
X1761717Y952129D1*
X1755370Y969364D1*
X1750597Y987098D1*
X1747437Y1005192D1*
X1745915Y1023495D1*
X1746043Y1041861D1*
X1747822Y1060142D1*
X1751235Y1078188D1*
X1756256Y1095854D1*
X1762843Y1112999D1*
X1770944Y1129483D1*
X1780493Y1145172D1*
X1791413Y1159940D1*
X1803615Y1173665D1*
X1817003Y1186241D1*
X1831465Y1197563D1*
X1846885Y1207539D1*
X1863139Y1216091D1*
X1880096Y1223146D1*
X1897619Y1228650D1*
X1915564Y1232558D1*
X1933789Y1234837D1*
X1952144Y1235470D1*
X1970483Y1234451D1*
X1988656Y1231790D1*
X2006516Y1227507D1*
X2023919Y1221635D1*
X2040724Y1214224D1*
X2056795Y1205335D1*
X2072003Y1195037D1*
X2086224Y1183413D1*
X2099344Y1170560D1*
X2111255Y1156580D1*
X2121862Y1141587D1*
X2131080Y1125699D1*
X2138833Y1109050D1*
X2145059Y1091772D1*
X2149707Y1074003D1*
X2152740Y1055888D1*
X2154134Y1037575D1*
X2154026Y1022066D1*
X4516526D2*
X4514875Y1003774D1*
X4511589Y985703D1*
X4506692Y968003D1*
X4500224Y950812D1*
X4492239Y934272D1*
X4482801Y918517D1*
X4471984Y903673D1*
X4459878Y889861D1*
X4446580Y877193D1*
X4432197Y865770D1*
X4416846Y855686D1*
X4400652Y847021D1*
X4383745Y839846D1*
X4366262Y834220D1*
X4348344Y830188D1*
X4330135Y827780D1*
X4311785Y827018D1*
X4293440Y827908D1*
X4275249Y830444D1*
X4257360Y834601D1*
X4239916Y840350D1*
X4223059Y847643D1*
X4206927Y856421D1*
X4191647Y866613D1*
X4177345Y878135D1*
X4164135Y890896D1*
X4152127Y904793D1*
X4141415Y919713D1*
X4132087Y935533D1*
X4124217Y952129D1*
X4117870Y969364D1*
X4113097Y987098D1*
X4109937Y1005192D1*
X4108415Y1023495D1*
X4108543Y1041861D1*
X4110322Y1060142D1*
X4113735Y1078188D1*
X4118756Y1095854D1*
X4125343Y1112999D1*
X4133444Y1129483D1*
X4142993Y1145172D1*
X4153913Y1159940D1*
X4166115Y1173665D1*
X4179503Y1186241D1*
X4193965Y1197563D1*
X4209385Y1207539D1*
X4225639Y1216091D1*
X4242596Y1223146D1*
X4260119Y1228650D1*
X4278064Y1232558D1*
X4296289Y1234837D1*
X4314644Y1235470D1*
X4332983Y1234451D1*
X4351156Y1231790D1*
X4369016Y1227507D1*
X4386419Y1221635D1*
X4403224Y1214224D1*
X4419295Y1205335D1*
X4434503Y1195037D1*
X4448724Y1183413D1*
X4461844Y1170560D1*
X4473755Y1156580D1*
X4484362Y1141587D1*
X4493580Y1125699D1*
X4501333Y1109050D1*
X4507559Y1091772D1*
X4512207Y1074003D1*
X4515240Y1055888D1*
X4516634Y1037575D1*
X4516526Y1022066D1*
Y1765816D2*
X4514875Y1747525D1*
X4511589Y1729454D1*
X4506692Y1711753D1*
X4500224Y1694563D1*
X4492239Y1678022D1*
X4482801Y1662268D1*
X4471984Y1647424D1*
X4459878Y1633612D1*
X4446580Y1620944D1*
X4432197Y1609521D1*
X4416846Y1599437D1*
X4400652Y1590772D1*
X4383745Y1583597D1*
X4366262Y1577971D1*
X4348344Y1573938D1*
X4330135Y1571530D1*
X4311785Y1570769D1*
X4293440Y1571659D1*
X4275249Y1574194D1*
X4257360Y1578352D1*
X4239916Y1584101D1*
X4223059Y1591394D1*
X4206927Y1600172D1*
X4191647Y1610364D1*
X4177345Y1621886D1*
X4164135Y1634647D1*
X4152127Y1648543D1*
X4141415Y1663463D1*
X4132087Y1679283D1*
X4124217Y1695879D1*
X4117870Y1713114D1*
X4113097Y1730849D1*
X4109937Y1748942D1*
X4108415Y1767245D1*
X4108543Y1785612D1*
X4110322Y1803892D1*
X4113735Y1821938D1*
X4118756Y1839605D1*
X4125343Y1856749D1*
X4133444Y1873234D1*
X4142993Y1888923D1*
X4153913Y1903690D1*
X4166115Y1917416D1*
X4179503Y1929992D1*
X4193965Y1941314D1*
X4209385Y1951290D1*
X4225639Y1959841D1*
X4242596Y1966896D1*
X4260119Y1972400D1*
X4278064Y1976308D1*
X4296289Y1978588D1*
X4314644Y1979220D1*
X4332983Y1978202D1*
X4351156Y1975541D1*
X4369016Y1971257D1*
X4386419Y1965386D1*
X4403224Y1957975D1*
X4419295Y1949085D1*
X4434503Y1938787D1*
X4448724Y1927164D1*
X4461844Y1914311D1*
X4473755Y1900331D1*
X4484362Y1885337D1*
X4493580Y1869450D1*
X4501333Y1852801D1*
X4507559Y1835522D1*
X4512207Y1817753D1*
X4515240Y1799639D1*
X4516634Y1781325D1*
X4516526Y1765816D1*
Y2497066D2*
X4514875Y2478774D1*
X4511589Y2460703D1*
X4506692Y2443003D1*
X4500224Y2425812D1*
X4492239Y2409272D1*
X4482801Y2393517D1*
X4471984Y2378673D1*
X4459878Y2364861D1*
X4446580Y2352193D1*
X4432197Y2340770D1*
X4416846Y2330686D1*
X4400652Y2322021D1*
X4383745Y2314846D1*
X4366262Y2309220D1*
X4348344Y2305188D1*
X4330135Y2302780D1*
X4311785Y2302018D1*
X4293440Y2302908D1*
X4275249Y2305444D1*
X4257360Y2309601D1*
X4239916Y2315350D1*
X4223059Y2322643D1*
X4206927Y2331421D1*
X4191647Y2341613D1*
X4177345Y2353135D1*
X4164135Y2365896D1*
X4152127Y2379793D1*
X4141415Y2394713D1*
X4132087Y2410533D1*
X4124217Y2427129D1*
X4117870Y2444364D1*
X4113097Y2462098D1*
X4109937Y2480192D1*
X4108415Y2498495D1*
X4108543Y2516861D1*
X4110322Y2535142D1*
X4113735Y2553188D1*
X4118756Y2570854D1*
X4125343Y2587999D1*
X4133444Y2604483D1*
X4142993Y2620172D1*
X4153913Y2634940D1*
X4166115Y2648665D1*
X4179503Y2661241D1*
X4193965Y2672563D1*
X4209385Y2682539D1*
X4225639Y2691091D1*
X4242596Y2698146D1*
X4260119Y2703650D1*
X4278064Y2707558D1*
X4296289Y2709837D1*
X4314644Y2710470D1*
X4332983Y2709451D1*
X4351156Y2706790D1*
X4369016Y2702507D1*
X4386419Y2696635D1*
X4403224Y2689224D1*
X4419295Y2680335D1*
X4434503Y2670037D1*
X4448724Y2658413D1*
X4461844Y2645560D1*
X4473755Y2631580D1*
X4484362Y2616587D1*
X4493580Y2600699D1*
X4501333Y2584050D1*
X4507559Y2566772D1*
X4512207Y2549003D1*
X4515240Y2530888D1*
X4516634Y2512575D1*
X4516526Y2497066D1*
Y3240816D2*
X4514875Y3222525D1*
X4511589Y3204454D1*
X4506692Y3186753D1*
X4500224Y3169563D1*
X4492239Y3153022D1*
X4482801Y3137268D1*
X4471984Y3122424D1*
X4459878Y3108612D1*
X4446580Y3095944D1*
X4432197Y3084521D1*
X4416846Y3074437D1*
X4400652Y3065772D1*
X4383745Y3058597D1*
X4366262Y3052971D1*
X4348344Y3048938D1*
X4330135Y3046530D1*
X4311785Y3045769D1*
X4293440Y3046659D1*
X4275249Y3049194D1*
X4257360Y3053352D1*
X4239916Y3059101D1*
X4223059Y3066394D1*
X4206927Y3075172D1*
X4191647Y3085364D1*
X4177345Y3096886D1*
X4164135Y3109647D1*
X4152127Y3123543D1*
X4141415Y3138463D1*
X4132087Y3154283D1*
X4124217Y3170879D1*
X4117870Y3188114D1*
X4113097Y3205849D1*
X4109937Y3223942D1*
X4108415Y3242245D1*
X4108543Y3260612D1*
X4110322Y3278892D1*
X4113735Y3296938D1*
X4118756Y3314605D1*
X4125343Y3331749D1*
X4133444Y3348234D1*
X4142993Y3363923D1*
X4153913Y3378690D1*
X4166115Y3392416D1*
X4179503Y3404992D1*
X4193965Y3416314D1*
X4209385Y3426290D1*
X4225639Y3434841D1*
X4242596Y3441896D1*
X4260119Y3447400D1*
X4278064Y3451308D1*
X4296289Y3453588D1*
X4314644Y3454220D1*
X4332983Y3453202D1*
X4351156Y3450541D1*
X4369016Y3446257D1*
X4386419Y3440386D1*
X4403224Y3432975D1*
X4419295Y3424085D1*
X4434503Y3413787D1*
X4448724Y3402164D1*
X4461844Y3389311D1*
X4473755Y3375331D1*
X4484362Y3360337D1*
X4493580Y3344450D1*
X4501333Y3327801D1*
X4507559Y3310522D1*
X4512207Y3292753D1*
X4515240Y3274639D1*
X4516634Y3256325D1*
X4516526Y3240816D1*
Y3978316D2*
X4514875Y3960025D1*
X4511589Y3941954D1*
X4506692Y3924253D1*
X4500224Y3907063D1*
X4492239Y3890522D1*
X4482801Y3874768D1*
X4471984Y3859924D1*
X4459878Y3846112D1*
X4446580Y3833444D1*
X4432197Y3822021D1*
X4416846Y3811937D1*
X4400652Y3803272D1*
X4383745Y3796097D1*
X4366262Y3790471D1*
X4348344Y3786438D1*
X4330135Y3784030D1*
X4311785Y3783269D1*
X4293440Y3784159D1*
X4275249Y3786694D1*
X4257360Y3790852D1*
X4239916Y3796601D1*
X4223059Y3803894D1*
X4206927Y3812672D1*
X4191647Y3822864D1*
X4177345Y3834386D1*
X4164135Y3847147D1*
X4152127Y3861043D1*
X4141415Y3875963D1*
X4132087Y3891783D1*
X4124217Y3908379D1*
X4117870Y3925614D1*
X4113097Y3943349D1*
X4109937Y3961442D1*
X4108415Y3979745D1*
X4108543Y3998112D1*
X4110322Y4016392D1*
X4113735Y4034438D1*
X4118756Y4052105D1*
X4125343Y4069249D1*
X4133444Y4085734D1*
X4142993Y4101423D1*
X4153913Y4116190D1*
X4166115Y4129916D1*
X4179503Y4142492D1*
X4193965Y4153814D1*
X4209385Y4163790D1*
X4225639Y4172341D1*
X4242596Y4179396D1*
X4260119Y4184900D1*
X4278064Y4188808D1*
X4296289Y4191088D1*
X4314644Y4191720D1*
X4332983Y4190702D1*
X4351156Y4188041D1*
X4369016Y4183757D1*
X4386419Y4177886D1*
X4403224Y4170475D1*
X4419295Y4161585D1*
X4434503Y4151287D1*
X4448724Y4139664D1*
X4461844Y4126811D1*
X4473755Y4112831D1*
X4484362Y4097837D1*
X4493580Y4081950D1*
X4501333Y4065301D1*
X4507559Y4048022D1*
X4512207Y4030253D1*
X4515240Y4012139D1*
X4516634Y3993825D1*
X4516526Y3978316D1*
D14*
X768749Y3987500D3*
Y3250000D3*
Y2512500D3*
Y1775000D3*
D15*
X293749Y118749D3*
Y4937500D3*
X4706249Y118749D3*
Y4937500D3*
D16*
X1356249Y3987500D3*
D17*
X768749Y1031249D3*
D16*
X1356249Y3250000D3*
Y1037499D3*
Y2512499D3*
D17*
Y1768749D3*
X1950000D3*
X2537500Y1775000D3*
Y1031249D3*
X1950000Y2512500D3*
X2537500D3*
X1950000Y3243749D3*
X2537500Y3250000D3*
X1950000Y3987500D3*
X2537500D3*
X3425000D3*
Y3243749D3*
Y2512500D3*
Y1768749D3*
Y1031249D3*
D18*
X1950000D3*
X4312500D3*
Y1775000D3*
Y2506249D3*
Y3250000D3*
Y3987500D3*
M02*
