  0
SECTION
  2
HEADER
  9
$MEASUREMENT
  70
  1
  9
$INSUNITS
  70
  4
  0
ENDSEC
  0
SECTION
  2
TABLES
  0
TABLE
  2
LTYPE
 70
     1
  0
LTYPE
  2
CONTINUOUS
 70
    64
  3
Ausgezogene Linie
 72
    65
 73
     0
 40
0.0
  0
ENDTAB
  0
TABLE
  2
LAYER
 70
     3
  0
LAYER
  2
Contour
 70
    64
 62
     7
  6
CONTINUOUS
  0
LAYER
  2
Engraving
 70
    64
 62
     7
  6
CONTINUOUS
  0
LAYER
  2
Reference_points
 70
    64
 62
     1
  6
CONTINUOUS
  0
ENDTAB
  0
TABLE
  2
STYLE
 70
     1
  0
STYLE
  2
TXT
 70
    64
 40
0.0
 41
1.0
 50
0.0
 71
     0
 42
3.500000
  3
TXT
  0
ENDTAB
  0
ENDSEC
  0
SECTION
  2
BLOCKS
  0
ENDSEC
  0
SECTION
  2
ENTITIES
  0
LINE
  8
Contour
 62
   7
 39
0.100
  6
CONTINUOUS
 10
127.00000
 20
128.50000
 30
 0
 11
0.00000
 21
128.50000
  0
LINE
  8
Contour
 62
   7
 39
0.100
  6
CONTINUOUS
 10
0.00000
 20
128.50000
 30
 0
 11
0.00000
 21
128.50000
  0
LINE
  8
Contour
 62
   7
 39
0.100
  6
CONTINUOUS
 10
0.00000
 20
128.50000
 30
 0
 11
0.00000
 21
0.00000
  0
LINE
  8
Contour
 62
   7
 39
0.100
  6
CONTINUOUS
 10
0.00000
 20
0.00000
 30
 0
 11
0.00000
 21
0.00000
  0
LINE
  8
Contour
 62
   7
 39
0.100
  6
CONTINUOUS
 10
0.00000
 20
0.00000
 30
 0
 11
127.00000
 21
0.00000
  0
LINE
  8
Contour
 62
   7
 39
0.100
  6
CONTINUOUS
 10
127.00000
 20
0.00000
 30
 0
 11
127.00000
 21
0.00000
  0
LINE
  8
Contour
 62
   7
 39
0.100
  6
CONTINUOUS
 10
127.00000
 20
0.00000
 30
 0
 11
127.00000
 21
128.50000
  0
LINE
  8
Contour
 62
   7
 39
0.100
  6
CONTINUOUS
 10
127.00000
 20
128.50000
 30
 0
 11
127.00000
 21
128.50000
  0
LINE
  8
Contour
 62
   7
 39
0.100
  6
CONTINUOUS
 10
10.75000
 20
125.60000
 30
 0
 11
10.75000
 21
125.40000
  0
ARC
  8
Contour
 62
   7
 39
0.100
  6
CONTINUOUS
 10
9.25000
 20
125.40000
 30
 0
 40
1.50000
 50
270.00000
 51
0.00000
  0
LINE
  8
Contour
 62
   7
 39
0.100
  6
CONTINUOUS
 10
9.25000
 20
123.90000
 30
 0
 11
5.75000
 21
123.90000
  0
ARC
  8
Contour
 62
   7
 39
0.100
  6
CONTINUOUS
 10
5.75000
 20
125.40000
 30
 0
 40
1.50000
 50
180.00000
 51
-90.00000
  0
LINE
  8
Contour
 62
   7
 39
0.100
  6
CONTINUOUS
 10
4.25000
 20
125.40000
 30
 0
 11
4.25000
 21
125.60000
  0
ARC
  8
Contour
 62
   7
 39
0.100
  6
CONTINUOUS
 10
5.75000
 20
125.60000
 30
 0
 40
1.50000
 50
450.00000
 51
180.00000
  0
LINE
  8
Contour
 62
   7
 39
0.100
  6
CONTINUOUS
 10
5.75000
 20
127.10000
 30
 0
 11
9.25000
 21
127.10000
  0
ARC
  8
Contour
 62
   7
 39
0.100
  6
CONTINUOUS
 10
9.25000
 20
125.60000
 30
 0
 40
1.50000
 50
360.00000
 51
90.00000
  0
LINE
  8
Contour
 62
   7
 39
0.100
  6
CONTINUOUS
 10
122.75000
 20
125.60000
 30
 0
 11
122.75000
 21
125.40000
  0
ARC
  8
Contour
 62
   7
 39
0.100
  6
CONTINUOUS
 10
121.25000
 20
125.40000
 30
 0
 40
1.50000
 50
270.00000
 51
0.00000
  0
LINE
  8
Contour
 62
   7
 39
0.100
  6
CONTINUOUS
 10
121.25000
 20
123.90000
 30
 0
 11
117.75000
 21
123.90000
  0
ARC
  8
Contour
 62
   7
 39
0.100
  6
CONTINUOUS
 10
117.75000
 20
125.40000
 30
 0
 40
1.50000
 50
180.00000
 51
-90.00000
  0
LINE
  8
Contour
 62
   7
 39
0.100
  6
CONTINUOUS
 10
116.25000
 20
125.40000
 30
 0
 11
116.25000
 21
125.60000
  0
ARC
  8
Contour
 62
   7
 39
0.100
  6
CONTINUOUS
 10
117.75000
 20
125.60000
 30
 0
 40
1.50000
 50
450.00000
 51
180.00000
  0
LINE
  8
Contour
 62
   7
 39
0.100
  6
CONTINUOUS
 10
117.75000
 20
127.10000
 30
 0
 11
121.25000
 21
127.10000
  0
ARC
  8
Contour
 62
   7
 39
0.100
  6
CONTINUOUS
 10
121.25000
 20
125.60000
 30
 0
 40
1.50000
 50
360.00000
 51
90.00000
  0
LINE
  8
Contour
 62
   7
 39
0.100
  6
CONTINUOUS
 10
122.75000
 20
3.10000
 30
 0
 11
122.75000
 21
2.90000
  0
ARC
  8
Contour
 62
   7
 39
0.100
  6
CONTINUOUS
 10
121.25000
 20
2.90000
 30
 0
 40
1.50000
 50
270.00000
 51
0.00000
  0
LINE
  8
Contour
 62
   7
 39
0.100
  6
CONTINUOUS
 10
121.25000
 20
1.40000
 30
 0
 11
117.75000
 21
1.40000
  0
ARC
  8
Contour
 62
   7
 39
0.100
  6
CONTINUOUS
 10
117.75000
 20
2.90000
 30
 0
 40
1.50000
 50
180.00000
 51
-90.00000
  0
LINE
  8
Contour
 62
   7
 39
0.100
  6
CONTINUOUS
 10
116.25000
 20
2.90000
 30
 0
 11
116.25000
 21
3.10000
  0
ARC
  8
Contour
 62
   7
 39
0.100
  6
CONTINUOUS
 10
117.75000
 20
3.10000
 30
 0
 40
1.50000
 50
450.00000
 51
180.00000
  0
LINE
  8
Contour
 62
   7
 39
0.100
  6
CONTINUOUS
 10
117.75000
 20
4.60000
 30
 0
 11
121.25000
 21
4.60000
  0
ARC
  8
Contour
 62
   7
 39
0.100
  6
CONTINUOUS
 10
121.25000
 20
3.10000
 30
 0
 40
1.50000
 50
360.00000
 51
90.00000
  0
LINE
  8
Contour
 62
   7
 39
0.100
  6
CONTINUOUS
 10
10.75000
 20
3.10000
 30
 0
 11
10.75000
 21
2.90000
  0
ARC
  8
Contour
 62
   7
 39
0.100
  6
CONTINUOUS
 10
9.25000
 20
2.90000
 30
 0
 40
1.50000
 50
270.00000
 51
0.00000
  0
LINE
  8
Contour
 62
   7
 39
0.100
  6
CONTINUOUS
 10
9.25000
 20
1.40000
 30
 0
 11
5.75000
 21
1.40000
  0
ARC
  8
Contour
 62
   7
 39
0.100
  6
CONTINUOUS
 10
5.75000
 20
2.90000
 30
 0
 40
1.50000
 50
180.00000
 51
-90.00000
  0
LINE
  8
Contour
 62
   7
 39
0.100
  6
CONTINUOUS
 10
4.25000
 20
2.90000
 30
 0
 11
4.25000
 21
3.10000
  0
ARC
  8
Contour
 62
   7
 39
0.100
  6
CONTINUOUS
 10
5.75000
 20
3.10000
 30
 0
 40
1.50000
 50
450.00000
 51
180.00000
  0
LINE
  8
Contour
 62
   7
 39
0.100
  6
CONTINUOUS
 10
5.75000
 20
4.60000
 30
 0
 11
9.25000
 21
4.60000
  0
ARC
  8
Contour
 62
   7
 39
0.100
  6
CONTINUOUS
 10
9.25000
 20
3.10000
 30
 0
 40
1.50000
 50
360.00000
 51
90.00000
  0
CIRCLE
  8
Contour
 62
   7
 39
0.100
  6
CONTINUOUS
 10
19.50000
 20
101.26000
 30
 0
 40
4.65000
  0
CIRCLE
  8
Contour
 62
   7
 39
0.100
  6
CONTINUOUS
 10
19.50000
 20
82.51000
 30
 0
 40
4.65000
  0
CIRCLE
  8
Contour
 62
   7
 39
0.100
  6
CONTINUOUS
 10
19.50000
 20
63.76000
 30
 0
 40
4.65000
  0
CIRCLE
  8
Contour
 62
   7
 39
0.100
  6
CONTINUOUS
 10
19.50000
 20
45.01000
 30
 0
 40
4.65000
  0
CIRCLE
  8
Contour
 62
   7
 39
0.100
  6
CONTINUOUS
 10
19.50000
 20
26.26000
 30
 0
 40
3.15000
  0
CIRCLE
  8
Contour
 62
   7
 39
0.100
  6
CONTINUOUS
 10
109.50000
 20
101.26000
 30
 0
 40
3.15000
  0
CIRCLE
  8
Contour
 62
   7
 39
0.100
  6
CONTINUOUS
 10
109.50000
 20
82.51000
 30
 0
 40
3.15000
  0
CIRCLE
  8
Contour
 62
   7
 39
0.100
  6
CONTINUOUS
 10
109.50000
 20
63.76000
 30
 0
 40
3.15000
  0
CIRCLE
  8
Contour
 62
   7
 39
0.100
  6
CONTINUOUS
 10
109.50000
 20
45.01000
 30
 0
 40
3.15000
  0
CIRCLE
  8
Contour
 62
   7
 39
0.100
  6
CONTINUOUS
 10
109.50000
 20
26.26000
 30
 0
 40
3.15000
  0
CIRCLE
  8
Contour
 62
   7
 39
0.100
  6
CONTINUOUS
 10
49.50000
 20
101.26000
 30
 0
 40
3.15000
  0
CIRCLE
  8
Contour
 62
   7
 39
0.100
  6
CONTINUOUS
 10
64.50000
 20
101.26000
 30
 0
 40
3.15000
  0
CIRCLE
  8
Contour
 62
   7
 39
0.100
  6
CONTINUOUS
 10
86.98000
 20
101.26000
 30
 0
 40
3.15000
  0
CIRCLE
  8
Contour
 62
   7
 39
0.100
  6
CONTINUOUS
 10
49.50000
 20
82.51000
 30
 0
 40
3.15000
  0
CIRCLE
  8
Contour
 62
   7
 39
0.100
  6
CONTINUOUS
 10
64.50000
 20
82.51000
 30
 0
 40
3.15000
  0
CIRCLE
  8
Contour
 62
   7
 39
0.100
  6
CONTINUOUS
 10
86.98000
 20
82.51000
 30
 0
 40
3.15000
  0
CIRCLE
  8
Contour
 62
   7
 39
0.100
  6
CONTINUOUS
 10
49.50000
 20
63.76000
 30
 0
 40
3.15000
  0
CIRCLE
  8
Contour
 62
   7
 39
0.100
  6
CONTINUOUS
 10
64.50000
 20
63.76000
 30
 0
 40
3.15000
  0
CIRCLE
  8
Contour
 62
   7
 39
0.100
  6
CONTINUOUS
 10
86.98000
 20
63.76000
 30
 0
 40
3.15000
  0
CIRCLE
  8
Contour
 62
   7
 39
0.100
  6
CONTINUOUS
 10
49.50000
 20
45.01000
 30
 0
 40
3.15000
  0
CIRCLE
  8
Contour
 62
   7
 39
0.100
  6
CONTINUOUS
 10
64.50000
 20
45.01000
 30
 0
 40
3.15000
  0
CIRCLE
  8
Contour
 62
   7
 39
0.100
  6
CONTINUOUS
 10
86.98000
 20
45.01000
 30
 0
 40
3.15000
  0
CIRCLE
  8
Contour
 62
   7
 39
0.100
  6
CONTINUOUS
 10
34.50000
 20
26.26000
 30
 0
 40
2.55000
  0
CIRCLE
  8
Contour
 62
   7
 39
0.100
  6
CONTINUOUS
 10
64.50000
 20
26.26000
 30
 0
 40
3.15000
  0
CIRCLE
  8
Contour
 62
   7
 39
0.100
  6
CONTINUOUS
 10
86.98000
 20
26.26000
 30
 0
 40
3.15000
  0
CIRCLE
  8
Contour
 62
   7
 39
0.100
  6
CONTINUOUS
 10
49.50000
 20
26.26000
 30
 0
 40
3.15000
  0
CIRCLE
  8
Contour
 62
   7
 39
0.100
  6
CONTINUOUS
 10
34.50000
 20
45.01000
 30
 0
 40
3.15000
  0
CIRCLE
  8
Contour
 62
   7
 39
0.100
  6
CONTINUOUS
 10
34.50000
 20
63.76000
 30
 0
 40
2.55000
  0
CIRCLE
  8
Contour
 62
   7
 39
0.100
  6
CONTINUOUS
 10
34.50000
 20
82.51000
 30
 0
 40
2.55000
  0
CIRCLE
  8
Contour
 62
   7
 39
0.100
  6
CONTINUOUS
 10
34.50000
 20
101.26000
 30
 0
 40
2.55000
  0
LINE
  8
Contour
 62
   7
 39
0.100
  6
CONTINUOUS
 10
-1.00000
 20
0.00000
 30
 0
 11
1.00000
 21
0.00000
  0
LINE
  8
Contour
 62
   7
 39
0.100
  6
CONTINUOUS
 10
0.00000
 20
-1.00000
 30
 0
 11
0.00000
 21
1.00000
  0
LINE
  8
Contour
 62
   7
 39
0.100
  6
CONTINUOUS
 10
6.50000
 20
125.50000
 30
 0
 11
8.50000
 21
125.50000
  0
LINE
  8
Contour
 62
   7
 39
0.100
  6
CONTINUOUS
 10
7.50000
 20
124.50000
 30
 0
 11
7.50000
 21
126.50000
  0
LINE
  8
Contour
 62
   7
 39
0.100
  6
CONTINUOUS
 10
118.50000
 20
125.50000
 30
 0
 11
120.50000
 21
125.50000
  0
LINE
  8
Contour
 62
   7
 39
0.100
  6
CONTINUOUS
 10
119.50000
 20
124.50000
 30
 0
 11
119.50000
 21
126.50000
  0
LINE
  8
Contour
 62
   7
 39
0.100
  6
CONTINUOUS
 10
118.50000
 20
3.00000
 30
 0
 11
120.50000
 21
3.00000
  0
LINE
  8
Contour
 62
   7
 39
0.100
  6
CONTINUOUS
 10
119.50000
 20
2.00000
 30
 0
 11
119.50000
 21
4.00000
  0
LINE
  8
Contour
 62
   7
 39
0.100
  6
CONTINUOUS
 10
6.50000
 20
3.00000
 30
 0
 11
8.50000
 21
3.00000
  0
LINE
  8
Contour
 62
   7
 39
0.100
  6
CONTINUOUS
 10
7.50000
 20
2.00000
 30
 0
 11
7.50000
 21
4.00000
  0
LINE
  8
Contour
 62
   7
 39
0.100
  6
CONTINUOUS
 10
18.50000
 20
101.26000
 30
 0
 11
20.50000
 21
101.26000
  0
LINE
  8
Contour
 62
   7
 39
0.100
  6
CONTINUOUS
 10
19.50000
 20
100.26000
 30
 0
 11
19.50000
 21
102.26000
  0
LINE
  8
Contour
 62
   7
 39
0.100
  6
CONTINUOUS
 10
18.50000
 20
82.51000
 30
 0
 11
20.50000
 21
82.51000
  0
LINE
  8
Contour
 62
   7
 39
0.100
  6
CONTINUOUS
 10
19.50000
 20
81.51000
 30
 0
 11
19.50000
 21
83.51000
  0
LINE
  8
Contour
 62
   7
 39
0.100
  6
CONTINUOUS
 10
18.50000
 20
63.76000
 30
 0
 11
20.50000
 21
63.76000
  0
LINE
  8
Contour
 62
   7
 39
0.100
  6
CONTINUOUS
 10
19.50000
 20
62.76000
 30
 0
 11
19.50000
 21
64.76000
  0
LINE
  8
Contour
 62
   7
 39
0.100
  6
CONTINUOUS
 10
18.50000
 20
45.01000
 30
 0
 11
20.50000
 21
45.01000
  0
LINE
  8
Contour
 62
   7
 39
0.100
  6
CONTINUOUS
 10
19.50000
 20
44.01000
 30
 0
 11
19.50000
 21
46.01000
  0
LINE
  8
Contour
 62
   7
 39
0.100
  6
CONTINUOUS
 10
18.50000
 20
26.26000
 30
 0
 11
20.50000
 21
26.26000
  0
LINE
  8
Contour
 62
   7
 39
0.100
  6
CONTINUOUS
 10
19.50000
 20
25.26000
 30
 0
 11
19.50000
 21
27.26000
  0
LINE
  8
Contour
 62
   7
 39
0.100
  6
CONTINUOUS
 10
108.50000
 20
101.26000
 30
 0
 11
110.50000
 21
101.26000
  0
LINE
  8
Contour
 62
   7
 39
0.100
  6
CONTINUOUS
 10
109.50000
 20
100.26000
 30
 0
 11
109.50000
 21
102.26000
  0
LINE
  8
Contour
 62
   7
 39
0.100
  6
CONTINUOUS
 10
108.50000
 20
82.51000
 30
 0
 11
110.50000
 21
82.51000
  0
LINE
  8
Contour
 62
   7
 39
0.100
  6
CONTINUOUS
 10
109.50000
 20
81.51000
 30
 0
 11
109.50000
 21
83.51000
  0
LINE
  8
Contour
 62
   7
 39
0.100
  6
CONTINUOUS
 10
108.50000
 20
63.76000
 30
 0
 11
110.50000
 21
63.76000
  0
LINE
  8
Contour
 62
   7
 39
0.100
  6
CONTINUOUS
 10
109.50000
 20
62.76000
 30
 0
 11
109.50000
 21
64.76000
  0
LINE
  8
Contour
 62
   7
 39
0.100
  6
CONTINUOUS
 10
108.50000
 20
45.01000
 30
 0
 11
110.50000
 21
45.01000
  0
LINE
  8
Contour
 62
   7
 39
0.100
  6
CONTINUOUS
 10
109.50000
 20
44.01000
 30
 0
 11
109.50000
 21
46.01000
  0
LINE
  8
Contour
 62
   7
 39
0.100
  6
CONTINUOUS
 10
108.50000
 20
26.26000
 30
 0
 11
110.50000
 21
26.26000
  0
LINE
  8
Contour
 62
   7
 39
0.100
  6
CONTINUOUS
 10
109.50000
 20
25.26000
 30
 0
 11
109.50000
 21
27.26000
  0
LINE
  8
Contour
 62
   7
 39
0.100
  6
CONTINUOUS
 10
48.50000
 20
101.26000
 30
 0
 11
50.50000
 21
101.26000
  0
LINE
  8
Contour
 62
   7
 39
0.100
  6
CONTINUOUS
 10
49.50000
 20
100.26000
 30
 0
 11
49.50000
 21
102.26000
  0
LINE
  8
Contour
 62
   7
 39
0.100
  6
CONTINUOUS
 10
63.50000
 20
101.26000
 30
 0
 11
65.50000
 21
101.26000
  0
LINE
  8
Contour
 62
   7
 39
0.100
  6
CONTINUOUS
 10
64.50000
 20
100.26000
 30
 0
 11
64.50000
 21
102.26000
  0
LINE
  8
Contour
 62
   7
 39
0.100
  6
CONTINUOUS
 10
85.98000
 20
101.26000
 30
 0
 11
87.98000
 21
101.26000
  0
LINE
  8
Contour
 62
   7
 39
0.100
  6
CONTINUOUS
 10
86.98000
 20
100.26000
 30
 0
 11
86.98000
 21
102.26000
  0
LINE
  8
Contour
 62
   7
 39
0.100
  6
CONTINUOUS
 10
48.50000
 20
82.51000
 30
 0
 11
50.50000
 21
82.51000
  0
LINE
  8
Contour
 62
   7
 39
0.100
  6
CONTINUOUS
 10
49.50000
 20
81.51000
 30
 0
 11
49.50000
 21
83.51000
  0
LINE
  8
Contour
 62
   7
 39
0.100
  6
CONTINUOUS
 10
63.50000
 20
82.51000
 30
 0
 11
65.50000
 21
82.51000
  0
LINE
  8
Contour
 62
   7
 39
0.100
  6
CONTINUOUS
 10
64.50000
 20
81.51000
 30
 0
 11
64.50000
 21
83.51000
  0
LINE
  8
Contour
 62
   7
 39
0.100
  6
CONTINUOUS
 10
85.98000
 20
82.51000
 30
 0
 11
87.98000
 21
82.51000
  0
LINE
  8
Contour
 62
   7
 39
0.100
  6
CONTINUOUS
 10
86.98000
 20
81.51000
 30
 0
 11
86.98000
 21
83.51000
  0
LINE
  8
Contour
 62
   7
 39
0.100
  6
CONTINUOUS
 10
48.50000
 20
63.76000
 30
 0
 11
50.50000
 21
63.76000
  0
LINE
  8
Contour
 62
   7
 39
0.100
  6
CONTINUOUS
 10
49.50000
 20
62.76000
 30
 0
 11
49.50000
 21
64.76000
  0
LINE
  8
Contour
 62
   7
 39
0.100
  6
CONTINUOUS
 10
63.50000
 20
63.76000
 30
 0
 11
65.50000
 21
63.76000
  0
LINE
  8
Contour
 62
   7
 39
0.100
  6
CONTINUOUS
 10
64.50000
 20
62.76000
 30
 0
 11
64.50000
 21
64.76000
  0
LINE
  8
Contour
 62
   7
 39
0.100
  6
CONTINUOUS
 10
85.98000
 20
63.76000
 30
 0
 11
87.98000
 21
63.76000
  0
LINE
  8
Contour
 62
   7
 39
0.100
  6
CONTINUOUS
 10
86.98000
 20
62.76000
 30
 0
 11
86.98000
 21
64.76000
  0
LINE
  8
Contour
 62
   7
 39
0.100
  6
CONTINUOUS
 10
48.50000
 20
45.01000
 30
 0
 11
50.50000
 21
45.01000
  0
LINE
  8
Contour
 62
   7
 39
0.100
  6
CONTINUOUS
 10
49.50000
 20
44.01000
 30
 0
 11
49.50000
 21
46.01000
  0
LINE
  8
Contour
 62
   7
 39
0.100
  6
CONTINUOUS
 10
63.50000
 20
45.01000
 30
 0
 11
65.50000
 21
45.01000
  0
LINE
  8
Contour
 62
   7
 39
0.100
  6
CONTINUOUS
 10
64.50000
 20
44.01000
 30
 0
 11
64.50000
 21
46.01000
  0
LINE
  8
Contour
 62
   7
 39
0.100
  6
CONTINUOUS
 10
85.98000
 20
45.01000
 30
 0
 11
87.98000
 21
45.01000
  0
LINE
  8
Contour
 62
   7
 39
0.100
  6
CONTINUOUS
 10
86.98000
 20
44.01000
 30
 0
 11
86.98000
 21
46.01000
  0
LINE
  8
Contour
 62
   7
 39
0.100
  6
CONTINUOUS
 10
33.50000
 20
26.26000
 30
 0
 11
35.50000
 21
26.26000
  0
LINE
  8
Contour
 62
   7
 39
0.100
  6
CONTINUOUS
 10
34.50000
 20
25.26000
 30
 0
 11
34.50000
 21
27.26000
  0
LINE
  8
Contour
 62
   7
 39
0.100
  6
CONTINUOUS
 10
63.50000
 20
26.26000
 30
 0
 11
65.50000
 21
26.26000
  0
LINE
  8
Contour
 62
   7
 39
0.100
  6
CONTINUOUS
 10
64.50000
 20
25.26000
 30
 0
 11
64.50000
 21
27.26000
  0
LINE
  8
Contour
 62
   7
 39
0.100
  6
CONTINUOUS
 10
85.98000
 20
26.26000
 30
 0
 11
87.98000
 21
26.26000
  0
LINE
  8
Contour
 62
   7
 39
0.100
  6
CONTINUOUS
 10
86.98000
 20
25.26000
 30
 0
 11
86.98000
 21
27.26000
  0
LINE
  8
Contour
 62
   7
 39
0.100
  6
CONTINUOUS
 10
48.50000
 20
26.26000
 30
 0
 11
50.50000
 21
26.26000
  0
LINE
  8
Contour
 62
   7
 39
0.100
  6
CONTINUOUS
 10
49.50000
 20
25.26000
 30
 0
 11
49.50000
 21
27.26000
  0
LINE
  8
Contour
 62
   7
 39
0.100
  6
CONTINUOUS
 10
33.50000
 20
45.01000
 30
 0
 11
35.50000
 21
45.01000
  0
LINE
  8
Contour
 62
   7
 39
0.100
  6
CONTINUOUS
 10
34.50000
 20
44.01000
 30
 0
 11
34.50000
 21
46.01000
  0
LINE
  8
Contour
 62
   7
 39
0.100
  6
CONTINUOUS
 10
33.50000
 20
63.76000
 30
 0
 11
35.50000
 21
63.76000
  0
LINE
  8
Contour
 62
   7
 39
0.100
  6
CONTINUOUS
 10
34.50000
 20
62.76000
 30
 0
 11
34.50000
 21
64.76000
  0
LINE
  8
Contour
 62
   7
 39
0.100
  6
CONTINUOUS
 10
33.50000
 20
82.51000
 30
 0
 11
35.50000
 21
82.51000
  0
LINE
  8
Contour
 62
   7
 39
0.100
  6
CONTINUOUS
 10
34.50000
 20
81.51000
 30
 0
 11
34.50000
 21
83.51000
  0
LINE
  8
Contour
 62
   7
 39
0.100
  6
CONTINUOUS
 10
33.50000
 20
101.26000
 30
 0
 11
35.50000
 21
101.26000
  0
LINE
  8
Contour
 62
   7
 39
0.100
  6
CONTINUOUS
 10
34.50000
 20
100.26000
 30
 0
 11
34.50000
 21
102.26000
  0
LINE
  8
Contour
 62
   7
 39
0.100
  6
CONTINUOUS
 10
62.50000
 20
64.25000
 30
 0
 11
64.50000
 21
64.25000
  0
LINE
  8
Contour
 62
   7
 39
0.100
  6
CONTINUOUS
 10
63.50000
 20
63.25000
 30
 0
 11
63.50000
 21
65.25000
  0
LINE
  8
Contour
 62
   7
 39
0.100
  6
CONTINUOUS
 10
-1.00000
 20
0.00000
 30
 0
 11
1.00000
 21
0.00000
  0
LINE
  8
Contour
 62
   7
 39
0.100
  6
CONTINUOUS
 10
0.00000
 20
-1.00000
 30
 0
 11
0.00000
 21
1.00000
  0
ENDSEC
  0
EOF
