  0
SECTION
  2
HEADER
  9
$MEASUREMENT
  70
  1
  9
$INSUNITS
  70
  4
  0
ENDSEC
  0
SECTION
  2
TABLES
  0
TABLE
  2
LTYPE
 70
     1
  0
LTYPE
  2
CONTINUOUS
 70
    64
  3
Ausgezogene Linie
 72
    65
 73
     0
 40
0.0
  0
ENDTAB
  0
TABLE
  2
LAYER
 70
     3
  0
LAYER
  2
Contour
 70
    64
 62
     7
  6
CONTINUOUS
  0
LAYER
  2
Engraving
 70
    64
 62
     7
  6
CONTINUOUS
  0
LAYER
  2
Reference_points
 70
    64
 62
     1
  6
CONTINUOUS
  0
ENDTAB
  0
TABLE
  2
STYLE
 70
     1
  0
STYLE
  2
TXT
 70
    64
 40
0.0
 41
1.0
 50
0.0
 71
     0
 42
3.500000
  3
TXT
  0
ENDTAB
  0
ENDSEC
  0
SECTION
  2
BLOCKS
  0
ENDSEC
  0
SECTION
  2
ENTITIES
  0
LINE
  8
Contour
 62
   7
 39
0.100
  6
CONTINUOUS
 10
60.96000
 20
128.50000
 30
 0
 11
0.00000
 21
128.50000
  0
LINE
  8
Contour
 62
   7
 39
0.100
  6
CONTINUOUS
 10
0.00000
 20
128.50000
 30
 0
 11
0.00000
 21
128.50000
  0
LINE
  8
Contour
 62
   7
 39
0.100
  6
CONTINUOUS
 10
0.00000
 20
128.50000
 30
 0
 11
0.00000
 21
0.00000
  0
LINE
  8
Contour
 62
   7
 39
0.100
  6
CONTINUOUS
 10
0.00000
 20
0.00000
 30
 0
 11
0.00000
 21
0.00000
  0
LINE
  8
Contour
 62
   7
 39
0.100
  6
CONTINUOUS
 10
0.00000
 20
0.00000
 30
 0
 11
60.96000
 21
0.00000
  0
LINE
  8
Contour
 62
   7
 39
0.100
  6
CONTINUOUS
 10
60.96000
 20
0.00000
 30
 0
 11
60.96000
 21
0.00000
  0
LINE
  8
Contour
 62
   7
 39
0.100
  6
CONTINUOUS
 10
60.96000
 20
0.00000
 30
 0
 11
60.96000
 21
128.50000
  0
LINE
  8
Contour
 62
   7
 39
0.100
  6
CONTINUOUS
 10
60.96000
 20
128.50000
 30
 0
 11
60.96000
 21
128.50000
  0
LINE
  8
Contour
 62
   7
 39
0.100
  6
CONTINUOUS
 10
10.75000
 20
125.60000
 30
 0
 11
10.75000
 21
125.40000
  0
ARC
  8
Contour
 62
   7
 39
0.100
  6
CONTINUOUS
 10
9.25000
 20
125.40000
 30
 0
 40
1.50000
 50
270.00000
 51
0.00000
  0
LINE
  8
Contour
 62
   7
 39
0.100
  6
CONTINUOUS
 10
9.25000
 20
123.90000
 30
 0
 11
5.75000
 21
123.90000
  0
ARC
  8
Contour
 62
   7
 39
0.100
  6
CONTINUOUS
 10
5.75000
 20
125.40000
 30
 0
 40
1.50000
 50
180.00000
 51
-90.00000
  0
LINE
  8
Contour
 62
   7
 39
0.100
  6
CONTINUOUS
 10
4.25000
 20
125.40000
 30
 0
 11
4.25000
 21
125.60000
  0
ARC
  8
Contour
 62
   7
 39
0.100
  6
CONTINUOUS
 10
5.75000
 20
125.60000
 30
 0
 40
1.50000
 50
450.00000
 51
180.00000
  0
LINE
  8
Contour
 62
   7
 39
0.100
  6
CONTINUOUS
 10
5.75000
 20
127.10000
 30
 0
 11
9.25000
 21
127.10000
  0
ARC
  8
Contour
 62
   7
 39
0.100
  6
CONTINUOUS
 10
9.25000
 20
125.60000
 30
 0
 40
1.50000
 50
360.00000
 51
90.00000
  0
LINE
  8
Contour
 62
   7
 39
0.100
  6
CONTINUOUS
 10
56.71000
 20
125.60000
 30
 0
 11
56.71000
 21
125.40000
  0
ARC
  8
Contour
 62
   7
 39
0.100
  6
CONTINUOUS
 10
55.21000
 20
125.40000
 30
 0
 40
1.50000
 50
270.00000
 51
0.00000
  0
LINE
  8
Contour
 62
   7
 39
0.100
  6
CONTINUOUS
 10
55.21000
 20
123.90000
 30
 0
 11
51.71000
 21
123.90000
  0
ARC
  8
Contour
 62
   7
 39
0.100
  6
CONTINUOUS
 10
51.71000
 20
125.40000
 30
 0
 40
1.50000
 50
180.00000
 51
-90.00000
  0
LINE
  8
Contour
 62
   7
 39
0.100
  6
CONTINUOUS
 10
50.21000
 20
125.40000
 30
 0
 11
50.21000
 21
125.60000
  0
ARC
  8
Contour
 62
   7
 39
0.100
  6
CONTINUOUS
 10
51.71000
 20
125.60000
 30
 0
 40
1.50000
 50
450.00000
 51
180.00000
  0
LINE
  8
Contour
 62
   7
 39
0.100
  6
CONTINUOUS
 10
51.71000
 20
127.10000
 30
 0
 11
55.21000
 21
127.10000
  0
ARC
  8
Contour
 62
   7
 39
0.100
  6
CONTINUOUS
 10
55.21000
 20
125.60000
 30
 0
 40
1.50000
 50
360.00000
 51
90.00000
  0
LINE
  8
Contour
 62
   7
 39
0.100
  6
CONTINUOUS
 10
56.71000
 20
3.10000
 30
 0
 11
56.71000
 21
2.90000
  0
ARC
  8
Contour
 62
   7
 39
0.100
  6
CONTINUOUS
 10
55.21000
 20
2.90000
 30
 0
 40
1.50000
 50
270.00000
 51
0.00000
  0
LINE
  8
Contour
 62
   7
 39
0.100
  6
CONTINUOUS
 10
55.21000
 20
1.40000
 30
 0
 11
51.71000
 21
1.40000
  0
ARC
  8
Contour
 62
   7
 39
0.100
  6
CONTINUOUS
 10
51.71000
 20
2.90000
 30
 0
 40
1.50000
 50
180.00000
 51
-90.00000
  0
LINE
  8
Contour
 62
   7
 39
0.100
  6
CONTINUOUS
 10
50.21000
 20
2.90000
 30
 0
 11
50.21000
 21
3.10000
  0
ARC
  8
Contour
 62
   7
 39
0.100
  6
CONTINUOUS
 10
51.71000
 20
3.10000
 30
 0
 40
1.50000
 50
450.00000
 51
180.00000
  0
LINE
  8
Contour
 62
   7
 39
0.100
  6
CONTINUOUS
 10
51.71000
 20
4.60000
 30
 0
 11
55.21000
 21
4.60000
  0
ARC
  8
Contour
 62
   7
 39
0.100
  6
CONTINUOUS
 10
55.21000
 20
3.10000
 30
 0
 40
1.50000
 50
360.00000
 51
90.00000
  0
LINE
  8
Contour
 62
   7
 39
0.100
  6
CONTINUOUS
 10
10.75000
 20
3.10000
 30
 0
 11
10.75000
 21
2.90000
  0
ARC
  8
Contour
 62
   7
 39
0.100
  6
CONTINUOUS
 10
9.25000
 20
2.90000
 30
 0
 40
1.50000
 50
270.00000
 51
0.00000
  0
LINE
  8
Contour
 62
   7
 39
0.100
  6
CONTINUOUS
 10
9.25000
 20
1.40000
 30
 0
 11
5.75000
 21
1.40000
  0
ARC
  8
Contour
 62
   7
 39
0.100
  6
CONTINUOUS
 10
5.75000
 20
2.90000
 30
 0
 40
1.50000
 50
180.00000
 51
-90.00000
  0
LINE
  8
Contour
 62
   7
 39
0.100
  6
CONTINUOUS
 10
4.25000
 20
2.90000
 30
 0
 11
4.25000
 21
3.10000
  0
ARC
  8
Contour
 62
   7
 39
0.100
  6
CONTINUOUS
 10
5.75000
 20
3.10000
 30
 0
 40
1.50000
 50
450.00000
 51
180.00000
  0
LINE
  8
Contour
 62
   7
 39
0.100
  6
CONTINUOUS
 10
5.75000
 20
4.60000
 30
 0
 11
9.25000
 21
4.60000
  0
ARC
  8
Contour
 62
   7
 39
0.100
  6
CONTINUOUS
 10
9.25000
 20
3.10000
 30
 0
 40
1.50000
 50
360.00000
 51
90.00000
  0
CIRCLE
  8
Contour
 62
   7
 39
0.100
  6
CONTINUOUS
 10
15.82500
 20
101.00300
 30
 0
 40
3.15000
  0
CIRCLE
  8
Contour
 62
   7
 39
0.100
  6
CONTINUOUS
 10
15.82500
 20
86.00300
 30
 0
 40
3.15000
  0
CIRCLE
  8
Contour
 62
   7
 39
0.100
  6
CONTINUOUS
 10
15.82500
 20
71.00300
 30
 0
 40
3.15000
  0
CIRCLE
  8
Contour
 62
   7
 39
0.100
  6
CONTINUOUS
 10
15.82500
 20
56.00300
 30
 0
 40
3.15000
  0
CIRCLE
  8
Contour
 62
   7
 39
0.100
  6
CONTINUOUS
 10
15.82500
 20
41.00300
 30
 0
 40
3.15000
  0
CIRCLE
  8
Contour
 62
   7
 39
0.100
  6
CONTINUOUS
 10
30.82500
 20
101.00300
 30
 0
 40
3.15000
  0
CIRCLE
  8
Contour
 62
   7
 39
0.100
  6
CONTINUOUS
 10
30.82500
 20
86.00300
 30
 0
 40
3.15000
  0
CIRCLE
  8
Contour
 62
   7
 39
0.100
  6
CONTINUOUS
 10
30.82500
 20
71.00300
 30
 0
 40
3.15000
  0
CIRCLE
  8
Contour
 62
   7
 39
0.100
  6
CONTINUOUS
 10
30.82500
 20
56.00300
 30
 0
 40
3.15000
  0
CIRCLE
  8
Contour
 62
   7
 39
0.100
  6
CONTINUOUS
 10
30.82500
 20
41.00300
 30
 0
 40
3.15000
  0
CIRCLE
  8
Contour
 62
   7
 39
0.100
  6
CONTINUOUS
 10
45.82500
 20
101.00300
 30
 0
 40
3.15000
  0
CIRCLE
  8
Contour
 62
   7
 39
0.100
  6
CONTINUOUS
 10
45.82500
 20
86.00300
 30
 0
 40
3.15000
  0
CIRCLE
  8
Contour
 62
   7
 39
0.100
  6
CONTINUOUS
 10
45.82500
 20
71.00300
 30
 0
 40
3.15000
  0
CIRCLE
  8
Contour
 62
   7
 39
0.100
  6
CONTINUOUS
 10
45.82500
 20
56.00300
 30
 0
 40
3.15000
  0
CIRCLE
  8
Contour
 62
   7
 39
0.100
  6
CONTINUOUS
 10
45.82500
 20
41.00300
 30
 0
 40
3.15000
  0
CIRCLE
  8
Contour
 62
   7
 39
0.100
  6
CONTINUOUS
 10
45.82500
 20
26.00300
 30
 0
 40
3.15000
  0
CIRCLE
  8
Contour
 62
   7
 39
0.100
  6
CONTINUOUS
 10
30.82500
 20
26.00300
 30
 0
 40
3.15000
  0
CIRCLE
  8
Contour
 62
   7
 39
0.100
  6
CONTINUOUS
 10
15.82500
 20
26.00300
 30
 0
 40
3.15000
  0
LINE
  8
Contour
 62
   7
 39
0.100
  6
CONTINUOUS
 10
-1.00000
 20
0.00000
 30
 0
 11
1.00000
 21
0.00000
  0
LINE
  8
Contour
 62
   7
 39
0.100
  6
CONTINUOUS
 10
0.00000
 20
-1.00000
 30
 0
 11
0.00000
 21
1.00000
  0
LINE
  8
Contour
 62
   7
 39
0.100
  6
CONTINUOUS
 10
6.50000
 20
125.50000
 30
 0
 11
8.50000
 21
125.50000
  0
LINE
  8
Contour
 62
   7
 39
0.100
  6
CONTINUOUS
 10
7.50000
 20
124.50000
 30
 0
 11
7.50000
 21
126.50000
  0
LINE
  8
Contour
 62
   7
 39
0.100
  6
CONTINUOUS
 10
52.46000
 20
125.50000
 30
 0
 11
54.46000
 21
125.50000
  0
LINE
  8
Contour
 62
   7
 39
0.100
  6
CONTINUOUS
 10
53.46000
 20
124.50000
 30
 0
 11
53.46000
 21
126.50000
  0
LINE
  8
Contour
 62
   7
 39
0.100
  6
CONTINUOUS
 10
52.46000
 20
3.00000
 30
 0
 11
54.46000
 21
3.00000
  0
LINE
  8
Contour
 62
   7
 39
0.100
  6
CONTINUOUS
 10
53.46000
 20
2.00000
 30
 0
 11
53.46000
 21
4.00000
  0
LINE
  8
Contour
 62
   7
 39
0.100
  6
CONTINUOUS
 10
6.50000
 20
3.00000
 30
 0
 11
8.50000
 21
3.00000
  0
LINE
  8
Contour
 62
   7
 39
0.100
  6
CONTINUOUS
 10
7.50000
 20
2.00000
 30
 0
 11
7.50000
 21
4.00000
  0
LINE
  8
Contour
 62
   7
 39
0.100
  6
CONTINUOUS
 10
14.82500
 20
101.00300
 30
 0
 11
16.82500
 21
101.00300
  0
LINE
  8
Contour
 62
   7
 39
0.100
  6
CONTINUOUS
 10
15.82500
 20
100.00300
 30
 0
 11
15.82500
 21
102.00300
  0
LINE
  8
Contour
 62
   7
 39
0.100
  6
CONTINUOUS
 10
14.82500
 20
86.00300
 30
 0
 11
16.82500
 21
86.00300
  0
LINE
  8
Contour
 62
   7
 39
0.100
  6
CONTINUOUS
 10
15.82500
 20
85.00300
 30
 0
 11
15.82500
 21
87.00300
  0
LINE
  8
Contour
 62
   7
 39
0.100
  6
CONTINUOUS
 10
14.82500
 20
71.00300
 30
 0
 11
16.82500
 21
71.00300
  0
LINE
  8
Contour
 62
   7
 39
0.100
  6
CONTINUOUS
 10
15.82500
 20
70.00300
 30
 0
 11
15.82500
 21
72.00300
  0
LINE
  8
Contour
 62
   7
 39
0.100
  6
CONTINUOUS
 10
14.82500
 20
56.00300
 30
 0
 11
16.82500
 21
56.00300
  0
LINE
  8
Contour
 62
   7
 39
0.100
  6
CONTINUOUS
 10
15.82500
 20
55.00300
 30
 0
 11
15.82500
 21
57.00300
  0
LINE
  8
Contour
 62
   7
 39
0.100
  6
CONTINUOUS
 10
14.82500
 20
41.00300
 30
 0
 11
16.82500
 21
41.00300
  0
LINE
  8
Contour
 62
   7
 39
0.100
  6
CONTINUOUS
 10
15.82500
 20
40.00300
 30
 0
 11
15.82500
 21
42.00300
  0
LINE
  8
Contour
 62
   7
 39
0.100
  6
CONTINUOUS
 10
29.82500
 20
101.00300
 30
 0
 11
31.82500
 21
101.00300
  0
LINE
  8
Contour
 62
   7
 39
0.100
  6
CONTINUOUS
 10
30.82500
 20
100.00300
 30
 0
 11
30.82500
 21
102.00300
  0
LINE
  8
Contour
 62
   7
 39
0.100
  6
CONTINUOUS
 10
29.82500
 20
86.00300
 30
 0
 11
31.82500
 21
86.00300
  0
LINE
  8
Contour
 62
   7
 39
0.100
  6
CONTINUOUS
 10
30.82500
 20
85.00300
 30
 0
 11
30.82500
 21
87.00300
  0
LINE
  8
Contour
 62
   7
 39
0.100
  6
CONTINUOUS
 10
29.82500
 20
71.00300
 30
 0
 11
31.82500
 21
71.00300
  0
LINE
  8
Contour
 62
   7
 39
0.100
  6
CONTINUOUS
 10
30.82500
 20
70.00300
 30
 0
 11
30.82500
 21
72.00300
  0
LINE
  8
Contour
 62
   7
 39
0.100
  6
CONTINUOUS
 10
29.82500
 20
56.00300
 30
 0
 11
31.82500
 21
56.00300
  0
LINE
  8
Contour
 62
   7
 39
0.100
  6
CONTINUOUS
 10
30.82500
 20
55.00300
 30
 0
 11
30.82500
 21
57.00300
  0
LINE
  8
Contour
 62
   7
 39
0.100
  6
CONTINUOUS
 10
29.82500
 20
41.00300
 30
 0
 11
31.82500
 21
41.00300
  0
LINE
  8
Contour
 62
   7
 39
0.100
  6
CONTINUOUS
 10
30.82500
 20
40.00300
 30
 0
 11
30.82500
 21
42.00300
  0
LINE
  8
Contour
 62
   7
 39
0.100
  6
CONTINUOUS
 10
44.82500
 20
101.00300
 30
 0
 11
46.82500
 21
101.00300
  0
LINE
  8
Contour
 62
   7
 39
0.100
  6
CONTINUOUS
 10
45.82500
 20
100.00300
 30
 0
 11
45.82500
 21
102.00300
  0
LINE
  8
Contour
 62
   7
 39
0.100
  6
CONTINUOUS
 10
44.82500
 20
86.00300
 30
 0
 11
46.82500
 21
86.00300
  0
LINE
  8
Contour
 62
   7
 39
0.100
  6
CONTINUOUS
 10
45.82500
 20
85.00300
 30
 0
 11
45.82500
 21
87.00300
  0
LINE
  8
Contour
 62
   7
 39
0.100
  6
CONTINUOUS
 10
44.82500
 20
71.00300
 30
 0
 11
46.82500
 21
71.00300
  0
LINE
  8
Contour
 62
   7
 39
0.100
  6
CONTINUOUS
 10
45.82500
 20
70.00300
 30
 0
 11
45.82500
 21
72.00300
  0
LINE
  8
Contour
 62
   7
 39
0.100
  6
CONTINUOUS
 10
44.82500
 20
56.00300
 30
 0
 11
46.82500
 21
56.00300
  0
LINE
  8
Contour
 62
   7
 39
0.100
  6
CONTINUOUS
 10
45.82500
 20
55.00300
 30
 0
 11
45.82500
 21
57.00300
  0
LINE
  8
Contour
 62
   7
 39
0.100
  6
CONTINUOUS
 10
44.82500
 20
41.00300
 30
 0
 11
46.82500
 21
41.00300
  0
LINE
  8
Contour
 62
   7
 39
0.100
  6
CONTINUOUS
 10
45.82500
 20
40.00300
 30
 0
 11
45.82500
 21
42.00300
  0
LINE
  8
Contour
 62
   7
 39
0.100
  6
CONTINUOUS
 10
44.82500
 20
26.00300
 30
 0
 11
46.82500
 21
26.00300
  0
LINE
  8
Contour
 62
   7
 39
0.100
  6
CONTINUOUS
 10
45.82500
 20
25.00300
 30
 0
 11
45.82500
 21
27.00300
  0
LINE
  8
Contour
 62
   7
 39
0.100
  6
CONTINUOUS
 10
29.82500
 20
26.00300
 30
 0
 11
31.82500
 21
26.00300
  0
LINE
  8
Contour
 62
   7
 39
0.100
  6
CONTINUOUS
 10
30.82500
 20
25.00300
 30
 0
 11
30.82500
 21
27.00300
  0
LINE
  8
Contour
 62
   7
 39
0.100
  6
CONTINUOUS
 10
14.82500
 20
26.00300
 30
 0
 11
16.82500
 21
26.00300
  0
LINE
  8
Contour
 62
   7
 39
0.100
  6
CONTINUOUS
 10
15.82500
 20
25.00300
 30
 0
 11
15.82500
 21
27.00300
  0
LINE
  8
Contour
 62
   7
 39
0.100
  6
CONTINUOUS
 10
29.82500
 20
63.50300
 30
 0
 11
31.82500
 21
63.50300
  0
LINE
  8
Contour
 62
   7
 39
0.100
  6
CONTINUOUS
 10
30.82500
 20
62.50300
 30
 0
 11
30.82500
 21
64.50300
  0
LINE
  8
Contour
 62
   7
 39
0.100
  6
CONTINUOUS
 10
29.48000
 20
64.25000
 30
 0
 11
31.48000
 21
64.25000
  0
LINE
  8
Contour
 62
   7
 39
0.100
  6
CONTINUOUS
 10
30.48000
 20
63.25000
 30
 0
 11
30.48000
 21
65.25000
  0
ENDSEC
  0
EOF
