G04 DipTrace 3.3.1.3*
G04 BottomSilk.gbr*
%MOIN*%
G04 #@! TF.FileFunction,Legend,Bot*
G04 #@! TF.Part,Single*
%ADD10C,0.009843*%
%ADD19C,0.015745*%
%ADD21C,0.015747*%
%ADD23C,0.005*%
%ADD30C,0.02*%
%ADD31C,0.006*%
%ADD32C,0.012*%
%ADD33C,0.011806*%
%ADD35C,0.023646*%
%ADD40C,0.008*%
%ADD41C,0.029989*%
%ADD44C,0.015733*%
%ADD48C,0.01541*%
%ADD51C,0.004*%
%ADD52C,0.023634*%
%ADD54O,0.015353X0.015463*%
%ADD56O,0.015463X0.015353*%
%ADD114C,0.003088*%
%ADD117C,0.00772*%
%ADD118C,0.003281*%
%FSLAX26Y26*%
G04*
G70*
G90*
G75*
G01*
G04 BotSilk*
%LPD*%
D19*
X1919247Y2212451D3*
X1906203Y2168514D2*
D10*
X1751195D1*
X1906203Y2256388D2*
X1751195D1*
D19*
X2619247Y2181201D3*
X2606203Y2137264D2*
D10*
X2451195D1*
X2606203Y2225138D2*
X2451195D1*
D21*
X3368701Y2427850D3*
X3412638Y2414805D2*
D10*
Y2259797D1*
X3324764Y2414805D2*
Y2259797D1*
D21*
X3487451Y2671599D3*
X3531388Y2658554D2*
D10*
Y2503547D1*
X3443514Y2658554D2*
Y2503547D1*
D19*
X2894247Y2549951D3*
X2881203Y2506014D2*
D10*
X2726195D1*
X2881203Y2593888D2*
X2726195D1*
D19*
X2306747Y2181201D3*
X2293703Y2137264D2*
D10*
X2138695D1*
X2293703Y2225138D2*
X2138695D1*
X2037458Y751183D2*
D23*
X2007448Y781209D1*
X1867460D1*
X1837450Y751183D1*
Y701199D1*
X1857442Y681206D1*
X1837450Y661213D1*
Y601196D1*
X1857442Y581203D1*
X1837450Y561210D1*
Y511190D1*
X1867460Y481200D1*
X2007448D1*
X2037458Y511190D1*
Y561210D1*
X2017444Y581203D1*
X2037458Y601196D1*
Y661213D1*
X2017444Y681206D1*
X2037458Y701199D1*
Y751183D1*
X2174114Y507333D2*
D10*
X2701673D1*
Y617570D1*
X2174114D1*
Y507333D1*
X2824942Y517469D2*
D23*
X2854952Y487443D1*
X2994940D1*
X3024950Y517469D1*
Y567453D1*
X3004958Y587446D1*
X3024950Y607440D1*
Y667456D1*
X3004958Y687449D1*
X3024950Y707443D1*
Y757462D1*
X2994940Y787452D1*
X2854952D1*
X2824942Y757462D1*
Y707443D1*
X2844956Y687449D1*
X2824942Y667456D1*
Y607440D1*
X2844956Y587446D1*
X2824942Y567453D1*
Y517469D1*
X2124952Y2381189D2*
D30*
Y2631193D1*
X2624943Y2431204D2*
D31*
Y2581213D1*
X2599934Y2406196D2*
X2624943Y2431204D1*
Y2581213D2*
X2599934Y2606185D1*
X2199981Y2631193D2*
D32*
X2149962D1*
X2174971Y2606185D2*
X2149962Y2631193D1*
X2174971Y2656200D1*
D33*
X866980Y2131201D3*
X835483Y2163681D2*
D10*
X752799D1*
X835483Y2098720D2*
X752799D1*
X1639348Y1488706D2*
X1296875D1*
Y1146234D1*
X1639348D1*
Y1488706D1*
D35*
X1704334Y1506453D3*
G36*
X1638568Y1487147D2*
X1601203Y1486367D1*
X1638568Y1487147D1*
G37*
G36*
X1633475Y1490681D2*
X1586236D1*
X1641323Y1435594D1*
X1633475Y1490681D1*
G37*
X2000984Y1079573D2*
D10*
Y1528401D1*
X2536417Y1079573D2*
Y1274280D1*
Y1333693D2*
Y1528401D1*
Y1274280D2*
G02X2536417Y1333693I-1727J29706D01*
G01*
X1495274Y2269839D2*
X1692128D1*
X1495274Y2167463D2*
X1692128D1*
Y2269839D2*
Y2167463D1*
X1495274Y2238345D2*
Y2269839D1*
Y2198956D2*
Y2167463D1*
Y2238345D2*
G02X1495274Y2198956I-9J-19694D01*
G01*
X1311270Y2434631D2*
D40*
X936279D1*
Y2139638D1*
X1311270D1*
Y2434631D1*
D41*
X1334326Y2128462D3*
X1819890Y1815797D2*
D10*
Y2012649D1*
X1945858Y1815797D2*
Y2012649D1*
X1819890D2*
X1945858D1*
X1819890Y1815797D2*
X1863186D1*
X1902562D2*
X1945858D1*
X1863186D2*
G02X1902562Y1815797I19688J-3D01*
G01*
D44*
X3447392Y1121914D3*
X3476923Y1336433D2*
D10*
Y1348231D1*
X3465106D1*
X3280064Y1336433D2*
Y1348231D1*
X3291881D2*
X3280064D1*
Y1151461D2*
Y1163235D1*
X3291881Y1151461D2*
X3280064D1*
X3476923Y1163235D2*
X3465106Y1151461D1*
X3692512Y2009104D2*
Y1812253D1*
X3566543Y2009104D2*
Y1812253D1*
X3692512D2*
X3566543D1*
X3692512Y2009104D2*
X3649216D1*
X3609839D2*
X3566543D1*
X3649216D2*
G02X3609839Y2009104I-19688J3D01*
G01*
X2905012D2*
Y1812253D1*
X2779043Y2009104D2*
Y1812253D1*
X2905012D2*
X2779043D1*
X2905012Y2009104D2*
X2861716D1*
X2822339D2*
X2779043D1*
X2861716D2*
G02X2822339Y2009104I-19688J3D01*
G01*
X2984789Y2429064D2*
X3244631D1*
X2984789Y2153474D2*
Y2429064D1*
Y2153474D2*
X2992654D1*
X3244631D2*
Y2429064D1*
Y2153474D2*
X3236766D1*
D48*
X2985722Y2544009D3*
X957774Y1051090D2*
D10*
X1154628D1*
X957774Y948713D2*
X1154628D1*
Y1051090D2*
Y948713D1*
X957774Y1019596D2*
Y1051090D1*
Y980207D2*
Y948713D1*
Y1019596D2*
G02X957774Y980207I-9J-19694D01*
G01*
X2645450Y754201D2*
D51*
X2653450D1*
Y792201D1*
X2645450D1*
X2629450D2*
X2621450D1*
Y754201D1*
X2629450D1*
X940097Y1364617D2*
D10*
X1117271D1*
X940097Y1167766D2*
X1117271D1*
Y1364617D2*
Y1325247D1*
Y1207136D2*
Y1167766D1*
D52*
X886961Y1309499D3*
D54*
X1658094Y986020D3*
D56*
X3279769Y966808D3*
X1911354Y844494D2*
D114*
X1912305Y846395D1*
X1914228Y848318D1*
X1916129Y849269D1*
X1919954D1*
X1921877Y848318D1*
X1923778Y846395D1*
X1924751Y844494D1*
X1925702Y841620D1*
Y836822D1*
X1924751Y833970D1*
X1923778Y832047D1*
X1921877Y830146D1*
X1919954Y829173D1*
X1916129D1*
X1914228Y830146D1*
X1912305Y832047D1*
X1911354Y833970D1*
X1905178Y845422D2*
X1903255Y846395D1*
X1900381Y849247D1*
Y829173D1*
X2226973Y1625744D2*
X2227924Y1627645D1*
X2229847Y1629568D1*
X2231749Y1630519D1*
X2235573D1*
X2237497Y1629568D1*
X2239398Y1627645D1*
X2240371Y1625744D1*
X2241321Y1622870D1*
Y1618072D1*
X2240371Y1615220D1*
X2239398Y1613297D1*
X2237497Y1611396D1*
X2235573Y1610423D1*
X2231749D1*
X2229847Y1611396D1*
X2227924Y1613297D1*
X2226973Y1615220D1*
X2219825Y1625721D2*
Y1626672D1*
X2218874Y1628596D1*
X2217924Y1629546D1*
X2216000Y1630497D1*
X2212176D1*
X2210274Y1629546D1*
X2209324Y1628596D1*
X2208351Y1626672D1*
Y1624771D1*
X2209324Y1622847D1*
X2211225Y1619996D1*
X2220798Y1610423D1*
X2207400D1*
X1584403Y1619494D2*
X1585353Y1621396D1*
X1587277Y1623319D1*
X1589178Y1624270D1*
X1593002D1*
X1594926Y1623319D1*
X1596827Y1621396D1*
X1597800Y1619494D1*
X1598751Y1616620D1*
Y1611823D1*
X1597800Y1608971D1*
X1596827Y1607048D1*
X1594926Y1605146D1*
X1593002Y1604174D1*
X1589178D1*
X1587277Y1605146D1*
X1585353Y1607048D1*
X1584403Y1608971D1*
X1576303Y1624247D2*
X1565802D1*
X1571528Y1616598D1*
X1568654D1*
X1566753Y1615647D1*
X1565802Y1614697D1*
X1564830Y1611823D1*
Y1609922D1*
X1565802Y1607048D1*
X1567704Y1605124D1*
X1570578Y1604174D1*
X1573452D1*
X1576303Y1605124D1*
X1577254Y1606097D1*
X1578227Y1607998D1*
X1742907Y1466130D2*
X1741006Y1467081D1*
X1739083Y1469004D1*
X1738132Y1470905D1*
Y1474730D1*
X1739083Y1476653D1*
X1741006Y1478554D1*
X1742907Y1479527D1*
X1745781Y1480478D1*
X1750579D1*
X1753431Y1479527D1*
X1755354Y1478554D1*
X1757255Y1476653D1*
X1758228Y1474730D1*
Y1470905D1*
X1757255Y1469004D1*
X1755354Y1467081D1*
X1753431Y1466130D1*
X1758228Y1450382D2*
X1738154D1*
X1751529Y1459954D1*
Y1445606D1*
X1486657Y814473D2*
X1484755Y815424D1*
X1482832Y817348D1*
X1481881Y819249D1*
Y823073D1*
X1482832Y824997D1*
X1484755Y826898D1*
X1486657Y827871D1*
X1489531Y828821D1*
X1494328D1*
X1497180Y827871D1*
X1499103Y826898D1*
X1501005Y824997D1*
X1501977Y823073D1*
Y819249D1*
X1501005Y817347D1*
X1499103Y815424D1*
X1497180Y814473D1*
X1481903Y796824D2*
X1481904Y806374D1*
X1490503Y807325D1*
X1489553Y806374D1*
X1488580Y803500D1*
Y800649D1*
X1489553Y797775D1*
X1491454Y795851D1*
X1494328Y794901D1*
X1496229D1*
X1499103Y795851D1*
X1501027Y797775D1*
X1501977Y800649D1*
Y803500D1*
X1501027Y806374D1*
X1500054Y807325D1*
X1498153Y808298D1*
X1711658Y808918D2*
X1709757Y809868D1*
X1707833Y811792D1*
X1706883Y813693D1*
Y817518D1*
X1707833Y819441D1*
X1709757Y821342D1*
X1711658Y822315D1*
X1714532Y823266D1*
X1719329Y823265D1*
X1722181Y822315D1*
X1724105Y821342D1*
X1726006Y819441D1*
X1726979Y817517D1*
Y813693D1*
X1726006Y811792D1*
X1724105Y809868D1*
X1722181Y808918D1*
X1709757Y791268D2*
X1707855Y792219D1*
X1706905Y795093D1*
Y796994D1*
X1707855Y799868D1*
X1710729Y801791D1*
X1715505Y802742D1*
X1720280D1*
X1724105Y801791D1*
X1726028Y799868D1*
X1726979Y796994D1*
Y796043D1*
X1726028Y793191D1*
X1724105Y791268D1*
X1721231Y790317D1*
X1720280D1*
X1717406Y791268D1*
X1715505Y793191D1*
X1714554Y796043D1*
Y796994D1*
X1715505Y799868D1*
X1717406Y801791D1*
X1720280Y802742D1*
X2233223Y956994D2*
X2234173Y958896D1*
X2236097Y960819D1*
X2237998Y961770D1*
X2241823D1*
X2243746Y960819D1*
X2245647Y958896D1*
X2246620Y956994D1*
X2247571Y954120D1*
Y949323D1*
X2246620Y946471D1*
X2245647Y944548D1*
X2243746Y942646D1*
X2241823Y941674D1*
X2237998D1*
X2236097Y942646D1*
X2234173Y944548D1*
X2233223Y946471D1*
X2223222Y941674D2*
X2213650Y961747D1*
X2227047D1*
X1848008Y2055902D2*
X1848959Y2057804D1*
X1850882Y2059727D1*
X1852784Y2060678D1*
X1856608D1*
X1858532Y2059727D1*
X1860433Y2057804D1*
X1861406Y2055902D1*
X1862356Y2053028D1*
Y2048231D1*
X1861406Y2045379D1*
X1860433Y2043456D1*
X1858532Y2041554D1*
X1856608Y2040582D1*
X1852784D1*
X1850882Y2041554D1*
X1848959Y2043456D1*
X1848008Y2045379D1*
X1837057Y2060656D2*
X1839909Y2059705D1*
X1840882Y2057804D1*
Y2055880D1*
X1839909Y2053979D1*
X1838008Y2053006D1*
X1834183Y2052056D1*
X1831309Y2051105D1*
X1829408Y2049182D1*
X1828457Y2047280D1*
Y2044406D1*
X1829408Y2042505D1*
X1830359Y2041532D1*
X1833233Y2040582D1*
X1837057D1*
X1839909Y2041532D1*
X1840882Y2042505D1*
X1841833Y2044406D1*
Y2047280D1*
X1840882Y2049182D1*
X1838959Y2051105D1*
X1836107Y2052056D1*
X1832282Y2053006D1*
X1830359Y2053979D1*
X1829408Y2055880D1*
Y2057804D1*
X1830359Y2059705D1*
X1833233Y2060656D1*
X1837057D1*
X1663997Y2000745D2*
X1664947Y2002646D1*
X1666871Y2004570D1*
X1668772Y2005520D1*
X1672597D1*
X1674520Y2004570D1*
X1676421Y2002646D1*
X1677394Y2000745D1*
X1678345Y1997871D1*
Y1993074D1*
X1677394Y1990222D1*
X1676421Y1988298D1*
X1674520Y1986397D1*
X1672597Y1985424D1*
X1668772D1*
X1666871Y1986397D1*
X1664947Y1988298D1*
X1663997Y1990222D1*
X1645374Y1998822D2*
X1646347Y1995948D1*
X1648248Y1994024D1*
X1651122Y1993074D1*
X1652073D1*
X1654947Y1994024D1*
X1656848Y1995948D1*
X1657821Y1998822D1*
Y1999772D1*
X1656848Y2002646D1*
X1654947Y2004547D1*
X1652073Y2005498D1*
X1651122D1*
X1648248Y2004547D1*
X1646347Y2002646D1*
X1645374Y1998822D1*
Y1994024D1*
X1646347Y1989249D1*
X1648248Y1986375D1*
X1651122Y1985424D1*
X1653024D1*
X1655898Y1986375D1*
X1656848Y1988298D1*
X3771140Y2244494D2*
X3772090Y2246396D1*
X3774014Y2248319D1*
X3775915Y2249270D1*
X3779740D1*
X3781663Y2248319D1*
X3783564Y2246396D1*
X3784537Y2244494D1*
X3785488Y2241620D1*
Y2236823D1*
X3784537Y2233971D1*
X3783564Y2232048D1*
X3781663Y2230146D1*
X3779740Y2229174D1*
X3775915D1*
X3774014Y2230146D1*
X3772090Y2232048D1*
X3771140Y2233971D1*
X3764964Y2245423D2*
X3763041Y2246396D1*
X3760167Y2249247D1*
Y2229174D1*
X3748243Y2249247D2*
X3751117Y2248297D1*
X3753040Y2245423D1*
X3753991Y2240647D1*
Y2237773D1*
X3753040Y2232998D1*
X3751117Y2230124D1*
X3748243Y2229174D1*
X3746342D1*
X3743468Y2230124D1*
X3741566Y2232998D1*
X3740594Y2237773D1*
Y2240647D1*
X3741566Y2245423D1*
X3743468Y2248297D1*
X3746342Y2249247D1*
X3748243D1*
X3741566Y2245423D2*
X3753040Y2232998D1*
X1660590Y2456994D2*
X1661541Y2458896D1*
X1663464Y2460819D1*
X1665366Y2461770D1*
X1669190D1*
X1671114Y2460819D1*
X1673015Y2458896D1*
X1673988Y2456994D1*
X1674938Y2454120D1*
Y2449323D1*
X1673988Y2446471D1*
X1673015Y2444548D1*
X1671114Y2442646D1*
X1669190Y2441674D1*
X1665366D1*
X1663464Y2442646D1*
X1661541Y2444548D1*
X1660590Y2446471D1*
X1654415Y2457923D2*
X1652491Y2458896D1*
X1649617Y2461747D1*
Y2441674D1*
X1643442Y2457923D2*
X1641518Y2458896D1*
X1638644Y2461747D1*
Y2441674D1*
X1771140Y2363245D2*
X1772090Y2365146D1*
X1774014Y2367070D1*
X1775915Y2368020D1*
X1779740D1*
X1781663Y2367070D1*
X1783564Y2365146D1*
X1784537Y2363245D1*
X1785488Y2360371D1*
Y2355574D1*
X1784537Y2352722D1*
X1783564Y2350798D1*
X1781663Y2348897D1*
X1779740Y2347924D1*
X1775915D1*
X1774014Y2348897D1*
X1772090Y2350798D1*
X1771140Y2352722D1*
X1764964Y2364173D2*
X1763041Y2365146D1*
X1760167Y2367998D1*
Y2347924D1*
X1753018Y2363223D2*
Y2364173D1*
X1752068Y2366097D1*
X1751117Y2367047D1*
X1749194Y2367998D1*
X1745369D1*
X1743468Y2367047D1*
X1742517Y2366097D1*
X1741544Y2364173D1*
Y2362272D1*
X1742517Y2360349D1*
X1744418Y2357497D1*
X1753991Y2347924D1*
X1740594D1*
X3546141Y1381996D2*
X3547092Y1383897D1*
X3549015Y1385820D1*
X3550916Y1386771D1*
X3554741D1*
X3556664Y1385820D1*
X3558566Y1383897D1*
X3559538Y1381996D1*
X3560489Y1379122D1*
Y1374324D1*
X3559538Y1371472D1*
X3558566Y1369549D1*
X3556664Y1367648D1*
X3554741Y1366675D1*
X3550916D1*
X3549015Y1367648D1*
X3547092Y1369549D1*
X3546141Y1371472D1*
X3539965Y1382924D2*
X3538042Y1383897D1*
X3535168Y1386749D1*
Y1366675D1*
X3527069Y1386749D2*
X3516568D1*
X3522294Y1379099D1*
X3519420D1*
X3517518Y1378149D1*
X3516568Y1377198D1*
X3515595Y1374324D1*
Y1372423D1*
X3516568Y1369549D1*
X3518469Y1367625D1*
X3521343Y1366675D1*
X3524217D1*
X3527069Y1367625D1*
X3528020Y1368598D1*
X3528992Y1370500D1*
X1286657Y2721615D2*
X1284755Y2722566D1*
X1282832Y2724489D1*
X1281881Y2726390D1*
Y2730215D1*
X1282832Y2732138D1*
X1284755Y2734040D1*
X1286657Y2735012D1*
X1289531Y2735963D1*
X1294328D1*
X1297180Y2735012D1*
X1299103Y2734040D1*
X1301005Y2732138D1*
X1301977Y2730215D1*
Y2726390D1*
X1301005Y2724489D1*
X1299103Y2722566D1*
X1297180Y2721615D1*
X1285728Y2715439D2*
X1284755Y2713516D1*
X1281904Y2710642D1*
X1301977D1*
Y2694894D2*
X1281904D1*
X1295279Y2704466D1*
Y2690118D1*
X3867906Y1469960D2*
X3866005Y1470911D1*
X3864081Y1472834D1*
X3863131Y1474735D1*
Y1478560D1*
X3864081Y1480483D1*
X3866005Y1482385D1*
X3867906Y1483357D1*
X3870780Y1484308D1*
X3875577D1*
X3878429Y1483357D1*
X3880353Y1482385D1*
X3882254Y1480483D1*
X3883227Y1478560D1*
Y1474735D1*
X3882254Y1472834D1*
X3880353Y1470911D1*
X3878429Y1469960D1*
X3866978Y1463784D2*
X3866005Y1461861D1*
X3863153Y1458987D1*
X3883227D1*
X3863153Y1441337D2*
Y1450888D1*
X3871753Y1451839D1*
X3870802Y1450888D1*
X3869829Y1448014D1*
Y1445162D1*
X3870802Y1442288D1*
X3872703Y1440365D1*
X3875577Y1439414D1*
X3877479D1*
X3880353Y1440365D1*
X3882276Y1442288D1*
X3883227Y1445162D1*
Y1448014D1*
X3882276Y1450888D1*
X3881303Y1451838D1*
X3879402Y1452811D1*
X3664404Y1256994D2*
X3665355Y1258896D1*
X3667278Y1260819D1*
X3669179Y1261770D1*
X3673004D1*
X3674927Y1260819D1*
X3676829Y1258896D1*
X3677801Y1256994D1*
X3678752Y1254120D1*
Y1249323D1*
X3677801Y1246471D1*
X3676829Y1244548D1*
X3674927Y1242646D1*
X3673004Y1241674D1*
X3669179D1*
X3667278Y1242646D1*
X3665355Y1244548D1*
X3664404Y1246471D1*
X3658228Y1257923D2*
X3656305Y1258896D1*
X3653431Y1261747D1*
Y1241674D1*
X3635781Y1258896D2*
X3636732Y1260797D1*
X3639606Y1261747D1*
X3641507D1*
X3644381Y1260797D1*
X3646305Y1257923D1*
X3647255Y1253147D1*
Y1248372D1*
X3646305Y1244548D1*
X3644381Y1242624D1*
X3641507Y1241674D1*
X3640557D1*
X3637705Y1242624D1*
X3635781Y1244548D1*
X3634831Y1247422D1*
Y1248372D1*
X3635781Y1251246D1*
X3637705Y1253147D1*
X3640557Y1254098D1*
X3641507D1*
X3644381Y1253147D1*
X3646305Y1251246D1*
X3647255Y1248372D1*
X3417907Y926209D2*
X3416006Y927160D1*
X3414083Y929083D1*
X3413132Y930985D1*
Y934809D1*
X3414083Y936733D1*
X3416006Y938634D1*
X3417907Y939607D1*
X3420781Y940557D1*
X3425579D1*
X3428431Y939607D1*
X3430354Y938634D1*
X3432255Y936733D1*
X3433228Y934809D1*
Y930985D1*
X3432255Y929083D1*
X3430354Y927160D1*
X3428431Y926209D1*
X3416979Y920034D2*
X3416006Y918110D1*
X3413154Y915236D1*
X3433228D1*
Y905236D2*
X3413154Y895663D1*
Y909061D1*
X3076198Y1406994D2*
X3077149Y1408896D1*
X3079072Y1410819D1*
X3080974Y1411770D1*
X3084798D1*
X3086722Y1410819D1*
X3088623Y1408896D1*
X3089596Y1406994D1*
X3090546Y1404120D1*
Y1399323D1*
X3089596Y1396471D1*
X3088623Y1394548D1*
X3086722Y1392646D1*
X3084798Y1391674D1*
X3080974D1*
X3079072Y1392646D1*
X3077149Y1394548D1*
X3076198Y1396471D1*
X3070023Y1407923D2*
X3068099Y1408896D1*
X3065225Y1411747D1*
Y1391674D1*
X3054274Y1411747D2*
X3057126Y1410797D1*
X3058099Y1408896D1*
Y1406972D1*
X3057126Y1405071D1*
X3055225Y1404098D1*
X3051400Y1403147D1*
X3048526Y1402197D1*
X3046625Y1400273D1*
X3045674Y1398372D1*
Y1395498D1*
X3046625Y1393597D1*
X3047576Y1392624D1*
X3050450Y1391674D1*
X3054274D1*
X3057126Y1392624D1*
X3058099Y1393597D1*
X3059049Y1395498D1*
Y1398372D1*
X3058099Y1400273D1*
X3056175Y1402197D1*
X3053324Y1403147D1*
X3049499Y1404098D1*
X3047576Y1405071D1*
X3046625Y1406972D1*
Y1408896D1*
X3047576Y1410797D1*
X3050450Y1411747D1*
X3054274D1*
X3356983Y1394496D2*
X3357934Y1396397D1*
X3359857Y1398320D1*
X3361759Y1399271D1*
X3365583D1*
X3367507Y1398320D1*
X3369408Y1396397D1*
X3370381Y1394496D1*
X3371331Y1391622D1*
Y1386824D1*
X3370381Y1383972D1*
X3369408Y1382049D1*
X3367507Y1380148D1*
X3365583Y1379175D1*
X3361759D1*
X3359857Y1380148D1*
X3357934Y1382049D1*
X3356983Y1383972D1*
X3350808Y1395424D2*
X3348884Y1396397D1*
X3346010Y1399249D1*
Y1379175D1*
X3327388Y1392572D2*
X3328361Y1389698D1*
X3330262Y1387775D1*
X3333136Y1386824D1*
X3334087D1*
X3336961Y1387775D1*
X3338862Y1389698D1*
X3339835Y1392572D1*
Y1393523D1*
X3338862Y1396397D1*
X3336961Y1398298D1*
X3334087Y1399249D1*
X3333136D1*
X3330262Y1398298D1*
X3328361Y1396397D1*
X3327388Y1392572D1*
Y1387775D1*
X3328361Y1383000D1*
X3330262Y1380125D1*
X3333136Y1379175D1*
X3335037D1*
X3337911Y1380125D1*
X3338862Y1382049D1*
X3824157Y1987941D2*
X3822255Y1988892D1*
X3820332Y1990815D1*
X3819381Y1992716D1*
Y1996541D1*
X3820332Y1998464D1*
X3822255Y2000366D1*
X3824157Y2001338D1*
X3827031Y2002289D1*
X3831828D1*
X3834680Y2001338D1*
X3836603Y2000366D1*
X3838505Y1998464D1*
X3839477Y1996541D1*
Y1992716D1*
X3838505Y1990815D1*
X3836603Y1988892D1*
X3834680Y1987941D1*
X3824179Y1980793D2*
X3823228D1*
X3821305Y1979842D1*
X3820354Y1978891D1*
X3819404Y1976968D1*
Y1973143D1*
X3820354Y1971242D1*
X3821305Y1970291D1*
X3823228Y1969319D1*
X3825129D1*
X3827053Y1970291D1*
X3829905Y1972193D1*
X3839477Y1981765D1*
Y1968368D1*
X3819404Y1956444D2*
X3820354Y1959318D1*
X3823228Y1961242D1*
X3828003Y1962192D1*
X3830878D1*
X3835653Y1961242D1*
X3838527Y1959318D1*
X3839477Y1956444D1*
Y1954543D1*
X3838527Y1951669D1*
X3835653Y1949768D1*
X3830877Y1948795D1*
X3828003D1*
X3823228Y1949768D1*
X3820354Y1951669D1*
X3819404Y1954543D1*
Y1956444D1*
X3823228Y1949768D2*
X3835653Y1961242D1*
X3596140Y1219494D2*
X3597090Y1221396D1*
X3599014Y1223319D1*
X3600915Y1224270D1*
X3604740D1*
X3606663Y1223319D1*
X3608564Y1221396D1*
X3609537Y1219494D1*
X3610488Y1216620D1*
Y1211823D1*
X3609537Y1208971D1*
X3608564Y1207048D1*
X3606663Y1205146D1*
X3604740Y1204174D1*
X3600915D1*
X3599014Y1205146D1*
X3597090Y1207048D1*
X3596140Y1208971D1*
X3588991Y1219472D2*
Y1220423D1*
X3588041Y1222346D1*
X3587090Y1223297D1*
X3585167Y1224247D1*
X3581342D1*
X3579441Y1223297D1*
X3578490Y1222346D1*
X3577517Y1220423D1*
Y1218522D1*
X3578490Y1216598D1*
X3580391Y1213746D1*
X3589964Y1204174D1*
X3576567D1*
X3570391Y1220423D2*
X3568468Y1221396D1*
X3565594Y1224247D1*
Y1204174D1*
X2837349Y2106404D2*
X2838300Y2108305D1*
X2840223Y2110228D1*
X2842124Y2111179D1*
X2845949D1*
X2847872Y2110228D1*
X2849774Y2108305D1*
X2850747Y2106404D1*
X2851697Y2103530D1*
Y2098732D1*
X2850747Y2095880D1*
X2849774Y2093957D1*
X2847872Y2092056D1*
X2845949Y2091083D1*
X2842124D1*
X2840223Y2092056D1*
X2838300Y2093957D1*
X2837349Y2095880D1*
X2830201Y2106382D2*
Y2107332D1*
X2829250Y2109256D1*
X2828299Y2110206D1*
X2826376Y2111157D1*
X2822551D1*
X2820650Y2110206D1*
X2819700Y2109256D1*
X2818727Y2107332D1*
Y2105431D1*
X2819700Y2103508D1*
X2821601Y2100656D1*
X2831173Y2091083D1*
X2817776D1*
X2810628Y2106382D2*
Y2107332D1*
X2809677Y2109256D1*
X2808726Y2110206D1*
X2806803Y2111157D1*
X2802978D1*
X2801077Y2110206D1*
X2800126Y2109256D1*
X2799154Y2107332D1*
Y2105431D1*
X2800126Y2103508D1*
X2802028Y2100656D1*
X2811600Y2091083D1*
X2798203D1*
X3361657Y930509D2*
X3359755Y931460D1*
X3357832Y933383D1*
X3356881Y935285D1*
Y939109D1*
X3357832Y941033D1*
X3359755Y942934D1*
X3361657Y943907D1*
X3364531Y944857D1*
X3369328D1*
X3372180Y943907D1*
X3374103Y942934D1*
X3376005Y941033D1*
X3376977Y939109D1*
Y935285D1*
X3376005Y933383D1*
X3374103Y931460D1*
X3372180Y930509D1*
X3361679Y923361D2*
X3360728D1*
X3358805Y922410D1*
X3357854Y921460D1*
X3356904Y919536D1*
Y915712D1*
X3357854Y913810D1*
X3358805Y912860D1*
X3360728Y911887D1*
X3362629D1*
X3364553Y912860D1*
X3367405Y914761D1*
X3376977Y924334D1*
Y910936D1*
X3356904Y902837D2*
X3356903Y892336D1*
X3364553Y898062D1*
Y895188D1*
X3365503Y893287D1*
X3366454Y892336D1*
X3369328Y891363D1*
X3371229D1*
X3374103Y892336D1*
X3376027Y894237D1*
X3376977Y897111D1*
Y899985D1*
X3376027Y902837D1*
X3375054Y903788D1*
X3373153Y904761D1*
X3117906Y988416D2*
X3116005Y989367D1*
X3114081Y991290D1*
X3113131Y993192D1*
Y997016D1*
X3114081Y998940D1*
X3116005Y1000841D1*
X3117906Y1001814D1*
X3120780Y1002764D1*
X3125577D1*
X3128429Y1001814D1*
X3130353Y1000841D1*
X3132254Y998940D1*
X3133227Y997016D1*
Y993192D1*
X3132254Y991290D1*
X3130353Y989367D1*
X3128429Y988416D1*
X3117928Y981268D2*
X3116978D1*
X3115054Y980317D1*
X3114104Y979367D1*
X3113153Y977443D1*
Y973619D1*
X3114104Y971717D1*
X3115054Y970767D1*
X3116978Y969794D1*
X3118879D1*
X3120802Y970767D1*
X3123654Y972668D1*
X3133227Y982241D1*
Y968843D1*
Y953095D2*
X3113153D1*
X3126528Y962668D1*
Y948320D1*
X2551557Y2018402D2*
X2552507Y2020304D1*
X2554431Y2022227D1*
X2556332Y2023178D1*
X2560156D1*
X2562080Y2022227D1*
X2563981Y2020304D1*
X2564954Y2018402D1*
X2565904Y2015528D1*
Y2010731D1*
X2564954Y2007879D1*
X2563981Y2005956D1*
X2562080Y2004054D1*
X2560156Y2003082D1*
X2556332D1*
X2554431Y2004054D1*
X2552507Y2005956D1*
X2551557Y2007879D1*
X2544408Y2018380D2*
Y2019331D1*
X2543457Y2021254D1*
X2542507Y2022205D1*
X2540583Y2023156D1*
X2536759D1*
X2534858Y2022205D1*
X2533907Y2021254D1*
X2532934Y2019331D1*
Y2017430D1*
X2533907Y2015506D1*
X2535808Y2012654D1*
X2545381Y2003082D1*
X2531983D1*
X2514334Y2023156D2*
X2523884D1*
X2524835Y2014556D1*
X2523884Y2015506D1*
X2521010Y2016479D1*
X2518158D1*
X2515284Y2015506D1*
X2513361Y2013605D1*
X2512410Y2010731D1*
Y2008830D1*
X2513361Y2005956D1*
X2515284Y2004032D1*
X2518158Y2003082D1*
X2521010D1*
X2523884Y2004032D1*
X2524835Y2005005D1*
X2525808Y2006906D1*
X2411272Y2350744D2*
X2412223Y2352645D1*
X2414146Y2354568D1*
X2416048Y2355519D1*
X2419872D1*
X2421796Y2354568D1*
X2423697Y2352645D1*
X2424670Y2350744D1*
X2425620Y2347870D1*
Y2343072D1*
X2424670Y2340220D1*
X2423697Y2338297D1*
X2421796Y2336396D1*
X2419872Y2335423D1*
X2416048D1*
X2414146Y2336396D1*
X2412223Y2338297D1*
X2411272Y2340220D1*
X2404124Y2350721D2*
Y2351672D1*
X2403173Y2353596D1*
X2402223Y2354546D1*
X2400299Y2355497D1*
X2396475D1*
X2394573Y2354546D1*
X2393623Y2353596D1*
X2392650Y2351672D1*
Y2349771D1*
X2393623Y2347847D1*
X2395524Y2344996D1*
X2405097Y2335423D1*
X2391699D1*
X2374050Y2352645D2*
X2375000Y2354546D1*
X2377874Y2355497D1*
X2379775D1*
X2382650Y2354546D1*
X2384573Y2351672D1*
X2385524Y2346897D1*
Y2342122D1*
X2384573Y2338297D1*
X2382650Y2336374D1*
X2379775Y2335423D1*
X2378825D1*
X2375973Y2336374D1*
X2374050Y2338297D1*
X2373099Y2341171D1*
Y2342122D1*
X2374050Y2344996D1*
X2375973Y2346897D1*
X2378825Y2347847D1*
X2379775D1*
X2382650Y2346897D1*
X2384573Y2344996D1*
X2385524Y2342122D1*
X1174157Y1000441D2*
X1172255Y1001392D1*
X1170332Y1003315D1*
X1169381Y1005216D1*
Y1009041D1*
X1170332Y1010964D1*
X1172255Y1012866D1*
X1174157Y1013838D1*
X1177031Y1014789D1*
X1181828D1*
X1184680Y1013838D1*
X1186603Y1012866D1*
X1188505Y1010964D1*
X1189477Y1009041D1*
Y1005216D1*
X1188505Y1003315D1*
X1186603Y1001392D1*
X1184680Y1000441D1*
X1174179Y993293D2*
X1173228D1*
X1171305Y992342D1*
X1170354Y991391D1*
X1169404Y989468D1*
Y985643D1*
X1170354Y983742D1*
X1171305Y982791D1*
X1173228Y981819D1*
X1175129D1*
X1177053Y982791D1*
X1179905Y984693D1*
X1189477Y994265D1*
Y980868D1*
Y970868D2*
X1169403Y961295D1*
X1169404Y974692D1*
X3381089Y2466486D2*
X3382039Y2468387D1*
X3383963Y2470310D1*
X3385864Y2471261D1*
X3389689D1*
X3391612Y2470310D1*
X3393513Y2468387D1*
X3394486Y2466486D1*
X3395437Y2463612D1*
Y2458814D1*
X3394486Y2455962D1*
X3393513Y2454039D1*
X3391612Y2452138D1*
X3389689Y2451165D1*
X3385864D1*
X3383963Y2452138D1*
X3382039Y2454039D1*
X3381089Y2455962D1*
X3373940Y2466464D2*
Y2467414D1*
X3372990Y2469338D1*
X3372039Y2470288D1*
X3370116Y2471239D1*
X3366291D1*
X3364390Y2470288D1*
X3363439Y2469338D1*
X3362466Y2467414D1*
Y2465513D1*
X3363439Y2463590D1*
X3365340Y2460738D1*
X3374913Y2451165D1*
X3361516D1*
X3350565Y2471239D2*
X3353417Y2470288D1*
X3354389Y2468387D1*
Y2466464D1*
X3353417Y2464562D1*
X3351515Y2463590D1*
X3347691Y2462639D1*
X3344817Y2461688D1*
X3342915Y2459765D1*
X3341965Y2457864D1*
Y2454990D1*
X3342915Y2453088D1*
X3343866Y2452116D1*
X3346740Y2451165D1*
X3350565D1*
X3353417Y2452116D1*
X3354389Y2453088D1*
X3355340Y2454990D1*
Y2457864D1*
X3354389Y2459765D1*
X3352466Y2461688D1*
X3349614Y2462639D1*
X3345789Y2463590D1*
X3343866Y2464562D1*
X3342915Y2466464D1*
Y2468387D1*
X3343866Y2470288D1*
X3346740Y2471239D1*
X3350565D1*
X3180723Y2675744D2*
X3181674Y2677645D1*
X3183597Y2679568D1*
X3185498Y2680519D1*
X3189323D1*
X3191246Y2679568D1*
X3193148Y2677645D1*
X3194120Y2675744D1*
X3195071Y2672870D1*
Y2668072D1*
X3194120Y2665220D1*
X3193148Y2663297D1*
X3191246Y2661396D1*
X3189323Y2660423D1*
X3185498D1*
X3183597Y2661396D1*
X3181674Y2663297D1*
X3180723Y2665220D1*
X3173575Y2675721D2*
Y2676672D1*
X3172624Y2678596D1*
X3171673Y2679546D1*
X3169750Y2680497D1*
X3165925D1*
X3164024Y2679546D1*
X3163073Y2678596D1*
X3162101Y2676672D1*
Y2674771D1*
X3163073Y2672847D1*
X3164975Y2669996D1*
X3174547Y2660423D1*
X3161150D1*
X3142528Y2673820D2*
X3143500Y2670946D1*
X3145402Y2669023D1*
X3148276Y2668072D1*
X3149226D1*
X3152100Y2669023D1*
X3154001Y2670946D1*
X3154974Y2673820D1*
Y2674771D1*
X3154001Y2677645D1*
X3152100Y2679546D1*
X3149226Y2680497D1*
X3148276D1*
X3145402Y2679546D1*
X3143500Y2677645D1*
X3142528Y2673820D1*
Y2669023D1*
X3143500Y2664248D1*
X3145402Y2661374D1*
X3148276Y2660423D1*
X3150177D1*
X3153051Y2661374D1*
X3154001Y2663297D1*
X3499850Y2710236D2*
X3500801Y2712138D1*
X3502725Y2714061D1*
X3504626Y2715012D1*
X3508450D1*
X3510374Y2714061D1*
X3512275Y2712138D1*
X3513248Y2710236D1*
X3514198Y2707362D1*
Y2702565D1*
X3513248Y2699713D1*
X3512275Y2697790D1*
X3510374Y2695888D1*
X3508450Y2694916D1*
X3504626D1*
X3502725Y2695888D1*
X3500801Y2697790D1*
X3499850Y2699713D1*
X3491751Y2714990D2*
X3481250D1*
X3486976Y2707340D1*
X3484102D1*
X3482201Y2706390D1*
X3481250Y2705439D1*
X3480277Y2702565D1*
Y2700664D1*
X3481250Y2697790D1*
X3483151Y2695866D1*
X3486025Y2694916D1*
X3488900D1*
X3491751Y2695866D1*
X3492702Y2696839D1*
X3493675Y2698740D1*
X3468354Y2714990D2*
X3471228Y2714039D1*
X3473151Y2711165D1*
X3474102Y2706390D1*
Y2703516D1*
X3473151Y2698740D1*
X3471228Y2695866D1*
X3468354Y2694916D1*
X3466452D1*
X3463578Y2695866D1*
X3461677Y2698740D1*
X3460704Y2703516D1*
Y2706390D1*
X3461677Y2711165D1*
X3463578Y2714039D1*
X3466452Y2714990D1*
X3468354D1*
X3461677Y2711165D2*
X3473151Y2698740D1*
X3724158Y2564398D2*
X3722257Y2565349D1*
X3720333Y2567272D1*
X3719383Y2569174D1*
Y2572998D1*
X3720333Y2574922D1*
X3722257Y2576823D1*
X3724158Y2577796D1*
X3727032Y2578746D1*
X3731829D1*
X3734681Y2577796D1*
X3736605Y2576823D1*
X3738506Y2574922D1*
X3739479Y2572998D1*
Y2569174D1*
X3738506Y2567272D1*
X3736605Y2565349D1*
X3734681Y2564398D1*
X3719405Y2556299D2*
Y2545798D1*
X3727054Y2551524D1*
Y2548650D1*
X3728005Y2546749D1*
X3728955Y2545798D1*
X3731829Y2544825D1*
X3733731D1*
X3736605Y2545798D1*
X3738528Y2547699D1*
X3739479Y2550573D1*
Y2553447D1*
X3738528Y2556299D1*
X3737555Y2557250D1*
X3735654Y2558223D1*
X3723229Y2538650D2*
X3722257Y2536726D1*
X3719405Y2533852D1*
X3739479D1*
X2826557Y2637153D2*
X2827507Y2639054D1*
X2829431Y2640978D1*
X2831332Y2641928D1*
X2835156D1*
X2837080Y2640978D1*
X2838981Y2639054D1*
X2839954Y2637153D1*
X2840904Y2634279D1*
Y2629482D1*
X2839954Y2626630D1*
X2838981Y2624706D1*
X2837080Y2622805D1*
X2835156Y2621832D1*
X2831332D1*
X2829431Y2622805D1*
X2827507Y2624706D1*
X2826557Y2626630D1*
X2818457Y2641906D2*
X2807956D1*
X2813682Y2634257D1*
X2810808D1*
X2808907Y2633306D1*
X2807956Y2632356D1*
X2806983Y2629482D1*
Y2627580D1*
X2807956Y2624706D1*
X2809858Y2622783D1*
X2812732Y2621832D1*
X2815606D1*
X2818457Y2622783D1*
X2819408Y2623756D1*
X2820381Y2625657D1*
X2799835Y2637131D2*
Y2638082D1*
X2798884Y2640005D1*
X2797934Y2640956D1*
X2796010Y2641906D1*
X2792186D1*
X2790284Y2640956D1*
X2789334Y2640005D1*
X2788361Y2638082D1*
Y2636180D1*
X2789334Y2634257D1*
X2791235Y2631405D1*
X2800808Y2621832D1*
X2787410D1*
X2855409Y2374948D2*
X2853507Y2375898D1*
X2851584Y2377822D1*
X2850633Y2379723D1*
Y2383548D1*
X2851584Y2385471D1*
X2853507Y2387372D1*
X2855409Y2388345D1*
X2858283Y2389296D1*
X2863080D1*
X2865932Y2388345D1*
X2867855Y2387372D1*
X2869757Y2385471D1*
X2870729Y2383548D1*
Y2379723D1*
X2869757Y2377822D1*
X2867855Y2375898D1*
X2865932Y2374948D1*
X2850656Y2366849D2*
Y2356347D1*
X2858305Y2362073D1*
Y2359199D1*
X2859255Y2357298D1*
X2860206Y2356347D1*
X2863080Y2355375D1*
X2864981D1*
X2867855Y2356347D1*
X2869779Y2358249D1*
X2870729Y2361123D1*
Y2363997D1*
X2869779Y2366849D1*
X2868806Y2367799D1*
X2866905Y2368772D1*
X2850655Y2347276D2*
Y2336774D1*
X2858305Y2342500D1*
Y2339626D1*
X2859255Y2337725D1*
X2860206Y2336774D1*
X2863080Y2335802D1*
X2864981D1*
X2867855Y2336774D1*
X2869779Y2338676D1*
X2870729Y2341550D1*
Y2344424D1*
X2869779Y2347276D1*
X2868806Y2348226D1*
X2866905Y2349199D1*
X2992907Y1737235D2*
X2991006Y1738186D1*
X2989083Y1740109D1*
X2988132Y1742011D1*
Y1745835D1*
X2989083Y1747759D1*
X2991006Y1749660D1*
X2992907Y1750633D1*
X2995781Y1751583D1*
X3000579D1*
X3003431Y1750633D1*
X3005354Y1749660D1*
X3007255Y1747759D1*
X3008228Y1745835D1*
Y1742011D1*
X3007255Y1740109D1*
X3005354Y1738186D1*
X3003431Y1737235D1*
X2988154Y1729136D2*
Y1718635D1*
X2995804Y1724361D1*
Y1721487D1*
X2996754Y1719586D1*
X2997705Y1718635D1*
X3000579Y1717662D1*
X3002480D1*
X3005354Y1718635D1*
X3007277Y1720536D1*
X3008228Y1723410D1*
Y1726284D1*
X3007277Y1729136D1*
X3006305Y1730087D1*
X3004403Y1731060D1*
X3008228Y1701914D2*
X2988154D1*
X3001529Y1711487D1*
Y1697139D1*
X2239057Y2012152D2*
X2240007Y2014053D1*
X2241931Y2015976D1*
X2243832Y2016927D1*
X2247656D1*
X2249580Y2015976D1*
X2251481Y2014053D1*
X2252454Y2012152D1*
X2253404Y2009278D1*
Y2004480D1*
X2252454Y2001628D1*
X2251481Y1999705D1*
X2249580Y1997804D1*
X2247656Y1996831D1*
X2243832D1*
X2241931Y1997804D1*
X2240007Y1999705D1*
X2239057Y2001628D1*
X2230957Y2016905D2*
X2220456D1*
X2226182Y2009256D1*
X2223308D1*
X2221407Y2008305D1*
X2220456Y2007354D1*
X2219483Y2004480D1*
Y2002579D1*
X2220456Y1999705D1*
X2222358Y1997782D1*
X2225232Y1996831D1*
X2228106D1*
X2230957Y1997782D1*
X2231908Y1998754D1*
X2232881Y2000656D1*
X2201834Y2016905D2*
X2211384D1*
X2212335Y2008305D1*
X2211384Y2009256D1*
X2208510Y2010228D1*
X2205658D1*
X2202784Y2009256D1*
X2200861Y2007354D1*
X2199910Y2004480D1*
Y2002579D1*
X2200861Y1999705D1*
X2202784Y1997782D1*
X2205658Y1996831D1*
X2208510D1*
X2211384Y1997782D1*
X2212335Y1998754D1*
X2213308Y2000656D1*
X2236766Y2356994D2*
X2237716Y2358896D1*
X2239640Y2360819D1*
X2241541Y2361770D1*
X2245366D1*
X2247289Y2360819D1*
X2249190Y2358896D1*
X2250163Y2356994D1*
X2251114Y2354120D1*
Y2349323D1*
X2250163Y2346471D1*
X2249190Y2344548D1*
X2247289Y2342646D1*
X2245366Y2341674D1*
X2241541D1*
X2239640Y2342646D1*
X2237716Y2344548D1*
X2236766Y2346471D1*
X2228667Y2361747D2*
X2218165D1*
X2223891Y2354098D1*
X2221017D1*
X2219116Y2353147D1*
X2218165Y2352197D1*
X2217193Y2349323D1*
Y2347422D1*
X2218165Y2344548D1*
X2220067Y2342624D1*
X2222941Y2341674D1*
X2225815D1*
X2228667Y2342624D1*
X2229617Y2343597D1*
X2230590Y2345498D1*
X2199543Y2358896D2*
X2200494Y2360797D1*
X2203368Y2361747D1*
X2205269D1*
X2208143Y2360797D1*
X2210066Y2357923D1*
X2211017Y2353147D1*
Y2348372D1*
X2210066Y2344548D1*
X2208143Y2342624D1*
X2205269Y2341674D1*
X2204318D1*
X2201466Y2342624D1*
X2199543Y2344548D1*
X2198592Y2347422D1*
Y2348372D1*
X2199543Y2351246D1*
X2201466Y2353147D1*
X2204318Y2354098D1*
X2205269D1*
X2208143Y2353147D1*
X2210066Y2351246D1*
X2211017Y2348372D1*
X2567907Y1880509D2*
X2566006Y1881460D1*
X2564083Y1883383D1*
X2563132Y1885285D1*
Y1889109D1*
X2564083Y1891033D1*
X2566006Y1892934D1*
X2567907Y1893907D1*
X2570781Y1894857D1*
X2575579D1*
X2578431Y1893907D1*
X2580354Y1892934D1*
X2582255Y1891033D1*
X2583228Y1889109D1*
Y1885285D1*
X2582255Y1883383D1*
X2580354Y1881460D1*
X2578431Y1880509D1*
X2563154Y1872410D2*
Y1861909D1*
X2570804Y1867635D1*
Y1864761D1*
X2571754Y1862860D1*
X2572705Y1861909D1*
X2575579Y1860936D1*
X2577480D1*
X2580354Y1861909D1*
X2582277Y1863810D1*
X2583228Y1866684D1*
Y1869558D1*
X2582277Y1872410D1*
X2581305Y1873361D1*
X2579403Y1874334D1*
X2583228Y1850936D2*
X2563154Y1841363D1*
Y1854761D1*
X780498Y994494D2*
X781449Y996396D1*
X783372Y998319D1*
X785274Y999270D1*
X789098D1*
X791022Y998319D1*
X792923Y996396D1*
X793896Y994494D1*
X794846Y991620D1*
Y986823D1*
X793896Y983971D1*
X792923Y982048D1*
X791022Y980146D1*
X789098Y979174D1*
X785274D1*
X783372Y980146D1*
X781449Y982048D1*
X780498Y983971D1*
X772399Y999247D2*
X761898D1*
X767624Y991598D1*
X764750D1*
X762849Y990647D1*
X761898Y989697D1*
X760925Y986823D1*
Y984922D1*
X761898Y982048D1*
X763799Y980124D1*
X766673Y979174D1*
X769547D1*
X772399Y980124D1*
X773350Y981097D1*
X774323Y982998D1*
X749974Y999247D2*
X752826Y998297D1*
X753799Y996396D1*
Y994472D1*
X752826Y992571D1*
X750925Y991598D1*
X747100Y990647D1*
X744226Y989697D1*
X742325Y987773D1*
X741374Y985872D1*
Y982998D1*
X742325Y981097D1*
X743276Y980124D1*
X746150Y979174D1*
X749974D1*
X752826Y980124D1*
X753799Y981097D1*
X754749Y982998D1*
Y985872D1*
X753799Y987773D1*
X751875Y989697D1*
X749024Y990647D1*
X745199Y991598D1*
X743276Y992571D1*
X742325Y994472D1*
Y996396D1*
X743276Y998297D1*
X746150Y999247D1*
X749974D1*
X1031215Y844494D2*
X1032166Y846396D1*
X1034089Y848319D1*
X1035990Y849270D1*
X1039815D1*
X1041738Y848319D1*
X1043640Y846396D1*
X1044612Y844494D1*
X1045563Y841620D1*
Y836823D1*
X1044612Y833971D1*
X1043640Y832048D1*
X1041738Y830146D1*
X1039815Y829174D1*
X1035990D1*
X1034089Y830146D1*
X1032166Y832048D1*
X1031215Y833971D1*
X1023116Y849247D2*
X1012615D1*
X1018341Y841598D1*
X1015467D1*
X1013565Y840647D1*
X1012615Y839697D1*
X1011642Y836823D1*
Y834922D1*
X1012615Y832048D1*
X1014516Y830124D1*
X1017390Y829174D1*
X1020264D1*
X1023116Y830124D1*
X1024067Y831097D1*
X1025039Y832998D1*
X993020Y842571D2*
X993992Y839697D1*
X995894Y837773D1*
X998768Y836823D1*
X999718D1*
X1002592Y837773D1*
X1004494Y839697D1*
X1005466Y842571D1*
Y843522D1*
X1004494Y846396D1*
X1002592Y848297D1*
X999718Y849247D1*
X998768D1*
X995894Y848297D1*
X993992Y846396D1*
X993020Y842571D1*
Y837773D1*
X993992Y832998D1*
X995894Y830124D1*
X998768Y829174D1*
X1000669D1*
X1003543Y830124D1*
X1004494Y832048D1*
X2655407Y2094666D2*
X2653506Y2095616D1*
X2651583Y2097540D1*
X2650632Y2099441D1*
Y2103266D1*
X2651583Y2105189D1*
X2653506Y2107090D1*
X2655407Y2108063D1*
X2658281Y2109014D1*
X2663079D1*
X2665931Y2108063D1*
X2667854Y2107090D1*
X2669755Y2105189D1*
X2670728Y2103266D1*
Y2099441D1*
X2669755Y2097540D1*
X2667854Y2095616D1*
X2665931Y2094666D1*
X2670728Y2078917D2*
X2650654D1*
X2664029Y2088490D1*
Y2074142D1*
X2650654Y2062218D2*
X2651605Y2065092D1*
X2654479Y2067016D1*
X2659254Y2067966D1*
X2662128D1*
X2666903Y2067016D1*
X2669777Y2065092D1*
X2670728Y2062218D1*
Y2060317D1*
X2669777Y2057443D1*
X2666903Y2055542D1*
X2662128Y2054569D1*
X2659254D1*
X2654479Y2055542D1*
X2651605Y2057443D1*
X2650654Y2060317D1*
Y2062218D1*
X2654479Y2055542D2*
X2666903Y2067016D1*
X1977866Y1713245D2*
X1978816Y1715146D1*
X1980740Y1717070D1*
X1982641Y1718020D1*
X1986466D1*
X1988389Y1717070D1*
X1990290Y1715146D1*
X1991263Y1713245D1*
X1992214Y1710371D1*
Y1705574D1*
X1991263Y1702722D1*
X1990290Y1700798D1*
X1988389Y1698897D1*
X1986466Y1697924D1*
X1982641D1*
X1980740Y1698897D1*
X1978816Y1700798D1*
X1977866Y1702722D1*
X1962117Y1697924D2*
Y1717998D1*
X1971690Y1704623D1*
X1957342D1*
X1951166Y1714173D2*
X1949243Y1715146D1*
X1946369Y1717998D1*
Y1697924D1*
X3424158Y2080985D2*
X3422257Y2081935D1*
X3420333Y2083859D1*
X3419383Y2085760D1*
Y2089585D1*
X3420333Y2091508D1*
X3422257Y2093409D1*
X3424158Y2094382D1*
X3427032Y2095333D1*
X3431829D1*
X3434681Y2094382D1*
X3436605Y2093409D1*
X3438506Y2091508D1*
X3439479Y2089585D1*
Y2085760D1*
X3438506Y2083859D1*
X3436605Y2081935D1*
X3434681Y2080985D1*
X3439479Y2065236D2*
X3419405D1*
X3432780Y2074809D1*
Y2060461D1*
X3424180Y2053313D2*
X3423229D1*
X3421306Y2052362D1*
X3420355Y2051411D1*
X3419405Y2049488D1*
Y2045663D1*
X3420355Y2043762D1*
X3421306Y2042811D1*
X3423229Y2041839D1*
X3425131D1*
X3427054Y2042811D1*
X3429906Y2044713D1*
X3439479Y2054285D1*
Y2040888D1*
X1975120Y816605D2*
X1976071Y818506D1*
X1977994Y820430D1*
X1979895Y821380D1*
X1983720D1*
X1985643Y820430D1*
X1987545Y818506D1*
X1988517Y816605D1*
X1989468Y813731D1*
Y808934D1*
X1988517Y806082D1*
X1987545Y804158D1*
X1985643Y802257D1*
X1983720Y801284D1*
X1979895D1*
X1977994Y802257D1*
X1976071Y804158D1*
X1975120Y806082D1*
X1955547Y821380D2*
Y801284D1*
X1968944Y821380D1*
Y801284D1*
X1949371Y817534D2*
X1947448Y818506D1*
X1944574Y821358D1*
Y801284D1*
X2450768Y642083D2*
X2451719Y643985D1*
X2453642Y645908D1*
X2455543Y646859D1*
X2459368D1*
X2461291Y645908D1*
X2463193Y643985D1*
X2464165Y642083D1*
X2465116Y639209D1*
Y634412D1*
X2464165Y631560D1*
X2463193Y629637D1*
X2461291Y627736D1*
X2459368Y626763D1*
X2455543D1*
X2453642Y627736D1*
X2451719Y629637D1*
X2450768Y631560D1*
X2431195Y646859D2*
Y626763D1*
X2444592Y646859D1*
Y626763D1*
X2415447D2*
Y646837D1*
X2425019Y633461D1*
X2410671D1*
X2920280Y818215D2*
X2921230Y820117D1*
X2923154Y822040D1*
X2925055Y822991D1*
X2928880D1*
X2930803Y822040D1*
X2932704Y820117D1*
X2933677Y818215D1*
X2934628Y815341D1*
Y810544D1*
X2933677Y807692D1*
X2932704Y805769D1*
X2930803Y803867D1*
X2928880Y802895D1*
X2925055D1*
X2923154Y803867D1*
X2921230Y805769D1*
X2920280Y807692D1*
X2900707Y822991D2*
Y802895D1*
X2914104Y822991D1*
Y802895D1*
X2883057Y822969D2*
X2892608D1*
X2893558Y814369D1*
X2892608Y815319D1*
X2889733Y816292D1*
X2886882D1*
X2884008Y815319D1*
X2882084Y813418D1*
X2881134Y810544D1*
Y808643D1*
X2882084Y805769D1*
X2884008Y803845D1*
X2886882Y802895D1*
X2889733D1*
X2892608Y803845D1*
X2893558Y804818D1*
X2894531Y806719D1*
X2681057Y2505714D2*
X2682008Y2507615D1*
X2683931Y2509539D1*
X2685832Y2510489D1*
X2689657D1*
X2691580Y2509539D1*
X2693482Y2507615D1*
X2694454Y2505714D1*
X2695405Y2502840D1*
Y2498043D1*
X2694454Y2495191D1*
X2693482Y2493267D1*
X2691580Y2491366D1*
X2689657Y2490393D1*
X2685832D1*
X2683931Y2491366D1*
X2682008Y2493267D1*
X2681057Y2495191D1*
X2661484Y2510489D2*
Y2490393D1*
X2674881Y2510489D1*
Y2490393D1*
X2643834Y2507615D2*
X2644785Y2509517D1*
X2647659Y2510467D1*
X2649560D1*
X2652434Y2509517D1*
X2654358Y2506643D1*
X2655308Y2501867D1*
Y2497092D1*
X2654358Y2493267D1*
X2652434Y2491344D1*
X2649560Y2490393D1*
X2648610D1*
X2645758Y2491344D1*
X2643834Y2493267D1*
X2642884Y2496141D1*
Y2497092D1*
X2643834Y2499966D1*
X2645758Y2501867D1*
X2648610Y2502818D1*
X2649560D1*
X2652434Y2501867D1*
X2654358Y2499966D1*
X2655308Y2497092D1*
X824389Y2017970D2*
Y1997874D1*
X817690D1*
X814816Y1998847D1*
X812893Y2000748D1*
X811942Y2002672D1*
X810991Y2005524D1*
Y2010321D1*
X811942Y2013195D1*
X812893Y2015096D1*
X814816Y2017020D1*
X817690Y2017970D1*
X824389D1*
X804816Y2014124D2*
X802892Y2015096D1*
X800018Y2017948D1*
Y1997874D1*
X1490109Y1337852D2*
Y1317756D1*
X1469586Y1333077D2*
X1470536Y1334978D1*
X1472460Y1336902D1*
X1474361Y1337852D1*
X1478186D1*
X1480109Y1336902D1*
X1482010Y1334978D1*
X1482983Y1333077D1*
X1483934Y1330203D1*
Y1325406D1*
X1482983Y1322554D1*
X1482010Y1320630D1*
X1480109Y1318729D1*
X1478186Y1317756D1*
X1474361D1*
X1472460Y1318729D1*
X1470536Y1320630D1*
X1469586Y1322554D1*
X1463410Y1334005D2*
X1461487Y1334978D1*
X1458613Y1337830D1*
Y1317756D1*
X2313749Y1323040D2*
Y1302944D1*
X2293225Y1318265D2*
X2294176Y1320166D1*
X2296099Y1322089D1*
X2298001Y1323040D1*
X2301825D1*
X2303749Y1322089D1*
X2305650Y1320166D1*
X2306623Y1318265D1*
X2307573Y1315391D1*
Y1310593D1*
X2306623Y1307741D1*
X2305650Y1305818D1*
X2303749Y1303917D1*
X2301825Y1302944D1*
X2298001D1*
X2296099Y1303917D1*
X2294176Y1305818D1*
X2293225Y1307741D1*
X2286077Y1318242D2*
Y1319193D1*
X2285126Y1321117D1*
X2284176Y1322067D1*
X2282252Y1323018D1*
X2278428D1*
X2276526Y1322067D1*
X2275576Y1321117D1*
X2274603Y1319193D1*
Y1317292D1*
X2275576Y1315368D1*
X2277477Y1312517D1*
X2287050Y1302944D1*
X2273652D1*
X1607500Y2237359D2*
Y2217263D1*
X1586976Y2232583D2*
X1587927Y2234485D1*
X1589850Y2236408D1*
X1591751Y2237359D1*
X1595576D1*
X1597499Y2236408D1*
X1599401Y2234485D1*
X1600373Y2232583D1*
X1601324Y2229709D1*
Y2224912D1*
X1600373Y2222060D1*
X1599401Y2220137D1*
X1597499Y2218236D1*
X1595576Y2217263D1*
X1591751D1*
X1589850Y2218236D1*
X1587927Y2220137D1*
X1586976Y2222060D1*
X1578877Y2237337D2*
X1568376D1*
X1574102Y2229687D1*
X1571228D1*
X1569326Y2228737D1*
X1568376Y2227786D1*
X1567403Y2224912D1*
Y2223011D1*
X1568376Y2220137D1*
X1570277Y2218213D1*
X1573151Y2217263D1*
X1576025D1*
X1578877Y2218213D1*
X1579828Y2219186D1*
X1580800Y2221087D1*
X1179756Y2306800D2*
Y2286704D1*
X1159232Y2302024D2*
X1160183Y2303926D1*
X1162106Y2305849D1*
X1164008Y2306800D1*
X1167832D1*
X1169756Y2305849D1*
X1171657Y2303926D1*
X1172630Y2302024D1*
X1173580Y2299150D1*
Y2294353D1*
X1172630Y2291501D1*
X1171657Y2289578D1*
X1169756Y2287676D1*
X1167832Y2286704D1*
X1164008D1*
X1162106Y2287676D1*
X1160183Y2289578D1*
X1159232Y2291501D1*
X1143484Y2286704D2*
Y2306778D1*
X1153057Y2293402D1*
X1138709D1*
X1909173Y1841938D2*
Y1821842D1*
X1888649Y1837163D2*
X1889600Y1839064D1*
X1891523Y1840988D1*
X1893425Y1841938D1*
X1897249D1*
X1899173Y1840988D1*
X1901074Y1839064D1*
X1902047Y1837163D1*
X1902997Y1834289D1*
Y1829491D1*
X1902047Y1826640D1*
X1901074Y1824716D1*
X1899173Y1822815D1*
X1897249Y1821842D1*
X1893425D1*
X1891523Y1822815D1*
X1889600Y1824716D1*
X1888649Y1826640D1*
X1871000Y1841916D2*
X1880550D1*
X1881501Y1833316D1*
X1880550Y1834267D1*
X1877676Y1835240D1*
X1874824D1*
X1871950Y1834267D1*
X1870027Y1832365D1*
X1869076Y1829491D1*
Y1827590D1*
X1870027Y1824716D1*
X1871950Y1822793D1*
X1874824Y1821842D1*
X1877676D1*
X1880550Y1822793D1*
X1881501Y1823766D1*
X1882474Y1825667D1*
X3398055Y1179781D2*
Y1159685D1*
X3377532Y1175006D2*
X3378482Y1176907D1*
X3380406Y1178831D1*
X3382307Y1179781D1*
X3386132D1*
X3388055Y1178831D1*
X3389956Y1176907D1*
X3390929Y1175006D1*
X3391880Y1172132D1*
Y1167335D1*
X3390929Y1164483D1*
X3389956Y1162559D1*
X3388055Y1160658D1*
X3386132Y1159685D1*
X3382307D1*
X3380406Y1160658D1*
X3378482Y1162559D1*
X3377532Y1164483D1*
X3359882Y1176907D2*
X3360833Y1178809D1*
X3363707Y1179759D1*
X3365608D1*
X3368482Y1178809D1*
X3370405Y1175935D1*
X3371356Y1171159D1*
Y1166384D1*
X3370405Y1162559D1*
X3368482Y1160636D1*
X3365608Y1159685D1*
X3364657D1*
X3361805Y1160636D1*
X3359882Y1162559D1*
X3358931Y1165433D1*
Y1166384D1*
X3359882Y1169258D1*
X3361805Y1171159D1*
X3364657Y1172110D1*
X3365608D1*
X3368482Y1171159D1*
X3370405Y1169258D1*
X3371356Y1166384D1*
X3649576Y1869644D2*
Y1849548D1*
X3629052Y1864869D2*
X3630003Y1866770D1*
X3631926Y1868694D1*
X3633828Y1869644D1*
X3637652D1*
X3639576Y1868694D1*
X3641477Y1866770D1*
X3642450Y1864869D1*
X3643400Y1861995D1*
Y1857198D1*
X3642450Y1854346D1*
X3641477Y1852422D1*
X3639576Y1850521D1*
X3637652Y1849548D1*
X3633828D1*
X3631926Y1850521D1*
X3630003Y1852422D1*
X3629052Y1854346D1*
X3619052Y1849548D2*
X3609479Y1869622D1*
X3622877D1*
X2862065Y1857143D2*
Y1837047D1*
X2841541Y1852368D2*
X2842492Y1854269D1*
X2844415Y1856192D1*
X2846316Y1857143D1*
X2850141D1*
X2852065Y1856192D1*
X2853966Y1854269D1*
X2854939Y1852368D1*
X2855889Y1849494D1*
Y1844696D1*
X2854939Y1841844D1*
X2853966Y1839921D1*
X2852065Y1838020D1*
X2850141Y1837047D1*
X2846316D1*
X2844415Y1838020D1*
X2842492Y1839921D1*
X2841541Y1841844D1*
X2830590Y1857121D2*
X2833442Y1856170D1*
X2834415Y1854269D1*
Y1852346D1*
X2833442Y1850444D1*
X2831541Y1849471D1*
X2827716Y1848521D1*
X2824842Y1847570D1*
X2822941Y1845647D1*
X2821990Y1843746D1*
Y1840872D1*
X2822941Y1838970D1*
X2823892Y1837998D1*
X2826766Y1837047D1*
X2830590D1*
X2833442Y1837998D1*
X2834415Y1838970D1*
X2835365Y1840872D1*
Y1843746D1*
X2834415Y1845647D1*
X2832491Y1847570D1*
X2829640Y1848521D1*
X2825815Y1849471D1*
X2823892Y1850444D1*
X2822941Y1852346D1*
Y1854269D1*
X2823892Y1856170D1*
X2826766Y1857121D1*
X2830590D1*
X3130897Y2089623D2*
Y2069527D1*
X3110374Y2084847D2*
X3111324Y2086749D1*
X3113248Y2088672D1*
X3115149Y2089623D1*
X3118973D1*
X3120897Y2088672D1*
X3122798Y2086749D1*
X3123771Y2084847D1*
X3124721Y2081973D1*
Y2077176D1*
X3123771Y2074324D1*
X3122798Y2072401D1*
X3120897Y2070499D1*
X3118973Y2069527D1*
X3115149D1*
X3113248Y2070499D1*
X3111324Y2072401D1*
X3110374Y2074324D1*
X3091751Y2082924D2*
X3092724Y2080050D1*
X3094625Y2078127D1*
X3097499Y2077176D1*
X3098450D1*
X3101324Y2078127D1*
X3103225Y2080050D1*
X3104198Y2082924D1*
Y2083875D1*
X3103225Y2086749D1*
X3101324Y2088650D1*
X3098450Y2089600D1*
X3097499D1*
X3094625Y2088650D1*
X3092724Y2086749D1*
X3091751Y2082924D1*
Y2078127D1*
X3092724Y2073351D1*
X3094625Y2070477D1*
X3097499Y2069527D1*
X3099400D1*
X3102274Y2070477D1*
X3103225Y2072401D1*
X1081736Y1006109D2*
Y986013D1*
X1061212Y1001334D2*
X1062163Y1003235D1*
X1064086Y1005159D1*
X1065987Y1006109D1*
X1069812D1*
X1071735Y1005159D1*
X1073637Y1003235D1*
X1074609Y1001334D1*
X1075560Y998460D1*
Y993663D1*
X1074609Y990811D1*
X1073637Y988887D1*
X1071735Y986986D1*
X1069812Y986013D1*
X1065987D1*
X1064086Y986986D1*
X1062163Y988887D1*
X1061212Y990811D1*
X1055036Y1002263D2*
X1053113Y1003235D1*
X1050239Y1006087D1*
Y986013D1*
X1038315Y1006087D2*
X1041189Y1005137D1*
X1043113Y1002263D1*
X1044063Y997487D1*
Y994613D1*
X1043113Y989838D1*
X1041189Y986964D1*
X1038315Y986013D1*
X1036414D1*
X1033540Y986964D1*
X1031639Y989838D1*
X1030666Y994613D1*
Y997487D1*
X1031639Y1002263D1*
X1033540Y1005137D1*
X1036414Y1006087D1*
X1038315D1*
X1031639Y1002263D2*
X1043113Y989838D1*
X2592161Y783688D2*
X2607460D1*
X2610334Y784638D1*
X2611284Y785611D1*
X2612257Y787512D1*
Y789436D1*
X2611284Y791337D1*
X2610334Y792287D1*
X2607460Y793260D1*
X2605558D1*
X2602684Y777512D2*
Y768890D1*
X2601734Y766038D1*
X2600761Y765065D1*
X2598860Y764115D1*
X2595986D1*
X2594084Y765065D1*
X2593112Y766038D1*
X2592161Y768890D1*
Y777512D1*
X2612257D1*
X2596008Y757939D2*
X2595035Y756016D1*
X2592183Y753142D1*
X2612257D1*
X1838132Y924265D2*
X1858228D1*
Y912791D1*
X1841979Y906615D2*
X1841006Y904692D1*
X1838154Y901818D1*
X1858228D1*
X3269383Y2588604D2*
X3289479D1*
Y2577130D1*
X3274180Y2569981D2*
X3273229D1*
X3271306Y2569031D1*
X3270355Y2568080D1*
X3269405Y2566157D1*
Y2562332D1*
X3270355Y2560431D1*
X3271306Y2559480D1*
X3273229Y2558507D1*
X3275131D1*
X3277054Y2559480D1*
X3279906Y2561381D1*
X3289479Y2570954D1*
Y2557557D1*
X2863133Y2351104D2*
X2883229D1*
Y2339630D1*
X2863155Y2331531D2*
Y2321029D1*
X2870805Y2326755D1*
Y2323881D1*
X2871755Y2321980D1*
X2872706Y2321029D1*
X2875580Y2320057D1*
X2877481D1*
X2880355Y2321029D1*
X2882279Y2322931D1*
X2883229Y2325805D1*
Y2328679D1*
X2882279Y2331531D1*
X2881306Y2332481D1*
X2879405Y2333454D1*
X1979039Y2399270D2*
Y2379174D1*
X1967566D1*
X1951817D2*
Y2399247D1*
X1961390Y2385872D1*
X1947042D1*
X1817345Y2630519D2*
Y2610423D1*
X1805871D1*
X1788221Y2630497D2*
X1797772D1*
X1798723Y2621897D1*
X1797772Y2622847D1*
X1794898Y2623820D1*
X1792046D1*
X1789172Y2622847D1*
X1787249Y2620946D1*
X1786298Y2618072D1*
Y2616171D1*
X1787249Y2613297D1*
X1789172Y2611374D1*
X1792046Y2610423D1*
X1794898D1*
X1797772Y2611374D1*
X1798723Y2612346D1*
X1799695Y2614248D1*
X1895647Y2530519D2*
Y2510423D1*
X1884173D1*
X1866524Y2527645D2*
X1867474Y2529546D1*
X1870348Y2530497D1*
X1872250D1*
X1875124Y2529546D1*
X1877047Y2526672D1*
X1877998Y2521897D1*
Y2517122D1*
X1877047Y2513297D1*
X1875124Y2511374D1*
X1872250Y2510423D1*
X1871299D1*
X1868447Y2511374D1*
X1866524Y2513297D1*
X1865573Y2516171D1*
Y2517122D1*
X1866524Y2519996D1*
X1868447Y2521897D1*
X1871299Y2522847D1*
X1872250D1*
X1875124Y2521897D1*
X1877047Y2519996D1*
X1877998Y2517122D1*
X1032944Y1383383D2*
X1024322D1*
X1021470Y1384333D1*
X1020497Y1385306D1*
X1019547Y1387207D1*
Y1390081D1*
X1020497Y1391983D1*
X1021470Y1392955D1*
X1024322Y1393906D1*
X1032944D1*
Y1373810D1*
X1013371Y1384333D2*
X1004771D1*
X1001897Y1385306D1*
X1000924Y1386257D1*
X999974Y1388158D1*
Y1390081D1*
X1000924Y1391983D1*
X1001897Y1392955D1*
X1004771Y1393906D1*
X1013371D1*
Y1373810D1*
X1006672Y1384333D2*
X999974Y1373810D1*
X993798Y1390059D2*
X991875Y1391032D1*
X989001Y1393884D1*
Y1373810D1*
X1924045Y1352197D2*
X1915446D1*
X1912571Y1353170D1*
X1911599Y1354120D1*
X1910648Y1356022D1*
Y1357945D1*
X1911599Y1359846D1*
X1912571Y1360819D1*
X1915446Y1361770D1*
X1924045D1*
Y1341674D1*
X1917347Y1352197D2*
X1910648Y1341674D1*
X1904472Y1357923D2*
X1902549Y1358896D1*
X1899675Y1361747D1*
Y1341674D1*
X1928345Y1414697D2*
X1919745D1*
X1916871Y1415670D1*
X1915899Y1416620D1*
X1914948Y1418522D1*
Y1420445D1*
X1915899Y1422346D1*
X1916871Y1423319D1*
X1919745Y1424270D1*
X1928345D1*
Y1404174D1*
X1921647Y1414697D2*
X1914948Y1404174D1*
X1907800Y1419472D2*
Y1420423D1*
X1906849Y1422346D1*
X1905898Y1423297D1*
X1903975Y1424247D1*
X1900150D1*
X1898249Y1423297D1*
X1897298Y1422346D1*
X1896326Y1420423D1*
Y1418522D1*
X1897298Y1416598D1*
X1899200Y1413746D1*
X1908772Y1404174D1*
X1895375D1*
X1928345Y1477197D2*
X1919745D1*
X1916871Y1478170D1*
X1915899Y1479120D1*
X1914948Y1481022D1*
Y1482945D1*
X1915899Y1484846D1*
X1916871Y1485819D1*
X1919745Y1486770D1*
X1928345D1*
Y1466674D1*
X1921647Y1477197D2*
X1914948Y1466674D1*
X1906849Y1486747D2*
X1896348D1*
X1902074Y1479098D1*
X1899200D1*
X1897298Y1478147D1*
X1896348Y1477197D1*
X1895375Y1474323D1*
Y1472422D1*
X1896348Y1469548D1*
X1898249Y1467624D1*
X1901123Y1466674D1*
X1903997D1*
X1906849Y1467624D1*
X1907800Y1468597D1*
X1908772Y1470498D1*
X1930002Y1539697D2*
X1921402D1*
X1918528Y1540670D1*
X1917555Y1541620D1*
X1916605Y1543522D1*
Y1545445D1*
X1917555Y1547346D1*
X1918528Y1548319D1*
X1921402Y1549270D1*
X1930002D1*
Y1529174D1*
X1923303Y1539697D2*
X1916605Y1529174D1*
X1900856D2*
Y1549247D1*
X1910429Y1535872D1*
X1896081D1*
X1928345Y1089697D2*
X1919745D1*
X1916871Y1090670D1*
X1915899Y1091620D1*
X1914948Y1093522D1*
Y1095445D1*
X1915899Y1097346D1*
X1916871Y1098319D1*
X1919745Y1099270D1*
X1928345D1*
Y1079174D1*
X1921647Y1089697D2*
X1914948Y1079174D1*
X1897298Y1099247D2*
X1906849D1*
X1907800Y1090647D1*
X1906849Y1091598D1*
X1903975Y1092571D1*
X1901123D1*
X1898249Y1091598D1*
X1896326Y1089697D1*
X1895375Y1086823D1*
Y1084922D1*
X1896326Y1082048D1*
X1898249Y1080124D1*
X1901123Y1079174D1*
X1903975D1*
X1906849Y1080124D1*
X1907800Y1081097D1*
X1908772Y1082998D1*
X1927859Y1152197D2*
X1919259D1*
X1916385Y1153170D1*
X1915412Y1154120D1*
X1914462Y1156022D1*
Y1157945D1*
X1915412Y1159846D1*
X1916385Y1160819D1*
X1919259Y1161770D1*
X1927859D1*
Y1141674D1*
X1921160Y1152197D2*
X1914462Y1141674D1*
X1896812Y1158896D2*
X1897763Y1160797D1*
X1900637Y1161747D1*
X1902538D1*
X1905412Y1160797D1*
X1907335Y1157923D1*
X1908286Y1153147D1*
Y1148372D1*
X1907335Y1144548D1*
X1905412Y1142624D1*
X1902538Y1141674D1*
X1901587D1*
X1898735Y1142624D1*
X1896812Y1144548D1*
X1895861Y1147422D1*
Y1148372D1*
X1896812Y1151246D1*
X1898735Y1153147D1*
X1901587Y1154098D1*
X1902538D1*
X1905412Y1153147D1*
X1907335Y1151246D1*
X1908286Y1148372D1*
X1928345Y1214697D2*
X1919745D1*
X1916871Y1215670D1*
X1915899Y1216620D1*
X1914948Y1218522D1*
Y1220445D1*
X1915899Y1222346D1*
X1916871Y1223319D1*
X1919745Y1224270D1*
X1928345D1*
Y1204174D1*
X1921647Y1214697D2*
X1914948Y1204174D1*
X1904948D2*
X1895375Y1224247D1*
X1908772D1*
X1928334Y1283447D2*
X1919734D1*
X1916860Y1284420D1*
X1915888Y1285370D1*
X1914937Y1287272D1*
Y1289195D1*
X1915888Y1291096D1*
X1916860Y1292069D1*
X1919734Y1293020D1*
X1928334D1*
Y1272924D1*
X1921636Y1283447D2*
X1914937Y1272924D1*
X1903986Y1292997D2*
X1906838Y1292047D1*
X1907811Y1290146D1*
Y1288222D1*
X1906838Y1286321D1*
X1904937Y1285348D1*
X1901112Y1284397D1*
X1898238Y1283447D1*
X1896337Y1281523D1*
X1895386Y1279622D1*
Y1276748D1*
X1896337Y1274847D1*
X1897287Y1273874D1*
X1900161Y1272924D1*
X1903986D1*
X1906838Y1273874D1*
X1907811Y1274847D1*
X1908761Y1276748D1*
Y1279622D1*
X1907811Y1281523D1*
X1905887Y1283447D1*
X1903035Y1284397D1*
X1899211Y1285348D1*
X1897287Y1286321D1*
X1896337Y1288222D1*
Y1290146D1*
X1897287Y1292047D1*
X1900161Y1292997D1*
X1903986D1*
X1428954Y2490371D2*
Y2481771D1*
X1427981Y2478897D1*
X1427031Y2477924D1*
X1425129Y2476974D1*
X1423206D1*
X1421305Y2477924D1*
X1420332Y2478897D1*
X1419381Y2481771D1*
Y2490371D1*
X1439477D1*
X1428954Y2483672D2*
X1439477Y2476973D1*
X1426080Y2458351D2*
X1428954Y2459324D1*
X1430877Y2461225D1*
X1431828Y2464099D1*
Y2465050D1*
X1430877Y2467924D1*
X1428954Y2469825D1*
X1426080Y2470798D1*
X1425129D1*
X1422255Y2469825D1*
X1420354Y2467924D1*
X1419404Y2465050D1*
Y2464099D1*
X1420354Y2461225D1*
X1422255Y2459324D1*
X1426080Y2458351D1*
X1430877D1*
X1435653Y2459324D1*
X1438527Y2461225D1*
X1439477Y2464099D1*
Y2466000D1*
X1438527Y2468874D1*
X1436603Y2469825D1*
X1391454Y2346333D2*
Y2337733D1*
X1390481Y2334859D1*
X1389531Y2333886D1*
X1387629Y2332935D1*
X1385706D1*
X1383805Y2333886D1*
X1382832Y2334859D1*
X1381881Y2337733D1*
Y2346333D1*
X1401977D1*
X1391454Y2339634D2*
X1401977Y2332935D1*
X1385728Y2326760D2*
X1384755Y2324836D1*
X1381904Y2321962D1*
X1401977D1*
X1381904Y2310039D2*
X1382854Y2312913D1*
X1385728Y2314836D1*
X1390503Y2315787D1*
X1393378D1*
X1398153Y2314836D1*
X1401027Y2312913D1*
X1401977Y2310039D1*
Y2308137D1*
X1401027Y2305263D1*
X1398153Y2303362D1*
X1393377Y2302389D1*
X1390503D1*
X1385728Y2303362D1*
X1382854Y2305263D1*
X1381904Y2308137D1*
Y2310039D1*
X1385728Y2303362D2*
X1398153Y2314836D1*
X1624463Y2533448D2*
X1615863D1*
X1612989Y2534420D1*
X1612016Y2535371D1*
X1611066Y2537272D1*
Y2539196D1*
X1612016Y2541097D1*
X1612989Y2542070D1*
X1615863Y2543020D1*
X1624463D1*
Y2522924D1*
X1617764Y2533448D2*
X1611066Y2522924D1*
X1604890Y2539173D2*
X1602967Y2540146D1*
X1600093Y2542998D1*
Y2522924D1*
X1593917Y2539173D2*
X1591994Y2540146D1*
X1589120Y2542998D1*
Y2522924D1*
X3741262Y2133446D2*
X3732662D1*
X3729788Y2134419D1*
X3728815Y2135370D1*
X3727864Y2137271D1*
Y2139194D1*
X3728815Y2141096D1*
X3729788Y2142068D1*
X3732662Y2143019D1*
X3741262D1*
Y2122923D1*
X3734563Y2133446D2*
X3727864Y2122923D1*
X3721689Y2139172D2*
X3719765Y2140145D1*
X3716891Y2142997D1*
Y2122923D1*
X3709743Y2138221D2*
Y2139172D1*
X3708792Y2141096D1*
X3707842Y2142046D1*
X3705918Y2142997D1*
X3702094D1*
X3700192Y2142046D1*
X3699242Y2141096D1*
X3698269Y2139172D1*
Y2137271D1*
X3699242Y2135347D1*
X3701143Y2132496D1*
X3710716Y2122923D1*
X3697318D1*
X827582Y2289697D2*
X818982D1*
X816108Y2290670D1*
X815135Y2291620D1*
X814185Y2293522D1*
Y2295445D1*
X815135Y2297346D1*
X816108Y2298319D1*
X818982Y2299270D1*
X827582D1*
Y2279174D1*
X820883Y2289697D2*
X814185Y2279174D1*
X808009Y2295423D2*
X806086Y2296396D1*
X803212Y2299247D1*
Y2279174D1*
X795112Y2299247D2*
X784611D1*
X790337Y2291598D1*
X787463D1*
X785562Y2290647D1*
X784611Y2289697D1*
X783639Y2286823D1*
Y2284922D1*
X784611Y2282048D1*
X786513Y2280124D1*
X789387Y2279174D1*
X792261D1*
X795112Y2280124D1*
X796063Y2281097D1*
X797036Y2282998D1*
X3716454Y1597989D2*
Y1589389D1*
X3715481Y1586515D1*
X3714531Y1585542D1*
X3712629Y1584592D1*
X3710706D1*
X3708805Y1585542D1*
X3707832Y1586515D1*
X3706881Y1589389D1*
Y1597989D1*
X3726977D1*
X3716454Y1591290D2*
X3726977Y1584592D1*
X3710728Y1578416D2*
X3709755Y1576493D1*
X3706904Y1573619D1*
X3726977D1*
Y1557870D2*
X3706904D1*
X3720279Y1567443D1*
Y1553095D1*
X828762Y1958448D2*
X820162D1*
X817288Y1959420D1*
X816315Y1960371D1*
X815364Y1962272D1*
Y1964196D1*
X816315Y1966097D1*
X817288Y1967070D1*
X820162Y1968020D1*
X828762D1*
Y1947924D1*
X822063Y1958448D2*
X815364Y1947924D1*
X809189Y1964173D2*
X807265Y1965146D1*
X804391Y1967998D1*
Y1947924D1*
X786742Y1967998D2*
X796292D1*
X797243Y1959398D1*
X796292Y1960349D1*
X793418Y1961322D1*
X790566D1*
X787692Y1960349D1*
X785769Y1958448D1*
X784818Y1955574D1*
Y1953672D1*
X785769Y1950798D1*
X787692Y1948875D1*
X790566Y1947924D1*
X793418D1*
X796292Y1948875D1*
X797243Y1949848D1*
X798216Y1951749D1*
X1120845Y2645948D2*
X1112245D1*
X1109371Y2646920D1*
X1108398Y2647871D1*
X1107448Y2649772D1*
Y2651696D1*
X1108398Y2653597D1*
X1109371Y2654570D1*
X1112245Y2655520D1*
X1120845D1*
Y2635424D1*
X1114146Y2645948D2*
X1107448Y2635424D1*
X1101272Y2651673D2*
X1099349Y2652646D1*
X1096475Y2655498D1*
Y2635424D1*
X1078825Y2652646D2*
X1079775Y2654547D1*
X1082650Y2655498D1*
X1084551D1*
X1087425Y2654547D1*
X1089348Y2651673D1*
X1090299Y2646898D1*
Y2642123D1*
X1089348Y2638298D1*
X1087425Y2636375D1*
X1084551Y2635424D1*
X1083600D1*
X1080748Y2636375D1*
X1078825Y2638298D1*
X1077874Y2641172D1*
Y2642123D1*
X1078825Y2644997D1*
X1080748Y2646898D1*
X1083600Y2647849D1*
X1084551D1*
X1087425Y2646898D1*
X1089348Y2644997D1*
X1090299Y2642123D1*
X3803954Y1510014D2*
Y1501414D1*
X3802981Y1498540D1*
X3802031Y1497567D1*
X3800129Y1496616D1*
X3798206D1*
X3796305Y1497567D1*
X3795332Y1498540D1*
X3794381Y1501414D1*
Y1510014D1*
X3814477D1*
X3803954Y1503315D2*
X3814477Y1496616D1*
X3798228Y1490441D2*
X3797255Y1488517D1*
X3794404Y1485643D1*
X3814477D1*
Y1475643D2*
X3794403Y1466070D1*
X3794404Y1479468D1*
X3728752Y1395948D2*
X3720152D1*
X3717278Y1396920D1*
X3716305Y1397871D1*
X3715355Y1399772D1*
Y1401696D1*
X3716305Y1403597D1*
X3717278Y1404570D1*
X3720152Y1405520D1*
X3728752D1*
Y1385424D1*
X3722053Y1395948D2*
X3715355Y1385424D1*
X3709179Y1401673D2*
X3707256Y1402646D1*
X3704382Y1405498D1*
Y1385424D1*
X3693431Y1405498D2*
X3696283Y1404547D1*
X3697255Y1402646D1*
Y1400723D1*
X3696283Y1398822D1*
X3694381Y1397849D1*
X3690557Y1396898D1*
X3687683Y1395948D1*
X3685781Y1394024D1*
X3684831Y1392123D1*
Y1389249D1*
X3685781Y1387348D1*
X3686732Y1386375D1*
X3689606Y1385424D1*
X3693431D1*
X3696283Y1386375D1*
X3697255Y1387348D1*
X3698206Y1389249D1*
Y1392123D1*
X3697255Y1394024D1*
X3695332Y1395948D1*
X3692480Y1396898D1*
X3688655Y1397849D1*
X3686732Y1398822D1*
X3685781Y1400723D1*
Y1402646D1*
X3686732Y1404547D1*
X3689606Y1405498D1*
X3693431D1*
X2722705Y1320857D2*
Y1312257D1*
X2721732Y1309383D1*
X2720781Y1308411D1*
X2718880Y1307460D1*
X2716957D1*
X2715055Y1308411D1*
X2714083Y1309383D1*
X2713132Y1312257D1*
Y1320857D1*
X2733228D1*
X2722705Y1314159D2*
X2733228Y1307460D1*
X2716979Y1301284D2*
X2716006Y1299361D1*
X2713154Y1296487D1*
X2733228D1*
X2719831Y1277865D2*
X2722705Y1278837D1*
X2724628Y1280739D1*
X2725579Y1283613D1*
Y1284563D1*
X2724628Y1287437D1*
X2722705Y1289339D1*
X2719831Y1290311D1*
X2718880D1*
X2716006Y1289339D1*
X2714105Y1287437D1*
X2713154Y1284563D1*
Y1283613D1*
X2714105Y1280739D1*
X2716006Y1278837D1*
X2719831Y1277865D1*
X2724628D1*
X2729403Y1278837D1*
X2732277Y1280739D1*
X2733228Y1283613D1*
Y1285514D1*
X2732277Y1288388D1*
X2730354Y1289338D1*
X3653954Y2474353D2*
Y2465753D1*
X3652981Y2462879D1*
X3652031Y2461906D1*
X3650129Y2460956D1*
X3648206D1*
X3646305Y2461906D1*
X3645332Y2462879D1*
X3644381Y2465753D1*
Y2474353D1*
X3664477D1*
X3653954Y2467654D2*
X3664477Y2460956D1*
X3649179Y2453807D2*
X3648228D1*
X3646305Y2452857D1*
X3645354Y2451906D1*
X3644404Y2449983D1*
Y2446158D1*
X3645354Y2444257D1*
X3646305Y2443306D1*
X3648228Y2442333D1*
X3650129D1*
X3652053Y2443306D1*
X3654905Y2445207D1*
X3664477Y2454780D1*
Y2441383D1*
X3644404Y2429459D2*
X3645354Y2432333D1*
X3648228Y2434256D1*
X3653003Y2435207D1*
X3655878D1*
X3660653Y2434256D1*
X3663527Y2432333D1*
X3664477Y2429459D1*
Y2427558D1*
X3663527Y2424684D1*
X3660653Y2422783D1*
X3655877Y2421810D1*
X3653003D1*
X3648228Y2422783D1*
X3645354Y2424684D1*
X3644404Y2427558D1*
Y2429459D1*
X3648228Y2422783D2*
X3660653Y2434256D1*
X3753763Y1702197D2*
X3745163D1*
X3742289Y1703170D1*
X3741316Y1704120D1*
X3740366Y1706022D1*
Y1707945D1*
X3741316Y1709846D1*
X3742289Y1710819D1*
X3745163Y1711770D1*
X3753763D1*
Y1691674D1*
X3747064Y1702197D2*
X3740366Y1691674D1*
X3733217Y1706972D2*
Y1707923D1*
X3732267Y1709846D1*
X3731316Y1710797D1*
X3729393Y1711747D1*
X3725568D1*
X3723667Y1710797D1*
X3722716Y1709846D1*
X3721743Y1707923D1*
Y1706022D1*
X3722716Y1704098D1*
X3724617Y1701246D1*
X3734190Y1691674D1*
X3720793D1*
X3714617Y1707923D2*
X3712694Y1708896D1*
X3709820Y1711747D1*
Y1691674D1*
X2681882Y2339697D2*
X2673282D1*
X2670408Y2340670D1*
X2669435Y2341620D1*
X2668485Y2343522D1*
Y2345445D1*
X2669435Y2347346D1*
X2670408Y2348319D1*
X2673282Y2349270D1*
X2681882D1*
Y2329174D1*
X2675183Y2339697D2*
X2668485Y2329174D1*
X2661336Y2344472D2*
Y2345423D1*
X2660386Y2347346D1*
X2659435Y2348297D1*
X2657512Y2349247D1*
X2653687D1*
X2651786Y2348297D1*
X2650835Y2347346D1*
X2649862Y2345423D1*
Y2343522D1*
X2650835Y2341598D1*
X2652736Y2338746D1*
X2662309Y2329174D1*
X2648912D1*
X2641763Y2344472D2*
Y2345423D1*
X2640812Y2347346D1*
X2639862Y2348297D1*
X2637938Y2349247D1*
X2634114D1*
X2632213Y2348297D1*
X2631262Y2347346D1*
X2630289Y2345423D1*
Y2343522D1*
X2631262Y2341598D1*
X2633163Y2338746D1*
X2642736Y2329174D1*
X2629339D1*
X2628093Y2045946D2*
X2619493D1*
X2616619Y2046919D1*
X2615647Y2047870D1*
X2614696Y2049771D1*
Y2051694D1*
X2615647Y2053596D1*
X2616619Y2054568D1*
X2619493Y2055519D1*
X2628093D1*
Y2035423D1*
X2621395Y2045946D2*
X2614696Y2035423D1*
X2607547Y2050721D2*
Y2051672D1*
X2606597Y2053596D1*
X2605646Y2054546D1*
X2603723Y2055497D1*
X2599898D1*
X2597997Y2054546D1*
X2597046Y2053596D1*
X2596073Y2051672D1*
Y2049771D1*
X2597046Y2047847D1*
X2598948Y2044996D1*
X2608520Y2035423D1*
X2595123D1*
X2587024Y2055497D2*
X2576523D1*
X2582248Y2047847D1*
X2579374D1*
X2577473Y2046897D1*
X2576523Y2045946D1*
X2575550Y2043072D1*
Y2041171D1*
X2576523Y2038297D1*
X2578424Y2036374D1*
X2581298Y2035423D1*
X2584172D1*
X2587024Y2036374D1*
X2587974Y2037346D1*
X2588947Y2039248D1*
X1258538Y889697D2*
X1249938D1*
X1247064Y890670D1*
X1246092Y891620D1*
X1245141Y893522D1*
Y895445D1*
X1246092Y897346D1*
X1247064Y898319D1*
X1249938Y899270D1*
X1258538D1*
Y879174D1*
X1251840Y889697D2*
X1245141Y879174D1*
X1237993Y894472D2*
Y895423D1*
X1237042Y897346D1*
X1236091Y898297D1*
X1234168Y899247D1*
X1230343D1*
X1228442Y898297D1*
X1227491Y897346D1*
X1226519Y895423D1*
Y893522D1*
X1227491Y891598D1*
X1229393Y888746D1*
X1238965Y879174D1*
X1225568D1*
X1209820D2*
Y899247D1*
X1219392Y885872D1*
X1205044D1*
X2735205Y794382D2*
Y785782D1*
X2734232Y782908D1*
X2733281Y781935D1*
X2731380Y780985D1*
X2729457D1*
X2727555Y781935D1*
X2726583Y782908D1*
X2725632Y785782D1*
Y794382D1*
X2745728D1*
X2735205Y787683D2*
X2745728Y780985D1*
X2730429Y773836D2*
X2729479D1*
X2727555Y772886D1*
X2726605Y771935D1*
X2725654Y770012D1*
Y766187D1*
X2726605Y764286D1*
X2727555Y763335D1*
X2729479Y762362D1*
X2731380D1*
X2733304Y763335D1*
X2736155Y765236D1*
X2745728Y774809D1*
Y761412D1*
X2725654Y743762D2*
Y753313D1*
X2734254Y754263D1*
X2733303Y753313D1*
X2732331Y750439D1*
Y747587D1*
X2733303Y744713D1*
X2735205Y742789D1*
X2738079Y741839D1*
X2739980D1*
X2742854Y742789D1*
X2744777Y744713D1*
X2745728Y747587D1*
Y750439D1*
X2744777Y753313D1*
X2743805Y754263D1*
X2741903Y755236D1*
X2503955Y1727607D2*
Y1719007D1*
X2502983Y1716133D1*
X2502032Y1715160D1*
X2500131Y1714210D1*
X2498207D1*
X2496306Y1715160D1*
X2495333Y1716133D1*
X2494383Y1719007D1*
Y1727607D1*
X2514479D1*
X2503955Y1720908D2*
X2514479Y1714210D1*
X2499180Y1707061D2*
X2498230D1*
X2496306Y1706110D1*
X2495355Y1705160D1*
X2494405Y1703236D1*
Y1699412D1*
X2495355Y1697511D1*
X2496306Y1696560D1*
X2498230Y1695587D1*
X2500131D1*
X2502054Y1696560D1*
X2504906Y1698461D1*
X2514479Y1708034D1*
Y1694637D1*
X2497257Y1676987D2*
X2495355Y1677938D1*
X2494405Y1680812D1*
Y1682713D1*
X2495355Y1685587D1*
X2498229Y1687510D1*
X2503005Y1688461D1*
X2507780D1*
X2511605Y1687510D1*
X2513528Y1685587D1*
X2514479Y1682713D1*
Y1681762D1*
X2513528Y1678910D1*
X2511605Y1676987D1*
X2508731Y1676036D1*
X2507780D1*
X2504906Y1676987D1*
X2503005Y1678910D1*
X2502054Y1681762D1*
Y1682713D1*
X2503005Y1685587D1*
X2504906Y1687510D1*
X2507780Y1688461D1*
X2813131Y1727198D2*
X2804531D1*
X2801657Y1728171D1*
X2800685Y1729122D1*
X2799734Y1731023D1*
Y1732946D1*
X2800685Y1734847D1*
X2801657Y1735820D1*
X2804531Y1736771D1*
X2813131D1*
Y1716675D1*
X2806433Y1727198D2*
X2799734Y1716675D1*
X2792586Y1731973D2*
Y1732924D1*
X2791635Y1734847D1*
X2790684Y1735798D1*
X2788761Y1736749D1*
X2784936D1*
X2783035Y1735798D1*
X2782084Y1734847D1*
X2781112Y1732924D1*
Y1731023D1*
X2782084Y1729099D1*
X2783986Y1726248D1*
X2793558Y1716675D1*
X2780161D1*
X2770161D2*
X2760588Y1736749D1*
X2773985D1*
X866454Y1064303D2*
Y1055703D1*
X865481Y1052829D1*
X864531Y1051856D1*
X862629Y1050905D1*
X860706D1*
X858805Y1051856D1*
X857832Y1052829D1*
X856881Y1055703D1*
Y1064303D1*
X876977D1*
X866454Y1057604D2*
X876977Y1050905D1*
X861679Y1043757D2*
X860728D1*
X858805Y1042806D1*
X857854Y1041856D1*
X856904Y1039932D1*
Y1036108D1*
X857854Y1034206D1*
X858805Y1033256D1*
X860728Y1032283D1*
X862629D1*
X864553Y1033256D1*
X867405Y1035157D1*
X876977Y1044730D1*
Y1031332D1*
X856904Y1020381D2*
X857854Y1023233D1*
X859755Y1024206D1*
X861679D1*
X863580Y1023233D1*
X864553Y1021332D1*
X865503Y1017507D1*
X866454Y1014633D1*
X868377Y1012732D1*
X870279Y1011781D1*
X873153D1*
X875054Y1012732D1*
X876027Y1013683D1*
X876977Y1016557D1*
Y1020381D1*
X876027Y1023233D1*
X875054Y1024206D1*
X873153Y1025157D1*
X870279D1*
X868377Y1024206D1*
X866454Y1022283D1*
X865503Y1019431D1*
X864553Y1015606D1*
X863580Y1013683D1*
X861679Y1012732D1*
X859755D1*
X857854Y1013683D1*
X856904Y1016557D1*
Y1020381D1*
X788837Y1064697D2*
X780237D1*
X777363Y1065670D1*
X776390Y1066620D1*
X775440Y1068522D1*
Y1070445D1*
X776390Y1072346D1*
X777363Y1073319D1*
X780237Y1074270D1*
X788837D1*
Y1054174D1*
X782138Y1064697D2*
X775440Y1054174D1*
X768291Y1069472D2*
Y1070423D1*
X767341Y1072346D1*
X766390Y1073297D1*
X764467Y1074247D1*
X760642D1*
X758741Y1073297D1*
X757790Y1072346D1*
X756817Y1070423D1*
Y1068522D1*
X757790Y1066598D1*
X759691Y1063746D1*
X769264Y1054174D1*
X755867D1*
X737244Y1067571D2*
X738217Y1064697D1*
X740118Y1062773D1*
X742992Y1061823D1*
X743943D1*
X746817Y1062773D1*
X748718Y1064697D1*
X749691Y1067571D1*
Y1068522D1*
X748718Y1071396D1*
X746817Y1073297D1*
X743943Y1074247D1*
X742992D1*
X740118Y1073297D1*
X738217Y1071396D1*
X737244Y1067571D1*
Y1062773D1*
X738217Y1057998D1*
X740118Y1055124D1*
X742992Y1054174D1*
X744894D1*
X747768Y1055124D1*
X748718Y1057048D1*
X3153954Y2013131D2*
Y2004531D1*
X3152981Y2001657D1*
X3152031Y2000685D1*
X3150129Y1999734D1*
X3148206D1*
X3146305Y2000685D1*
X3145332Y2001657D1*
X3144381Y2004531D1*
Y2013131D1*
X3164477D1*
X3153954Y2006433D2*
X3164477Y1999734D1*
X3144404Y1991635D2*
Y1981134D1*
X3152053Y1986860D1*
Y1983986D1*
X3153003Y1982084D1*
X3153954Y1981134D1*
X3156828Y1980161D1*
X3158729D1*
X3161603Y1981134D1*
X3163527Y1983035D1*
X3164477Y1985909D1*
Y1988783D1*
X3163527Y1991635D1*
X3162554Y1992586D1*
X3160653Y1993558D1*
X3144404Y1968237D2*
X3145354Y1971111D1*
X3148228Y1973035D1*
X3153003Y1973985D1*
X3155878D1*
X3160653Y1973035D1*
X3163527Y1971111D1*
X3164477Y1968237D1*
Y1966336D1*
X3163527Y1963462D1*
X3160653Y1961561D1*
X3155877Y1960588D1*
X3153003D1*
X3148228Y1961561D1*
X3145354Y1963462D1*
X3144404Y1966336D1*
Y1968237D1*
X3148228Y1961561D2*
X3160653Y1973035D1*
X2447512Y1964697D2*
X2438912D1*
X2436038Y1965670D1*
X2435066Y1966620D1*
X2434115Y1968522D1*
Y1970445D1*
X2435066Y1972346D1*
X2436038Y1973319D1*
X2438912Y1974270D1*
X2447512D1*
Y1954174D1*
X2440814Y1964697D2*
X2434115Y1954174D1*
X2426016Y1974247D2*
X2415515D1*
X2421241Y1966598D1*
X2418367D1*
X2416465Y1965647D1*
X2415515Y1964697D1*
X2414542Y1961823D1*
Y1959922D1*
X2415515Y1957048D1*
X2417416Y1955124D1*
X2420290Y1954174D1*
X2423164D1*
X2426016Y1955124D1*
X2426967Y1956097D1*
X2427939Y1957998D1*
X2408366Y1970423D2*
X2406443Y1971396D1*
X2403569Y1974247D1*
Y1954174D1*
X795563Y1152197D2*
X786963D1*
X784089Y1153170D1*
X783116Y1154120D1*
X782166Y1156022D1*
Y1157945D1*
X783116Y1159846D1*
X784089Y1160819D1*
X786963Y1161770D1*
X795563D1*
Y1141674D1*
X788864Y1152197D2*
X782166Y1141674D1*
X774067Y1161747D2*
X763565D1*
X769291Y1154098D1*
X766417D1*
X764516Y1153147D1*
X763565Y1152197D1*
X762593Y1149323D1*
Y1147422D1*
X763565Y1144548D1*
X765467Y1142624D1*
X768341Y1141674D1*
X771215D1*
X774067Y1142624D1*
X775017Y1143597D1*
X775990Y1145498D1*
X755444Y1156972D2*
Y1157923D1*
X754494Y1159846D1*
X753543Y1160797D1*
X751620Y1161747D1*
X747795D1*
X745894Y1160797D1*
X744943Y1159846D1*
X743970Y1157923D1*
Y1156022D1*
X744943Y1154098D1*
X746844Y1151246D1*
X756417Y1141674D1*
X743020D1*
X795563Y1245948D2*
X786963D1*
X784089Y1246920D1*
X783116Y1247871D1*
X782166Y1249772D1*
Y1251696D1*
X783116Y1253597D1*
X784089Y1254570D1*
X786963Y1255520D1*
X795563D1*
Y1235424D1*
X788864Y1245948D2*
X782166Y1235424D1*
X774067Y1255498D2*
X763565D1*
X769291Y1247849D1*
X766417D1*
X764516Y1246898D1*
X763565Y1245948D1*
X762593Y1243074D1*
Y1241172D1*
X763565Y1238298D1*
X765467Y1236375D1*
X768341Y1235424D1*
X771215D1*
X774067Y1236375D1*
X775017Y1237348D1*
X775990Y1239249D1*
X754494Y1255498D2*
X743992D1*
X749718Y1247849D1*
X746844D1*
X744943Y1246898D1*
X743992Y1245948D1*
X743020Y1243074D1*
Y1241172D1*
X743992Y1238298D1*
X745894Y1236375D1*
X748768Y1235424D1*
X751642D1*
X754494Y1236375D1*
X755444Y1237348D1*
X756417Y1239249D1*
X1624106Y838049D2*
X1610709Y817953D1*
Y838049D2*
X1624106Y817953D1*
X1604533Y834202D2*
X1602610Y835175D1*
X1599736Y838027D1*
Y817953D1*
X3248128Y933619D2*
X3234731Y913523D1*
Y933619D2*
X3248128Y913523D1*
X3227582Y928821D2*
Y929772D1*
X3226632Y931695D1*
X3225681Y932646D1*
X3223758Y933597D1*
X3219933D1*
X3218032Y932646D1*
X3217081Y931695D1*
X3216108Y929772D1*
Y927871D1*
X3217081Y925947D1*
X3218983Y923095D1*
X3228555Y913523D1*
X3215158D1*
X2925030Y1736852D2*
D117*
Y1686612D1*
X2908283D1*
X2901098Y1689044D1*
X2896289Y1693797D1*
X2893913Y1698606D1*
X2891536Y1705736D1*
Y1717729D1*
X2893913Y1724914D1*
X2896289Y1729667D1*
X2901098Y1734476D1*
X2908283Y1736852D1*
X2925030D1*
X2876097D2*
X2873720Y1734476D1*
X2871289Y1736852D1*
X2873720Y1739284D1*
X2876097Y1736852D1*
X2873720Y1720106D2*
Y1686612D1*
X2843911Y1720106D2*
X2848664Y1717729D1*
X2853473Y1712921D1*
X2855849Y1705736D1*
Y1700982D1*
X2853473Y1693797D1*
X2848664Y1689044D1*
X2843911Y1686612D1*
X2836726D1*
X2831918Y1689044D1*
X2827164Y1693797D1*
X2824733Y1700982D1*
Y1705736D1*
X2827164Y1712921D1*
X2831918Y1717729D1*
X2836726Y1720106D1*
X2843911D1*
X2780608Y1736852D2*
Y1686612D1*
Y1712921D2*
X2785362Y1717729D1*
X2790170Y1720106D1*
X2797355D1*
X2802108Y1717729D1*
X2806917Y1712921D1*
X2809293Y1705736D1*
Y1700982D1*
X2806917Y1693797D1*
X2802108Y1689044D1*
X2797355Y1686612D1*
X2790170D1*
X2785362Y1689044D1*
X2780608Y1693797D1*
X2736484Y1720106D2*
Y1686612D1*
Y1712921D2*
X2741238Y1717729D1*
X2746046Y1720106D1*
X2753176D1*
X2757984Y1717729D1*
X2762737Y1712921D1*
X2765169Y1705736D1*
Y1700982D1*
X2762737Y1693797D1*
X2757984Y1689044D1*
X2753176Y1686612D1*
X2746046D1*
X2741238Y1689044D1*
X2736484Y1693797D1*
X2692305Y1712921D2*
X2697113Y1717729D1*
X2701922Y1720106D1*
X2709052D1*
X2713860Y1717729D1*
X2718613Y1712921D1*
X2721045Y1705736D1*
Y1700982D1*
X2718613Y1693797D1*
X2713860Y1689044D1*
X2709052Y1686612D1*
X2701922D1*
X2697113Y1689044D1*
X2692305Y1693797D1*
X2597203Y1736852D2*
X2628265D1*
Y1686612D1*
X2597203D1*
X2628265Y1712921D2*
X2609141D1*
X2581764Y1736852D2*
Y1686612D1*
X2566325Y1705736D2*
X2537640D1*
Y1710544D1*
X2540016Y1715352D1*
X2542393Y1717729D1*
X2547201Y1720106D1*
X2554387D1*
X2559140Y1717729D1*
X2563948Y1712921D1*
X2566325Y1705736D1*
Y1700982D1*
X2563948Y1693797D1*
X2559140Y1689044D1*
X2554387Y1686612D1*
X2547201D1*
X2542393Y1689044D1*
X2537640Y1693797D1*
X2493460Y1712921D2*
X2498269Y1717729D1*
X2503077Y1720106D1*
X2510207D1*
X2515016Y1717729D1*
X2519769Y1712921D1*
X2522201Y1705736D1*
Y1700982D1*
X2519769Y1693797D1*
X2515016Y1689044D1*
X2510207Y1686612D1*
X2503077D1*
X2498269Y1689044D1*
X2493460Y1693797D1*
X2470836Y1736852D2*
Y1696174D1*
X2468460Y1689044D1*
X2463651Y1686612D1*
X2458898D1*
X2478021Y1720106D2*
X2461275D1*
X2443459D2*
Y1686612D1*
Y1705736D2*
X2441027Y1712921D1*
X2436274Y1717729D1*
X2431465Y1720106D1*
X2424280D1*
X2396903D2*
X2401656Y1717729D1*
X2406464Y1712921D1*
X2408841Y1705736D1*
Y1700982D1*
X2406464Y1693797D1*
X2401656Y1689044D1*
X2396903Y1686612D1*
X2389718D1*
X2384909Y1689044D1*
X2380156Y1693797D1*
X2377724Y1700982D1*
Y1705736D1*
X2380156Y1712921D1*
X2384909Y1717729D1*
X2389718Y1720106D1*
X2396903D1*
X2362285D2*
Y1686612D1*
Y1710544D2*
X2355100Y1717729D1*
X2350291Y1720106D1*
X2343162D1*
X2338353Y1717729D1*
X2335977Y1710544D1*
Y1686612D1*
X2320537Y1736852D2*
X2318161Y1734476D1*
X2315729Y1736852D1*
X2318161Y1739284D1*
X2320537Y1736852D1*
X2318161Y1720106D2*
Y1686612D1*
X2271550Y1712921D2*
X2276358Y1717729D1*
X2281166Y1720106D1*
X2288296D1*
X2293105Y1717729D1*
X2297858Y1712921D1*
X2300290Y1705736D1*
Y1700982D1*
X2297858Y1693797D1*
X2293105Y1689044D1*
X2288296Y1686612D1*
X2281166D1*
X2276358Y1689044D1*
X2271550Y1693797D1*
X2229802Y1712921D2*
X2232179Y1717729D1*
X2239364Y1720106D1*
X2246549D1*
X2253734Y1717729D1*
X2256110Y1712921D1*
X2253734Y1708167D1*
X2248925Y1705736D1*
X2236987Y1703359D1*
X2232179Y1700982D1*
X2229802Y1696174D1*
Y1693797D1*
X2232179Y1689044D1*
X2239364Y1686612D1*
X2246549D1*
X2253734Y1689044D1*
X2256110Y1693797D1*
X2910242Y1450421D2*
X2888742D1*
X2881557Y1452852D1*
X2879125Y1455229D1*
X2876748Y1459982D1*
Y1464791D1*
X2879125Y1469544D1*
X2881557Y1471976D1*
X2888742Y1474352D1*
X2910242D1*
Y1424112D1*
X2893495Y1450421D2*
X2876748Y1424112D1*
X2830248Y1474352D2*
X2861309D1*
Y1424112D1*
X2830248D1*
X2861309Y1450421D2*
X2842186D1*
X2814808Y1474352D2*
X2795685Y1424112D1*
X2776562Y1474352D1*
X2758746Y1428921D2*
X2761123Y1426489D1*
X2758746Y1424112D1*
X2756314Y1426489D1*
X2758746Y1428921D1*
X2740875Y1464735D2*
X2736066Y1467167D1*
X2728881Y1474297D1*
Y1424112D1*
X2711066Y1428921D2*
X2713442Y1426489D1*
X2711066Y1424112D1*
X2708634Y1426489D1*
X2711066Y1428921D1*
X2693195Y1464735D2*
X2688386Y1467167D1*
X2681201Y1474297D1*
Y1424112D1*
X2924159Y1611851D2*
Y1561611D1*
X2895474D1*
X2880035Y1611851D2*
X2877658Y1609474D1*
X2875227Y1611851D1*
X2877658Y1614283D1*
X2880035Y1611851D1*
X2877658Y1595104D2*
Y1561611D1*
X2859787Y1595104D2*
Y1561611D1*
Y1585543D2*
X2852602Y1592728D1*
X2847794Y1595104D1*
X2840664D1*
X2835856Y1592728D1*
X2833479Y1585543D1*
Y1561611D1*
X2818040Y1611851D2*
Y1561611D1*
X2794108Y1595104D2*
X2818040Y1571173D1*
X2808478Y1580734D2*
X2791731Y1561611D1*
X2776292Y1553321D2*
X2730861D1*
X2715421Y1611851D2*
Y1561611D1*
X2698675D1*
X2691490Y1564043D1*
X2686681Y1568796D1*
X2684305Y1573605D1*
X2681928Y1580734D1*
Y1592728D1*
X2684305Y1599913D1*
X2686681Y1604666D1*
X2691490Y1609474D1*
X2698675Y1611851D1*
X2715421D1*
X2666489Y1595104D2*
Y1561611D1*
Y1580734D2*
X2664057Y1587919D1*
X2659304Y1592728D1*
X2654495Y1595104D1*
X2647310D1*
X2631871D2*
Y1571173D1*
X2629494Y1564043D1*
X2624686Y1561611D1*
X2617501D1*
X2612748Y1564043D1*
X2605563Y1571173D1*
Y1595104D2*
Y1561611D1*
X2590124Y1595104D2*
Y1561611D1*
Y1585543D2*
X2582939Y1592728D1*
X2578130Y1595104D1*
X2571000D1*
X2566192Y1592728D1*
X2563815Y1585543D1*
Y1561611D1*
Y1585543D2*
X2556630Y1592728D1*
X2551822Y1595104D1*
X2544692D1*
X2539884Y1592728D1*
X2537452Y1585543D1*
Y1561611D1*
X2057448Y822278D2*
D118*
X2053602Y824224D1*
X2047854Y829927D1*
Y789780D1*
X2804952Y446374D2*
X2808798Y444429D1*
X2814546Y438725D1*
Y478873D1*
X2649952Y2402097D2*
X2662885D1*
X2667163Y2400671D1*
X2668622Y2399212D1*
X2670048Y2396360D1*
Y2392049D1*
X2668622Y2389197D1*
X2667163Y2387738D1*
X2662885Y2386312D1*
X2649952D1*
Y2416456D1*
X2685232Y2386312D2*
X2682347Y2387738D1*
X2679495Y2390623D1*
X2678036Y2393475D1*
X2676610Y2397786D1*
Y2404982D1*
X2678036Y2409260D1*
X2679495Y2412145D1*
X2682347Y2414997D1*
X2685232Y2416456D1*
X2690969D1*
X2693821Y2414997D1*
X2696706Y2412145D1*
X2698132Y2409260D1*
X2699558Y2404982D1*
Y2397786D1*
X2698132Y2393475D1*
X2696706Y2390623D1*
X2693821Y2387738D1*
X2690969Y2386312D1*
X2685232D1*
X2706119D2*
X2713315Y2416456D1*
X2720478Y2386312D1*
X2727641Y2416456D1*
X2734837Y2386312D1*
X2760036D2*
X2741399D1*
Y2416456D1*
X2760036D1*
X2741399Y2400671D2*
X2752873D1*
X2766597D2*
X2779497D1*
X2783808Y2399212D1*
X2785267Y2397786D1*
X2786693Y2394934D1*
Y2392049D1*
X2785267Y2389197D1*
X2783808Y2387738D1*
X2779497Y2386312D1*
X2766597D1*
X2766598Y2416456D1*
X2776645Y2400671D2*
X2786693Y2416456D1*
X2325481Y2426644D2*
X2328332Y2425219D1*
X2331218Y2422333D1*
X2332644Y2419482D1*
Y2413745D1*
X2331218Y2410859D1*
X2328333Y2408008D1*
X2325481Y2406548D1*
X2321170Y2405123D1*
X2313973D1*
X2309696Y2406548D1*
X2306811Y2408008D1*
X2303959Y2410860D1*
X2302500Y2413745D1*
Y2419482D1*
X2303959Y2422333D1*
X2306811Y2425219D1*
X2309696Y2426644D1*
X2313973D1*
Y2419482D1*
X2332644Y2453302D2*
X2302500D1*
X2332644Y2433206D1*
X2302500D1*
X2332644Y2459864D2*
X2302500D1*
Y2469912D1*
X2303959Y2474223D1*
X2306811Y2477108D1*
X2309696Y2478534D1*
X2313974Y2479960D1*
X2321170D1*
X2325481Y2478534D1*
X2328333Y2477108D1*
X2331218Y2474223D1*
X2332644Y2469912D1*
Y2459864D1*
X2424723Y2427721D2*
X2427574Y2426295D1*
X2430459Y2423410D1*
X2431885Y2420558D1*
Y2414821D1*
X2430460Y2411936D1*
X2427574Y2409084D1*
X2424723Y2407625D1*
X2420412Y2406199D1*
X2413215D1*
X2408938Y2407625D1*
X2406053Y2409084D1*
X2403201Y2411936D1*
X2401741Y2414821D1*
Y2420558D1*
X2403201Y2423410D1*
X2406052Y2426295D1*
X2408938Y2427721D1*
X2413215D1*
Y2420558D1*
X2431885Y2454379D2*
X2401741D1*
X2431885Y2434283D1*
X2401741D1*
X2431885Y2460940D2*
X2401741Y2460941D1*
Y2470988D1*
X2403201Y2475299D1*
X2406053Y2478185D1*
X2408938Y2479610D1*
X2413215Y2481036D1*
X2420412D1*
X2424723Y2479610D1*
X2427574Y2478185D1*
X2430460Y2475299D1*
X2431885Y2470988D1*
Y2460940D1*
X2523964Y2428798D2*
X2526816Y2427372D1*
X2529701Y2424487D1*
X2531127Y2421635D1*
Y2415898D1*
X2529701Y2413013D1*
X2526816Y2410161D1*
X2523964Y2408702D1*
X2519653Y2407276D1*
X2512457D1*
X2508180Y2408702D1*
X2505294Y2410161D1*
X2502443Y2413013D1*
X2500983Y2415898D1*
Y2421635D1*
X2502443Y2424487D1*
X2505294Y2427372D1*
X2508179Y2428798D1*
X2512457D1*
Y2421635D1*
X2531127Y2455455D2*
X2500983Y2455456D1*
X2531127Y2435360D1*
X2500983D1*
X2531127Y2462017D2*
X2500983D1*
Y2472065D1*
X2502443Y2476376D1*
X2505294Y2479261D1*
X2508180Y2480687D1*
X2512457Y2482113D1*
X2519653D1*
X2523965Y2480687D1*
X2526816Y2479261D1*
X2529701Y2476376D1*
X2531127Y2472065D1*
Y2462017D1*
X2579591Y2330579D2*
Y2382245D1*
X2553792Y2356445D2*
X2605458D1*
X2257988Y2406196D2*
Y2439358D1*
X2224958Y2616576D2*
X2242158D1*
X2247906Y2614631D1*
X2249852Y2612729D1*
X2251753Y2608927D1*
Y2605080D1*
X2249852Y2601278D1*
X2247906Y2599332D1*
X2242158Y2597431D1*
X2224958D1*
Y2637623D1*
X2238356Y2616576D2*
X2251753Y2637623D1*
X2283164Y2597431D2*
X2258315D1*
Y2637623D1*
X2283164D1*
X2258315Y2616576D2*
X2273613D1*
X2289725Y2597431D2*
Y2637623D1*
X2303123D1*
X2308871Y2635677D1*
X2312718Y2631875D1*
X2314619Y2628028D1*
X2316520Y2622324D1*
Y2612729D1*
X2314619Y2606981D1*
X2312718Y2603179D1*
X2308871Y2599332D1*
X2303123Y2597431D1*
X2289725D1*
X2382968Y2603179D2*
X2379165Y2599332D1*
X2373417Y2597431D1*
X2365768D1*
X2360020Y2599332D1*
X2356173Y2603179D1*
Y2606981D1*
X2358118Y2610828D1*
X2360020Y2612729D1*
X2363822Y2614631D1*
X2375318Y2618477D1*
X2379165Y2620379D1*
X2381066Y2622324D1*
X2382968Y2626127D1*
Y2631875D1*
X2379165Y2635677D1*
X2373417Y2637623D1*
X2365768D1*
X2360020Y2635677D1*
X2356173Y2631875D1*
X2402927Y2597431D2*
Y2637623D1*
X2389529Y2597431D2*
X2416324D1*
X2422886Y2616576D2*
X2440085D1*
X2445833Y2614631D1*
X2447779Y2612729D1*
X2449680Y2608927D1*
Y2605080D1*
X2447779Y2601278D1*
X2445833Y2599332D1*
X2440085Y2597431D1*
X2422886D1*
Y2637623D1*
X2436283Y2616576D2*
X2449680Y2637623D1*
X2456242Y2597431D2*
Y2637623D1*
X2462804Y2618477D2*
X2480048D1*
X2485751Y2616576D1*
X2487697Y2614631D1*
X2489598Y2610828D1*
Y2605080D1*
X2487697Y2601278D1*
X2485751Y2599332D1*
X2480048Y2597431D1*
X2462804D1*
Y2637623D1*
X2521009Y2597431D2*
X2496160D1*
Y2637623D1*
X2521009D1*
X2496160Y2616576D2*
X2511458D1*
M02*
