M48
INCH
T01C0.0191
T02C0.0335
T03C0.0354
T04C0.04
T05C0.0551
T06C0.126
%
T01
X+011750Y+018027
X+009799Y+016443
X+008638Y+015989
X+008159Y+015510
X+007683Y+013956
X+009169Y+012433
X+009484Y+010816
X+007967Y+011190
X+006819Y+011190
X+007772Y+007627
X+009701Y+008492
X+010331Y+008810
X+010809Y+008968
X+011906Y+008105
X+012244Y+007627
X+011380Y+007627
X+014059Y+008105
X+015893Y+008492
X+016372Y+008131
X+016054Y+007656
X+016096Y+004661
X+019238Y+004289
X+022381Y+005496
X+024872Y+004699
X+026449Y+005941
X+025569Y+007012
X+026205Y+007919
X+025887Y+008398
X+026841Y+007718
X+028254Y+007751
X+030264Y+007150
X+030443Y+005496
X+030762Y+005017
X+031032Y+004194
X+030443Y+003876
X+031668Y+001876
X+034854Y+003876
X+031950Y+006832
X+032268Y+008199
X+032182Y+009667
X+033012Y+009855
X+033843Y+011000
X+035172Y+010000
X+031552Y+011018
X+029238Y+012622
X+029320Y+013672
X+030584Y+013990
X+032867Y+014000
X+034291Y+014318
X+034291Y+014976
X+034133Y+016000
X+033312Y+016478
X+032870Y+017516
X+032125Y+015882
X+030250Y+016688
X+028920Y+015619
X+026416Y+015488
X+025024Y+016328
X+024611Y+015232
X+024132Y+014852
X+023975Y+015682
X+023542Y+016688
X+021980Y+016722
X+021262Y+015989
X+021708Y+014806
X+022545Y+014534
X+021564Y+013661
X+021246Y+013021
X+020818Y+012375
X+020271Y+013500
X+019724Y+014193
X+018863Y+014716
X+019195Y+013070
X+020699Y+014806
X+022699Y+012730
X+023181Y+012730
X+022699Y+011199
X+023625Y+009930
X+024517Y+010881
X+025153Y+010881
X+026851Y+010312
X+026693Y+012303
X+024042Y+008398
X+019000Y+010312
X+017818Y+010487
X+015905Y+010806
X+015449Y+012433
X+014544Y+013421
X+015022Y+013740
X+013278Y+013740
X+012005Y+014716
X+011563Y+012115
X+012198Y+010655
X+016968Y+014193
X+014988Y+017198
X+014223Y+017040
X+023813Y+019050
X+027495Y+020888
X+030198Y+020888
X+019767Y+000619
X+012594Y+003693
X+010557Y+003693
X+009411Y+004289
X+009093Y+005017
X+002985Y+005182
X+002824Y+008976
X+003142Y+009939
X+004375Y+017929
T02
X+036313Y+015000
X+036313Y+014000
X+036313Y+013000
X+036313Y+012000
X+036313Y+011000
X+036313Y+010000
X+036313Y+009000
X+036313Y+008000
X+002313Y+008500
X+002313Y+009500
X+002313Y+010500
X+002313Y+011500
X+002313Y+012500
X+002313Y+013500
X+002313Y+014500
X+002313Y+015500
X+002313Y+016500
X+002313Y+017500
X+002313Y+018500
X+002313Y+007500
X+002313Y+006500
X+002313Y+005500
X+002313Y+004500
T03
X+015937Y+002375
X+014937Y+002375
X+014937Y+003375
X+015937Y+003375
X+015937Y+001375
X+014937Y+001375
X+024812Y+001438
X+025812Y+001438
X+025812Y+002438
X+024812Y+002438
X+024812Y+003438
X+025812Y+003438
T04
X+017813Y+021625
X+017813Y+020625
X+018813Y+020625
X+018813Y+021625
X+019813Y+021625
X+020813Y+021625
X+020813Y+020625
X+019813Y+020625
X+021813Y+020625
X+021813Y+021625
T05
X+018375Y+001688
X+019753Y+001688
X+021131Y+001688
X+022509Y+001688
T06
X+002313Y+021750
X+002313Y+001750
X+036313Y+001750
X+036313Y+021625
T00
M30
