G04 DipTrace 3.3.1.3*
G04 Top.gbr*
%MOIN*%
G04 #@! TF.FileFunction,Copper,L1,Top*
G04 #@! TF.Part,Single*
%AMOUTLINE0*
4,1,8,
0.034184,0.014159,
0.014159,0.034184,
-0.014159,0.034184,
-0.034184,0.014159,
-0.034184,-0.014159,
-0.014159,-0.034184,
0.014159,-0.034184,
0.034184,-0.014159,
0.034184,0.014159,
0*%
G04 #@! TA.AperFunction,Conductor*
%ADD13C,0.011811*%
%ADD14C,0.007874*%
G04 #@! TA.AperFunction,CopperBalancing*
%ADD15C,0.025*%
G04 #@! TA.AperFunction,ComponentPad*
%ADD25C,0.064*%
%ADD26R,0.07874X0.07874*%
%ADD27C,0.07874*%
%ADD28R,0.090551X0.090551*%
%ADD29C,0.090551*%
G04 #@! TA.AperFunction,ViaPad*
%ADD58C,0.04*%
G04 #@! TA.AperFunction,ComponentPad*
%ADD119OUTLINE0*%
%FSLAX26Y26*%
G04*
G70*
G90*
G75*
G01*
G04 Top*
%LPD*%
X2774953Y2298670D2*
D13*
X1670984D1*
X1568701Y2196387D1*
X4024951Y1293701D2*
D14*
X3942729Y1375923D1*
Y1409765D1*
X3926981Y1425513D1*
X3741193D1*
X3694886Y1379206D1*
X1373626Y2038048D2*
X1177788D1*
X1162040Y2022300D1*
Y1789308D1*
X3078760Y1424919D2*
X2293701D1*
X2317520Y822572D2*
X1334788D1*
X3548937Y1495544D2*
Y1640108D1*
X3533189Y1655856D1*
X3317520D1*
X3694886Y1379206D2*
X3668103Y1405989D1*
Y1479796D1*
X3652355Y1495544D1*
X3548937D1*
X4024951Y1393701D2*
X4076134Y1444883D1*
Y1944883D1*
X3695020D1*
X3511067Y1760930D1*
X3325713D1*
X3910918Y1393702D2*
Y471328D1*
X3895170Y455580D1*
X2370433D1*
X3325713Y1760930D2*
X3285709D1*
Y1955584D1*
X624951Y1343701D2*
X676134Y1394883D1*
Y1403635D1*
X691882Y1419383D1*
X1256382D1*
X1264953Y1427954D1*
X1249205Y1443702D1*
Y1849580D1*
X1264953Y1865328D1*
X1594209D1*
X1449358Y763013D2*
X1653150D1*
X3606201Y1981859D2*
X3795201D1*
X3807012Y1993670D1*
X1264953Y1427954D2*
X1372737D1*
X1549973Y1605190D1*
X1594209Y1865328D2*
X2280016D1*
X2231201Y562451D2*
X2450014Y781265D1*
X2931136D1*
X2974950Y737451D1*
X1887450Y531201D2*
X1931261Y575012D1*
X2136335D1*
X2148895Y562451D1*
X2231201D1*
X1653150Y763013D2*
Y546950D1*
X1668899Y531201D1*
X1887450D1*
X1257473Y1992572D2*
X1844831D1*
X1876642Y2024383D1*
X2607493D1*
X2638209Y1993667D1*
X2912197D1*
X2927945Y2009415D1*
Y2046706D1*
X2943693Y2062454D1*
X3418701D1*
X1848071Y1735848D2*
X1883189Y1700730D1*
X2313173D1*
X2747855Y2062454D2*
X2912197D1*
X2927945Y2046706D1*
X3438044Y943324D2*
X3501666D1*
X3517414Y927576D1*
Y879387D1*
X3501666Y863639D1*
X2880886D1*
X3438044Y781265D2*
X3879107D1*
X1075618Y1512670D2*
X1190425D1*
X2880886Y863639D2*
X2849075Y831828D1*
X2538488D1*
X2510551Y859765D1*
X2003331D1*
X1983044Y1242922D2*
X1363784D1*
X2030918Y1206793D2*
Y1258985D1*
X2015170Y1274733D1*
X1845799D1*
X1829736Y1258670D1*
X1442839D1*
X1426776Y1274733D1*
X1999110Y1159265D2*
X2062729D1*
X2078477Y1175013D1*
Y1274733D1*
X2062729Y1290481D1*
X1474650D1*
X2175512Y1442442D2*
X1630229D1*
X1613465Y1459206D1*
X1342126Y1475269D2*
X1264953Y1552442D1*
Y1653064D1*
X1280701Y1668812D1*
X1968477D1*
X1984225Y1653064D1*
Y1474253D1*
X1938634Y1637001D2*
X1310634D1*
X2644587Y562451D2*
X2805980D1*
X2824794Y581265D1*
X3560544D1*
X1799638Y1204245D2*
X1584256D1*
X3413512Y2482474D2*
D13*
X3143209D1*
X1892547Y2113478D2*
D14*
X4091882D1*
X4107630Y2097730D1*
Y1276379D1*
X4024951Y1193701D1*
X2366103Y1813013D2*
X2090477D1*
X831201Y2186635D2*
X920106Y2097730D1*
X1815953D1*
X2518307Y1695832D2*
X2380898D1*
X2309071Y1767659D1*
X1895945D1*
X1618110Y1156375D2*
X1647791Y1126694D1*
X3030260D1*
X3046008Y1142442D1*
Y1327954D1*
X3030260Y1343702D1*
X2261890D1*
X2246142Y1359450D1*
Y1668812D1*
X2230394Y1684560D1*
X1804552D1*
X1721453Y1767659D1*
X1209599Y1944702D2*
X2479638D1*
X2495386Y1928954D1*
Y1814497D1*
X2550118Y1759765D1*
X1170886Y1156371D2*
X1531736D1*
X676134Y1291253D2*
X872504Y1094883D1*
X2950575D1*
X707945Y1387572D2*
X767563Y1327954D1*
X2998449D1*
X3014197Y1312206D1*
Y1185627D1*
X692197Y911887D2*
X768130Y987820D1*
X3038567D1*
X3077819Y1165474D2*
Y1059449D1*
X3062070Y1043701D1*
X624951D1*
X1302977Y895450D2*
X3469855D1*
X3620544Y1213604D2*
Y860636D1*
X3604795Y844887D1*
X3343752D1*
X3180130Y681265D1*
X2931136D1*
X2874950Y737451D1*
X2543996D1*
X2368996Y562451D1*
X2711831Y1666686D2*
X2738845Y1693701D1*
X4024951D1*
X2756201Y1386678D2*
X3095925D1*
X3111673Y1370930D1*
Y1092674D1*
X3127421Y1076926D1*
X3588732D1*
X3724949Y2041544D2*
X3467799D1*
X3452051Y2025796D1*
Y1792741D1*
X4024951Y1793701D2*
X3680390Y1793702D1*
X4024951Y1493701D2*
X3777977Y1493702D1*
X3680717Y2145289D2*
X1145185D1*
X995591Y2294883D1*
X573768D1*
Y1594884D1*
X624951Y1543701D1*
X2896134Y2026458D2*
X2720028D1*
X2680567Y2065919D1*
X2591670D1*
X1711590D1*
X1707650Y2069859D1*
X1051110D1*
X624951Y1643701D1*
X2475512Y1631206D2*
Y1465733D1*
X2491260Y1449985D1*
X2861477D1*
X2877225Y1465733D1*
Y1529671D1*
X2861477Y1545419D1*
X2632142D1*
X2616394Y1561167D1*
Y1863119D1*
X2632142Y1878867D1*
X2806914D1*
X2420795Y1743702D2*
X2431764Y1754671D1*
Y1881391D1*
X2416016Y1897139D1*
X1237984D1*
X1222236Y1881391D1*
Y1459449D1*
X1206487Y1443701D1*
X624951D1*
X2648205Y1847056D2*
X2939827D1*
X3035260Y1942489D1*
X2631792Y943324D2*
X821965D1*
X722341Y843701D1*
X624951D1*
X3822752Y1891308D2*
Y1825513D1*
X3063012Y1624044D2*
X3404402D1*
X3420150Y1608296D1*
Y1108737D1*
X2854788Y1916899D2*
X2595528D1*
X2519855Y1992572D1*
X2982386Y1233501D2*
X2797855D1*
X2663603Y1513607D2*
X2598064D1*
X2582315Y1529356D1*
Y1856564D1*
X2564547Y1874332D1*
X2791166Y1961856D2*
X2803610Y1974300D1*
X3067071D1*
X3082819Y1958552D1*
Y1815245D1*
X3067071Y1799497D1*
X2796414D1*
X2663603Y1666686D1*
X2909036Y1481796D2*
X3203343D1*
X3219091Y1466048D1*
Y1168777D1*
X2463575Y1874332D2*
Y1743702D1*
X2479323Y1727954D1*
X2534370D1*
X2550118Y1712206D1*
Y1497544D1*
X2565866Y1481796D1*
X2845414D1*
X3496921Y813076D2*
X3636607D1*
X3652355Y828824D1*
Y1319891D1*
X3611890Y1360356D1*
D58*
X1568701Y2196387D3*
X2774953Y2298670D3*
X1162040Y1789308D3*
X3694886Y1379206D3*
X2293701Y1424919D3*
X3078760D3*
X1334788Y822572D3*
X2317520D3*
X3317520Y1655856D3*
X3548937Y1495544D3*
X1373626Y2038048D3*
X1449358Y763013D3*
X2280016Y1865328D3*
X3807012Y1993670D3*
X3606201Y1981859D3*
X1653150Y763013D3*
X1594209Y1865328D3*
X1549973Y1605190D3*
X1363784Y1242922D3*
X1983044D3*
X1426776Y1274733D3*
X2030918Y1206793D3*
X1474650Y1290481D3*
X1999110Y1159265D3*
X1613465Y1459206D3*
X2175512Y1442442D3*
X1984225Y1474253D3*
X1342126Y1475269D3*
X1310634Y1637001D3*
X1938634D3*
X3418701Y2062454D3*
X2313173Y1700730D3*
X1257473Y1992572D3*
X2003331Y859765D3*
X3879107Y781265D3*
X3438044D3*
Y943324D3*
X2880886Y863639D3*
X2747855Y2062454D3*
X1190425Y1512670D3*
X1848071Y1735848D3*
X1075618Y1512670D3*
X1584256Y1204245D3*
X1799638D3*
X3143209Y2482474D3*
X3413512D3*
X3325713Y1760930D3*
X2370433Y455580D3*
X3910918Y1393702D3*
X3285709Y1955584D3*
X1892547Y2113478D3*
X2090477Y1813013D3*
X2366103D3*
X1815953Y2097730D3*
X831201Y2186635D3*
X1895945Y1767659D3*
X2518307Y1695832D3*
X1721453Y1767659D3*
X1618110Y1156375D3*
X2550118Y1759765D3*
X1209599Y1944702D3*
X1531736Y1156371D3*
X1170886D3*
X2950575Y1094883D3*
X676134Y1291253D3*
X3014197Y1185627D3*
X707945Y1387572D3*
X3038567Y987820D3*
X692197Y911887D3*
X3077819Y1165474D3*
X3469855Y895450D3*
X1302977D3*
X3620544Y1213604D3*
X2711831Y1666686D3*
X3588732Y1076926D3*
X2756201Y1386678D3*
X3452051Y1792741D3*
X3724949Y2041544D3*
X3680390Y1793702D3*
X3777977Y1493702D3*
X3680717Y2145289D3*
X2591670Y2065919D3*
X2896134Y2026458D3*
X2420795Y1743702D3*
X2806914Y1878867D3*
X2475512Y1631206D3*
X3035260Y1942489D3*
X2631792Y943324D3*
X2648205Y1847056D3*
X3822752Y1825513D3*
Y1891308D3*
X3420150Y1108737D3*
X3063012Y1624044D3*
X2519855Y1992572D3*
X2854788Y1916899D3*
X2797855Y1233501D3*
X2982386D3*
X2564547Y1874332D3*
X2663603Y1513607D3*
Y1666686D3*
X2791166Y1961856D3*
X3219091Y1168777D3*
X2909036Y1481796D3*
X2845414D3*
X2463575Y1874332D3*
X3611890Y1360356D3*
X3496921Y813076D3*
X3560544Y581265D3*
X420530Y2706726D2*
D15*
X4221227D1*
X420530Y2681857D2*
X4221227D1*
X420530Y2656988D2*
X4221227D1*
X420530Y2632119D2*
X563911D1*
X686001D2*
X3981377D1*
X4068516D2*
X4221227D1*
X420530Y2607251D2*
X545215D1*
X704697D2*
X2142169D1*
X2207742D2*
X2242178D1*
X2307715D2*
X2342188D1*
X2407724D2*
X2442161D1*
X2507733D2*
X2542170D1*
X2607743D2*
X3952849D1*
X4097044D2*
X4221227D1*
X420530Y2582382D2*
X537213D1*
X712663D2*
X2118270D1*
X2631642D2*
X3940182D1*
X4109711D2*
X4221227D1*
X420530Y2557513D2*
X536854D1*
X713058D2*
X2114933D1*
X2634979D2*
X3936127D1*
X4113766D2*
X4221227D1*
X420530Y2532644D2*
X544031D1*
X705881D2*
X2116907D1*
X2632969D2*
X3939393D1*
X4110501D2*
X4221227D1*
X420530Y2507776D2*
X561291D1*
X688585D2*
X2139550D1*
X2210361D2*
X2239559D1*
X2310370D2*
X2339532D1*
X2410344D2*
X2439541D1*
X2510353D2*
X2539551D1*
X2610362D2*
X3105552D1*
X3451200D2*
X3950983D1*
X4098910D2*
X4221227D1*
X420530Y2482907D2*
X612929D1*
X636947D2*
X2118593D1*
X2631283D2*
X3097370D1*
X3459346D2*
X3976856D1*
X4073038D2*
X4221227D1*
X420530Y2458038D2*
X2114933D1*
X2634979D2*
X3104942D1*
X3451775D2*
X4221227D1*
X420530Y2433169D2*
X2116691D1*
X2633220D2*
X4221227D1*
X420530Y2408301D2*
X2139011D1*
X2210899D2*
X2239021D1*
X2310873D2*
X2339030D1*
X2410882D2*
X2439003D1*
X2510891D2*
X2539012D1*
X2610900D2*
X4221227D1*
X420530Y2383432D2*
X4221227D1*
X420530Y2358563D2*
X4221227D1*
X420530Y2333694D2*
X2746961D1*
X2802953D2*
X4221227D1*
X420530Y2308825D2*
X547835D1*
X1022702D2*
X1637315D1*
X2819567D2*
X4221227D1*
X420530Y2283957D2*
X543995D1*
X1047570D2*
X1612447D1*
X2818203D2*
X4221227D1*
X420530Y2259088D2*
X543995D1*
X690164D2*
X990323D1*
X1072438D2*
X1587543D1*
X1675256D2*
X2754820D1*
X2795058D2*
X4221227D1*
X420530Y2234219D2*
X543995D1*
X690164D2*
X1015190D1*
X1097305D2*
X1545092D1*
X1650388D2*
X4221227D1*
X420530Y2209350D2*
X543995D1*
X690164D2*
X791811D1*
X870589D2*
X1040058D1*
X1122173D2*
X1524853D1*
X1625521D2*
X4221227D1*
X420530Y2184482D2*
X543995D1*
X690164D2*
X785424D1*
X876977D2*
X1064926D1*
X1147041D2*
X1524531D1*
X1612854D2*
X3659747D1*
X3701672D2*
X4221227D1*
X420530Y2159613D2*
X543995D1*
X688082D2*
X794826D1*
X899297D2*
X1089794D1*
X3724100D2*
X4221227D1*
X420530Y2134744D2*
X543995D1*
X689518D2*
X842049D1*
X924164D2*
X1114661D1*
X4111434D2*
X4221227D1*
X420530Y2109875D2*
X543995D1*
X680224D2*
X866917D1*
X4134543D2*
X4221227D1*
X420530Y2085007D2*
X543995D1*
X674626D2*
X891785D1*
X3458198D2*
X4077870D1*
X4137378D2*
X4221227D1*
X420530Y2060138D2*
X543995D1*
X687939D2*
X1000334D1*
X3766587D2*
X4077870D1*
X4137378D2*
X4221227D1*
X420530Y2035269D2*
X543995D1*
X689589D2*
X975467D1*
X1057582D2*
X1135546D1*
X1419366D2*
X1846483D1*
X2637670D2*
X2670169D1*
X3770319D2*
X4077870D1*
X4137378D2*
X4221227D1*
X420530Y2010400D2*
X543995D1*
X680582D2*
X950599D1*
X1032714D2*
X1132280D1*
X1191789D2*
X1215496D1*
X2957721D2*
X3422302D1*
X3481810D2*
X3692330D1*
X3757580D2*
X4077870D1*
X4137378D2*
X4221227D1*
X420530Y1985532D2*
X543995D1*
X674159D2*
X925731D1*
X1007846D2*
X1132280D1*
X1878863D2*
X2474600D1*
X2567947D2*
X2605290D1*
X3096880D2*
X3251888D1*
X3319506D2*
X3422302D1*
X3481810D2*
X4077870D1*
X4137378D2*
X4221227D1*
X420530Y1960663D2*
X543995D1*
X687795D2*
X900863D1*
X982978D2*
X1132280D1*
X2592815D2*
X2745346D1*
X3112490D2*
X3240189D1*
X3331240D2*
X3422302D1*
X3481810D2*
X3669759D1*
X4137378D2*
X4221227D1*
X420530Y1935794D2*
X543995D1*
X689661D2*
X875996D1*
X958111D2*
X1132280D1*
X2524276D2*
X2535595D1*
X2896287D2*
X2987493D1*
X3112597D2*
X3244675D1*
X3326754D2*
X3422302D1*
X3481810D2*
X3644891D1*
X4137378D2*
X4221227D1*
X420530Y1910925D2*
X543995D1*
X680905D2*
X851128D1*
X933243D2*
X1132280D1*
X2525137D2*
X2538833D1*
X2900199D2*
X2962625D1*
X3112597D2*
X3255943D1*
X3315486D2*
X3422302D1*
X3481810D2*
X3619988D1*
X3702103D2*
X3781610D1*
X3863869D2*
X3959739D1*
X4137378D2*
X4221227D1*
X420530Y1886056D2*
X543995D1*
X673693D2*
X826260D1*
X908375D2*
X1132280D1*
X2887711D2*
X2937757D1*
X3019873D2*
X3053053D1*
X3112597D2*
X3255943D1*
X3315486D2*
X3422302D1*
X3481810D2*
X3595120D1*
X3677235D2*
X3777232D1*
X3868246D2*
X3959739D1*
X4137378D2*
X4221227D1*
X420530Y1861188D2*
X543995D1*
X687652D2*
X801392D1*
X883508D2*
X1132280D1*
X1252002D2*
X2402007D1*
X2995005D2*
X3053053D1*
X3112597D2*
X3255943D1*
X3315486D2*
X3422302D1*
X3481810D2*
X3570252D1*
X3652367D2*
X3789110D1*
X3856405D2*
X3959739D1*
X4137378D2*
X4221227D1*
X420530Y1836319D2*
X543995D1*
X689697D2*
X776525D1*
X858640D2*
X1132280D1*
X1252002D2*
X2051454D1*
X2525137D2*
X2541273D1*
X2970137D2*
X3053053D1*
X3112597D2*
X3255943D1*
X3315486D2*
X3422302D1*
X3481810D2*
X3545384D1*
X3627499D2*
X3670082D1*
X3690699D2*
X3778309D1*
X3867206D2*
X3959739D1*
X4137378D2*
X4221227D1*
X420530Y1811450D2*
X543995D1*
X681228D2*
X751657D1*
X833772D2*
X1122305D1*
X1252002D2*
X2044672D1*
X2539491D2*
X2552541D1*
X2675384D2*
X2767308D1*
X3112310D2*
X3255943D1*
X3315486D2*
X3410460D1*
X3493616D2*
X3520517D1*
X3602632D2*
X3638360D1*
X4137378D2*
X4221227D1*
X420530Y1786581D2*
X543995D1*
X673190D2*
X726789D1*
X808904D2*
X1116312D1*
X1252002D2*
X1679981D1*
X1762921D2*
X1854486D1*
X2646175D2*
X2742440D1*
X3095229D2*
X3255943D1*
X3577764D2*
X3635167D1*
X4137378D2*
X4221227D1*
X420530Y1761713D2*
X543995D1*
X687508D2*
X701921D1*
X784037D2*
X1126144D1*
X1252002D2*
X1676034D1*
X1768447D2*
X1810815D1*
X2356087D2*
X2378897D1*
X2493344D2*
X2504348D1*
X2646175D2*
X2717572D1*
X2799687D2*
X3255943D1*
X3552896D2*
X3648659D1*
X3712114D2*
X3968531D1*
X4137378D2*
X4221227D1*
X420530Y1736844D2*
X543995D1*
X759169D2*
X1192458D1*
X1252002D2*
X1688485D1*
X1793315D2*
X1802231D1*
X1928886D2*
X2286747D1*
X2646175D2*
X2692704D1*
X2774819D2*
X3270440D1*
X3526342D2*
X3976963D1*
X4137378D2*
X4221227D1*
X420530Y1711975D2*
X543995D1*
X734265D2*
X1192458D1*
X1252002D2*
X1736068D1*
X2646175D2*
X2667837D1*
X4137378D2*
X4221227D1*
X420530Y1687106D2*
X543995D1*
X709397D2*
X1192458D1*
X4137378D2*
X4221227D1*
X420530Y1662238D2*
X543995D1*
X687329D2*
X1192458D1*
X2275922D2*
X2290801D1*
X2335561D2*
X2442771D1*
X2757416D2*
X3040063D1*
X3085971D2*
X3272162D1*
X3567860D2*
X3968208D1*
X4137378D2*
X4221227D1*
X420530Y1637369D2*
X543995D1*
X689841D2*
X1192458D1*
X2014003D2*
X2216378D1*
X2275922D2*
X2430140D1*
X2746220D2*
X3019286D1*
X3578697D2*
X3977466D1*
X4137378D2*
X4221227D1*
X420530Y1612500D2*
X543995D1*
X681838D2*
X1192458D1*
X2014003D2*
X2216378D1*
X2275922D2*
X2433943D1*
X2646175D2*
X3018748D1*
X3449586D2*
X3519189D1*
X3578697D2*
X3962646D1*
X4137378D2*
X4221227D1*
X420530Y1587631D2*
X545000D1*
X672186D2*
X1192458D1*
X1294704D2*
X1954459D1*
X2014003D2*
X2216378D1*
X2275922D2*
X2445749D1*
X2505293D2*
X2520353D1*
X2646175D2*
X3037049D1*
X3088985D2*
X3390401D1*
X3449909D2*
X3519189D1*
X3578697D2*
X3960062D1*
X4137378D2*
X4221227D1*
X420530Y1562762D2*
X562727D1*
X687185D2*
X1192458D1*
X1295673D2*
X1954459D1*
X2014003D2*
X2216378D1*
X2275922D2*
X2445749D1*
X2505293D2*
X2520353D1*
X2885199D2*
X3390401D1*
X3449909D2*
X3519189D1*
X3578697D2*
X3967921D1*
X4137378D2*
X4221227D1*
X420530Y1537894D2*
X560035D1*
X689876D2*
X1037905D1*
X1320541D2*
X1954459D1*
X2014003D2*
X2216378D1*
X2275922D2*
X2445749D1*
X2505293D2*
X2520353D1*
X2905725D2*
X3390401D1*
X3449909D2*
X3519189D1*
X3578697D2*
X3977968D1*
X4137378D2*
X4221227D1*
X420530Y1513025D2*
X567786D1*
X682125D2*
X1029795D1*
X1252002D2*
X1263330D1*
X1365863D2*
X1954459D1*
X2014003D2*
X2216378D1*
X2275922D2*
X2445749D1*
X2505293D2*
X2520353D1*
X2709438D2*
X2812880D1*
X2941573D2*
X3390401D1*
X3449909D2*
X3506809D1*
X3675943D2*
X3736683D1*
X4137378D2*
X4221227D1*
X420530Y1488156D2*
X578229D1*
X671647D2*
X1037403D1*
X1252002D2*
X1288197D1*
X1385994D2*
X1578716D1*
X1648200D2*
X1940679D1*
X2027747D2*
X2216378D1*
X2275922D2*
X2445749D1*
X2505293D2*
X2522039D1*
X3238048D2*
X3390401D1*
X3449909D2*
X3503759D1*
X3696541D2*
X3732520D1*
X4137378D2*
X4221227D1*
X420530Y1463287D2*
X562906D1*
X1252002D2*
X1297994D1*
X1386245D2*
X1567843D1*
X2316327D2*
X2445857D1*
X3248850D2*
X3390401D1*
X3449909D2*
X3517502D1*
X3580348D2*
X3638324D1*
X3697868D2*
X3744613D1*
X3811334D2*
X3967634D1*
X4137378D2*
X4221227D1*
X420530Y1438419D2*
X559964D1*
X1242278D2*
X1316833D1*
X1367406D2*
X1572938D1*
X3122430D2*
X3189341D1*
X3248850D2*
X3390401D1*
X3449909D2*
X3638324D1*
X3697868D2*
X3713035D1*
X3955122D2*
X3978506D1*
X4137378D2*
X4221227D1*
X420530Y1413550D2*
X567463D1*
X745102D2*
X2140734D1*
X3123075D2*
X3189341D1*
X3248850D2*
X3390401D1*
X3449909D2*
X3638324D1*
X4137378D2*
X4221227D1*
X420530Y1388681D2*
X592403D1*
X753750D2*
X2216378D1*
X2319951D2*
X2710431D1*
X3134881D2*
X3189341D1*
X3248850D2*
X3390401D1*
X3449909D2*
X3576604D1*
X3745415D2*
X3865400D1*
X4137378D2*
X4221227D1*
X420530Y1363812D2*
X669231D1*
X772769D2*
X2216378D1*
X3141448D2*
X3189341D1*
X3248850D2*
X3390401D1*
X3449909D2*
X3566197D1*
X3737879D2*
X3877062D1*
X4137378D2*
X4221227D1*
X420530Y1338944D2*
X715522D1*
X3073448D2*
X3081904D1*
X3141448D2*
X3189341D1*
X3248850D2*
X3390401D1*
X3449909D2*
X3571723D1*
X3713406D2*
X3881153D1*
X4137378D2*
X4221227D1*
X420530Y1314075D2*
X636792D1*
X715462D2*
X740389D1*
X3141448D2*
X3189341D1*
X3248850D2*
X3390401D1*
X3449909D2*
X3617117D1*
X3682115D2*
X3881153D1*
X3940697D2*
X3963148D1*
X4137378D2*
X4221227D1*
X420530Y1289206D2*
X579305D1*
X721921D2*
X1383434D1*
X2104072D2*
X2984443D1*
X3141448D2*
X3189341D1*
X3248850D2*
X3390401D1*
X3449909D2*
X3622607D1*
X3682115D2*
X3881153D1*
X3940697D2*
X3959918D1*
X4137378D2*
X4221227D1*
X420530Y1264337D2*
X563265D1*
X744097D2*
X1323615D1*
X2108235D2*
X2764903D1*
X2830799D2*
X2949456D1*
X3141448D2*
X3189341D1*
X3248850D2*
X3390401D1*
X3449909D2*
X3622607D1*
X3682115D2*
X3881153D1*
X3940697D2*
X3967059D1*
X4134579D2*
X4221227D1*
X420530Y1239469D2*
X559892D1*
X768965D2*
X1318089D1*
X2108235D2*
X2752451D1*
X3141448D2*
X3189341D1*
X3248850D2*
X3390401D1*
X3449909D2*
X3583278D1*
X3682115D2*
X3881153D1*
X3940697D2*
X3979583D1*
X4111792D2*
X4221227D1*
X420530Y1214600D2*
X566925D1*
X682987D2*
X711718D1*
X793833D2*
X1328495D1*
X1399056D2*
X1539674D1*
X1844199D2*
X1947749D1*
X2108235D2*
X2756363D1*
X3141448D2*
X3189341D1*
X3248850D2*
X3390401D1*
X3449909D2*
X3574738D1*
X3682115D2*
X3881153D1*
X3940697D2*
X3963327D1*
X4086925D2*
X4221227D1*
X420530Y1189731D2*
X579879D1*
X670032D2*
X736586D1*
X818701D2*
X1140749D1*
X1201047D2*
X1501601D1*
X1842979D2*
X1965798D1*
X2108235D2*
X2968582D1*
X3141448D2*
X3178684D1*
X3259507D2*
X3390401D1*
X3449909D2*
X3581879D1*
X3682115D2*
X3881153D1*
X3940697D2*
X3959883D1*
X4090011D2*
X4221227D1*
X420530Y1164862D2*
X563444D1*
X686467D2*
X761453D1*
X843568D2*
X1125893D1*
X1663091D2*
X1779093D1*
X1820192D2*
X1953634D1*
X2106297D2*
X2973678D1*
X3141448D2*
X3173445D1*
X3264746D2*
X3390401D1*
X3449909D2*
X3590778D1*
X3682115D2*
X3881153D1*
X3940697D2*
X3966772D1*
X4083121D2*
X4221227D1*
X420530Y1139993D2*
X559856D1*
X690056D2*
X786321D1*
X868436D2*
X1128261D1*
X3141448D2*
X3184210D1*
X3253981D2*
X3387637D1*
X3452672D2*
X3590778D1*
X3682115D2*
X3881153D1*
X3940697D2*
X3990097D1*
X4059796D2*
X4221227D1*
X420530Y1115125D2*
X566638D1*
X683274D2*
X811189D1*
X3141448D2*
X3374791D1*
X3465518D2*
X3565802D1*
X3682115D2*
X3881153D1*
X3940697D2*
X4221227D1*
X420530Y1090256D2*
X580453D1*
X669458D2*
X836057D1*
X2996153D2*
X3048065D1*
X3682115D2*
X3881153D1*
X3940697D2*
X4221227D1*
X420530Y1065387D2*
X563624D1*
X3682115D2*
X3881153D1*
X3940697D2*
X4221227D1*
X420530Y1040518D2*
X559820D1*
X3099930D2*
X3562752D1*
X3682115D2*
X3881153D1*
X3940697D2*
X4221227D1*
X420530Y1015650D2*
X566387D1*
X683525D2*
X3002851D1*
X3074273D2*
X3590778D1*
X3682115D2*
X3881153D1*
X3940697D2*
X4221227D1*
X420530Y990781D2*
X581063D1*
X668848D2*
X730019D1*
X3084285D2*
X3590778D1*
X3682115D2*
X3881153D1*
X3940697D2*
X4221227D1*
X420530Y965912D2*
X563803D1*
X686073D2*
X705151D1*
X3078436D2*
X3398582D1*
X3519416D2*
X3590778D1*
X3682115D2*
X3881153D1*
X3940697D2*
X4221227D1*
X420530Y941043D2*
X559820D1*
X762398D2*
X778642D1*
X2677573D2*
X3392267D1*
X3543602D2*
X3590778D1*
X3682115D2*
X3881153D1*
X3940697D2*
X4221227D1*
X420530Y916175D2*
X566136D1*
X737818D2*
X753774D1*
X3547191D2*
X3590778D1*
X3682115D2*
X3881153D1*
X3940697D2*
X4221227D1*
X420530Y891306D2*
X581638D1*
X810986D2*
X1257337D1*
X3547191D2*
X3590778D1*
X3682115D2*
X3881153D1*
X3940697D2*
X4221227D1*
X420530Y866437D2*
X564019D1*
X786118D2*
X1268282D1*
X1337658D2*
X1958011D1*
X2544945D2*
X2835165D1*
X3682115D2*
X3881153D1*
X3940697D2*
X4221227D1*
X420530Y841568D2*
X559784D1*
X761250D2*
X1293365D1*
X3682115D2*
X3881153D1*
X3940697D2*
X4221227D1*
X420530Y816699D2*
X565884D1*
X728631D2*
X1289346D1*
X2362941D2*
X2512566D1*
X2875008D2*
X3274495D1*
X3356610D2*
X3410603D1*
X3679280D2*
X3851692D1*
X3940697D2*
X4221227D1*
X420530Y791831D2*
X587236D1*
X662676D2*
X1301761D1*
X1367836D2*
X2284486D1*
X2350561D2*
X2862257D1*
X2887639D2*
X3249627D1*
X3331742D2*
X3393522D1*
X3940697D2*
X4221227D1*
X420530Y766962D2*
X1842751D1*
X1932151D2*
X1942725D1*
X2032160D2*
X2825655D1*
X2924241D2*
X3224759D1*
X3306874D2*
X3394635D1*
X3940697D2*
X4221227D1*
X420530Y742093D2*
X1830694D1*
X2044182D2*
X2507578D1*
X2932566D2*
X3199891D1*
X3282007D2*
X3417027D1*
X3459059D2*
X3858079D1*
X3940697D2*
X4221227D1*
X420530Y717224D2*
X1831412D1*
X2043500D2*
X2482710D1*
X2936227D2*
X3175024D1*
X3257139D2*
X3881153D1*
X3940697D2*
X4221227D1*
X420530Y692356D2*
X1845550D1*
X1929352D2*
X1945560D1*
X2029361D2*
X2457842D1*
X2539957D2*
X2840404D1*
X3232271D2*
X3881153D1*
X3940697D2*
X4221227D1*
X420530Y667487D2*
X1843182D1*
X1931720D2*
X1943191D1*
X2031730D2*
X2432975D1*
X2515090D2*
X2825978D1*
X3207403D2*
X3881153D1*
X3940697D2*
X4221227D1*
X420530Y642618D2*
X577870D1*
X672042D2*
X1830802D1*
X2044074D2*
X2408107D1*
X2490222D2*
X2817366D1*
X3032540D2*
X3881153D1*
X3940697D2*
X3977861D1*
X4072033D2*
X4221227D1*
X420530Y617749D2*
X551423D1*
X698489D2*
X1831269D1*
X2043607D2*
X2325896D1*
X2549897D2*
X2601487D1*
X2687693D2*
X2820739D1*
X3029167D2*
X3534691D1*
X3586412D2*
X3881153D1*
X3940697D2*
X3951449D1*
X4098479D2*
X4221227D1*
X420530Y592881D2*
X539581D1*
X710330D2*
X1845048D1*
X1929855D2*
X1945057D1*
X2029864D2*
X2305012D1*
X2570782D2*
X2580620D1*
X2708577D2*
X2795369D1*
X3604785D2*
X3881153D1*
X4110321D2*
X4221227D1*
X420530Y568012D2*
X536136D1*
X713775D2*
X1943658D1*
X2031263D2*
X2298122D1*
X3604282D2*
X3881153D1*
X4113766D2*
X4221227D1*
X420530Y543143D2*
X540012D1*
X709900D2*
X1930919D1*
X2043966D2*
X2300670D1*
X3032468D2*
X3537454D1*
X3583649D2*
X3881153D1*
X4109891D2*
X4221227D1*
X420530Y518274D2*
X552392D1*
X697520D2*
X1931170D1*
X2043751D2*
X2314019D1*
X2423980D2*
X2451814D1*
X2561775D2*
X2589609D1*
X2699570D2*
X2820560D1*
X3029346D2*
X3881153D1*
X3940697D2*
X3952383D1*
X4097511D2*
X4221227D1*
X420530Y493406D2*
X580238D1*
X669674D2*
X1944555D1*
X2030366D2*
X2346817D1*
X2394052D2*
X2838968D1*
X2910928D2*
X2938977D1*
X3010937D2*
X3881153D1*
X3940697D2*
X3980229D1*
X4069664D2*
X4221227D1*
X420530Y468537D2*
X2326578D1*
X3940553D2*
X4221227D1*
X420530Y443668D2*
X2326291D1*
X3924298D2*
X4221227D1*
X420530Y418799D2*
X2345022D1*
X2395847D2*
X4221227D1*
X2042606Y626860D2*
X2041248Y618285D1*
X2038565Y610028D1*
X2034624Y602293D1*
X2029521Y595269D1*
X2023382Y589130D1*
X2016358Y584027D1*
X2011104Y581229D1*
X2016358Y578375D1*
X2023382Y573272D1*
X2029521Y567133D1*
X2034624Y560109D1*
X2038565Y552373D1*
X2041248Y544117D1*
X2042606Y535542D1*
Y526860D1*
X2041248Y518285D1*
X2038565Y510028D1*
X2034624Y502293D1*
X2029521Y495269D1*
X2023382Y489130D1*
X2016358Y484027D1*
X2008623Y480086D1*
X2000366Y477403D1*
X1991791Y476045D1*
X1983109D1*
X1974534Y477403D1*
X1966277Y480086D1*
X1958542Y484027D1*
X1951518Y489130D1*
X1945379Y495269D1*
X1940276Y502293D1*
X1936335Y510028D1*
X1933652Y518285D1*
X1932294Y526860D1*
Y535542D1*
X1933652Y544117D1*
X1936335Y552373D1*
X1940276Y560109D1*
X1945379Y567133D1*
X1951518Y573272D1*
X1958542Y578375D1*
X1963796Y581172D1*
X1958542Y584027D1*
X1951518Y589130D1*
X1945379Y595269D1*
X1940276Y602293D1*
X1937479Y607547D1*
X1934624Y602293D1*
X1929521Y595269D1*
X1923382Y589130D1*
X1916358Y584027D1*
X1908623Y580086D1*
X1900366Y577403D1*
X1891791Y576045D1*
X1883109D1*
X1874534Y577403D1*
X1866277Y580086D1*
X1858542Y584027D1*
X1851518Y589130D1*
X1845379Y595269D1*
X1840276Y602293D1*
X1836335Y610028D1*
X1833652Y618285D1*
X1832294Y626860D1*
Y635542D1*
X1833652Y644117D1*
X1836335Y652373D1*
X1840276Y660109D1*
X1845379Y667133D1*
X1851518Y673272D1*
X1858542Y678375D1*
X1863796Y681172D1*
X1858542Y684027D1*
X1851518Y689130D1*
X1845379Y695269D1*
X1840276Y702293D1*
X1836335Y710028D1*
X1833652Y718285D1*
X1832294Y726860D1*
Y735542D1*
X1833652Y744117D1*
X1836335Y752373D1*
X1840276Y760109D1*
X1845379Y767133D1*
X1851518Y773272D1*
X1858542Y778375D1*
X1866277Y782316D1*
X1874534Y784999D1*
X1883109Y786357D1*
X1891791D1*
X1900366Y784999D1*
X1908623Y782316D1*
X1916358Y778375D1*
X1923382Y773272D1*
X1929521Y767133D1*
X1934624Y760109D1*
X1937422Y754855D1*
X1940276Y760109D1*
X1945379Y767133D1*
X1951518Y773272D1*
X1958542Y778375D1*
X1966277Y782316D1*
X1974534Y784999D1*
X1983109Y786357D1*
X1991791D1*
X2000366Y784999D1*
X2008623Y782316D1*
X2016358Y778375D1*
X2023382Y773272D1*
X2029521Y767133D1*
X2034624Y760109D1*
X2038565Y752373D1*
X2041248Y744117D1*
X2042606Y735542D1*
Y726860D1*
X2041248Y718285D1*
X2038565Y710028D1*
X2034624Y702293D1*
X2029521Y695269D1*
X2023382Y689130D1*
X2016358Y684027D1*
X2011104Y681229D1*
X2016358Y678375D1*
X2023382Y673272D1*
X2029521Y667133D1*
X2034624Y660109D1*
X2038565Y652373D1*
X2041248Y644117D1*
X2042606Y635542D1*
Y626860D1*
X1937479Y654855D2*
X1940276Y660109D1*
X1945379Y667133D1*
X1951518Y673272D1*
X1958542Y678375D1*
X1963796Y681172D1*
X1958542Y684027D1*
X1951518Y689130D1*
X1945379Y695269D1*
X1940276Y702293D1*
X1937479Y707547D1*
X1934624Y702293D1*
X1929521Y695269D1*
X1923382Y689130D1*
X1916358Y684027D1*
X1911104Y681229D1*
X1916358Y678375D1*
X1923382Y673272D1*
X1929521Y667133D1*
X1934624Y660109D1*
X1937422Y654855D1*
X3974577Y1831004D2*
X3962255D1*
Y1917592D1*
X3857204Y1917619D1*
X3861356Y1910978D1*
X3863958Y1904697D1*
X3865545Y1898086D1*
X3866079Y1891308D1*
X3865545Y1884530D1*
X3863958Y1877919D1*
X3861356Y1871638D1*
X3857804Y1865841D1*
X3853388Y1860671D1*
X3850939Y1858407D1*
X3855698Y1853652D1*
X3859694Y1848151D1*
X3862781Y1842094D1*
X3864881Y1835628D1*
X3865945Y1828913D1*
Y1822114D1*
X3865809Y1820966D1*
X3968504Y1820965D1*
X3971494Y1826460D1*
X3974574Y1830991D1*
X3987148Y1743728D2*
X3980618Y1749367D1*
X3974229Y1756849D1*
X3969088Y1765237D1*
X3968533Y1766442D1*
X3714087Y1766438D1*
X3708528Y1760756D1*
X3703028Y1756760D1*
X3696970Y1753673D1*
X3690504Y1751572D1*
X3683789Y1750509D1*
X3676990D1*
X3670275Y1751572D1*
X3663809Y1753673D1*
X3657752Y1756760D1*
X3652251Y1760756D1*
X3647444Y1765564D1*
X3643448Y1771064D1*
X3640361Y1777122D1*
X3638260Y1783588D1*
X3637197Y1790303D1*
Y1797102D1*
X3638260Y1803817D1*
X3640361Y1810283D1*
X3643448Y1816340D1*
X3647444Y1821841D1*
X3652251Y1826648D1*
X3657752Y1830644D1*
X3663809Y1833731D1*
X3670275Y1835832D1*
X3676990Y1836895D1*
X3683789D1*
X3690504Y1835832D1*
X3696970Y1833731D1*
X3703028Y1830644D1*
X3708528Y1826648D1*
X3713336Y1821841D1*
X3714019Y1820974D1*
X3779681Y1820966D1*
X3779425Y1825513D1*
X3779958Y1832291D1*
X3781546Y1838902D1*
X3784147Y1845183D1*
X3787700Y1850980D1*
X3792115Y1856150D1*
X3794565Y1858414D1*
X3789806Y1863170D1*
X3785810Y1868670D1*
X3782723Y1874728D1*
X3780622Y1881194D1*
X3779559Y1887909D1*
Y1894708D1*
X3780622Y1901423D1*
X3782723Y1907889D1*
X3785810Y1913946D1*
X3788366Y1917620D1*
X3706347Y1917619D1*
X3528773Y1740198D1*
X3525312Y1737684D1*
X3521500Y1735742D1*
X3517431Y1734420D1*
X3513206Y1733750D1*
X3410017Y1733666D1*
X3359384D1*
X3353851Y1727984D1*
X3348351Y1723988D1*
X3342426Y1720963D1*
X3968489Y1720965D1*
X3971494Y1726460D1*
X3977276Y1734419D1*
X3984233Y1741376D1*
X3987148Y1743674D1*
Y1643728D2*
X3980618Y1649367D1*
X3974229Y1656849D1*
X3969088Y1665237D1*
X3968533Y1666442D1*
X3561148Y1666437D1*
X3569668Y1657815D1*
X3572183Y1654353D1*
X3574125Y1650542D1*
X3575447Y1646473D1*
X3576117Y1642247D1*
X3576201Y1539058D1*
Y1529190D1*
X3579573Y1526181D1*
X3582566Y1522816D1*
X3654494Y1522724D1*
X3658719Y1522055D1*
X3662788Y1520733D1*
X3666600Y1518790D1*
X3670061Y1516276D1*
X3688834Y1497503D1*
X3691349Y1494041D1*
X3693291Y1490230D1*
X3694613Y1486161D1*
X3695283Y1481935D1*
X3695367Y1422561D1*
X3699381Y1422270D1*
X3723486Y1446245D1*
X3726947Y1448759D1*
X3730759Y1450702D1*
X3734828Y1452024D1*
X3739054Y1452693D1*
X3763764Y1452777D1*
X3758307Y1455098D1*
X3752510Y1458650D1*
X3747340Y1463065D1*
X3742925Y1468235D1*
X3739372Y1474032D1*
X3736771Y1480313D1*
X3735183Y1486924D1*
X3734650Y1493702D1*
X3735183Y1500480D1*
X3736771Y1507091D1*
X3739372Y1513372D1*
X3742925Y1519169D1*
X3747340Y1524339D1*
X3752510Y1528754D1*
X3758307Y1532307D1*
X3764588Y1534908D1*
X3771199Y1536495D1*
X3777977Y1537029D1*
X3784755Y1536495D1*
X3791365Y1534908D1*
X3797647Y1532307D1*
X3803444Y1528754D1*
X3808613Y1524339D1*
X3811606Y1520974D1*
X3968486Y1520965D1*
X3971494Y1526460D1*
X3977276Y1534419D1*
X3984233Y1541376D1*
X3987148Y1543674D1*
X3980618Y1549367D1*
X3974229Y1556849D1*
X3969088Y1565237D1*
X3965323Y1574326D1*
X3963026Y1583893D1*
X3962255Y1593701D1*
X3963026Y1603509D1*
X3965323Y1613075D1*
X3969088Y1622165D1*
X3974229Y1630553D1*
X3980618Y1638034D1*
X3987148Y1643674D1*
Y1443728D2*
X3980618Y1449367D1*
X3974229Y1456849D1*
X3969088Y1465237D1*
X3968533Y1466442D1*
X3811620Y1466438D1*
X3808613Y1463065D1*
X3803444Y1458650D1*
X3797647Y1455098D1*
X3792126Y1452776D1*
X3929120Y1452693D1*
X3933345Y1452024D1*
X3937414Y1450702D1*
X3941226Y1448759D1*
X3944687Y1446245D1*
X3963460Y1427472D1*
X3965975Y1424010D1*
X3967920Y1420191D1*
X3971494Y1426460D1*
X3977276Y1434419D1*
X3984233Y1441376D1*
X3987148Y1443674D1*
X4080373Y1364448D2*
X4075674Y1356849D1*
X4069285Y1349367D1*
X4062755Y1343728D1*
X4069285Y1338034D1*
X4075674Y1330553D1*
X4080373Y1322953D1*
X4080366Y1364403D1*
X3987148Y1243728D2*
X3980618Y1249367D1*
X3974229Y1256849D1*
X3969088Y1265237D1*
X3965323Y1274326D1*
X3963026Y1283893D1*
X3962255Y1293701D1*
X3963026Y1303509D1*
X3965323Y1313075D1*
X3965782Y1314320D1*
X3938204Y1341892D1*
X3938098Y469189D1*
X3937428Y464963D1*
X3936106Y460895D1*
X3934164Y457083D1*
X3931649Y453622D1*
X3912876Y434849D1*
X3909415Y432334D1*
X3905603Y430392D1*
X3901534Y429070D1*
X3897309Y428400D1*
X3794120Y428316D1*
X2404074D1*
X2401069Y424943D1*
X2395900Y420528D1*
X2391946Y418008D1*
X4223697Y418012D1*
X4223720Y2731561D1*
X418035Y2731594D1*
X418012Y418046D1*
X2348820Y418012D1*
X2342294Y422634D1*
X2337487Y427442D1*
X2333491Y432942D1*
X2330404Y439000D1*
X2328303Y445466D1*
X2327240Y452181D1*
Y458980D1*
X2328303Y465695D1*
X2330404Y472161D1*
X2333491Y478218D1*
X2337487Y483719D1*
X2342294Y488526D1*
X2347795Y492522D1*
X2353744Y495559D1*
X2347797Y497207D1*
X2337851Y501326D1*
X2328673Y506951D1*
X2320487Y513942D1*
X2313496Y522128D1*
X2307871Y531307D1*
X2303751Y541252D1*
X2301238Y551720D1*
X2300394Y562451D1*
X2301238Y573183D1*
X2303751Y583651D1*
X2307871Y593596D1*
X2313496Y602775D1*
X2320487Y610961D1*
X2328673Y617952D1*
X2337851Y623577D1*
X2347797Y627696D1*
X2358264Y630209D1*
X2368996Y631054D1*
X2379728Y630209D1*
X2390195Y627696D1*
X2394203Y626218D1*
X2526290Y758183D1*
X2529751Y760698D1*
X2533563Y762640D1*
X2537631Y763962D1*
X2541857Y764631D1*
X2645046Y764715D1*
X2826799D1*
X2830190Y769972D1*
X2835828Y776573D1*
X2842430Y782212D1*
X2849832Y786748D1*
X2857853Y790070D1*
X2866295Y792097D1*
X2874950Y792778D1*
X2883605Y792097D1*
X2892047Y790070D1*
X2900068Y786748D1*
X2907470Y782212D1*
X2914072Y776573D1*
X2919710Y769972D1*
X2924247Y762569D1*
X2927569Y754548D1*
X2929596Y746106D1*
X2930277Y737451D1*
X2929596Y728796D1*
X2928237Y722723D1*
X2942414Y708545D1*
X3168869Y708529D1*
X3296678Y836370D1*
X2914565Y836375D1*
X2909024Y830693D1*
X2903524Y826697D1*
X2897466Y823610D1*
X2891000Y821509D1*
X2884285Y820446D1*
X2877486D1*
X2876391Y820576D1*
X2866781Y811097D1*
X2863320Y808582D1*
X2859508Y806640D1*
X2855439Y805318D1*
X2851214Y804648D1*
X2748025Y804564D1*
X2536349Y804648D1*
X2532123Y805318D1*
X2528054Y806640D1*
X2524242Y808582D1*
X2520781Y811097D1*
X2499240Y832519D1*
X2359658Y832501D1*
X2360713Y825972D1*
Y819173D1*
X2359649Y812458D1*
X2357549Y805992D1*
X2354462Y799934D1*
X2350466Y794434D1*
X2345658Y789626D1*
X2340158Y785630D1*
X2334100Y782543D1*
X2327634Y780442D1*
X2320919Y779379D1*
X2314120D1*
X2307405Y780442D1*
X2300939Y782543D1*
X2294882Y785630D1*
X2289381Y789626D1*
X2284574Y794434D1*
X2283891Y795300D1*
X1368491Y795308D1*
X1362926Y789626D1*
X1357426Y785630D1*
X1351368Y782543D1*
X1344902Y780442D1*
X1338187Y779379D1*
X1331388D1*
X1324673Y780442D1*
X1318207Y782543D1*
X1312150Y785630D1*
X1306649Y789626D1*
X1301842Y794434D1*
X1297846Y799934D1*
X1294759Y805992D1*
X1292658Y812458D1*
X1291595Y819173D1*
Y825972D1*
X1292658Y832687D1*
X1294759Y839153D1*
X1297846Y845210D1*
X1301842Y850711D1*
X1302977Y852123D1*
X1296199Y852657D1*
X1289588Y854244D1*
X1283307Y856846D1*
X1277510Y860398D1*
X1272340Y864813D1*
X1267925Y869983D1*
X1264372Y875780D1*
X1261771Y882061D1*
X1260183Y888672D1*
X1259650Y895450D1*
X1260183Y902228D1*
X1261771Y908839D1*
X1264372Y915120D1*
X1264898Y916059D1*
X833240Y916060D1*
X740048Y822969D1*
X736587Y820454D1*
X732775Y818512D1*
X728706Y817190D1*
X724481Y816521D1*
X681398Y816437D1*
X678409Y810942D1*
X672627Y802982D1*
X665670Y796026D1*
X657710Y790243D1*
X648944Y785776D1*
X639588Y782736D1*
X629871Y781197D1*
X620032D1*
X610315Y782736D1*
X600958Y785776D1*
X592192Y790243D1*
X584233Y796026D1*
X577276Y802982D1*
X571494Y810942D1*
X567027Y819708D1*
X563987Y829064D1*
X562448Y838782D1*
Y848620D1*
X563987Y858337D1*
X567027Y867694D1*
X571494Y876460D1*
X577276Y884419D1*
X584233Y891376D1*
X587148Y893674D1*
X580618Y899367D1*
X574229Y906849D1*
X569088Y915237D1*
X565323Y924326D1*
X563026Y933893D1*
X562255Y943701D1*
X563026Y953509D1*
X565323Y963075D1*
X569088Y972165D1*
X574229Y980553D1*
X580618Y988034D1*
X587148Y993674D1*
X580618Y999367D1*
X574229Y1006849D1*
X569088Y1015237D1*
X565323Y1024326D1*
X563026Y1033893D1*
X562255Y1043701D1*
X563026Y1053509D1*
X565323Y1063075D1*
X569088Y1072165D1*
X574229Y1080553D1*
X580618Y1088034D1*
X587148Y1093674D1*
X580618Y1099367D1*
X574229Y1106849D1*
X569088Y1115237D1*
X565323Y1124326D1*
X563026Y1133893D1*
X562255Y1143701D1*
X563026Y1153509D1*
X565323Y1163075D1*
X569088Y1172165D1*
X574229Y1180553D1*
X580618Y1188034D1*
X587148Y1193674D1*
X580618Y1199367D1*
X574229Y1206849D1*
X569088Y1215237D1*
X565323Y1224326D1*
X563026Y1233893D1*
X562255Y1243701D1*
X563026Y1253509D1*
X565323Y1263075D1*
X569088Y1272165D1*
X574229Y1280553D1*
X580618Y1288034D1*
X588099Y1294424D1*
X596488Y1299564D1*
X605577Y1303329D1*
X615143Y1305626D1*
X624951Y1306398D1*
X634759Y1305626D1*
X635231Y1305532D1*
X637529Y1310923D1*
X641082Y1316720D1*
X645497Y1321890D1*
X650667Y1326305D1*
X656464Y1329858D1*
X662745Y1332459D1*
X669356Y1334046D1*
X676134Y1334580D1*
X682912Y1334046D1*
X689522Y1332459D1*
X695804Y1329858D1*
X701601Y1326305D1*
X706770Y1321890D1*
X711186Y1316720D1*
X714738Y1310923D1*
X717340Y1304642D1*
X718927Y1298031D1*
X719461Y1291253D1*
X719197Y1286758D1*
X883814Y1122130D1*
X1144326Y1122147D1*
X1140249Y1125734D1*
X1135834Y1130904D1*
X1132281Y1136701D1*
X1129680Y1142982D1*
X1128092Y1149593D1*
X1127559Y1156371D1*
X1128092Y1163149D1*
X1129680Y1169760D1*
X1132281Y1176041D1*
X1135834Y1181838D1*
X1140249Y1187008D1*
X1145419Y1191423D1*
X1151216Y1194976D1*
X1157497Y1197577D1*
X1164108Y1199164D1*
X1170886Y1199698D1*
X1177664Y1199164D1*
X1184274Y1197577D1*
X1190556Y1194976D1*
X1196353Y1191423D1*
X1201522Y1187008D1*
X1204515Y1183643D1*
X1498042Y1183635D1*
X1503597Y1189317D1*
X1509098Y1193313D1*
X1515155Y1196400D1*
X1521621Y1198501D1*
X1528336Y1199564D1*
X1535135D1*
X1541290Y1198612D1*
X1540929Y1204245D1*
X1541462Y1211023D1*
X1542490Y1215651D1*
X1397450Y1215658D1*
X1391922Y1209976D1*
X1386422Y1205980D1*
X1380364Y1202893D1*
X1373898Y1200792D1*
X1367183Y1199729D1*
X1360384D1*
X1353669Y1200792D1*
X1347203Y1202893D1*
X1341146Y1205980D1*
X1335645Y1209976D1*
X1330838Y1214784D1*
X1326842Y1220284D1*
X1323755Y1226342D1*
X1321654Y1232808D1*
X1320591Y1239523D1*
Y1246322D1*
X1321654Y1253037D1*
X1323755Y1259503D1*
X1326842Y1265560D1*
X1330838Y1271061D1*
X1335645Y1275868D1*
X1341146Y1279864D1*
X1347203Y1282951D1*
X1353669Y1285052D1*
X1360384Y1286115D1*
X1367183D1*
X1373898Y1285052D1*
X1380364Y1282951D1*
X1383952Y1281247D1*
X1385570Y1288122D1*
X1388171Y1294403D1*
X1392110Y1300690D1*
X765424Y1300774D1*
X761198Y1301444D1*
X757129Y1302766D1*
X753317Y1304708D1*
X749856Y1307222D1*
X712482Y1344478D1*
X704545Y1344379D1*
X697830Y1345442D1*
X691364Y1347543D1*
X685307Y1350630D1*
X679806Y1354626D1*
X674999Y1359434D1*
X671003Y1364934D1*
X667916Y1370992D1*
X665815Y1377458D1*
X664752Y1384173D1*
Y1390972D1*
X665450Y1395849D1*
X657710Y1390243D1*
X648944Y1385776D1*
X639588Y1382736D1*
X629871Y1381197D1*
X620032D1*
X610315Y1382736D1*
X600958Y1385776D1*
X592192Y1390243D1*
X584233Y1396026D1*
X577276Y1402982D1*
X571494Y1410942D1*
X567027Y1419708D1*
X563987Y1429064D1*
X562448Y1438782D1*
Y1448620D1*
X563987Y1458337D1*
X567027Y1467694D1*
X571494Y1476460D1*
X577276Y1484419D1*
X584233Y1491376D1*
X587148Y1493674D1*
X580618Y1499367D1*
X574229Y1506849D1*
X569088Y1515237D1*
X565323Y1524326D1*
X563026Y1533893D1*
X562255Y1543701D1*
X563026Y1553509D1*
X565323Y1563075D1*
X565782Y1564320D1*
X553036Y1577178D1*
X550522Y1580639D1*
X548579Y1584451D1*
X547257Y1588520D1*
X546588Y1592745D1*
X546504Y1695934D1*
X546588Y2297022D1*
X547257Y2301248D1*
X548579Y2305317D1*
X550522Y2309128D1*
X553036Y2312590D1*
X556061Y2315615D1*
X559522Y2318129D1*
X563334Y2320072D1*
X567403Y2321394D1*
X571629Y2322063D1*
X674818Y2322147D1*
X997730Y2322063D1*
X1001955Y2321394D1*
X1006024Y2320072D1*
X1009836Y2318129D1*
X1013297Y2315615D1*
X1086322Y2242709D1*
X1156481Y2172550D1*
X1532555Y2172553D1*
X1530096Y2176717D1*
X1527495Y2182998D1*
X1525907Y2189609D1*
X1525374Y2196387D1*
X1525907Y2203165D1*
X1527495Y2209776D1*
X1530096Y2216057D1*
X1533649Y2221854D1*
X1538064Y2227024D1*
X1543234Y2231439D1*
X1549031Y2234992D1*
X1555312Y2237593D1*
X1561923Y2239180D1*
X1568701Y2239714D1*
X1570600Y2239639D1*
X1651999Y2320899D1*
X1655710Y2323595D1*
X1659797Y2325677D1*
X1664160Y2327095D1*
X1668690Y2327812D1*
X1753661Y2327903D1*
X2742952D1*
X2746814Y2331616D1*
X2752315Y2335612D1*
X2758372Y2338699D1*
X2764838Y2340800D1*
X2771553Y2341863D1*
X2778352D1*
X2785067Y2340800D1*
X2791533Y2338699D1*
X2797591Y2335612D1*
X2803091Y2331616D1*
X2807899Y2326809D1*
X2811895Y2321308D1*
X2814982Y2315251D1*
X2817082Y2308785D1*
X2818146Y2302070D1*
Y2295271D1*
X2817082Y2288556D1*
X2814982Y2282090D1*
X2811895Y2276032D1*
X2807899Y2270532D1*
X2803091Y2265724D1*
X2797591Y2261728D1*
X2791533Y2258641D1*
X2785067Y2256540D1*
X2778352Y2255477D1*
X2771553D1*
X2764838Y2256540D1*
X2758372Y2258641D1*
X2752315Y2261728D1*
X2746814Y2265724D1*
X2743026Y2269429D1*
X1683105Y2269438D1*
X1612005Y2198351D1*
X1611894Y2192988D1*
X1610830Y2186273D1*
X1608730Y2179807D1*
X1605643Y2173749D1*
X1604838Y2172545D1*
X3647066Y2172553D1*
X3650080Y2175926D1*
X3655250Y2180341D1*
X3661047Y2183894D1*
X3667328Y2186495D1*
X3673939Y2188082D1*
X3680717Y2188616D1*
X3687495Y2188082D1*
X3694105Y2186495D1*
X3700387Y2183894D1*
X3706184Y2180341D1*
X3711353Y2175926D1*
X3715769Y2170756D1*
X3719321Y2164959D1*
X3721923Y2158678D1*
X3723510Y2152067D1*
X3724044Y2145289D1*
X3723774Y2140742D1*
X4094021Y2140658D1*
X4098246Y2139989D1*
X4102315Y2138667D1*
X4106127Y2136724D1*
X4109588Y2134210D1*
X4128361Y2115437D1*
X4130876Y2111975D1*
X4132818Y2108164D1*
X4134140Y2104095D1*
X4134810Y2099869D1*
X4134894Y1996680D1*
X4134810Y1274240D1*
X4134140Y1270015D1*
X4132818Y1265946D1*
X4130876Y1262134D1*
X4128361Y1258673D1*
X4084153Y1214346D1*
X4085916Y1208337D1*
X4087455Y1198620D1*
Y1188782D1*
X4085916Y1179064D1*
X4082876Y1169708D1*
X4078409Y1160942D1*
X4072627Y1152982D1*
X4065670Y1146026D1*
X4057710Y1140243D1*
X4048944Y1135776D1*
X4039588Y1132736D1*
X4029871Y1131197D1*
X4020032D1*
X4010315Y1132736D1*
X4000958Y1135776D1*
X3992192Y1140243D1*
X3984233Y1146026D1*
X3977276Y1152982D1*
X3971494Y1160942D1*
X3967027Y1169708D1*
X3963987Y1179064D1*
X3962448Y1188782D1*
Y1198620D1*
X3963987Y1208337D1*
X3967027Y1217694D1*
X3971494Y1226460D1*
X3977276Y1234419D1*
X3984233Y1241376D1*
X3987148Y1243674D1*
X687648Y2267607D2*
Y2181004D1*
X675340D1*
X678409Y2176460D1*
X682876Y2167694D1*
X685916Y2158337D1*
X687455Y2148620D1*
Y2138782D1*
X685916Y2129064D1*
X682876Y2119708D1*
X678409Y2110942D1*
X672627Y2102982D1*
X665670Y2096026D1*
X662755Y2093728D1*
X669285Y2088034D1*
X675674Y2080553D1*
X680815Y2072165D1*
X684580Y2063075D1*
X686876Y2053509D1*
X687648Y2043701D1*
X686876Y2033893D1*
X684580Y2024326D1*
X680815Y2015237D1*
X675674Y2006849D1*
X669285Y1999367D1*
X662755Y1993728D1*
X669285Y1988034D1*
X675674Y1980553D1*
X680815Y1972165D1*
X684580Y1963075D1*
X686876Y1953509D1*
X687648Y1943701D1*
X686876Y1933893D1*
X684580Y1924326D1*
X680815Y1915237D1*
X675674Y1906849D1*
X669285Y1899367D1*
X662755Y1893728D1*
X669285Y1888034D1*
X675674Y1880553D1*
X680815Y1872165D1*
X684580Y1863075D1*
X686876Y1853509D1*
X687648Y1843701D1*
X686876Y1833893D1*
X684580Y1824326D1*
X680815Y1815237D1*
X675674Y1806849D1*
X669285Y1799367D1*
X662755Y1793728D1*
X669285Y1788034D1*
X675674Y1780553D1*
X680815Y1772165D1*
X684580Y1763075D1*
X686876Y1753509D1*
X687601Y1744911D1*
X1013153Y2070460D1*
X917967Y2070550D1*
X913741Y2071220D1*
X909672Y2072542D1*
X905860Y2074484D1*
X902399Y2076998D1*
X835743Y2143536D1*
X827801Y2143442D1*
X821086Y2144505D1*
X814620Y2146606D1*
X808563Y2149693D1*
X803062Y2153689D1*
X798255Y2158497D1*
X794259Y2163997D1*
X791172Y2170055D1*
X789071Y2176521D1*
X788008Y2183236D1*
Y2190035D1*
X789071Y2196750D1*
X791172Y2203216D1*
X794259Y2209273D1*
X798255Y2214774D1*
X803062Y2219581D1*
X808563Y2223577D1*
X814620Y2226664D1*
X821086Y2228765D1*
X827801Y2229828D1*
X834600D1*
X841315Y2228765D1*
X847781Y2226664D1*
X853839Y2223577D1*
X859339Y2219581D1*
X864147Y2214774D1*
X868143Y2209273D1*
X871230Y2203216D1*
X873330Y2196750D1*
X874394Y2190035D1*
Y2183236D1*
X874264Y2182140D1*
X931397Y2124996D1*
X1126978Y2124994D1*
X984294Y2267623D1*
X687669Y2267619D1*
X687455Y1638782D2*
X685916Y1629064D1*
X682876Y1619708D1*
X678409Y1610942D1*
X672627Y1602982D1*
X665670Y1596026D1*
X662755Y1593728D1*
X669285Y1588034D1*
X675674Y1580553D1*
X680815Y1572165D1*
X684580Y1563075D1*
X686876Y1553509D1*
X687648Y1543701D1*
X686876Y1533893D1*
X684580Y1524326D1*
X680815Y1515237D1*
X675674Y1506849D1*
X669285Y1499367D1*
X662755Y1493728D1*
X669285Y1488034D1*
X675674Y1480553D1*
X680815Y1472165D1*
X681370Y1470960D1*
X1063851Y1470965D1*
X1059037Y1472641D1*
X1052980Y1475728D1*
X1047479Y1479724D1*
X1042672Y1484532D1*
X1038676Y1490032D1*
X1035589Y1496090D1*
X1033488Y1502556D1*
X1032425Y1509271D1*
Y1516070D1*
X1033488Y1522785D1*
X1035589Y1529251D1*
X1038676Y1535308D1*
X1042672Y1540809D1*
X1047479Y1545616D1*
X1052980Y1549612D1*
X1059037Y1552699D1*
X1065503Y1554800D1*
X1072218Y1555863D1*
X1079017D1*
X1085732Y1554800D1*
X1092198Y1552699D1*
X1098256Y1549612D1*
X1103756Y1545616D1*
X1108564Y1540809D1*
X1109247Y1539942D1*
X1156752Y1539934D1*
X1162286Y1545616D1*
X1167787Y1549612D1*
X1173844Y1552699D1*
X1180310Y1554800D1*
X1187025Y1555863D1*
X1193824D1*
X1194972Y1555727D1*
Y1761127D1*
X1190178Y1756362D1*
X1184678Y1752366D1*
X1178620Y1749279D1*
X1172154Y1747178D1*
X1165439Y1746115D1*
X1158640D1*
X1151925Y1747178D1*
X1145459Y1749279D1*
X1139402Y1752366D1*
X1133901Y1756362D1*
X1129094Y1761170D1*
X1125098Y1766670D1*
X1122011Y1772728D1*
X1119910Y1779194D1*
X1118847Y1785909D1*
Y1792708D1*
X1119910Y1799423D1*
X1122011Y1805889D1*
X1125098Y1811946D1*
X1129094Y1817447D1*
X1133901Y1822254D1*
X1134767Y1822937D1*
X1134860Y2024439D1*
X1135529Y2028665D1*
X1136851Y2032734D1*
X1138794Y2036545D1*
X1141308Y2040007D1*
X1142768Y2041584D1*
X1138096Y2042595D1*
X1062416D1*
X684171Y1664364D1*
X685916Y1658337D1*
X687455Y1648620D1*
Y1638782D1*
X687552Y1241260D2*
X686876Y1233893D1*
X684580Y1224326D1*
X680815Y1215237D1*
X675674Y1206849D1*
X669285Y1199367D1*
X662755Y1193728D1*
X669285Y1188034D1*
X675674Y1180553D1*
X680815Y1172165D1*
X684580Y1163075D1*
X686876Y1153509D1*
X687648Y1143701D1*
X686876Y1133893D1*
X684580Y1124326D1*
X680815Y1115237D1*
X675674Y1106849D1*
X669285Y1099367D1*
X662755Y1093728D1*
X669285Y1088034D1*
X675674Y1080553D1*
X680815Y1072165D1*
X681370Y1070960D1*
X859383Y1070965D1*
X854797Y1074151D1*
X781772Y1147058D1*
X687610Y1241220D1*
X681370Y1016442D2*
X678409Y1010942D1*
X672627Y1002982D1*
X665670Y996026D1*
X662755Y993728D1*
X669285Y988034D1*
X675674Y980553D1*
X680815Y972165D1*
X684580Y963075D1*
X686610Y954848D1*
X692197Y955214D1*
X696692Y954951D1*
X750423Y1008552D1*
X753884Y1011066D1*
X757696Y1013009D1*
X761765Y1014331D1*
X765991Y1015000D1*
X869180Y1015084D1*
X3004899D1*
X3006063Y1016437D1*
X681406D1*
X2437387Y557069D2*
X2435703Y546437D1*
X2432376Y536198D1*
X2427489Y526607D1*
X2421162Y517898D1*
X2413550Y510286D1*
X2404841Y503958D1*
X2395249Y499071D1*
X2386003Y496024D1*
X2393071Y492522D1*
X2398571Y488526D1*
X2403379Y483719D1*
X2404062Y482852D1*
X2866029Y482844D1*
X2857853Y484833D1*
X2849832Y488155D1*
X2842430Y492691D1*
X2835828Y498330D1*
X2830190Y504931D1*
X2825654Y512334D1*
X2822331Y520355D1*
X2820305Y528796D1*
X2819623Y537451D1*
X2819680Y538893D1*
X2814405Y536522D1*
X2810245Y535523D1*
X2805972Y535188D1*
X2707550D1*
X2703080Y526607D1*
X2696752Y517898D1*
X2689140Y510286D1*
X2680431Y503958D1*
X2670840Y499071D1*
X2660602Y495745D1*
X2649969Y494061D1*
X2639204D1*
X2628572Y495745D1*
X2618334Y499071D1*
X2608742Y503958D1*
X2600033Y510286D1*
X2592421Y517898D1*
X2586093Y526607D1*
X2581206Y536198D1*
X2577880Y546437D1*
X2576196Y557069D1*
Y567834D1*
X2577880Y578466D1*
X2581206Y588704D1*
X2586093Y598296D1*
X2592421Y607005D1*
X2600033Y614617D1*
X2608742Y620945D1*
X2618334Y625832D1*
X2628572Y629158D1*
X2639204Y630842D1*
X2649969D1*
X2660602Y629158D1*
X2670840Y625832D1*
X2680431Y620945D1*
X2689140Y614617D1*
X2696752Y607005D1*
X2703080Y598296D1*
X2707500Y589717D1*
X2794690Y589715D1*
X2807087Y601997D1*
X2810548Y604511D1*
X2814360Y606454D1*
X2818429Y607776D1*
X2822655Y608445D1*
X2827776Y608543D1*
X2823835Y616279D1*
X2821152Y624536D1*
X2819794Y633111D1*
Y641792D1*
X2821152Y650367D1*
X2823835Y658624D1*
X2827776Y666360D1*
X2832879Y673383D1*
X2839018Y679522D1*
X2846042Y684625D1*
X2851296Y687423D1*
X2846042Y690278D1*
X2839018Y695381D1*
X2832879Y701520D1*
X2827776Y708543D1*
X2826856Y710187D1*
X2555258Y710188D1*
X2432776Y587675D1*
X2435703Y578466D1*
X2437387Y567834D1*
Y557069D1*
X2575182D2*
X2573498Y546437D1*
X2570172Y536198D1*
X2565284Y526607D1*
X2558957Y517898D1*
X2551345Y510286D1*
X2542636Y503958D1*
X2533044Y499071D1*
X2522806Y495745D1*
X2512174Y494061D1*
X2501409D1*
X2490776Y495745D1*
X2480538Y499071D1*
X2470947Y503958D1*
X2462238Y510286D1*
X2454626Y517898D1*
X2448298Y526607D1*
X2443411Y536198D1*
X2440084Y546437D1*
X2438400Y557069D1*
Y567834D1*
X2440084Y578466D1*
X2443411Y588704D1*
X2448298Y598296D1*
X2454626Y607005D1*
X2462238Y614617D1*
X2470947Y620945D1*
X2480538Y625832D1*
X2490776Y629158D1*
X2501409Y630842D1*
X2512174D1*
X2522806Y629158D1*
X2533044Y625832D1*
X2542636Y620945D1*
X2551345Y614617D1*
X2558957Y607005D1*
X2565284Y598296D1*
X2570172Y588704D1*
X2573498Y578466D1*
X2575182Y567834D1*
Y557069D1*
X3030106Y633111D2*
X3028748Y624536D1*
X3026065Y616279D1*
X3022115Y608529D1*
X3526868D1*
X3532405Y614211D1*
X3537906Y618207D1*
X3543963Y621294D1*
X3550429Y623395D1*
X3557144Y624458D1*
X3563943D1*
X3570658Y623395D1*
X3577124Y621294D1*
X3583182Y618207D1*
X3588682Y614211D1*
X3593490Y609404D1*
X3597486Y603903D1*
X3600573Y597846D1*
X3602673Y591380D1*
X3603737Y584665D1*
Y577866D1*
X3602673Y571151D1*
X3600573Y564685D1*
X3597486Y558627D1*
X3593490Y553127D1*
X3588682Y548319D1*
X3583182Y544323D1*
X3577124Y541236D1*
X3570658Y539135D1*
X3563943Y538072D1*
X3557144D1*
X3550429Y539135D1*
X3543963Y541236D1*
X3537906Y544323D1*
X3532405Y548319D1*
X3527598Y553127D1*
X3526915Y553993D1*
X3027771Y554001D1*
X3029596Y546106D1*
X3030277Y537451D1*
X3029596Y528796D1*
X3027569Y520355D1*
X3024247Y512334D1*
X3019710Y504931D1*
X3014072Y498330D1*
X3007470Y492691D1*
X3000068Y488155D1*
X2992047Y484833D1*
X2983788Y482842D1*
X3883633Y482844D1*
X3883654Y738199D1*
X3879107Y737938D1*
X3872329Y738472D1*
X3865718Y740059D1*
X3859437Y742661D1*
X3853640Y746213D1*
X3848470Y750628D1*
X3845478Y753993D1*
X3471714Y754001D1*
X3466182Y748319D1*
X3460682Y744323D1*
X3454624Y741236D1*
X3448158Y739135D1*
X3441443Y738072D1*
X3434644D1*
X3427929Y739135D1*
X3421463Y741236D1*
X3415406Y744323D1*
X3409905Y748319D1*
X3405098Y753127D1*
X3401102Y758627D1*
X3398015Y764685D1*
X3395914Y771151D1*
X3394851Y777866D1*
Y784665D1*
X3395914Y791380D1*
X3398015Y797846D1*
X3401102Y803903D1*
X3405098Y809404D1*
X3409905Y814211D1*
X3414533Y817624D1*
X3355077Y817623D1*
X3197836Y660534D1*
X3194375Y658019D1*
X3190563Y656077D1*
X3186494Y654755D1*
X3182269Y654085D1*
X3079080Y654001D1*
X3027730D1*
X3029596Y646106D1*
X3030277Y637451D1*
X3030106Y633111D1*
X2966112Y482842D2*
X2957853Y484833D1*
X2949832Y488155D1*
X2942430Y492691D1*
X2935828Y498330D1*
X2930190Y504931D1*
X2925654Y512334D1*
X2924979Y513798D1*
X2922124Y508543D1*
X2917021Y501520D1*
X2910882Y495381D1*
X2903858Y490278D1*
X2896123Y486336D1*
X2887866Y483653D1*
X2883788Y482842D1*
X2966074Y482844D1*
X2205630Y2606854D2*
X2224965Y2587519D1*
X2245643Y2608122D1*
X2250202Y2611169D1*
X2255347Y2613067D1*
X2260800Y2613711D1*
X2290940Y2613640D1*
X2296319Y2612570D1*
X2301299Y2610274D1*
X2305610Y2606874D1*
X2324965Y2587519D1*
X2345643Y2608122D1*
X2350202Y2611169D1*
X2355347Y2613067D1*
X2360800Y2613711D1*
X2390940Y2613639D1*
X2396319Y2612570D1*
X2401298Y2610274D1*
X2405610Y2606874D1*
X2424965Y2587519D1*
X2445643Y2608122D1*
X2450203Y2611169D1*
X2455347Y2613067D1*
X2460800Y2613711D1*
X2490940Y2613639D1*
X2496319Y2612570D1*
X2501298Y2610274D1*
X2505610Y2606874D1*
X2524965Y2587519D1*
X2545643Y2608122D1*
X2550202Y2611169D1*
X2555347Y2613067D1*
X2560800Y2613711D1*
X2590940Y2613640D1*
X2596319Y2612570D1*
X2601299Y2610274D1*
X2605610Y2606874D1*
X2626873Y2585509D1*
X2629920Y2580950D1*
X2631818Y2575805D1*
X2632462Y2570352D1*
X2632390Y2540212D1*
X2631320Y2534834D1*
X2629025Y2529854D1*
X2625624Y2525543D1*
X2606269Y2506187D1*
X2626873Y2485509D1*
X2629920Y2480950D1*
X2631817Y2475805D1*
X2632462Y2470360D1*
X2632390Y2440212D1*
X2631320Y2434834D1*
X2629025Y2429854D1*
X2625624Y2425543D1*
X2604260Y2404279D1*
X2599700Y2401233D1*
X2594556Y2399335D1*
X2589103Y2398690D1*
X2558962Y2398762D1*
X2553584Y2399832D1*
X2548604Y2402128D1*
X2544293Y2405528D1*
X2524938Y2424883D1*
X2504260Y2404279D1*
X2499700Y2401233D1*
X2494556Y2399335D1*
X2489103Y2398690D1*
X2458962Y2398762D1*
X2453584Y2399832D1*
X2448604Y2402128D1*
X2444293Y2405528D1*
X2424938Y2424883D1*
X2404260Y2404279D1*
X2399700Y2401233D1*
X2394556Y2399335D1*
X2389103Y2398691D1*
X2358962Y2398762D1*
X2353584Y2399832D1*
X2348604Y2402128D1*
X2344293Y2405528D1*
X2324938Y2424883D1*
X2304260Y2404279D1*
X2299700Y2401233D1*
X2294556Y2399335D1*
X2289103Y2398690D1*
X2258962Y2398762D1*
X2253584Y2399832D1*
X2248604Y2402128D1*
X2244293Y2405528D1*
X2224938Y2424883D1*
X2204260Y2404279D1*
X2199700Y2401233D1*
X2194556Y2399335D1*
X2189103Y2398690D1*
X2158962Y2398762D1*
X2153584Y2399832D1*
X2148604Y2402128D1*
X2144293Y2405528D1*
X2123030Y2426892D1*
X2119983Y2431452D1*
X2118085Y2436596D1*
X2117441Y2442049D1*
X2117513Y2472190D1*
X2118583Y2477568D1*
X2120878Y2482548D1*
X2124303Y2486884D1*
X2143633Y2506214D1*
X2123030Y2526892D1*
X2119983Y2531452D1*
X2118085Y2536596D1*
X2117441Y2542049D1*
X2117513Y2572190D1*
X2118583Y2577568D1*
X2120878Y2582548D1*
X2124303Y2586884D1*
X2145643Y2608122D1*
X2150203Y2611169D1*
X2155347Y2613067D1*
X2160800Y2613711D1*
X2190940Y2613639D1*
X2196319Y2612570D1*
X2201298Y2610274D1*
X2205610Y2606874D1*
X2224945Y2524862D2*
X2206269Y2506187D1*
X2224965Y2487519D1*
X2243633Y2506214D1*
X2224938Y2524883D1*
X2223967Y2523885D1*
X2225926Y2523895D1*
X2324945Y2524862D2*
X2306269Y2506187D1*
X2324965Y2487519D1*
X2343633Y2506215D1*
X2324938Y2524883D1*
X2323967Y2523885D1*
X2424945Y2524862D2*
X2406269Y2506187D1*
X2424965Y2487519D1*
X2443633Y2506214D1*
X2425926Y2523895D1*
X2524945Y2524862D2*
X2506269Y2506187D1*
X2524965Y2487519D1*
X2543633Y2506214D1*
X2524938Y2524883D1*
X2523967Y2523885D1*
X2525926Y2523895D1*
X2632462Y2560392D2*
Y2550377D1*
Y2460392D2*
Y2450377D1*
X711004Y2561928D2*
X710208Y2555198D1*
X708885Y2548550D1*
X707046Y2542027D1*
X704700Y2535668D1*
X701862Y2529513D1*
X698550Y2523599D1*
X694785Y2517964D1*
X690589Y2512641D1*
X685988Y2507664D1*
X681011Y2503063D1*
X675688Y2498867D1*
X670053Y2495102D1*
X664139Y2491790D1*
X657984Y2488953D1*
X651625Y2486607D1*
X645102Y2484767D1*
X638455Y2483445D1*
X631724Y2482648D1*
X624951Y2482382D1*
X618179Y2482648D1*
X611448Y2483445D1*
X604801Y2484767D1*
X598277Y2486607D1*
X591919Y2488953D1*
X585763Y2491790D1*
X579850Y2495102D1*
X574214Y2498867D1*
X568892Y2503063D1*
X563915Y2507664D1*
X559314Y2512641D1*
X555118Y2517964D1*
X551352Y2523599D1*
X548041Y2529513D1*
X545203Y2535668D1*
X542857Y2542027D1*
X541018Y2548550D1*
X539695Y2555198D1*
X538899Y2561928D1*
X538633Y2568701D1*
X538899Y2575473D1*
X539695Y2582204D1*
X541018Y2588852D1*
X542857Y2595375D1*
X545203Y2601734D1*
X548041Y2607889D1*
X551352Y2613802D1*
X555118Y2619438D1*
X559314Y2624760D1*
X563915Y2629737D1*
X568892Y2634338D1*
X574214Y2638534D1*
X579850Y2642300D1*
X585763Y2645611D1*
X591919Y2648449D1*
X598277Y2650795D1*
X604801Y2652635D1*
X611448Y2653957D1*
X618179Y2654754D1*
X624951Y2655020D1*
X631724Y2654754D1*
X638455Y2653957D1*
X645102Y2652635D1*
X651625Y2650795D1*
X657984Y2648449D1*
X664139Y2645611D1*
X670053Y2642300D1*
X675688Y2638534D1*
X681011Y2634338D1*
X685988Y2629737D1*
X690589Y2624760D1*
X694785Y2619438D1*
X698550Y2613802D1*
X701862Y2607889D1*
X704700Y2601734D1*
X707046Y2595375D1*
X708885Y2588852D1*
X710208Y2582204D1*
X711004Y2575473D1*
X711270Y2568701D1*
X711004Y2561928D1*
Y561928D2*
X710208Y555198D1*
X708885Y548550D1*
X707046Y542027D1*
X704700Y535668D1*
X701862Y529513D1*
X698550Y523599D1*
X694785Y517964D1*
X690589Y512641D1*
X685988Y507664D1*
X681011Y503063D1*
X675688Y498867D1*
X670053Y495102D1*
X664139Y491790D1*
X657984Y488953D1*
X651625Y486607D1*
X645102Y484767D1*
X638455Y483445D1*
X631724Y482648D1*
X624951Y482382D1*
X618179Y482648D1*
X611448Y483445D1*
X604801Y484767D1*
X598277Y486607D1*
X591919Y488953D1*
X585763Y491790D1*
X579850Y495102D1*
X574214Y498867D1*
X568892Y503063D1*
X563915Y507664D1*
X559314Y512641D1*
X555118Y517964D1*
X551352Y523599D1*
X548041Y529513D1*
X545203Y535668D1*
X542857Y542027D1*
X541018Y548550D1*
X539695Y555198D1*
X538899Y561928D1*
X538633Y568701D1*
X538899Y575473D1*
X539695Y582204D1*
X541018Y588852D1*
X542857Y595375D1*
X545203Y601734D1*
X548041Y607889D1*
X551352Y613802D1*
X555118Y619438D1*
X559314Y624760D1*
X563915Y629737D1*
X568892Y634338D1*
X574214Y638534D1*
X579850Y642300D1*
X585763Y645611D1*
X591919Y648449D1*
X598277Y650795D1*
X604801Y652635D1*
X611448Y653957D1*
X618179Y654754D1*
X624951Y655020D1*
X631724Y654754D1*
X638455Y653957D1*
X645102Y652635D1*
X651625Y650795D1*
X657984Y648449D1*
X664139Y645611D1*
X670053Y642300D1*
X675688Y638534D1*
X681011Y634338D1*
X685988Y629737D1*
X690589Y624760D1*
X694785Y619438D1*
X698550Y613802D1*
X701862Y607889D1*
X704700Y601734D1*
X707046Y595375D1*
X708885Y588852D1*
X710208Y582204D1*
X711004Y575473D1*
X711270Y568701D1*
X711004Y561928D1*
X4111004D2*
X4110208Y555198D1*
X4108885Y548550D1*
X4107046Y542027D1*
X4104700Y535668D1*
X4101862Y529513D1*
X4098550Y523599D1*
X4094785Y517964D1*
X4090589Y512641D1*
X4085988Y507664D1*
X4081011Y503063D1*
X4075688Y498867D1*
X4070053Y495102D1*
X4064139Y491790D1*
X4057984Y488953D1*
X4051625Y486607D1*
X4045102Y484767D1*
X4038455Y483445D1*
X4031724Y482648D1*
X4024951Y482382D1*
X4018179Y482648D1*
X4011448Y483445D1*
X4004801Y484767D1*
X3998277Y486607D1*
X3991919Y488953D1*
X3985763Y491790D1*
X3979850Y495102D1*
X3974214Y498867D1*
X3968892Y503063D1*
X3963915Y507664D1*
X3959314Y512641D1*
X3955118Y517964D1*
X3951352Y523599D1*
X3948041Y529513D1*
X3945203Y535668D1*
X3942857Y542027D1*
X3941018Y548550D1*
X3939695Y555198D1*
X3938899Y561928D1*
X3938633Y568701D1*
X3938899Y575473D1*
X3939695Y582204D1*
X3941018Y588852D1*
X3942857Y595375D1*
X3945203Y601734D1*
X3948041Y607889D1*
X3951352Y613802D1*
X3955118Y619438D1*
X3959314Y624760D1*
X3963915Y629737D1*
X3968892Y634338D1*
X3974214Y638534D1*
X3979850Y642300D1*
X3985763Y645611D1*
X3991919Y648449D1*
X3998277Y650795D1*
X4004801Y652635D1*
X4011448Y653957D1*
X4018179Y654754D1*
X4024951Y655020D1*
X4031724Y654754D1*
X4038455Y653957D1*
X4045102Y652635D1*
X4051625Y650795D1*
X4057984Y648449D1*
X4064139Y645611D1*
X4070053Y642300D1*
X4075688Y638534D1*
X4081011Y634338D1*
X4085988Y629737D1*
X4090589Y624760D1*
X4094785Y619438D1*
X4098550Y613802D1*
X4101862Y607889D1*
X4104700Y601734D1*
X4107046Y595375D1*
X4108885Y588852D1*
X4110208Y582204D1*
X4111004Y575473D1*
X4111270Y568701D1*
X4111004Y561928D1*
Y2549428D2*
X4110208Y2542698D1*
X4108885Y2536050D1*
X4107046Y2529527D1*
X4104700Y2523168D1*
X4101862Y2517013D1*
X4098550Y2511099D1*
X4094785Y2505464D1*
X4090589Y2500141D1*
X4085988Y2495164D1*
X4081011Y2490563D1*
X4075688Y2486367D1*
X4070053Y2482602D1*
X4064139Y2479290D1*
X4057984Y2476453D1*
X4051625Y2474107D1*
X4045102Y2472267D1*
X4038455Y2470945D1*
X4031724Y2470148D1*
X4024951Y2469882D1*
X4018179Y2470148D1*
X4011448Y2470945D1*
X4004801Y2472267D1*
X3998277Y2474107D1*
X3991919Y2476453D1*
X3985763Y2479290D1*
X3979850Y2482602D1*
X3974214Y2486367D1*
X3968892Y2490563D1*
X3963915Y2495164D1*
X3959314Y2500141D1*
X3955118Y2505464D1*
X3951352Y2511099D1*
X3948041Y2517013D1*
X3945203Y2523168D1*
X3942857Y2529527D1*
X3941018Y2536050D1*
X3939695Y2542698D1*
X3938899Y2549428D1*
X3938633Y2556201D1*
X3938899Y2562973D1*
X3939695Y2569704D1*
X3941018Y2576352D1*
X3942857Y2582875D1*
X3945203Y2589234D1*
X3948041Y2595389D1*
X3951352Y2601302D1*
X3955118Y2606938D1*
X3959314Y2612260D1*
X3963915Y2617237D1*
X3968892Y2621838D1*
X3974214Y2626034D1*
X3979850Y2629800D1*
X3985763Y2633111D1*
X3991919Y2635949D1*
X3998277Y2638295D1*
X4004801Y2640135D1*
X4011448Y2641457D1*
X4018179Y2642254D1*
X4024951Y2642520D1*
X4031724Y2642254D1*
X4038455Y2641457D1*
X4045102Y2640135D1*
X4051625Y2638295D1*
X4057984Y2635949D1*
X4064139Y2633111D1*
X4070053Y2629800D1*
X4075688Y2626034D1*
X4081011Y2621838D1*
X4085988Y2617237D1*
X4090589Y2612260D1*
X4094785Y2606938D1*
X4098550Y2601302D1*
X4101862Y2595389D1*
X4104700Y2589234D1*
X4107046Y2582875D1*
X4108885Y2576352D1*
X4110208Y2569704D1*
X4111004Y2562973D1*
X4111270Y2556201D1*
X4111004Y2549428D1*
X1189312Y1822937D2*
X1192676Y1819945D1*
X1194972Y1817717D1*
X1195056Y1883530D1*
X1195725Y1887756D1*
X1197047Y1891825D1*
X1198990Y1895636D1*
X1201504Y1899098D1*
X1202963Y1900675D1*
X1202821Y1901909D1*
X1196210Y1903496D1*
X1189314Y1906442D1*
X1189304Y1822963D1*
X3738079Y1375807D2*
X3737015Y1369092D1*
X3734915Y1362626D1*
X3731828Y1356568D1*
X3727832Y1351068D1*
X3723024Y1346260D1*
X3717524Y1342264D1*
X3711466Y1339177D1*
X3705000Y1337076D1*
X3698285Y1336013D1*
X3691486D1*
X3684771Y1337076D1*
X3678305Y1339177D1*
X3672248Y1342264D1*
X3666747Y1346260D1*
X3661940Y1351068D1*
X3657944Y1356568D1*
X3655185Y1361914D1*
X3654953Y1355861D1*
X3673086Y1337598D1*
X3675601Y1334136D1*
X3677543Y1330325D1*
X3678865Y1326256D1*
X3679535Y1322030D1*
X3679619Y1218841D1*
X3679535Y826685D1*
X3678865Y822460D1*
X3677543Y818391D1*
X3675601Y814579D1*
X3673086Y811118D1*
X3671627Y809540D1*
X3676889Y808529D1*
X3845437D1*
X3850968Y814211D1*
X3856469Y818207D1*
X3862526Y821294D1*
X3868992Y823395D1*
X3875707Y824458D1*
X3882506D1*
X3883654Y824322D1*
Y1360000D1*
X3877972Y1365564D1*
X3873976Y1371064D1*
X3870889Y1377122D1*
X3868788Y1383588D1*
X3867725Y1390303D1*
Y1397102D1*
X3867860Y1398250D1*
X3752476Y1398249D1*
X3737965Y1383728D1*
X3738213Y1379206D1*
X3738079Y1375807D1*
X3651621Y1377626D2*
X3651822Y1383701D1*
X3646046Y1389964D1*
X3643811Y1393612D1*
X3642173Y1397564D1*
X3641175Y1401724D1*
X3640839Y1405989D1*
Y1468248D1*
X3582632Y1468280D1*
X3577075Y1462598D1*
X3571575Y1458602D1*
X3565517Y1455515D1*
X3559051Y1453414D1*
X3552336Y1452351D1*
X3545537D1*
X3538822Y1453414D1*
X3532356Y1455515D1*
X3526299Y1458602D1*
X3520798Y1462598D1*
X3515991Y1467406D1*
X3511995Y1472906D1*
X3508908Y1478964D1*
X3506807Y1485430D1*
X3505744Y1492145D1*
Y1498944D1*
X3506807Y1505659D1*
X3508908Y1512125D1*
X3511995Y1518182D1*
X3515991Y1523683D1*
X3520798Y1528490D1*
X3521664Y1529173D1*
X3521673Y1628567D1*
X3438419Y1628592D1*
X3442207Y1624321D1*
X3444442Y1620674D1*
X3446079Y1616721D1*
X3447078Y1612561D1*
X3447414Y1608296D1*
Y1142412D1*
X3453096Y1136876D1*
X3457092Y1131375D1*
X3460179Y1125318D1*
X3462279Y1118852D1*
X3463343Y1112137D1*
Y1105338D1*
X3463207Y1104190D1*
X3555053D1*
X3560593Y1109872D1*
X3566094Y1113868D1*
X3572151Y1116955D1*
X3578617Y1119056D1*
X3585332Y1120119D1*
X3592131D1*
X3593279Y1119983D1*
X3593280Y1179898D1*
X3587598Y1185466D1*
X3583602Y1190966D1*
X3580515Y1197024D1*
X3578414Y1203490D1*
X3577351Y1210205D1*
Y1217004D1*
X3578414Y1223719D1*
X3580515Y1230185D1*
X3583602Y1236242D1*
X3587598Y1241743D1*
X3592405Y1246550D1*
X3597906Y1250546D1*
X3603963Y1253633D1*
X3610429Y1255734D1*
X3617144Y1256797D1*
X3623943D1*
X3625091Y1256661D1*
Y1308632D1*
X3616406Y1317283D1*
X3611890Y1317029D1*
X3605112Y1317563D1*
X3598501Y1319150D1*
X3592220Y1321752D1*
X3586423Y1325304D1*
X3581253Y1329719D1*
X3576838Y1334889D1*
X3573285Y1340686D1*
X3570684Y1346967D1*
X3569096Y1353578D1*
X3568563Y1360356D1*
X3569096Y1367134D1*
X3570684Y1373745D1*
X3573285Y1380026D1*
X3576838Y1385823D1*
X3581253Y1390993D1*
X3586423Y1395408D1*
X3592220Y1398961D1*
X3598501Y1401562D1*
X3605112Y1403149D1*
X3611890Y1403683D1*
X3618668Y1403149D1*
X3625278Y1401562D1*
X3631560Y1398961D1*
X3637357Y1395408D1*
X3642526Y1390993D1*
X3646942Y1385823D1*
X3650494Y1380026D1*
X3651590Y1377649D1*
X2327330Y1397647D2*
X2324337Y1394282D1*
X2319168Y1389867D1*
X2313371Y1386315D1*
X2307089Y1383713D1*
X2300479Y1382126D1*
X2293701Y1381592D1*
X2286923Y1382126D1*
X2280312Y1383713D1*
X2273416Y1386659D1*
X2273406Y1370938D1*
X2715789Y1370966D1*
X2714071Y1376564D1*
X2713008Y1383279D1*
Y1390078D1*
X2714313Y1397650D1*
X2327381Y1397655D1*
X2273416Y1463179D2*
X2280312Y1466125D1*
X2286923Y1467712D1*
X2293701Y1468246D1*
X2300479Y1467712D1*
X2307089Y1466125D1*
X2313371Y1463524D1*
X2319168Y1459971D1*
X2324337Y1455556D1*
X2327330Y1452191D1*
X2451842Y1452183D1*
X2449582Y1457308D1*
X2448584Y1461468D1*
X2448248Y1465741D1*
Y1597536D1*
X2442566Y1603068D1*
X2438570Y1608568D1*
X2435483Y1614626D1*
X2433382Y1621092D1*
X2432319Y1627807D1*
Y1634606D1*
X2433382Y1641321D1*
X2435483Y1647787D1*
X2438570Y1653844D1*
X2442566Y1659345D1*
X2447373Y1664152D1*
X2453627Y1668570D1*
X2378759Y1668652D1*
X2374533Y1669322D1*
X2370464Y1670644D1*
X2366652Y1672586D1*
X2363191Y1675100D1*
X2353423Y1684749D1*
X2350115Y1678092D1*
X2346119Y1672592D1*
X2341311Y1667784D1*
X2335811Y1663788D1*
X2329753Y1660701D1*
X2323287Y1658600D1*
X2316572Y1657537D1*
X2309773D1*
X2303058Y1658600D1*
X2296592Y1660701D1*
X2290535Y1663788D1*
X2285034Y1667784D1*
X2280227Y1672592D1*
X2279544Y1673458D1*
X2273018Y1673466D1*
X2273405Y1668804D1*
X2273406Y1463232D1*
X3121953Y1421520D2*
X3120889Y1414805D1*
X3118789Y1408339D1*
X3116838Y1404310D1*
X3132404Y1388637D1*
X3134919Y1385175D1*
X3136861Y1381364D1*
X3138183Y1377295D1*
X3138853Y1373069D1*
X3138937Y1269880D1*
Y1104203D1*
X3377067Y1104190D1*
X3376957Y1112137D1*
X3378020Y1118852D1*
X3380121Y1125318D1*
X3383208Y1131375D1*
X3387204Y1136876D1*
X3392011Y1141683D1*
X3392877Y1142366D1*
X3392886Y1596798D1*
X3096695Y1596780D1*
X3091150Y1591098D1*
X3085650Y1587102D1*
X3079592Y1584015D1*
X3073126Y1581914D1*
X3066411Y1580851D1*
X3059612D1*
X3052897Y1581914D1*
X3046431Y1584015D1*
X3040374Y1587102D1*
X3034873Y1591098D1*
X3030066Y1595906D1*
X3026070Y1601406D1*
X3022983Y1607464D1*
X3020882Y1613930D1*
X3019819Y1620645D1*
Y1627444D1*
X3020882Y1634159D1*
X3022983Y1640625D1*
X3026070Y1646682D1*
X3030066Y1652183D1*
X3034873Y1656990D1*
X3040374Y1660986D1*
X3046431Y1664073D1*
X3052897Y1666174D1*
X3054214Y1666436D1*
X2755190Y1666437D1*
X2754624Y1659908D1*
X2753037Y1653297D1*
X2750435Y1647016D1*
X2746883Y1641219D1*
X2742467Y1636049D1*
X2737298Y1631634D1*
X2731501Y1628082D1*
X2725219Y1625480D1*
X2718609Y1623893D1*
X2711831Y1623359D1*
X2705053Y1623893D1*
X2698442Y1625480D1*
X2692161Y1628082D1*
X2687745Y1630711D1*
X2683273Y1628082D1*
X2676991Y1625480D1*
X2670381Y1623893D1*
X2663603Y1623359D1*
X2656825Y1623893D1*
X2650214Y1625480D1*
X2643666Y1628231D1*
X2643658Y1572708D1*
X2863616Y1572599D1*
X2867841Y1571930D1*
X2871910Y1570608D1*
X2875722Y1568665D1*
X2879183Y1566151D1*
X2897956Y1547378D1*
X2900471Y1543916D1*
X2902413Y1540105D1*
X2903735Y1536036D1*
X2904405Y1531810D1*
X2904488Y1529663D1*
X2905636Y1524989D1*
X2912435D1*
X2919150Y1523926D1*
X2925616Y1521825D1*
X2931674Y1518738D1*
X2937174Y1514742D1*
X2941982Y1509935D1*
X2942665Y1509068D1*
X3205482Y1508976D1*
X3209707Y1508307D1*
X3213776Y1506985D1*
X3217588Y1505042D1*
X3221049Y1502528D1*
X3239822Y1483755D1*
X3242337Y1480293D1*
X3244279Y1476482D1*
X3245601Y1472413D1*
X3246271Y1468187D1*
X3246355Y1364998D1*
Y1202479D1*
X3252037Y1196916D1*
X3256033Y1191415D1*
X3259120Y1185358D1*
X3261220Y1178892D1*
X3262284Y1172177D1*
Y1165378D1*
X3261220Y1158663D1*
X3259120Y1152197D1*
X3256033Y1146139D1*
X3252037Y1140639D1*
X3247229Y1135831D1*
X3241729Y1131835D1*
X3235671Y1128748D1*
X3229205Y1126647D1*
X3222490Y1125584D1*
X3215691D1*
X3208976Y1126647D1*
X3202510Y1128748D1*
X3196453Y1131835D1*
X3190952Y1135831D1*
X3186145Y1140639D1*
X3182149Y1146139D1*
X3179062Y1152197D1*
X3176961Y1158663D1*
X3175898Y1165378D1*
Y1172177D1*
X3176961Y1178892D1*
X3179062Y1185358D1*
X3182149Y1191415D1*
X3186145Y1196916D1*
X3190952Y1201723D1*
X3191818Y1202406D1*
X3191827Y1454523D1*
X3110367Y1454532D1*
X3113812Y1450386D1*
X3117364Y1444589D1*
X3119966Y1438308D1*
X3121553Y1431697D1*
X3122087Y1424919D1*
X3121953Y1421520D1*
X3045131Y1452191D2*
X3047176Y1454531D1*
X2942716Y1454532D1*
X2940620Y1452184D1*
X3045080Y1452183D1*
X1334668Y865894D2*
X1341566Y865365D1*
X1348176Y863778D1*
X1354458Y861177D1*
X1360255Y857624D1*
X1365424Y853209D1*
X1368417Y849844D1*
X1961146Y849836D1*
X1960138Y856366D1*
Y863165D1*
X1960867Y868198D1*
X1336648Y868186D1*
X1334615Y865897D1*
X3274462Y1651309D2*
X3274193Y1655856D1*
X3274726Y1662634D1*
X3275524Y1666444D1*
X3071975Y1666437D1*
X3079592Y1664073D1*
X3085650Y1660986D1*
X3091150Y1656990D1*
X3095958Y1652183D1*
X3096641Y1651316D1*
X3274406Y1651308D1*
X1416819Y2034649D2*
X1415755Y2027934D1*
X1413655Y2021468D1*
X1412903Y2019838D1*
X1833522Y2019836D1*
X1852378Y2038676D1*
X1709451Y2038739D1*
X1705225Y2039409D1*
X1701156Y2040731D1*
X1699205Y2041631D1*
X1689277Y2042595D1*
X1416737D1*
X1416819Y2034649D1*
X1983296Y1199605D2*
X1976266Y1200129D1*
X1969655Y1201716D1*
X1963374Y1204318D1*
X1957577Y1207870D1*
X1952407Y1212285D1*
X1949415Y1215650D1*
X1841409Y1215658D1*
X1842431Y1211023D1*
X1842965Y1204245D1*
X1842431Y1197467D1*
X1840844Y1190856D1*
X1838242Y1184575D1*
X1834690Y1178778D1*
X1830274Y1173608D1*
X1825105Y1169193D1*
X1819308Y1165641D1*
X1813026Y1163039D1*
X1806416Y1161452D1*
X1799638Y1160918D1*
X1792860Y1161452D1*
X1786249Y1163039D1*
X1779968Y1165641D1*
X1774171Y1169193D1*
X1769001Y1173608D1*
X1766009Y1176973D1*
X1656209Y1176981D1*
X1658139Y1172956D1*
X1660239Y1166490D1*
X1661303Y1159775D1*
X1661341Y1153945D1*
X1956144Y1153958D1*
X1955783Y1159265D1*
X1956316Y1166043D1*
X1957904Y1172654D1*
X1960505Y1178935D1*
X1964058Y1184732D1*
X1968473Y1189902D1*
X1973643Y1194317D1*
X1979440Y1197870D1*
X1983340Y1199593D1*
X1621403Y1416644D2*
X1616864Y1416013D1*
X1610065D1*
X1603350Y1417076D1*
X1596884Y1419177D1*
X1590827Y1422264D1*
X1585326Y1426260D1*
X1580519Y1431068D1*
X1576523Y1436568D1*
X1573436Y1442626D1*
X1571335Y1449092D1*
X1570272Y1455807D1*
Y1462606D1*
X1571335Y1469321D1*
X1573436Y1475787D1*
X1576523Y1481844D1*
X1580519Y1487345D1*
X1585326Y1492152D1*
X1590827Y1496148D1*
X1596884Y1499235D1*
X1603350Y1501336D1*
X1610065Y1502399D1*
X1616864D1*
X1623579Y1501336D1*
X1630045Y1499235D1*
X1636103Y1496148D1*
X1641603Y1492152D1*
X1646411Y1487345D1*
X1650407Y1481844D1*
X1653494Y1475787D1*
X1655483Y1469717D1*
X1941165Y1469706D1*
X1940898Y1474253D1*
X1941431Y1481031D1*
X1943019Y1487642D1*
X1945620Y1493923D1*
X1949173Y1499720D1*
X1953588Y1504890D1*
X1956952Y1507882D1*
X1956961Y1597731D1*
X1952022Y1595795D1*
X1945412Y1594208D1*
X1938634Y1593674D1*
X1931856Y1594208D1*
X1925245Y1595795D1*
X1918964Y1598397D1*
X1913167Y1601949D1*
X1907997Y1606364D1*
X1905005Y1609729D1*
X1344284Y1609737D1*
X1341270Y1606364D1*
X1336101Y1601949D1*
X1330304Y1598397D1*
X1324022Y1595795D1*
X1317412Y1594208D1*
X1310634Y1593674D1*
X1303856Y1594208D1*
X1297245Y1595795D1*
X1292207Y1597824D1*
X1292217Y1563748D1*
X1337593Y1518359D1*
X1345525Y1518462D1*
X1352240Y1517399D1*
X1358706Y1515298D1*
X1364764Y1512211D1*
X1370264Y1508215D1*
X1375072Y1503408D1*
X1379068Y1497907D1*
X1382155Y1491850D1*
X1384255Y1485384D1*
X1385319Y1478669D1*
Y1471870D1*
X1384255Y1465155D1*
X1382155Y1458689D1*
X1379068Y1452631D1*
X1375072Y1447131D1*
X1370264Y1442323D1*
X1364764Y1438327D1*
X1358706Y1435240D1*
X1352240Y1433139D1*
X1345525Y1432076D1*
X1338726D1*
X1332011Y1433139D1*
X1325545Y1435240D1*
X1319488Y1438327D1*
X1313987Y1442323D1*
X1309180Y1447131D1*
X1305184Y1452631D1*
X1302097Y1458689D1*
X1299996Y1465155D1*
X1298933Y1471870D1*
Y1478669D1*
X1299062Y1479764D1*
X1249495Y1529343D1*
X1249416Y1457310D1*
X1248746Y1453085D1*
X1247424Y1449016D1*
X1245482Y1445204D1*
X1242967Y1441743D1*
X1224194Y1422969D1*
X1220733Y1420454D1*
X1216921Y1418512D1*
X1212852Y1417190D1*
X1208627Y1416521D1*
X1105438Y1416437D1*
X740244D1*
X744887Y1410210D1*
X747974Y1404153D1*
X750074Y1397687D1*
X751138Y1390972D1*
Y1384173D1*
X751008Y1383077D1*
X778859Y1355215D1*
X2219186Y1355218D1*
X2218878Y1359450D1*
Y1657325D1*
X2011177Y1657296D1*
X2011489Y1653064D1*
Y1507913D1*
X2014861Y1504890D1*
X2019277Y1499720D1*
X2022829Y1493923D1*
X2025431Y1487642D1*
X2027018Y1481031D1*
X2027552Y1474253D1*
X2027282Y1469706D1*
X2141830D1*
X2147373Y1475388D1*
X2152874Y1479384D1*
X2158931Y1482471D1*
X2165397Y1484572D1*
X2172112Y1485635D1*
X2178911D1*
X2185626Y1484572D1*
X2192092Y1482471D1*
X2198150Y1479384D1*
X2203650Y1475388D1*
X2208458Y1470581D1*
X2212454Y1465080D1*
X2215541Y1459023D1*
X2217641Y1452557D1*
X2218705Y1445842D1*
Y1439043D1*
X2217641Y1432328D1*
X2215541Y1425862D1*
X2212454Y1419804D1*
X2208458Y1414304D1*
X2203650Y1409496D1*
X2198150Y1405500D1*
X2192092Y1402413D1*
X2185626Y1400312D1*
X2178911Y1399249D1*
X2172112D1*
X2165397Y1400312D1*
X2158931Y1402413D1*
X2152874Y1405500D1*
X2147373Y1409496D1*
X2142566Y1414304D1*
X2141883Y1415170D1*
X1628090Y1415262D1*
X1623864Y1415932D1*
X1621796Y1416515D1*
X3424779Y2019578D2*
X3418701Y2019127D1*
X3411923Y2019661D1*
X3405312Y2021248D1*
X3399031Y2023850D1*
X3393234Y2027402D1*
X3388064Y2031817D1*
X3385072Y2035182D1*
X2955185Y2035190D1*
X2955125Y2007276D1*
X2954453Y2003042D1*
X2959778Y2001564D1*
X3069210Y2001480D1*
X3073435Y2000811D1*
X3077504Y1999489D1*
X3081316Y1997546D1*
X3084777Y1995032D1*
X3103550Y1976259D1*
X3106065Y1972797D1*
X3108007Y1968986D1*
X3109329Y1964917D1*
X3109999Y1960691D1*
X3110083Y1857502D1*
X3109999Y1813106D1*
X3109329Y1808881D1*
X3108007Y1804812D1*
X3106065Y1801000D1*
X3103550Y1797539D1*
X3084777Y1778765D1*
X3081316Y1776251D1*
X3077504Y1774309D1*
X3073435Y1772987D1*
X3069210Y1772317D1*
X2966021Y1772233D1*
X2807736D1*
X2756444Y1720970D1*
X3309009Y1720965D1*
X3303075Y1723988D1*
X3297574Y1727984D1*
X3292767Y1732792D1*
X3292084Y1733658D1*
X3283570Y1733750D1*
X3279344Y1734420D1*
X3275275Y1735742D1*
X3271463Y1737684D1*
X3268002Y1740199D1*
X3264977Y1743224D1*
X3262463Y1746685D1*
X3260520Y1750497D1*
X3259198Y1754566D1*
X3258529Y1758791D1*
X3258445Y1861980D1*
Y1921942D1*
X3255072Y1924947D1*
X3250657Y1930117D1*
X3247104Y1935914D1*
X3244503Y1942195D1*
X3242915Y1948806D1*
X3242382Y1955584D1*
X3242915Y1962362D1*
X3244503Y1968973D1*
X3247104Y1975254D1*
X3250657Y1981051D1*
X3255072Y1986221D1*
X3260242Y1990636D1*
X3266039Y1994189D1*
X3272320Y1996790D1*
X3278931Y1998377D1*
X3285709Y1998911D1*
X3292487Y1998377D1*
X3299097Y1996790D1*
X3305379Y1994189D1*
X3311176Y1990636D1*
X3316345Y1986221D1*
X3320761Y1981051D1*
X3324313Y1975254D1*
X3326915Y1968973D1*
X3328502Y1962362D1*
X3329036Y1955584D1*
X3328502Y1948806D1*
X3326915Y1942195D1*
X3324313Y1935914D1*
X3320761Y1930117D1*
X3316345Y1924947D1*
X3312981Y1921955D1*
X3312973Y1802323D1*
X3318935Y1803723D1*
X3325713Y1804257D1*
X3332491Y1803723D1*
X3339101Y1802136D1*
X3345383Y1799535D1*
X3351180Y1795982D1*
X3356349Y1791567D1*
X3359342Y1788202D1*
X3408928Y1788194D1*
X3408858Y1796141D1*
X3409921Y1802856D1*
X3412022Y1809322D1*
X3415109Y1815379D1*
X3419105Y1820880D1*
X3423912Y1825687D1*
X3424778Y1826370D1*
X3424787Y2019565D1*
X3454897Y2086208D2*
X3457305Y2082124D1*
X3459907Y2075843D1*
X3461494Y2069232D1*
X3461627Y2068110D1*
X3467807Y2068808D1*
X3691250D1*
X3696810Y2074490D1*
X3702311Y2078486D1*
X3708368Y2081573D1*
X3714834Y2083674D1*
X3721549Y2084737D1*
X3728348D1*
X3735063Y2083674D1*
X3741529Y2081573D1*
X3747587Y2078486D1*
X3753087Y2074490D1*
X3757895Y2069683D1*
X3761891Y2064182D1*
X3764978Y2058125D1*
X3767078Y2051659D1*
X3768142Y2044944D1*
Y2038145D1*
X3767078Y2031430D1*
X3764978Y2024964D1*
X3761891Y2018906D1*
X3757895Y2013406D1*
X3753087Y2008598D1*
X3747587Y2004602D1*
X3741529Y2001515D1*
X3735063Y1999414D1*
X3728348Y1998351D1*
X3721549D1*
X3714834Y1999414D1*
X3708368Y2001515D1*
X3702311Y2004602D1*
X3696810Y2008598D1*
X3692003Y2013406D1*
X3691320Y2014272D1*
X3479322Y2014280D1*
X3479315Y1826388D1*
X3482687Y1823378D1*
X3487103Y1818208D1*
X3490655Y1812411D1*
X3493257Y1806130D1*
X3494844Y1799519D1*
X3495378Y1792741D1*
X3495108Y1788194D1*
X3504780Y1793200D1*
X3677313Y1965615D1*
X3680774Y1968129D1*
X3684586Y1970072D1*
X3688655Y1971394D1*
X3692881Y1972063D1*
X3796070Y1972147D1*
X4078281Y1972062D1*
X4080366Y1974542D1*
Y2086249D1*
X3454902Y2086214D1*
X2279544Y1728002D2*
X2282536Y1731367D1*
X2287706Y1735782D1*
X2293503Y1739335D1*
X2295808Y1740397D1*
X1929596Y1740395D1*
X1926581Y1737022D1*
X1921412Y1732607D1*
X1915615Y1729055D1*
X1913310Y1727992D1*
X2279530Y1727994D1*
X1214447Y1987761D2*
X1214146Y1992572D1*
X1214679Y1999350D1*
X1216267Y2005961D1*
X1218195Y2010782D1*
X1189289Y2010784D1*
X1189304Y1983007D1*
X1196210Y1985908D1*
X1202821Y1987495D1*
X1209599Y1988029D1*
X1214410Y1987728D1*
X3399965Y922715D2*
X3398015Y926744D1*
X3395914Y933210D1*
X3394851Y939925D1*
Y946724D1*
X3395914Y953439D1*
X3398015Y959905D1*
X3401102Y965962D1*
X3405098Y971463D1*
X3409905Y976270D1*
X3415406Y980266D1*
X3421463Y983353D1*
X3427929Y985454D1*
X3434644Y986517D1*
X3441443D1*
X3448158Y985454D1*
X3454624Y983353D1*
X3460682Y980266D1*
X3466182Y976270D1*
X3470990Y971463D1*
X3471673Y970596D1*
X3503805Y970504D1*
X3508030Y969835D1*
X3512099Y968513D1*
X3515911Y966570D1*
X3519372Y964056D1*
X3538145Y945283D1*
X3540660Y941821D1*
X3542602Y938010D1*
X3543924Y933941D1*
X3544594Y929715D1*
X3544678Y879387D1*
X3544342Y875122D1*
X3543922Y873014D1*
X3545852Y872151D1*
X3593255D1*
X3593280Y1033849D1*
X3588732Y1033599D1*
X3581954Y1034133D1*
X3575343Y1035720D1*
X3569062Y1038322D1*
X3563265Y1041874D1*
X3558095Y1046289D1*
X3555103Y1049654D1*
X3125282Y1049746D1*
X3121056Y1050416D1*
X3116987Y1051738D1*
X3113176Y1053680D1*
X3109714Y1056195D1*
X3108137Y1057654D1*
X3105083Y1059449D1*
X3104747Y1055184D1*
X3103748Y1051024D1*
X3102111Y1047072D1*
X3099876Y1043424D1*
X3097097Y1040171D1*
X3079777Y1022969D1*
X3076316Y1020455D1*
X3072504Y1018512D1*
X3070487Y1017769D1*
X3073619Y1013287D1*
X3077171Y1007490D1*
X3079773Y1001209D1*
X3081360Y994598D1*
X3081894Y987820D1*
X3081360Y981042D1*
X3079773Y974431D1*
X3077171Y968150D1*
X3073619Y962353D1*
X3069203Y957183D1*
X3064034Y952768D1*
X3058237Y949216D1*
X3051955Y946614D1*
X3045345Y945027D1*
X3038567Y944493D1*
X3031789Y945027D1*
X3025178Y946614D1*
X3018897Y949216D1*
X3013100Y952768D1*
X3007930Y957183D1*
X3004938Y960548D1*
X2671579Y960556D1*
X2673921Y953439D1*
X2674985Y946724D1*
Y939925D1*
X2673921Y933210D1*
X2671821Y926744D1*
X2669870Y922715D1*
X3399941Y922714D1*
X2837822Y859144D2*
X2837559Y863639D1*
X2837828Y868187D1*
X2540706Y868186D1*
X2549799Y859074D1*
X2837798Y859092D1*
X1178814Y1470963D2*
X1173844Y1472641D1*
X1167787Y1475728D1*
X1162286Y1479724D1*
X1157479Y1484532D1*
X1156796Y1485398D1*
X1109291Y1485406D1*
X1103756Y1479724D1*
X1098256Y1475728D1*
X1092198Y1472641D1*
X1087229Y1470963D1*
X1178680Y1470965D1*
X1807835Y1719829D2*
X1805941Y1725734D1*
X1804878Y1732449D1*
Y1739248D1*
X1805941Y1745963D1*
X1808042Y1752429D1*
X1811129Y1758486D1*
X1815125Y1763987D1*
X1819932Y1768794D1*
X1825433Y1772790D1*
X1831490Y1775877D1*
X1837956Y1777978D1*
X1844671Y1779041D1*
X1851470D1*
X1854070Y1778734D1*
X1855916Y1784240D1*
X1859003Y1790297D1*
X1862999Y1795798D1*
X1867806Y1800605D1*
X1873307Y1804601D1*
X1879364Y1807688D1*
X1885830Y1809789D1*
X1892545Y1810852D1*
X1899344D1*
X1906059Y1809789D1*
X1912525Y1807688D1*
X1918583Y1804601D1*
X1924083Y1800605D1*
X1928891Y1795798D1*
X1929574Y1794931D1*
X2051072Y1794923D1*
X2048347Y1802899D1*
X2047284Y1809614D1*
Y1816413D1*
X2048347Y1823128D1*
X2050448Y1829594D1*
X2053535Y1835651D1*
X2057531Y1841152D1*
X2062338Y1845959D1*
X2067839Y1849955D1*
X2073896Y1853042D1*
X2080362Y1855143D1*
X2087077Y1856206D1*
X2093876D1*
X2100591Y1855143D1*
X2107057Y1853042D1*
X2113115Y1849955D1*
X2118615Y1845959D1*
X2123423Y1841152D1*
X2124106Y1840285D1*
X2332444Y1840277D1*
X2335466Y1843650D1*
X2340636Y1848065D1*
X2346433Y1851618D1*
X2352714Y1854219D1*
X2359325Y1855806D1*
X2366103Y1856340D1*
X2372881Y1855806D1*
X2379491Y1854219D1*
X2385773Y1851618D1*
X2391570Y1848065D1*
X2396739Y1843650D1*
X2401155Y1838480D1*
X2404506Y1833043D1*
X2404500Y1869895D1*
X1249529Y1869875D1*
X1249500Y1676169D1*
X1262994Y1689544D1*
X1266455Y1692058D1*
X1270267Y1694001D1*
X1274336Y1695323D1*
X1278562Y1695992D1*
X1381751Y1696076D1*
X1754480D1*
X1725974Y1724581D1*
X1721453Y1724332D1*
X1714675Y1724866D1*
X1708064Y1726453D1*
X1701783Y1729055D1*
X1695986Y1732607D1*
X1690816Y1737022D1*
X1686401Y1742192D1*
X1682848Y1747989D1*
X1680247Y1754270D1*
X1678659Y1760881D1*
X1678126Y1767659D1*
X1678659Y1774437D1*
X1680247Y1781048D1*
X1682848Y1787329D1*
X1686401Y1793126D1*
X1690816Y1798296D1*
X1695986Y1802711D1*
X1701783Y1806264D1*
X1708064Y1808865D1*
X1714675Y1810452D1*
X1721453Y1810986D1*
X1728231Y1810452D1*
X1734841Y1808865D1*
X1741123Y1806264D1*
X1746920Y1802711D1*
X1752089Y1798296D1*
X1756505Y1793126D1*
X1760057Y1787329D1*
X1762659Y1781048D1*
X1764246Y1774437D1*
X1764780Y1767659D1*
X1764516Y1763164D1*
X1807795Y1719874D1*
X3175135Y2453233D2*
X3171347Y2449528D1*
X3165847Y2445532D1*
X3159789Y2442445D1*
X3153323Y2440344D1*
X3146608Y2439281D1*
X3139809D1*
X3133094Y2440344D1*
X3126628Y2442445D1*
X3120571Y2445532D1*
X3115070Y2449528D1*
X3110263Y2454336D1*
X3106267Y2459836D1*
X3103180Y2465894D1*
X3101079Y2472360D1*
X3100016Y2479075D1*
Y2485874D1*
X3101079Y2492589D1*
X3103180Y2499055D1*
X3106267Y2505112D1*
X3110263Y2510613D1*
X3115070Y2515420D1*
X3120571Y2519416D1*
X3126628Y2522503D1*
X3133094Y2524604D1*
X3139809Y2525667D1*
X3146608D1*
X3153323Y2524604D1*
X3159789Y2522503D1*
X3165847Y2519416D1*
X3171347Y2515420D1*
X3175135Y2511715D1*
X3381516Y2511707D1*
X3385373Y2515420D1*
X3390874Y2519416D1*
X3396931Y2522503D1*
X3403397Y2524604D1*
X3410112Y2525667D1*
X3416911D1*
X3423626Y2524604D1*
X3430092Y2522503D1*
X3436150Y2519416D1*
X3441650Y2515420D1*
X3446458Y2510613D1*
X3450454Y2505112D1*
X3453541Y2499055D1*
X3455641Y2492589D1*
X3456705Y2485874D1*
Y2479075D1*
X3455641Y2472360D1*
X3453541Y2465894D1*
X3450454Y2459836D1*
X3446458Y2454336D1*
X3441650Y2449528D1*
X3436150Y2445532D1*
X3430092Y2442445D1*
X3423626Y2440344D1*
X3416911Y2439281D1*
X3410112D1*
X3403397Y2440344D1*
X3396931Y2442445D1*
X3390874Y2445532D1*
X3385373Y2449528D1*
X3381585Y2453233D1*
X3175205Y2453242D1*
X2404506Y1792984D2*
X2401155Y1787546D1*
X2396739Y1782376D1*
X2391570Y1777961D1*
X2385773Y1774409D1*
X2379491Y1771807D1*
X2372881Y1770220D1*
X2366103Y1769686D1*
X2359325Y1770220D1*
X2352714Y1771807D1*
X2346433Y1774409D1*
X2340636Y1777961D1*
X2335466Y1782376D1*
X2332474Y1785741D1*
X2334845Y1780442D1*
X2377955Y1737332D1*
X2377468Y1743702D1*
X2378001Y1750480D1*
X2379589Y1757091D1*
X2382190Y1763372D1*
X2385743Y1769169D1*
X2390158Y1774339D1*
X2395328Y1778754D1*
X2401125Y1782307D1*
X2404501Y1783837D1*
X2404500Y1792960D1*
X2522854Y1652775D2*
X2518307Y1652505D1*
X2513047Y1652859D1*
X2515541Y1647787D1*
X2517641Y1641321D1*
X2518705Y1634606D1*
Y1627807D1*
X2517641Y1621092D1*
X2515541Y1614626D1*
X2512454Y1608568D1*
X2508458Y1603068D1*
X2503650Y1598260D1*
X2502784Y1597577D1*
X2502776Y1477227D1*
X2531845Y1477249D1*
X2528061Y1481519D1*
X2525826Y1485167D1*
X2524188Y1489119D1*
X2523190Y1493279D1*
X2522854Y1497552D1*
Y1652743D1*
X1591589Y1122154D2*
X1587473Y1125738D1*
X1583058Y1130908D1*
X1579505Y1136705D1*
X1576904Y1142986D1*
X1575316Y1149597D1*
X1574924Y1152910D1*
X1573865Y1146257D1*
X1571765Y1139791D1*
X1568678Y1133733D1*
X1564682Y1128233D1*
X1559874Y1123425D1*
X1558257Y1122150D1*
X1591515Y1122147D1*
X2507060Y1755218D2*
X2506791Y1759765D1*
X2507054Y1764260D1*
X2490825Y1780501D1*
X2490839Y1755233D1*
X2507061Y1755218D1*
X2545623Y1802829D2*
X2550118Y1803092D1*
X2555061Y1802776D1*
X2555051Y1832039D1*
X2547966Y1834303D1*
X2541909Y1837390D1*
X2536408Y1841386D1*
X2531601Y1846194D1*
X2527605Y1851694D1*
X2524518Y1857752D1*
X2522652Y1863386D1*
X2522650Y1825787D1*
X2545595Y1802845D1*
X1505215Y1122150D2*
X1501099Y1125734D1*
X1498107Y1129099D1*
X1204580Y1129107D1*
X1199024Y1123425D1*
X1197407Y1122150D1*
X1505178Y1122147D1*
X2993768Y1091484D2*
X2992704Y1084769D1*
X2990604Y1078303D1*
X2987517Y1072245D1*
X2986668Y1070974D1*
X3050543Y1070965D1*
X3050555Y1108431D1*
X3046285Y1104637D1*
X3042637Y1102402D1*
X3038685Y1100765D1*
X3034525Y1099766D1*
X3030251Y1099431D1*
X2993694Y1099430D1*
X2993768Y1091484D1*
X2984682Y1153953D2*
X2981251Y1157489D1*
X2977255Y1162989D1*
X2974168Y1169047D1*
X2972067Y1175513D1*
X2971004Y1182228D1*
Y1189027D1*
X2971311Y1191626D1*
X2965805Y1193472D1*
X2959748Y1196559D1*
X2954247Y1200555D1*
X2949440Y1205363D1*
X2948757Y1206229D1*
X2831493Y1206237D1*
X2828491Y1202864D1*
X2823322Y1198449D1*
X2817525Y1194897D1*
X2811243Y1192295D1*
X2804633Y1190708D1*
X2797855Y1190174D1*
X2791077Y1190708D1*
X2784466Y1192295D1*
X2778185Y1194897D1*
X2772388Y1198449D1*
X2767218Y1202864D1*
X2762803Y1208034D1*
X2759250Y1213831D1*
X2756649Y1220112D1*
X2755061Y1226723D1*
X2754528Y1233501D1*
X2755061Y1240279D1*
X2756649Y1246890D1*
X2759250Y1253171D1*
X2762803Y1258968D1*
X2767218Y1264138D1*
X2772388Y1268553D1*
X2778185Y1272106D1*
X2784466Y1274707D1*
X2791077Y1276294D1*
X2797855Y1276828D1*
X2804633Y1276294D1*
X2811243Y1274707D1*
X2817525Y1272106D1*
X2823322Y1268553D1*
X2828491Y1264138D1*
X2831484Y1260773D1*
X2948748Y1260765D1*
X2951749Y1264138D1*
X2956919Y1268553D1*
X2962716Y1272106D1*
X2968997Y1274707D1*
X2975608Y1276294D1*
X2982386Y1276828D1*
X2986933Y1276558D1*
Y1300708D1*
X2091045Y1300690D1*
X2099208Y1292440D1*
X2101723Y1288978D1*
X2103665Y1285167D1*
X2104987Y1281098D1*
X2105657Y1276872D1*
X2105741Y1175013D1*
X2105405Y1170748D1*
X2104406Y1166588D1*
X2102769Y1162636D1*
X2100534Y1158988D1*
X2097749Y1155729D1*
X2097922Y1153958D1*
X2984656D1*
X735390Y908488D2*
X734326Y901773D1*
X732226Y895307D1*
X728748Y888663D1*
X800644Y960561D1*
X779406Y960556D1*
X735265Y916398D1*
X735524Y911887D1*
X735390Y908488D1*
X715421Y875336D2*
X708777Y871858D1*
X706346Y870961D1*
X711038Y870965D1*
X3073271Y1208531D2*
X3077819Y1208801D1*
X3084399Y1208291D1*
X3084409Y1359401D1*
X3053115Y1359414D1*
X3066739Y1345661D1*
X3069254Y1342199D1*
X3071196Y1338388D1*
X3072518Y1334319D1*
X3073188Y1330093D1*
X3073272Y1226904D1*
Y1208567D1*
X3055544Y1904229D2*
X3048648Y1901283D1*
X3042038Y1899696D1*
X3035260Y1899162D1*
X3030765Y1899426D1*
X2959099Y1827772D1*
X2961768Y1826761D1*
X3055533D1*
X3055555Y1904202D1*
X2992196Y1937994D2*
X2991933Y1942489D1*
X2992202Y1947037D1*
X2885892Y1947036D1*
X2889840Y1942366D1*
X2893392Y1936569D1*
X2895994Y1930288D1*
X2897581Y1923677D1*
X2898115Y1916899D1*
X2897581Y1910121D1*
X2895994Y1903510D1*
X2893392Y1897229D1*
X2889840Y1891432D1*
X2885424Y1886262D1*
X2880255Y1881847D1*
X2874458Y1878295D1*
X2868176Y1875693D1*
X2862647Y1874321D1*
X2928568Y1874320D1*
X2992179Y1937965D1*
X2681834Y1819784D2*
X2678841Y1816419D1*
X2673672Y1812004D1*
X2667875Y1808452D1*
X2661593Y1805850D1*
X2654983Y1804263D1*
X2648205Y1803729D1*
X2643657Y1803999D1*
X2643658Y1705121D1*
X2650214Y1707892D1*
X2656825Y1709479D1*
X2663603Y1710013D1*
X2668098Y1709750D1*
X2777141Y1818781D1*
X2774472Y1819792D1*
X2681855D1*
X2563048Y1989173D2*
X2562918Y1988077D1*
X2606806Y1944178D1*
X2751588Y1944163D1*
X2749036Y1951742D1*
X2747973Y1958457D1*
Y1965256D1*
X2748108Y1966404D1*
X2636070Y1966487D1*
X2631844Y1967157D1*
X2627775Y1968479D1*
X2623963Y1970421D1*
X2620502Y1972936D1*
X2596221Y1997098D1*
X2562961Y1997119D1*
X2563048Y1989173D1*
X2524350Y1949509D2*
X2519855Y1949245D1*
X2513117Y1949774D1*
X2517443Y1944979D1*
X2519678Y1941332D1*
X2521315Y1937379D1*
X2522314Y1933219D1*
X2522650Y1928954D1*
Y1885355D1*
X2524518Y1890913D1*
X2527605Y1896970D1*
X2531601Y1902471D1*
X2536408Y1907278D1*
X2541909Y1911274D1*
X2547966Y1914361D1*
X2554432Y1916462D1*
X2556762Y1917108D1*
X2524410Y1949460D1*
X2481828Y1971870D2*
X2479826Y1975992D1*
X2477725Y1982458D1*
X2476662Y1989173D1*
Y1995972D1*
X2476797Y1997120D1*
X1887907Y1997119D1*
X1864103Y1973288D1*
X1871016Y1971966D1*
X2481785Y1971881D1*
X2706796Y1510208D2*
X2706660Y1509060D1*
X2811708D1*
X2817275Y1514742D1*
X2821903Y1518155D1*
X2706708D1*
X2706796Y1510208D1*
X2631770Y2038663D2*
X2649481Y2020952D1*
X2686975Y2020931D1*
X2669260Y2038669D1*
X2631800Y2038655D1*
D25*
X1987450Y631201D3*
X1887450D3*
Y731201D3*
X1987450D3*
Y531201D3*
X1887450D3*
D26*
X4024951Y1893701D3*
D27*
Y1793701D3*
Y1693701D3*
Y1593701D3*
Y1493701D3*
Y1393701D3*
Y1293701D3*
Y1193701D3*
D26*
X624951Y2243701D3*
D27*
Y2143701D3*
Y2043701D3*
Y1943701D3*
Y1843701D3*
Y1743701D3*
Y1643701D3*
Y1543701D3*
Y1443701D3*
Y1343701D3*
Y1243701D3*
Y1143701D3*
Y1043701D3*
Y943701D3*
Y843701D3*
D28*
X2231201Y562451D3*
D29*
X2368996D3*
X2506791D3*
X2644587D3*
D25*
X2874950Y637451D3*
X2974950D3*
Y537451D3*
X2874950D3*
Y737451D3*
X2974950D3*
D119*
X2174951Y2556201D3*
X2274951D3*
X2374951D3*
X2474951D3*
X2574951D3*
X2174951Y2456201D3*
X2274951D3*
X2374951D3*
X2474951D3*
X2574951D3*
M02*
