M48
INCH
T01C0.1299
T02C0.1969
T03C0.2559
T04C0.2756
T05C0.2992
T06C0.4528
%
T01
X+050005Y+049312G85X+048745Y+049312
X+003755Y+049312G85X+002495Y+049312
X+003567Y+001250G85X+002308Y+001250
X+049942Y+001250G85X+048683Y+001250
T02
X+033875Y+040000
X+018062Y+040062
T03
X+005750Y+009313
X+015938Y+009313
X+026000Y+009375
X+036250Y+009438
X+046500Y+009313
T04
X+005750Y+028437
X+015875Y+028437
X+026062Y+028500
X+036313Y+028437
X+046437Y+028500
X+041250Y+040000
T05
X+010688Y+039938
T06
X+010875Y+017000
X+026125Y+017000
X+041438Y+017000
T00
M30
