G04 DipTrace 3.3.1.3*
G04 TopAssy.gbr*
%MOIN*%
G04 #@! TF.FileFunction,Drawing,Top*
G04 #@! TF.Part,Single*
%ADD13C,0.003937*%
%FSLAX26Y26*%
G04*
G70*
G90*
G75*
G01*
G04 TopAssy*
%LPD*%
X5200000Y5059055D2*
D13*
X0D1*
Y0D1*
X5200000D1*
Y5059055D1*
X423228Y4944882D2*
Y4937008D1*
X364173Y4877953D2*
G03X423228Y4937008I1J59054D01*
G01*
X364173Y4877953D2*
X226378D1*
X167323Y4937008D2*
G03X226378Y4877953I59054J-1D01*
G01*
X167323Y4937008D2*
Y4944882D1*
X226378Y5003937D2*
G03X167323Y4944882I-1J-59054D01*
G01*
X226378Y5003937D2*
X364173D1*
X423228Y4944882D2*
G03X364173Y5003937I-59054J1D01*
G01*
X423228Y122047D2*
Y114173D1*
X364173Y55118D2*
G03X423228Y114173I1J59054D01*
G01*
X364173Y55118D2*
X226378D1*
X167323Y114173D2*
G03X226378Y55118I59054J-1D01*
G01*
X167323Y114173D2*
Y122047D1*
X226378Y181102D2*
G03X167323Y122047I-1J-59054D01*
G01*
X226378Y181102D2*
X364173D1*
X423228Y122047D2*
G03X364173Y181102I-59054J1D01*
G01*
X5055118Y4944882D2*
Y4937008D1*
X4996063Y4877953D2*
G03X5055118Y4937008I1J59054D01*
G01*
X4996063Y4877953D2*
X4858268D1*
X4799213Y4937008D2*
G03X4858268Y4877953I59054J-1D01*
G01*
X4799213Y4937008D2*
Y4944882D1*
X4858268Y5003937D2*
G03X4799213Y4944882I-1J-59054D01*
G01*
X4858268Y5003937D2*
X4996063D1*
X5055118Y4944882D2*
G03X4996063Y5003937I-59054J1D01*
G01*
X5055118Y122047D2*
Y114173D1*
X4996063Y55118D2*
G03X5055118Y114173I1J59054D01*
G01*
X4996063Y55118D2*
X4858268D1*
X4799213Y114173D2*
G03X4858268Y55118I59054J-1D01*
G01*
X4799213Y114173D2*
Y122047D1*
X4858268Y181102D2*
G03X4799213Y122047I-1J-59054D01*
G01*
X4858268Y181102D2*
X4996063D1*
X5055118Y122047D2*
G03X4996063Y181102I-59054J1D01*
G01*
X905512Y3996063D2*
G02X905512Y3996063I157480J0D01*
G01*
X3483228Y2852402D2*
G02X3483228Y2852402I133858J0D01*
G01*
X3980315Y3996063D2*
G02X3980315Y3996063I133858J0D01*
G01*
X4501339Y2851102D2*
G02X4501339Y2851102I133858J0D01*
G01*
X2465079Y2851063D2*
G02X2465079Y2851063I133858J0D01*
G01*
X428819Y2847992D2*
G02X428819Y2847992I133858J0D01*
G01*
X440236Y938583D2*
G02X440236Y938583I127953J0D01*
G01*
X1446969Y2846850D2*
G02X1446969Y2846850I133858J0D01*
G01*
X2474213Y942677D2*
G02X2474213Y942677I127953J0D01*
G01*
X879921Y1633858D2*
G02X879921Y1633858I183071J0D01*
G01*
X2405512Y1643701D2*
G02X2405512Y1643701I183071J0D01*
G01*
X3931102D2*
G02X3931102Y1643701I183071J0D01*
G01*
X1450787Y935039D2*
G02X1450787Y935039I133858J0D01*
G01*
X3488189Y944882D2*
G02X3488189Y944882I133858J0D01*
G01*
X4511811Y935039D2*
G02X4511811Y935039I133858J0D01*
G01*
X-39370Y0D2*
X39370D1*
X0Y-39370D2*
Y39370D1*
X255906Y4940945D2*
X334646D1*
X295276Y4901575D2*
Y4980315D1*
X255906Y118110D2*
X334646D1*
X295276Y78740D2*
Y157480D1*
X4887795Y4940945D2*
X4966535D1*
X4927165Y4901575D2*
Y4980315D1*
X4887795Y118110D2*
X4966535D1*
X4927165Y78740D2*
Y157480D1*
X1023622Y3996063D2*
X1102362D1*
X1062992Y3956693D2*
Y4035433D1*
X3577717Y2852402D2*
X3656457D1*
X3617087Y2813031D2*
Y2891772D1*
X4074803Y3996063D2*
X4153543D1*
X4114173Y3956693D2*
Y4035433D1*
X4595827Y2851102D2*
X4674567D1*
X4635197Y2811732D2*
Y2890472D1*
X2559567Y2851063D2*
X2638307D1*
X2598937Y2811693D2*
Y2890433D1*
X523307Y2847992D2*
X602047D1*
X562677Y2808622D2*
Y2887362D1*
X528819Y938583D2*
X607559D1*
X568189Y899213D2*
Y977953D1*
X1541457Y2846850D2*
X1620197D1*
X1580827Y2807480D2*
Y2886220D1*
X2559055Y3996063D2*
X2637795D1*
X2598425Y3956693D2*
Y4035433D1*
X2562795Y942677D2*
X2641535D1*
X2602165Y903307D2*
Y982047D1*
X1023622Y1633858D2*
X1102362D1*
X1062992Y1594488D2*
Y1673228D1*
X2549213Y1643701D2*
X2627953D1*
X2588583Y1604331D2*
Y1683071D1*
X4074803Y1643701D2*
X4153543D1*
X4114173Y1604331D2*
Y1683071D1*
X1545276Y935039D2*
X1624016D1*
X1584646Y895669D2*
Y974409D1*
X3582677Y944882D2*
X3661417D1*
X3622047Y905512D2*
Y984252D1*
X4606299Y935039D2*
X4685039D1*
X4645669Y895669D2*
Y974409D1*
M02*
