G04 DipTrace 3.3.1.3*
G04 BottomSilk.gbr*
%MOIN*%
G04 #@! TF.FileFunction,Legend,Bot*
G04 #@! TF.Part,Single*
%ADD71C,0.010807*%
%ADD72C,0.009264*%
%FSLAX26Y26*%
G04*
G70*
G90*
G75*
G01*
G04 BotSilk*
%LPD*%
X3049243Y4068267D2*
D71*
Y3997931D1*
X3072688Y4068267D2*
X3025797D1*
X3242082Y4051082D2*
D72*
X3244934Y4056786D1*
X3250704Y4062556D1*
X3256408Y4065408D1*
X3267882D1*
X3273652Y4062556D1*
X3279356Y4056786D1*
X3282274Y4051082D1*
X3285126Y4042460D1*
Y4028068D1*
X3282274Y4019512D1*
X3279356Y4013742D1*
X3273652Y4008038D1*
X3267882Y4005120D1*
X3256408D1*
X3250704Y4008038D1*
X3244934Y4013742D1*
X3242082Y4019512D1*
Y4028068D1*
X3256408D1*
X4125797Y4045303D2*
D71*
X4129125Y4051957D1*
X4135856Y4058689D1*
X4142511Y4062016D1*
X4155897D1*
X4162629Y4058689D1*
X4169284Y4051957D1*
X4172688Y4045303D1*
X4176015Y4035244D1*
Y4018453D1*
X4172688Y4008471D1*
X4169284Y4001739D1*
X4162629Y3995085D1*
X4155897Y3991680D1*
X4142511D1*
X4135856Y3995085D1*
X4129125Y4001739D1*
X4125797Y4008471D1*
Y4018453D1*
X4142511D1*
X3942992Y4062015D2*
Y3991679D1*
X3966437Y4062015D2*
X3919547D1*
X2124682Y4080766D2*
Y4010430D1*
X2084523D1*
X2062908Y4080766D2*
X2059581Y4077438D1*
X2056176Y4080766D1*
X2059581Y4084170D1*
X2062908Y4080766D1*
X2059581Y4057320D2*
Y4010430D1*
X2034561Y4057320D2*
Y4010430D1*
Y4043934D2*
X2024502Y4053993D1*
X2017770Y4057320D1*
X2007788D1*
X2001057Y4053993D1*
X1997729Y4043934D1*
Y4010430D1*
X1976114Y4080766D2*
Y4010430D1*
X1942610Y4057320D2*
X1976114Y4023816D1*
X1962728Y4037202D2*
X1939283Y4010430D1*
X1917668Y3998823D2*
X1854064D1*
X1832449Y4080766D2*
Y4010430D1*
X1809003D1*
X1798944Y4013834D1*
X1792213Y4020489D1*
X1788885Y4027221D1*
X1785558Y4037202D1*
Y4053993D1*
X1788885Y4064052D1*
X1792213Y4070707D1*
X1798944Y4077438D1*
X1809003Y4080766D1*
X1832449D1*
X1763943Y4057320D2*
Y4010430D1*
Y4037202D2*
X1760539Y4047261D1*
X1753884Y4053993D1*
X1747152Y4057320D1*
X1737093D1*
X1715478D2*
Y4023816D1*
X1712151Y4013834D1*
X1705419Y4010430D1*
X1695360D1*
X1688706Y4013834D1*
X1678647Y4023816D1*
Y4057320D2*
Y4010430D1*
X1657032Y4057320D2*
Y4010430D1*
Y4043934D2*
X1646973Y4053993D1*
X1640241Y4057320D1*
X1630259D1*
X1623527Y4053993D1*
X1620200Y4043934D1*
Y4010430D1*
Y4043934D2*
X1610141Y4053993D1*
X1603409Y4057320D1*
X1593428D1*
X1586696Y4053993D1*
X1583291Y4043934D1*
Y4010430D1*
X1493635Y4043934D2*
X1463458D1*
X1453476Y4047261D1*
X1450071Y4050666D1*
X1446744Y4057320D1*
Y4067379D1*
X1450071Y4074034D1*
X1453476Y4077438D1*
X1463458Y4080766D1*
X1493635D1*
Y4010430D1*
X1384970Y4057320D2*
Y4010430D1*
Y4047261D2*
X1391625Y4053993D1*
X1398357Y4057320D1*
X1408338D1*
X1415070Y4053993D1*
X1421725Y4047261D1*
X1425129Y4037202D1*
Y4030548D1*
X1421725Y4020489D1*
X1415070Y4013834D1*
X1408338Y4010430D1*
X1398357D1*
X1391625Y4013834D1*
X1384970Y4020489D1*
X1363355Y4057320D2*
Y4010430D1*
Y4043934D2*
X1353296Y4053993D1*
X1346564Y4057320D1*
X1336583D1*
X1329851Y4053993D1*
X1326524Y4043934D1*
Y4010430D1*
X1304909Y4037202D2*
X1264750D1*
Y4043934D1*
X1268077Y4050666D1*
X1271404Y4053993D1*
X1278136Y4057320D1*
X1288195D1*
X1294850Y4053993D1*
X1301582Y4047261D1*
X1304909Y4037202D1*
Y4030548D1*
X1301582Y4020489D1*
X1294850Y4013834D1*
X1288195Y4010430D1*
X1278136D1*
X1271404Y4013834D1*
X1264750Y4020489D1*
X1243135Y4080766D2*
Y4010430D1*
X1153479Y4080766D2*
Y4010430D1*
X1123302D1*
X1113242Y4013834D1*
X1109915Y4017162D1*
X1106588Y4023816D1*
Y4033875D1*
X1109915Y4040607D1*
X1113242Y4043934D1*
X1123302Y4047261D1*
X1113242Y4050666D1*
X1109915Y4053993D1*
X1106588Y4060648D1*
Y4067379D1*
X1109915Y4074034D1*
X1113242Y4077438D1*
X1123302Y4080766D1*
X1153479D1*
Y4047261D2*
X1123302D1*
X1068260Y4057320D2*
X1074914Y4053993D1*
X1081646Y4047261D1*
X1084973Y4037202D1*
Y4030548D1*
X1081646Y4020489D1*
X1074914Y4013834D1*
X1068260Y4010430D1*
X1058201D1*
X1051469Y4013834D1*
X1044814Y4020489D1*
X1041410Y4030548D1*
Y4037202D1*
X1044814Y4047261D1*
X1051469Y4053993D1*
X1058201Y4057320D1*
X1068260D1*
X979636D2*
Y4010430D1*
Y4047261D2*
X986290Y4053993D1*
X993022Y4057320D1*
X1003004D1*
X1009736Y4053993D1*
X1016390Y4047261D1*
X1019795Y4037202D1*
Y4030548D1*
X1016390Y4020489D1*
X1009736Y4013834D1*
X1003004Y4010430D1*
X993022D1*
X986290Y4013834D1*
X979636Y4020489D1*
X958021Y4057320D2*
Y4010430D1*
Y4037202D2*
X954616Y4047261D1*
X947962Y4053993D1*
X941230Y4057320D1*
X931171D1*
X869397Y4080766D2*
Y4010430D1*
Y4047261D2*
X876052Y4053993D1*
X882783Y4057320D1*
X892843D1*
X899497Y4053993D1*
X906229Y4047261D1*
X909556Y4037202D1*
Y4030548D1*
X906229Y4020489D1*
X899497Y4013834D1*
X892843Y4010430D1*
X882783D1*
X876052Y4013834D1*
X869397Y4020489D1*
X779741Y4047261D2*
X749641D1*
X739582Y4050666D1*
X736177Y4053993D1*
X732850Y4060648D1*
Y4067379D1*
X736177Y4074034D1*
X739582Y4077438D1*
X749641Y4080766D1*
X779741D1*
Y4010430D1*
X756296Y4047261D2*
X732850Y4010430D1*
X711235Y4037202D2*
X671076D1*
Y4043934D1*
X674404Y4050666D1*
X677731Y4053993D1*
X684463Y4057320D1*
X694522D1*
X701176Y4053993D1*
X707908Y4047261D1*
X711235Y4037202D1*
Y4030548D1*
X707908Y4020489D1*
X701176Y4013834D1*
X694522Y4010430D1*
X684463D1*
X677731Y4013834D1*
X671076Y4020489D1*
X649461Y4057320D2*
X629343Y4010430D1*
X609303Y4057320D1*
X584360Y4017162D2*
X587688Y4013757D1*
X584360Y4010430D1*
X580956Y4013757D1*
X584360Y4017162D1*
X559341Y4067302D2*
X552609Y4070707D1*
X542550Y4080688D1*
Y4010430D1*
X517608Y4017162D2*
X520935Y4013757D1*
X517608Y4010430D1*
X514203Y4013757D1*
X517608Y4017162D1*
X492588Y4067302D2*
X485856Y4070707D1*
X475797Y4080688D1*
Y4010430D1*
X4748072Y4028040D2*
X4818408D1*
Y4004595D1*
X4815003Y3994536D1*
X4808349Y3987804D1*
X4801617Y3984477D1*
X4791635Y3981149D1*
X4774844D1*
X4764785Y3984477D1*
X4758131Y3987804D1*
X4751399Y3994536D1*
X4748072Y4004595D1*
Y4028040D1*
Y3959534D2*
X4751399Y3956207D1*
X4748072Y3952803D1*
X4744667Y3956207D1*
X4748072Y3959534D1*
X4771517Y3956207D2*
X4818408D1*
X4771517Y3914474D2*
X4774844Y3921129D1*
X4781576Y3927860D1*
X4791635Y3931188D1*
X4798289D1*
X4808349Y3927860D1*
X4815003Y3921129D1*
X4818408Y3914474D1*
Y3904415D1*
X4815003Y3897683D1*
X4808349Y3891029D1*
X4798289Y3887624D1*
X4791635D1*
X4781576Y3891029D1*
X4774844Y3897683D1*
X4771517Y3904415D1*
Y3914474D1*
X4748072Y3825850D2*
X4818408D1*
X4781576D2*
X4774844Y3832505D1*
X4771517Y3839237D1*
Y3849296D1*
X4774844Y3855950D1*
X4781576Y3862682D1*
X4791635Y3866009D1*
X4798289D1*
X4808349Y3862682D1*
X4815003Y3855950D1*
X4818408Y3849296D1*
Y3839237D1*
X4815003Y3832505D1*
X4808349Y3825850D1*
X4771517Y3764077D2*
X4818408D1*
X4781576D2*
X4774844Y3770731D1*
X4771517Y3777463D1*
Y3787445D1*
X4774844Y3794176D1*
X4781576Y3800831D1*
X4791635Y3804235D1*
X4798289D1*
X4808349Y3800831D1*
X4815003Y3794176D1*
X4818408Y3787445D1*
Y3777463D1*
X4815003Y3770731D1*
X4808349Y3764077D1*
X4781576Y3702225D2*
X4774844Y3708957D1*
X4771517Y3715689D1*
Y3725671D1*
X4774844Y3732403D1*
X4781576Y3739057D1*
X4791635Y3742462D1*
X4798289D1*
X4808349Y3739057D1*
X4815003Y3732403D1*
X4818408Y3725671D1*
Y3715689D1*
X4815003Y3708957D1*
X4808349Y3702225D1*
X4748072Y3569083D2*
Y3612569D1*
X4818408D1*
Y3569083D1*
X4781576Y3612569D2*
Y3585797D1*
X4748072Y3547468D2*
X4818408D1*
X4791635Y3525853D2*
Y3485694D1*
X4784903D1*
X4778171Y3489022D1*
X4774844Y3492349D1*
X4771517Y3499081D1*
Y3509140D1*
X4774844Y3515794D1*
X4781576Y3522526D1*
X4791635Y3525853D1*
X4798289D1*
X4808349Y3522526D1*
X4815003Y3515794D1*
X4818408Y3509140D1*
Y3499081D1*
X4815003Y3492349D1*
X4808349Y3485694D1*
X4781576Y3423843D2*
X4774844Y3430575D1*
X4771517Y3437307D1*
Y3447289D1*
X4774844Y3454020D1*
X4781576Y3460675D1*
X4791635Y3464079D1*
X4798289D1*
X4808349Y3460675D1*
X4815003Y3454020D1*
X4818408Y3447289D1*
Y3437307D1*
X4815003Y3430575D1*
X4808349Y3423843D1*
X4748072Y3392169D2*
X4805021D1*
X4815003Y3388842D1*
X4818408Y3382110D1*
Y3375456D1*
X4771517Y3402228D2*
Y3378783D1*
Y3353841D2*
X4818408D1*
X4791635D2*
X4781576Y3350436D1*
X4774844Y3343782D1*
X4771517Y3337050D1*
Y3326991D1*
Y3288662D2*
X4774844Y3295317D1*
X4781576Y3302049D1*
X4791635Y3305376D1*
X4798289D1*
X4808349Y3302049D1*
X4815003Y3295317D1*
X4818408Y3288662D1*
Y3278603D1*
X4815003Y3271871D1*
X4808349Y3265217D1*
X4798289Y3261812D1*
X4791635D1*
X4781576Y3265217D1*
X4774844Y3271871D1*
X4771517Y3278603D1*
Y3288662D1*
Y3240197D2*
X4818408D1*
X4784903D2*
X4774844Y3230138D1*
X4771517Y3223407D1*
Y3213425D1*
X4774844Y3206693D1*
X4784903Y3203366D1*
X4818408D1*
X4748072Y3181751D2*
X4751399Y3178424D1*
X4748072Y3175019D1*
X4744667Y3178424D1*
X4748072Y3181751D1*
X4771517Y3178424D2*
X4818408D1*
X4781576Y3113168D2*
X4774844Y3119900D1*
X4771517Y3126632D1*
Y3136613D1*
X4774844Y3143345D1*
X4781576Y3150000D1*
X4791635Y3153404D1*
X4798290D1*
X4808349Y3150000D1*
X4815003Y3143345D1*
X4818408Y3136613D1*
Y3126632D1*
X4815003Y3119900D1*
X4808349Y3113168D1*
X4781576Y3054721D2*
X4774844Y3058049D1*
X4771517Y3068108D1*
Y3078167D1*
X4774844Y3088226D1*
X4781576Y3091553D1*
X4788230Y3088226D1*
X4791635Y3081494D1*
X4794962Y3064781D1*
X4798289Y3058049D1*
X4805021Y3054721D1*
X4808349D1*
X4815003Y3058049D1*
X4818408Y3068108D1*
Y3078167D1*
X4815003Y3088226D1*
X4808349Y3091553D1*
M02*
