G04 DipTrace 3.3.1.3*
G04 Bottom.gbr*
%MOIN*%
G04 #@! TF.FileFunction,Copper,L2,Bot*
G04 #@! TF.Part,Single*
%AMOUTLINE0*
4,1,20,
-0.038,0.037967,
-0.035719,0.050966,
-0.029131,0.0624,
-0.019029,0.070892,
-0.006631,0.075417,
0.006566,0.075428,
0.018971,0.070925,
0.029088,0.062451,
0.035697,0.051028,
0.038,0.038033,
0.038,-0.037967,
0.035719,-0.050966,
0.029131,-0.0624,
0.019029,-0.070892,
0.006631,-0.075417,
-0.006566,-0.075428,
-0.018971,-0.070925,
-0.029088,-0.062451,
-0.035697,-0.051028,
-0.038,-0.038033,
-0.038,0.037967,
0*%
%AMOUTLINE1*
4,1,20,
0.037967,0.038,
0.050966,0.035719,
0.0624,0.029131,
0.070892,0.019029,
0.075417,0.006631,
0.075428,-0.006566,
0.070925,-0.018971,
0.062451,-0.029088,
0.051028,-0.035697,
0.038033,-0.038,
-0.037967,-0.038,
-0.050966,-0.035719,
-0.0624,-0.029131,
-0.070892,-0.019029,
-0.075417,-0.006631,
-0.075428,0.006566,
-0.070925,0.018971,
-0.062451,0.029088,
-0.051028,0.035697,
-0.038033,0.038,
0.037967,0.038,
0*%
%AMOUTLINE4*
4,1,4,
0.035295,0.035295,
0.035295,-0.035295,
-0.035295,-0.035295,
-0.035295,0.035295,
0.035295,0.035295,
0*%
%AMOUTLINE5*
4,1,8,
-0.013507,-0.032609,
-0.032609,-0.013507,
-0.032609,0.013507,
-0.013507,0.032609,
0.013507,0.032609,
0.032609,0.013507,
0.032609,-0.013507,
0.013507,-0.032609,
-0.013507,-0.032609,
0*%
G04 #@! TA.AperFunction,Conductor*
%ADD10C,0.009843*%
%ADD13C,0.023622*%
G04 #@! TA.AperFunction,CopperBalancing*
%ADD14C,0.025*%
G04 #@! TA.AperFunction,ComponentPad*
%ADD18R,0.07874X0.07874*%
%ADD19C,0.07874*%
%ADD26C,0.070591*%
%ADD31C,0.11*%
%ADD32R,0.064173X0.064173*%
%ADD34C,0.129921*%
G04 #@! TA.AperFunction,ViaPad*
%ADD35C,0.04*%
G04 #@! TA.AperFunction,ComponentPad*
%ADD73OUTLINE0*%
%ADD74OUTLINE1*%
%ADD77OUTLINE4*%
%ADD78OUTLINE5*%
%FSLAX26Y26*%
G04*
G70*
G90*
G75*
G01*
G04 Bottom*
%LPD*%
X2706201Y3478445D2*
D13*
X2891042Y3293604D1*
Y2974951D1*
X1937450Y2237451D2*
X2297293D1*
X1297490Y3690236D2*
Y3855878D1*
X1937450Y2974951D2*
Y2825476D1*
X1358171D1*
Y3629555D1*
X1297490Y3690236D1*
X2297293Y2974951D2*
X2190366Y3081878D1*
X1950218D1*
Y2974951D1*
X1937450D1*
X2531199D2*
X2518432D1*
Y2918432D1*
X2468028Y2868028D1*
X2404217D1*
X2297293Y2974951D1*
X2891042D2*
Y2237451D1*
X1366360Y2761024D2*
X1358171Y2769213D1*
Y2825476D1*
X1312253Y1941870D2*
X1243175D1*
X1097887Y2087157D1*
X995840D1*
X952533Y2130465D1*
Y2231126D1*
X1550761Y1844591D2*
X1417289D1*
Y1898562D1*
X1373982Y1941870D1*
X1312253D1*
X1709793Y1499951D2*
Y1801283D1*
X1666486Y1844591D1*
X1550761D1*
X1937450Y1499951D2*
X1924681D1*
Y1393028D1*
X1816717D1*
X1709793Y1499951D1*
X2297293D2*
X1937450D1*
X2297293Y2237451D2*
Y1499951D1*
X1349950D2*
Y1777252D1*
X1417289Y1844591D1*
X1349950Y848130D2*
Y1499951D1*
X837451Y1421850D2*
X901037Y1485436D1*
Y1765152D1*
X837450Y1828740D1*
X1034302Y1421850D2*
X1172466Y1283686D1*
Y922717D1*
X1032701Y782951D1*
X1034302Y2159350D2*
X1348986Y2159354D1*
X837451Y2903101D2*
X901037Y2966686D1*
Y3507336D1*
X1034302Y3640601D1*
X837451Y2159350D2*
X901037Y2222936D1*
Y2839516D1*
X837451Y2903101D1*
X837450Y1828740D2*
Y2009156D1*
X837451Y2009157D1*
Y2159350D1*
Y3837451D2*
D10*
X743701Y3743701D1*
Y3481201D1*
X781201Y3443701D1*
Y3168701D1*
X743701Y3131201D1*
Y2549950D1*
X668702Y2474951D1*
X618701D1*
X837451Y3099951D2*
X774951Y3037451D1*
Y2428840D1*
X721063Y2374951D1*
X618701D1*
X2111121Y3184499D2*
X2112450D1*
Y3243701D1*
X2078534Y3277618D1*
X1742812D1*
X1628730Y3163535D1*
X837451Y1618701D2*
D13*
X764371Y1691781D1*
Y2131642D1*
X721062Y2174951D1*
X618701D1*
X1523621Y1709499D2*
Y1767184D1*
X1508556Y1782249D1*
Y1787185D1*
X618701Y1874951D2*
X549951D1*
X449951Y1774950D1*
Y1175701D1*
X842701Y782951D1*
X4302461Y2263042D2*
Y2066192D1*
X4381201Y1987451D1*
X3778542Y2974951D2*
X3778541Y2649949D1*
X3412450Y2237451D2*
Y1850394D1*
Y1493701D2*
X3772293D1*
X3778542Y3712451D2*
X3778541Y3393701D1*
X4381201Y3462451D2*
X4302461Y3541192D1*
Y3738042D1*
Y3000542D2*
Y3383711D1*
X4381201Y3462451D1*
Y2724951D2*
X4302461Y2803692D1*
Y3000542D1*
Y2263042D2*
Y2646211D1*
X4381201Y2724951D1*
X4018701Y2024951D2*
X4050198D1*
X4089568Y2064322D1*
Y2219732D1*
X4132878Y2263042D1*
X4302461D1*
Y781791D2*
Y584941D1*
X4381201Y506201D1*
Y1243702D2*
X4302461Y1164962D1*
Y781791D1*
Y1519293D2*
Y1397110D1*
X4381201Y1318370D1*
Y1243702D1*
Y1987451D2*
Y1837923D1*
X4388957Y1830165D1*
Y1605789D1*
X4302461Y1519293D1*
X3772293Y1493701D2*
Y1181201D1*
X2368159Y1982697D2*
Y2403689D1*
X2411469Y2446999D1*
X2704870D1*
X2118701Y3596557D2*
D10*
X1689337D1*
X1378520Y3907374D1*
X541812D1*
X456201Y3821762D1*
Y2960564D1*
X541814Y2874951D1*
X618701D1*
X2118701Y3931201D2*
X2018340D1*
X1998860Y3950681D1*
X498505D1*
X424951Y3877127D1*
Y2848507D1*
X498507Y2774951D1*
X618701D1*
X1107480Y2574951D2*
D13*
Y2526201D1*
X1087480Y2506201D1*
X1050076D1*
X4578051Y506201D2*
Y596458D1*
X4543734Y630776D1*
Y1096669D1*
X4578051Y1130988D1*
Y1243702D1*
Y2724951D2*
Y2815210D1*
X4543734Y2849528D1*
Y3356879D1*
X4578051Y3391197D1*
Y3462451D1*
Y1987451D2*
Y2077710D1*
X4543734Y2112028D1*
Y2536614D1*
X4578051Y2570933D1*
Y2724951D1*
Y1243702D2*
Y1333958D1*
X4543734Y1368276D1*
Y1881980D1*
X4578051Y1916299D1*
Y1987451D1*
X2704870Y965748D2*
X2424096D1*
X2380789Y922441D1*
Y549512D1*
X2337478Y506201D1*
X2215551D1*
X4018701Y1924951D2*
Y1862451D1*
X4187451Y1693701D1*
Y1213669D1*
X3843159Y869378D1*
X3309104D1*
X3119655Y679929D1*
X2855104D1*
X2811797Y723236D1*
Y1035244D1*
X2768490Y1078551D1*
X2160434D1*
X2117126Y1035243D1*
Y506201D1*
X4018701Y2624951D2*
X4006201D1*
Y2756201D1*
X4193701Y2943701D1*
Y3564938D1*
X3849408Y3909231D1*
X3592370D1*
Y3921999D1*
Y3184499D2*
Y3171731D1*
X3806104D1*
X3849411Y3128424D1*
Y2568260D1*
X3892719Y2524951D1*
X4018701D1*
X3586121Y2446999D2*
X3893501D1*
X3915549Y2424951D1*
X4018701D1*
X3633352Y1957008D2*
X3693045Y2016699D1*
Y2281640D1*
X3736354Y2324951D1*
X4018701D1*
X3586121Y1703248D2*
Y1716017D1*
X3473080D1*
Y1913701D1*
X3516387Y1957008D1*
X3633352D1*
X3586121Y971999D2*
Y1022469D1*
X3799852D1*
X3843159Y1065776D1*
Y2181642D1*
X3886469Y2224951D1*
X4018701D1*
X1939961Y781791D2*
Y584941D1*
X2018701Y506201D1*
X2891042Y756201D2*
X3026861Y892020D1*
Y1557318D1*
X3070169Y1600626D1*
X3700600D1*
X3743907Y1643933D1*
Y1901228D1*
D35*
X1550761Y1844591D3*
X1366360Y2761024D3*
X1312253Y1941870D3*
X1349950Y848130D3*
X1297490Y3855878D3*
X952533Y2231126D3*
X1297490Y3690236D3*
X1348986Y2159354D3*
X837450Y1828740D3*
X1628730Y3163535D3*
X1508556Y1787185D3*
X3778541Y2649949D3*
X3412450Y1850394D3*
X3772293Y1181201D3*
X3778541Y3393701D3*
X2368159Y1982697D3*
X1050076Y2506201D3*
X1107480Y2574951D3*
X3633352Y1957008D3*
X3743907Y1901228D3*
X420530Y4084678D2*
D14*
X4894450D1*
X420530Y4059810D2*
X4894450D1*
X420530Y4034941D2*
X4894450D1*
X420530Y4010072D2*
X4894450D1*
X420530Y3985203D2*
X2093403D1*
X2144011D2*
X2680898D1*
X2731507D2*
X4894450D1*
X420530Y3960335D2*
X465696D1*
X2031658D2*
X2065341D1*
X2172073D2*
X2652837D1*
X2759569D2*
X3504728D1*
X3679998D2*
X4894450D1*
X420530Y3935466D2*
X440828D1*
X2179680D2*
X2645230D1*
X2767176D2*
X3492168D1*
X3875280D2*
X4894450D1*
X1417751Y3910597D2*
X1996515D1*
X2176092D2*
X2648818D1*
X2763588D2*
X3491630D1*
X3900219D2*
X4894450D1*
X1442619Y3885728D2*
X2079192D1*
X2158186D2*
X2666688D1*
X2745681D2*
X3503005D1*
X3925087D2*
X4894450D1*
X537763Y3860860D2*
X779539D1*
X895349D2*
X976400D1*
X1092210D2*
X1382573D1*
X1467487D2*
X3548937D1*
X3635860D2*
X3845591D1*
X3949955D2*
X4894450D1*
X512896Y3835991D2*
X779539D1*
X895349D2*
X976400D1*
X1092210D2*
X1407440D1*
X1492355D2*
X3870459D1*
X3974858D2*
X4894450D1*
X487992Y3811122D2*
X768666D1*
X895349D2*
X976400D1*
X1092210D2*
X1432308D1*
X1517222D2*
X3407733D1*
X3429742D2*
X3895327D1*
X3999726D2*
X4271788D1*
X4333162D2*
X4626108D1*
X4687482D2*
X4894450D1*
X486951Y3786253D2*
X743798D1*
X895349D2*
X976400D1*
X1092210D2*
X1457176D1*
X1542090D2*
X3366717D1*
X3470686D2*
X3920195D1*
X4024594D2*
X4238236D1*
X4366678D2*
X4592557D1*
X4721034D2*
X4894450D1*
X486951Y3761385D2*
X719182D1*
X803845D2*
X1482044D1*
X1566958D2*
X3356454D1*
X3480948D2*
X3736862D1*
X3820233D2*
X3945062D1*
X4049462D2*
X4225210D1*
X4379740D2*
X4579531D1*
X4734060D2*
X4894450D1*
X486951Y3736516D2*
X712938D1*
X778977D2*
X1506911D1*
X1591825D2*
X3354875D1*
X3482527D2*
X3718131D1*
X3838929D2*
X3969930D1*
X4074329D2*
X4221658D1*
X4383256D2*
X4575978D1*
X4737613D2*
X4894450D1*
X486951Y3711647D2*
X712938D1*
X774455D2*
X1531815D1*
X1616693D2*
X3354875D1*
X3482527D2*
X3713358D1*
X3843738D2*
X3994798D1*
X4099197D2*
X4226215D1*
X4378699D2*
X4580535D1*
X4733019D2*
X4894450D1*
X486951Y3686778D2*
X712938D1*
X895349D2*
X976400D1*
X1092210D2*
X1556683D1*
X1641561D2*
X3354875D1*
X3482527D2*
X3718849D1*
X3838247D2*
X4019666D1*
X4124065D2*
X4240748D1*
X4364166D2*
X4595069D1*
X4718522D2*
X4894450D1*
X486951Y3661909D2*
X712938D1*
X895349D2*
X976400D1*
X1092210D2*
X1581550D1*
X1666429D2*
X3356741D1*
X3480661D2*
X3547250D1*
X3637439D2*
X3738944D1*
X3818152D2*
X4044533D1*
X4148933D2*
X4264826D1*
X4340088D2*
X4635869D1*
X4677686D2*
X4894450D1*
X486951Y3637041D2*
X712938D1*
X895349D2*
X976400D1*
X1092210D2*
X1606418D1*
X1691296D2*
X2073810D1*
X2163604D2*
X2661306D1*
X2751100D2*
X3367722D1*
X3469681D2*
X3502790D1*
X3681972D2*
X3740917D1*
X3816179D2*
X4069401D1*
X4173800D2*
X4264826D1*
X4340088D2*
X4894450D1*
X486951Y3612172D2*
X712938D1*
X895349D2*
X953685D1*
X1092210D2*
X1631286D1*
X2177707D2*
X2647203D1*
X2765202D2*
X3491558D1*
X3693168D2*
X3740917D1*
X3816179D2*
X4094269D1*
X4198668D2*
X4264826D1*
X4340088D2*
X4894450D1*
X486951Y3587303D2*
X712938D1*
X895349D2*
X928817D1*
X1092210D2*
X1656154D1*
X2179070D2*
X2645804D1*
X2766602D2*
X3492240D1*
X3692486D2*
X3740917D1*
X3816179D2*
X4119137D1*
X4223285D2*
X4264826D1*
X4340088D2*
X4894450D1*
X486951Y3562434D2*
X712938D1*
X774455D2*
X903949D1*
X1008313D2*
X2068535D1*
X2168879D2*
X2656031D1*
X2756375D2*
X3504943D1*
X3679783D2*
X3740917D1*
X3816179D2*
X4144004D1*
X4231323D2*
X4264826D1*
X4340088D2*
X4894450D1*
X486951Y3537566D2*
X712938D1*
X774455D2*
X879082D1*
X983445D2*
X3740917D1*
X3816179D2*
X4156061D1*
X4231323D2*
X4265006D1*
X4358281D2*
X4894450D1*
X486951Y3512697D2*
X712938D1*
X774455D2*
X863795D1*
X958577D2*
X2068642D1*
X2168771D2*
X3740917D1*
X3816179D2*
X4156061D1*
X4231323D2*
X4278749D1*
X4436903D2*
X4448338D1*
X4510896D2*
X4546768D1*
X4609327D2*
X4894450D1*
X486951Y3487828D2*
X712938D1*
X779515D2*
X863400D1*
X938662D2*
X2058344D1*
X2179070D2*
X3740917D1*
X3816179D2*
X4156061D1*
X4231323D2*
X4303617D1*
X4633226D2*
X4894450D1*
X486951Y3462959D2*
X719648D1*
X804383D2*
X863400D1*
X938662D2*
X2059671D1*
X2177742D2*
X3740917D1*
X3816179D2*
X4156061D1*
X4231323D2*
X4320088D1*
X4636491D2*
X4894450D1*
X486951Y3438091D2*
X744372D1*
X811954D2*
X863400D1*
X938662D2*
X2073666D1*
X2163712D2*
X3740917D1*
X3816179D2*
X4156061D1*
X4231323D2*
X4304658D1*
X4633800D2*
X4894450D1*
X486951Y3413222D2*
X750437D1*
X811954D2*
X863400D1*
X938662D2*
X3737365D1*
X3819731D2*
X4156061D1*
X4231323D2*
X4279790D1*
X4437693D2*
X4447252D1*
X4512009D2*
X4540417D1*
X4615678D2*
X4894450D1*
X486951Y3388353D2*
X750437D1*
X811954D2*
X863400D1*
X938662D2*
X3733059D1*
X3824037D2*
X4156061D1*
X4231323D2*
X4265113D1*
X4359286D2*
X4523013D1*
X4615571D2*
X4894450D1*
X486951Y3363484D2*
X557775D1*
X679649D2*
X750437D1*
X811954D2*
X863400D1*
X938662D2*
X3744972D1*
X3812088D2*
X3975349D1*
X4062057D2*
X4156061D1*
X4231323D2*
X4264826D1*
X4340088D2*
X4506722D1*
X4602545D2*
X4894450D1*
X486951Y3338615D2*
X539043D1*
X698381D2*
X750437D1*
X811954D2*
X863400D1*
X938662D2*
X3946677D1*
X4090728D2*
X4156061D1*
X4231323D2*
X4264826D1*
X4340088D2*
X4506112D1*
X4581373D2*
X4894450D1*
X486951Y3313747D2*
X531005D1*
X706419D2*
X750437D1*
X811954D2*
X863400D1*
X938662D2*
X3933974D1*
X4103431D2*
X4156061D1*
X4231323D2*
X4264826D1*
X4340088D2*
X4506112D1*
X4581373D2*
X4894450D1*
X486951Y3288878D2*
X530610D1*
X706814D2*
X750437D1*
X811954D2*
X863400D1*
X938662D2*
X1711631D1*
X2109706D2*
X3929883D1*
X4107522D2*
X4156061D1*
X4231323D2*
X4264826D1*
X4340088D2*
X4506112D1*
X4581373D2*
X4894450D1*
X486951Y3264009D2*
X537715D1*
X699673D2*
X750437D1*
X811954D2*
X863400D1*
X938662D2*
X1686763D1*
X2134574D2*
X3933113D1*
X4104293D2*
X4156061D1*
X4231323D2*
X4264826D1*
X4340088D2*
X4506112D1*
X4581373D2*
X4894450D1*
X486951Y3239140D2*
X554940D1*
X682448D2*
X750437D1*
X811954D2*
X863400D1*
X938662D2*
X1661895D1*
X1746773D2*
X2043775D1*
X2178460D2*
X2637514D1*
X2772236D2*
X3525002D1*
X3659723D2*
X3944668D1*
X4092738D2*
X4156061D1*
X4231323D2*
X4264826D1*
X4340088D2*
X4506112D1*
X4581373D2*
X4894450D1*
X486951Y3214272D2*
X605716D1*
X631672D2*
X750437D1*
X811954D2*
X863400D1*
X938662D2*
X1637027D1*
X1721906D2*
X2017005D1*
X2205230D2*
X2610781D1*
X2798969D2*
X3498268D1*
X3686457D2*
X3970433D1*
X4066973D2*
X4156061D1*
X4231323D2*
X4264826D1*
X4340088D2*
X4506112D1*
X4581373D2*
X4894450D1*
X486951Y3189403D2*
X750437D1*
X811954D2*
X863400D1*
X938662D2*
X1591455D1*
X1697038D2*
X2009864D1*
X2212371D2*
X2603604D1*
X2806110D2*
X3491127D1*
X3840616D2*
X4156061D1*
X4231323D2*
X4264826D1*
X4340088D2*
X4506112D1*
X4581373D2*
X4894450D1*
X486951Y3164534D2*
X734576D1*
X811631D2*
X863400D1*
X938662D2*
X1582914D1*
X1674539D2*
X2013237D1*
X2208998D2*
X2606977D1*
X2802737D2*
X3494501D1*
X3865483D2*
X4156061D1*
X4231323D2*
X4264826D1*
X4340088D2*
X4506112D1*
X4581373D2*
X4894450D1*
X486951Y3139665D2*
X714266D1*
X938662D2*
X976400D1*
X1092210D2*
X1590055D1*
X1667398D2*
X2028955D1*
X2193280D2*
X2622730D1*
X2787020D2*
X3510218D1*
X3885220D2*
X4156061D1*
X4231323D2*
X4264826D1*
X4340088D2*
X4506112D1*
X4581373D2*
X4894450D1*
X486951Y3114797D2*
X712938D1*
X938662D2*
X976400D1*
X1092210D2*
X3810856D1*
X3887050D2*
X4156061D1*
X4231323D2*
X4264826D1*
X4340088D2*
X4506112D1*
X4581373D2*
X4894450D1*
X486951Y3089928D2*
X712938D1*
X938662D2*
X976400D1*
X1092210D2*
X3811789D1*
X3887050D2*
X4156061D1*
X4231323D2*
X4264826D1*
X4340088D2*
X4506112D1*
X4581373D2*
X4894450D1*
X486951Y3065059D2*
X712938D1*
X938662D2*
X976400D1*
X1092210D2*
X3383941D1*
X3453461D2*
X3811789D1*
X3887050D2*
X4156061D1*
X4231323D2*
X4255532D1*
X4349382D2*
X4506112D1*
X4581373D2*
X4609889D1*
X4703702D2*
X4894450D1*
X486951Y3040190D2*
X712938D1*
X820136D2*
X863400D1*
X938662D2*
X3361765D1*
X3475638D2*
X3811789D1*
X3887050D2*
X4156061D1*
X4372527D2*
X4506112D1*
X4726847D2*
X4894450D1*
X486951Y3015322D2*
X553504D1*
X683884D2*
X712938D1*
X805711D2*
X863400D1*
X938662D2*
X3354983D1*
X3482420D2*
X3728071D1*
X3887050D2*
X4156061D1*
X4381893D2*
X4506112D1*
X4736213D2*
X4894450D1*
X486951Y2990453D2*
X553504D1*
X683884D2*
X712938D1*
X805711D2*
X863400D1*
X938662D2*
X3354875D1*
X3482527D2*
X3715296D1*
X3887050D2*
X4156061D1*
X4382646D2*
X4506112D1*
X4736967D2*
X4894450D1*
X493626Y2965584D2*
X553504D1*
X683884D2*
X712938D1*
X805711D2*
X847755D1*
X938662D2*
X3354875D1*
X3482527D2*
X3714040D1*
X3887050D2*
X4156061D1*
X4375039D2*
X4506112D1*
X4729395D2*
X4894450D1*
X518494Y2940715D2*
X553504D1*
X683884D2*
X712938D1*
X927250D2*
X976400D1*
X1092210D2*
X3354875D1*
X3482527D2*
X3723513D1*
X3887050D2*
X4138514D1*
X4231215D2*
X4249396D1*
X4355518D2*
X4506112D1*
X4581373D2*
X4603753D1*
X4709838D2*
X4894450D1*
X543361Y2915846D2*
X553504D1*
X683884D2*
X712938D1*
X902383D2*
X976400D1*
X1092210D2*
X2039720D1*
X2182515D2*
X2633495D1*
X2776255D2*
X3358607D1*
X3478795D2*
X3520983D1*
X3663778D2*
X3740917D1*
X3887050D2*
X4113646D1*
X4218046D2*
X4264826D1*
X4340088D2*
X4506112D1*
X4581373D2*
X4894450D1*
X455696Y2890978D2*
X483351D1*
X681803D2*
X712938D1*
X901773D2*
X976400D1*
X1092210D2*
X2015964D1*
X2206270D2*
X2609704D1*
X2800010D2*
X3376477D1*
X3460925D2*
X3497228D1*
X3687534D2*
X3740917D1*
X3887050D2*
X4088779D1*
X4193178D2*
X4264826D1*
X4340088D2*
X4506112D1*
X4581373D2*
X4894450D1*
X455696Y2866109D2*
X508219D1*
X683274D2*
X712938D1*
X926640D2*
X976400D1*
X1092210D2*
X2009864D1*
X2212371D2*
X2603604D1*
X2806110D2*
X3491127D1*
X3693634D2*
X3740917D1*
X3887050D2*
X4063911D1*
X4168310D2*
X4264826D1*
X4340088D2*
X4506112D1*
X4581373D2*
X4894450D1*
X474679Y2841240D2*
X563337D1*
X674052D2*
X712938D1*
X805711D2*
X847109D1*
X938626D2*
X2014098D1*
X2208172D2*
X2607838D1*
X2801912D2*
X3495326D1*
X3689400D2*
X3740917D1*
X3887050D2*
X4039043D1*
X4143442D2*
X4264826D1*
X4340088D2*
X4507081D1*
X4604231D2*
X4894450D1*
X499547Y2816371D2*
X569150D1*
X668274D2*
X712938D1*
X805711D2*
X863400D1*
X938662D2*
X2031431D1*
X2190804D2*
X2625170D1*
X2784580D2*
X3512658D1*
X3672068D2*
X3740917D1*
X3887050D2*
X4014175D1*
X4118575D2*
X4264826D1*
X4341990D2*
X4524700D1*
X4615678D2*
X4894450D1*
X420530Y2791503D2*
X439500D1*
X681659D2*
X712938D1*
X805711D2*
X863400D1*
X938662D2*
X3740917D1*
X3887050D2*
X3989308D1*
X4093707D2*
X4267015D1*
X4366857D2*
X4540417D1*
X4615678D2*
X4894450D1*
X420530Y2766634D2*
X464368D1*
X683346D2*
X712938D1*
X805711D2*
X863400D1*
X938662D2*
X3740917D1*
X3887050D2*
X3970145D1*
X4068839D2*
X4287326D1*
X4519544D2*
X4538120D1*
X4617975D2*
X4894450D1*
X420530Y2741765D2*
X563014D1*
X674410D2*
X712938D1*
X805711D2*
X863400D1*
X938662D2*
X3740917D1*
X3887050D2*
X3968567D1*
X4043971D2*
X4312194D1*
X4636240D2*
X4894450D1*
X420530Y2716896D2*
X569616D1*
X667808D2*
X712938D1*
X805711D2*
X863400D1*
X938662D2*
X3740917D1*
X3887050D2*
X3968567D1*
X4043828D2*
X4320088D1*
X4636491D2*
X4894450D1*
X420530Y2692028D2*
X555873D1*
X681515D2*
X712938D1*
X805711D2*
X863400D1*
X938662D2*
X3740917D1*
X3887050D2*
X3968567D1*
X4043828D2*
X4296082D1*
X4626731D2*
X4894450D1*
X420530Y2667159D2*
X554007D1*
X683417D2*
X712938D1*
X805711D2*
X863400D1*
X938662D2*
X3736288D1*
X3887050D2*
X3953495D1*
X4083910D2*
X4271752D1*
X4425169D2*
X4540417D1*
X4615678D2*
X4894450D1*
X420530Y2642290D2*
X562691D1*
X674733D2*
X712938D1*
X805711D2*
X863400D1*
X938662D2*
X3733382D1*
X3887050D2*
X3953495D1*
X4083910D2*
X4264826D1*
X4350745D2*
X4540417D1*
X4615678D2*
X4894450D1*
X420530Y2617421D2*
X570083D1*
X667305D2*
X712938D1*
X805711D2*
X863400D1*
X938662D2*
X1096396D1*
X1118573D2*
X3747412D1*
X3887050D2*
X3953495D1*
X4083910D2*
X4264826D1*
X4340088D2*
X4540417D1*
X4615678D2*
X4894450D1*
X420530Y2592553D2*
X556016D1*
X681372D2*
X712938D1*
X805711D2*
X863400D1*
X938662D2*
X1065392D1*
X1149589D2*
X3811789D1*
X3887050D2*
X3953495D1*
X4083910D2*
X4264826D1*
X4340088D2*
X4540417D1*
X4615678D2*
X4894450D1*
X420530Y2567684D2*
X553935D1*
X683489D2*
X712938D1*
X805711D2*
X863400D1*
X938662D2*
X1062270D1*
X1152711D2*
X3811789D1*
X3902193D2*
X3953495D1*
X4083910D2*
X4264826D1*
X4340088D2*
X4522618D1*
X4615535D2*
X4894450D1*
X420530Y2542815D2*
X562368D1*
X675020D2*
X694135D1*
X805711D2*
X863400D1*
X938662D2*
X1024413D1*
X1145103D2*
X3822661D1*
X4081291D2*
X4264826D1*
X4340088D2*
X4506650D1*
X4602114D2*
X4894450D1*
X420530Y2517946D2*
X570585D1*
X805711D2*
X863400D1*
X938662D2*
X1005860D1*
X1144134D2*
X3847529D1*
X4083516D2*
X4264826D1*
X4340088D2*
X4506112D1*
X4581373D2*
X4894450D1*
X420530Y2493077D2*
X556196D1*
X729277D2*
X744193D1*
X805711D2*
X863400D1*
X938662D2*
X1006291D1*
X1126551D2*
X2030175D1*
X2192060D2*
X2623950D1*
X2785800D2*
X3505194D1*
X3667044D2*
X3875447D1*
X4075191D2*
X4264826D1*
X4340088D2*
X4506112D1*
X4581373D2*
X4894450D1*
X420530Y2468209D2*
X553863D1*
X704410D2*
X744193D1*
X805711D2*
X863400D1*
X938662D2*
X1026745D1*
X1073407D2*
X2013704D1*
X2208567D2*
X2380476D1*
X2802307D2*
X3488687D1*
X3924477D2*
X3970827D1*
X4066578D2*
X4264826D1*
X4340088D2*
X4506112D1*
X4581373D2*
X4894450D1*
X420530Y2443340D2*
X562045D1*
X675343D2*
X744193D1*
X805711D2*
X863400D1*
X938662D2*
X2009864D1*
X2212371D2*
X2355608D1*
X2806110D2*
X3484884D1*
X4081147D2*
X4264826D1*
X4340088D2*
X4506112D1*
X4581373D2*
X4894450D1*
X420530Y2418471D2*
X571052D1*
X666336D2*
X722124D1*
X803737D2*
X863400D1*
X938662D2*
X2016431D1*
X2205840D2*
X2333791D1*
X2799580D2*
X3491415D1*
X4083552D2*
X4264826D1*
X4340088D2*
X4506112D1*
X4581373D2*
X4894450D1*
X420530Y2393602D2*
X556339D1*
X938662D2*
X976400D1*
X1092210D2*
X2041622D1*
X2180649D2*
X2330525D1*
X2410272D2*
X2635361D1*
X2774389D2*
X3516605D1*
X3655633D2*
X3897193D1*
X4075514D2*
X4264826D1*
X4340088D2*
X4506112D1*
X4581373D2*
X4894450D1*
X420530Y2368734D2*
X553827D1*
X757303D2*
X779539D1*
X938662D2*
X976400D1*
X1092210D2*
X2330525D1*
X2405786D2*
X3971330D1*
X4066076D2*
X4264826D1*
X4340088D2*
X4506112D1*
X4581373D2*
X4894450D1*
X420530Y2343865D2*
X561758D1*
X675630D2*
X779539D1*
X938662D2*
X976400D1*
X1092210D2*
X2330525D1*
X2405786D2*
X3703059D1*
X4080968D2*
X4264826D1*
X4340088D2*
X4506112D1*
X4581373D2*
X4894450D1*
X420530Y2318996D2*
X571590D1*
X665834D2*
X779539D1*
X938662D2*
X976400D1*
X1092210D2*
X2330525D1*
X2405786D2*
X3367327D1*
X3457588D2*
X3678192D1*
X4083623D2*
X4245162D1*
X4359788D2*
X4506112D1*
X4581373D2*
X4599482D1*
X4714109D2*
X4894450D1*
X420530Y2294127D2*
X556519D1*
X680905D2*
X863400D1*
X938662D2*
X2330525D1*
X2405786D2*
X3351610D1*
X3473269D2*
X3657702D1*
X4075801D2*
X4114005D1*
X4376869D2*
X4506112D1*
X4731189D2*
X4894450D1*
X420530Y2269259D2*
X553756D1*
X683633D2*
X863400D1*
X938662D2*
X2330525D1*
X2405786D2*
X3348631D1*
X3476284D2*
X3655405D1*
X3828810D2*
X3971832D1*
X4065574D2*
X4086913D1*
X4383041D2*
X4506112D1*
X4737361D2*
X4894450D1*
X420530Y2244390D2*
X561471D1*
X675953D2*
X863400D1*
X938662D2*
X2330525D1*
X2405786D2*
X3348631D1*
X3476284D2*
X3655405D1*
X3837099D2*
X3853701D1*
X4381032D2*
X4506112D1*
X4735352D2*
X4894450D1*
X420530Y2219521D2*
X572092D1*
X665296D2*
X845422D1*
X938518D2*
X2330525D1*
X2405786D2*
X3348631D1*
X3476284D2*
X3655405D1*
X4141540D2*
X4234827D1*
X4370087D2*
X4506112D1*
X4581373D2*
X4589184D1*
X4724407D2*
X4894450D1*
X420530Y2194652D2*
X556662D1*
X753571D2*
X779539D1*
X924954D2*
X976400D1*
X1092210D2*
X1321354D1*
X1376628D2*
X2330525D1*
X2405786D2*
X3349098D1*
X3475781D2*
X3655405D1*
X4127223D2*
X4261776D1*
X4343138D2*
X4506112D1*
X4581373D2*
X4616097D1*
X4697458D2*
X4894450D1*
X420530Y2169783D2*
X553720D1*
X900086D2*
X976400D1*
X1393529D2*
X2028022D1*
X2194213D2*
X2330525D1*
X2405786D2*
X2621761D1*
X2787953D2*
X3356921D1*
X3467958D2*
X3503005D1*
X3730667D2*
X3805509D1*
X3883497D2*
X3972370D1*
X4127223D2*
X4264826D1*
X4340088D2*
X4506112D1*
X4581373D2*
X4894450D1*
X420530Y2144915D2*
X561184D1*
X895349D2*
X976400D1*
X1392345D2*
X2012843D1*
X2209392D2*
X2330525D1*
X2405786D2*
X2606582D1*
X2803132D2*
X3374827D1*
X3450088D2*
X3487862D1*
X3730667D2*
X3805509D1*
X3880806D2*
X3956761D1*
X4127223D2*
X4264826D1*
X4340088D2*
X4506112D1*
X4581373D2*
X4894450D1*
X420530Y2120046D2*
X585944D1*
X651480D2*
X723775D1*
X895349D2*
X976400D1*
X1092210D2*
X1328280D1*
X1369702D2*
X2009864D1*
X2212371D2*
X2330525D1*
X2405786D2*
X2603640D1*
X2806110D2*
X3374827D1*
X3450088D2*
X3484884D1*
X3730667D2*
X3805509D1*
X3880806D2*
X3953711D1*
X4127223D2*
X4264826D1*
X4340088D2*
X4506112D1*
X4587904D2*
X4894450D1*
X420530Y2095177D2*
X726717D1*
X875075D2*
X2017615D1*
X2204620D2*
X2330525D1*
X2405786D2*
X2611355D1*
X2798359D2*
X3374827D1*
X3450088D2*
X3492635D1*
X3730667D2*
X3805509D1*
X3880806D2*
X3961031D1*
X4127223D2*
X4264826D1*
X4340088D2*
X4510382D1*
X4611049D2*
X4894450D1*
X420530Y2070308D2*
X726717D1*
X875075D2*
X2045641D1*
X2176594D2*
X2330525D1*
X2405786D2*
X2639416D1*
X2770370D2*
X3374827D1*
X3450088D2*
X3520660D1*
X3730667D2*
X3805509D1*
X3880806D2*
X3972909D1*
X4127223D2*
X4264826D1*
X4350530D2*
X4533276D1*
X4615678D2*
X4894450D1*
X420530Y2045440D2*
X726717D1*
X875075D2*
X2330525D1*
X2405786D2*
X3374827D1*
X3450088D2*
X3655405D1*
X3730667D2*
X3805509D1*
X3880806D2*
X3956940D1*
X4121696D2*
X4271609D1*
X4424415D2*
X4540417D1*
X4615678D2*
X4894450D1*
X420530Y2020571D2*
X573205D1*
X664219D2*
X726717D1*
X875075D2*
X2330525D1*
X2405786D2*
X3374827D1*
X3450088D2*
X3644712D1*
X3730667D2*
X3805509D1*
X3880806D2*
X3953675D1*
X4098013D2*
X4295902D1*
X4626551D2*
X4894450D1*
X420530Y1995702D2*
X557021D1*
X680367D2*
X726717D1*
X875075D2*
X2324317D1*
X2411994D2*
X3374827D1*
X3450088D2*
X3611375D1*
X3723705D2*
X3805509D1*
X3880806D2*
X3960744D1*
X4076662D2*
X4320088D1*
X4636491D2*
X4894450D1*
X420530Y1970833D2*
X553648D1*
X683776D2*
X726717D1*
X875075D2*
X2323994D1*
X2412317D2*
X3374827D1*
X3450088D2*
X3478030D1*
X3699376D2*
X3805509D1*
X3880806D2*
X3973483D1*
X4063923D2*
X4320088D1*
X4636276D2*
X4894450D1*
X420530Y1945965D2*
X560610D1*
X676779D2*
X726717D1*
X875075D2*
X2342690D1*
X2393622D2*
X3374827D1*
X3677737D2*
X3805509D1*
X3880806D2*
X3957120D1*
X4080286D2*
X4320913D1*
X4519760D2*
X4537941D1*
X4618154D2*
X4894450D1*
X420530Y1921096D2*
X573743D1*
X663645D2*
X726717D1*
X875075D2*
X3374827D1*
X3532658D2*
X3606603D1*
X3660082D2*
X3702916D1*
X3784923D2*
X3805509D1*
X3880806D2*
X3953639D1*
X4083767D2*
X4343556D1*
X4418853D2*
X4530656D1*
X4615678D2*
X4894450D1*
X420530Y1896227D2*
X519020D1*
X680188D2*
X726717D1*
X875075D2*
X3374827D1*
X3510732D2*
X3698359D1*
X3789445D2*
X3805509D1*
X3880806D2*
X3960457D1*
X4076913D2*
X4343556D1*
X4418853D2*
X4509126D1*
X4609398D2*
X4894450D1*
X420530Y1871358D2*
X494152D1*
X683812D2*
X726717D1*
X875075D2*
X3372028D1*
X3510732D2*
X3706253D1*
X3781550D2*
X3805509D1*
X3880806D2*
X3981054D1*
X4061985D2*
X4343556D1*
X4418853D2*
X4506112D1*
X4585320D2*
X4894450D1*
X420530Y1846490D2*
X469284D1*
X677066D2*
X726717D1*
X879488D2*
X3366789D1*
X3510732D2*
X3706253D1*
X3781550D2*
X3805509D1*
X3880806D2*
X3984894D1*
X4086853D2*
X4343556D1*
X4422585D2*
X4506112D1*
X4581373D2*
X4894450D1*
X420530Y1821621D2*
X444417D1*
X548816D2*
X574317D1*
X663071D2*
X726717D1*
X896749D2*
X1479747D1*
X1537353D2*
X3377554D1*
X3510732D2*
X3706253D1*
X3781550D2*
X3805509D1*
X3880806D2*
X4007321D1*
X4111721D2*
X4347575D1*
X4426604D2*
X4506112D1*
X4581373D2*
X4894450D1*
X523948Y1796752D2*
X557416D1*
X679972D2*
X726717D1*
X921617D2*
X1463814D1*
X1553322D2*
X3435435D1*
X3510732D2*
X3706253D1*
X3781550D2*
X3805509D1*
X3880806D2*
X4032225D1*
X4136588D2*
X4351307D1*
X4426604D2*
X4506112D1*
X4581373D2*
X4894450D1*
X499080Y1771883D2*
X553576D1*
X683812D2*
X726717D1*
X802015D2*
X842121D1*
X938016D2*
X1465537D1*
X1560929D2*
X3435435D1*
X3510732D2*
X3706253D1*
X3781550D2*
X3805509D1*
X3880806D2*
X4057093D1*
X4161456D2*
X4351307D1*
X4426604D2*
X4506112D1*
X4581373D2*
X4894450D1*
X487597Y1747014D2*
X560071D1*
X677317D2*
X726717D1*
X802015D2*
X863400D1*
X938662D2*
X1435287D1*
X1611956D2*
X2022782D1*
X2199452D2*
X2621797D1*
X2787953D2*
X3435435D1*
X3669197D2*
X3706253D1*
X3781550D2*
X3805509D1*
X3880806D2*
X4081961D1*
X4186324D2*
X4351307D1*
X4426604D2*
X4506112D1*
X4581373D2*
X4894450D1*
X487597Y1722146D2*
X574927D1*
X662461D2*
X726717D1*
X802015D2*
X863400D1*
X938662D2*
X1423158D1*
X1624085D2*
X2010689D1*
X2211581D2*
X2606618D1*
X2803132D2*
X3435435D1*
X3684376D2*
X3706253D1*
X3781550D2*
X3805509D1*
X3880806D2*
X4106828D1*
X4211192D2*
X4351307D1*
X4426604D2*
X4506112D1*
X4581373D2*
X4894450D1*
X487597Y1697277D2*
X557631D1*
X679793D2*
X726717D1*
X811057D2*
X863400D1*
X938662D2*
X1423050D1*
X1624193D2*
X2010546D1*
X2211689D2*
X2603640D1*
X2806110D2*
X3440854D1*
X3687390D2*
X3706253D1*
X3781550D2*
X3805509D1*
X3880806D2*
X4131696D1*
X4224899D2*
X4351307D1*
X4426604D2*
X4506112D1*
X4581373D2*
X4894450D1*
X487597Y1672408D2*
X553540D1*
X683848D2*
X732567D1*
X938662D2*
X976400D1*
X1092210D2*
X1434928D1*
X1612315D2*
X2022424D1*
X2199811D2*
X2611355D1*
X2798359D2*
X3492599D1*
X3679639D2*
X3706253D1*
X3781550D2*
X3805509D1*
X3880806D2*
X4149818D1*
X4225079D2*
X4351307D1*
X4426604D2*
X4506112D1*
X4581373D2*
X4894450D1*
X487597Y1647539D2*
X559820D1*
X677604D2*
X756430D1*
X938662D2*
X976400D1*
X1092210D2*
X2639380D1*
X2770406D2*
X3520624D1*
X3651650D2*
X3695308D1*
X3781550D2*
X3805509D1*
X3880806D2*
X4149818D1*
X4225079D2*
X4351307D1*
X4426604D2*
X4506112D1*
X4581373D2*
X4894450D1*
X487597Y1622671D2*
X575537D1*
X661851D2*
X779539D1*
X938662D2*
X976400D1*
X1092210D2*
X3040027D1*
X3774373D2*
X3805509D1*
X3880806D2*
X4149818D1*
X4225079D2*
X4351307D1*
X4426604D2*
X4506112D1*
X4581373D2*
X4894450D1*
X487597Y1597802D2*
X557811D1*
X679578D2*
X779539D1*
X938662D2*
X976400D1*
X1092210D2*
X3015160D1*
X3749972D2*
X3805509D1*
X3880806D2*
X4149818D1*
X4225079D2*
X4328772D1*
X4425671D2*
X4506112D1*
X4581373D2*
X4894450D1*
X487597Y1572933D2*
X553540D1*
X683848D2*
X779539D1*
X938662D2*
X976400D1*
X1092210D2*
X2483428D1*
X2578999D2*
X2992876D1*
X3724746D2*
X3805509D1*
X3880806D2*
X4149818D1*
X4225079D2*
X4242901D1*
X4408303D2*
X4506112D1*
X4581373D2*
X4597222D1*
X4716369D2*
X4894450D1*
X487597Y1548064D2*
X559569D1*
X677855D2*
X863400D1*
X938662D2*
X2469899D1*
X2592492D2*
X2857305D1*
X2924779D2*
X2989215D1*
X3069787D2*
X3351143D1*
X3473736D2*
X3738549D1*
X3880806D2*
X4149818D1*
X4383436D2*
X4506112D1*
X4732158D2*
X4894450D1*
X487597Y1523196D2*
X580812D1*
X656576D2*
X863400D1*
X938662D2*
X2467388D1*
X2595040D2*
X2833227D1*
X2948858D2*
X2989215D1*
X3064512D2*
X3348631D1*
X3880806D2*
X4149818D1*
X4383185D2*
X4506112D1*
X4737505D2*
X4894450D1*
X487597Y1498327D2*
X861750D1*
X938662D2*
X2467388D1*
X2595040D2*
X2826014D1*
X2956070D2*
X2989215D1*
X3064512D2*
X3348631D1*
X3880806D2*
X4149818D1*
X4380421D2*
X4506112D1*
X4734778D2*
X4894450D1*
X487597Y1473458D2*
X779539D1*
X936580D2*
X976400D1*
X1092210D2*
X2467388D1*
X2595040D2*
X2829208D1*
X2952877D2*
X2989215D1*
X3064512D2*
X3348631D1*
X3880806D2*
X4149818D1*
X4225079D2*
X4236471D1*
X4368472D2*
X4506112D1*
X4581373D2*
X4590762D1*
X4722792D2*
X4894450D1*
X487597Y1448589D2*
X779539D1*
X916377D2*
X976400D1*
X1092210D2*
X1473862D1*
X1573381D2*
X2061358D1*
X2160877D2*
X2468249D1*
X2594143D2*
X2844997D1*
X2937088D2*
X2989215D1*
X3064512D2*
X3349528D1*
X3475386D2*
X3726241D1*
X3880806D2*
X4149818D1*
X4225079D2*
X4264826D1*
X4340088D2*
X4506112D1*
X4581373D2*
X4620582D1*
X4693009D2*
X4894450D1*
X487597Y1423720D2*
X779539D1*
X895349D2*
X976400D1*
X1092210D2*
X1433349D1*
X1613894D2*
X2020845D1*
X2201390D2*
X2477004D1*
X2585387D2*
X2619824D1*
X2789891D2*
X2989215D1*
X3064512D2*
X3358284D1*
X3466631D2*
X3501067D1*
X3671135D2*
X3734638D1*
X3880806D2*
X4149818D1*
X4225079D2*
X4264826D1*
X4340088D2*
X4506112D1*
X4581373D2*
X4894450D1*
X487597Y1398852D2*
X779539D1*
X895349D2*
X976400D1*
X1109506D2*
X1422655D1*
X1624588D2*
X2010187D1*
X2212084D2*
X2507255D1*
X2555136D2*
X2605757D1*
X2803993D2*
X2989215D1*
X3064512D2*
X3388535D1*
X3436380D2*
X3487001D1*
X3685237D2*
X3734638D1*
X3880806D2*
X4149818D1*
X4225079D2*
X4264826D1*
X4352898D2*
X4506112D1*
X4581373D2*
X4894450D1*
X487597Y1373983D2*
X571805D1*
X665583D2*
X779539D1*
X895349D2*
X976400D1*
X1134374D2*
X1423768D1*
X1623475D2*
X2011264D1*
X2210971D2*
X2603676D1*
X2806075D2*
X2989215D1*
X3064512D2*
X3484920D1*
X3687318D2*
X3734638D1*
X3880806D2*
X3971796D1*
X4065574D2*
X4149818D1*
X4225079D2*
X4273510D1*
X4377766D2*
X4506112D1*
X4590236D2*
X4894450D1*
X487597Y1349114D2*
X545251D1*
X692137D2*
X1054842D1*
X1159242D2*
X1436901D1*
X1610342D2*
X2024397D1*
X2197838D2*
X2612934D1*
X2796816D2*
X2989215D1*
X3064512D2*
X3494178D1*
X3678060D2*
X3734638D1*
X3880806D2*
X3945242D1*
X4092164D2*
X4149818D1*
X4225079D2*
X4298270D1*
X4402634D2*
X4511781D1*
X4612269D2*
X4894450D1*
X487597Y1324245D2*
X533373D1*
X704015D2*
X1079710D1*
X1184109D2*
X2644620D1*
X2765095D2*
X2989215D1*
X3064512D2*
X3525863D1*
X3646375D2*
X3734638D1*
X3880806D2*
X3933364D1*
X4104041D2*
X4149818D1*
X4225079D2*
X4323138D1*
X4418351D2*
X4535573D1*
X4615678D2*
X4894450D1*
X487597Y1299377D2*
X529893D1*
X707531D2*
X1104578D1*
X1206393D2*
X2989215D1*
X3064512D2*
X3734638D1*
X3880806D2*
X3929883D1*
X4107522D2*
X4149818D1*
X4225079D2*
X4332037D1*
X4430336D2*
X4460144D1*
X4499126D2*
X4540417D1*
X4615678D2*
X4894450D1*
X487597Y1274508D2*
X533732D1*
X703692D2*
X1129446D1*
X1210089D2*
X2989215D1*
X3064512D2*
X3734638D1*
X3880806D2*
X3933723D1*
X4103683D2*
X4149818D1*
X4225079D2*
X4320088D1*
X4628848D2*
X4894450D1*
X487597Y1249639D2*
X546076D1*
X691348D2*
X1134828D1*
X1210089D2*
X2989215D1*
X3064512D2*
X3734638D1*
X3880806D2*
X3946067D1*
X4091338D2*
X4149818D1*
X4225079D2*
X4320088D1*
X4636491D2*
X4894450D1*
X487597Y1224770D2*
X573779D1*
X663609D2*
X1134828D1*
X1210089D2*
X2989215D1*
X3064512D2*
X3734638D1*
X3880806D2*
X3973806D1*
X4063600D2*
X4146373D1*
X4225079D2*
X4310076D1*
X4635845D2*
X4894450D1*
X487597Y1199902D2*
X1134828D1*
X1210089D2*
X2989215D1*
X3064512D2*
X3730726D1*
X3880806D2*
X4121505D1*
X4222280D2*
X4285209D1*
X4517427D2*
X4540238D1*
X4615858D2*
X4894450D1*
X502812Y1175033D2*
X1134828D1*
X1210089D2*
X2989215D1*
X3064512D2*
X3726922D1*
X3880806D2*
X4096637D1*
X4201001D2*
X4266298D1*
X4364740D2*
X4540417D1*
X4615678D2*
X4894450D1*
X527680Y1150164D2*
X1134828D1*
X1210089D2*
X2989215D1*
X3064512D2*
X3739554D1*
X3880806D2*
X4071769D1*
X4176133D2*
X4264826D1*
X4340088D2*
X4540417D1*
X4615678D2*
X4894450D1*
X420530Y1125295D2*
X448148D1*
X552548D2*
X1134828D1*
X1210089D2*
X2989215D1*
X3064512D2*
X3805509D1*
X3880806D2*
X4046902D1*
X4151265D2*
X4264826D1*
X4340088D2*
X4520178D1*
X4615212D2*
X4894450D1*
X420530Y1100427D2*
X473016D1*
X577415D2*
X1134828D1*
X1210089D2*
X2130112D1*
X2798790D2*
X2989215D1*
X3064512D2*
X3805509D1*
X3880806D2*
X4021998D1*
X4126397D2*
X4264826D1*
X4340088D2*
X4506291D1*
X4599674D2*
X4894450D1*
X420530Y1075558D2*
X497920D1*
X602283D2*
X1134828D1*
X1210089D2*
X2105244D1*
X2823658D2*
X2989215D1*
X3064512D2*
X3800736D1*
X3880806D2*
X3997130D1*
X4101530D2*
X4264826D1*
X4340088D2*
X4506112D1*
X4581373D2*
X4894450D1*
X420530Y1050689D2*
X522788D1*
X627151D2*
X809395D1*
X876008D2*
X999401D1*
X1066014D2*
X1134828D1*
X1210089D2*
X2083068D1*
X2845870D2*
X2989215D1*
X3064512D2*
X3562681D1*
X3877397D2*
X3972263D1*
X4076662D2*
X4264826D1*
X4340088D2*
X4506112D1*
X4581373D2*
X4894450D1*
X420530Y1025820D2*
X547655D1*
X652019D2*
X773510D1*
X911892D2*
X963517D1*
X1101863D2*
X1134828D1*
X1210089D2*
X2079479D1*
X2159908D2*
X2655205D1*
X2754509D2*
X2769030D1*
X2849423D2*
X2989215D1*
X3064512D2*
X3517323D1*
X3855400D2*
X3947395D1*
X4051794D2*
X4264826D1*
X4340088D2*
X4506112D1*
X4581373D2*
X4894450D1*
X420530Y1000951D2*
X572523D1*
X676886D2*
X758295D1*
X927107D2*
X948302D1*
X1117078D2*
X1134828D1*
X1210089D2*
X2079479D1*
X2154777D2*
X2614620D1*
X2849423D2*
X2989215D1*
X3064512D2*
X3491630D1*
X3830532D2*
X3922527D1*
X4026926D2*
X4264826D1*
X4340088D2*
X4506112D1*
X4581373D2*
X4894450D1*
X420530Y976083D2*
X597391D1*
X701754D2*
X752303D1*
X933099D2*
X942274D1*
X1123106D2*
X1134828D1*
X1210089D2*
X2079479D1*
X2154777D2*
X2382234D1*
X2849423D2*
X2989215D1*
X3064512D2*
X3484884D1*
X3687354D2*
X3897659D1*
X4002059D2*
X4264826D1*
X4340088D2*
X4506112D1*
X4581373D2*
X4894450D1*
X420530Y951214D2*
X622259D1*
X726622D2*
X753523D1*
X931879D2*
X943530D1*
X1121886D2*
X1134828D1*
X1210089D2*
X2079479D1*
X2154777D2*
X2357367D1*
X2849423D2*
X2989215D1*
X3064512D2*
X3488544D1*
X3683694D2*
X3872792D1*
X3977191D2*
X4264826D1*
X4340088D2*
X4506112D1*
X4581373D2*
X4894450D1*
X420530Y926345D2*
X647126D1*
X751490D2*
X762366D1*
X923052D2*
X952321D1*
X1113059D2*
X1123919D1*
X1210089D2*
X2079479D1*
X2154777D2*
X2343372D1*
X2436898D2*
X2618137D1*
X2849423D2*
X2989215D1*
X3064512D2*
X3504763D1*
X3667510D2*
X3847924D1*
X3952323D2*
X4264826D1*
X4340088D2*
X4506112D1*
X4581373D2*
X4894450D1*
X420530Y901476D2*
X671994D1*
X903316D2*
X972093D1*
X1202949D2*
X2079479D1*
X2154777D2*
X2343156D1*
X2418418D2*
X2774161D1*
X2849423D2*
X2984120D1*
X3064512D2*
X3292293D1*
X3927455D2*
X4264826D1*
X4340088D2*
X4506112D1*
X4581373D2*
X4894450D1*
X420530Y876608D2*
X696862D1*
X801225D2*
X1074148D1*
X1178547D2*
X2079479D1*
X2154777D2*
X2343156D1*
X2418418D2*
X2774161D1*
X2849423D2*
X2959252D1*
X3060924D2*
X3264124D1*
X3902588D2*
X4264826D1*
X4340088D2*
X4506112D1*
X4581373D2*
X4894450D1*
X420530Y851739D2*
X721730D1*
X900553D2*
X974857D1*
X1153680D2*
X1902212D1*
X1977724D2*
X2079479D1*
X2154777D2*
X2256532D1*
X2332044D2*
X2343167D1*
X2418418D2*
X2509157D1*
X2553235D2*
X2774161D1*
X2849423D2*
X2934384D1*
X3038784D2*
X3239256D1*
X3877720D2*
X4264719D1*
X4340195D2*
X4506112D1*
X4581373D2*
X4619039D1*
X4694552D2*
X4894450D1*
X420530Y826870D2*
X746597D1*
X921796D2*
X953613D1*
X1128812D2*
X1873397D1*
X2006503D2*
X2079479D1*
X2154777D2*
X2227753D1*
X2418418D2*
X2477399D1*
X2584992D2*
X2774161D1*
X2849423D2*
X2909517D1*
X3013916D2*
X3214389D1*
X3318788D2*
X3355055D1*
X3469860D2*
X4235904D1*
X4369010D2*
X4506112D1*
X4581373D2*
X4590224D1*
X4723331D2*
X4894450D1*
X420530Y802001D2*
X753989D1*
X931413D2*
X943996D1*
X1121420D2*
X1861770D1*
X2018130D2*
X2079479D1*
X2154777D2*
X2216126D1*
X2418418D2*
X2468392D1*
X2593999D2*
X2774161D1*
X2989048D2*
X3189521D1*
X3293920D2*
X3348667D1*
X3476212D2*
X3721145D1*
X3823427D2*
X4224277D1*
X4380637D2*
X4506112D1*
X4734957D2*
X4894450D1*
X420530Y777133D2*
X752088D1*
X933279D2*
X942094D1*
X1123286D2*
X1859258D1*
X2020641D2*
X2079479D1*
X2154777D2*
X2213615D1*
X2418418D2*
X2467388D1*
X2595040D2*
X2774161D1*
X2964180D2*
X3164653D1*
X3269052D2*
X3348631D1*
X3476284D2*
X3708837D1*
X3835735D2*
X4221765D1*
X4383149D2*
X4506112D1*
X4737469D2*
X4894450D1*
X420530Y752264D2*
X757434D1*
X927968D2*
X947405D1*
X1117975D2*
X1864928D1*
X2015008D2*
X2079479D1*
X2154777D2*
X2219248D1*
X2418418D2*
X2467388D1*
X2595040D2*
X2774161D1*
X2956106D2*
X3139785D1*
X3244185D2*
X3348631D1*
X3476284D2*
X3707940D1*
X3836668D2*
X4227399D1*
X4377515D2*
X4506112D1*
X4731835D2*
X4894450D1*
X420530Y727395D2*
X771573D1*
X913830D2*
X961579D1*
X1103801D2*
X1881112D1*
X1998824D2*
X2079479D1*
X2154777D2*
X2235432D1*
X2418418D2*
X2467388D1*
X2595040D2*
X2774161D1*
X2949217D2*
X3114918D1*
X3219317D2*
X3348631D1*
X3476284D2*
X3717808D1*
X3826764D2*
X4243619D1*
X4361331D2*
X4506112D1*
X4581373D2*
X4597939D1*
X4715652D2*
X4894450D1*
X420530Y702526D2*
X803797D1*
X881606D2*
X993768D1*
X1071612D2*
X1902319D1*
X1977616D2*
X2079479D1*
X2154777D2*
X2343156D1*
X2418418D2*
X2469792D1*
X2592635D2*
X2643722D1*
X2766028D2*
X2780908D1*
X3194449D2*
X3352686D1*
X3472193D2*
X3513304D1*
X3658934D2*
X3751360D1*
X3793213D2*
X4264826D1*
X4340088D2*
X4506112D1*
X4581373D2*
X4894450D1*
X420530Y677657D2*
X802218D1*
X883185D2*
X992225D1*
X1073155D2*
X1902319D1*
X1977616D2*
X2079479D1*
X2154777D2*
X2343156D1*
X2418418D2*
X2482710D1*
X2579681D2*
X2612718D1*
X2797032D2*
X2805165D1*
X3169581D2*
X3371203D1*
X3453676D2*
X3490661D1*
X3681577D2*
X4264826D1*
X4340088D2*
X4506112D1*
X4581373D2*
X4894450D1*
X420530Y652789D2*
X770998D1*
X914404D2*
X961005D1*
X1104411D2*
X1902319D1*
X1977616D2*
X2079479D1*
X2154777D2*
X2343156D1*
X2418418D2*
X2603676D1*
X2806075D2*
X2830284D1*
X3144462D2*
X3484884D1*
X3687354D2*
X4264826D1*
X4340088D2*
X4506112D1*
X4581373D2*
X4894450D1*
X420530Y627920D2*
X757147D1*
X928255D2*
X947154D1*
X1118262D2*
X1902319D1*
X1977616D2*
X2079479D1*
X2154777D2*
X2343156D1*
X2418418D2*
X2605865D1*
X2803886D2*
X3489405D1*
X3682869D2*
X4264826D1*
X4340088D2*
X4506219D1*
X4598777D2*
X4894450D1*
X420530Y603051D2*
X752052D1*
X933351D2*
X942058D1*
X1123357D2*
X1902319D1*
X1977616D2*
X2079479D1*
X2154777D2*
X2343156D1*
X2418418D2*
X2620075D1*
X2789675D2*
X3507491D1*
X3664747D2*
X4264826D1*
X4340088D2*
X4519281D1*
X4615068D2*
X4894450D1*
X420530Y578182D2*
X754169D1*
X931233D2*
X944140D1*
X1121240D2*
X1902965D1*
X1998896D2*
X2079479D1*
X2154777D2*
X2343156D1*
X2418418D2*
X4265472D1*
X4361403D2*
X4540417D1*
X4615678D2*
X4894450D1*
X420530Y553314D2*
X764037D1*
X921365D2*
X954044D1*
X1111372D2*
X1919400D1*
X2154777D2*
X2181068D1*
X2250049D2*
X2332391D1*
X2418418D2*
X4281907D1*
X4514126D2*
X4540417D1*
X4615678D2*
X4894450D1*
X420530Y528445D2*
X785747D1*
X899655D2*
X975754D1*
X1089626D2*
X1944268D1*
X2411420D2*
X4306775D1*
X4634804D2*
X4894450D1*
X420530Y503576D2*
X1957581D1*
X2387055D2*
X4320088D1*
X4636491D2*
X4894450D1*
X420530Y478707D2*
X1957581D1*
X2361864D2*
X4320088D1*
X4631826D2*
X4894450D1*
X420530Y453839D2*
X1965009D1*
X2072386D2*
X2088702D1*
X2145554D2*
X2187132D1*
X2243949D2*
X4327516D1*
X4434894D2*
X4451209D1*
X4508026D2*
X4549639D1*
X4606456D2*
X4894450D1*
X420530Y428970D2*
X4894450D1*
X565190Y3037648D2*
X681398D1*
Y2912255D1*
X669089D1*
X672159Y2907710D1*
X676625Y2898944D1*
X679665Y2889588D1*
X681204Y2879871D1*
Y2870032D1*
X679665Y2860315D1*
X676625Y2850958D1*
X672159Y2842192D1*
X666376Y2834233D1*
X659419Y2827276D1*
X656504Y2824979D1*
X663034Y2819285D1*
X669424Y2811804D1*
X674564Y2803415D1*
X678329Y2794326D1*
X680626Y2784759D1*
X681398Y2774951D1*
X680626Y2765143D1*
X678329Y2755577D1*
X674564Y2746488D1*
X669424Y2738099D1*
X663034Y2730618D1*
X656504Y2724979D1*
X663034Y2719285D1*
X669424Y2711804D1*
X674564Y2703415D1*
X678329Y2694326D1*
X680626Y2684759D1*
X681398Y2674951D1*
X680626Y2665143D1*
X678329Y2655577D1*
X674564Y2646488D1*
X669424Y2638099D1*
X663034Y2630618D1*
X656504Y2624979D1*
X663034Y2619285D1*
X669424Y2611804D1*
X674564Y2603415D1*
X678329Y2594326D1*
X680626Y2584759D1*
X681398Y2574951D1*
X680626Y2565143D1*
X678329Y2555577D1*
X674564Y2546488D1*
X669424Y2538099D1*
X663034Y2530618D1*
X656504Y2524979D1*
X663034Y2519285D1*
X667745Y2513933D1*
X715436Y2561634D1*
X715540Y3133417D1*
X716233Y3137795D1*
X717603Y3142011D1*
X719615Y3145960D1*
X722221Y3149546D1*
X752932Y3180381D1*
X752953Y3431983D1*
X722221Y3462855D1*
X719615Y3466441D1*
X717603Y3470391D1*
X716233Y3474606D1*
X715540Y3478984D1*
X715453Y3573064D1*
X715540Y3745917D1*
X716233Y3750295D1*
X717603Y3754511D1*
X719615Y3758460D1*
X722221Y3762046D1*
X782061Y3822010D1*
X782038Y3879105D1*
X553506Y3879126D1*
X484472Y3810085D1*
X484449Y2972276D1*
X553490Y2903224D1*
X562837Y2903415D1*
X567978Y2911804D1*
X568323Y2912242D1*
X556004Y2912255D1*
Y3037648D1*
X565190D1*
X580897Y2824979D2*
X574367Y2830618D1*
X567978Y2838099D1*
X562733Y2846715D1*
X539597Y2846790D1*
X535219Y2847484D1*
X531004Y2848854D1*
X527054Y2850866D1*
X523468Y2853471D1*
X456882Y2919934D1*
X453203Y2923614D1*
X453199Y2860205D1*
X510212Y2803195D1*
X562837Y2803415D1*
X567978Y2811804D1*
X574367Y2819285D1*
X580897Y2824924D1*
Y2724979D2*
X574367Y2730618D1*
X567978Y2738099D1*
X562733Y2746715D1*
X496290Y2746790D1*
X491912Y2747484D1*
X487696Y2748854D1*
X483747Y2750866D1*
X480161Y2753471D1*
X418015Y2815494D1*
X418012Y1789611D1*
X421524Y1795604D1*
X425113Y1799804D1*
X527131Y1901670D1*
X531592Y1904911D1*
X536505Y1907415D1*
X541748Y1909118D1*
X547194Y1909981D1*
X566781Y1910089D1*
X571026Y1915670D1*
X577982Y1922627D1*
X580897Y1924924D1*
X574367Y1930618D1*
X567978Y1938099D1*
X562837Y1946488D1*
X559073Y1955577D1*
X556776Y1965143D1*
X556004Y1974951D1*
X556776Y1984759D1*
X559073Y1994326D1*
X562837Y2003415D1*
X567978Y2011804D1*
X574367Y2019285D1*
X581849Y2025674D1*
X590237Y2030815D1*
X599326Y2034580D1*
X608893Y2036876D1*
X618701Y2037648D1*
X628509Y2036876D1*
X638075Y2034580D1*
X647165Y2030815D1*
X655553Y2025674D1*
X663034Y2019285D1*
X669424Y2011804D1*
X674564Y2003415D1*
X678329Y1994326D1*
X680626Y1984759D1*
X681398Y1974951D1*
X680626Y1965143D1*
X678329Y1955577D1*
X674564Y1946488D1*
X669424Y1938099D1*
X663034Y1930618D1*
X656504Y1924979D1*
X663034Y1919285D1*
X669424Y1911804D1*
X674564Y1903415D1*
X678329Y1894326D1*
X680626Y1884759D1*
X681398Y1874951D1*
X680626Y1865143D1*
X678329Y1855577D1*
X674564Y1846488D1*
X669424Y1838099D1*
X663034Y1830618D1*
X656504Y1824979D1*
X663034Y1819285D1*
X669424Y1811804D1*
X674564Y1803415D1*
X678329Y1794326D1*
X680626Y1784759D1*
X681398Y1774951D1*
X680626Y1765143D1*
X678329Y1755577D1*
X674564Y1746488D1*
X669424Y1738099D1*
X663034Y1730618D1*
X656504Y1724979D1*
X663034Y1719285D1*
X669424Y1711804D1*
X674564Y1703415D1*
X678329Y1694326D1*
X680626Y1684759D1*
X681398Y1674951D1*
X680626Y1665143D1*
X678329Y1655577D1*
X674564Y1646488D1*
X669424Y1638099D1*
X663034Y1630618D1*
X656504Y1624979D1*
X663034Y1619285D1*
X669424Y1611804D1*
X674564Y1603415D1*
X678329Y1594326D1*
X680626Y1584759D1*
X681398Y1574951D1*
X680626Y1565143D1*
X678329Y1555577D1*
X674564Y1546488D1*
X669424Y1538099D1*
X663034Y1530618D1*
X655553Y1524229D1*
X647165Y1519088D1*
X638075Y1515323D1*
X628509Y1513026D1*
X618701Y1512255D1*
X608893Y1513026D1*
X599326Y1515323D1*
X590237Y1519088D1*
X581849Y1524229D1*
X574367Y1530618D1*
X567978Y1538099D1*
X562837Y1546488D1*
X559073Y1555577D1*
X556776Y1565143D1*
X556004Y1574951D1*
X556776Y1584759D1*
X559073Y1594326D1*
X562837Y1603415D1*
X567978Y1611804D1*
X574367Y1619285D1*
X580897Y1624924D1*
X574367Y1630618D1*
X567978Y1638099D1*
X562837Y1646488D1*
X559073Y1655577D1*
X556776Y1665143D1*
X556004Y1674951D1*
X556776Y1684759D1*
X559073Y1694326D1*
X562837Y1703415D1*
X567978Y1711804D1*
X574367Y1719285D1*
X580897Y1724924D1*
X574367Y1730618D1*
X567978Y1738099D1*
X562837Y1746488D1*
X559073Y1755577D1*
X556776Y1765143D1*
X556004Y1774951D1*
X556776Y1784759D1*
X559073Y1794326D1*
X562837Y1803415D1*
X567978Y1811804D1*
X574367Y1819285D1*
X580897Y1824924D1*
X574367Y1830618D1*
X567978Y1838099D1*
X566835Y1839810D1*
X561806Y1837114D1*
X485102Y1760408D1*
X485089Y1190289D1*
X810267Y865078D1*
X822091Y868799D1*
X828890Y870152D1*
X835774Y870967D1*
X842701Y871239D1*
X849628Y870967D1*
X856512Y870152D1*
X863311Y868799D1*
X869983Y866918D1*
X876487Y864518D1*
X882782Y861616D1*
X888831Y858229D1*
X894595Y854377D1*
X900039Y850086D1*
X905129Y845380D1*
X909835Y840290D1*
X914127Y834845D1*
X917978Y829081D1*
X921365Y823033D1*
X924268Y816738D1*
X926667Y810234D1*
X928549Y803562D1*
X929901Y796763D1*
X930716Y789878D1*
X930988Y782951D1*
X930716Y776024D1*
X929901Y769140D1*
X928549Y762341D1*
X926667Y755669D1*
X924268Y749165D1*
X921365Y742870D1*
X917978Y736821D1*
X914127Y731057D1*
X909835Y725613D1*
X905129Y720523D1*
X900039Y715817D1*
X894595Y711525D1*
X888831Y707674D1*
X882782Y704287D1*
X876487Y701385D1*
X869983Y698985D1*
X863311Y697103D1*
X856512Y695751D1*
X849628Y694936D1*
X842701Y694664D1*
X835774Y694936D1*
X828890Y695751D1*
X822091Y697103D1*
X815418Y698985D1*
X808915Y701385D1*
X802619Y704287D1*
X796571Y707674D1*
X790807Y711525D1*
X785363Y715817D1*
X780272Y720523D1*
X775567Y725613D1*
X771275Y731057D1*
X767423Y736821D1*
X764036Y742870D1*
X761134Y749165D1*
X758734Y755669D1*
X756853Y762341D1*
X755500Y769140D1*
X754686Y776024D1*
X754413Y782951D1*
X754686Y789878D1*
X755500Y796763D1*
X756853Y803562D1*
X758734Y810234D1*
X760618Y815340D1*
X423232Y1152881D1*
X419991Y1157341D1*
X418639Y1159758D1*
X418012Y1154856D1*
Y418046D1*
X4896956Y418012D1*
X4896949Y4109513D1*
X418005Y4109547D1*
X418012Y3910151D1*
X480160Y3972161D1*
X483746Y3974767D1*
X487695Y3976779D1*
X491911Y3978149D1*
X496289Y3978842D1*
X590369Y3978929D1*
X2001076Y3978842D1*
X2005454Y3978149D1*
X2009670Y3976779D1*
X2013619Y3974767D1*
X2017205Y3972161D1*
X2030024Y3959466D1*
X2067321Y3959449D1*
X2071275Y3965658D1*
X2077249Y3972653D1*
X2084244Y3978627D1*
X2092087Y3983434D1*
X2100586Y3986954D1*
X2109530Y3989101D1*
X2118701Y3989823D1*
X2127871Y3989101D1*
X2136816Y3986954D1*
X2145315Y3983434D1*
X2153158Y3978627D1*
X2160153Y3972653D1*
X2166127Y3965658D1*
X2170933Y3957815D1*
X2174454Y3949316D1*
X2176601Y3940372D1*
X2177323Y3931201D1*
X2176601Y3922031D1*
X2174454Y3913086D1*
X2170933Y3904587D1*
X2166127Y3896744D1*
X2160153Y3889749D1*
X2153158Y3883775D1*
X2145315Y3878968D1*
X2136816Y3875448D1*
X2127871Y3873301D1*
X2118701Y3872579D1*
X2109530Y3873301D1*
X2100586Y3875448D1*
X2092087Y3878968D1*
X2084244Y3883775D1*
X2077249Y3889749D1*
X2071275Y3896744D1*
X2067391Y3902940D1*
X2016123Y3903040D1*
X2011745Y3903733D1*
X2007529Y3905103D1*
X2003580Y3907116D1*
X1999994Y3909721D1*
X1987175Y3922417D1*
X1403433Y3922433D1*
X1701028Y3624815D1*
X2067305Y3624805D1*
X2071275Y3631014D1*
X2077249Y3638009D1*
X2084244Y3643983D1*
X2092087Y3648789D1*
X2100586Y3652310D1*
X2109530Y3654457D1*
X2118701Y3655179D1*
X2127871Y3654457D1*
X2136816Y3652310D1*
X2145315Y3648789D1*
X2153158Y3643983D1*
X2160153Y3638009D1*
X2166127Y3631014D1*
X2170933Y3623171D1*
X2174454Y3614672D1*
X2176601Y3605727D1*
X2177323Y3596557D1*
X2176601Y3587386D1*
X2174454Y3578442D1*
X2170933Y3569943D1*
X2166127Y3562100D1*
X2160153Y3555105D1*
X2153158Y3549131D1*
X2145315Y3544324D1*
X2136816Y3540804D1*
X2127871Y3538656D1*
X2118701Y3537935D1*
X2109530Y3538656D1*
X2100586Y3540804D1*
X2092087Y3544324D1*
X2084244Y3549131D1*
X2077249Y3555105D1*
X2071275Y3562100D1*
X2067391Y3568296D1*
X1687121Y3568396D1*
X1682743Y3569089D1*
X1678527Y3570459D1*
X1674577Y3572471D1*
X1670991Y3575077D1*
X1604405Y3641540D1*
X1366829Y3879116D1*
X1089688Y3879126D1*
X1089715Y3782038D1*
X978889D1*
Y3879105D1*
X892899Y3879126D1*
X892865Y3782038D1*
X821994D1*
X771941Y3731992D1*
X771949Y3492906D1*
X802681Y3462046D1*
X805286Y3458460D1*
X807299Y3454511D1*
X808668Y3450295D1*
X809362Y3445917D1*
X809449Y3351837D1*
X809362Y3166484D1*
X808668Y3162106D1*
X807299Y3157891D1*
X806366Y3155869D1*
X809597Y3155365D1*
X865900D1*
X866007Y3510093D1*
X866870Y3515539D1*
X868574Y3520783D1*
X871077Y3525695D1*
X874318Y3530156D1*
X915165Y3571157D1*
X978879Y3634871D1*
X978889Y3696014D1*
X1089715D1*
Y3585187D1*
X1028605D1*
X936160Y3492767D1*
X936066Y2963929D1*
X935204Y2958484D1*
X933500Y2953240D1*
X930997Y2948327D1*
X927756Y2943866D1*
X892872Y2908829D1*
X892865Y2897404D1*
X927756Y2862336D1*
X930997Y2857875D1*
X933500Y2852962D1*
X935204Y2847719D1*
X936066Y2842273D1*
X936175Y2784398D1*
X936066Y2220179D1*
X935204Y2214733D1*
X933500Y2209489D1*
X930997Y2204576D1*
X927756Y2200116D1*
X892871Y2165078D1*
X892865Y2103937D1*
X872590D1*
X872588Y1854101D1*
X876055Y1848410D1*
X878656Y1842129D1*
X880215Y1835661D1*
X927756Y1787972D1*
X930997Y1783511D1*
X933500Y1778599D1*
X935204Y1773355D1*
X936066Y1767909D1*
X936175Y1710034D1*
X936066Y1482679D1*
X935204Y1477233D1*
X933500Y1471989D1*
X930997Y1467076D1*
X927756Y1462615D1*
X892871Y1427578D1*
X892865Y1366437D1*
X782038D1*
Y1477264D1*
X843149D1*
X865916Y1500007D1*
X865899Y1563268D1*
X782038Y1563287D1*
Y1624398D1*
X737652Y1668961D1*
X734411Y1673421D1*
X731908Y1678334D1*
X730204Y1683578D1*
X729342Y1689024D1*
X729234Y1746899D1*
Y2117116D1*
X706514Y2139807D1*
X670644Y2139814D1*
X666376Y2134233D1*
X659419Y2127276D1*
X651460Y2121494D1*
X642694Y2117027D1*
X633337Y2113987D1*
X623620Y2112448D1*
X613782D1*
X604064Y2113987D1*
X594708Y2117027D1*
X585942Y2121494D1*
X577982Y2127276D1*
X571026Y2134233D1*
X565243Y2142192D1*
X560776Y2150958D1*
X557736Y2160315D1*
X556197Y2170032D1*
Y2179871D1*
X557736Y2189588D1*
X560776Y2198944D1*
X565243Y2207710D1*
X571026Y2215670D1*
X577982Y2222627D1*
X580897Y2224924D1*
X574367Y2230618D1*
X567978Y2238099D1*
X562837Y2246488D1*
X559073Y2255577D1*
X556776Y2265143D1*
X556004Y2274951D1*
X556776Y2284759D1*
X559073Y2294326D1*
X562837Y2303415D1*
X567978Y2311804D1*
X574367Y2319285D1*
X580897Y2324924D1*
X574367Y2330618D1*
X567978Y2338099D1*
X562837Y2346488D1*
X559073Y2355577D1*
X556776Y2365143D1*
X556004Y2374951D1*
X556776Y2384759D1*
X559073Y2394326D1*
X562837Y2403415D1*
X567978Y2411804D1*
X574367Y2419285D1*
X580897Y2424924D1*
X574367Y2430618D1*
X567978Y2438099D1*
X562837Y2446488D1*
X559073Y2455577D1*
X556776Y2465143D1*
X556004Y2474951D1*
X556776Y2484759D1*
X559073Y2494326D1*
X562837Y2503415D1*
X567978Y2511804D1*
X574367Y2519285D1*
X580897Y2524924D1*
X574367Y2530618D1*
X567978Y2538099D1*
X562837Y2546488D1*
X559073Y2555577D1*
X556776Y2565143D1*
X556004Y2574951D1*
X556776Y2584759D1*
X559073Y2594326D1*
X562837Y2603415D1*
X567978Y2611804D1*
X574367Y2619285D1*
X580897Y2624924D1*
X574367Y2630618D1*
X567978Y2638099D1*
X562837Y2646488D1*
X559073Y2655577D1*
X556776Y2665143D1*
X556004Y2674951D1*
X556776Y2684759D1*
X559073Y2694326D1*
X562837Y2703415D1*
X567978Y2711804D1*
X574367Y2719285D1*
X580897Y2724924D1*
X674991Y2447413D2*
X672159Y2442192D1*
X666376Y2434233D1*
X659419Y2427276D1*
X656504Y2424979D1*
X663034Y2419285D1*
X669424Y2411804D1*
X674669Y2403188D1*
X709380Y2403200D1*
X746686Y2440523D1*
X746703Y2512988D1*
X687048Y2453471D1*
X683462Y2450866D1*
X679512Y2448854D1*
X675288Y2447482D1*
X674669Y2346715D2*
X669424Y2338099D1*
X663034Y2330618D1*
X656504Y2324979D1*
X663034Y2319285D1*
X669424Y2311804D1*
X674564Y2303415D1*
X678329Y2294326D1*
X680626Y2284759D1*
X681398Y2274951D1*
X680626Y2265143D1*
X678329Y2255577D1*
X674564Y2246488D1*
X669424Y2238099D1*
X663034Y2230618D1*
X656504Y2224979D1*
X663034Y2219285D1*
X669424Y2211804D1*
X670567Y2210093D1*
X723819Y2209981D1*
X729264Y2209118D1*
X734508Y2207415D1*
X739421Y2204911D1*
X743882Y2201670D1*
X782015Y2163691D1*
X782038Y2214764D1*
X843149D1*
X865916Y2237507D1*
X865899Y2300768D1*
X782038Y2300787D1*
X781934Y2395874D1*
X739409Y2353471D1*
X735823Y2350866D1*
X731873Y2348854D1*
X727657Y2347484D1*
X723279Y2346790D1*
X674665Y2346703D1*
X3965190Y2687648D2*
X3971039D1*
X3971171Y2758958D1*
X3972034Y2764404D1*
X3973738Y2769647D1*
X3976241Y2774560D1*
X3979482Y2779021D1*
X4020329Y2820021D1*
X4158541Y2958233D1*
X4158563Y3550395D1*
X3834857Y3874089D1*
X3668588Y3874093D1*
X3657364Y3867432D1*
X3651776Y3864532D1*
X3648261Y3863488D1*
X3632233Y3860744D1*
X3554015Y3860675D1*
X3547772Y3861479D1*
X3534799Y3863907D1*
X3529759Y3866067D1*
X3516111Y3874104D1*
X3512114Y3877857D1*
X3502037Y3890077D1*
X3499565Y3894972D1*
X3494275Y3909904D1*
X3493626Y3915349D1*
X3493763Y3931184D1*
X3495015Y3936523D1*
X3500560Y3951360D1*
X3503562Y3955948D1*
X3513847Y3967993D1*
X3518238Y3971278D1*
X3532022Y3979079D1*
X3537272Y3980664D1*
X3552507Y3983254D1*
X3630725Y3983322D1*
X3636969Y3982518D1*
X3649941Y3980090D1*
X3654981Y3977930D1*
X3668629Y3969894D1*
X3672627Y3966140D1*
X3682703Y3953920D1*
X3685175Y3949025D1*
X3686876Y3944367D1*
X3852165Y3944260D1*
X3857611Y3943398D1*
X3862855Y3941694D1*
X3867768Y3939191D1*
X3872228Y3935950D1*
X3913229Y3895103D1*
X4220420Y3587759D1*
X4223661Y3583298D1*
X4226164Y3578385D1*
X4227868Y3573141D1*
X4228730Y3567695D1*
X4228839Y3509820D1*
Y3027286D1*
X4232671Y3036102D1*
X4235676Y3041468D1*
X4239093Y3046581D1*
X4242900Y3051411D1*
X4247075Y3055927D1*
X4251591Y3060102D1*
X4256421Y3063910D1*
X4261535Y3067327D1*
X4267316Y3070523D1*
X4267431Y3386468D1*
X4268294Y3391914D1*
X4269998Y3397158D1*
X4272501Y3402071D1*
X4275742Y3406531D1*
X4316589Y3447532D1*
X4322602Y3453545D1*
X4322579Y3471401D1*
X4275742Y3518371D1*
X4272501Y3522832D1*
X4269997Y3527745D1*
X4268294Y3532989D1*
X4267431Y3538435D1*
X4267323Y3596310D1*
Y3668042D1*
X4261535Y3671257D1*
X4256421Y3674674D1*
X4251591Y3678482D1*
X4247075Y3682657D1*
X4242900Y3687173D1*
X4239093Y3692003D1*
X4235676Y3697116D1*
X4232671Y3702482D1*
X4230096Y3708068D1*
X4227967Y3713838D1*
X4226298Y3719757D1*
X4225098Y3725789D1*
X4224375Y3731897D1*
X4224134Y3738042D1*
X4224375Y3744187D1*
X4225098Y3750295D1*
X4226298Y3756327D1*
X4227967Y3762246D1*
X4230096Y3768016D1*
X4232671Y3773602D1*
X4235676Y3778968D1*
X4239093Y3784081D1*
X4242900Y3788911D1*
X4247075Y3793427D1*
X4251591Y3797602D1*
X4256421Y3801410D1*
X4261535Y3804827D1*
X4266901Y3807832D1*
X4272486Y3810406D1*
X4278256Y3812535D1*
X4284176Y3814205D1*
X4290208Y3815404D1*
X4296315Y3816127D1*
X4302461Y3816369D1*
X4308606Y3816127D1*
X4314714Y3815404D1*
X4320746Y3814205D1*
X4326665Y3812535D1*
X4332435Y3810406D1*
X4338020Y3807832D1*
X4343386Y3804827D1*
X4348500Y3801410D1*
X4353330Y3797602D1*
X4357846Y3793427D1*
X4362021Y3788911D1*
X4365828Y3784081D1*
X4369245Y3778968D1*
X4372250Y3773602D1*
X4374825Y3768016D1*
X4376954Y3762246D1*
X4378623Y3756327D1*
X4379823Y3750295D1*
X4380546Y3744187D1*
X4380787Y3738042D1*
X4380546Y3731897D1*
X4379823Y3725789D1*
X4378623Y3719757D1*
X4376954Y3713838D1*
X4374825Y3708068D1*
X4372250Y3702482D1*
X4369245Y3697116D1*
X4365828Y3692003D1*
X4362021Y3687173D1*
X4357846Y3682657D1*
X4353330Y3678482D1*
X4348500Y3674674D1*
X4343386Y3671257D1*
X4337606Y3668061D1*
X4337598Y3555714D1*
X4372295Y3521050D1*
X4418326Y3521002D1*
X4423704Y3519932D1*
X4428684Y3517636D1*
X4432991Y3514241D1*
X4436385Y3509935D1*
X4438681Y3504955D1*
X4439180Y3503185D1*
X4443514Y3505444D1*
X4450970Y3512798D1*
X4455529Y3515845D1*
X4460674Y3517743D1*
X4466119Y3518387D1*
X4494963Y3518315D1*
X4500341Y3517246D1*
X4505321Y3514950D1*
X4509627Y3511555D1*
X4528948Y3492453D1*
X4549395Y3512798D1*
X4553954Y3515845D1*
X4559099Y3517743D1*
X4564545Y3518387D1*
X4593388Y3518315D1*
X4598766Y3517246D1*
X4603746Y3514950D1*
X4608052Y3511555D1*
X4628398Y3491108D1*
X4631444Y3486548D1*
X4633342Y3481404D1*
X4633987Y3475958D1*
X4633915Y3447115D1*
X4632845Y3441736D1*
X4630550Y3436757D1*
X4627155Y3432450D1*
X4613185Y3418480D1*
X4613081Y3388440D1*
X4612218Y3382994D1*
X4610514Y3377750D1*
X4608011Y3372837D1*
X4604770Y3368377D1*
X4578868Y3342321D1*
X4578871Y3008480D1*
X4580629Y3018827D1*
X4582298Y3024746D1*
X4584427Y3030516D1*
X4587002Y3036102D1*
X4590007Y3041468D1*
X4593424Y3046581D1*
X4597231Y3051411D1*
X4601406Y3055927D1*
X4605922Y3060102D1*
X4610752Y3063910D1*
X4615866Y3067327D1*
X4621232Y3070332D1*
X4626817Y3072906D1*
X4632587Y3075035D1*
X4638506Y3076705D1*
X4644538Y3077904D1*
X4650646Y3078627D1*
X4656791Y3078869D1*
X4662937Y3078627D1*
X4669044Y3077904D1*
X4675076Y3076705D1*
X4680996Y3075035D1*
X4686766Y3072906D1*
X4692351Y3070332D1*
X4697717Y3067327D1*
X4702831Y3063910D1*
X4707661Y3060102D1*
X4712177Y3055927D1*
X4716351Y3051411D1*
X4720159Y3046581D1*
X4723576Y3041468D1*
X4726581Y3036102D1*
X4729156Y3030516D1*
X4731285Y3024746D1*
X4732954Y3018827D1*
X4734154Y3012795D1*
X4734877Y3006687D1*
X4735118Y3000542D1*
X4734877Y2994397D1*
X4734154Y2988289D1*
X4732954Y2982257D1*
X4731285Y2976338D1*
X4729156Y2970568D1*
X4726581Y2964982D1*
X4723576Y2959616D1*
X4720159Y2954503D1*
X4716351Y2949673D1*
X4712177Y2945157D1*
X4707661Y2940982D1*
X4702831Y2937174D1*
X4697717Y2933757D1*
X4692351Y2930752D1*
X4686766Y2928177D1*
X4680996Y2926049D1*
X4675076Y2924379D1*
X4669044Y2923180D1*
X4662937Y2922457D1*
X4656791Y2922215D1*
X4650646Y2922457D1*
X4644538Y2923180D1*
X4638506Y2924379D1*
X4632587Y2926049D1*
X4626817Y2928177D1*
X4621232Y2930752D1*
X4615866Y2933757D1*
X4610752Y2937174D1*
X4605922Y2940982D1*
X4601406Y2945157D1*
X4597231Y2949673D1*
X4593424Y2954503D1*
X4590007Y2959616D1*
X4587002Y2964982D1*
X4584427Y2970568D1*
X4582298Y2976338D1*
X4580629Y2982257D1*
X4578873Y2992989D1*
X4578871Y2864082D1*
X4604770Y2838030D1*
X4608011Y2833569D1*
X4610514Y2828657D1*
X4612218Y2823413D1*
X4613081Y2817967D1*
X4613189Y2768883D1*
X4628398Y2753608D1*
X4631445Y2749048D1*
X4633342Y2743904D1*
X4633987Y2738458D1*
X4633915Y2709615D1*
X4632845Y2704236D1*
X4630550Y2699257D1*
X4627155Y2694950D1*
X4613185Y2680980D1*
X4613081Y2568176D1*
X4612218Y2562730D1*
X4610514Y2557486D1*
X4608011Y2552574D1*
X4604770Y2548113D1*
X4578869Y2522058D1*
X4578872Y2271035D1*
X4580629Y2281327D1*
X4582298Y2287246D1*
X4584427Y2293016D1*
X4587002Y2298602D1*
X4590007Y2303968D1*
X4593424Y2309081D1*
X4597231Y2313911D1*
X4601406Y2318427D1*
X4605922Y2322602D1*
X4610752Y2326410D1*
X4615866Y2329827D1*
X4621232Y2332832D1*
X4626817Y2335406D1*
X4632587Y2337535D1*
X4638506Y2339205D1*
X4644538Y2340404D1*
X4650646Y2341127D1*
X4656791Y2341369D1*
X4662937Y2341127D1*
X4669044Y2340404D1*
X4675076Y2339205D1*
X4680996Y2337535D1*
X4686766Y2335406D1*
X4692351Y2332832D1*
X4697717Y2329827D1*
X4702831Y2326410D1*
X4707661Y2322602D1*
X4712177Y2318427D1*
X4716351Y2313911D1*
X4720159Y2309081D1*
X4723576Y2303968D1*
X4726581Y2298602D1*
X4729156Y2293016D1*
X4731285Y2287246D1*
X4732954Y2281327D1*
X4734154Y2275295D1*
X4734877Y2269187D1*
X4735118Y2263042D1*
X4734877Y2256897D1*
X4734154Y2250789D1*
X4732954Y2244757D1*
X4731285Y2238838D1*
X4729156Y2233068D1*
X4726581Y2227482D1*
X4723576Y2222116D1*
X4720159Y2217003D1*
X4716351Y2212173D1*
X4712177Y2207657D1*
X4707661Y2203482D1*
X4702831Y2199674D1*
X4697717Y2196257D1*
X4692351Y2193252D1*
X4686766Y2190677D1*
X4680996Y2188549D1*
X4675076Y2186879D1*
X4669044Y2185680D1*
X4662937Y2184957D1*
X4656791Y2184715D1*
X4650646Y2184957D1*
X4644538Y2185680D1*
X4638506Y2186879D1*
X4632587Y2188549D1*
X4626817Y2190677D1*
X4621232Y2193252D1*
X4615866Y2196257D1*
X4610752Y2199674D1*
X4605922Y2203482D1*
X4601406Y2207657D1*
X4597231Y2212173D1*
X4593424Y2217003D1*
X4590007Y2222116D1*
X4587002Y2227482D1*
X4584427Y2233068D1*
X4582298Y2238838D1*
X4580629Y2244757D1*
X4578873Y2255489D1*
X4578872Y2126566D1*
X4604770Y2100530D1*
X4608011Y2096069D1*
X4610514Y2091157D1*
X4612218Y2085913D1*
X4613081Y2080467D1*
X4613189Y2031383D1*
X4628398Y2016108D1*
X4631445Y2011548D1*
X4633343Y2006404D1*
X4633987Y2000958D1*
X4633915Y1972115D1*
X4632845Y1966736D1*
X4630550Y1961757D1*
X4627155Y1957450D1*
X4613185Y1943480D1*
X4613081Y1913543D1*
X4612218Y1908097D1*
X4610515Y1902853D1*
X4608012Y1897940D1*
X4604771Y1893479D1*
X4578869Y1867424D1*
X4578872Y1527265D1*
X4580629Y1537578D1*
X4582298Y1543497D1*
X4584427Y1549267D1*
X4587002Y1554852D1*
X4590007Y1560218D1*
X4593424Y1565332D1*
X4597231Y1570162D1*
X4601406Y1574678D1*
X4605922Y1578853D1*
X4610752Y1582660D1*
X4615866Y1586077D1*
X4621232Y1589082D1*
X4626817Y1591657D1*
X4632587Y1593786D1*
X4638506Y1595455D1*
X4644538Y1596655D1*
X4650646Y1597378D1*
X4656791Y1597619D1*
X4662937Y1597378D1*
X4669044Y1596655D1*
X4675076Y1595455D1*
X4680996Y1593786D1*
X4686766Y1591657D1*
X4692351Y1589082D1*
X4697717Y1586077D1*
X4702831Y1582660D1*
X4707661Y1578853D1*
X4712177Y1574678D1*
X4716351Y1570162D1*
X4720159Y1565332D1*
X4723576Y1560218D1*
X4726581Y1554852D1*
X4729156Y1549267D1*
X4731285Y1543497D1*
X4732954Y1537578D1*
X4734154Y1531546D1*
X4734877Y1525438D1*
X4735118Y1519293D1*
X4734877Y1513147D1*
X4734154Y1507040D1*
X4732954Y1501008D1*
X4731285Y1495088D1*
X4729156Y1489318D1*
X4726581Y1483733D1*
X4723576Y1478367D1*
X4720159Y1473253D1*
X4716351Y1468423D1*
X4712177Y1463907D1*
X4707661Y1459733D1*
X4702831Y1455925D1*
X4697717Y1452508D1*
X4692351Y1449503D1*
X4686766Y1446928D1*
X4680996Y1444799D1*
X4675076Y1443130D1*
X4669044Y1441930D1*
X4662937Y1441207D1*
X4656791Y1440966D1*
X4650646Y1441207D1*
X4644538Y1441930D1*
X4638506Y1443130D1*
X4632587Y1444799D1*
X4626817Y1446928D1*
X4621232Y1449503D1*
X4615866Y1452508D1*
X4610752Y1455925D1*
X4605922Y1459733D1*
X4601406Y1463907D1*
X4597231Y1468423D1*
X4593424Y1473253D1*
X4590007Y1478367D1*
X4587002Y1483733D1*
X4584427Y1489318D1*
X4582298Y1495088D1*
X4580629Y1501008D1*
X4578873Y1511740D1*
X4578872Y1382795D1*
X4604770Y1356778D1*
X4608011Y1352318D1*
X4610514Y1347405D1*
X4612218Y1342161D1*
X4613081Y1336715D1*
X4613189Y1287703D1*
X4628398Y1272358D1*
X4631444Y1267799D1*
X4633342Y1262654D1*
X4633987Y1257209D1*
X4633915Y1228365D1*
X4632845Y1222987D1*
X4630549Y1218007D1*
X4627155Y1213701D1*
X4613184Y1199731D1*
X4613081Y1128231D1*
X4612218Y1122785D1*
X4610514Y1117542D1*
X4608011Y1112629D1*
X4604770Y1108168D1*
X4578869Y1082113D1*
X4578871Y789752D1*
X4580629Y800076D1*
X4582298Y805996D1*
X4584427Y811766D1*
X4587002Y817351D1*
X4590007Y822717D1*
X4593424Y827831D1*
X4597231Y832661D1*
X4601406Y837177D1*
X4605922Y841351D1*
X4610752Y845159D1*
X4615866Y848576D1*
X4621232Y851581D1*
X4626817Y854156D1*
X4632587Y856285D1*
X4638506Y857954D1*
X4644538Y859154D1*
X4650646Y859877D1*
X4656791Y860118D1*
X4662937Y859877D1*
X4669044Y859154D1*
X4675076Y857954D1*
X4680996Y856285D1*
X4686766Y854156D1*
X4692351Y851581D1*
X4697717Y848576D1*
X4702831Y845159D1*
X4707661Y841351D1*
X4712177Y837177D1*
X4716351Y832661D1*
X4720159Y827831D1*
X4723576Y822717D1*
X4726581Y817351D1*
X4729156Y811766D1*
X4731285Y805996D1*
X4732954Y800076D1*
X4734154Y794044D1*
X4734877Y787937D1*
X4735118Y781791D1*
X4734877Y775646D1*
X4734154Y769538D1*
X4732954Y763506D1*
X4731285Y757587D1*
X4729156Y751817D1*
X4726581Y746232D1*
X4723576Y740866D1*
X4720159Y735752D1*
X4716351Y730922D1*
X4712177Y726406D1*
X4707661Y722231D1*
X4702831Y718424D1*
X4697717Y715007D1*
X4692351Y712002D1*
X4686766Y709427D1*
X4680996Y707298D1*
X4675076Y705629D1*
X4669044Y704429D1*
X4662937Y703706D1*
X4656791Y703465D1*
X4650646Y703706D1*
X4644538Y704429D1*
X4638506Y705629D1*
X4632587Y707298D1*
X4626817Y709427D1*
X4621232Y712002D1*
X4615866Y715007D1*
X4610752Y718424D1*
X4605922Y722231D1*
X4601406Y726406D1*
X4597231Y730922D1*
X4593424Y735752D1*
X4590007Y740866D1*
X4587002Y746232D1*
X4584427Y751817D1*
X4582298Y757587D1*
X4580629Y763506D1*
X4578873Y774238D1*
X4578871Y645354D1*
X4604770Y619278D1*
X4608011Y614817D1*
X4610514Y609905D1*
X4612218Y604661D1*
X4613081Y599215D1*
X4613189Y550203D1*
X4628398Y534857D1*
X4631444Y530298D1*
X4633342Y525153D1*
X4633987Y519707D1*
X4633915Y490864D1*
X4632845Y485486D1*
X4630550Y480506D1*
X4627155Y476200D1*
X4606707Y455854D1*
X4602148Y452807D1*
X4597003Y450910D1*
X4591558Y450265D1*
X4562714Y450337D1*
X4557336Y451407D1*
X4552356Y453702D1*
X4548045Y457103D1*
X4528730Y476200D1*
X4508282Y455854D1*
X4503723Y452807D1*
X4498578Y450909D1*
X4493125Y450265D1*
X4464289Y450337D1*
X4458911Y451407D1*
X4453931Y453702D1*
X4449625Y457097D1*
X4439551Y467171D1*
X4438047Y461979D1*
X4435368Y457194D1*
X4431646Y453168D1*
X4427086Y450121D1*
X4421942Y448223D1*
X4416496Y447579D1*
X4344075Y447651D1*
X4338697Y448720D1*
X4333717Y451016D1*
X4329411Y454411D1*
X4326016Y458717D1*
X4323720Y463697D1*
X4322651Y469075D1*
X4322579Y515151D1*
X4275742Y562121D1*
X4272501Y566581D1*
X4269997Y571494D1*
X4268294Y576738D1*
X4267431Y582184D1*
X4267323Y640059D1*
Y711792D1*
X4261535Y715007D1*
X4256421Y718424D1*
X4251591Y722231D1*
X4247075Y726406D1*
X4242900Y730922D1*
X4239093Y735752D1*
X4235676Y740866D1*
X4232671Y746232D1*
X4230096Y751817D1*
X4227967Y757587D1*
X4226298Y763506D1*
X4225098Y769538D1*
X4224375Y775646D1*
X4224134Y781791D1*
X4224375Y787937D1*
X4225098Y794044D1*
X4226298Y800076D1*
X4227967Y805996D1*
X4230096Y811766D1*
X4232671Y817351D1*
X4235676Y822717D1*
X4239093Y827831D1*
X4242900Y832661D1*
X4247075Y837177D1*
X4251591Y841351D1*
X4256421Y845159D1*
X4261535Y848576D1*
X4267316Y851772D1*
X4267431Y1167719D1*
X4268294Y1173165D1*
X4269997Y1178409D1*
X4272501Y1183321D1*
X4275742Y1187782D1*
X4316589Y1228783D1*
X4322602Y1234796D1*
X4322651Y1280828D1*
X4323720Y1286206D1*
X4326016Y1291186D1*
X4329411Y1295492D1*
X4333717Y1298887D1*
X4338697Y1301182D1*
X4344075Y1302252D1*
X4346085Y1302324D1*
X4343363Y1306515D1*
X4275742Y1374290D1*
X4272501Y1378751D1*
X4269997Y1383664D1*
X4268294Y1388907D1*
X4267431Y1394353D1*
X4267323Y1449322D1*
X4261535Y1452508D1*
X4256421Y1455925D1*
X4251591Y1459733D1*
X4247075Y1463907D1*
X4242900Y1468423D1*
X4239093Y1473253D1*
X4235676Y1478367D1*
X4232671Y1483733D1*
X4230096Y1489318D1*
X4227967Y1495088D1*
X4226298Y1501008D1*
X4225098Y1507040D1*
X4224375Y1513147D1*
X4224134Y1519293D1*
X4224375Y1525438D1*
X4225098Y1531546D1*
X4226298Y1537578D1*
X4227967Y1543497D1*
X4230096Y1549267D1*
X4232671Y1554852D1*
X4235676Y1560218D1*
X4239093Y1565332D1*
X4242900Y1570162D1*
X4247075Y1574678D1*
X4251591Y1578853D1*
X4256421Y1582660D1*
X4261535Y1586077D1*
X4266901Y1589082D1*
X4272486Y1591657D1*
X4278256Y1593786D1*
X4284176Y1595455D1*
X4290208Y1596655D1*
X4296315Y1597378D1*
X4302461Y1597619D1*
X4308606Y1597378D1*
X4314714Y1596655D1*
X4320746Y1595455D1*
X4327093Y1593628D1*
X4353812Y1620337D1*
X4353819Y1815891D1*
X4351239Y1819566D1*
X4348736Y1824479D1*
X4347033Y1829723D1*
X4346171Y1835169D1*
X4346063Y1893041D1*
X4345906Y1928829D1*
X4340460Y1929474D1*
X4335315Y1931372D1*
X4330756Y1934418D1*
X4327034Y1938445D1*
X4324354Y1943229D1*
X4322866Y1948507D1*
X4322579Y1952163D1*
Y1996401D1*
X4275742Y2043371D1*
X4272501Y2047832D1*
X4269997Y2052745D1*
X4268294Y2057989D1*
X4267431Y2063435D1*
X4267323Y2121310D1*
Y2193042D1*
X4261535Y2196257D1*
X4256421Y2199674D1*
X4251591Y2203482D1*
X4247075Y2207657D1*
X4242900Y2212173D1*
X4239093Y2217003D1*
X4235676Y2222116D1*
X4232480Y2227897D1*
X4147405Y2227904D1*
X4124713Y2205184D1*
X4124598Y2061565D1*
X4123735Y2056119D1*
X4122031Y2050875D1*
X4119528Y2045962D1*
X4116287Y2041501D1*
X4077089Y2002150D1*
X4074564Y1996488D1*
X4069424Y1988099D1*
X4063034Y1980618D1*
X4056504Y1974979D1*
X4063034Y1969285D1*
X4069424Y1961804D1*
X4074564Y1953415D1*
X4078329Y1944326D1*
X4080626Y1934759D1*
X4081398Y1924951D1*
X4080626Y1915143D1*
X4078329Y1905577D1*
X4074564Y1896488D1*
X4069424Y1888099D1*
X4063034Y1880618D1*
X4056142Y1874693D1*
X4214170Y1716521D1*
X4217411Y1712060D1*
X4219915Y1707147D1*
X4221618Y1701904D1*
X4222481Y1696458D1*
X4222589Y1638583D1*
X4222481Y1210912D1*
X4221618Y1205466D1*
X4219915Y1200223D1*
X4217411Y1195310D1*
X4214170Y1190849D1*
X4173323Y1149849D1*
X3865979Y842659D1*
X3861518Y839418D1*
X3856605Y836915D1*
X3851362Y835211D1*
X3845916Y834348D1*
X3788041Y834240D1*
X3463109D1*
X3469531Y822799D1*
X3471116Y817550D1*
X3473705Y802314D1*
X3473774Y724097D1*
X3472970Y717853D1*
X3470542Y704881D1*
X3468381Y699840D1*
X3460345Y686192D1*
X3456591Y682195D1*
X3444371Y672119D1*
X3439477Y669646D1*
X3424545Y664356D1*
X3419100Y663707D1*
X3403265Y663844D1*
X3397926Y665096D1*
X3383089Y670641D1*
X3378501Y673644D1*
X3366456Y683928D1*
X3363171Y688319D1*
X3355708Y701363D1*
X3353939Y706561D1*
X3351195Y722588D1*
X3351127Y800806D1*
X3351931Y807050D1*
X3354359Y820022D1*
X3356519Y825063D1*
X3361805Y834237D1*
X3323663Y834240D1*
X3142475Y653210D1*
X3138014Y649969D1*
X3133102Y647466D1*
X3127858Y645762D1*
X3122412Y644900D1*
X3064537Y644791D1*
X2852347Y644900D1*
X2846901Y645762D1*
X2841657Y647466D1*
X2836744Y649969D1*
X2832283Y653210D1*
X2791283Y694057D1*
X2785078Y700416D1*
X2781837Y704877D1*
X2779333Y709790D1*
X2777630Y715033D1*
X2776767Y720479D1*
X2776659Y778354D1*
Y915109D1*
X2765218Y908667D1*
X2759969Y907082D1*
X2744733Y904493D1*
X2666515Y904424D1*
X2660272Y905228D1*
X2647299Y907657D1*
X2642259Y909817D1*
X2628611Y917853D1*
X2624614Y921607D1*
X2617044Y930612D1*
X2438645Y930610D1*
X2415930Y907890D1*
X2415818Y546755D1*
X2414956Y541309D1*
X2413252Y536065D1*
X2410749Y531152D1*
X2407508Y526692D1*
X2366661Y485691D1*
X2360298Y479482D1*
X2355837Y476241D1*
X2350924Y473738D1*
X2345680Y472034D1*
X2340235Y471171D1*
X2282360Y471063D1*
X2259501D1*
X2244207Y455854D1*
X2239648Y452807D1*
X2234503Y450909D1*
X2229058Y450265D1*
X2200214Y450337D1*
X2194836Y451407D1*
X2189856Y453702D1*
X2185545Y457103D1*
X2166229Y476200D1*
X2145782Y455854D1*
X2141223Y452808D1*
X2136078Y450910D1*
X2130633Y450265D1*
X2101789Y450337D1*
X2096411Y451407D1*
X2091431Y453702D1*
X2087125Y457097D1*
X2077051Y467171D1*
X2075547Y461979D1*
X2072868Y457194D1*
X2069146Y453168D1*
X2064586Y450121D1*
X2059442Y448223D1*
X2053996Y447579D1*
X1981575Y447651D1*
X1976197Y448720D1*
X1971217Y451016D1*
X1966911Y454411D1*
X1963516Y458717D1*
X1961220Y463697D1*
X1960151Y469075D1*
X1960079Y515151D1*
X1913242Y562121D1*
X1910001Y566581D1*
X1907497Y571494D1*
X1905794Y576738D1*
X1904931Y582184D1*
X1904823Y640059D1*
Y711792D1*
X1899035Y715007D1*
X1893921Y718424D1*
X1889091Y722231D1*
X1884575Y726406D1*
X1880400Y730922D1*
X1876593Y735752D1*
X1873176Y740866D1*
X1870171Y746232D1*
X1867596Y751817D1*
X1865467Y757587D1*
X1863798Y763506D1*
X1862598Y769538D1*
X1861875Y775646D1*
X1861634Y781791D1*
X1861875Y787937D1*
X1862598Y794044D1*
X1863798Y800076D1*
X1865467Y805996D1*
X1867596Y811766D1*
X1870171Y817351D1*
X1873176Y822717D1*
X1876593Y827831D1*
X1880400Y832661D1*
X1884575Y837177D1*
X1889091Y841351D1*
X1893921Y845159D1*
X1899035Y848576D1*
X1904401Y851581D1*
X1909986Y854156D1*
X1915756Y856285D1*
X1921676Y857954D1*
X1927708Y859154D1*
X1933815Y859877D1*
X1939961Y860118D1*
X1946106Y859877D1*
X1952214Y859154D1*
X1958246Y857954D1*
X1964165Y856285D1*
X1969935Y854156D1*
X1975520Y851581D1*
X1980886Y848576D1*
X1986000Y845159D1*
X1990830Y841351D1*
X1995346Y837177D1*
X1999521Y832661D1*
X2003328Y827831D1*
X2006745Y822717D1*
X2009750Y817351D1*
X2012325Y811766D1*
X2014454Y805996D1*
X2016123Y800076D1*
X2017323Y794044D1*
X2018046Y787937D1*
X2018287Y781791D1*
X2018046Y775646D1*
X2017323Y769538D1*
X2016123Y763506D1*
X2014454Y757587D1*
X2012325Y751817D1*
X2009750Y746232D1*
X2006745Y740866D1*
X2003328Y735752D1*
X1999521Y730922D1*
X1995346Y726406D1*
X1990830Y722231D1*
X1986000Y718424D1*
X1980886Y715007D1*
X1975106Y711811D1*
X1975098Y599464D1*
X2009795Y564799D1*
X2055826Y564751D1*
X2061204Y563681D1*
X2066184Y561386D1*
X2070491Y557991D1*
X2073886Y553684D1*
X2076181Y548704D1*
X2076680Y546935D1*
X2081014Y549193D1*
X2081993Y550172D1*
X2082096Y1038000D1*
X2082959Y1043446D1*
X2084663Y1048689D1*
X2087166Y1053602D1*
X2090407Y1058063D1*
X2131254Y1099063D1*
X2137614Y1105270D1*
X2142075Y1108511D1*
X2146988Y1111014D1*
X2152232Y1112718D1*
X2157677Y1113581D1*
X2215552Y1113689D1*
X2771246Y1113581D1*
X2776692Y1112718D1*
X2781936Y1111014D1*
X2786849Y1108511D1*
X2791310Y1105270D1*
X2832310Y1064423D1*
X2838516Y1058064D1*
X2841757Y1053604D1*
X2844260Y1048691D1*
X2845964Y1043447D1*
X2846826Y1038001D1*
X2846934Y980126D1*
Y800741D1*
X2854190Y806924D1*
X2862578Y812064D1*
X2871668Y815829D1*
X2881234Y818126D1*
X2891042Y818898D1*
X2900850Y818126D1*
X2902868Y817724D1*
X2991721Y906572D1*
X2991831Y1560074D1*
X2992694Y1565520D1*
X2994398Y1570764D1*
X2996901Y1575677D1*
X3000142Y1580138D1*
X3040989Y1621138D1*
X3047349Y1627345D1*
X3051810Y1630586D1*
X3056723Y1633089D1*
X3061967Y1634793D1*
X3067412Y1635656D1*
X3125287Y1635764D1*
X3686050D1*
X3708765Y1658484D1*
X3708769Y1875853D1*
X3705302Y1881558D1*
X3702701Y1887840D1*
X3701113Y1894451D1*
X3700580Y1901228D1*
X3701113Y1908006D1*
X3702701Y1914617D1*
X3705302Y1920898D1*
X3708855Y1926695D1*
X3713270Y1931865D1*
X3718440Y1936280D1*
X3724237Y1939833D1*
X3730518Y1942435D1*
X3737129Y1944022D1*
X3743907Y1944555D1*
X3750685Y1944022D1*
X3757296Y1942435D1*
X3763577Y1939833D1*
X3769374Y1936280D1*
X3774543Y1931865D1*
X3778959Y1926695D1*
X3782511Y1920898D1*
X3785113Y1914617D1*
X3786700Y1908006D1*
X3787234Y1901228D1*
X3786700Y1894451D1*
X3785113Y1887840D1*
X3782511Y1881558D1*
X3779040Y1875883D1*
X3778936Y1641176D1*
X3778074Y1635730D1*
X3776370Y1630486D1*
X3773867Y1625574D1*
X3770626Y1621113D1*
X3729779Y1580112D1*
X3723420Y1573907D1*
X3718959Y1570666D1*
X3714046Y1568163D1*
X3708803Y1566459D1*
X3703357Y1565596D1*
X3645482Y1565488D1*
X3463082D1*
X3469531Y1554049D1*
X3471116Y1548799D1*
X3473705Y1533564D1*
X3473777Y1528827D1*
X3720372Y1528839D1*
X3724618Y1534419D1*
X3731574Y1541376D1*
X3739534Y1547159D1*
X3748300Y1551625D1*
X3757656Y1554665D1*
X3767374Y1556204D1*
X3777212D1*
X3786929Y1554665D1*
X3796286Y1551625D1*
X3805052Y1547159D1*
X3808010Y1545182D1*
X3808131Y2184409D1*
X3805052Y2183994D1*
X3796286Y2179527D1*
X3786929Y2176487D1*
X3777212Y2174948D1*
X3767374D1*
X3757656Y2176487D1*
X3748300Y2179527D1*
X3739534Y2183994D1*
X3731574Y2189776D1*
X3728171Y2192922D1*
X3728074Y2013943D1*
X3727212Y2008497D1*
X3725508Y2003253D1*
X3723005Y1998340D1*
X3719764Y1993879D1*
X3678916Y1952879D1*
X3676099Y1950063D1*
X3674558Y1943619D1*
X3671956Y1937338D1*
X3668404Y1931541D1*
X3663988Y1926371D1*
X3658819Y1921956D1*
X3653022Y1918403D1*
X3646740Y1915802D1*
X3640130Y1914215D1*
X3633352Y1913681D1*
X3626574Y1914215D1*
X3619963Y1915802D1*
X3613682Y1918403D1*
X3608006Y1921875D1*
X3530974Y1921870D1*
X3508222Y1899150D1*
X3508218Y1751181D1*
X3509861Y1751155D1*
X3524124Y1759532D1*
X3529233Y1761524D1*
X3546258Y1764503D1*
X3624476Y1764572D1*
X3630719Y1763768D1*
X3643692Y1761339D1*
X3648732Y1759179D1*
X3662380Y1751143D1*
X3666377Y1747389D1*
X3676454Y1735169D1*
X3678926Y1730275D1*
X3684216Y1715343D1*
X3684865Y1709898D1*
X3684805Y1694871D1*
X3683737Y1689485D1*
X3677931Y1673887D1*
X3674929Y1669299D1*
X3664644Y1657254D1*
X3660253Y1653969D1*
X3646469Y1646167D1*
X3641219Y1644582D1*
X3625984Y1641993D1*
X3547766Y1641924D1*
X3541522Y1642728D1*
X3528550Y1645157D1*
X3523510Y1647317D1*
X3509862Y1655353D1*
X3505864Y1659107D1*
X3495788Y1671327D1*
X3493315Y1676221D1*
X3491615Y1680880D1*
X3470323Y1680987D1*
X3464877Y1681850D1*
X3459633Y1683554D1*
X3454721Y1686057D1*
X3450260Y1689298D1*
X3446361Y1693197D1*
X3443120Y1697658D1*
X3440617Y1702570D1*
X3438913Y1707814D1*
X3438050Y1713260D1*
X3437942Y1771135D1*
X3437917Y1815342D1*
X3432120Y1811789D1*
X3425839Y1809187D1*
X3419228Y1807600D1*
X3412450Y1807067D1*
X3405672Y1807600D1*
X3399061Y1809187D1*
X3392780Y1811789D1*
X3386983Y1815342D1*
X3381813Y1819757D1*
X3377398Y1824927D1*
X3373846Y1830724D1*
X3371244Y1837005D1*
X3369657Y1843616D1*
X3369123Y1850394D1*
X3369657Y1857172D1*
X3371244Y1863782D1*
X3373846Y1870064D1*
X3377317Y1875739D1*
X3377312Y2149632D1*
X3366456Y2158928D1*
X3363171Y2163319D1*
X3355369Y2177103D1*
X3353784Y2182353D1*
X3351195Y2197588D1*
X3351126Y2275806D1*
X3351930Y2282050D1*
X3354359Y2295022D1*
X3356519Y2300063D1*
X3364555Y2313710D1*
X3368309Y2317708D1*
X3380529Y2327784D1*
X3385423Y2330257D1*
X3400355Y2335547D1*
X3405800Y2336196D1*
X3421636Y2336059D1*
X3426974Y2334807D1*
X3441076Y2329612D1*
X3445772Y2326767D1*
X3458445Y2315975D1*
X3461729Y2311584D1*
X3469531Y2297799D1*
X3471116Y2292550D1*
X3473705Y2277314D1*
X3473774Y2199097D1*
X3472970Y2192853D1*
X3470541Y2179881D1*
X3468381Y2174840D1*
X3460345Y2161192D1*
X3456591Y2157195D1*
X3447586Y2149625D1*
X3447588Y1937854D1*
X3493567Y1983727D1*
X3498028Y1986968D1*
X3502940Y1989471D1*
X3508184Y1991175D1*
X3513630Y1992037D1*
X3571505Y1992146D1*
X3607999D1*
X3613682Y1995612D1*
X3619963Y1998214D1*
X3626431Y1999773D1*
X3657909Y2031257D1*
X3657907Y2075370D1*
X3646469Y2068953D1*
X3641219Y2067368D1*
X3625984Y2064779D1*
X3547766Y2064710D1*
X3541522Y2065514D1*
X3528550Y2067943D1*
X3523510Y2070103D1*
X3509862Y2078139D1*
X3505864Y2081893D1*
X3495788Y2094113D1*
X3493315Y2099007D1*
X3488025Y2113939D1*
X3487376Y2119384D1*
X3487514Y2135220D1*
X3488766Y2140558D1*
X3493960Y2154660D1*
X3496805Y2159356D1*
X3507597Y2172029D1*
X3511988Y2175313D1*
X3525773Y2183115D1*
X3531022Y2184700D1*
X3546258Y2187289D1*
X3624476Y2187358D1*
X3630719Y2186554D1*
X3643692Y2184125D1*
X3648732Y2181965D1*
X3657906Y2176680D1*
X3658015Y2284397D1*
X3658877Y2289843D1*
X3660581Y2295087D1*
X3663084Y2299999D1*
X3666325Y2304460D1*
X3707172Y2345461D1*
X3713534Y2351671D1*
X3717995Y2354911D1*
X3722908Y2357415D1*
X3728152Y2359119D1*
X3733597Y2359981D1*
X3791472Y2360089D1*
X3966767D1*
X3971026Y2365670D1*
X3977982Y2372627D1*
X3980897Y2374924D1*
X3974367Y2380618D1*
X3967978Y2388099D1*
X3966835Y2389810D1*
X3912792Y2389922D1*
X3907346Y2390784D1*
X3902102Y2392488D1*
X3897189Y2394991D1*
X3892728Y2398232D1*
X3878954Y2411853D1*
X3673926Y2411861D1*
X3664644Y2401004D1*
X3660253Y2397719D1*
X3646469Y2389918D1*
X3641219Y2388333D1*
X3625984Y2385744D1*
X3547766Y2385675D1*
X3541522Y2386479D1*
X3528550Y2388907D1*
X3523510Y2391067D1*
X3509862Y2399104D1*
X3505864Y2402857D1*
X3495788Y2415077D1*
X3493315Y2419972D1*
X3488025Y2434904D1*
X3487377Y2440349D1*
X3487514Y2456184D1*
X3488766Y2461523D1*
X3494310Y2476360D1*
X3497313Y2480948D1*
X3507597Y2492993D1*
X3511988Y2496278D1*
X3525773Y2504080D1*
X3531022Y2505664D1*
X3546258Y2508254D1*
X3624088Y2508326D1*
X3630719Y2507518D1*
X3643692Y2505090D1*
X3648732Y2502930D1*
X3662380Y2494894D1*
X3666377Y2491140D1*
X3673947Y2482135D1*
X3896258Y2482028D1*
X3901704Y2481166D1*
X3906948Y2479462D1*
X3911861Y2476959D1*
X3916322Y2473718D1*
X3930096Y2460097D1*
X3966755Y2460089D1*
X3971026Y2465670D1*
X3977982Y2472627D1*
X3980897Y2474924D1*
X3974367Y2480618D1*
X3967978Y2488099D1*
X3966835Y2489810D1*
X3889962Y2489922D1*
X3884516Y2490784D1*
X3879272Y2492488D1*
X3874360Y2494991D1*
X3869899Y2498232D1*
X3828899Y2539080D1*
X3822692Y2545440D1*
X3819451Y2549900D1*
X3816948Y2554813D1*
X3815244Y2560057D1*
X3814381Y2565503D1*
X3814273Y2623378D1*
Y2625423D1*
X3809177Y2619312D1*
X3804008Y2614897D1*
X3798211Y2611344D1*
X3791929Y2608743D1*
X3785318Y2607155D1*
X3778541Y2606622D1*
X3771763Y2607155D1*
X3765152Y2608743D1*
X3758871Y2611344D1*
X3753074Y2614897D1*
X3747904Y2619312D1*
X3743489Y2624482D1*
X3739936Y2630279D1*
X3737334Y2636560D1*
X3735747Y2643171D1*
X3735214Y2649949D1*
X3735747Y2656727D1*
X3737334Y2663338D1*
X3739936Y2669619D1*
X3743407Y2675294D1*
X3743404Y2922992D1*
X3737824Y2927276D1*
X3730867Y2934233D1*
X3725084Y2942192D1*
X3720618Y2950958D1*
X3717577Y2960315D1*
X3716038Y2970032D1*
Y2979871D1*
X3717577Y2989588D1*
X3720618Y2998944D1*
X3725084Y3007710D1*
X3730867Y3015670D1*
X3737824Y3022627D1*
X3745783Y3028409D1*
X3754549Y3032876D1*
X3763906Y3035916D1*
X3773623Y3037455D1*
X3783461D1*
X3793178Y3035916D1*
X3802535Y3032876D1*
X3811301Y3028409D1*
X3814259Y3026433D1*
X3814273Y3113879D1*
X3791553Y3136589D1*
X3668631Y3136593D1*
X3654367Y3128215D1*
X3649258Y3126223D1*
X3632233Y3123244D1*
X3554015Y3123175D1*
X3547772Y3123979D1*
X3534799Y3126407D1*
X3529759Y3128567D1*
X3516111Y3136604D1*
X3512114Y3140357D1*
X3502037Y3152577D1*
X3499565Y3157472D1*
X3494480Y3171613D1*
X3493641Y3177040D1*
X3493763Y3193684D1*
X3495015Y3199023D1*
X3500560Y3213860D1*
X3503562Y3218448D1*
X3513847Y3230493D1*
X3518238Y3233778D1*
X3532022Y3241579D1*
X3537272Y3243164D1*
X3552507Y3245754D1*
X3630725Y3245822D1*
X3636969Y3245018D1*
X3649941Y3242590D1*
X3654981Y3240430D1*
X3668629Y3232394D1*
X3672626Y3228640D1*
X3682703Y3216420D1*
X3685175Y3211525D1*
X3686876Y3206867D1*
X3808861Y3206761D1*
X3814306Y3205898D1*
X3819550Y3204194D1*
X3824463Y3201691D1*
X3828924Y3198450D1*
X3869924Y3157603D1*
X3876130Y3151244D1*
X3879371Y3146783D1*
X3881874Y3141871D1*
X3883578Y3136627D1*
X3884440Y3131181D1*
X3884549Y3073306D1*
Y2582805D1*
X3907268Y2560095D1*
X3966748Y2560089D1*
X3968323Y2562242D1*
X3956004Y2562255D1*
Y2687648D1*
X3965190D1*
X4041372D2*
X4081398D1*
Y2562255D1*
X4069089D1*
X4072159Y2557710D1*
X4076625Y2548944D1*
X4079665Y2539588D1*
X4081204Y2529871D1*
Y2520032D1*
X4079665Y2510315D1*
X4076625Y2500958D1*
X4072159Y2492192D1*
X4066376Y2484233D1*
X4059419Y2477276D1*
X4056504Y2474979D1*
X4063034Y2469285D1*
X4069424Y2461804D1*
X4074564Y2453415D1*
X4078329Y2444326D1*
X4080626Y2434759D1*
X4081398Y2424951D1*
X4080626Y2415143D1*
X4078329Y2405577D1*
X4074564Y2396488D1*
X4069424Y2388099D1*
X4063034Y2380618D1*
X4056504Y2374979D1*
X4063034Y2369285D1*
X4069424Y2361804D1*
X4074564Y2353415D1*
X4078329Y2344326D1*
X4080626Y2334759D1*
X4081398Y2324951D1*
X4080626Y2315143D1*
X4078329Y2305577D1*
X4074564Y2296488D1*
X4069424Y2288099D1*
X4063034Y2280618D1*
X4056504Y2274979D1*
X4063034Y2269285D1*
X4069424Y2261804D1*
X4074198Y2254070D1*
X4110058Y2289761D1*
X4114518Y2293002D1*
X4119431Y2295505D1*
X4124675Y2297209D1*
X4130121Y2298072D1*
X4187996Y2298180D1*
X4232457D1*
X4235676Y2303968D1*
X4239093Y2309081D1*
X4242900Y2313911D1*
X4247075Y2318427D1*
X4251591Y2322602D1*
X4256421Y2326410D1*
X4261535Y2329827D1*
X4267316Y2333023D1*
X4267431Y2648968D1*
X4268294Y2654414D1*
X4269997Y2659658D1*
X4272501Y2664571D1*
X4275742Y2669031D1*
X4316589Y2710032D1*
X4322602Y2716046D1*
X4322579Y2733901D1*
X4275742Y2780871D1*
X4272501Y2785332D1*
X4269998Y2790245D1*
X4268294Y2795489D1*
X4267431Y2800935D1*
X4267323Y2858810D1*
Y2930542D1*
X4261535Y2933757D1*
X4256421Y2937174D1*
X4251591Y2940982D1*
X4247075Y2945157D1*
X4242900Y2949673D1*
X4239093Y2954503D1*
X4235676Y2959616D1*
X4232671Y2964982D1*
X4228841Y2973971D1*
X4228730Y2940944D1*
X4227868Y2935498D1*
X4226164Y2930254D1*
X4223661Y2925341D1*
X4220420Y2920881D1*
X4179573Y2879880D1*
X4041361Y2741668D1*
X4041339Y2687626D1*
X3980897Y2274979D2*
X3974367Y2280618D1*
X3967978Y2288099D1*
X3966835Y2289810D1*
X3806805Y2289814D1*
X3813011Y2285127D1*
X3819968Y2278170D1*
X3825751Y2270210D1*
X3830217Y2261444D1*
X3833257Y2252088D1*
X3834796Y2242371D1*
Y2232532D1*
X3833257Y2222815D1*
X3832709Y2220872D1*
X3863648Y2251670D1*
X3868109Y2254911D1*
X3873022Y2257415D1*
X3878266Y2259118D1*
X3883712Y2259981D1*
X3941587Y2260089D1*
X3966741D1*
X3971026Y2265670D1*
X3977982Y2272627D1*
X3980897Y2274924D1*
Y2174979D2*
X3974367Y2180618D1*
X3967978Y2188099D1*
X3966835Y2189810D1*
X3901037Y2189814D1*
X3878303Y2167094D1*
X3878188Y1063019D1*
X3877326Y1057573D1*
X3875622Y1052329D1*
X3873119Y1047416D1*
X3869878Y1042955D1*
X3829031Y1001955D1*
X3822672Y995749D1*
X3818211Y992509D1*
X3813298Y990005D1*
X3808054Y988302D1*
X3802609Y987439D1*
X3744734Y987331D1*
X3683192D1*
X3684575Y982297D1*
X3684867Y976009D1*
X3684728Y962813D1*
X3683476Y957474D1*
X3677931Y942638D1*
X3674929Y938049D1*
X3664644Y926004D1*
X3660253Y922719D1*
X3646469Y914918D1*
X3641219Y913333D1*
X3625984Y910744D1*
X3547766Y910675D1*
X3541522Y911479D1*
X3529333Y913691D1*
X3524215Y915678D1*
X3509862Y924104D1*
X3505864Y927857D1*
X3495788Y940078D1*
X3493315Y944972D1*
X3488025Y959904D1*
X3487377Y965349D1*
X3487514Y981184D1*
X3488766Y986523D1*
X3494310Y1001360D1*
X3497313Y1005948D1*
X3507597Y1017993D1*
X3511988Y1021278D1*
X3525773Y1029079D1*
X3531022Y1030664D1*
X3546258Y1033254D1*
X3552703Y1033327D1*
X3554813Y1038421D1*
X3557694Y1043122D1*
X3561275Y1047315D1*
X3565467Y1050896D1*
X3570168Y1053777D1*
X3575263Y1055887D1*
X3580624Y1057174D1*
X3586121Y1057606D1*
X3785314D1*
X3808017Y1080326D1*
X3808021Y1156670D1*
X3802929Y1150564D1*
X3797759Y1146149D1*
X3791963Y1142596D1*
X3785681Y1139995D1*
X3779070Y1138407D1*
X3772293Y1137874D1*
X3765515Y1138407D1*
X3758904Y1139995D1*
X3752623Y1142596D1*
X3746826Y1146149D1*
X3741656Y1150564D1*
X3737241Y1155734D1*
X3733688Y1161531D1*
X3731086Y1167812D1*
X3729499Y1174423D1*
X3728966Y1181201D1*
X3729499Y1187979D1*
X3731086Y1194589D1*
X3733688Y1200871D1*
X3737159Y1206546D1*
X3737155Y1441756D1*
X3731574Y1446026D1*
X3724618Y1452982D1*
X3720427Y1458559D1*
X3473772Y1458563D1*
X3473426Y1451702D1*
X3470542Y1436130D1*
X3468381Y1431090D1*
X3460818Y1418105D1*
X3457200Y1413975D1*
X3444371Y1403368D1*
X3439477Y1400896D1*
X3424545Y1395606D1*
X3419100Y1394957D1*
X3403265Y1395094D1*
X3397926Y1396346D1*
X3383089Y1401890D1*
X3378501Y1404893D1*
X3366456Y1415177D1*
X3363171Y1419568D1*
X3355369Y1433353D1*
X3353784Y1438602D1*
X3351195Y1453838D1*
X3351127Y1532056D1*
X3351930Y1538299D1*
X3354359Y1551272D1*
X3356519Y1556312D1*
X3361805Y1565486D1*
X3084719Y1565488D1*
X3062004Y1542768D1*
X3061890Y889263D1*
X3061028Y883817D1*
X3059324Y878573D1*
X3056821Y873660D1*
X3053580Y869199D1*
X3012733Y828199D1*
X2952622Y768088D1*
X2953546Y761120D1*
Y751282D1*
X2952007Y741564D1*
X2948966Y732208D1*
X2944500Y723442D1*
X2938717Y715482D1*
X2938339Y715073D1*
X3105109Y715067D1*
X3286283Y896097D1*
X3290744Y899338D1*
X3295657Y901841D1*
X3300901Y903545D1*
X3306347Y904408D1*
X3364222Y904516D1*
X3828599D1*
X4152311Y1228221D1*
X4152314Y1679123D1*
X3991982Y1839631D1*
X3988741Y1844092D1*
X3986238Y1849005D1*
X3984534Y1854249D1*
X3983671Y1859695D1*
X3983563Y1873037D1*
X3977982Y1877276D1*
X3971026Y1884233D1*
X3965243Y1892192D1*
X3960776Y1900958D1*
X3957736Y1910315D1*
X3956197Y1920032D1*
Y1929871D1*
X3957736Y1939588D1*
X3960776Y1948944D1*
X3965243Y1957710D1*
X3971026Y1965670D1*
X3977982Y1972627D1*
X3980897Y1974924D1*
X3974367Y1980618D1*
X3967978Y1988099D1*
X3962837Y1996488D1*
X3959073Y2005577D1*
X3956776Y2015143D1*
X3956004Y2024951D1*
X3956776Y2034759D1*
X3959073Y2044326D1*
X3962837Y2053415D1*
X3967978Y2061804D1*
X3974367Y2069285D1*
X3980897Y2074924D1*
X3974367Y2080618D1*
X3967978Y2088099D1*
X3962837Y2096488D1*
X3959073Y2105577D1*
X3956776Y2115143D1*
X3956004Y2124951D1*
X3956776Y2134759D1*
X3959073Y2144326D1*
X3962837Y2153415D1*
X3967978Y2161804D1*
X3974367Y2169285D1*
X3980897Y2174924D1*
X2155719Y3245018D2*
X2168692Y3242590D1*
X2173732Y3240430D1*
X2187380Y3232394D1*
X2191377Y3228640D1*
X2201454Y3216420D1*
X2203926Y3211525D1*
X2209216Y3196594D1*
X2209865Y3191148D1*
X2209728Y3175313D1*
X2208476Y3169975D1*
X2202931Y3155138D1*
X2199929Y3150549D1*
X2189644Y3138504D1*
X2185253Y3135219D1*
X2171469Y3127418D1*
X2166219Y3125833D1*
X2150984Y3123244D1*
X2072766Y3123175D1*
X2066522Y3123979D1*
X2053550Y3126407D1*
X2048510Y3128567D1*
X2034862Y3136604D1*
X2030864Y3140357D1*
X2020788Y3152577D1*
X2018315Y3157472D1*
X2013025Y3172404D1*
X2012377Y3177849D1*
X2012514Y3193684D1*
X2013766Y3199023D1*
X2019310Y3213860D1*
X2022313Y3218448D1*
X2032597Y3230493D1*
X2036988Y3233778D1*
X2050032Y3241241D1*
X2055230Y3243010D1*
X2069446Y3245539D1*
X2060161Y3249370D1*
X1754536D1*
X1671923Y3166780D1*
Y3160136D1*
X1670859Y3153421D1*
X1668758Y3146955D1*
X1665672Y3140897D1*
X1661676Y3135397D1*
X1656868Y3130589D1*
X1651368Y3126593D1*
X1645310Y3123507D1*
X1638844Y3121406D1*
X1632129Y3120342D1*
X1625330D1*
X1618615Y3121406D1*
X1612149Y3123507D1*
X1606091Y3126593D1*
X1600591Y3130589D1*
X1595784Y3135397D1*
X1591788Y3140897D1*
X1588701Y3146955D1*
X1586600Y3153421D1*
X1585536Y3160136D1*
Y3166935D1*
X1586600Y3173650D1*
X1588701Y3180116D1*
X1591788Y3186174D1*
X1595784Y3191674D1*
X1600591Y3196481D1*
X1606091Y3200478D1*
X1612149Y3203564D1*
X1618615Y3205665D1*
X1625330Y3206729D1*
X1631983Y3206734D1*
X1724467Y3299098D1*
X1728053Y3301704D1*
X1732002Y3303716D1*
X1736218Y3305086D1*
X1740596Y3305779D1*
X1834676Y3305866D1*
X2080750Y3305779D1*
X2085128Y3305086D1*
X2089344Y3303716D1*
X2093294Y3301704D1*
X2096880Y3299098D1*
X2132425Y3263675D1*
X2135303Y3260305D1*
X2137619Y3256525D1*
X2139316Y3252430D1*
X2140351Y3248120D1*
X2140612Y3245908D1*
X2151304Y3245720D1*
X2155719Y3245018D1*
Y2924054D2*
X2168692Y2921625D1*
X2173732Y2919465D1*
X2187380Y2911429D1*
X2191377Y2907675D1*
X2201454Y2895455D1*
X2203926Y2890561D1*
X2209216Y2875629D1*
X2209865Y2870184D1*
X2209728Y2854349D1*
X2208476Y2849010D1*
X2202931Y2834173D1*
X2199929Y2829585D1*
X2189644Y2817540D1*
X2185253Y2814255D1*
X2171469Y2806453D1*
X2166219Y2804868D1*
X2150984Y2802279D1*
X2072766Y2802210D1*
X2066522Y2803014D1*
X2053550Y2805443D1*
X2048510Y2807603D1*
X2034862Y2815639D1*
X2030864Y2819393D1*
X2020788Y2831613D1*
X2018315Y2836507D1*
X2013230Y2850649D1*
X2012391Y2856075D1*
X2012514Y2872720D1*
X2013766Y2878058D1*
X2019310Y2892895D1*
X2022313Y2897484D1*
X2032597Y2909529D1*
X2036988Y2912813D1*
X2050773Y2920615D1*
X2056022Y2922200D1*
X2071258Y2924789D1*
X2149476Y2924858D1*
X2155719Y2924054D1*
Y2507518D2*
X2168692Y2505090D1*
X2173732Y2502930D1*
X2187380Y2494894D1*
X2191377Y2491140D1*
X2201454Y2478920D1*
X2203926Y2474025D1*
X2209216Y2459094D1*
X2209865Y2453648D1*
X2209728Y2437813D1*
X2208476Y2432474D1*
X2202931Y2417638D1*
X2199929Y2413049D1*
X2189644Y2401004D1*
X2185253Y2397719D1*
X2171469Y2389918D1*
X2166219Y2388333D1*
X2150984Y2385744D1*
X2073154Y2385672D1*
X2066522Y2386479D1*
X2053550Y2388907D1*
X2048510Y2391067D1*
X2034862Y2399104D1*
X2030864Y2402857D1*
X2020788Y2415078D1*
X2018315Y2419972D1*
X2013025Y2434904D1*
X2012377Y2440349D1*
X2012514Y2456184D1*
X2013766Y2461523D1*
X2019310Y2476360D1*
X2022313Y2480948D1*
X2032597Y2492993D1*
X2036988Y2496278D1*
X2050773Y2504079D1*
X2056022Y2505664D1*
X2071258Y2508254D1*
X2149476Y2508322D1*
X2155719Y2507518D1*
Y2186554D2*
X2168692Y2184126D1*
X2173732Y2181965D1*
X2187380Y2173929D1*
X2191377Y2170175D1*
X2201454Y2157955D1*
X2203926Y2153061D1*
X2209216Y2138129D1*
X2209865Y2132684D1*
X2209728Y2116849D1*
X2208476Y2111510D1*
X2203281Y2097409D1*
X2200436Y2092713D1*
X2189644Y2080040D1*
X2185253Y2076755D1*
X2171469Y2068953D1*
X2166219Y2067368D1*
X2150984Y2064779D1*
X2072766Y2064711D1*
X2066522Y2065515D1*
X2053550Y2067943D1*
X2048510Y2070103D1*
X2034862Y2078139D1*
X2030864Y2081893D1*
X2020788Y2094113D1*
X2018315Y2099007D1*
X2013025Y2113939D1*
X2012377Y2119384D1*
X2012514Y2135220D1*
X2013766Y2140558D1*
X2019310Y2155395D1*
X2022313Y2159984D1*
X2032597Y2172029D1*
X2036988Y2175313D1*
X2050773Y2183115D1*
X2056022Y2184700D1*
X2071258Y2187289D1*
X2149476Y2187358D1*
X2155719Y2186554D1*
X1568219Y1770018D2*
X1581192Y1767590D1*
X1586232Y1765430D1*
X1599216Y1757866D1*
X1603347Y1754249D1*
X1613953Y1741420D1*
X1616426Y1736525D1*
X1621716Y1721593D1*
X1622365Y1716148D1*
X1622228Y1700313D1*
X1620976Y1694975D1*
X1615431Y1680138D1*
X1612429Y1675549D1*
X1602144Y1663504D1*
X1597753Y1660219D1*
X1583969Y1652418D1*
X1578719Y1650833D1*
X1563484Y1648244D1*
X1485266Y1648175D1*
X1479022Y1648979D1*
X1466050Y1651407D1*
X1461010Y1653567D1*
X1447362Y1661604D1*
X1443364Y1665357D1*
X1433288Y1677577D1*
X1430815Y1682472D1*
X1425525Y1697404D1*
X1424877Y1702849D1*
X1425014Y1718684D1*
X1426266Y1724023D1*
X1431810Y1738860D1*
X1434813Y1743448D1*
X1445097Y1755493D1*
X1449488Y1758778D1*
X1463273Y1766579D1*
X1468522Y1768164D1*
X1469548Y1768346D1*
X1467350Y1773796D1*
X1465763Y1780407D1*
X1465230Y1787185D1*
X1465763Y1793963D1*
X1467350Y1800574D1*
X1469952Y1806855D1*
X1473504Y1812652D1*
X1477920Y1817822D1*
X1483090Y1822237D1*
X1488886Y1825789D1*
X1495168Y1828391D1*
X1501779Y1829978D1*
X1508556Y1830512D1*
X1515334Y1829978D1*
X1521945Y1828391D1*
X1528226Y1825789D1*
X1534023Y1822237D1*
X1539193Y1817822D1*
X1543609Y1812652D1*
X1547161Y1806855D1*
X1549763Y1800574D1*
X1551350Y1793963D1*
X1551847Y1788101D1*
X1554929Y1783135D1*
X1557039Y1778040D1*
X1558327Y1772668D1*
X1559079Y1770826D1*
X1565619Y1770475D1*
X1568219Y1770018D1*
Y1449054D2*
X1581192Y1446625D1*
X1586232Y1444465D1*
X1599880Y1436429D1*
X1603877Y1432675D1*
X1613953Y1420455D1*
X1616426Y1415561D1*
X1621716Y1400629D1*
X1622365Y1395184D1*
X1622228Y1379349D1*
X1620976Y1374010D1*
X1615431Y1359173D1*
X1612429Y1354585D1*
X1602144Y1342540D1*
X1597753Y1339255D1*
X1583969Y1331453D1*
X1578719Y1329868D1*
X1563484Y1327279D1*
X1485266Y1327210D1*
X1479022Y1328014D1*
X1466050Y1330443D1*
X1461010Y1332603D1*
X1447362Y1340639D1*
X1443364Y1344393D1*
X1433288Y1356613D1*
X1430815Y1361507D1*
X1425525Y1376439D1*
X1424877Y1381884D1*
X1425014Y1397720D1*
X1426266Y1403058D1*
X1431810Y1417895D1*
X1434813Y1422484D1*
X1445097Y1434529D1*
X1449488Y1437814D1*
X1463273Y1445615D1*
X1468522Y1447200D1*
X1483332Y1449752D1*
X1531520Y1449861D1*
X1563804Y1449755D1*
X1568219Y1449054D1*
X3358180Y3757050D2*
X3360608Y3770022D1*
X3362768Y3775063D1*
X3370805Y3788710D1*
X3374558Y3792708D1*
X3386778Y3802784D1*
X3391673Y3805257D1*
X3406605Y3810547D1*
X3412050Y3811196D1*
X3427885Y3811059D1*
X3433224Y3809806D1*
X3448061Y3804262D1*
X3452649Y3801259D1*
X3464694Y3790975D1*
X3467979Y3786584D1*
X3475780Y3772799D1*
X3477365Y3767550D1*
X3479954Y3752314D1*
X3480023Y3674097D1*
X3479219Y3667853D1*
X3476791Y3654881D1*
X3474631Y3649840D1*
X3466594Y3636192D1*
X3462841Y3632195D1*
X3450621Y3622119D1*
X3445726Y3619646D1*
X3430794Y3614356D1*
X3425349Y3613707D1*
X3410322Y3613767D1*
X3404936Y3614835D1*
X3389338Y3620641D1*
X3384750Y3623644D1*
X3372705Y3633928D1*
X3369420Y3638319D1*
X3361619Y3652103D1*
X3360034Y3657353D1*
X3357445Y3672588D1*
X3357376Y3750806D1*
X3358180Y3757050D1*
X3841046Y3707532D2*
X3839507Y3697815D1*
X3836466Y3688458D1*
X3832000Y3679692D1*
X3826217Y3671733D1*
X3819260Y3664776D1*
X3813683Y3660585D1*
X3813679Y3419026D1*
X3817145Y3413371D1*
X3819747Y3407089D1*
X3821334Y3400479D1*
X3821867Y3393701D1*
X3821334Y3386923D1*
X3819747Y3380312D1*
X3817145Y3374031D1*
X3813593Y3368234D1*
X3809177Y3363064D1*
X3804008Y3358649D1*
X3798211Y3355096D1*
X3791929Y3352495D1*
X3785318Y3350907D1*
X3778541Y3350374D1*
X3771763Y3350907D1*
X3765152Y3352495D1*
X3758871Y3355096D1*
X3753074Y3358649D1*
X3747904Y3363064D1*
X3743489Y3368234D1*
X3739936Y3374031D1*
X3737334Y3380312D1*
X3735747Y3386923D1*
X3735214Y3393701D1*
X3735747Y3400479D1*
X3737334Y3407089D1*
X3739936Y3413371D1*
X3743407Y3419046D1*
X3743404Y3660500D1*
X3737824Y3664776D1*
X3730867Y3671733D1*
X3725084Y3679692D1*
X3720618Y3688458D1*
X3717577Y3697815D1*
X3716038Y3707532D1*
Y3717371D1*
X3717577Y3727088D1*
X3720618Y3736444D1*
X3725084Y3745210D1*
X3730867Y3753170D1*
X3737824Y3760127D1*
X3745783Y3765909D1*
X3754549Y3770376D1*
X3763906Y3773416D1*
X3773623Y3774955D1*
X3783461D1*
X3793178Y3773416D1*
X3802535Y3770376D1*
X3811301Y3765909D1*
X3819260Y3760127D1*
X3826217Y3753170D1*
X3832000Y3745210D1*
X3836466Y3736444D1*
X3839507Y3727088D1*
X3841046Y3717371D1*
Y3707532D1*
X3636969Y3661554D2*
X3649941Y3659126D1*
X3654981Y3656965D1*
X3668629Y3648929D1*
X3672627Y3645175D1*
X3682703Y3632955D1*
X3685175Y3628061D1*
X3690260Y3613919D1*
X3691099Y3608493D1*
X3690977Y3591849D1*
X3689725Y3586510D1*
X3684180Y3571673D1*
X3681178Y3567085D1*
X3670893Y3555040D1*
X3666503Y3551755D1*
X3652718Y3543953D1*
X3647469Y3542368D1*
X3632233Y3539779D1*
X3554015Y3539711D1*
X3547772Y3540514D1*
X3534799Y3542943D1*
X3529759Y3545103D1*
X3516111Y3553139D1*
X3512114Y3556893D1*
X3502037Y3569113D1*
X3499565Y3574007D1*
X3494275Y3588939D1*
X3493626Y3594384D1*
X3493763Y3610220D1*
X3495015Y3615558D1*
X3500560Y3630395D1*
X3503562Y3634984D1*
X3513847Y3647029D1*
X3518238Y3650313D1*
X3532022Y3658115D1*
X3537272Y3659700D1*
X3552507Y3662289D1*
X3630725Y3662358D1*
X3636969Y3661554D1*
X3357740Y3017042D2*
X3360608Y3032522D1*
X3362768Y3037563D1*
X3370805Y3051210D1*
X3374558Y3055208D1*
X3386778Y3065284D1*
X3391673Y3067757D1*
X3406605Y3073047D1*
X3412050Y3073696D1*
X3427885Y3073558D1*
X3433224Y3072306D1*
X3448060Y3066762D1*
X3452649Y3063759D1*
X3464694Y3053475D1*
X3467979Y3049084D1*
X3475780Y3035299D1*
X3477365Y3030050D1*
X3479954Y3014814D1*
X3480023Y2936597D1*
X3479219Y2930353D1*
X3476791Y2917381D1*
X3474631Y2912340D1*
X3466594Y2898692D1*
X3462841Y2894695D1*
X3450621Y2884619D1*
X3445726Y2882146D1*
X3430794Y2876856D1*
X3425349Y2876207D1*
X3409514Y2876344D1*
X3404175Y2877596D1*
X3389338Y2883141D1*
X3384750Y2886144D1*
X3372705Y2896428D1*
X3369420Y2900819D1*
X3361619Y2914603D1*
X3360034Y2919853D1*
X3357444Y2935088D1*
X3357373Y3012919D1*
X3357661Y3016575D1*
X3636969Y2924054D2*
X3649941Y2921625D1*
X3654981Y2919465D1*
X3668629Y2911429D1*
X3672626Y2907675D1*
X3682703Y2895455D1*
X3685175Y2890561D1*
X3690465Y2875629D1*
X3691114Y2870184D1*
X3690977Y2854349D1*
X3689725Y2849010D1*
X3684181Y2834173D1*
X3681178Y2829585D1*
X3670894Y2817540D1*
X3666503Y2814255D1*
X3652718Y2806453D1*
X3647469Y2804868D1*
X3632233Y2802279D1*
X3554403Y2802207D1*
X3547772Y2803015D1*
X3534799Y2805443D1*
X3529759Y2807603D1*
X3516111Y2815639D1*
X3512114Y2819393D1*
X3502037Y2831613D1*
X3499565Y2836507D1*
X3494275Y2851439D1*
X3493626Y2856884D1*
X3493763Y2872720D1*
X3495015Y2878058D1*
X3500560Y2892895D1*
X3503562Y2897484D1*
X3513847Y2909529D1*
X3518238Y2912813D1*
X3532022Y2920615D1*
X3537272Y2922200D1*
X3552507Y2924789D1*
X3630725Y2924858D1*
X3636969Y2924054D1*
X2177142Y3473846D2*
X2175703Y3464760D1*
X2172860Y3456012D1*
X2168684Y3447815D1*
X2163277Y3440373D1*
X2156773Y3433869D1*
X2149331Y3428462D1*
X2141134Y3424286D1*
X2132386Y3421443D1*
X2123300Y3420004D1*
X2114101D1*
X2105016Y3421443D1*
X2096267Y3424286D1*
X2088071Y3428462D1*
X2080629Y3433869D1*
X2074124Y3440373D1*
X2068717Y3447815D1*
X2064541Y3456012D1*
X2061698Y3464760D1*
X2060259Y3473846D1*
Y3483045D1*
X2061698Y3492130D1*
X2064541Y3500879D1*
X2068717Y3509075D1*
X2074124Y3516517D1*
X2080629Y3523022D1*
X2088071Y3528429D1*
X2096267Y3532605D1*
X2105016Y3535448D1*
X2114101Y3536887D1*
X2123300D1*
X2132386Y3535448D1*
X2141134Y3532605D1*
X2149331Y3528429D1*
X2156773Y3523022D1*
X2163277Y3516517D1*
X2168684Y3509075D1*
X2172860Y3500879D1*
X2175703Y3492130D1*
X2177142Y3483045D1*
Y3473846D1*
X3630719Y1442803D2*
X3642908Y1440591D1*
X3648027Y1438605D1*
X3662380Y1430178D1*
X3666377Y1426425D1*
X3676453Y1414205D1*
X3678926Y1409310D1*
X3684216Y1394378D1*
X3684865Y1388933D1*
X3684728Y1373098D1*
X3683476Y1367759D1*
X3677931Y1352922D1*
X3674929Y1348334D1*
X3664644Y1336289D1*
X3660253Y1333004D1*
X3646469Y1325203D1*
X3641219Y1323618D1*
X3625984Y1321029D1*
X3547766Y1320960D1*
X3541522Y1321764D1*
X3528550Y1324192D1*
X3523510Y1326352D1*
X3509862Y1334389D1*
X3505864Y1338142D1*
X3495788Y1350362D1*
X3493315Y1355257D1*
X3488025Y1370189D1*
X3487377Y1375634D1*
X3487514Y1391469D1*
X3488766Y1396808D1*
X3494310Y1411645D1*
X3497313Y1416233D1*
X3507597Y1428278D1*
X3511988Y1431563D1*
X3525773Y1439364D1*
X3531022Y1440949D1*
X3546258Y1443538D1*
X3624476Y1443607D1*
X3630719Y1442803D1*
X2764642Y3926602D2*
X2763203Y3917516D1*
X2760360Y3908767D1*
X2756184Y3900571D1*
X2750777Y3893129D1*
X2744273Y3886625D1*
X2736831Y3881218D1*
X2728634Y3877041D1*
X2719886Y3874199D1*
X2710800Y3872760D1*
X2701601D1*
X2692516Y3874199D1*
X2683767Y3877041D1*
X2675571Y3881218D1*
X2668129Y3886625D1*
X2661624Y3893129D1*
X2656217Y3900571D1*
X2652041Y3908767D1*
X2649198Y3917516D1*
X2647759Y3926602D1*
Y3935801D1*
X2649198Y3944886D1*
X2652041Y3953635D1*
X2656217Y3961831D1*
X2661624Y3969273D1*
X2668129Y3975778D1*
X2675571Y3981185D1*
X2683767Y3985361D1*
X2692516Y3988203D1*
X2701601Y3989642D1*
X2710800D1*
X2719886Y3988203D1*
X2728634Y3985361D1*
X2736831Y3981185D1*
X2744273Y3975778D1*
X2750777Y3969273D1*
X2756184Y3961831D1*
X2760360Y3953635D1*
X2763203Y3944886D1*
X2764642Y3935801D1*
Y3926602D1*
Y3591957D2*
X2763203Y3582872D1*
X2760360Y3574123D1*
X2756184Y3565927D1*
X2750777Y3558485D1*
X2744273Y3551980D1*
X2736831Y3546573D1*
X2728634Y3542397D1*
X2719886Y3539554D1*
X2710800Y3538115D1*
X2701601D1*
X2692516Y3539554D1*
X2683767Y3542397D1*
X2675571Y3546573D1*
X2668129Y3551980D1*
X2661624Y3558485D1*
X2656217Y3565927D1*
X2652041Y3574123D1*
X2649198Y3582872D1*
X2647759Y3591957D1*
Y3601156D1*
X2649198Y3610242D1*
X2652041Y3618990D1*
X2656217Y3627187D1*
X2661624Y3634629D1*
X2668129Y3641133D1*
X2675571Y3646540D1*
X2683767Y3650716D1*
X2692516Y3653559D1*
X2701601Y3654998D1*
X2710800D1*
X2719886Y3653559D1*
X2728634Y3650716D1*
X2736831Y3646540D1*
X2744273Y3641133D1*
X2750777Y3634629D1*
X2756184Y3627187D1*
X2760360Y3618990D1*
X2763203Y3610242D1*
X2764642Y3601156D1*
Y3591957D1*
X3834796Y757532D2*
X3833257Y747815D1*
X3830217Y738458D1*
X3825751Y729692D1*
X3819968Y721733D1*
X3813011Y714776D1*
X3805052Y708994D1*
X3796286Y704527D1*
X3786929Y701487D1*
X3777212Y699948D1*
X3767374D1*
X3757656Y701487D1*
X3748300Y704527D1*
X3739534Y708994D1*
X3731574Y714776D1*
X3724618Y721733D1*
X3718835Y729692D1*
X3714368Y738458D1*
X3711328Y747815D1*
X3709789Y757532D1*
Y767371D1*
X3711328Y777088D1*
X3714368Y786444D1*
X3718835Y795210D1*
X3724618Y803170D1*
X3731574Y810127D1*
X3739534Y815909D1*
X3748300Y820376D1*
X3757656Y823416D1*
X3767374Y824955D1*
X3777212D1*
X3786929Y823416D1*
X3796286Y820376D1*
X3805052Y815909D1*
X3813011Y810127D1*
X3819968Y803170D1*
X3825751Y795210D1*
X3830217Y786444D1*
X3833257Y777088D1*
X3834796Y767371D1*
Y757532D1*
X3630719Y711554D2*
X3643692Y709126D1*
X3648732Y706965D1*
X3662380Y698929D1*
X3666377Y695175D1*
X3676454Y682955D1*
X3678926Y678061D1*
X3684216Y663129D1*
X3684865Y657684D1*
X3684728Y641849D1*
X3683476Y636510D1*
X3677931Y621673D1*
X3674929Y617085D1*
X3665225Y605611D1*
X3660945Y602171D1*
X3646469Y593953D1*
X3641219Y592368D1*
X3625984Y589779D1*
X3547766Y589711D1*
X3541522Y590515D1*
X3528550Y592943D1*
X3523510Y595103D1*
X3509862Y603139D1*
X3505864Y606893D1*
X3495788Y619113D1*
X3493315Y624007D1*
X3488025Y638939D1*
X3487377Y644384D1*
X3487514Y660220D1*
X3488766Y665558D1*
X3494310Y680395D1*
X3497313Y684984D1*
X3507597Y697029D1*
X3511988Y700313D1*
X3525773Y708115D1*
X3531022Y709700D1*
X3546258Y712289D1*
X3624476Y712358D1*
X3630719Y711554D1*
X2155719Y1770018D2*
X2168692Y1767590D1*
X2173732Y1765430D1*
X2187380Y1757394D1*
X2191377Y1753640D1*
X2200992Y1742090D1*
X2203636Y1737278D1*
X2209216Y1721593D1*
X2209865Y1716148D1*
X2209728Y1700313D1*
X2208476Y1694975D1*
X2202931Y1680138D1*
X2199929Y1675549D1*
X2189644Y1663504D1*
X2185253Y1660219D1*
X2171469Y1652418D1*
X2166219Y1650833D1*
X2150984Y1648244D1*
X2072766Y1648175D1*
X2066522Y1648979D1*
X2053550Y1651407D1*
X2048510Y1653567D1*
X2034862Y1661604D1*
X2030864Y1665357D1*
X2020788Y1677577D1*
X2018315Y1682472D1*
X2013025Y1697404D1*
X2012377Y1702849D1*
X2012514Y1718684D1*
X2013766Y1724023D1*
X2019310Y1738860D1*
X2022313Y1743448D1*
X2032597Y1755493D1*
X2036988Y1758778D1*
X2050773Y1766579D1*
X2056022Y1768164D1*
X2071258Y1770754D1*
X2149476Y1770822D1*
X2155719Y1770018D1*
X2153211Y1449494D2*
X2168692Y1446625D1*
X2173732Y1444465D1*
X2187380Y1436429D1*
X2191377Y1432675D1*
X2201453Y1420455D1*
X2203926Y1415561D1*
X2209216Y1400629D1*
X2209865Y1395184D1*
X2209728Y1379349D1*
X2208476Y1374010D1*
X2202931Y1359173D1*
X2199929Y1354585D1*
X2189644Y1342540D1*
X2185253Y1339255D1*
X2171469Y1331453D1*
X2166219Y1329868D1*
X2150984Y1327279D1*
X2072766Y1327210D1*
X2066522Y1328014D1*
X2053550Y1330443D1*
X2048510Y1332603D1*
X2034862Y1340639D1*
X2030864Y1344393D1*
X2020788Y1356613D1*
X2018315Y1361507D1*
X2013025Y1376439D1*
X2012377Y1381884D1*
X2012514Y1397720D1*
X2013766Y1403058D1*
X2019310Y1417895D1*
X2022313Y1422484D1*
X2032597Y1434529D1*
X2036988Y1437814D1*
X2050773Y1445615D1*
X2056022Y1447200D1*
X2071258Y1449789D1*
X2149088Y1449861D1*
X2152744Y1449572D1*
X2470680Y1538299D2*
X2473108Y1551272D1*
X2475268Y1556312D1*
X2483305Y1569960D1*
X2487058Y1573957D1*
X2499278Y1584034D1*
X2504173Y1586506D1*
X2519105Y1591796D1*
X2524550Y1592445D1*
X2540385Y1592308D1*
X2545724Y1591056D1*
X2560561Y1585511D1*
X2565149Y1582509D1*
X2577194Y1572224D1*
X2580479Y1567833D1*
X2588280Y1554049D1*
X2589865Y1548799D1*
X2592454Y1533564D1*
X2592523Y1455346D1*
X2591719Y1449102D1*
X2589291Y1436130D1*
X2587131Y1431090D1*
X2579094Y1417442D1*
X2575341Y1413444D1*
X2563121Y1403368D1*
X2558226Y1400895D1*
X2543294Y1395605D1*
X2537849Y1394957D1*
X2522014Y1395094D1*
X2516675Y1396346D1*
X2502574Y1401540D1*
X2497878Y1404385D1*
X2485205Y1415177D1*
X2481920Y1419568D1*
X2474119Y1433353D1*
X2472534Y1438602D1*
X2469945Y1453838D1*
X2469876Y1532056D1*
X2470680Y1538299D1*
X2953546Y1488782D2*
X2952007Y1479064D1*
X2948966Y1469708D1*
X2944500Y1460942D1*
X2938717Y1452982D1*
X2931760Y1446026D1*
X2923801Y1440243D1*
X2915035Y1435776D1*
X2905678Y1432736D1*
X2895961Y1431197D1*
X2886123D1*
X2876406Y1432736D1*
X2867049Y1435776D1*
X2858283Y1440243D1*
X2850324Y1446026D1*
X2843367Y1452982D1*
X2837584Y1460942D1*
X2833118Y1469708D1*
X2830077Y1479064D1*
X2828538Y1488782D1*
Y1498620D1*
X2830077Y1508337D1*
X2833118Y1517694D1*
X2837584Y1526460D1*
X2843367Y1534419D1*
X2850324Y1541376D1*
X2858283Y1547159D1*
X2867049Y1551625D1*
X2876406Y1554665D1*
X2886123Y1556204D1*
X2895961D1*
X2905678Y1554665D1*
X2915035Y1551625D1*
X2923801Y1547159D1*
X2931760Y1541376D1*
X2938717Y1534419D1*
X2944500Y1526460D1*
X2948966Y1517694D1*
X2952007Y1508337D1*
X2953546Y1498620D1*
Y1488782D1*
X2749469Y1763768D2*
X2762441Y1761339D1*
X2767481Y1759179D1*
X2781129Y1751143D1*
X2785127Y1747389D1*
X2795203Y1735169D1*
X2797675Y1730275D1*
X2802965Y1715343D1*
X2803614Y1709898D1*
X2803477Y1694063D1*
X2802225Y1688724D1*
X2796681Y1673887D1*
X2793678Y1669298D1*
X2783394Y1657253D1*
X2779003Y1653969D1*
X2765218Y1646167D1*
X2759969Y1644582D1*
X2745159Y1642030D1*
X2696971Y1641921D1*
X2664686Y1642027D1*
X2649075Y1644707D1*
X2643881Y1646465D1*
X2630126Y1654324D1*
X2625846Y1657752D1*
X2615609Y1669841D1*
X2612760Y1674527D1*
X2607273Y1689391D1*
X2606199Y1694768D1*
X2606129Y1710607D1*
X2606958Y1716027D1*
X2612309Y1730938D1*
X2614942Y1735748D1*
X2625070Y1747929D1*
X2629189Y1751549D1*
X2642873Y1759532D1*
X2647982Y1761524D1*
X2665007Y1764503D1*
X2743225Y1764572D1*
X2749469Y1763768D1*
Y1442803D2*
X2762441Y1440375D1*
X2767481Y1438215D1*
X2781129Y1430178D1*
X2785127Y1426425D1*
X2795203Y1414205D1*
X2797675Y1409310D1*
X2802965Y1394378D1*
X2803614Y1388933D1*
X2803554Y1373906D1*
X2802486Y1368520D1*
X2796680Y1352922D1*
X2793678Y1348334D1*
X2783393Y1336289D1*
X2779003Y1333004D1*
X2765218Y1325203D1*
X2759969Y1323618D1*
X2744733Y1321029D1*
X2666515Y1320960D1*
X2660272Y1321764D1*
X2647299Y1324192D1*
X2642259Y1326352D1*
X2628611Y1334389D1*
X2624614Y1338142D1*
X2614537Y1350362D1*
X2612065Y1355257D1*
X2606775Y1370189D1*
X2606126Y1375634D1*
X2606263Y1391469D1*
X2607515Y1396808D1*
X2613060Y1411645D1*
X2616062Y1416233D1*
X2626347Y1428278D1*
X2630738Y1431563D1*
X2644522Y1439364D1*
X2649772Y1440949D1*
X2665007Y1443538D1*
X2743225Y1443607D1*
X2749469Y1442803D1*
X2470680Y800799D2*
X2472892Y812988D1*
X2474878Y818107D1*
X2483305Y832460D1*
X2487058Y836457D1*
X2499278Y846534D1*
X2504173Y849006D1*
X2519105Y854296D1*
X2524550Y854945D1*
X2540385Y854808D1*
X2545724Y853556D1*
X2560560Y848011D1*
X2565149Y845009D1*
X2577194Y834724D1*
X2580479Y830333D1*
X2588280Y816549D1*
X2589865Y811299D1*
X2592454Y796064D1*
X2592523Y717846D1*
X2591719Y711602D1*
X2589291Y698630D1*
X2587131Y693590D1*
X2579094Y679942D1*
X2575341Y675944D1*
X2563121Y665868D1*
X2558226Y663395D1*
X2543294Y658105D1*
X2537849Y657457D1*
X2522014Y657594D1*
X2516675Y658846D1*
X2501838Y664390D1*
X2497250Y667393D1*
X2485205Y677677D1*
X2481920Y682068D1*
X2474119Y695853D1*
X2472534Y701102D1*
X2469944Y716338D1*
X2469876Y794556D1*
X2470680Y800799D1*
X2749469Y1026268D2*
X2762441Y1023839D1*
X2767481Y1021679D1*
X2776655Y1016394D1*
X2776659Y1020680D1*
X2753939Y1043409D1*
X2175001Y1043413D1*
X2152269Y1020693D1*
X2152264Y550196D1*
X2166448Y536202D1*
X2186895Y556548D1*
X2191454Y559594D1*
X2196599Y561492D1*
X2202045Y562137D1*
X2230888Y562065D1*
X2236266Y560995D1*
X2241246Y558699D1*
X2245552Y555304D1*
X2259522Y541334D1*
X2322953Y541339D1*
X2345643Y564058D1*
X2345651Y722653D1*
X2340331Y718424D1*
X2335217Y715007D1*
X2329851Y712002D1*
X2324266Y709427D1*
X2318496Y707298D1*
X2312576Y705629D1*
X2306544Y704429D1*
X2300437Y703706D1*
X2294291Y703465D1*
X2288146Y703706D1*
X2282038Y704429D1*
X2276006Y705629D1*
X2270087Y707298D1*
X2264317Y709427D1*
X2258732Y712002D1*
X2253366Y715007D1*
X2248252Y718424D1*
X2243422Y722231D1*
X2238906Y726406D1*
X2234731Y730922D1*
X2230924Y735752D1*
X2227507Y740866D1*
X2224502Y746232D1*
X2221927Y751817D1*
X2219798Y757587D1*
X2218129Y763506D1*
X2216929Y769538D1*
X2216206Y775646D1*
X2215965Y781791D1*
X2216206Y787937D1*
X2216929Y794044D1*
X2218129Y800076D1*
X2219798Y805996D1*
X2221927Y811766D1*
X2224502Y817351D1*
X2227507Y822717D1*
X2230924Y827831D1*
X2234731Y832661D1*
X2238906Y837177D1*
X2243422Y841351D1*
X2248252Y845159D1*
X2253366Y848576D1*
X2258732Y851581D1*
X2264317Y854156D1*
X2270087Y856285D1*
X2276006Y857954D1*
X2282038Y859154D1*
X2288146Y859877D1*
X2294291Y860118D1*
X2300437Y859877D1*
X2306544Y859154D1*
X2312576Y857954D1*
X2318496Y856285D1*
X2324266Y854156D1*
X2329851Y851581D1*
X2335217Y848576D1*
X2340331Y845159D1*
X2345637Y840911D1*
X2345759Y925198D1*
X2346622Y930644D1*
X2348326Y935888D1*
X2350829Y940800D1*
X2354070Y945261D1*
X2394917Y986262D1*
X2401276Y992467D1*
X2405736Y995708D1*
X2410649Y998211D1*
X2415893Y999915D1*
X2421339Y1000778D1*
X2479214Y1000886D1*
X2617045D1*
X2626347Y1011743D1*
X2630738Y1015027D1*
X2644522Y1022829D1*
X2649772Y1024414D1*
X2665007Y1027003D1*
X2743225Y1027072D1*
X2749469Y1026268D1*
Y705303D2*
X2762441Y702875D1*
X2767481Y700715D1*
X2781129Y692678D1*
X2785126Y688925D1*
X2795203Y676705D1*
X2797675Y671810D1*
X2802965Y656878D1*
X2803614Y651433D1*
X2803477Y635598D1*
X2802225Y630259D1*
X2796681Y615422D1*
X2793678Y610834D1*
X2783394Y598789D1*
X2779003Y595504D1*
X2765218Y587703D1*
X2759969Y586118D1*
X2744733Y583528D1*
X2666515Y583460D1*
X2660272Y584264D1*
X2648082Y586476D1*
X2642964Y588462D1*
X2628611Y596889D1*
X2624614Y600642D1*
X2614537Y612862D1*
X2612065Y617757D1*
X2606775Y632689D1*
X2606126Y638134D1*
X2606263Y653969D1*
X2607515Y659308D1*
X2613060Y674144D1*
X2616062Y678733D1*
X2626347Y690778D1*
X2630738Y694063D1*
X2644522Y701864D1*
X2649772Y703449D1*
X2665007Y706038D1*
X2743225Y706107D1*
X2749469Y705303D1*
Y3245018D2*
X2762441Y3242590D1*
X2767481Y3240430D1*
X2781129Y3232394D1*
X2785127Y3228640D1*
X2795203Y3216420D1*
X2797675Y3211525D1*
X2802965Y3196594D1*
X2803614Y3191148D1*
X2803477Y3175313D1*
X2802225Y3169974D1*
X2796681Y3155138D1*
X2793678Y3150549D1*
X2783974Y3139075D1*
X2779694Y3135636D1*
X2765218Y3127418D1*
X2759969Y3125833D1*
X2744733Y3123244D1*
X2666515Y3123175D1*
X2660272Y3123979D1*
X2647299Y3126407D1*
X2642259Y3128567D1*
X2628611Y3136604D1*
X2624614Y3140357D1*
X2614537Y3152577D1*
X2612065Y3157472D1*
X2606775Y3172404D1*
X2606126Y3177849D1*
X2606263Y3193684D1*
X2607515Y3199023D1*
X2613060Y3213860D1*
X2616062Y3218448D1*
X2626347Y3230493D1*
X2630738Y3233778D1*
X2644522Y3241579D1*
X2649772Y3243164D1*
X2665007Y3245754D1*
X2743225Y3245822D1*
X2749469Y3245018D1*
Y2924054D2*
X2762441Y2921626D1*
X2767481Y2919465D1*
X2781129Y2911429D1*
X2785127Y2907675D1*
X2794741Y2896126D1*
X2797386Y2891314D1*
X2802965Y2875629D1*
X2803614Y2870184D1*
X2803477Y2854349D1*
X2802225Y2849010D1*
X2796680Y2834173D1*
X2793678Y2829585D1*
X2783393Y2817540D1*
X2779003Y2814255D1*
X2765218Y2806453D1*
X2759969Y2804868D1*
X2744733Y2802279D1*
X2666515Y2802211D1*
X2660272Y2803014D1*
X2647299Y2805443D1*
X2642259Y2807603D1*
X2628611Y2815639D1*
X2624614Y2819393D1*
X2614537Y2831613D1*
X2612065Y2836507D1*
X2606775Y2851439D1*
X2606126Y2856884D1*
X2606263Y2872720D1*
X2607515Y2878058D1*
X2613060Y2892895D1*
X2616062Y2897484D1*
X2626347Y2909529D1*
X2630738Y2912814D1*
X2644522Y2920615D1*
X2649772Y2922200D1*
X2665007Y2924789D1*
X2743225Y2924858D1*
X2749469Y2924054D1*
X2746960Y2507958D2*
X2762441Y2505090D1*
X2767481Y2502930D1*
X2781129Y2494894D1*
X2785126Y2491140D1*
X2795203Y2478920D1*
X2797675Y2474025D1*
X2802965Y2459094D1*
X2803614Y2453648D1*
X2803477Y2437813D1*
X2802225Y2432475D1*
X2796680Y2417638D1*
X2793678Y2413049D1*
X2783393Y2401004D1*
X2779003Y2397719D1*
X2765218Y2389918D1*
X2759969Y2388333D1*
X2744733Y2385744D1*
X2666515Y2385675D1*
X2660272Y2386479D1*
X2647299Y2388907D1*
X2642259Y2391067D1*
X2628611Y2399104D1*
X2624614Y2402857D1*
X2617044Y2411863D1*
X2426014Y2411861D1*
X2403303Y2389141D1*
X2403297Y2008066D1*
X2406763Y2002367D1*
X2409365Y1996086D1*
X2410952Y1989475D1*
X2411486Y1982697D1*
X2410952Y1975919D1*
X2409365Y1969308D1*
X2406763Y1963027D1*
X2403211Y1957230D1*
X2398795Y1952060D1*
X2393626Y1947645D1*
X2387829Y1944092D1*
X2381548Y1941491D1*
X2374937Y1939904D1*
X2368159Y1939370D1*
X2361381Y1939904D1*
X2354770Y1941491D1*
X2348489Y1944092D1*
X2342692Y1947645D1*
X2337522Y1952060D1*
X2333107Y1957230D1*
X2329554Y1963027D1*
X2326953Y1969308D1*
X2325365Y1975919D1*
X2324832Y1982697D1*
X2325365Y1989475D1*
X2326953Y1996086D1*
X2329554Y2002367D1*
X2333025Y2008042D1*
X2333129Y2406446D1*
X2333992Y2411892D1*
X2335696Y2417136D1*
X2338199Y2422048D1*
X2341440Y2426509D1*
X2382287Y2467510D1*
X2388648Y2473718D1*
X2393109Y2476959D1*
X2398022Y2479462D1*
X2403266Y2481166D1*
X2408712Y2482028D1*
X2466587Y2482137D1*
X2617049D1*
X2626347Y2492993D1*
X2630737Y2496278D1*
X2644522Y2504080D1*
X2649772Y2505664D1*
X2665007Y2508254D1*
X2742837Y2508326D1*
X2746493Y2508037D1*
X2749469Y2186554D2*
X2762441Y2184125D1*
X2767481Y2181965D1*
X2781129Y2173929D1*
X2785126Y2170175D1*
X2795203Y2157955D1*
X2797675Y2153061D1*
X2802965Y2138129D1*
X2803614Y2132684D1*
X2803477Y2116849D1*
X2802225Y2111510D1*
X2796680Y2096673D1*
X2793678Y2092085D1*
X2783393Y2080040D1*
X2779003Y2076755D1*
X2765218Y2068953D1*
X2759969Y2067368D1*
X2744733Y2064779D1*
X2666515Y2064710D1*
X2660272Y2065514D1*
X2647299Y2067943D1*
X2642259Y2070103D1*
X2628611Y2078139D1*
X2624614Y2081893D1*
X2614537Y2094113D1*
X2612065Y2099007D1*
X2606775Y2113939D1*
X2606126Y2119384D1*
X2606263Y2135220D1*
X2607515Y2140558D1*
X2612710Y2154660D1*
X2615555Y2159356D1*
X2626347Y2172029D1*
X2630738Y2175313D1*
X2644522Y2183115D1*
X2649772Y2184700D1*
X2665007Y2187289D1*
X2743225Y2187358D1*
X2749469Y2186554D1*
X4407310Y3403829D2*
X4372251D1*
X4337613Y3369172D1*
X4337598Y3070550D1*
X4343386Y3067327D1*
X4348500Y3063910D1*
X4353330Y3060102D1*
X4357846Y3055927D1*
X4362021Y3051411D1*
X4365828Y3046581D1*
X4369245Y3041468D1*
X4372250Y3036102D1*
X4374825Y3030516D1*
X4376954Y3024746D1*
X4378623Y3018827D1*
X4379823Y3012795D1*
X4380546Y3006687D1*
X4380787Y3000542D1*
X4380546Y2994397D1*
X4379823Y2988289D1*
X4378623Y2982257D1*
X4376954Y2976338D1*
X4374825Y2970568D1*
X4372250Y2964982D1*
X4369245Y2959616D1*
X4365828Y2954503D1*
X4362021Y2949673D1*
X4357846Y2945157D1*
X4353330Y2940982D1*
X4348500Y2937174D1*
X4343386Y2933757D1*
X4337606Y2930561D1*
X4337598Y2818214D1*
X4372295Y2783550D1*
X4418326Y2783502D1*
X4423704Y2782432D1*
X4428684Y2780136D1*
X4432991Y2776741D1*
X4436386Y2772435D1*
X4438681Y2767455D1*
X4439180Y2765685D1*
X4443514Y2767944D1*
X4450970Y2775298D1*
X4455529Y2778345D1*
X4460674Y2780243D1*
X4466119Y2780887D1*
X4494963Y2780815D1*
X4500341Y2779745D1*
X4505321Y2777450D1*
X4509627Y2774055D1*
X4528948Y2754953D1*
X4542918Y2768923D1*
X4542913Y2800631D1*
X4517015Y2826707D1*
X4513774Y2831168D1*
X4511270Y2836081D1*
X4509567Y2841325D1*
X4508704Y2846771D1*
X4508596Y2904646D1*
X4508704Y3359636D1*
X4509567Y3365082D1*
X4511270Y3370326D1*
X4513774Y3375239D1*
X4517015Y3379699D1*
X4542916Y3405755D1*
X4542913Y3418505D1*
X4528724Y3432445D1*
X4508282Y3412105D1*
X4503723Y3409058D1*
X4498578Y3407160D1*
X4493133Y3406516D1*
X4464289Y3406588D1*
X4458911Y3407657D1*
X4453931Y3409953D1*
X4449625Y3413348D1*
X4439551Y3423421D1*
X4438047Y3418229D1*
X4435368Y3413445D1*
X4431646Y3409418D1*
X4427086Y3406372D1*
X4421942Y3404474D1*
X4416496Y3403829D1*
X4407310D1*
X4734877Y3731897D2*
X4734154Y3725789D1*
X4732954Y3719757D1*
X4731285Y3713838D1*
X4729156Y3708068D1*
X4726581Y3702482D1*
X4723576Y3697116D1*
X4720159Y3692003D1*
X4716351Y3687173D1*
X4712177Y3682657D1*
X4707661Y3678482D1*
X4702831Y3674674D1*
X4697717Y3671257D1*
X4692351Y3668252D1*
X4686766Y3665677D1*
X4680996Y3663549D1*
X4675076Y3661879D1*
X4669044Y3660680D1*
X4662937Y3659957D1*
X4656791Y3659715D1*
X4650646Y3659957D1*
X4644538Y3660680D1*
X4638506Y3661879D1*
X4632587Y3663549D1*
X4626817Y3665677D1*
X4621232Y3668252D1*
X4615866Y3671257D1*
X4610752Y3674674D1*
X4605922Y3678482D1*
X4601406Y3682657D1*
X4597231Y3687173D1*
X4593424Y3692003D1*
X4590007Y3697116D1*
X4587002Y3702482D1*
X4584427Y3708068D1*
X4582298Y3713838D1*
X4580629Y3719757D1*
X4579429Y3725789D1*
X4578706Y3731897D1*
X4578465Y3738042D1*
X4578706Y3744187D1*
X4579429Y3750295D1*
X4580629Y3756327D1*
X4582298Y3762246D1*
X4584427Y3768016D1*
X4587002Y3773602D1*
X4590007Y3778968D1*
X4593424Y3784081D1*
X4597231Y3788911D1*
X4601406Y3793427D1*
X4605922Y3797602D1*
X4610752Y3801410D1*
X4615866Y3804827D1*
X4621232Y3807832D1*
X4626817Y3810406D1*
X4632587Y3812535D1*
X4638506Y3814205D1*
X4644538Y3815404D1*
X4650646Y3816127D1*
X4656791Y3816369D1*
X4662937Y3816127D1*
X4669044Y3815404D1*
X4675076Y3814205D1*
X4680996Y3812535D1*
X4686766Y3810406D1*
X4692351Y3807832D1*
X4697717Y3804827D1*
X4702831Y3801410D1*
X4707661Y3797602D1*
X4712177Y3793427D1*
X4716351Y3788911D1*
X4720159Y3784081D1*
X4723576Y3778968D1*
X4726581Y3773602D1*
X4729156Y3768016D1*
X4731285Y3762246D1*
X4732954Y3756327D1*
X4734154Y3750295D1*
X4734877Y3744187D1*
X4735118Y3738042D1*
X4734877Y3731897D1*
X4407310Y2666329D2*
X4372251D1*
X4337613Y2631672D1*
X4337598Y2333050D1*
X4343386Y2329827D1*
X4348500Y2326410D1*
X4353330Y2322602D1*
X4357846Y2318427D1*
X4362021Y2313911D1*
X4365828Y2309081D1*
X4369245Y2303968D1*
X4372250Y2298602D1*
X4374825Y2293016D1*
X4376954Y2287246D1*
X4378623Y2281327D1*
X4379823Y2275295D1*
X4380546Y2269187D1*
X4380787Y2263042D1*
X4380546Y2256897D1*
X4379823Y2250789D1*
X4378623Y2244757D1*
X4376954Y2238838D1*
X4374825Y2233068D1*
X4372250Y2227482D1*
X4369245Y2222116D1*
X4365828Y2217003D1*
X4362021Y2212173D1*
X4357846Y2207657D1*
X4353330Y2203482D1*
X4348500Y2199674D1*
X4343386Y2196257D1*
X4337606Y2193061D1*
X4337599Y2080714D1*
X4372295Y2046050D1*
X4418326Y2046002D1*
X4423704Y2044932D1*
X4428684Y2042636D1*
X4432991Y2039241D1*
X4436386Y2034935D1*
X4438681Y2029955D1*
X4439180Y2028185D1*
X4443514Y2030444D1*
X4450970Y2037798D1*
X4455529Y2040845D1*
X4460674Y2042743D1*
X4466119Y2043387D1*
X4494963Y2043315D1*
X4500341Y2042246D1*
X4505321Y2039950D1*
X4509627Y2036555D1*
X4528948Y2017453D1*
X4542918Y2031423D1*
X4542913Y2063131D1*
X4517015Y2089207D1*
X4513774Y2093668D1*
X4511270Y2098581D1*
X4509567Y2103825D1*
X4508704Y2109271D1*
X4508596Y2167146D1*
X4508704Y2539370D1*
X4509566Y2544816D1*
X4511270Y2550060D1*
X4513773Y2554973D1*
X4517014Y2559434D1*
X4542916Y2585490D1*
X4542913Y2680990D1*
X4528729Y2694950D1*
X4508282Y2674605D1*
X4503723Y2671558D1*
X4498578Y2669660D1*
X4493133Y2669016D1*
X4464289Y2669087D1*
X4458911Y2670157D1*
X4453931Y2672453D1*
X4449625Y2675848D1*
X4439551Y2685921D1*
X4438047Y2680729D1*
X4435368Y2675945D1*
X4431646Y2671918D1*
X4427086Y2668872D1*
X4421942Y2666974D1*
X4416496Y2666329D1*
X4407310D1*
X4439180Y1946718D2*
X4437281Y1941566D1*
X4434234Y1937007D1*
X4430207Y1933284D1*
X4425423Y1930605D1*
X4420145Y1929116D1*
X4416317Y1928829D1*
X4416339Y1852204D1*
X4418918Y1848522D1*
X4421421Y1843609D1*
X4423124Y1838365D1*
X4423987Y1832919D1*
X4424094Y1775047D1*
X4423986Y1603032D1*
X4423124Y1597586D1*
X4421420Y1592342D1*
X4418917Y1587429D1*
X4415676Y1582969D1*
X4376782Y1543922D1*
X4378623Y1537578D1*
X4379823Y1531546D1*
X4380546Y1525438D1*
X4380787Y1519293D1*
X4380546Y1513147D1*
X4379823Y1507040D1*
X4378623Y1501008D1*
X4376954Y1495088D1*
X4374825Y1489318D1*
X4372250Y1483733D1*
X4369245Y1478367D1*
X4365828Y1473253D1*
X4362021Y1468423D1*
X4357846Y1463907D1*
X4353330Y1459733D1*
X4348500Y1455925D1*
X4343386Y1452508D1*
X4337606Y1449312D1*
X4337599Y1411676D1*
X4407920Y1341190D1*
X4411161Y1336730D1*
X4413664Y1331817D1*
X4415368Y1326573D1*
X4416230Y1321127D1*
X4416339Y1302330D1*
X4421942Y1301680D1*
X4427086Y1299782D1*
X4431646Y1296735D1*
X4435368Y1292709D1*
X4438047Y1287924D1*
X4439180Y1284436D1*
X4443514Y1286695D1*
X4450970Y1294049D1*
X4455529Y1297095D1*
X4460674Y1298993D1*
X4466119Y1299638D1*
X4494963Y1299566D1*
X4500341Y1298496D1*
X4505321Y1296200D1*
X4509627Y1292806D1*
X4528953Y1273708D1*
X4542918Y1287673D1*
X4542913Y1319382D1*
X4517014Y1345455D1*
X4513774Y1349916D1*
X4511270Y1354829D1*
X4509567Y1360073D1*
X4508704Y1365519D1*
X4508596Y1423394D1*
X4508704Y1884737D1*
X4509566Y1890182D1*
X4511270Y1895426D1*
X4513773Y1900339D1*
X4517014Y1904800D1*
X4542916Y1930856D1*
X4542913Y1943464D1*
X4528729Y1957450D1*
X4508282Y1937105D1*
X4503723Y1934058D1*
X4498578Y1932160D1*
X4493133Y1931516D1*
X4464289Y1931588D1*
X4458911Y1932657D1*
X4453931Y1934953D1*
X4449620Y1938353D1*
X4439551Y1948421D1*
X4407310Y1185080D2*
X4372251D1*
X4337613Y1150422D1*
X4337599Y851801D1*
X4343386Y848576D1*
X4348500Y845159D1*
X4353330Y841351D1*
X4357846Y837177D1*
X4362021Y832661D1*
X4365828Y827831D1*
X4369245Y822717D1*
X4372250Y817351D1*
X4374825Y811766D1*
X4376954Y805996D1*
X4378623Y800076D1*
X4379823Y794044D1*
X4380546Y787937D1*
X4380787Y781791D1*
X4380546Y775646D1*
X4379823Y769538D1*
X4378623Y763506D1*
X4376954Y757587D1*
X4374825Y751817D1*
X4372250Y746232D1*
X4369245Y740866D1*
X4365828Y735752D1*
X4362021Y730922D1*
X4357846Y726406D1*
X4353330Y722231D1*
X4348500Y718424D1*
X4343386Y715007D1*
X4337606Y711811D1*
X4337599Y599464D1*
X4372295Y564799D1*
X4418326Y564751D1*
X4423704Y563681D1*
X4428684Y561385D1*
X4432991Y557991D1*
X4436385Y553684D1*
X4438681Y548704D1*
X4439180Y546935D1*
X4443514Y549193D1*
X4450970Y556548D1*
X4455529Y559594D1*
X4460674Y561492D1*
X4466119Y562137D1*
X4494963Y562065D1*
X4500341Y560995D1*
X4505321Y558699D1*
X4509627Y555304D1*
X4528948Y536202D1*
X4542918Y550172D1*
X4542913Y581881D1*
X4517015Y607955D1*
X4513774Y612416D1*
X4511270Y617329D1*
X4509567Y622573D1*
X4508704Y628019D1*
X4508596Y685894D1*
X4508704Y1099426D1*
X4509566Y1104871D1*
X4511270Y1110115D1*
X4513773Y1115028D1*
X4517014Y1119489D1*
X4542916Y1145545D1*
X4542913Y1199706D1*
X4528730Y1213701D1*
X4508282Y1193355D1*
X4503723Y1190309D1*
X4498578Y1188411D1*
X4493133Y1187766D1*
X4464289Y1187838D1*
X4458911Y1188908D1*
X4453931Y1191204D1*
X4449620Y1194604D1*
X4439551Y1204672D1*
X4438047Y1199480D1*
X4435368Y1194696D1*
X4431646Y1190669D1*
X4427086Y1187622D1*
X4421942Y1185725D1*
X4416496Y1185080D1*
X4407310D1*
X865916Y3044538D2*
X821994D1*
X803202Y3025753D1*
X803200Y2958542D1*
X843149Y2958514D1*
X865916Y2981258D1*
X865899Y3044519D1*
X782038Y3084477D2*
Y3129619D1*
X771970Y3119521D1*
X771949Y3074396D1*
X782051Y3084500D1*
X988075Y3155365D2*
X1089716D1*
Y3044538D1*
X978889D1*
Y3155365D1*
X988075D1*
Y2958514D2*
X1089716D1*
Y2847687D1*
X978889D1*
Y2958514D1*
X988075D1*
X843165Y2847688D2*
X803190D1*
X803113Y2426624D1*
X802419Y2422245D1*
X801049Y2418030D1*
X799037Y2414080D1*
X797799Y2412229D1*
X800411Y2411614D1*
X865899D1*
Y2824965D1*
X843179Y2847681D1*
X988075Y2411614D2*
X1089715D1*
Y2300787D1*
X978888D1*
Y2411614D1*
X988075D1*
Y2214764D2*
X1089715D1*
Y2194489D1*
X1323636Y2194492D1*
X1329316Y2197959D1*
X1335597Y2200561D1*
X1342208Y2202148D1*
X1348986Y2202681D1*
X1355763Y2202148D1*
X1362374Y2200561D1*
X1368656Y2197959D1*
X1374452Y2194406D1*
X1379622Y2189991D1*
X1384038Y2184821D1*
X1387590Y2179024D1*
X1390192Y2172743D1*
X1391779Y2166132D1*
X1392312Y2159354D1*
X1391779Y2152577D1*
X1390192Y2145966D1*
X1387590Y2139684D1*
X1384038Y2133887D1*
X1379622Y2128718D1*
X1374452Y2124302D1*
X1368656Y2120750D1*
X1362374Y2118148D1*
X1355763Y2116561D1*
X1348986Y2116028D1*
X1342208Y2116561D1*
X1335597Y2118148D1*
X1329316Y2120750D1*
X1323640Y2124221D1*
X1089723Y2124213D1*
X1089715Y2103937D1*
X978888D1*
Y2214764D1*
X988075D1*
X802329Y2103937D2*
X799530D1*
X799509Y1849628D1*
X802317Y1854085D1*
X802314Y2103928D1*
X831738Y1674114D2*
X865899D1*
Y1750584D1*
X830543Y1785954D1*
X824061Y1787534D1*
X817780Y1790136D1*
X811983Y1793688D1*
X806813Y1798104D1*
X802398Y1803273D1*
X799515Y1807876D1*
X799509Y1706306D1*
X831719Y1674126D1*
X988075Y1674114D2*
X1089715D1*
Y1563287D1*
X978889D1*
Y1674114D1*
X988075D1*
Y1477264D2*
X1089715D1*
Y1416153D1*
X1199185Y1306507D1*
X1202426Y1302046D1*
X1204929Y1297133D1*
X1206633Y1291889D1*
X1207495Y1286443D1*
X1207604Y1228568D1*
X1207495Y919960D1*
X1206633Y914514D1*
X1204929Y909270D1*
X1202426Y904357D1*
X1199185Y899896D1*
X1158338Y858896D1*
X1114821Y815380D1*
X1118549Y803562D1*
X1119901Y796763D1*
X1120716Y789878D1*
X1120988Y782951D1*
X1120716Y776024D1*
X1119901Y769140D1*
X1118549Y762341D1*
X1116667Y755669D1*
X1114268Y749165D1*
X1111365Y742870D1*
X1107978Y736821D1*
X1104127Y731057D1*
X1099835Y725613D1*
X1095129Y720523D1*
X1090039Y715817D1*
X1084595Y711525D1*
X1078831Y707674D1*
X1072782Y704287D1*
X1066487Y701385D1*
X1059983Y698985D1*
X1053311Y697103D1*
X1046512Y695751D1*
X1039628Y694936D1*
X1032701Y694664D1*
X1025774Y694936D1*
X1018890Y695751D1*
X1012091Y697103D1*
X1005418Y698985D1*
X998915Y701385D1*
X992619Y704287D1*
X986571Y707674D1*
X980807Y711525D1*
X975363Y715817D1*
X970272Y720523D1*
X965567Y725613D1*
X961275Y731057D1*
X957423Y736821D1*
X954036Y742870D1*
X951134Y749165D1*
X948734Y755669D1*
X946853Y762341D1*
X945500Y769140D1*
X944686Y776024D1*
X944413Y782951D1*
X944686Y789878D1*
X945500Y796763D1*
X946853Y803562D1*
X948734Y810234D1*
X951134Y816738D1*
X954036Y823033D1*
X957423Y829081D1*
X961275Y834845D1*
X965567Y840290D1*
X970272Y845380D1*
X975363Y850086D1*
X980807Y854377D1*
X986571Y858229D1*
X992619Y861616D1*
X998915Y864518D1*
X1005418Y866918D1*
X1012091Y868799D1*
X1018890Y870152D1*
X1025774Y870967D1*
X1032701Y871239D1*
X1039628Y870967D1*
X1046512Y870152D1*
X1053311Y868799D1*
X1059983Y866918D1*
X1065090Y865034D1*
X1137338Y937281D1*
X1137328Y1269107D1*
X1040009Y1366451D1*
X978889Y1366437D1*
Y1477264D1*
X988075D1*
X930716Y591024D2*
X929901Y584140D1*
X928549Y577341D1*
X926667Y570669D1*
X924268Y564165D1*
X921365Y557870D1*
X917978Y551821D1*
X914127Y546057D1*
X909835Y540613D1*
X905129Y535523D1*
X900039Y530817D1*
X894595Y526525D1*
X888831Y522674D1*
X882782Y519287D1*
X876487Y516385D1*
X869983Y513985D1*
X863311Y512103D1*
X856512Y510751D1*
X849628Y509936D1*
X842701Y509664D1*
X835774Y509936D1*
X828890Y510751D1*
X822091Y512103D1*
X815418Y513985D1*
X808915Y516385D1*
X802619Y519287D1*
X796571Y522674D1*
X790807Y526525D1*
X785363Y530817D1*
X780272Y535523D1*
X775567Y540613D1*
X771275Y546057D1*
X767423Y551821D1*
X764036Y557870D1*
X761134Y564165D1*
X758734Y570669D1*
X756853Y577341D1*
X755500Y584140D1*
X754686Y591024D1*
X754413Y597951D1*
X754686Y604878D1*
X755500Y611763D1*
X756853Y618562D1*
X758734Y625234D1*
X761134Y631738D1*
X764036Y638033D1*
X767423Y644081D1*
X771275Y649845D1*
X775567Y655290D1*
X780272Y660380D1*
X785363Y665086D1*
X790807Y669377D1*
X796571Y673229D1*
X802619Y676616D1*
X808915Y679518D1*
X815418Y681918D1*
X822091Y683799D1*
X828890Y685152D1*
X835774Y685967D1*
X842701Y686239D1*
X849628Y685967D1*
X856512Y685152D1*
X863311Y683799D1*
X869983Y681918D1*
X876487Y679518D1*
X882782Y676616D1*
X888831Y673229D1*
X894595Y669377D1*
X900039Y665086D1*
X905129Y660380D1*
X909835Y655290D1*
X914127Y649845D1*
X917978Y644081D1*
X921365Y638033D1*
X924268Y631738D1*
X926667Y625234D1*
X928549Y618562D1*
X929901Y611763D1*
X930716Y604878D1*
X930988Y597951D1*
X930716Y591024D1*
Y961024D2*
X929901Y954140D1*
X928549Y947341D1*
X926667Y940669D1*
X924268Y934165D1*
X921365Y927870D1*
X917978Y921821D1*
X914127Y916057D1*
X909835Y910613D1*
X905129Y905523D1*
X900039Y900817D1*
X894595Y896525D1*
X888831Y892674D1*
X882782Y889287D1*
X876487Y886385D1*
X869983Y883985D1*
X863311Y882103D1*
X856512Y880751D1*
X849628Y879936D1*
X842701Y879664D1*
X835774Y879936D1*
X828890Y880751D1*
X822091Y882103D1*
X815418Y883985D1*
X808915Y886385D1*
X802619Y889287D1*
X796571Y892674D1*
X790807Y896525D1*
X785363Y900817D1*
X780272Y905523D1*
X775567Y910613D1*
X771275Y916057D1*
X767423Y921821D1*
X764036Y927870D1*
X761134Y934165D1*
X758734Y940669D1*
X756853Y947341D1*
X755500Y954140D1*
X754686Y961024D1*
X754413Y967951D1*
X754686Y974878D1*
X755500Y981763D1*
X756853Y988562D1*
X758734Y995234D1*
X761134Y1001738D1*
X764036Y1008033D1*
X767423Y1014081D1*
X771275Y1019845D1*
X775567Y1025290D1*
X780272Y1030380D1*
X785363Y1035086D1*
X790807Y1039377D1*
X796571Y1043229D1*
X802619Y1046616D1*
X808915Y1049518D1*
X815418Y1051918D1*
X822091Y1053799D1*
X828890Y1055152D1*
X835774Y1055967D1*
X842701Y1056239D1*
X849628Y1055967D1*
X856512Y1055152D1*
X863311Y1053799D1*
X869983Y1051918D1*
X876487Y1049518D1*
X882782Y1046616D1*
X888831Y1043229D1*
X894595Y1039377D1*
X900039Y1035086D1*
X905129Y1030380D1*
X909835Y1025290D1*
X914127Y1019845D1*
X917978Y1014081D1*
X921365Y1008033D1*
X924268Y1001738D1*
X926667Y995234D1*
X928549Y988562D1*
X929901Y981763D1*
X930716Y974878D1*
X930988Y967951D1*
X930716Y961024D1*
X1120716D2*
X1119901Y954140D1*
X1118549Y947341D1*
X1116667Y940669D1*
X1114268Y934165D1*
X1111365Y927870D1*
X1107978Y921821D1*
X1104127Y916057D1*
X1099835Y910613D1*
X1095129Y905523D1*
X1090039Y900817D1*
X1084595Y896525D1*
X1078831Y892674D1*
X1072782Y889287D1*
X1066487Y886385D1*
X1059983Y883985D1*
X1053311Y882103D1*
X1046512Y880751D1*
X1039628Y879936D1*
X1032701Y879664D1*
X1025774Y879936D1*
X1018890Y880751D1*
X1012091Y882103D1*
X1005418Y883985D1*
X998915Y886385D1*
X992619Y889287D1*
X986571Y892674D1*
X980807Y896525D1*
X975363Y900817D1*
X970272Y905523D1*
X965567Y910613D1*
X961275Y916057D1*
X957423Y921821D1*
X954036Y927870D1*
X951134Y934165D1*
X948734Y940669D1*
X946853Y947341D1*
X945500Y954140D1*
X944686Y961024D1*
X944413Y967951D1*
X944686Y974878D1*
X945500Y981763D1*
X946853Y988562D1*
X948734Y995234D1*
X951134Y1001738D1*
X954036Y1008033D1*
X957423Y1014081D1*
X961275Y1019845D1*
X965567Y1025290D1*
X970272Y1030380D1*
X975363Y1035086D1*
X980807Y1039377D1*
X986571Y1043229D1*
X992619Y1046616D1*
X998915Y1049518D1*
X1005418Y1051918D1*
X1012091Y1053799D1*
X1018890Y1055152D1*
X1025774Y1055967D1*
X1032701Y1056239D1*
X1039628Y1055967D1*
X1046512Y1055152D1*
X1053311Y1053799D1*
X1059983Y1051918D1*
X1066487Y1049518D1*
X1072782Y1046616D1*
X1078831Y1043229D1*
X1084595Y1039377D1*
X1090039Y1035086D1*
X1095129Y1030380D1*
X1099835Y1025290D1*
X1104127Y1019845D1*
X1107978Y1014081D1*
X1111365Y1008033D1*
X1114268Y1001738D1*
X1116667Y995234D1*
X1118549Y988562D1*
X1119901Y981763D1*
X1120716Y974878D1*
X1120988Y967951D1*
X1120716Y961024D1*
Y591024D2*
X1119901Y584140D1*
X1118549Y577341D1*
X1116667Y570669D1*
X1114268Y564165D1*
X1111365Y557870D1*
X1107978Y551821D1*
X1104127Y546057D1*
X1099835Y540613D1*
X1095129Y535523D1*
X1090039Y530817D1*
X1084595Y526525D1*
X1078831Y522674D1*
X1072782Y519287D1*
X1066487Y516385D1*
X1059983Y513985D1*
X1053311Y512103D1*
X1046512Y510751D1*
X1039628Y509936D1*
X1032701Y509664D1*
X1025774Y509936D1*
X1018890Y510751D1*
X1012091Y512103D1*
X1005418Y513985D1*
X998915Y516385D1*
X992619Y519287D1*
X986571Y522674D1*
X980807Y526525D1*
X975363Y530817D1*
X970272Y535523D1*
X965567Y540613D1*
X961275Y546057D1*
X957423Y551821D1*
X954036Y557870D1*
X951134Y564165D1*
X948734Y570669D1*
X946853Y577341D1*
X945500Y584140D1*
X944686Y591024D1*
X944413Y597951D1*
X944686Y604878D1*
X945500Y611763D1*
X946853Y618562D1*
X948734Y625234D1*
X951134Y631738D1*
X954036Y638033D1*
X957423Y644081D1*
X961275Y649845D1*
X965567Y655290D1*
X970272Y660380D1*
X975363Y665086D1*
X980807Y669377D1*
X986571Y673229D1*
X992619Y676616D1*
X998915Y679518D1*
X1005418Y681918D1*
X1012091Y683799D1*
X1018890Y685152D1*
X1025774Y685967D1*
X1032701Y686239D1*
X1039628Y685967D1*
X1046512Y685152D1*
X1053311Y683799D1*
X1059983Y681918D1*
X1066487Y679518D1*
X1072782Y676616D1*
X1078831Y673229D1*
X1084595Y669377D1*
X1090039Y665086D1*
X1095129Y660380D1*
X1099835Y655290D1*
X1104127Y649845D1*
X1107978Y644081D1*
X1111365Y638033D1*
X1114268Y631738D1*
X1116667Y625234D1*
X1118549Y618562D1*
X1119901Y611763D1*
X1120716Y604878D1*
X1120988Y597951D1*
X1120716Y591024D1*
X791225Y3696014D2*
X892865D1*
Y3585187D1*
X782038D1*
Y3696014D1*
X791225D1*
X704754Y3293179D2*
X703957Y3286448D1*
X702635Y3279801D1*
X700795Y3273277D1*
X698449Y3266919D1*
X695611Y3260763D1*
X692300Y3254850D1*
X688534Y3249214D1*
X684338Y3243892D1*
X679737Y3238915D1*
X674760Y3234314D1*
X669438Y3230118D1*
X663802Y3226352D1*
X657889Y3223041D1*
X651734Y3220203D1*
X645375Y3217857D1*
X638852Y3216018D1*
X632204Y3214695D1*
X625473Y3213899D1*
X618701Y3213633D1*
X611928Y3213899D1*
X605198Y3214695D1*
X598550Y3216018D1*
X592027Y3217857D1*
X585668Y3220203D1*
X579513Y3223041D1*
X573599Y3226352D1*
X567964Y3230118D1*
X562641Y3234314D1*
X557664Y3238915D1*
X553063Y3243892D1*
X548867Y3249214D1*
X545102Y3254850D1*
X541790Y3260763D1*
X538953Y3266919D1*
X536607Y3273277D1*
X534767Y3279801D1*
X533445Y3286448D1*
X532648Y3293179D1*
X532382Y3299951D1*
X532648Y3306724D1*
X533445Y3313455D1*
X534767Y3320102D1*
X536607Y3326625D1*
X538953Y3332984D1*
X541790Y3339139D1*
X545102Y3345053D1*
X548867Y3350688D1*
X553063Y3356011D1*
X557664Y3360988D1*
X562641Y3365589D1*
X567964Y3369785D1*
X573599Y3373550D1*
X579513Y3376862D1*
X585668Y3379700D1*
X592027Y3382046D1*
X598550Y3383885D1*
X605198Y3385208D1*
X611928Y3386004D1*
X618701Y3386270D1*
X625473Y3386004D1*
X632204Y3385208D1*
X638852Y3383885D1*
X645375Y3382046D1*
X651734Y3379700D1*
X657889Y3376862D1*
X663802Y3373550D1*
X669438Y3369785D1*
X674760Y3365589D1*
X679737Y3360988D1*
X684338Y3356011D1*
X688534Y3350688D1*
X692300Y3345053D1*
X695611Y3339139D1*
X698449Y3332984D1*
X700795Y3326625D1*
X702635Y3320102D1*
X703957Y3313455D1*
X704754Y3306724D1*
X705020Y3299951D1*
X704754Y3293179D1*
Y1293179D2*
X703957Y1286448D1*
X702635Y1279801D1*
X700795Y1273277D1*
X698449Y1266919D1*
X695611Y1260763D1*
X692300Y1254850D1*
X688534Y1249214D1*
X684338Y1243892D1*
X679737Y1238915D1*
X674760Y1234314D1*
X669438Y1230118D1*
X663802Y1226352D1*
X657889Y1223041D1*
X651734Y1220203D1*
X645375Y1217857D1*
X638852Y1216018D1*
X632204Y1214695D1*
X625473Y1213899D1*
X618701Y1213633D1*
X611928Y1213899D1*
X605198Y1214695D1*
X598550Y1216018D1*
X592027Y1217857D1*
X585668Y1220203D1*
X579513Y1223041D1*
X573599Y1226352D1*
X567964Y1230118D1*
X562641Y1234314D1*
X557664Y1238915D1*
X553063Y1243892D1*
X548867Y1249214D1*
X545102Y1254850D1*
X541790Y1260763D1*
X538953Y1266919D1*
X536607Y1273277D1*
X534767Y1279801D1*
X533445Y1286448D1*
X532648Y1293179D1*
X532382Y1299951D1*
X532648Y1306724D1*
X533445Y1313455D1*
X534767Y1320102D1*
X536607Y1326625D1*
X538953Y1332984D1*
X541790Y1339139D1*
X545102Y1345053D1*
X548867Y1350688D1*
X553063Y1356011D1*
X557664Y1360988D1*
X562641Y1365589D1*
X567964Y1369785D1*
X573599Y1373550D1*
X579513Y1376862D1*
X585668Y1379700D1*
X592027Y1382046D1*
X598550Y1383885D1*
X605198Y1385208D1*
X611928Y1386004D1*
X618701Y1386270D1*
X625473Y1386004D1*
X632204Y1385208D1*
X638852Y1383885D1*
X645375Y1382046D1*
X651734Y1379700D1*
X657889Y1376862D1*
X663802Y1373550D1*
X669438Y1369785D1*
X674760Y1365589D1*
X679737Y1360988D1*
X684338Y1356011D1*
X688534Y1350688D1*
X692300Y1345053D1*
X695611Y1339139D1*
X698449Y1332984D1*
X700795Y1326625D1*
X702635Y1320102D1*
X703957Y1313455D1*
X704754Y1306724D1*
X705020Y1299951D1*
X704754Y1293179D1*
X4104754D2*
X4103957Y1286448D1*
X4102635Y1279801D1*
X4100795Y1273277D1*
X4098449Y1266919D1*
X4095611Y1260763D1*
X4092300Y1254850D1*
X4088534Y1249214D1*
X4084338Y1243892D1*
X4079737Y1238915D1*
X4074760Y1234314D1*
X4069438Y1230118D1*
X4063802Y1226352D1*
X4057889Y1223041D1*
X4051734Y1220203D1*
X4045375Y1217857D1*
X4038852Y1216018D1*
X4032204Y1214695D1*
X4025473Y1213899D1*
X4018701Y1213633D1*
X4011928Y1213899D1*
X4005198Y1214695D1*
X3998550Y1216018D1*
X3992027Y1217857D1*
X3985668Y1220203D1*
X3979513Y1223041D1*
X3973599Y1226352D1*
X3967964Y1230118D1*
X3962641Y1234314D1*
X3957664Y1238915D1*
X3953063Y1243892D1*
X3948867Y1249214D1*
X3945102Y1254850D1*
X3941790Y1260763D1*
X3938953Y1266919D1*
X3936607Y1273277D1*
X3934767Y1279801D1*
X3933445Y1286448D1*
X3932648Y1293179D1*
X3932382Y1299951D1*
X3932648Y1306724D1*
X3933445Y1313455D1*
X3934767Y1320102D1*
X3936607Y1326625D1*
X3938953Y1332984D1*
X3941790Y1339139D1*
X3945102Y1345053D1*
X3948867Y1350688D1*
X3953063Y1356011D1*
X3957664Y1360988D1*
X3962641Y1365589D1*
X3967964Y1369785D1*
X3973599Y1373550D1*
X3979513Y1376862D1*
X3985668Y1379700D1*
X3992027Y1382046D1*
X3998550Y1383885D1*
X4005198Y1385208D1*
X4011928Y1386004D1*
X4018701Y1386270D1*
X4025473Y1386004D1*
X4032204Y1385208D1*
X4038852Y1383885D1*
X4045375Y1382046D1*
X4051734Y1379700D1*
X4057889Y1376862D1*
X4063802Y1373550D1*
X4069438Y1369785D1*
X4074760Y1365589D1*
X4079737Y1360988D1*
X4084338Y1356011D1*
X4088534Y1350688D1*
X4092300Y1345053D1*
X4095611Y1339139D1*
X4098449Y1332984D1*
X4100795Y1326625D1*
X4102635Y1320102D1*
X4103957Y1313455D1*
X4104754Y1306724D1*
X4105020Y1299951D1*
X4104754Y1293179D1*
Y3280679D2*
X4103957Y3273948D1*
X4102635Y3267301D1*
X4100795Y3260777D1*
X4098449Y3254419D1*
X4095611Y3248263D1*
X4092300Y3242350D1*
X4088534Y3236714D1*
X4084338Y3231392D1*
X4079737Y3226415D1*
X4074760Y3221814D1*
X4069438Y3217618D1*
X4063802Y3213852D1*
X4057889Y3210541D1*
X4051734Y3207703D1*
X4045375Y3205357D1*
X4038852Y3203518D1*
X4032204Y3202195D1*
X4025473Y3201399D1*
X4018701Y3201133D1*
X4011928Y3201399D1*
X4005198Y3202195D1*
X3998550Y3203518D1*
X3992027Y3205357D1*
X3985668Y3207703D1*
X3979513Y3210541D1*
X3973599Y3213852D1*
X3967964Y3217618D1*
X3962641Y3221814D1*
X3957664Y3226415D1*
X3953063Y3231392D1*
X3948867Y3236714D1*
X3945102Y3242350D1*
X3941790Y3248263D1*
X3938953Y3254419D1*
X3936607Y3260777D1*
X3934767Y3267301D1*
X3933445Y3273948D1*
X3932648Y3280679D1*
X3932382Y3287451D1*
X3932648Y3294224D1*
X3933445Y3300955D1*
X3934767Y3307602D1*
X3936607Y3314125D1*
X3938953Y3320484D1*
X3941790Y3326639D1*
X3945102Y3332553D1*
X3948867Y3338188D1*
X3953063Y3343511D1*
X3957664Y3348488D1*
X3962641Y3353089D1*
X3967964Y3357285D1*
X3973599Y3361050D1*
X3979513Y3364362D1*
X3985668Y3367200D1*
X3992027Y3369546D1*
X3998550Y3371385D1*
X4005198Y3372708D1*
X4011928Y3373504D1*
X4018701Y3373770D1*
X4025473Y3373504D1*
X4032204Y3372708D1*
X4038852Y3371385D1*
X4045375Y3369546D1*
X4051734Y3367200D1*
X4057889Y3364362D1*
X4063802Y3361050D1*
X4069438Y3357285D1*
X4074760Y3353089D1*
X4079737Y3348488D1*
X4084338Y3343511D1*
X4088534Y3338188D1*
X4092300Y3332553D1*
X4095611Y3326639D1*
X4098449Y3320484D1*
X4100795Y3314125D1*
X4102635Y3307602D1*
X4103957Y3300955D1*
X4104754Y3294224D1*
X4105020Y3287451D1*
X4104754Y3280679D1*
X1075421Y2471067D2*
X1069746Y2467596D1*
X1063465Y2464995D1*
X1056854Y2463407D1*
X1050076Y2462874D1*
X1043298Y2463407D1*
X1036687Y2464995D1*
X1030406Y2467596D1*
X1024609Y2471149D1*
X1019439Y2475564D1*
X1015024Y2480734D1*
X1011472Y2486531D1*
X1008870Y2492812D1*
X1007283Y2499423D1*
X1006749Y2506201D1*
X1007283Y2512979D1*
X1008870Y2519589D1*
X1011472Y2525871D1*
X1015024Y2531668D1*
X1019439Y2536837D1*
X1024609Y2541253D1*
X1030406Y2544805D1*
X1036687Y2547407D1*
X1043298Y2548994D1*
X1050076Y2549528D1*
X1056854Y2548994D1*
X1063465Y2547407D1*
X1069746Y2544805D1*
X1072332Y2543357D1*
X1072342Y2549633D1*
X1068876Y2555282D1*
X1066274Y2561563D1*
X1064687Y2568174D1*
X1064154Y2574951D1*
X1064687Y2581729D1*
X1066274Y2588340D1*
X1068876Y2594621D1*
X1072428Y2600418D1*
X1076844Y2605588D1*
X1082013Y2610004D1*
X1087810Y2613556D1*
X1094092Y2616158D1*
X1100703Y2617745D1*
X1107480Y2618278D1*
X1114258Y2617745D1*
X1120869Y2616158D1*
X1127150Y2613556D1*
X1132947Y2610004D1*
X1138117Y2605588D1*
X1142532Y2600418D1*
X1146085Y2594621D1*
X1148687Y2588340D1*
X1150274Y2581729D1*
X1150807Y2574951D1*
X1150274Y2568174D1*
X1148687Y2561563D1*
X1146085Y2555282D1*
X1142614Y2549606D1*
X1142510Y2523444D1*
X1141647Y2517998D1*
X1139944Y2512754D1*
X1137440Y2507841D1*
X1134199Y2503381D1*
X1112326Y2481355D1*
X1108134Y2477774D1*
X1103433Y2474893D1*
X1098338Y2472783D1*
X1092977Y2471496D1*
X1087480Y2471063D1*
X1075459D1*
X3813680Y2923027D2*
X3813679Y2675282D1*
X3814273Y2678496D1*
Y2923406D1*
X3807430Y1441776D2*
Y1206520D1*
X3808021Y1212757D1*
Y1442165D1*
X453202Y3858712D2*
X516941Y3922451D1*
X510204Y3922433D1*
X453193Y3865419D1*
X453199Y3858718D1*
D18*
X618701Y2974951D3*
D19*
Y2874951D3*
Y2774951D3*
Y2674951D3*
Y2574951D3*
Y2474951D3*
Y2374951D3*
Y2274951D3*
Y2174951D3*
Y2074951D3*
Y1974951D3*
Y1874951D3*
Y1774951D3*
Y1674951D3*
Y1574951D3*
D18*
X4018701Y2624951D3*
D19*
Y2524951D3*
Y2424951D3*
Y2324951D3*
Y2224951D3*
Y2124951D3*
Y2024951D3*
Y1924951D3*
D73*
X1937450Y2974951D3*
D19*
X2297293D3*
D74*
X2111121Y3184499D3*
Y2863534D3*
D73*
X1937450Y2237451D3*
D19*
X2297293D3*
D74*
X2111121Y2446999D3*
Y2126034D3*
D73*
X1349950Y1499951D3*
D19*
X1709793D3*
D74*
X1523621Y1709499D3*
Y1388534D3*
D73*
X3418699Y3712451D3*
D19*
X3778542D3*
D74*
X3592370Y3921999D3*
Y3601034D3*
D73*
X3418699Y2974951D3*
D19*
X3778542D3*
D74*
X3592370Y3184499D3*
Y2863534D3*
D26*
X2118701Y3931201D3*
Y3596557D3*
Y3478445D3*
D73*
X3412450Y2237451D3*
D19*
X3772293D3*
D74*
X3586121Y2446999D3*
Y2126034D3*
D73*
X3412450Y1493701D3*
D19*
X3772293D3*
D74*
X3586121Y1703248D3*
Y1382283D3*
D26*
X2706201Y3931201D3*
Y3596557D3*
Y3478445D3*
D73*
X3412450Y762451D3*
D19*
X3772293D3*
D74*
X3586121Y971999D3*
Y651034D3*
D73*
X1937450Y1499951D3*
D19*
X2297293D3*
D74*
X2111121Y1709499D3*
Y1388534D3*
D73*
X2531199Y1493701D3*
D19*
X2891042D3*
D74*
X2704870Y1703248D3*
Y1382283D3*
D73*
X2531199Y756201D3*
D19*
X2891042D3*
D74*
X2704870Y965748D3*
Y644783D3*
D73*
X2531199Y2974951D3*
D19*
X2891042D3*
D74*
X2704870Y3184499D3*
Y2863534D3*
D73*
X2531199Y2237451D3*
D19*
X2891042D3*
D74*
X2704870Y2446999D3*
Y2126034D3*
D77*
X4381201Y3462451D3*
D78*
X4479626D3*
X4578051D3*
D31*
X4656791Y3738042D3*
X4302461D3*
D77*
X4381201Y2724951D3*
D78*
X4479626D3*
X4578051D3*
D31*
X4656791Y3000542D3*
X4302461D3*
D77*
X4381201Y1987451D3*
D78*
X4479626D3*
X4578051D3*
D31*
X4656791Y2263042D3*
X4302461D3*
D77*
X4381201Y1243702D3*
D78*
X4479626D3*
X4578051D3*
D31*
X4656791Y1519293D3*
X4302461D3*
D77*
X4381201Y506201D3*
D78*
X4479626D3*
X4578051D3*
D31*
X4656791Y781791D3*
X4302461D3*
D77*
X2018701Y506201D3*
D78*
X2117126D3*
X2215551D3*
D31*
X2294291Y781791D3*
X1939961D3*
D32*
X837451Y3099951D3*
X1034302D3*
Y2903101D3*
X837451D3*
Y2356201D3*
X1034302D3*
Y2159350D3*
X837451D3*
Y1618701D3*
X1034302D3*
Y1421850D3*
X837451D3*
D34*
X842701Y597951D3*
Y782951D3*
Y967951D3*
X1032701D3*
Y782951D3*
Y597951D3*
D32*
X837451Y3837451D3*
X1034302D3*
Y3640601D3*
X837451D3*
M02*
