M48
INCH
T01C0.0157
T02C0.0191
T03C0.0335
T04C0.0394
T05C0.0433
T06C0.0827
T07C0.0866
T08C0.126
%
T01
X+015437Y+025478G85X+015437Y+026147
X+017529Y+024698G85X+016820Y+024698
X+017509Y+027908G85X+016840Y+027908
X+021375Y+025478G85X+021375Y+026147
X+023466Y+024698G85X+022757Y+024698
X+023446Y+027908G85X+022777Y+027908
X+023446Y+020533G85X+022777Y+020533
X+021375Y+018103G85X+021375Y+018772
X+023466Y+017323G85X+022757Y+017323
X+023446Y+013095G85X+022777Y+013095
X+021375Y+010665G85X+021375Y+011335
X+023466Y+009886G85X+022757Y+009886
X+023446Y+005720G85X+022777Y+005720
X+021375Y+003290G85X+021375Y+003960
X+023466Y+002511G85X+022757Y+002511
X+030187Y+003353G85X+030187Y+004022
X+032279Y+002573G85X+031570Y+002573
X+032259Y+005783G85X+031590Y+005783
X+032279Y+009886G85X+031570Y+009886
X+030187Y+010665G85X+030187Y+011335
X+032259Y+013095G85X+031590Y+013095
X+032279Y+017323G85X+031570Y+017323
X+030187Y+018103G85X+030187Y+018772
X+032259Y+020533G85X+031590Y+020533
X+032341Y+024698G85X+031632Y+024698
X+030250Y+025478G85X+030250Y+026147
X+032321Y+027908G85X+031652Y+027908
X+032341Y+032073G85X+031632Y+032073
X+030250Y+032853G85X+030250Y+033522
X+032321Y+035283G85X+031652Y+035283
X+017509Y+020533G85X+016840Y+020533
X+015437Y+018103G85X+015437Y+018772
X+017529Y+017323G85X+016820Y+017323
X+017509Y+013158G85X+016840Y+013158
X+015437Y+010728G85X+015437Y+011397
X+017529Y+009948G85X+016820Y+009948
X+011654Y+009948G85X+010945Y+009948
X+009562Y+010728G85X+009562Y+011397
X+011634Y+013158G85X+010965Y+013158
T02
X+011571Y+014509
X+011149Y+013935
X+009186Y+015482
X+009553Y+017657
X+005588Y+018374
X+006564Y+021125
X+007138Y+021813
X+009727Y+023673
X+012350Y+027698
X+009038Y+032965
X+009038Y+034622
X+004437Y+014350
X+009562Y+004544
X+019745Y+015890
X+030187Y+014567
X+032397Y+015633
X+033502Y+015075
X+033786Y+007875
X+033848Y+022562
X+033848Y+030000
T03
X+002250Y+025813
X+002250Y+024813
X+002250Y+023813
X+002250Y+022813
X+002250Y+021813
X+002250Y+020813
X+002250Y+019813
X+002250Y+018813
X+002250Y+017813
X+002250Y+016813
X+002250Y+015813
X+002250Y+014813
X+002250Y+013813
X+002250Y+012813
X+002250Y+011813
X+036250Y+015313
X+036250Y+016313
X+036250Y+017313
X+036250Y+018313
X+036250Y+019313
X+036250Y+020313
X+036250Y+021313
X+036250Y+022313
T04
X+004438Y+027063
X+006406Y+027063
X+006406Y+025094
X+004438Y+025094
X+004438Y+019625
X+006406Y+019625
X+006406Y+017656
X+004438Y+017656
X+004438Y+012250
X+006406Y+012250
X+006406Y+010281
X+004438Y+010281
X+004438Y+032469
X+006406Y+032469
X+006406Y+034438
X+004438Y+034438
T05
X+019036Y+025813
X+017250Y+030847
X+017250Y+032029
X+017250Y+035375
X+023125Y+035375
X+023125Y+032029
X+023125Y+030847
X+024973Y+025813
X+024973Y+018438
X+019036Y+018438
X+019036Y+011063
X+013161Y+011063
X+016250Y+001125
X+017234Y+001125
X+018219Y+001125
X+024973Y+003625
X+024973Y+011000
X+033786Y+011000
X+039875Y+008500
X+040859Y+008500
X+041844Y+008500
X+041844Y+001125
X+040859Y+001125
X+039875Y+001125
X+033786Y+003688
X+039875Y+015938
X+040859Y+015938
X+041844Y+015938
X+041844Y+023313
X+040859Y+023313
X+039875Y+023313
X+033848Y+025813
X+033848Y+033188
X+039875Y+030688
X+040859Y+030688
X+041844Y+030688
X+033786Y+018438
T06
X+042631Y+033443
X+039088Y+033443
X+039088Y+026068
X+042631Y+026068
X+042631Y+018693
X+039088Y+018693
X+039088Y+011256
X+042631Y+011256
X+042631Y+003881
X+039088Y+003881
X+019006Y+003881
X+015463Y+003881
T07
X+004490Y+002043
X+004490Y+003893
X+004490Y+005743
X+006390Y+005743
X+006390Y+003893
X+006390Y+002043
T08
X+002250Y+029063
X+002250Y+009063
X+036250Y+009063
X+036250Y+028938
T00
M30
