G04 DipTrace 3.3.1.3*
G04 TopMask.gbr*
%MOIN*%
G04 #@! TF.FileFunction,Soldermask,Top*
G04 #@! TF.Part,Single*
%AMOUTLINE0*
4,1,20,
-0.038,0.037967,
-0.035719,0.050966,
-0.029131,0.0624,
-0.019029,0.070892,
-0.006631,0.075417,
0.006566,0.075428,
0.018971,0.070925,
0.029088,0.062451,
0.035697,0.051028,
0.038,0.038033,
0.038,-0.037967,
0.035719,-0.050966,
0.029131,-0.0624,
0.019029,-0.070892,
0.006631,-0.075417,
-0.006566,-0.075428,
-0.018971,-0.070925,
-0.029088,-0.062451,
-0.035697,-0.051028,
-0.038,-0.038033,
-0.038,0.037967,
0*%
%AMOUTLINE2*
4,1,20,
0.03831,0.041937,
0.05233,0.039477,
0.064967,0.032196,
0.074353,0.021031,
0.079354,0.007329,
0.079365,-0.007256,
0.074389,-0.020967,
0.065024,-0.032148,
0.052398,-0.039452,
0.038379,-0.041937,
-0.03831,-0.041937,
-0.05233,-0.039477,
-0.064967,-0.032196,
-0.074353,-0.021031,
-0.079354,-0.007329,
-0.079365,0.007256,
-0.074389,0.020967,
-0.065024,0.032148,
-0.052398,0.039452,
-0.038379,0.041937,
0.03831,0.041937,
0*%
%AMOUTLINE4*
4,1,4,
0.035295,0.035295,
0.035295,-0.035295,
-0.035295,-0.035295,
-0.035295,0.035295,
0.035295,0.035295,
0*%
%AMOUTLINE5*
4,1,8,
-0.013507,-0.032609,
-0.032609,-0.013507,
-0.032609,0.013507,
-0.013507,0.032609,
0.013507,0.032609,
0.032609,0.013507,
0.032609,-0.013507,
0.013507,-0.032609,
-0.013507,-0.032609,
0*%
%ADD17R,0.027559X0.035433*%
%ADD21R,0.023622X0.023622*%
%ADD26C,0.070591*%
%ADD29R,0.035433X0.027559*%
%ADD31C,0.11*%
%ADD32R,0.064173X0.064173*%
%ADD34C,0.129921*%
%ADD37C,0.125984*%
%ADD55R,0.033465X0.049213*%
%ADD59R,0.070866X0.07874*%
%ADD61R,0.031496X0.031496*%
%ADD63C,0.086614*%
%ADD65R,0.086614X0.086614*%
%ADD67R,0.035433X0.043307*%
%ADD73OUTLINE0*%
%ADD75OUTLINE2*%
%ADD77OUTLINE4*%
%ADD78OUTLINE5*%
%FSLAX26Y26*%
G04*
G70*
G90*
G75*
G01*
G04 TopMask*
%LPD*%
D67*
X762450Y1986762D3*
Y2037944D3*
X3881201Y2106890D3*
Y2055709D3*
D65*
X618701Y2974951D3*
D63*
Y2874951D3*
Y2774951D3*
Y2674951D3*
Y2574951D3*
Y2474951D3*
Y2374951D3*
Y2274951D3*
Y2174951D3*
Y2074951D3*
Y1974951D3*
Y1874951D3*
Y1774951D3*
Y1674951D3*
Y1574951D3*
D65*
X4018701Y2624951D3*
D63*
Y2524951D3*
Y2424951D3*
Y2324951D3*
Y2224951D3*
Y2124951D3*
Y2024951D3*
Y1924951D3*
D61*
X2281201Y3349950D3*
X2367815D3*
X2081644Y2649508D3*
X2168259D3*
X1487450Y1912450D3*
X1574064D3*
X3287451Y3687450D3*
Y3774064D3*
D59*
X1469833Y781201D3*
X1580070D3*
D61*
X3562450Y3393701D3*
X3649064D3*
X3549950Y2649950D3*
X3636564D3*
D21*
X3556201Y1893701D3*
X3642815D3*
D59*
X1469833Y3737451D3*
X1580070D3*
D61*
X3549950Y1181201D3*
X3636564D3*
X2081201Y1931201D3*
X2167815D3*
D59*
X1469833Y2999951D3*
X1580070D3*
X1469833Y2262451D3*
X1580070D3*
D73*
X1937450Y2974951D3*
D63*
X2297293D3*
D75*
X2111121Y3184499D3*
Y2863534D3*
D73*
X1937450Y2237451D3*
D63*
X2297293D3*
D75*
X2111121Y2446999D3*
Y2126034D3*
D73*
X1349950Y1499951D3*
D63*
X1709793D3*
D75*
X1523621Y1709499D3*
Y1388534D3*
D73*
X3418699Y3712451D3*
D63*
X3778542D3*
D75*
X3592370Y3921999D3*
Y3601034D3*
D73*
X3418699Y2974951D3*
D63*
X3778542D3*
D75*
X3592370Y3184499D3*
Y2863534D3*
D26*
X2118701Y3931201D3*
Y3596557D3*
Y3478445D3*
D73*
X3412450Y2237451D3*
D63*
X3772293D3*
D75*
X3586121Y2446999D3*
Y2126034D3*
D73*
X3412450Y1493701D3*
D63*
X3772293D3*
D75*
X3586121Y1703248D3*
Y1382283D3*
D26*
X2706201Y3931201D3*
Y3596557D3*
Y3478445D3*
D73*
X3412450Y762451D3*
D63*
X3772293D3*
D75*
X3586121Y971999D3*
Y651034D3*
D73*
X1937450Y1499951D3*
D63*
X2297293D3*
D75*
X2111121Y1709499D3*
Y1388534D3*
D73*
X2531199Y1493701D3*
D63*
X2891042D3*
D75*
X2704870Y1703248D3*
Y1382283D3*
D73*
X2531199Y756201D3*
D63*
X2891042D3*
D75*
X2704870Y965748D3*
Y644783D3*
D73*
X2531199Y2974951D3*
D63*
X2891042D3*
D75*
X2704870Y3184499D3*
Y2863534D3*
D73*
X2531199Y2237451D3*
D63*
X2891042D3*
D75*
X2704870Y2446999D3*
Y2126034D3*
D17*
X762450Y1879921D3*
Y1828740D3*
X4206201Y2156201D3*
Y2105020D3*
D55*
X1239075Y2761024D3*
X1313878D3*
X1276476Y2851575D3*
X1237450Y2031201D3*
X1312253D3*
X1274852Y2121752D3*
D29*
X1348671Y3743701D3*
X1297490D3*
X1305610Y776822D3*
X1356791D3*
D67*
X1231201Y3937451D3*
Y3886270D3*
D17*
X2431201Y3923672D3*
Y3872491D3*
D29*
X1107480Y2506201D3*
X1158661D3*
D17*
X3881201Y1901231D3*
Y1952412D3*
D29*
X1107480Y2668701D3*
X1158661D3*
X1348671Y2993701D3*
X1297490D3*
X1348671Y2262451D3*
X1297490D3*
X1150541Y1795571D3*
X1099360D3*
X1148671Y1956201D3*
X1097490D3*
D77*
X4381201Y3462451D3*
D78*
X4479626D3*
X4578051D3*
D31*
X4656791Y3738042D3*
X4302461D3*
D77*
X4381201Y2724951D3*
D78*
X4479626D3*
X4578051D3*
D31*
X4656791Y3000542D3*
X4302461D3*
D77*
X4381201Y1987451D3*
D78*
X4479626D3*
X4578051D3*
D31*
X4656791Y2263042D3*
X4302461D3*
D77*
X4381201Y1243702D3*
D78*
X4479626D3*
X4578051D3*
D31*
X4656791Y1519293D3*
X4302461D3*
D77*
X4381201Y506201D3*
D78*
X4479626D3*
X4578051D3*
D31*
X4656791Y781791D3*
X4302461D3*
D77*
X2018701Y506201D3*
D78*
X2117126D3*
X2215551D3*
D31*
X2294291Y781791D3*
X1939961D3*
D32*
X837451Y3099951D3*
X1034302D3*
Y2903101D3*
X837451D3*
Y2356201D3*
X1034302D3*
Y2159350D3*
X837451D3*
Y1618701D3*
X1034302D3*
Y1421850D3*
X837451D3*
D34*
X842701Y597951D3*
Y782951D3*
Y967951D3*
X1032701D3*
Y782951D3*
Y597951D3*
D32*
X837451Y3837451D3*
X1034302D3*
Y3640601D3*
X837451D3*
D37*
X618701Y3299951D3*
Y1299951D3*
X4018701D3*
Y3287451D3*
M02*
