G04 DipTrace 3.3.1.3*
G04 TopSilk.gbr*
%MOIN*%
G04 #@! TF.FileFunction,Legend,Top*
G04 #@! TF.Part,Single*
%ADD10C,0.009843*%
%ADD20C,0.011806*%
%ADD22C,0.01181*%
%ADD24C,0.005*%
%ADD25C,0.002*%
%ADD27C,0.015404*%
%ADD30C,0.008*%
%ADD33C,0.006*%
%ADD69C,0.00772*%
%FSLAX26Y26*%
G04*
G70*
G90*
G75*
G01*
G04 TopSilk*
%LPD*%
X518701Y3074951D2*
D10*
X718701D1*
Y1474951D1*
X518701D1*
Y3074951D1*
X3918701Y2724951D2*
X4118701D1*
Y1824951D1*
X3918701D1*
Y2724951D1*
Y2524971D2*
Y2624961D1*
D20*
X2251671Y3349950D3*
X2283168Y3382430D2*
D10*
X2365852D1*
X2283168Y3317470D2*
X2365852D1*
D20*
X2052114Y2649508D3*
X2083611Y2681988D2*
D10*
X2166296D1*
X2083611Y2617028D2*
X2166296D1*
D20*
X1457920Y1912450D3*
X1489417Y1944930D2*
D10*
X1572101D1*
X1489417Y1879970D2*
X1572101D1*
D22*
X3287451Y3657920D3*
X3254971Y3689417D2*
D10*
Y3772101D1*
X3319932Y3689417D2*
Y3772101D1*
X1513172Y812665D2*
X1536731D1*
X1513172Y749736D2*
X1536731D1*
X1520586D2*
Y812665D1*
X1513137Y749736D2*
Y812665D1*
D20*
X3532920Y3393701D3*
X3564417Y3426181D2*
D10*
X3647101D1*
X3564417Y3361220D2*
X3647101D1*
D20*
X3520420Y2649950D3*
X3551917Y2682430D2*
D10*
X3634601D1*
X3551917Y2617470D2*
X3634601D1*
D20*
X3526671Y1893701D3*
X3558168Y1926181D2*
D10*
X3640852D1*
X3558168Y1861220D2*
X3640852D1*
X1513172Y3768916D2*
X1536731D1*
X1513172Y3705987D2*
X1536731D1*
X1520586D2*
Y3768916D1*
X1513137Y3705987D2*
Y3768916D1*
D20*
X3520420Y1181201D3*
X3551917Y1213681D2*
D10*
X3634601D1*
X3551917Y1148720D2*
X3634601D1*
D20*
X2051671Y1931201D3*
X2083168Y1963681D2*
D10*
X2165852D1*
X2083168Y1898720D2*
X2165852D1*
X1513172Y3031416D2*
X1536731D1*
X1513172Y2968487D2*
X1536731D1*
X1520586D2*
Y3031416D1*
X1513137Y2968487D2*
Y3031416D1*
X1513172Y2293916D2*
X1536731D1*
X1513172Y2230987D2*
X1536731D1*
X1520586D2*
Y2293916D1*
X1513137Y2230987D2*
Y2293916D1*
X1914927Y2824951D2*
D24*
Y3224951D1*
X2089944D1*
X2114908D1*
X2139917D1*
X2314933D1*
Y2824951D1*
X1914927D1*
X2002457Y2999951D2*
D10*
G02X2002457Y2999951I112495J0D01*
G01*
X1914927Y2087451D2*
D24*
Y2487451D1*
X2089944D1*
X2114908D1*
X2139917D1*
X2314933D1*
Y2087451D1*
X1914927D1*
X2002457Y2262451D2*
D10*
G02X2002457Y2262451I112495J0D01*
G01*
X1327427Y1349951D2*
D24*
Y1749951D1*
X1502444D1*
X1527408D1*
X1552417D1*
X1727433D1*
Y1349951D1*
X1327427D1*
X1414957Y1524951D2*
D10*
G02X1414957Y1524951I112495J0D01*
G01*
X3396177Y3562451D2*
D24*
Y3962451D1*
X3571193D1*
X3596158D1*
X3621166D1*
X3796183D1*
Y3562451D1*
X3396177D1*
X3483707Y3737451D2*
D10*
G02X3483707Y3737451I112495J0D01*
G01*
X3396177Y2824951D2*
D24*
Y3224951D1*
X3571193D1*
X3596158D1*
X3621166D1*
X3796183D1*
Y2824951D1*
X3396177D1*
X3483707Y2999951D2*
D10*
G02X3483707Y2999951I112495J0D01*
G01*
X2012759Y3734366D2*
D24*
G02X2012759Y3734366I105929J0D01*
G01*
X1921850Y3557179D2*
Y3576852D1*
Y3655596D1*
Y3734340D1*
Y3813084D1*
Y3891828D1*
Y3970572D1*
X2236782D2*
X2315564D1*
Y3891828D1*
Y3813084D1*
Y3734340D1*
Y3655596D1*
Y3557179D1*
X1921850D1*
Y3970572D2*
X2000633D1*
X2079336D1*
X2236782D1*
X2158079Y3891828D1*
X2236782D2*
X2315564Y3970572D1*
X1921850Y3891828D2*
X2000633Y3970572D1*
X2236782Y3813084D2*
X2315564Y3891828D1*
X2236782Y3734340D2*
X2315564Y3813084D1*
X2236782Y3655596D2*
X2315564Y3734340D1*
X2236782Y3576852D2*
X2315564Y3655596D1*
X2079336Y3970572D2*
X1921850Y3813084D1*
X2000633D2*
X1921850Y3734340D1*
X2000633D2*
X1921850Y3655596D1*
X2000633D2*
X1921850Y3576852D1*
X3389927Y2087451D2*
Y2487451D1*
X3564944D1*
X3589908D1*
X3614917D1*
X3789933D1*
Y2087451D1*
X3389927D1*
X3477457Y2262451D2*
D10*
G02X3477457Y2262451I112495J0D01*
G01*
X3389927Y1343701D2*
D24*
Y1743701D1*
X3564944D1*
X3589908D1*
X3614917D1*
X3789933D1*
Y1343701D1*
X3389927D1*
X3477457Y1518701D2*
D10*
G02X3477457Y1518701I112495J0D01*
G01*
X2600259Y3734366D2*
D24*
G02X2600259Y3734366I105929J0D01*
G01*
X2509350Y3557179D2*
Y3576852D1*
Y3655596D1*
Y3734340D1*
Y3813084D1*
Y3891828D1*
Y3970572D1*
X2824282D2*
X2903064D1*
Y3891828D1*
Y3813084D1*
Y3734340D1*
Y3655596D1*
Y3557179D1*
X2509350D1*
Y3970572D2*
X2588133D1*
X2666836D1*
X2824282D1*
X2745579Y3891828D1*
X2824282D2*
X2903064Y3970572D1*
X2509350Y3891828D2*
X2588133Y3970572D1*
X2824282Y3813084D2*
X2903064Y3891828D1*
X2824282Y3734340D2*
X2903064Y3813084D1*
X2824282Y3655596D2*
X2903064Y3734340D1*
X2824282Y3576852D2*
X2903064Y3655596D1*
X2666836Y3970572D2*
X2509350Y3813084D1*
X2588133D2*
X2509350Y3734340D1*
X2588133D2*
X2509350Y3655596D1*
X2588133D2*
X2509350Y3576852D1*
X3389927Y612451D2*
Y1012451D1*
X3564944D1*
X3589908D1*
X3614917D1*
X3789933D1*
Y612451D1*
X3389927D1*
X3477457Y787451D2*
D10*
G02X3477457Y787451I112495J0D01*
G01*
X1914927Y1349951D2*
D24*
Y1749951D1*
X2089944D1*
X2114908D1*
X2139917D1*
X2314933D1*
Y1349951D1*
X1914927D1*
X2002457Y1524951D2*
D10*
G02X2002457Y1524951I112495J0D01*
G01*
X2508677Y1343701D2*
D24*
Y1743701D1*
X2683693D1*
X2708658D1*
X2733666D1*
X2908683D1*
Y1343701D1*
X2508677D1*
X2596207Y1518701D2*
D10*
G02X2596207Y1518701I112495J0D01*
G01*
X2508677Y606201D2*
D24*
Y1006201D1*
X2683693D1*
X2708658D1*
X2733666D1*
X2908683D1*
Y606201D1*
X2508677D1*
X2596207Y781201D2*
D10*
G02X2596207Y781201I112495J0D01*
G01*
X2508677Y2824951D2*
D24*
Y3224951D1*
X2683693D1*
X2708658D1*
X2733666D1*
X2908683D1*
Y2824951D1*
X2508677D1*
X2596207Y2999951D2*
D10*
G02X2596207Y2999951I112495J0D01*
G01*
X2508677Y2087451D2*
D24*
Y2487451D1*
X2683693D1*
X2708658D1*
X2733666D1*
X2908683D1*
Y2087451D1*
X2508677D1*
X2596207Y2262451D2*
D10*
G02X2596207Y2262451I112495J0D01*
G01*
D27*
X1208226Y2746315D3*
X1217427Y2796457D2*
D10*
X1335531D1*
Y2816142D1*
X1217427D1*
Y2796457D1*
D27*
X1206601Y2016492D3*
X1215802Y2066634D2*
D10*
X1333907D1*
Y2086319D1*
X1215802D1*
Y2066634D1*
X4318225Y3950642D2*
D30*
X4641027D1*
X4318225Y3928969D2*
X4296540D1*
X4318225Y3950642D2*
Y3928969D1*
Y3527404D2*
Y3505784D1*
X4296540Y3527404D2*
X4318225D1*
X4641027D2*
X4662712D1*
X4641027Y3505784D2*
Y3527404D1*
Y3928969D2*
Y3950642D1*
X4662712Y3928969D2*
X4641027D1*
X4296540Y3842385D2*
Y3928969D1*
Y3527404D2*
Y3653407D1*
X4662712Y3928969D2*
Y3842385D1*
Y3653407D2*
Y3527404D1*
X4424603Y3738028D2*
D25*
G02X4424603Y3738028I55023J0D01*
G01*
X4439647Y3738054D2*
G02X4439647Y3738054I39979J0D01*
G01*
X4318225Y3213142D2*
D30*
X4641027D1*
X4318225Y3191469D2*
X4296540D1*
X4318225Y3213142D2*
Y3191469D1*
Y2789904D2*
Y2768284D1*
X4296540Y2789904D2*
X4318225D1*
X4641027D2*
X4662712D1*
X4641027Y2768284D2*
Y2789904D1*
Y3191469D2*
Y3213142D1*
X4662712Y3191469D2*
X4641027D1*
X4296540Y3104885D2*
Y3191469D1*
Y2789904D2*
Y2915907D1*
X4662712Y3191469D2*
Y3104885D1*
Y2915907D2*
Y2789904D1*
X4424603Y3000528D2*
D25*
G02X4424603Y3000528I55023J0D01*
G01*
X4439647Y3000554D2*
G02X4439647Y3000554I39979J0D01*
G01*
X4318225Y2475642D2*
D30*
X4641027D1*
X4318225Y2453969D2*
X4296540D1*
X4318225Y2475642D2*
Y2453969D1*
Y2052404D2*
Y2030784D1*
X4296540Y2052404D2*
X4318225D1*
X4641027D2*
X4662712D1*
X4641027Y2030784D2*
Y2052404D1*
Y2453969D2*
Y2475642D1*
X4662712Y2453969D2*
X4641027D1*
X4296540Y2367385D2*
Y2453969D1*
Y2052404D2*
Y2178407D1*
X4662712Y2453969D2*
Y2367385D1*
Y2178407D2*
Y2052404D1*
X4424603Y2263028D2*
D25*
G02X4424603Y2263028I55023J0D01*
G01*
X4439647Y2263054D2*
G02X4439647Y2263054I39979J0D01*
G01*
X4318225Y1731892D2*
D30*
X4641027D1*
X4318225Y1710220D2*
X4296540D1*
X4318225Y1731892D2*
Y1710220D1*
Y1308654D2*
Y1287034D1*
X4296540Y1308654D2*
X4318225D1*
X4641027D2*
X4662712D1*
X4641027Y1287034D2*
Y1308654D1*
Y1710220D2*
Y1731892D1*
X4662712Y1710220D2*
X4641027D1*
X4296540Y1623636D2*
Y1710220D1*
Y1308654D2*
Y1434657D1*
X4662712Y1710220D2*
Y1623636D1*
Y1434657D2*
Y1308654D1*
X4424603Y1519279D2*
D25*
G02X4424603Y1519279I55023J0D01*
G01*
X4439647Y1519305D2*
G02X4439647Y1519305I39979J0D01*
G01*
X4318225Y994391D2*
D30*
X4641027D1*
X4318225Y972719D2*
X4296540D1*
X4318225Y994391D2*
Y972719D1*
Y571153D2*
Y549533D1*
X4296540Y571153D2*
X4318225D1*
X4641027D2*
X4662712D1*
X4641027Y549533D2*
Y571153D1*
Y972719D2*
Y994391D1*
X4662712Y972719D2*
X4641027D1*
X4296540Y886134D2*
Y972719D1*
Y571153D2*
Y697156D1*
X4662712Y972719D2*
Y886134D1*
Y697156D2*
Y571153D1*
X4424603Y781777D2*
D25*
G02X4424603Y781777I55023J0D01*
G01*
X4439647Y781804D2*
G02X4439647Y781804I39979J0D01*
G01*
X1955725Y994391D2*
D30*
X2278527D1*
X1955725Y972719D2*
X1934040D1*
X1955725Y994391D2*
Y972719D1*
Y571153D2*
Y549533D1*
X1934040Y571153D2*
X1955725D1*
X2278527D2*
X2300212D1*
X2278527Y549533D2*
Y571153D1*
Y972719D2*
Y994391D1*
X2300212Y972719D2*
X2278527D1*
X1934040Y886134D2*
Y972719D1*
Y571153D2*
Y697156D1*
X2300212Y972719D2*
Y886134D1*
Y697156D2*
Y571153D1*
X2062103Y781777D2*
D25*
G02X2062103Y781777I55023J0D01*
G01*
X2077147Y781804D2*
G02X2077147Y781804I39979J0D01*
G01*
X739026Y3119611D2*
D24*
Y2883441D1*
Y3119611D2*
G02X739026Y2883441I196858J-118085D01*
G01*
X896502Y3001526D2*
X975261D1*
X935860Y3040873D2*
Y2962180D1*
X739026Y2375861D2*
Y2139690D1*
Y2375861D2*
G02X739026Y2139690I196858J-118085D01*
G01*
X896502Y2257776D2*
X975261D1*
X935860Y2297122D2*
Y2218429D1*
X739026Y1638361D2*
Y1402190D1*
Y1638361D2*
G02X739026Y1402190I196858J-118085D01*
G01*
X896502Y1520276D2*
X975261D1*
X935860Y1559622D2*
Y1480929D1*
X714699Y1045951D2*
D33*
X689701Y1020966D1*
X714699Y1045951D2*
X1160702D1*
X1185701Y1020966D2*
X1160702Y1045951D1*
Y519951D2*
X1185701Y544936D1*
X1160702Y519951D2*
X714699D1*
X689701Y544936D2*
X714699Y519951D1*
X1185701Y1020966D2*
Y544936D1*
X689701D2*
Y1020966D1*
X739026Y3857111D2*
D24*
Y3620941D1*
Y3857111D2*
G02X739026Y3620941I196858J-118085D01*
G01*
X896502Y3739026D2*
X975261D1*
X935860Y3778373D2*
Y3699680D1*
X687386Y2016572D2*
D69*
X682633Y2014195D1*
X677824Y2009387D1*
X675448Y2004634D1*
Y1995072D1*
X677824Y1990263D1*
X682633Y1985510D1*
X687386Y1983078D1*
X694571Y1980702D1*
X706564D1*
X713694Y1983078D1*
X718503Y1985510D1*
X723256Y1990263D1*
X725688Y1995072D1*
Y2004633D1*
X723256Y2009387D1*
X718503Y2014195D1*
X713694Y2016572D1*
X685064Y2032011D2*
X682633Y2036819D1*
X675503Y2044004D1*
X725688D1*
X3806136Y2074768D2*
X3801383Y2072391D1*
X3796575Y2067583D1*
X3794198Y2062830D1*
Y2053268D1*
X3796575Y2048460D1*
X3801383Y2043707D1*
X3806136Y2041275D1*
X3813321Y2038898D1*
X3825315D1*
X3832445Y2041275D1*
X3837253Y2043707D1*
X3842006Y2048460D1*
X3844438Y2053268D1*
Y2062830D1*
X3842006Y2067583D1*
X3837253Y2072391D1*
X3832445Y2074768D1*
X3806192Y2092639D2*
X3803815D1*
X3799007Y2095016D1*
X3796630Y2097392D1*
X3794254Y2102201D1*
Y2111762D1*
X3796630Y2116515D1*
X3799007Y2118892D1*
X3803815Y2121324D1*
X3808568D1*
X3813377Y2118892D1*
X3820507Y2114139D1*
X3844438Y2090207D1*
Y2123700D1*
X598453Y3136236D2*
X596077Y3140989D1*
X591268Y3145798D1*
X586515Y3148175D1*
X576953D1*
X572145Y3145798D1*
X567392Y3140989D1*
X564960Y3136236D1*
X562583Y3129051D1*
Y3117058D1*
X564960Y3109928D1*
X567392Y3105120D1*
X572145Y3100366D1*
X576953Y3097935D1*
X586515D1*
X591268Y3100366D1*
X596077Y3105120D1*
X598453Y3109928D1*
X647386Y3148175D2*
Y3097935D1*
X613892Y3148175D1*
Y3097935D1*
X662825Y3138558D2*
X667633Y3140989D1*
X674818Y3148119D1*
Y3097935D1*
X3987703Y2786236D2*
X3985327Y2790989D1*
X3980518Y2795798D1*
X3975765Y2798175D1*
X3966203D1*
X3961395Y2795798D1*
X3956642Y2790989D1*
X3954210Y2786236D1*
X3951833Y2779051D1*
Y2767058D1*
X3954210Y2759928D1*
X3956642Y2755120D1*
X3961395Y2750366D1*
X3966203Y2747935D1*
X3975765D1*
X3980518Y2750366D1*
X3985327Y2755120D1*
X3987703Y2759928D1*
X4036636Y2798175D2*
Y2747935D1*
X4003142Y2798175D1*
Y2747935D1*
X4054507Y2786181D2*
Y2788558D1*
X4056883Y2793366D1*
X4059260Y2795743D1*
X4064068Y2798119D1*
X4073630D1*
X4078383Y2795743D1*
X4080760Y2793366D1*
X4083192Y2788558D1*
Y2783804D1*
X4080760Y2778996D1*
X4076007Y2771866D1*
X4052075Y2747935D1*
X4085568D1*
X2282234Y3455654D2*
Y3405414D1*
X2298980D1*
X2306166Y3407845D1*
X2310974Y3412599D1*
X2313351Y3417407D1*
X2315727Y3424537D1*
Y3436530D1*
X2313351Y3443715D1*
X2310974Y3448468D1*
X2306166Y3453277D1*
X2298980Y3455654D1*
X2282234D1*
X2331166Y3446037D2*
X2335975Y3448468D1*
X2343160Y3455598D1*
Y3405414D1*
X2071927Y2755211D2*
Y2704971D1*
X2088674D1*
X2095859Y2707403D1*
X2100668Y2712156D1*
X2103044Y2716965D1*
X2105421Y2724095D1*
Y2736088D1*
X2103044Y2743273D1*
X2100668Y2748026D1*
X2095859Y2752835D1*
X2088674Y2755211D1*
X2071927D1*
X2123292Y2743218D2*
Y2745594D1*
X2125668Y2750403D1*
X2128045Y2752779D1*
X2132854Y2755156D1*
X2142415D1*
X2147168Y2752779D1*
X2149545Y2750403D1*
X2151977Y2745594D1*
Y2740841D1*
X2149545Y2736033D1*
X2144792Y2728903D1*
X2120860Y2704971D1*
X2154353D1*
X1477733Y2018154D2*
Y1967914D1*
X1494480D1*
X1501665Y1970345D1*
X1506473Y1975099D1*
X1508850Y1979907D1*
X1511227Y1987037D1*
Y1999030D1*
X1508850Y2006215D1*
X1506473Y2010968D1*
X1501665Y2015777D1*
X1494480Y2018154D1*
X1477733D1*
X1531474Y2018098D2*
X1557727D1*
X1543412Y1998975D1*
X1550598D1*
X1555351Y1996598D1*
X1557727Y1994222D1*
X1560159Y1987037D1*
Y1982284D1*
X1557727Y1975099D1*
X1552974Y1970290D1*
X1545789Y1967914D1*
X1538604D1*
X1531474Y1970290D1*
X1529098Y1972722D1*
X1526666Y1977475D1*
X3181748Y3676545D2*
X3231988D1*
Y3693292D1*
X3229556Y3700477D1*
X3224803Y3705285D1*
X3219995Y3707662D1*
X3212865Y3710038D1*
X3200871D1*
X3193686Y3707662D1*
X3188933Y3705285D1*
X3184125Y3700477D1*
X3181748Y3693292D1*
Y3676545D1*
X3231988Y3749409D2*
X3181803D1*
X3215241Y3725478D1*
Y3761347D1*
X1483738Y889857D2*
Y839617D1*
X1500485D1*
X1507670Y842049D1*
X1512479Y846802D1*
X1514855Y851610D1*
X1517232Y858740D1*
Y870734D1*
X1514855Y877919D1*
X1512479Y882672D1*
X1507670Y887480D1*
X1500485Y889857D1*
X1483738D1*
X1561356Y889802D2*
X1537480D1*
X1535103Y868302D1*
X1537480Y870678D1*
X1544665Y873110D1*
X1551794D1*
X1558979Y870678D1*
X1563788Y865925D1*
X1566164Y858740D1*
Y853987D1*
X1563788Y846802D1*
X1558979Y841994D1*
X1551794Y839617D1*
X1544665D1*
X1537480Y841994D1*
X1535103Y844425D1*
X1532671Y849179D1*
X3553949Y3499404D2*
Y3449164D1*
X3570696D1*
X3577881Y3451596D1*
X3582689Y3456349D1*
X3585066Y3461158D1*
X3587443Y3468287D1*
Y3480281D1*
X3585066Y3487466D1*
X3582689Y3492219D1*
X3577881Y3497028D1*
X3570696Y3499404D1*
X3553949D1*
X3631567Y3492219D2*
X3629190Y3496972D1*
X3622005Y3499349D1*
X3617252D1*
X3610067Y3496972D1*
X3605258Y3489787D1*
X3602882Y3477849D1*
Y3465911D1*
X3605258Y3456349D1*
X3610067Y3451541D1*
X3617252Y3449164D1*
X3619628D1*
X3626758Y3451541D1*
X3631567Y3456349D1*
X3633943Y3463534D1*
Y3465911D1*
X3631567Y3473096D1*
X3626758Y3477849D1*
X3619628Y3480226D1*
X3617252D1*
X3610067Y3477849D1*
X3605258Y3473096D1*
X3602882Y3465911D1*
X3540233Y2755654D2*
Y2705414D1*
X3556980D1*
X3564165Y2707845D1*
X3568973Y2712599D1*
X3571350Y2717407D1*
X3573727Y2724537D1*
Y2736530D1*
X3571350Y2743715D1*
X3568973Y2748468D1*
X3564165Y2753277D1*
X3556980Y2755654D1*
X3540233D1*
X3598727Y2705414D2*
X3622659Y2755598D1*
X3589166D1*
X3546512Y1999404D2*
Y1949164D1*
X3563258D1*
X3570443Y1951596D1*
X3575252Y1956349D1*
X3577628Y1961158D1*
X3580005Y1968287D1*
Y1980281D1*
X3577628Y1987466D1*
X3575252Y1992219D1*
X3570443Y1997028D1*
X3563258Y1999404D1*
X3546512D1*
X3607382Y1999349D2*
X3600253Y1996972D1*
X3597821Y1992219D1*
Y1987411D1*
X3600253Y1982658D1*
X3605006Y1980226D1*
X3614567Y1977849D1*
X3621752Y1975472D1*
X3626506Y1970664D1*
X3628882Y1965911D1*
Y1958726D1*
X3626506Y1953973D1*
X3624129Y1951541D1*
X3616944Y1949164D1*
X3607382D1*
X3600253Y1951541D1*
X3597821Y1953973D1*
X3595444Y1958726D1*
Y1965911D1*
X3597821Y1970664D1*
X3602629Y1975472D1*
X3609759Y1977849D1*
X3619321Y1980226D1*
X3624129Y1982658D1*
X3626506Y1987411D1*
Y1992219D1*
X3624129Y1996972D1*
X3616944Y1999349D1*
X3607382D1*
X1484927Y3846108D2*
Y3795868D1*
X1501673D1*
X1508858Y3798299D1*
X1513667Y3803053D1*
X1516044Y3807861D1*
X1518420Y3814991D1*
Y3826984D1*
X1516044Y3834169D1*
X1513667Y3838923D1*
X1508858Y3843731D1*
X1501673Y3846108D1*
X1484927D1*
X1564976Y3829361D2*
X1562544Y3822176D1*
X1557791Y3817367D1*
X1550606Y3814991D1*
X1548229D1*
X1541044Y3817367D1*
X1536291Y3822176D1*
X1533859Y3829361D1*
Y3831738D1*
X1536291Y3838923D1*
X1541044Y3843676D1*
X1548229Y3846052D1*
X1550606D1*
X1557791Y3843676D1*
X1562544Y3838923D1*
X1564976Y3829361D1*
Y3817367D1*
X1562544Y3805429D1*
X1557791Y3798244D1*
X1550606Y3795868D1*
X1545853D1*
X1538668Y3798244D1*
X1536291Y3803053D1*
X3526517Y1286904D2*
Y1236664D1*
X3543264D1*
X3550449Y1239096D1*
X3555257Y1243849D1*
X3557634Y1248658D1*
X3560010Y1255787D1*
Y1267781D1*
X3557634Y1274966D1*
X3555257Y1279719D1*
X3550449Y1284528D1*
X3543264Y1286904D1*
X3526517D1*
X3575449Y1277287D2*
X3580258Y1279719D1*
X3587443Y1286849D1*
Y1236664D1*
X3617252Y1286849D2*
X3610067Y1284472D1*
X3605259Y1277287D1*
X3602882Y1265349D1*
Y1258164D1*
X3605259Y1246226D1*
X3610067Y1239041D1*
X3617252Y1236664D1*
X3622005D1*
X3629190Y1239041D1*
X3633944Y1246226D1*
X3636376Y1258164D1*
Y1265349D1*
X3633944Y1277287D1*
X3629190Y1284472D1*
X3622005Y1286849D1*
X3617252D1*
X3633944Y1277287D2*
X3605259Y1246226D1*
X2068517Y2036904D2*
Y1986664D1*
X2085264D1*
X2092449Y1989096D1*
X2097258Y1993849D1*
X2099634Y1998658D1*
X2102011Y2005787D1*
Y2017781D1*
X2099634Y2024966D1*
X2097258Y2029719D1*
X2092449Y2034528D1*
X2085264Y2036904D1*
X2068517D1*
X2117450Y2027287D2*
X2122258Y2029719D1*
X2129444Y2036849D1*
Y1986664D1*
X2144883Y2027287D2*
X2149691Y2029719D1*
X2156876Y2036849D1*
Y1986664D1*
X1470022Y3108608D2*
Y3058368D1*
X1486769D1*
X1493954Y3060799D1*
X1498762Y3065553D1*
X1501139Y3070361D1*
X1503515Y3077491D1*
Y3089484D1*
X1501139Y3096669D1*
X1498762Y3101423D1*
X1493954Y3106231D1*
X1486769Y3108608D1*
X1470022D1*
X1518955Y3098991D2*
X1523763Y3101423D1*
X1530948Y3108552D1*
Y3058368D1*
X1548819Y3096614D2*
Y3098991D1*
X1551196Y3103799D1*
X1553572Y3106176D1*
X1558381Y3108552D1*
X1567943D1*
X1572696Y3106176D1*
X1575072Y3103799D1*
X1577504Y3098991D1*
Y3094238D1*
X1575072Y3089429D1*
X1570319Y3082299D1*
X1546387Y3058368D1*
X1579881D1*
X1470022Y2371108D2*
Y2320868D1*
X1486769D1*
X1493954Y2323299D1*
X1498762Y2328053D1*
X1501139Y2332861D1*
X1503515Y2339991D1*
Y2351984D1*
X1501139Y2359169D1*
X1498762Y2363923D1*
X1493954Y2368731D1*
X1486769Y2371108D1*
X1470022D1*
X1518955Y2361491D2*
X1523763Y2363923D1*
X1530948Y2371052D1*
Y2320868D1*
X1551196Y2371052D2*
X1577449D1*
X1563134Y2351929D1*
X1570319D1*
X1575072Y2349552D1*
X1577449Y2347176D1*
X1579881Y2339991D1*
Y2335238D1*
X1577449Y2328053D1*
X1572696Y2323244D1*
X1565511Y2320868D1*
X1558326D1*
X1551196Y2323244D1*
X1548819Y2325676D1*
X1546387Y2330429D1*
X2091840Y3298175D2*
Y3259928D1*
X2089463Y3252743D1*
X2087031Y3250366D1*
X2082278Y3247935D1*
X2077470D1*
X2072716Y3250366D1*
X2070340Y3252743D1*
X2067908Y3259928D1*
Y3264681D1*
X2107279Y3298175D2*
Y3247935D1*
X2140772Y3298175D2*
X2107279Y3264681D1*
X2119217Y3276675D2*
X2140772Y3247935D1*
X2156211Y3288558D2*
X2161020Y3290989D1*
X2168205Y3298119D1*
Y3247935D1*
X2081090Y2560675D2*
Y2522428D1*
X2078713Y2515243D1*
X2076281Y2512866D1*
X2071528Y2510435D1*
X2066720D1*
X2061966Y2512866D1*
X2059590Y2515243D1*
X2057158Y2522428D1*
Y2527181D1*
X2096529Y2560675D2*
Y2510435D1*
X2130022Y2560675D2*
X2096529Y2527181D1*
X2108467Y2539175D2*
X2130022Y2510435D1*
X2147893Y2548681D2*
Y2551058D1*
X2150270Y2555866D1*
X2152647Y2558243D1*
X2157455Y2560619D1*
X2167017D1*
X2171770Y2558243D1*
X2174146Y2555866D1*
X2176578Y2551058D1*
Y2546304D1*
X2174146Y2541496D1*
X2169393Y2534366D1*
X2145462Y2510435D1*
X2178955D1*
X1493590Y1823175D2*
Y1784928D1*
X1491213Y1777743D1*
X1488781Y1775366D1*
X1484028Y1772935D1*
X1479220D1*
X1474466Y1775366D1*
X1472090Y1777743D1*
X1469658Y1784928D1*
Y1789681D1*
X1509029Y1823175D2*
Y1772935D1*
X1542522Y1823175D2*
X1509029Y1789681D1*
X1520967Y1801675D2*
X1542522Y1772935D1*
X1562770Y1823119D2*
X1589023D1*
X1574708Y1803996D1*
X1581893D1*
X1586646Y1801619D1*
X1589023Y1799243D1*
X1591455Y1792058D1*
Y1787305D1*
X1589023Y1780120D1*
X1584270Y1775311D1*
X1577085Y1772935D1*
X1569900D1*
X1562770Y1775311D1*
X1560393Y1777743D1*
X1557962Y1782496D1*
X3561151Y4035675D2*
Y3997428D1*
X3558774Y3990243D1*
X3556342Y3987866D1*
X3551589Y3985435D1*
X3546781D1*
X3542027Y3987866D1*
X3539651Y3990243D1*
X3537219Y3997428D1*
Y4002181D1*
X3576590Y4035675D2*
Y3985435D1*
X3610083Y4035675D2*
X3576590Y4002181D1*
X3588528Y4014175D2*
X3610083Y3985435D1*
X3649454D2*
Y4035619D1*
X3625523Y4002181D1*
X3661393D1*
X3562339Y3298175D2*
Y3259928D1*
X3559962Y3252743D1*
X3557531Y3250366D1*
X3552777Y3247935D1*
X3547969D1*
X3543216Y3250366D1*
X3540839Y3252743D1*
X3538407Y3259928D1*
Y3264681D1*
X3577778Y3298175D2*
Y3247935D1*
X3611272Y3298175D2*
X3577778Y3264681D1*
X3589717Y3276675D2*
X3611272Y3247935D1*
X3655396Y3298119D2*
X3631519D1*
X3629143Y3276619D1*
X3631519Y3278996D1*
X3638704Y3281428D1*
X3645834D1*
X3653019Y3278996D1*
X3657828Y3274243D1*
X3660204Y3267058D1*
Y3262305D1*
X3657828Y3255120D1*
X3653019Y3250311D1*
X3645834Y3247935D1*
X3638704D1*
X3631519Y3250311D1*
X3629143Y3252743D1*
X3626711Y3257496D1*
X2082957Y4043795D2*
Y4005548D1*
X2080580Y3998363D1*
X2078148Y3995987D1*
X2073395Y3993555D1*
X2068586D1*
X2063833Y3995987D1*
X2061457Y3998363D1*
X2059025Y4005548D1*
Y4010302D1*
X2098396Y4043795D2*
Y3993555D1*
X2131889Y4043795D2*
X2098396Y4010302D1*
X2110334Y4022295D2*
X2131889Y3993555D1*
X2176013Y4036610D2*
X2173637Y4041363D1*
X2166452Y4043740D1*
X2161698D1*
X2154513Y4041363D1*
X2149705Y4034178D1*
X2147328Y4022240D1*
Y4010302D1*
X2149705Y4000740D1*
X2154513Y3995932D1*
X2161698Y3993555D1*
X2164075D1*
X2171205Y3995932D1*
X2176013Y4000740D1*
X2178390Y4007925D1*
Y4010302D1*
X2176013Y4017487D1*
X2171205Y4022240D1*
X2164075Y4024616D1*
X2161698D1*
X2154513Y4022240D1*
X2149705Y4017487D1*
X2147328Y4010302D1*
X3556090Y2560675D2*
Y2522428D1*
X3553713Y2515243D1*
X3551281Y2512866D1*
X3546528Y2510435D1*
X3541720D1*
X3536966Y2512866D1*
X3534590Y2515243D1*
X3532158Y2522428D1*
Y2527181D1*
X3571529Y2560675D2*
Y2510435D1*
X3605022Y2560675D2*
X3571529Y2527181D1*
X3583467Y2539175D2*
X3605022Y2510435D1*
X3630023D2*
X3653955Y2560619D1*
X3620462D1*
X3556117Y1816924D2*
Y1778677D1*
X3553741Y1771492D1*
X3551309Y1769116D1*
X3546556Y1766684D1*
X3541747D1*
X3536994Y1769116D1*
X3534617Y1771492D1*
X3532186Y1778677D1*
Y1783431D1*
X3571557Y1816924D2*
Y1766684D1*
X3605050Y1816924D2*
X3571557Y1783431D1*
X3583495Y1795424D2*
X3605050Y1766684D1*
X3632427Y1816869D2*
X3625298Y1814492D1*
X3622866Y1809739D1*
Y1804930D1*
X3625298Y1800177D1*
X3630051Y1797745D1*
X3639612Y1795369D1*
X3646797Y1792992D1*
X3651551Y1788184D1*
X3653927Y1783431D1*
Y1776245D1*
X3651551Y1771492D1*
X3649174Y1769060D1*
X3641989Y1766684D1*
X3632427D1*
X3625298Y1769060D1*
X3622866Y1771492D1*
X3620489Y1776245D1*
Y1783431D1*
X3622866Y1788184D1*
X3627674Y1792992D1*
X3634804Y1795369D1*
X3644366Y1797745D1*
X3649174Y1800177D1*
X3651551Y1804930D1*
Y1809739D1*
X3649174Y1814492D1*
X3641989Y1816869D1*
X3632427D1*
X2670429Y4043795D2*
Y4005548D1*
X2668052Y3998363D1*
X2665620Y3995987D1*
X2660867Y3993555D1*
X2656059D1*
X2651306Y3995987D1*
X2648929Y3998363D1*
X2646497Y4005548D1*
Y4010302D1*
X2685868Y4043795D2*
Y3993555D1*
X2719361Y4043795D2*
X2685868Y4010302D1*
X2697806Y4022295D2*
X2719361Y3993555D1*
X2765917Y4027048D2*
X2763486Y4019863D1*
X2758732Y4015055D1*
X2751547Y4012678D1*
X2749171D1*
X2741986Y4015055D1*
X2737233Y4019863D1*
X2734801Y4027048D1*
Y4029425D1*
X2737233Y4036610D1*
X2741986Y4041363D1*
X2749171Y4043740D1*
X2751547D1*
X2758732Y4041363D1*
X2763486Y4036610D1*
X2765917Y4027048D1*
Y4015055D1*
X2763486Y4003117D1*
X2758732Y3995932D1*
X2751547Y3993555D1*
X2746794D1*
X2739609Y3995932D1*
X2737233Y4000740D1*
X3542373Y1085675D2*
Y1047428D1*
X3539997Y1040243D1*
X3537565Y1037866D1*
X3532812Y1035435D1*
X3528003D1*
X3523250Y1037866D1*
X3520873Y1040243D1*
X3518442Y1047428D1*
Y1052181D1*
X3557813Y1085675D2*
Y1035435D1*
X3591306Y1085675D2*
X3557813Y1052181D1*
X3569751Y1064175D2*
X3591306Y1035435D1*
X3606745Y1076058D2*
X3611554Y1078489D1*
X3618739Y1085619D1*
Y1035435D1*
X3648548Y1085619D2*
X3641363Y1083243D1*
X3636554Y1076058D1*
X3634178Y1064119D1*
Y1056934D1*
X3636554Y1044996D1*
X3641363Y1037811D1*
X3648548Y1035435D1*
X3653301D1*
X3660486Y1037811D1*
X3665239Y1044996D1*
X3667671Y1056934D1*
Y1064119D1*
X3665239Y1076058D1*
X3660486Y1083243D1*
X3653301Y1085619D1*
X3648548D1*
X3665239Y1076058D2*
X3636554Y1044996D1*
X2078123Y1823175D2*
Y1784928D1*
X2075747Y1777743D1*
X2073315Y1775366D1*
X2068562Y1772935D1*
X2063753D1*
X2059000Y1775366D1*
X2056623Y1777743D1*
X2054192Y1784928D1*
Y1789681D1*
X2093563Y1823175D2*
Y1772935D1*
X2127056Y1823175D2*
X2093563Y1789681D1*
X2105501Y1801675D2*
X2127056Y1772935D1*
X2142495Y1813558D2*
X2147304Y1815989D1*
X2154489Y1823119D1*
Y1772935D1*
X2169928Y1813558D2*
X2174736Y1815989D1*
X2181921Y1823119D1*
Y1772935D1*
X2661123Y1816924D2*
Y1778677D1*
X2658746Y1771492D1*
X2656314Y1769116D1*
X2651561Y1766684D1*
X2646753D1*
X2641999Y1769116D1*
X2639623Y1771492D1*
X2637191Y1778677D1*
Y1783431D1*
X2676562Y1816924D2*
Y1766684D1*
X2710055Y1816924D2*
X2676562Y1783431D1*
X2688500Y1795424D2*
X2710055Y1766684D1*
X2725495Y1807307D2*
X2730303Y1809739D1*
X2737488Y1816869D1*
Y1766684D1*
X2755359Y1804930D2*
Y1807307D1*
X2757736Y1812115D1*
X2760112Y1814492D1*
X2764921Y1816869D1*
X2774482D1*
X2779236Y1814492D1*
X2781612Y1812115D1*
X2784044Y1807307D1*
Y1802554D1*
X2781612Y1797745D1*
X2776859Y1790616D1*
X2752927Y1766684D1*
X2786421D1*
X2661123Y1079424D2*
Y1041177D1*
X2658746Y1033992D1*
X2656314Y1031616D1*
X2651561Y1029184D1*
X2646753D1*
X2641999Y1031616D1*
X2639623Y1033992D1*
X2637191Y1041177D1*
Y1045931D1*
X2676562Y1079424D2*
Y1029184D1*
X2710055Y1079424D2*
X2676562Y1045931D1*
X2688500Y1057924D2*
X2710055Y1029184D1*
X2725495Y1069807D2*
X2730303Y1072239D1*
X2737488Y1079369D1*
Y1029184D1*
X2757736Y1079369D2*
X2783989D1*
X2769674Y1060245D1*
X2776859D1*
X2781612Y1057869D1*
X2783989Y1055492D1*
X2786421Y1048307D1*
Y1043554D1*
X2783989Y1036369D1*
X2779236Y1031560D1*
X2772051Y1029184D1*
X2764865D1*
X2757736Y1031560D1*
X2755359Y1033992D1*
X2752927Y1038745D1*
X2659934Y3298175D2*
Y3259928D1*
X2657558Y3252743D1*
X2655126Y3250366D1*
X2650373Y3247935D1*
X2645564D1*
X2640811Y3250366D1*
X2638435Y3252743D1*
X2636003Y3259928D1*
Y3264681D1*
X2675374Y3298175D2*
Y3247935D1*
X2708867Y3298175D2*
X2675374Y3264681D1*
X2687312Y3276675D2*
X2708867Y3247935D1*
X2724306Y3288558D2*
X2729115Y3290989D1*
X2736300Y3298119D1*
Y3247935D1*
X2775671D2*
Y3298119D1*
X2751739Y3264681D1*
X2787609D1*
X2661123Y2560675D2*
Y2522428D1*
X2658746Y2515243D1*
X2656314Y2512866D1*
X2651561Y2510435D1*
X2646753D1*
X2641999Y2512866D1*
X2639623Y2515243D1*
X2637191Y2522428D1*
Y2527181D1*
X2676562Y2560675D2*
Y2510435D1*
X2710055Y2560675D2*
X2676562Y2527181D1*
X2688500Y2539175D2*
X2710055Y2510435D1*
X2725495Y2551058D2*
X2730303Y2553489D1*
X2737488Y2560619D1*
Y2510435D1*
X2781612Y2560619D2*
X2757736D1*
X2755359Y2539119D1*
X2757736Y2541496D1*
X2764921Y2543928D1*
X2772051D1*
X2779236Y2541496D1*
X2784044Y2536743D1*
X2786421Y2529558D1*
Y2524805D1*
X2784044Y2517620D1*
X2779236Y2512811D1*
X2772051Y2510435D1*
X2764921D1*
X2757736Y2512811D1*
X2755359Y2515243D1*
X2752927Y2519996D1*
X675448Y1826272D2*
X725688D1*
Y1854957D1*
X685064Y1870396D2*
X682633Y1875205D1*
X675503Y1882390D1*
X725688D1*
X4119198Y2091802D2*
X4169438D1*
Y2120486D1*
X4131192Y2138358D2*
X4128815D1*
X4124007Y2140734D1*
X4121630Y2143111D1*
X4119254Y2147919D1*
Y2157481D1*
X4121630Y2162234D1*
X4124007Y2164611D1*
X4128815Y2167042D1*
X4133568D1*
X4138377Y2164611D1*
X4145507Y2159857D1*
X4169438Y2135926D1*
Y2169419D1*
X1249530Y2945467D2*
X1244777Y2943146D1*
X1239969Y2938337D1*
X1237592Y2933529D1*
X1235160Y2926344D1*
Y2914406D1*
X1237592Y2907221D1*
X1239969Y2902467D1*
X1244777Y2897659D1*
X1249530Y2895282D1*
X1259092D1*
X1263900Y2897659D1*
X1268654Y2902467D1*
X1271030Y2907221D1*
X1273462Y2914406D1*
Y2926344D1*
X1271030Y2933529D1*
X1268654Y2938337D1*
X1263900Y2943146D1*
X1259092Y2945467D1*
X1249530D1*
X1256715Y2904844D2*
X1271030Y2890474D1*
X1288901Y2935850D2*
X1293710Y2938282D1*
X1300895Y2945412D1*
Y2895227D1*
X1237156Y2215644D2*
X1232403Y2213323D1*
X1227594Y2208515D1*
X1225218Y2203706D1*
X1222786Y2196521D1*
Y2184583D1*
X1225218Y2177398D1*
X1227594Y2172645D1*
X1232403Y2167836D1*
X1237156Y2165460D1*
X1246717D1*
X1251526Y2167836D1*
X1256279Y2172645D1*
X1258656Y2177398D1*
X1261087Y2184583D1*
Y2196521D1*
X1258656Y2203706D1*
X1256279Y2208515D1*
X1251526Y2213323D1*
X1246717Y2215644D1*
X1237156D1*
X1244341Y2175021D2*
X1258656Y2160651D1*
X1278959Y2203651D2*
Y2206027D1*
X1281335Y2210836D1*
X1283712Y2213212D1*
X1288520Y2215589D1*
X1298082D1*
X1302835Y2213212D1*
X1305212Y2210836D1*
X1307643Y2206027D1*
Y2201274D1*
X1305212Y2196466D1*
X1300458Y2189336D1*
X1276527Y2165404D1*
X1310020D1*
X1292617Y3806772D2*
X1314117D1*
X1321302Y3809204D1*
X1323734Y3811580D1*
X1326110Y3816333D1*
Y3821142D1*
X1323734Y3825895D1*
X1321302Y3828327D1*
X1314117Y3830703D1*
X1292617D1*
Y3780463D1*
X1309364Y3806772D2*
X1326110Y3780463D1*
X1341550Y3821086D2*
X1346358Y3823518D1*
X1353543Y3830648D1*
Y3780463D1*
X1289988Y839892D2*
X1311488D1*
X1318673Y842324D1*
X1321105Y844701D1*
X1323481Y849454D1*
Y854262D1*
X1321105Y859016D1*
X1318673Y861448D1*
X1311488Y863824D1*
X1289988D1*
Y813584D1*
X1306734Y839892D2*
X1323481Y813584D1*
X1341352Y851831D2*
Y854207D1*
X1343729Y859016D1*
X1346105Y861392D1*
X1350914Y863769D1*
X1360476D1*
X1365229Y861392D1*
X1367605Y859016D1*
X1370037Y854207D1*
Y849454D1*
X1367605Y844646D1*
X1362852Y837516D1*
X1338920Y813584D1*
X1372414D1*
X1168130Y3870648D2*
Y3892148D1*
X1165698Y3899333D1*
X1163322Y3901765D1*
X1158568Y3904141D1*
X1153760D1*
X1149007Y3901765D1*
X1146575Y3899333D1*
X1144198Y3892148D1*
Y3870648D1*
X1194438D1*
X1168130Y3887395D2*
X1194438Y3904141D1*
X1144254Y3924389D2*
Y3950642D1*
X1163377Y3936327D1*
Y3943512D1*
X1165753Y3948265D1*
X1168130Y3950642D1*
X1175315Y3953074D1*
X1180068D1*
X1187253Y3950642D1*
X1192062Y3945889D1*
X1194438Y3938704D1*
Y3931519D1*
X1192062Y3924389D1*
X1189630Y3922012D1*
X1184877Y3919581D1*
X2368130Y3855680D2*
Y3877180D1*
X2365698Y3884365D1*
X2363322Y3886797D1*
X2358568Y3889174D1*
X2353760D1*
X2349007Y3886797D1*
X2346575Y3884365D1*
X2344198Y3877180D1*
Y3855680D1*
X2394438D1*
X2368130Y3872427D2*
X2394438Y3889173D1*
Y3928544D2*
X2344254D1*
X2377692Y3904613D1*
Y3940483D1*
X1091858Y2569272D2*
X1113358D1*
X1120543Y2571704D1*
X1122975Y2574080D1*
X1125351Y2578833D1*
Y2583642D1*
X1122975Y2588395D1*
X1120543Y2590827D1*
X1113358Y2593203D1*
X1091858D1*
Y2542963D1*
X1108605Y2569272D2*
X1125351Y2542963D1*
X1169475Y2593148D2*
X1145599D1*
X1143222Y2571648D1*
X1145599Y2574025D1*
X1152784Y2576457D1*
X1159914D1*
X1167099Y2574025D1*
X1171907Y2569272D1*
X1174284Y2562087D1*
Y2557333D1*
X1171907Y2550148D1*
X1167099Y2545340D1*
X1159914Y2542963D1*
X1152784D1*
X1145599Y2545340D1*
X1143222Y2547772D1*
X1140790Y2552525D1*
X3818130Y1886825D2*
Y1908324D1*
X3815698Y1915509D1*
X3813322Y1917941D1*
X3808568Y1920318D1*
X3803760D1*
X3799007Y1917941D1*
X3796575Y1915509D1*
X3794198Y1908324D1*
Y1886825D1*
X3844438D1*
X3818130Y1903571D2*
X3844438Y1920318D1*
X3801383Y1964442D2*
X3796630Y1962065D1*
X3794254Y1954880D1*
Y1950127D1*
X3796630Y1942942D1*
X3803815Y1938134D1*
X3815753Y1935757D1*
X3827692D1*
X3837253Y1938134D1*
X3842062Y1942942D1*
X3844438Y1950127D1*
Y1952504D1*
X3842062Y1959634D1*
X3837253Y1964442D1*
X3830068Y1966819D1*
X3827692D1*
X3820507Y1964442D1*
X3815753Y1959634D1*
X3813377Y1952504D1*
Y1950127D1*
X3815753Y1942942D1*
X3820507Y1938134D1*
X3827692Y1935757D1*
X1091858Y2731772D2*
X1113358D1*
X1120543Y2734204D1*
X1122975Y2736580D1*
X1125351Y2741333D1*
Y2746142D1*
X1122975Y2750895D1*
X1120543Y2753327D1*
X1113358Y2755703D1*
X1091858D1*
Y2705463D1*
X1108605Y2731772D2*
X1125351Y2705463D1*
X1150352D2*
X1174284Y2755648D1*
X1140790D1*
X1281895Y3056772D2*
X1303395D1*
X1310580Y3059204D1*
X1313011Y3061580D1*
X1315388Y3066333D1*
Y3071142D1*
X1313011Y3075895D1*
X1310580Y3078327D1*
X1303395Y3080703D1*
X1281895D1*
Y3030463D1*
X1298641Y3056772D2*
X1315388Y3030463D1*
X1342766Y3080648D2*
X1335636Y3078272D1*
X1333204Y3073518D1*
Y3068710D1*
X1335636Y3063957D1*
X1340389Y3061525D1*
X1349951Y3059148D1*
X1357136Y3056772D1*
X1361889Y3051963D1*
X1364265Y3047210D1*
Y3040025D1*
X1361889Y3035272D1*
X1359512Y3032840D1*
X1352327Y3030463D1*
X1342766D1*
X1335636Y3032840D1*
X1333204Y3035272D1*
X1330827Y3040025D1*
Y3047210D1*
X1333204Y3051963D1*
X1338012Y3056772D1*
X1345142Y3059148D1*
X1354704Y3061525D1*
X1359512Y3063957D1*
X1361889Y3068710D1*
Y3073518D1*
X1359512Y3078272D1*
X1352327Y3080648D1*
X1342766D1*
X1283055Y2325522D2*
X1304555D1*
X1311740Y2327954D1*
X1314172Y2330331D1*
X1316549Y2335084D1*
Y2339892D1*
X1314172Y2344646D1*
X1311740Y2347077D1*
X1304555Y2349454D1*
X1283055D1*
Y2299214D1*
X1299802Y2325522D2*
X1316549Y2299214D1*
X1363105Y2332707D2*
X1360673Y2325522D1*
X1355920Y2320714D1*
X1348735Y2318337D1*
X1346358D1*
X1339173Y2320714D1*
X1334420Y2325522D1*
X1331988Y2332707D1*
Y2335084D1*
X1334420Y2342269D1*
X1339173Y2347022D1*
X1346358Y2349399D1*
X1348735D1*
X1355920Y2347022D1*
X1360673Y2342269D1*
X1363105Y2332707D1*
Y2320714D1*
X1360673Y2308776D1*
X1355920Y2301591D1*
X1348735Y2299214D1*
X1343981D1*
X1336796Y2301591D1*
X1334420Y2306399D1*
X1070021Y1858642D2*
X1091521D1*
X1098706Y1861074D1*
X1101138Y1863450D1*
X1103514Y1868203D1*
Y1873012D1*
X1101138Y1877765D1*
X1098706Y1880197D1*
X1091521Y1882573D1*
X1070021D1*
Y1832333D1*
X1086767Y1858642D2*
X1103514Y1832333D1*
X1118953Y1872957D2*
X1123762Y1875388D1*
X1130947Y1882518D1*
Y1832333D1*
X1160756Y1882518D2*
X1153571Y1880142D1*
X1148763Y1872957D1*
X1146386Y1861018D1*
Y1853833D1*
X1148763Y1841895D1*
X1153571Y1834710D1*
X1160756Y1832333D1*
X1165509D1*
X1172694Y1834710D1*
X1177448Y1841895D1*
X1179879Y1853833D1*
Y1861018D1*
X1177448Y1872957D1*
X1172694Y1880142D1*
X1165509Y1882518D1*
X1160756D1*
X1177448Y1872957D2*
X1148763Y1841895D1*
X1078901Y2019272D2*
X1100400D1*
X1107586Y2021704D1*
X1110017Y2024080D1*
X1112394Y2028833D1*
Y2033642D1*
X1110017Y2038395D1*
X1107586Y2040827D1*
X1100400Y2043203D1*
X1078901D1*
Y1992963D1*
X1095647Y2019272D2*
X1112394Y1992963D1*
X1127833Y2033586D2*
X1132642Y2036018D1*
X1139827Y2043148D1*
Y1992963D1*
X1155266Y2033586D2*
X1160074Y2036018D1*
X1167259Y2043148D1*
Y1992963D1*
X4424697Y3999933D2*
X4446197D1*
X4453382Y4002365D1*
X4455813Y4004742D1*
X4458190Y4009495D1*
Y4014303D1*
X4455813Y4019056D1*
X4453382Y4021488D1*
X4446197Y4023865D1*
X4424697D1*
Y3973625D1*
X4441443Y3999933D2*
X4458190Y3973625D1*
X4473629Y3997557D2*
X4495184D1*
X4502314Y3999933D1*
X4504746Y4002365D1*
X4507123Y4007118D1*
Y4014303D1*
X4504746Y4019056D1*
X4502314Y4021488D1*
X4495184Y4023865D1*
X4473629D1*
Y3973625D1*
X4522562Y4014248D2*
X4527370Y4016680D1*
X4534555Y4023810D1*
Y3973625D1*
X4413947Y3262433D2*
X4435447D1*
X4442632Y3264865D1*
X4445063Y3267242D1*
X4447440Y3271995D1*
Y3276803D1*
X4445063Y3281556D1*
X4442632Y3283988D1*
X4435447Y3286365D1*
X4413947D1*
Y3236125D1*
X4430693Y3262433D2*
X4447440Y3236125D1*
X4462879Y3260057D2*
X4484434D1*
X4491564Y3262433D1*
X4493996Y3264865D1*
X4496373Y3269618D1*
Y3276803D1*
X4493996Y3281556D1*
X4491564Y3283988D1*
X4484434Y3286365D1*
X4462879D1*
Y3236125D1*
X4514244Y3274371D2*
Y3276748D1*
X4516620Y3281556D1*
X4518997Y3283933D1*
X4523805Y3286310D1*
X4533367D1*
X4538120Y3283933D1*
X4540497Y3281556D1*
X4542929Y3276748D1*
Y3271995D1*
X4540497Y3267186D1*
X4535744Y3260057D1*
X4511812Y3236125D1*
X4545305D1*
X4413947Y2524933D2*
X4435447D1*
X4442632Y2527365D1*
X4445063Y2529742D1*
X4447440Y2534495D1*
Y2539303D1*
X4445063Y2544056D1*
X4442632Y2546488D1*
X4435447Y2548865D1*
X4413947D1*
Y2498625D1*
X4430693Y2524933D2*
X4447440Y2498625D1*
X4462879Y2522557D2*
X4484434D1*
X4491564Y2524933D1*
X4493996Y2527365D1*
X4496373Y2532118D1*
Y2539303D1*
X4493996Y2544056D1*
X4491564Y2546488D1*
X4484434Y2548865D1*
X4462879D1*
Y2498625D1*
X4516620Y2548810D2*
X4542873D1*
X4528559Y2529686D1*
X4535744D1*
X4540497Y2527310D1*
X4542873Y2524933D1*
X4545305Y2517748D1*
Y2512995D1*
X4542873Y2505810D1*
X4538120Y2501001D1*
X4530935Y2498625D1*
X4523750D1*
X4516620Y2501001D1*
X4514244Y2503433D1*
X4511812Y2508186D1*
X4412758Y1781184D2*
X4434258D1*
X4441443Y1783616D1*
X4443875Y1785992D1*
X4446252Y1790745D1*
Y1795554D1*
X4443875Y1800307D1*
X4441443Y1802739D1*
X4434258Y1805115D1*
X4412758D1*
Y1754875D1*
X4429505Y1781184D2*
X4446252Y1754875D1*
X4461691Y1778807D2*
X4483246D1*
X4490376Y1781184D1*
X4492808Y1783616D1*
X4495184Y1788369D1*
Y1795554D1*
X4492808Y1800307D1*
X4490376Y1802739D1*
X4483246Y1805115D1*
X4461691D1*
Y1754875D1*
X4534555D2*
Y1805060D1*
X4510624Y1771622D1*
X4546494D1*
X4413947Y1043682D2*
X4435447D1*
X4442632Y1046114D1*
X4445063Y1048491D1*
X4447440Y1053244D1*
Y1058053D1*
X4445063Y1062806D1*
X4442632Y1065238D1*
X4435447Y1067614D1*
X4413947D1*
Y1017374D1*
X4430693Y1043682D2*
X4447440Y1017374D1*
X4462879Y1041306D2*
X4484434D1*
X4491564Y1043682D1*
X4493996Y1046114D1*
X4496373Y1050867D1*
Y1058053D1*
X4493996Y1062806D1*
X4491564Y1065238D1*
X4484434Y1067614D1*
X4462879D1*
Y1017374D1*
X4540497Y1067559D2*
X4516620D1*
X4514244Y1046059D1*
X4516620Y1048436D1*
X4523805Y1050867D1*
X4530935D1*
X4538120Y1048436D1*
X4542929Y1043682D1*
X4545305Y1036497D1*
Y1031744D1*
X4542929Y1024559D1*
X4538120Y1019751D1*
X4530935Y1017374D1*
X4523805D1*
X4516620Y1019751D1*
X4514244Y1022183D1*
X4511812Y1026936D1*
X2052663Y1043682D2*
X2074163D1*
X2081348Y1046114D1*
X2083779Y1048491D1*
X2086156Y1053244D1*
Y1058053D1*
X2083779Y1062806D1*
X2081348Y1065238D1*
X2074163Y1067614D1*
X2052663D1*
Y1017374D1*
X2069409Y1043682D2*
X2086156Y1017374D1*
X2101595Y1041306D2*
X2123150D1*
X2130280Y1043682D1*
X2132712Y1046114D1*
X2135089Y1050867D1*
Y1058053D1*
X2132712Y1062806D1*
X2130280Y1065238D1*
X2123150Y1067614D1*
X2101595D1*
Y1017374D1*
X2179213Y1060429D2*
X2176836Y1065182D1*
X2169651Y1067559D1*
X2164898D1*
X2157713Y1065182D1*
X2152904Y1057997D1*
X2150528Y1046059D1*
Y1034121D1*
X2152904Y1024559D1*
X2157713Y1019751D1*
X2164898Y1017374D1*
X2167274D1*
X2174404Y1019751D1*
X2179213Y1024559D1*
X2181589Y1031744D1*
Y1034121D1*
X2179213Y1041306D1*
X2174404Y1046059D1*
X2167274Y1048436D1*
X2164898D1*
X2157713Y1046059D1*
X2152904Y1041306D1*
X2150528Y1034121D1*
X923614Y3297123D2*
X918861Y3301932D1*
X911676Y3304308D1*
X902114D1*
X894929Y3301932D1*
X890121Y3297123D1*
Y3292370D1*
X892552Y3287562D1*
X894929Y3285185D1*
X899682Y3282808D1*
X914052Y3278000D1*
X918861Y3275623D1*
X921237Y3273192D1*
X923614Y3268438D1*
Y3261253D1*
X918861Y3256500D1*
X911676Y3254068D1*
X902114D1*
X894929Y3256500D1*
X890121Y3261253D1*
X939053Y3304308D2*
X951047Y3254068D1*
X962985Y3304308D1*
X974923Y3254068D1*
X986917Y3304308D1*
X1002356Y3294691D2*
X1007164Y3297123D1*
X1014349Y3304253D1*
Y3254068D1*
X912864Y2553373D2*
X908111Y2558181D1*
X900926Y2560558D1*
X891364D1*
X884179Y2558181D1*
X879371Y2553373D1*
Y2548619D1*
X881802Y2543811D1*
X884179Y2541434D1*
X888932Y2539058D1*
X903302Y2534249D1*
X908111Y2531873D1*
X910487Y2529441D1*
X912864Y2524688D1*
Y2517503D1*
X908111Y2512749D1*
X900926Y2510318D1*
X891364D1*
X884179Y2512749D1*
X879371Y2517503D1*
X928303Y2560558D2*
X940297Y2510318D1*
X952235Y2560558D1*
X964173Y2510318D1*
X976167Y2560558D1*
X994038Y2548564D2*
Y2550941D1*
X996414Y2555749D1*
X998791Y2558126D1*
X1003599Y2560502D1*
X1013161D1*
X1017914Y2558126D1*
X1020291Y2555749D1*
X1022723Y2550941D1*
Y2546188D1*
X1020291Y2541379D1*
X1015538Y2534249D1*
X991606Y2510318D1*
X1025099D1*
X912864Y1815873D2*
X908111Y1820681D1*
X900926Y1823058D1*
X891364D1*
X884179Y1820681D1*
X879371Y1815873D1*
Y1811119D1*
X881802Y1806311D1*
X884179Y1803934D1*
X888932Y1801558D1*
X903302Y1796749D1*
X908111Y1794373D1*
X910487Y1791941D1*
X912864Y1787188D1*
Y1780003D1*
X908111Y1775249D1*
X900926Y1772818D1*
X891364D1*
X884179Y1775249D1*
X879371Y1780003D1*
X928303Y1823058D2*
X940297Y1772818D1*
X952235Y1823058D1*
X964173Y1772818D1*
X976167Y1823058D1*
X996414Y1823002D2*
X1022667D1*
X1008353Y1803879D1*
X1015538D1*
X1020291Y1801503D1*
X1022667Y1799126D1*
X1025099Y1791941D1*
Y1787188D1*
X1022667Y1780003D1*
X1017914Y1775194D1*
X1010729Y1772818D1*
X1003544D1*
X996414Y1775194D1*
X994038Y1777626D1*
X991606Y1782379D1*
X897142Y1111989D2*
X892388Y1116798D1*
X885203Y1119175D1*
X875642D1*
X868457Y1116798D1*
X863648Y1111989D1*
Y1107236D1*
X866080Y1102428D1*
X868457Y1100051D1*
X873210Y1097675D1*
X887580Y1092866D1*
X892388Y1090490D1*
X894765Y1088058D1*
X897142Y1083305D1*
Y1076120D1*
X892388Y1071366D1*
X885203Y1068935D1*
X875642D1*
X868457Y1071366D1*
X863648Y1076120D1*
X912581Y1119175D2*
X924574Y1068935D1*
X936512Y1119175D1*
X948451Y1068935D1*
X960444Y1119175D1*
X999815Y1068935D2*
Y1119119D1*
X975883Y1085681D1*
X1011753D1*
X912864Y4034623D2*
X908111Y4039432D1*
X900926Y4041808D1*
X891364D1*
X884179Y4039432D1*
X879371Y4034623D1*
Y4029870D1*
X881802Y4025062D1*
X884179Y4022685D1*
X888932Y4020308D1*
X903302Y4015500D1*
X908111Y4013123D1*
X910487Y4010692D1*
X912864Y4005938D1*
Y3998753D1*
X908111Y3994000D1*
X900926Y3991568D1*
X891364D1*
X884179Y3994000D1*
X879371Y3998753D1*
X928303Y4041808D2*
X940297Y3991568D1*
X952235Y4041808D1*
X964173Y3991568D1*
X976167Y4041808D1*
X1020291Y4041753D2*
X996414D1*
X994038Y4020253D1*
X996414Y4022630D1*
X1003599Y4025062D1*
X1010729D1*
X1017914Y4022630D1*
X1022723Y4017877D1*
X1025099Y4010692D1*
Y4005938D1*
X1022723Y3998753D1*
X1017914Y3993945D1*
X1010729Y3991568D1*
X1003599D1*
X996414Y3993945D1*
X994038Y3996377D1*
X991606Y4001130D1*
M02*
