M48
INCH
T01C0.0157
T02C0.0191
T03C0.028
T04C0.0354
T05C0.04
T06C0.0433
T07C0.0472
T08C0.0827
T09C0.09
T10C0.1024
%
T01
X+003562Y+004165G85X+003562Y+004835
X+005654Y+003386G85X+004945Y+003386
X+005634Y+006595G85X+004965Y+006595
X+013774Y+004165G85X+013774Y+004835
X+015865Y+003386G85X+015156Y+003386
X+015845Y+006595G85X+015176Y+006595
X+023836Y+004228G85X+023836Y+004897
X+025927Y+003448G85X+025219Y+003448
X+025907Y+006658G85X+025238Y+006658
X+033991Y+004465G85X+033991Y+005134
X+036421Y+003062G85X+035751Y+003062
X+037200Y+004445G85X+037200Y+005154
X+044312Y+004165G85X+044312Y+004835
X+046404Y+003386G85X+045695Y+003386
X+046384Y+006595G85X+045715Y+006595
T02
X+042669Y+033312
X+042572Y+032516
X+043875Y+032250
X+044775Y+032063
X+045562Y+032063
X+045413Y+032845
X+045706Y+033940
X+045057Y+034557
X+044730Y+034903
X+046063Y+035125
X+045696Y+035955
X+049345Y+035321
X+049289Y+034497
X+049289Y+033940
X+046579Y+032355
X+046313Y+031746
X+045250Y+030629
X+043250Y+029922
X+040250Y+029273
X+039345Y+027037
X+037760Y+029922
X+036862Y+029945
X+035339Y+028282
X+032638Y+029273
X+033223Y+034451
X+038052Y+037549
X+040088Y+035506
X+043638Y+026136
X+040769Y+023115
X+038769Y+023115
X+041805Y+021125
X+045774Y+022187
X+039774Y+016922
X+042642Y+012049
X+043445Y+012342
X+038086Y+006595
X+040019Y+003121
X+026961Y+011044
X+016773Y+012950
X+015211Y+022250
X+011500Y+025575
X+003211Y+020625
X+000879Y+018240
X+001399Y+017437
X+000586Y+016689
X+002401Y+016562
X+004336Y+016468
T03
X+018086Y+035500
X+017086Y+035500
X+032899Y+035437
X+033899Y+035437
T04
X+050250Y+025188
X+049250Y+025188
X+048250Y+025188
X+047250Y+025188
X+046250Y+025188
X+045250Y+025188
X+044250Y+025188
X+043250Y+025188
X+042250Y+025188
X+041250Y+025188
X+040250Y+025188
X+039250Y+025188
X+038250Y+025188
X+037250Y+025188
X+037250Y+031188
X+038250Y+031188
X+039250Y+031188
X+040250Y+031188
X+041250Y+031188
X+042250Y+031188
X+043250Y+031188
X+044250Y+031188
X+045250Y+031188
X+046250Y+031188
X+047250Y+031188
X+048250Y+031188
X+049250Y+031188
X+050250Y+031188
T05
X+048250Y+011250
X+049250Y+011250
X+049250Y+012250
X+048250Y+012250
X+048250Y+013250
X+048250Y+014250
X+049250Y+014250
X+049250Y+013250
X+049250Y+015250
X+048250Y+015250
X+011313Y+032438
X+010313Y+032438
X+009313Y+032438
X+009313Y+038138
X+011313Y+038138
T06
X+024649Y+021125
X+025633Y+021125
X+026617Y+021125
X+034899Y+021125
X+035883Y+021125
X+036867Y+021125
X+045024Y+021187
X+046008Y+021187
X+046992Y+021187
X+041805Y+032750
X+040820Y+032750
X+039836Y+032750
X+016430Y+021125
X+015445Y+021125
X+014461Y+021125
X+006281Y+021063
X+005297Y+021063
X+004313Y+021063
X+007161Y+004500
X+017372Y+004500
X+027435Y+004562
X+036086Y+006661
X+047911Y+004500
T07
X+024063Y+039312
X+025063Y+039312
X+026063Y+039312
X+027063Y+039312
X+028195Y+013500
X+028195Y+011531
X+023274Y+011531
X+023274Y+013500
X+012945Y+013375
X+012945Y+011406
X+008024Y+011406
X+008024Y+013375
X+038524Y+013375
X+038524Y+011406
X+043445Y+011406
X+043445Y+013375
T08
X+027405Y+023881
X+023861Y+023881
X+017217Y+023881
X+013674Y+023881
X+007068Y+023818
X+003525Y+023818
X+034111Y+023881
X+037655Y+023881
X+044236Y+023943
X+047780Y+023943
X+042592Y+035506
X+039049Y+035506
T09
X+012913Y+035388
X+007713Y+035388
T10
X+021250Y+039000
X+029938Y+039000
X+029938Y+030125
X+021250Y+030125
T00
M30
