G04 DipTrace 3.3.1.3*
G04 Top.gbr*
%MOIN*%
G04 #@! TF.FileFunction,Copper,L1,Top*
G04 #@! TF.Part,Single*
%AMOUTLINE0*
4,1,8,
-0.014159,0.034184,
-0.034184,0.014159,
-0.034184,-0.014159,
-0.014159,-0.034184,
0.014159,-0.034184,
0.034184,-0.014159,
0.034184,0.014159,
0.014159,0.034184,
-0.014159,0.034184,
0*%
%AMOUTLINE1*
4,1,4,
0.035295,0.035295,
0.035295,-0.035295,
-0.035295,-0.035295,
-0.035295,0.035295,
0.035295,0.035295,
0*%
%AMOUTLINE2*
4,1,8,
-0.013507,-0.032609,
-0.032609,-0.013507,
-0.032609,0.013507,
-0.013507,0.032609,
0.013507,0.032609,
0.032609,0.013507,
0.032609,-0.013507,
0.013507,-0.032609,
-0.013507,-0.032609,
0*%
%AMOUTLINE3*
4,1,4,
0.067382,0.067382,
0.067382,-0.067382,
-0.067382,-0.067382,
-0.067382,0.067382,
0.067382,0.067382,
0*%
%AMOUTLINE4*
4,1,20,
-0.038,0.037967,
-0.035719,0.050966,
-0.029131,0.0624,
-0.019029,0.070892,
-0.006631,0.075417,
0.006566,0.075428,
0.018971,0.070925,
0.029088,0.062451,
0.035697,0.051028,
0.038,0.038033,
0.038,-0.037967,
0.035719,-0.050966,
0.029131,-0.0624,
0.019029,-0.070892,
0.006631,-0.075417,
-0.006566,-0.075428,
-0.018971,-0.070925,
-0.029088,-0.062451,
-0.035697,-0.051028,
-0.038,-0.038033,
-0.038,0.037967,
0*%
%AMOUTLINE5*
4,1,20,
0.037967,0.038,
0.050966,0.035719,
0.0624,0.029131,
0.070892,0.019029,
0.075417,0.006631,
0.075428,-0.006566,
0.070925,-0.018971,
0.062451,-0.029088,
0.051028,-0.035697,
0.038033,-0.038,
-0.037967,-0.038,
-0.050966,-0.035719,
-0.0624,-0.029131,
-0.070892,-0.019029,
-0.075417,-0.006631,
-0.075428,0.006566,
-0.070925,0.018971,
-0.062451,0.029088,
-0.051028,0.035697,
-0.038033,0.038,
0.037967,0.038,
0*%
%AMOUTLINE8*
4,1,20,
-0.037967,-0.038,
-0.050966,-0.035719,
-0.0624,-0.029131,
-0.070892,-0.019029,
-0.075417,-0.006631,
-0.075428,0.006566,
-0.070925,0.018971,
-0.062451,0.029088,
-0.051028,0.035697,
-0.038033,0.038,
0.037967,0.038,
0.050966,0.035719,
0.0624,0.029131,
0.070892,0.019029,
0.075417,0.006631,
0.075428,-0.006566,
0.070925,-0.018971,
0.062451,-0.029088,
0.051028,-0.035697,
0.038033,-0.038,
-0.037967,-0.038,
0*%
G04 #@! TA.AperFunction,Conductor*
%ADD13C,0.005906*%
G04 #@! TA.AperFunction,CopperBalancing*
%ADD14C,0.025*%
%ADD15C,0.012992*%
G04 #@! TA.AperFunction,ComponentPad*
%ADD28C,0.05*%
%ADD29R,0.05X0.05*%
%ADD30C,0.070866*%
%ADD36R,0.059055X0.059055*%
%ADD37C,0.059055*%
%ADD46C,0.07874*%
%ADD52C,0.085*%
%ADD53C,0.065199*%
%ADD54C,0.146699*%
G04 #@! TA.AperFunction,ViaPad*
%ADD55C,0.04*%
G04 #@! TA.AperFunction,ComponentPad*
%ADD115OUTLINE0*%
%ADD116OUTLINE1*%
%ADD117OUTLINE2*%
%ADD118OUTLINE3*%
%ADD119OUTLINE4*%
%ADD120OUTLINE5*%
%ADD123OUTLINE8*%
%FSLAX26Y26*%
G04*
G70*
G90*
G75*
G01*
G04 Top*
%LPD*%
X4180463Y3275000D2*
D13*
Y3319045D1*
X4192668Y3331249D1*
X4266908D1*
X1642963Y2112499D2*
Y2067954D1*
X1655168Y2055749D1*
X2649508D1*
X2661713Y2067954D1*
Y2112499D1*
X4180463Y2112497D2*
X4230963Y2061997D1*
X4687006D1*
X4699213Y2074204D1*
Y2118749D1*
X3686713Y2112499D2*
X4180463Y2112497D1*
X2661713Y2112499D2*
X2703578D1*
X2748126Y2067950D1*
X3686713D1*
Y2112499D1*
X2740453Y2388089D2*
X3016043Y2112499D1*
X3489862D1*
X3765453Y2388089D2*
Y2181458D1*
X3777658Y2169253D1*
X4451858D1*
X4502362Y2118749D1*
X4604920Y338581D2*
X4305594D1*
X4279089Y312076D1*
X4001940D1*
X529920Y338581D2*
X368455D1*
X356249Y350787D1*
Y449999D1*
X4925000Y3118751D2*
Y3390136D1*
X4928861Y3393997D1*
X4259203Y3550591D2*
X4008810Y3550592D1*
X4001940Y312076D2*
X3732234D1*
X3720030Y324280D1*
Y479920D1*
X4524999Y3062922D2*
X4563782Y3101705D1*
Y3162375D1*
X4575987Y3174580D1*
X4631322D1*
X4928861Y3449706D2*
X4825000Y3345845D1*
Y3118751D1*
X4727719Y3021469D1*
X3746022D1*
X3719022Y2994469D1*
X3686223D1*
X4925000Y1225000D2*
X4825000D1*
X4570570Y3393996D2*
X4716400D1*
X4728605Y3381791D1*
Y3325978D1*
X4716400Y3313773D1*
X4319408D1*
X4257207Y3251572D1*
X4925000Y1325000D2*
X4825000D1*
X4925000Y1425000D2*
X4825000D1*
X4344488Y1140650D2*
X4408448Y1204609D1*
Y1251201D1*
X4396243Y1263406D1*
X2906081D1*
X2819488Y1349999D1*
X4825000Y1225000D2*
X4775452D1*
X4691101Y1140650D1*
X4344488D1*
X4606250Y3512500D2*
Y3619817D1*
X4586637Y3639430D1*
X70818D1*
X58613Y3627225D1*
Y1668946D1*
X4569589Y3595548D2*
X4537912Y3627225D1*
X252266D1*
X240060Y3615019D1*
Y1656249D1*
X4657896Y3235505D2*
X4437208D1*
X4425000Y3223297D1*
Y3118751D1*
X931251Y3243751D2*
X1532134Y2642867D1*
X4412794D1*
X4425000Y2630661D1*
Y2518751D1*
X4825000Y1525000D2*
X4868440D1*
X4925000D1*
X4387500Y3225000D2*
X4386219Y3223719D1*
Y3092174D1*
X4398424Y3079969D1*
X4465302D1*
X4477510Y3092177D1*
Y3206250D1*
X1521113Y2224998D2*
Y2458772D1*
X1533318Y2470977D1*
X4351577D1*
X4363782Y2483182D1*
Y2613615D1*
X139863Y1743749D2*
Y1811781D1*
X127659Y1823985D1*
X87865D1*
X3805239Y3754855D2*
X990146D1*
X931251Y3813751D1*
X4934530Y3532092D2*
X4811567Y3409129D1*
Y3218458D1*
X4799359Y3206250D1*
X4556250D1*
X3533928Y2828170D2*
X4515580D1*
X4825000Y2518751D1*
X1808613Y3549999D2*
X2472744Y2885867D1*
X4557883D1*
X4925000Y2518751D1*
X1677333Y1294997D2*
X2403675Y2021339D1*
X4854590D1*
X4866794Y2033543D1*
Y2458772D1*
X4854589Y2470977D1*
X4772773D1*
X4725000Y2518751D1*
X4344487Y1234155D2*
X2825909D1*
X2696113Y1104359D1*
X1150003Y2557532D2*
X4286218D1*
X4325000Y2518751D1*
X2819488Y1153148D2*
X2871243Y1204903D1*
X4264192D1*
X4577362Y2218749D2*
Y2691457D1*
X4565157Y2703662D1*
X3934534D1*
X4082038Y3275000D2*
Y3195513D1*
X4069831Y3183305D1*
X3889555D1*
X3825000Y3118751D1*
X4024999Y2927324D2*
X3263786D1*
X4076940Y2311458D2*
X3876932D1*
X433613Y1646824D2*
X321113Y1759324D1*
Y2062499D1*
X4604920Y659546D2*
X3808617Y659544D1*
X3977365Y1692237D2*
X4951577D1*
X4963782Y1704442D1*
Y3566557D1*
X4951578Y3578761D1*
X4727995D1*
X4604963Y3455729D1*
X4505743D1*
X3322286Y3445135D2*
X4427881D1*
X4473003Y3490257D1*
X4325000Y3118751D2*
Y3272316D1*
X4337205Y3284521D1*
X4541318D1*
X4324999Y2992218D2*
X3775987D1*
D55*
X4266908Y3331249D3*
X4180463Y2112497D3*
X4928861Y3393997D3*
X4008810Y3550592D3*
X4001940Y312076D3*
X4631322Y3174580D3*
X4524999Y3062922D3*
X3686223Y2994469D3*
X4928861Y3449706D3*
X4257207Y3251572D3*
X4570570Y3393996D3*
X58613Y1668946D3*
X4606250Y3512500D3*
X240060Y1656249D3*
X4569589Y3595548D3*
X4657896Y3235505D3*
X4477510Y3206250D3*
X4387500Y3225000D3*
X4363782Y2613615D3*
X1521113Y2224998D3*
X87865Y1823985D3*
X139863Y1743749D3*
X3805239Y3754855D3*
X4556250Y3206250D3*
X4934530Y3532092D3*
X3533928Y2828170D3*
X1677333Y1294997D3*
X2696113Y1104359D3*
X4344487Y1234155D3*
X1150003Y2557532D3*
X4264192Y1204903D3*
X3934534Y2703662D3*
X4577362Y2218749D3*
X3263786Y2927324D3*
X4024999D3*
X3876932Y2311458D3*
X4076940D3*
X321113Y2062499D3*
X433613Y1646824D3*
X3808617Y659544D3*
X4505743Y3455729D3*
X3977365Y1692237D3*
X4473003Y3490257D3*
X3322286Y3445135D3*
X4541318Y3284521D3*
X3775987Y2992218D3*
X4324999D3*
X45018Y4066490D2*
D14*
X5073098D1*
X45018Y4041621D2*
X5073098D1*
X45018Y4016752D2*
X5073098D1*
X45018Y3991883D2*
X5073098D1*
X45018Y3967014D2*
X2095285D1*
X2154757D2*
X2361940D1*
X2450550D2*
X2461949D1*
X2550595D2*
X2561959D1*
X2650569D2*
X2661968D1*
X2750578D2*
X2964041D1*
X3023513D2*
X5073098D1*
X45018Y3942146D2*
X2063707D1*
X2186335D2*
X2349811D1*
X2762707D2*
X2932463D1*
X3055055D2*
X5073098D1*
X45018Y3917277D2*
X2052260D1*
X2197782D2*
X2350529D1*
X2761989D2*
X2921016D1*
X3066502D2*
X5073098D1*
X45018Y3892408D2*
X2050573D1*
X2199469D2*
X2364775D1*
X2447715D2*
X2464784D1*
X2547725D2*
X2564793D1*
X2647734D2*
X2664803D1*
X2747743D2*
X2919329D1*
X3068225D2*
X5073098D1*
X45018Y3867539D2*
X2057857D1*
X2192184D2*
X2926614D1*
X3060904D2*
X5073098D1*
X45018Y3842671D2*
X885306D1*
X977181D2*
X1085324D1*
X1177200D2*
X2078383D1*
X2171658D2*
X2947139D1*
X3040379D2*
X5073098D1*
X45018Y3817802D2*
X876729D1*
X985794D2*
X1076712D1*
X1185776D2*
X5073098D1*
X45018Y3792933D2*
X880892D1*
X986440D2*
X1080911D1*
X1181614D2*
X3791925D1*
X3818563D2*
X5073098D1*
X45018Y3768064D2*
X903535D1*
X3845046D2*
X5073098D1*
X45018Y3743196D2*
X967445D1*
X3845584D2*
X5073098D1*
X45018Y3718327D2*
X3787475D1*
X3823013D2*
X5073098D1*
X45018Y3693458D2*
X5073098D1*
X45018Y3668589D2*
X5073098D1*
X4616735Y3643721D2*
X5073098D1*
X4631304Y3618852D2*
X5073098D1*
X83665Y3593983D2*
X215025D1*
X265096D2*
X692069D1*
X850438D2*
X1212067D1*
X1370436D2*
X1661517D1*
X1755689D2*
X1798810D1*
X1818414D2*
X3813814D1*
X3995903D2*
X4169749D1*
X4348680D2*
X4527551D1*
X4631304D2*
X4708838D1*
X4970733D2*
X5073098D1*
X83665Y3569114D2*
X215025D1*
X265096D2*
X679259D1*
X863249D2*
X1199257D1*
X1383247D2*
X1661517D1*
X1755689D2*
X1765853D1*
X1851392D2*
X3242789D1*
X3336961D2*
X3350693D1*
X3429040D2*
X3813814D1*
X4348680D2*
X4537634D1*
X4631304D2*
X4683970D1*
X4988675D2*
X5073098D1*
X83665Y3544245D2*
X215025D1*
X265096D2*
X674414D1*
X868093D2*
X1194412D1*
X1388091D2*
X1661517D1*
X1855339D2*
X3242789D1*
X3436935D2*
X3813814D1*
X4348680D2*
X4580085D1*
X4632416D2*
X4659102D1*
X4727868D2*
X4894359D1*
X4988818D2*
X5073098D1*
X83665Y3519377D2*
X215025D1*
X265096D2*
X676245D1*
X866263D2*
X1196242D1*
X1386261D2*
X1661517D1*
X1755689D2*
X1773691D1*
X1873604D2*
X3242789D1*
X3336961D2*
X3350011D1*
X3429686D2*
X3813814D1*
X4035662D2*
X4169749D1*
X4348680D2*
X4443689D1*
X4502336D2*
X4564763D1*
X4703001D2*
X4887433D1*
X4988818D2*
X5073098D1*
X83665Y3494508D2*
X215025D1*
X265096D2*
X685251D1*
X857256D2*
X1205249D1*
X1377254D2*
X1829742D1*
X1898472D2*
X3813814D1*
X3995903D2*
X4169749D1*
X4348680D2*
X4431130D1*
X4516188D2*
X4568495D1*
X4678133D2*
X4862565D1*
X4988818D2*
X5073098D1*
X83665Y3469639D2*
X215025D1*
X265096D2*
X704270D1*
X838202D2*
X1224268D1*
X1358200D2*
X1854609D1*
X1923340D2*
X3288685D1*
X3355872D2*
X3818766D1*
X3990987D2*
X4175204D1*
X4343226D2*
X4417996D1*
X4653265D2*
X4837698D1*
X4988818D2*
X5073098D1*
X83665Y3444770D2*
X215025D1*
X265096D2*
X758742D1*
X783766D2*
X1278740D1*
X1303763D2*
X1879477D1*
X1948208D2*
X3280216D1*
X4628397D2*
X4812830D1*
X4988818D2*
X5073098D1*
X83665Y3419902D2*
X215025D1*
X265096D2*
X1904345D1*
X1973075D2*
X3289295D1*
X3355298D2*
X4486392D1*
X4525087D2*
X4789254D1*
X4856728D2*
X4864683D1*
X4988818D2*
X5073098D1*
X83665Y3395033D2*
X215025D1*
X265096D2*
X1929213D1*
X1997943D2*
X4786527D1*
X4988818D2*
X5073098D1*
X83665Y3370164D2*
X215025D1*
X265096D2*
X1954080D1*
X2022811D2*
X4257127D1*
X4276678D2*
X4786527D1*
X4883677D2*
X4894754D1*
X4988818D2*
X5073098D1*
X83665Y3345295D2*
X215025D1*
X265096D2*
X1978948D1*
X2047678D2*
X4172333D1*
X4306409D2*
X4786527D1*
X4858810D2*
X4899957D1*
X4988818D2*
X5073098D1*
X83665Y3320427D2*
X215025D1*
X265096D2*
X2003816D1*
X2072546D2*
X3929038D1*
X4038174D2*
X4051152D1*
X4112921D2*
X4149583D1*
X4307485D2*
X4522132D1*
X4560505D2*
X4786527D1*
X4850054D2*
X4899957D1*
X4988818D2*
X5073098D1*
X83665Y3295558D2*
X215025D1*
X265096D2*
X922482D1*
X940019D2*
X1022455D1*
X1040015D2*
X1122464D1*
X1140024D2*
X2028684D1*
X2097414D2*
X3926239D1*
X4233851D2*
X4247295D1*
X4286529D2*
X4313860D1*
X4581820D2*
X4786527D1*
X4850054D2*
X4899957D1*
X4988818D2*
X5073098D1*
X83665Y3270689D2*
X215025D1*
X265096D2*
X884050D1*
X1178456D2*
X2053551D1*
X2122282D2*
X3926239D1*
X4235143D2*
X4299973D1*
X4580923D2*
X4637249D1*
X4678528D2*
X4786527D1*
X4850054D2*
X4899957D1*
X4988818D2*
X5073098D1*
X83665Y3245820D2*
X215025D1*
X265096D2*
X876622D1*
X1185884D2*
X2078419D1*
X2147149D2*
X3926239D1*
X4227607D2*
X4299973D1*
X4698623D2*
X4786527D1*
X4850054D2*
X4899957D1*
X4988818D2*
X5073098D1*
X83665Y3220951D2*
X215025D1*
X265096D2*
X881825D1*
X1180681D2*
X2103287D1*
X2172053D2*
X3940162D1*
X4027050D2*
X4057001D1*
X4107072D2*
X4299973D1*
X4850054D2*
X4899957D1*
X4988818D2*
X5073098D1*
X83665Y3196083D2*
X215025D1*
X265096D2*
X907518D1*
X1054978D2*
X1107501D1*
X1154988D2*
X2128155D1*
X2196921D2*
X3867963D1*
X4107072D2*
X4299973D1*
X4350044D2*
X4357962D1*
X4850054D2*
X4899957D1*
X4988818D2*
X5073098D1*
X83665Y3171214D2*
X215025D1*
X265096D2*
X969418D1*
X1038149D2*
X2153022D1*
X2221789D2*
X3843096D1*
X4092108D2*
X4299973D1*
X4350044D2*
X4361192D1*
X4502552D2*
X4535338D1*
X4673253D2*
X4799948D1*
X4850054D2*
X4899957D1*
X4988818D2*
X5073098D1*
X83665Y3146345D2*
X215025D1*
X265096D2*
X994286D1*
X1063016D2*
X2177890D1*
X2246656D2*
X3681868D1*
X3768146D2*
X3781877D1*
X3968128D2*
X3981860D1*
X4068138D2*
X4081869D1*
X4168147D2*
X4181878D1*
X4268120D2*
X4281888D1*
X4668121D2*
X4681853D1*
X4768130D2*
X4781862D1*
X4868140D2*
X4881871D1*
X83665Y3121476D2*
X215025D1*
X265096D2*
X1019154D1*
X1087884D2*
X2202758D1*
X2271524D2*
X3673471D1*
X83665Y3096608D2*
X215025D1*
X265096D2*
X1044022D1*
X1112752D2*
X2227626D1*
X2296392D2*
X3678674D1*
X83665Y3071739D2*
X215025D1*
X265096D2*
X1068889D1*
X1137656D2*
X2081003D1*
X2169039D2*
X2252493D1*
X2321260D2*
X2949759D1*
X3037795D2*
X3708279D1*
X3741699D2*
X3808288D1*
X3841708D2*
X3908297D1*
X3941718D2*
X4008271D1*
X4041727D2*
X4108280D1*
X4141700D2*
X4208289D1*
X4241709D2*
X4308298D1*
X4341719D2*
X4372280D1*
X4568184D2*
X4608290D1*
X4641710D2*
X4708299D1*
X4841729D2*
X4908282D1*
X4988818D2*
X5008291D1*
X5041711D2*
X5073098D1*
X83665Y3046870D2*
X215025D1*
X265096D2*
X1093757D1*
X1162523D2*
X2058862D1*
X2191179D2*
X2277361D1*
X2346127D2*
X2927618D1*
X3059935D2*
X4486320D1*
X4563698D2*
X4718742D1*
X4787508D2*
X4938748D1*
X4988818D2*
X5073098D1*
X83665Y3022001D2*
X215025D1*
X265096D2*
X1118625D1*
X1187391D2*
X2050788D1*
X2199253D2*
X2302229D1*
X2370995D2*
X2919544D1*
X3067974D2*
X3655278D1*
X4762640D2*
X4938748D1*
X4988818D2*
X5073098D1*
X83665Y2997133D2*
X215025D1*
X265096D2*
X1143493D1*
X1212259D2*
X2051829D1*
X2198213D2*
X2327097D1*
X2395863D2*
X2920585D1*
X3066969D2*
X3644226D1*
X4366766D2*
X4938748D1*
X4988818D2*
X5073098D1*
X83665Y2972264D2*
X215025D1*
X265096D2*
X1168360D1*
X1237126D2*
X2062415D1*
X2187627D2*
X2351964D1*
X2420730D2*
X2931135D1*
X3056383D2*
X3650936D1*
X3725372D2*
X3739283D1*
X4361706D2*
X4938748D1*
X4988818D2*
X5073098D1*
X83665Y2947395D2*
X215025D1*
X265096D2*
X1193228D1*
X1261994D2*
X2090979D1*
X2159063D2*
X2376832D1*
X2445598D2*
X2959735D1*
X3027819D2*
X3227180D1*
X4061607D2*
X4938748D1*
X4988818D2*
X5073098D1*
X83665Y2922526D2*
X215025D1*
X265096D2*
X1218096D1*
X1286862D2*
X2401700D1*
X2470466D2*
X3221976D1*
X4066810D2*
X4938748D1*
X4988818D2*
X5073098D1*
X83665Y2897658D2*
X215025D1*
X265096D2*
X1242963D1*
X1311730D2*
X2426567D1*
X4580456D2*
X4938748D1*
X4988818D2*
X5073098D1*
X83665Y2872789D2*
X215025D1*
X265096D2*
X1267831D1*
X1336597D2*
X2451435D1*
X4605324D2*
X4938748D1*
X4988818D2*
X5073098D1*
X83665Y2847920D2*
X215025D1*
X265096D2*
X1292699D1*
X1361465D2*
X3497136D1*
X4528926D2*
X4561461D1*
X4630192D2*
X4938748D1*
X4988818D2*
X5073098D1*
X83665Y2823051D2*
X215025D1*
X265096D2*
X1317567D1*
X1386333D2*
X3492184D1*
X4555086D2*
X4586329D1*
X4655059D2*
X4938748D1*
X4988818D2*
X5073098D1*
X83665Y2798182D2*
X215025D1*
X265096D2*
X1342434D1*
X1411201D2*
X3505569D1*
X3562278D2*
X4511188D1*
X4579954D2*
X4611197D1*
X4679927D2*
X4938748D1*
X4988818D2*
X5073098D1*
X83665Y2773314D2*
X215025D1*
X265096D2*
X1367302D1*
X1436068D2*
X4536055D1*
X4604821D2*
X4636065D1*
X4704831D2*
X4938748D1*
X4988818D2*
X5073098D1*
X83665Y2748445D2*
X215025D1*
X265096D2*
X1392170D1*
X1460936D2*
X4560923D1*
X4629689D2*
X4660932D1*
X4729698D2*
X4938748D1*
X4988818D2*
X5073098D1*
X83665Y2723576D2*
X215025D1*
X265096D2*
X1417038D1*
X1485804D2*
X3897819D1*
X4578231D2*
X4585794D1*
X4654557D2*
X4685800D1*
X4754566D2*
X4938748D1*
X4988818D2*
X5073098D1*
X83665Y2698707D2*
X215025D1*
X265096D2*
X1441905D1*
X1510672D2*
X3892759D1*
X4601197D2*
X4610658D1*
X4679425D2*
X4710668D1*
X4779434D2*
X4938748D1*
X4988818D2*
X5073098D1*
X83665Y2673839D2*
X215025D1*
X265096D2*
X1466773D1*
X1535539D2*
X3906001D1*
X3963069D2*
X4552311D1*
X4602417D2*
X4635526D1*
X4704292D2*
X4735535D1*
X4804302D2*
X4938748D1*
X4988818D2*
X5073098D1*
X83665Y2648970D2*
X215025D1*
X265096D2*
X1491641D1*
X4441082D2*
X4552311D1*
X4602417D2*
X4660394D1*
X4729160D2*
X4760403D1*
X4829169D2*
X4938748D1*
X4988818D2*
X5073098D1*
X83665Y2624101D2*
X215025D1*
X265096D2*
X1517155D1*
X4450053D2*
X4552311D1*
X4602417D2*
X4685262D1*
X4754028D2*
X4785271D1*
X4854037D2*
X4938748D1*
X4988818D2*
X5073098D1*
X83665Y2599232D2*
X215025D1*
X265096D2*
X4324410D1*
X4450053D2*
X4552311D1*
X4602417D2*
X4710129D1*
X4778896D2*
X4810139D1*
X4878905D2*
X4938748D1*
X4988818D2*
X5073098D1*
X83665Y2574364D2*
X215025D1*
X265096D2*
X1111663D1*
X4303717D2*
X4338728D1*
X4388835D2*
X4399947D1*
X4450053D2*
X4552311D1*
X4602417D2*
X4734997D1*
X4803763D2*
X4835006D1*
X4903773D2*
X4938748D1*
X4988818D2*
X5073098D1*
X83665Y2549495D2*
X215025D1*
X265096D2*
X1108757D1*
X4465806D2*
X4484203D1*
X4665789D2*
X4684185D1*
X83665Y2524626D2*
X215025D1*
X265096D2*
X1125515D1*
X1174509D2*
X3673722D1*
X83665Y2499757D2*
X215025D1*
X265096D2*
X3677203D1*
X83665Y2474888D2*
X215025D1*
X265096D2*
X1289075D1*
X1445685D2*
X1502837D1*
X4649605D2*
X4693587D1*
X4885041D2*
X4900387D1*
X83665Y2450020D2*
X215025D1*
X443548D2*
X617394D1*
X796289D2*
X1276336D1*
X1458424D2*
X1496091D1*
X4514680D2*
X4552311D1*
X4602417D2*
X4688491D1*
X4891823D2*
X4938748D1*
X4988818D2*
X5073098D1*
X83665Y2425151D2*
X215025D1*
X443548D2*
X617359D1*
X796325D2*
X1276336D1*
X1458424D2*
X1496091D1*
X1546161D2*
X1632235D1*
X1811166D2*
X2295088D1*
X2477176D2*
X2650987D1*
X2829918D2*
X3320084D1*
X3502172D2*
X3675983D1*
X3854914D2*
X4332592D1*
X4514680D2*
X4552311D1*
X4602417D2*
X4688491D1*
X4891823D2*
X4938748D1*
X4988818D2*
X5073098D1*
X83665Y2400282D2*
X215025D1*
X443548D2*
X617359D1*
X796325D2*
X1276336D1*
X1458424D2*
X1496091D1*
X1546161D2*
X1632235D1*
X1811166D2*
X2295088D1*
X2477176D2*
X2650987D1*
X2829918D2*
X3320084D1*
X3502172D2*
X3675983D1*
X3854914D2*
X4332592D1*
X4514680D2*
X4552311D1*
X4602417D2*
X4688491D1*
X4891823D2*
X4938748D1*
X4988818D2*
X5073098D1*
X83665Y2375413D2*
X215025D1*
X443548D2*
X617359D1*
X796325D2*
X1276336D1*
X1458424D2*
X1496091D1*
X1546161D2*
X1632235D1*
X1811166D2*
X2295088D1*
X2477176D2*
X2650987D1*
X2829918D2*
X3320084D1*
X3502172D2*
X3675983D1*
X3854914D2*
X4332592D1*
X4514680D2*
X4552311D1*
X4602417D2*
X4688491D1*
X4891823D2*
X4938748D1*
X4988818D2*
X5073098D1*
X83665Y2350545D2*
X215025D1*
X443548D2*
X617359D1*
X796325D2*
X1276336D1*
X1458424D2*
X1496091D1*
X1546161D2*
X1632235D1*
X1811166D2*
X2295088D1*
X2477176D2*
X2650987D1*
X2829918D2*
X3320084D1*
X3502172D2*
X3675983D1*
X3854914D2*
X3868143D1*
X3885702D2*
X4068161D1*
X4085725D2*
X4332592D1*
X4514680D2*
X4552311D1*
X4602417D2*
X4688491D1*
X4891823D2*
X4938748D1*
X4988818D2*
X5073098D1*
X83665Y2325676D2*
X215025D1*
X443548D2*
X617359D1*
X796325D2*
X1276336D1*
X1458424D2*
X1496091D1*
X1546161D2*
X1632235D1*
X1811166D2*
X2295088D1*
X2477176D2*
X2650987D1*
X2837238D2*
X3320084D1*
X3502172D2*
X3675983D1*
X4116402D2*
X4332628D1*
X4514609D2*
X4552311D1*
X4602417D2*
X4688527D1*
X4891823D2*
X4938748D1*
X4988818D2*
X5073098D1*
X83665Y2300807D2*
X215025D1*
X438560D2*
X622921D1*
X790763D2*
X1290295D1*
X1444465D2*
X1496091D1*
X1546161D2*
X2309047D1*
X2463217D2*
X2793376D1*
X2862106D2*
X3334043D1*
X3488213D2*
X3740395D1*
X3790502D2*
X3836314D1*
X4117550D2*
X4552311D1*
X4602417D2*
X4841753D1*
X4891823D2*
X4938748D1*
X4988818D2*
X5073098D1*
X83665Y2275938D2*
X215025D1*
X265096D2*
X1496091D1*
X1546161D2*
X2818243D1*
X2886974D2*
X3740395D1*
X3790502D2*
X3856947D1*
X3896898D2*
X4056966D1*
X4096917D2*
X4552311D1*
X4602417D2*
X4841753D1*
X4891823D2*
X4938748D1*
X4988818D2*
X5073098D1*
X83665Y2251070D2*
X215025D1*
X265096D2*
X1488806D1*
X1553410D2*
X2843111D1*
X2911841D2*
X3740395D1*
X3790502D2*
X4551988D1*
X4602704D2*
X4841753D1*
X4891823D2*
X4938748D1*
X4988818D2*
X5073098D1*
X83665Y2226201D2*
X215025D1*
X265096D2*
X1479046D1*
X1563170D2*
X2867979D1*
X2936709D2*
X3740395D1*
X3790502D2*
X4535984D1*
X4618745D2*
X4841753D1*
X4891823D2*
X4938748D1*
X4988818D2*
X5073098D1*
X83665Y2201332D2*
X215025D1*
X265096D2*
X1486868D1*
X1555347D2*
X2892847D1*
X2961577D2*
X3740395D1*
X3790502D2*
X4539321D1*
X4615407D2*
X4841753D1*
X4891823D2*
X4938748D1*
X4988818D2*
X5073098D1*
X83665Y2176463D2*
X215025D1*
X265096D2*
X2917714D1*
X2986445D2*
X3740969D1*
X4479012D2*
X4841753D1*
X4891823D2*
X4938748D1*
X4988818D2*
X5073098D1*
X83665Y2151595D2*
X215025D1*
X265096D2*
X376647D1*
X485855D2*
X498690D1*
X560638D2*
X594895D1*
X661293D2*
X1389120D1*
X1581758D2*
X1605753D1*
X1680189D2*
X2407836D1*
X2600510D2*
X2624505D1*
X2698941D2*
X2942582D1*
X3011312D2*
X3432868D1*
X3625506D2*
X3649501D1*
X3723936D2*
X3761136D1*
X4644258D2*
X4655729D1*
X4742689D2*
X4841753D1*
X4891823D2*
X4938748D1*
X4988818D2*
X5073098D1*
X83665Y2126726D2*
X215025D1*
X265096D2*
X373884D1*
X683182D2*
X1388725D1*
X1697628D2*
X2407477D1*
X2723737D2*
X2967450D1*
X4219892D2*
X4444981D1*
X4753920D2*
X4841753D1*
X4891823D2*
X4938748D1*
X4988818D2*
X5073098D1*
X83665Y2101857D2*
X215025D1*
X265096D2*
X314353D1*
X327883D2*
X373884D1*
X684366D2*
X1388725D1*
X1697664D2*
X2407477D1*
X2748604D2*
X2992318D1*
X4225490D2*
X4444981D1*
X4753597D2*
X4841753D1*
X4891823D2*
X4938748D1*
X4988818D2*
X5073098D1*
X83665Y2076988D2*
X215025D1*
X265096D2*
X281770D1*
X360440D2*
X373884D1*
X677369D2*
X1388725D1*
X1585347D2*
X1602164D1*
X3727525D2*
X4160455D1*
X4733753D2*
X4841753D1*
X4891823D2*
X4938748D1*
X4988818D2*
X5073098D1*
X83665Y2052119D2*
X215025D1*
X265096D2*
X280406D1*
X361804D2*
X388095D1*
X474408D2*
X1624412D1*
X2680245D2*
X2729574D1*
X3705241D2*
X4206459D1*
X4711505D2*
X4841753D1*
X4891823D2*
X4938748D1*
X4988818D2*
X5073098D1*
X83665Y2027251D2*
X215025D1*
X265096D2*
X296087D1*
X346158D2*
X2375217D1*
X4890926D2*
X4938748D1*
X4988818D2*
X5073098D1*
X83665Y2002382D2*
X215025D1*
X265096D2*
X296087D1*
X346158D2*
X2350349D1*
X4869288D2*
X4938748D1*
X4988818D2*
X5073098D1*
X83665Y1977513D2*
X215025D1*
X265096D2*
X296087D1*
X346158D2*
X2325482D1*
X2394212D2*
X4938748D1*
X4988818D2*
X5073098D1*
X83665Y1952644D2*
X215025D1*
X265096D2*
X296087D1*
X346158D2*
X2300614D1*
X2369344D2*
X4938748D1*
X4988818D2*
X5073098D1*
X83665Y1927776D2*
X215025D1*
X265096D2*
X296087D1*
X346158D2*
X2275746D1*
X2344477D2*
X4938748D1*
X4988818D2*
X5073098D1*
X83665Y1902907D2*
X215025D1*
X265096D2*
X296087D1*
X346158D2*
X2250879D1*
X2319609D2*
X4938748D1*
X4988818D2*
X5073098D1*
X83665Y1878038D2*
X215025D1*
X265096D2*
X296087D1*
X346158D2*
X2226011D1*
X2294741D2*
X4938748D1*
X4988818D2*
X5073098D1*
X117109Y1853169D2*
X215025D1*
X265096D2*
X296087D1*
X346158D2*
X2201143D1*
X2269873D2*
X4938748D1*
X4988818D2*
X5073098D1*
X157730Y1828301D2*
X215025D1*
X265096D2*
X296087D1*
X346158D2*
X2176275D1*
X2245006D2*
X4938748D1*
X4988818D2*
X5073098D1*
X164907Y1803432D2*
X215025D1*
X265096D2*
X296087D1*
X346158D2*
X2151408D1*
X2220138D2*
X4938748D1*
X4988818D2*
X5073098D1*
X83665Y1778563D2*
X114836D1*
X164907D2*
X215025D1*
X265096D2*
X296087D1*
X346158D2*
X2126540D1*
X2195270D2*
X4938748D1*
X4988818D2*
X5073098D1*
X83665Y1753694D2*
X99047D1*
X180696D2*
X215025D1*
X265096D2*
X296805D1*
X361122D2*
X2101636D1*
X2170402D2*
X4938748D1*
X4988818D2*
X5073098D1*
X83665Y1728825D2*
X100698D1*
X179045D2*
X215025D1*
X265096D2*
X317223D1*
X385989D2*
X2076768D1*
X2145535D2*
X3959755D1*
X3994970D2*
X4938748D1*
X4988818D2*
X5073098D1*
X83665Y1703957D2*
X215025D1*
X265096D2*
X342091D1*
X410857D2*
X2051901D1*
X2120667D2*
X3937041D1*
X4988818D2*
X5073098D1*
X99382Y1679088D2*
X205229D1*
X274892D2*
X366959D1*
X459050D2*
X2027033D1*
X2095799D2*
X3937543D1*
X4972814D2*
X5073098D1*
X97875Y1654219D2*
X198016D1*
X282105D2*
X391826D1*
X475018D2*
X2002165D1*
X2070931D2*
X3963846D1*
X3990915D2*
X5073098D1*
X45018Y1629350D2*
X208530D1*
X271591D2*
X395594D1*
X471645D2*
X1977297D1*
X2046064D2*
X5073098D1*
X45018Y1604482D2*
X1952430D1*
X2021196D2*
X5073098D1*
X45018Y1579613D2*
X1927562D1*
X1996328D2*
X5073098D1*
X45018Y1554744D2*
X1902694D1*
X1971460D2*
X4776192D1*
X4973783D2*
X5073098D1*
X45018Y1529875D2*
X1877827D1*
X1946593D2*
X4768728D1*
X4981282D2*
X5073098D1*
X45018Y1505007D2*
X1852959D1*
X1921725D2*
X4769625D1*
X4980385D2*
X5073098D1*
X45018Y1480138D2*
X1828091D1*
X1896857D2*
X4791335D1*
X4858666D2*
X4891309D1*
X4958675D2*
X5073098D1*
X45018Y1455269D2*
X1803223D1*
X1871989D2*
X4776731D1*
X4973280D2*
X5073098D1*
X45018Y1430400D2*
X1778356D1*
X1847122D2*
X4768728D1*
X4981282D2*
X5073098D1*
X45018Y1405532D2*
X1753488D1*
X1822254D2*
X2293724D1*
X2360983D2*
X2789213D1*
X2849762D2*
X4769446D1*
X4980529D2*
X5073098D1*
X45018Y1380663D2*
X753073D1*
X851659D2*
X1247377D1*
X1341621D2*
X1728620D1*
X1797386D2*
X2269072D1*
X2385636D2*
X2763018D1*
X2875957D2*
X3803085D1*
X3901671D2*
X4297354D1*
X4391634D2*
X4790797D1*
X4859204D2*
X4890806D1*
X4959214D2*
X5073098D1*
X45018Y1355794D2*
X738898D1*
X865833D2*
X1232665D1*
X1356334D2*
X1703752D1*
X1772519D2*
X2261464D1*
X2393243D2*
X2755159D1*
X2883816D2*
X3788875D1*
X3915845D2*
X4282641D1*
X4406310D2*
X4777269D1*
X4972742D2*
X5073098D1*
X45018Y1330925D2*
X736530D1*
X868201D2*
X1230260D1*
X1358738D2*
X1658215D1*
X1747651D2*
X2264120D1*
X2390588D2*
X2757886D1*
X2881089D2*
X3786542D1*
X3918178D2*
X4280237D1*
X4408714D2*
X4768728D1*
X4981282D2*
X5073098D1*
X45018Y1306056D2*
X744496D1*
X860235D2*
X1238442D1*
X1350520D2*
X1636828D1*
X1722783D2*
X2278796D1*
X2375911D2*
X2773137D1*
X2865838D2*
X3794509D1*
X3910211D2*
X4288454D1*
X4400533D2*
X4769338D1*
X4980672D2*
X5073098D1*
X45018Y1281188D2*
X770153D1*
X834542D2*
X1265822D1*
X1323141D2*
X1637725D1*
X1716934D2*
X3820166D1*
X3884554D2*
X4315834D1*
X4373153D2*
X4790259D1*
X4859743D2*
X4890268D1*
X4959716D2*
X5073098D1*
X45018Y1256319D2*
X1666397D1*
X1688270D2*
X2819320D1*
X4379792D2*
X4777771D1*
X4972240D2*
X5073098D1*
X45018Y1231450D2*
X2788818D1*
X4386466D2*
X4768728D1*
X4981282D2*
X5073098D1*
X45018Y1206581D2*
X2290243D1*
X2364464D2*
X2763951D1*
X4375378D2*
X4769195D1*
X4980816D2*
X5073098D1*
X45018Y1181713D2*
X751207D1*
X853525D2*
X1245404D1*
X1343559D2*
X2267959D1*
X2386748D2*
X2739083D1*
X2882416D2*
X3801219D1*
X3903501D2*
X4229604D1*
X4393571D2*
X4789756D1*
X4860245D2*
X4889730D1*
X4960254D2*
X5073098D1*
X45018Y1156844D2*
X738288D1*
X866443D2*
X1232055D1*
X1356908D2*
X2261321D1*
X2393423D2*
X2714215D1*
X2883959D2*
X3788301D1*
X3916419D2*
X4282067D1*
X4406920D2*
X4776085D1*
X4973926D2*
X5073098D1*
X45018Y1131975D2*
X736781D1*
X867914D2*
X1230512D1*
X1358451D2*
X2264837D1*
X2389906D2*
X2665233D1*
X2880335D2*
X3786793D1*
X3917926D2*
X4280524D1*
X4408463D2*
X4767149D1*
X4982861D2*
X5073098D1*
X45018Y1107106D2*
X745752D1*
X858979D2*
X1239734D1*
X1349229D2*
X2280914D1*
X2373830D2*
X2654109D1*
X2738090D2*
X2775326D1*
X2863649D2*
X3795765D1*
X3908955D2*
X4289746D1*
X4399241D2*
X4767472D1*
X4982503D2*
X5073098D1*
X45018Y1082238D2*
X774531D1*
X830164D2*
X1270953D1*
X1318045D2*
X2660784D1*
X2731452D2*
X3824544D1*
X3880176D2*
X4320930D1*
X4368022D2*
X4786993D1*
X4863008D2*
X4887003D1*
X4963017D2*
X5073098D1*
X45018Y1057369D2*
X5073098D1*
X45018Y1032500D2*
X5073098D1*
X45018Y1007631D2*
X5073098D1*
X45018Y982762D2*
X5073098D1*
X45018Y957894D2*
X5073098D1*
X45018Y933025D2*
X5073098D1*
X45018Y908156D2*
X5073098D1*
X45018Y883287D2*
X5073098D1*
X45018Y858419D2*
X5073098D1*
X45018Y833550D2*
X5073098D1*
X45018Y808681D2*
X5073098D1*
X45018Y783812D2*
X5073098D1*
X45018Y758944D2*
X5073098D1*
X45018Y734075D2*
X5073098D1*
X45018Y709206D2*
X461406D1*
X598424D2*
X1482526D1*
X1619544D2*
X2478958D1*
X2635605D2*
X3563630D1*
X3653603D2*
X4536414D1*
X4673432D2*
X5073098D1*
X45018Y684337D2*
X437758D1*
X622072D2*
X1458879D1*
X1643156D2*
X2462882D1*
X2651717D2*
X3548379D1*
X3668818D2*
X3775239D1*
X3841995D2*
X4512766D1*
X4697044D2*
X5073098D1*
X45018Y659469D2*
X432411D1*
X627418D2*
X1453532D1*
X1648539D2*
X2459796D1*
X2654803D2*
X3545939D1*
X3671294D2*
X3766519D1*
X4702426D2*
X5073098D1*
X45018Y634600D2*
X437830D1*
X622000D2*
X1458950D1*
X1643120D2*
X2468552D1*
X2646011D2*
X3554407D1*
X3662790D2*
X3775382D1*
X3841852D2*
X4512838D1*
X4697008D2*
X5073098D1*
X45018Y609731D2*
X461693D1*
X598173D2*
X1482813D1*
X1619257D2*
X2506446D1*
X2608118D2*
X3584048D1*
X3633185D2*
X4536701D1*
X4673145D2*
X5073098D1*
X45018Y584862D2*
X5073098D1*
X45018Y559993D2*
X3358013D1*
X3440128D2*
X3678997D1*
X3761077D2*
X5073098D1*
X45018Y535125D2*
X321206D1*
X391264D2*
X1342327D1*
X1412385D2*
X2341127D1*
X2426113D2*
X3341722D1*
X3456384D2*
X3662706D1*
X3777368D2*
X4396215D1*
X4466273D2*
X5073098D1*
X45018Y510256D2*
X300788D1*
X411718D2*
X707823D1*
X724346D2*
X1321909D1*
X1432839D2*
X1728943D1*
X1745462D2*
X2326056D1*
X2441184D2*
X2713605D1*
X2773293D2*
X3338995D1*
X3459147D2*
X3659943D1*
X3780131D2*
X4375796D1*
X4486727D2*
X4782831D1*
X4799329D2*
X5073098D1*
X45018Y485387D2*
X296159D1*
X416347D2*
X664475D1*
X767690D2*
X1317280D1*
X1437432D2*
X1685595D1*
X1788810D2*
X2323544D1*
X2443696D2*
X2687912D1*
X2799022D2*
X3338995D1*
X3459147D2*
X3659943D1*
X3780131D2*
X4371167D1*
X4491320D2*
X4739483D1*
X4842698D2*
X5073098D1*
X45018Y460518D2*
X296159D1*
X416347D2*
X653996D1*
X778204D2*
X1317280D1*
X1437432D2*
X1675081D1*
X1799324D2*
X2323544D1*
X2443696D2*
X2680592D1*
X2806342D2*
X3338995D1*
X3459147D2*
X3659943D1*
X3780131D2*
X4371167D1*
X4491320D2*
X4728969D1*
X4853212D2*
X5073098D1*
X45018Y435650D2*
X296159D1*
X416347D2*
X654786D1*
X777414D2*
X1317280D1*
X1437432D2*
X1675906D1*
X1798499D2*
X2323544D1*
X2443696D2*
X2684037D1*
X2802861D2*
X3339784D1*
X3458358D2*
X3660732D1*
X3779306D2*
X4371167D1*
X4491320D2*
X4729794D1*
X4852386D2*
X5073098D1*
X45018Y410781D2*
X296195D1*
X416312D2*
X667489D1*
X764711D2*
X1317316D1*
X1437396D2*
X1688609D1*
X1785796D2*
X2324549D1*
X2442692D2*
X2701010D1*
X2785924D2*
X3348719D1*
X3449422D2*
X3669667D1*
X3770371D2*
X4371203D1*
X4491284D2*
X4742497D1*
X4839683D2*
X5073098D1*
X45018Y385912D2*
X302977D1*
X409529D2*
X457387D1*
X602479D2*
X1324098D1*
X1430614D2*
X1475349D1*
X1626721D2*
X2333950D1*
X2433290D2*
X2474760D1*
X2639768D2*
X3383814D1*
X3414364D2*
X3695002D1*
X3745072D2*
X4377985D1*
X4484502D2*
X4532395D1*
X4677451D2*
X5073098D1*
X45018Y361043D2*
X327127D1*
X622897D2*
X1348248D1*
X1406464D2*
X1456367D1*
X1645704D2*
X2460335D1*
X2654229D2*
X3550747D1*
X3666522D2*
X3695002D1*
X3745072D2*
X4301229D1*
X4697905D2*
X5073098D1*
X45018Y336175D2*
X336601D1*
X627418D2*
X1451953D1*
X1650118D2*
X2458289D1*
X2656274D2*
X3518954D1*
X3745072D2*
X3968044D1*
X4035842D2*
X4268826D1*
X4702426D2*
X5073098D1*
X45018Y311306D2*
X438763D1*
X621067D2*
X1458161D1*
X1643910D2*
X2468444D1*
X2646119D2*
X3511095D1*
X4312688D2*
X4513771D1*
X4696075D2*
X5073098D1*
X45018Y286437D2*
X465712D1*
X594118D2*
X1483675D1*
X1618396D2*
X2510608D1*
X2603991D2*
X3514648D1*
X3702585D2*
X3969265D1*
X4034586D2*
X4540720D1*
X4669126D2*
X5073098D1*
X45018Y261568D2*
X3531800D1*
X3685433D2*
X5073098D1*
X45018Y236700D2*
X5073098D1*
X45018Y211831D2*
X5073098D1*
X45018Y186962D2*
X5073098D1*
X45018Y162093D2*
X5073098D1*
X45018Y137224D2*
X5073098D1*
X45018Y112356D2*
X5073098D1*
X45018Y87487D2*
X5073098D1*
X45018Y62618D2*
X5073098D1*
X4775878Y1154148D2*
X4797103Y1175279D1*
X4796987Y1176971D1*
X4774970Y1199328D1*
X4772720Y1203346D1*
X4771471Y1207777D1*
X4771230Y1214516D1*
X4771471Y1242223D1*
X4772720Y1246654D1*
X4774970Y1250672D1*
X4779565Y1255607D1*
X4798125Y1274081D1*
X4798121Y1275922D1*
X4775922Y1298121D1*
X4773364Y1301949D1*
X4771771Y1306269D1*
X4771230Y1310847D1*
X4771471Y1342223D1*
X4772721Y1346654D1*
X4774970Y1350672D1*
X4779565Y1355607D1*
X4798125Y1374081D1*
X4798121Y1375922D1*
X4775922Y1398121D1*
X4773364Y1401949D1*
X4771771Y1406269D1*
X4771230Y1410847D1*
X4771471Y1442223D1*
X4772721Y1446654D1*
X4774970Y1450672D1*
X4779565Y1455607D1*
X4798125Y1474081D1*
X4798121Y1475922D1*
X4775922Y1498121D1*
X4773364Y1501949D1*
X4771771Y1506269D1*
X4771230Y1510847D1*
X4771471Y1542223D1*
X4772721Y1546654D1*
X4774970Y1550672D1*
X4776971Y1553013D1*
X4799328Y1575030D1*
X4803346Y1577279D1*
X4807777Y1578529D1*
X4810841Y1578770D1*
X4842223Y1578529D1*
X4846654Y1577279D1*
X4850672Y1575030D1*
X4853013Y1573029D1*
X4874081Y1551875D1*
X4875922Y1551879D1*
X4898121Y1574078D1*
X4901949Y1576636D1*
X4906269Y1578229D1*
X4910847Y1578770D1*
X4942223Y1578529D1*
X4946654Y1577279D1*
X4950672Y1575030D1*
X4953013Y1573029D1*
X4975030Y1550672D1*
X4977279Y1546654D1*
X4978529Y1542223D1*
X4978770Y1539153D1*
X4978529Y1507777D1*
X4977279Y1503346D1*
X4975030Y1499328D1*
X4973029Y1496987D1*
X4951875Y1475919D1*
X4951879Y1474078D1*
X4974078Y1451879D1*
X4976636Y1448051D1*
X4978229Y1443731D1*
X4978770Y1439153D1*
X4978529Y1407777D1*
X4977279Y1403346D1*
X4975030Y1399328D1*
X4970435Y1394393D1*
X4951875Y1375919D1*
X4951879Y1374078D1*
X4974078Y1351879D1*
X4976636Y1348051D1*
X4978229Y1343731D1*
X4978770Y1339153D1*
X4978529Y1307777D1*
X4977279Y1303346D1*
X4975030Y1299328D1*
X4970435Y1294393D1*
X4951875Y1275919D1*
X4951879Y1274078D1*
X4974078Y1251879D1*
X4976636Y1248051D1*
X4978229Y1243731D1*
X4978770Y1239153D1*
X4978529Y1207777D1*
X4977280Y1203346D1*
X4975030Y1199328D1*
X4970435Y1194393D1*
X4953004Y1176962D1*
X4952902Y1175275D1*
X4975275Y1152902D1*
X4978039Y1148766D1*
X4979760Y1144099D1*
X4980345Y1139152D1*
X4980280Y1109181D1*
X4979309Y1104302D1*
X4977227Y1099784D1*
X4974142Y1095873D1*
X4952902Y1074725D1*
X4948766Y1071961D1*
X4944099Y1070240D1*
X4939152Y1069655D1*
X4909181Y1069720D1*
X4904302Y1070690D1*
X4899784Y1072773D1*
X4895878Y1075853D1*
X4875848Y1095882D1*
X4874142Y1095873D1*
X4852902Y1074725D1*
X4848766Y1071961D1*
X4844099Y1070240D1*
X4839152Y1069655D1*
X4809181Y1069720D1*
X4804302Y1070691D1*
X4799784Y1072773D1*
X4795873Y1075858D1*
X4774725Y1097098D1*
X4771961Y1101234D1*
X4770240Y1105901D1*
X4769655Y1110848D1*
X4769720Y1140819D1*
X4770691Y1145698D1*
X4772773Y1150216D1*
X4775858Y1154127D1*
X4788009Y1166278D1*
X4854148Y1174122D2*
X4874152Y1154117D1*
X4875858Y1154127D1*
X4897103Y1175279D1*
X4896987Y1176971D1*
X4875919Y1198125D1*
X4874078Y1198121D1*
X4853004Y1176962D1*
X4852902Y1175275D1*
X4869875Y1158394D1*
X4769655Y1135555D2*
Y1119820D1*
X4867376Y1089107D2*
X4859493Y1081224D1*
X4782633Y1089098D2*
X4790498Y1081233D1*
X4853024Y1273018D2*
X4874081Y1251875D1*
X4875922Y1251879D1*
X4898125Y1274081D1*
X4898121Y1275922D1*
X4875919Y1298125D1*
X4874078Y1298121D1*
X4851875Y1275919D1*
X4851879Y1274078D1*
X4868761Y1257281D1*
X4866262Y1190220D2*
X4858380Y1182338D1*
X4853024Y1373018D2*
X4874081Y1351875D1*
X4875922Y1351879D1*
X4898125Y1374081D1*
X4898121Y1375922D1*
X4875919Y1398125D1*
X4874078Y1398121D1*
X4851875Y1375919D1*
X4851879Y1374078D1*
X4860887Y1365155D1*
X4853024Y1473018D2*
X4874081Y1451875D1*
X4875922Y1451879D1*
X4898125Y1474081D1*
X4898121Y1475922D1*
X4875919Y1498125D1*
X4874078Y1498121D1*
X4851875Y1475919D1*
X4851879Y1474078D1*
X4868761Y1457281D1*
X4881248Y1457290D1*
X4889122Y1465164D1*
X4891616Y1482342D1*
X4883746Y1490212D1*
X4866254D1*
X4858380Y1482338D1*
X4789113Y1465155D2*
X4791612Y1482346D1*
X4783738Y1490220D1*
X4771230Y1435556D2*
Y1419820D1*
X4860878Y1565164D2*
X4868761Y1557281D1*
X4789113Y1565155D2*
X4781248Y1557290D1*
X4771230Y1535556D2*
Y1519820D1*
X4961991Y1166278D2*
X4969875Y1158394D1*
X4980345Y1135568D2*
Y1111933D1*
X4967376Y1089107D2*
X4959493Y1081224D1*
X4960878Y1365164D2*
X4968761Y1357281D1*
X4889113Y1365155D2*
X4891612Y1382346D1*
X4883738Y1390220D1*
X4978770Y1335568D2*
Y1319808D1*
X4960878Y1465164D2*
X4968761Y1457281D1*
X4978770Y1435568D2*
Y1411934D1*
X4966262Y1390220D2*
X4958380Y1382338D1*
X4960878Y1565164D2*
X4968761Y1557281D1*
X4978770Y1535568D2*
Y1511934D1*
X4966262Y1490220D2*
X4958380Y1482338D1*
X1853062Y3546500D2*
X1851734Y3538761D1*
X2482066Y2908421D1*
X3229003Y2908407D1*
X3226137Y2915091D1*
X3224687Y2921132D1*
X3224199Y2927324D1*
X3224687Y2933517D1*
X3226137Y2939557D1*
X3228514Y2945296D1*
X3231760Y2950593D1*
X3235794Y2955316D1*
X3240517Y2959351D1*
X3245814Y2962596D1*
X3251553Y2964973D1*
X3257593Y2966424D1*
X3263786Y2966911D1*
X3269979Y2966424D1*
X3276019Y2964973D1*
X3281758Y2962596D1*
X3287054Y2959351D1*
X3291778Y2955316D1*
X3296305Y2949856D1*
X3992486Y2949864D1*
X3997007Y2955316D1*
X4001730Y2959351D1*
X4007027Y2962596D1*
X4012766Y2964973D1*
X4018806Y2966424D1*
X4024999Y2966911D1*
X4031192Y2966424D1*
X4037232Y2964973D1*
X4042971Y2962596D1*
X4048267Y2959351D1*
X4052991Y2955316D1*
X4057025Y2950593D1*
X4060271Y2945296D1*
X4062648Y2939557D1*
X4064098Y2933517D1*
X4064585Y2927324D1*
X4064098Y2921132D1*
X4062648Y2915091D1*
X4060271Y2909352D1*
X4059743Y2908410D1*
X4559652Y2908338D1*
X4564848Y2907304D1*
X4569660Y2905086D1*
X4573821Y2901805D1*
X4910102Y2565524D1*
X4917317Y2567260D1*
X4925000Y2567865D1*
X4932683Y2567260D1*
X4940177Y2565461D1*
X4941237Y2565070D1*
X4941242Y3072383D1*
X4932683Y3070241D1*
X4925000Y3069636D1*
X4917317Y3070241D1*
X4909823Y3072040D1*
X4902703Y3074990D1*
X4896131Y3079016D1*
X4890271Y3084022D1*
X4885266Y3089882D1*
X4881239Y3096453D1*
X4878290Y3103574D1*
X4876491Y3111068D1*
X4875886Y3118751D1*
X4876491Y3126434D1*
X4878290Y3133928D1*
X4881239Y3141048D1*
X4885266Y3147619D1*
X4890271Y3153480D1*
X4896131Y3158485D1*
X4902453Y3162372D1*
X4902460Y3364521D1*
X4898759Y3368288D1*
X4895108Y3373313D1*
X4892288Y3378848D1*
X4891636Y3380614D1*
X4847540Y3336510D1*
Y3162370D1*
X4853869Y3158485D1*
X4859729Y3153480D1*
X4864734Y3147619D1*
X4868761Y3141048D1*
X4871710Y3133928D1*
X4873509Y3126434D1*
X4874114Y3118751D1*
X4873509Y3111068D1*
X4871710Y3103574D1*
X4868761Y3096453D1*
X4864734Y3089882D1*
X4859729Y3084022D1*
X4853869Y3079016D1*
X4847297Y3074990D1*
X4840177Y3072040D1*
X4832683Y3070241D1*
X4825000Y3069636D1*
X4817317Y3070241D1*
X4810098Y3071963D1*
X4742357Y3004330D1*
X4737951Y3001386D1*
X4732980Y2999552D1*
X4727719Y2998930D1*
X4364032D1*
X4364585Y2992218D1*
X4364098Y2986026D1*
X4362648Y2979985D1*
X4360271Y2974246D1*
X4357025Y2968950D1*
X4352991Y2964226D1*
X4348267Y2960192D1*
X4342971Y2956946D1*
X4337232Y2954569D1*
X4331192Y2953119D1*
X4324999Y2952632D1*
X4318806Y2953119D1*
X4312766Y2954569D1*
X4307027Y2956946D1*
X4301730Y2960192D1*
X4297007Y2964226D1*
X4292480Y2969687D1*
X3808518Y2969679D1*
X3803979Y2964226D1*
X3799255Y2960192D1*
X3793959Y2956946D1*
X3788220Y2954569D1*
X3782180Y2953119D1*
X3775987Y2952632D1*
X3769794Y2953119D1*
X3763754Y2954569D1*
X3758015Y2956946D1*
X3752718Y2960192D1*
X3747995Y2964226D1*
X3743961Y2968950D1*
X3740715Y2974246D1*
X3738338Y2979985D1*
X3737913Y2981493D1*
X3732270Y2976234D1*
X3727647Y2973645D1*
X3722548Y2972207D1*
X3718771Y2971930D1*
X3714215Y2966477D1*
X3709491Y2962443D1*
X3704195Y2959197D1*
X3698456Y2956820D1*
X3692416Y2955370D1*
X3686223Y2954883D1*
X3680030Y2955370D1*
X3673990Y2956820D1*
X3668251Y2959197D1*
X3662954Y2962443D1*
X3658231Y2966477D1*
X3654197Y2971201D1*
X3650951Y2976497D1*
X3648574Y2982236D1*
X3647124Y2988277D1*
X3646636Y2994469D1*
X3647124Y3000662D1*
X3648574Y3006702D1*
X3650951Y3012441D1*
X3654197Y3017738D1*
X3658231Y3022461D1*
X3662954Y3026496D1*
X3668251Y3029741D1*
X3673990Y3032118D1*
X3680030Y3033569D1*
X3686223Y3034056D1*
X3692416Y3033569D1*
X3698456Y3032118D1*
X3704195Y3029741D1*
X3709491Y3026496D1*
X3714652Y3021989D1*
X3731384Y3038609D1*
X3735789Y3041552D1*
X3740760Y3043386D1*
X3746029Y3044009D1*
X4490224D1*
X4487350Y3050689D1*
X4485900Y3056730D1*
X4485412Y3062922D1*
X4485844Y3068645D1*
X4478550Y3061734D1*
X4473927Y3059145D1*
X4468828Y3057707D1*
X4465295Y3057430D1*
X4396655Y3057499D1*
X4391459Y3058533D1*
X4386647Y3060751D1*
X4382481Y3064036D1*
X4369080Y3077536D1*
X4366136Y3081942D1*
X4364302Y3086913D1*
X4363956Y3088655D1*
X4356897Y3081404D1*
X4350662Y3076874D1*
X4343795Y3073375D1*
X4336465Y3070994D1*
X4328853Y3069788D1*
X4321147D1*
X4313535Y3070994D1*
X4306205Y3073375D1*
X4299338Y3076874D1*
X4293103Y3081404D1*
X4287653Y3086854D1*
X4283123Y3093089D1*
X4279624Y3099955D1*
X4277243Y3107285D1*
X4276037Y3114897D1*
Y3122604D1*
X4277243Y3130216D1*
X4279624Y3137546D1*
X4283123Y3144413D1*
X4287653Y3150648D1*
X4293103Y3156097D1*
X4299338Y3160627D1*
X4302453Y3162372D1*
X4302530Y3274085D1*
X4303564Y3279282D1*
X4305782Y3284093D1*
X4309062Y3288254D1*
X4322567Y3301661D1*
X4326972Y3304604D1*
X4331943Y3306438D1*
X4337205Y3307061D1*
X4508767D1*
X4513326Y3312513D1*
X4518049Y3316548D1*
X4523346Y3319793D1*
X4529085Y3322170D1*
X4535125Y3323621D1*
X4541318Y3324108D1*
X4547511Y3323621D1*
X4553551Y3322170D1*
X4559290Y3319793D1*
X4564586Y3316548D1*
X4569310Y3312513D1*
X4573344Y3307790D1*
X4576590Y3302493D1*
X4578967Y3296754D1*
X4580417Y3290714D1*
X4580904Y3284521D1*
X4580417Y3278329D1*
X4578967Y3272288D1*
X4576590Y3266549D1*
X4573344Y3261253D1*
X4570703Y3258036D1*
X4625349Y3258045D1*
X4629904Y3263497D1*
X4634627Y3267532D1*
X4639924Y3270777D1*
X4645663Y3273154D1*
X4651703Y3274605D1*
X4657896Y3275092D1*
X4664089Y3274605D1*
X4670129Y3273154D1*
X4675868Y3270777D1*
X4681164Y3267532D1*
X4685888Y3263497D1*
X4689922Y3258774D1*
X4693168Y3253477D1*
X4695545Y3247738D1*
X4696995Y3241698D1*
X4697482Y3235505D1*
X4696893Y3228801D1*
X4789031Y3228790D1*
X4789097Y3410898D1*
X4790130Y3416095D1*
X4792349Y3420906D1*
X4795629Y3425067D1*
X4895577Y3525015D1*
X4894943Y3532092D1*
X4895431Y3538285D1*
X4896881Y3544325D1*
X4899258Y3550064D1*
X4902504Y3555361D1*
X4903188Y3556228D1*
X4737313Y3556222D1*
X4619601Y3438590D1*
X4615196Y3435646D1*
X4610225Y3433812D1*
X4604963Y3433190D1*
X4538254D1*
X4533735Y3427737D1*
X4529011Y3423703D1*
X4523715Y3420457D1*
X4517976Y3418080D1*
X4511936Y3416630D1*
X4505743Y3416143D1*
X4499550Y3416630D1*
X4493510Y3418080D1*
X4487771Y3420457D1*
X4482474Y3423703D1*
X4477751Y3427737D1*
X4473717Y3432461D1*
X4470471Y3437757D1*
X4468094Y3443496D1*
X4466644Y3449537D1*
X4466445Y3451213D1*
X4462958Y3448336D1*
X4442519Y3427996D1*
X4438114Y3425052D1*
X4433143Y3423218D1*
X4427874Y3422596D1*
X3354836D1*
X3350278Y3417143D1*
X3345554Y3413109D1*
X3340258Y3409863D1*
X3334519Y3407486D1*
X3328479Y3406036D1*
X3322286Y3405549D1*
X3316093Y3406036D1*
X3310053Y3407486D1*
X3304314Y3409863D1*
X3299017Y3413109D1*
X3294294Y3417143D1*
X3290260Y3421867D1*
X3287014Y3427163D1*
X3284637Y3432902D1*
X3283187Y3438943D1*
X3282699Y3445135D1*
X3283187Y3451328D1*
X3284637Y3457368D1*
X3287014Y3463107D1*
X3290260Y3468404D1*
X3294294Y3473127D1*
X3299017Y3477162D1*
X3304314Y3480407D1*
X3310053Y3482784D1*
X3316093Y3484235D1*
X3322286Y3484722D1*
X3328479Y3484235D1*
X3334519Y3482784D1*
X3340258Y3480407D1*
X3345554Y3477162D1*
X3350278Y3473127D1*
X3354805Y3467667D1*
X3823121Y3467675D1*
X3820371Y3470770D1*
X3817940Y3475111D1*
X3816590Y3479898D1*
X3816329Y3483209D1*
Y3604677D1*
X1358968Y3604686D1*
X1363118Y3600131D1*
X1367712Y3594303D1*
X1371835Y3588133D1*
X1375461Y3581658D1*
X1378568Y3574919D1*
X1381136Y3567956D1*
X1383150Y3560814D1*
X1384598Y3553535D1*
X1385470Y3546166D1*
X1385762Y3538751D1*
X1385470Y3531335D1*
X1384598Y3523966D1*
X1383150Y3516687D1*
X1381136Y3509545D1*
X1378568Y3502583D1*
X1375461Y3495843D1*
X1371835Y3489369D1*
X1367712Y3483198D1*
X1363118Y3477371D1*
X1358080Y3471921D1*
X1352631Y3466884D1*
X1346803Y3462290D1*
X1340633Y3458167D1*
X1334158Y3454541D1*
X1327419Y3451434D1*
X1320456Y3448865D1*
X1313314Y3446851D1*
X1306035Y3445403D1*
X1298666Y3444531D1*
X1291251Y3444240D1*
X1283835Y3444531D1*
X1276466Y3445403D1*
X1269187Y3446851D1*
X1262045Y3448865D1*
X1255083Y3451434D1*
X1248343Y3454541D1*
X1241869Y3458167D1*
X1235698Y3462290D1*
X1229871Y3466884D1*
X1224421Y3471921D1*
X1219384Y3477371D1*
X1214790Y3483198D1*
X1210667Y3489369D1*
X1207041Y3495843D1*
X1203934Y3502583D1*
X1201365Y3509545D1*
X1199351Y3516687D1*
X1197903Y3523966D1*
X1197031Y3531335D1*
X1196740Y3538751D1*
X1197031Y3546166D1*
X1197903Y3553535D1*
X1199351Y3560814D1*
X1201365Y3567956D1*
X1203934Y3574919D1*
X1207041Y3581658D1*
X1210667Y3588133D1*
X1214790Y3594303D1*
X1219384Y3600131D1*
X1223575Y3604665D1*
X838934Y3604686D1*
X843118Y3600131D1*
X847712Y3594303D1*
X851835Y3588133D1*
X855461Y3581658D1*
X858568Y3574919D1*
X861136Y3567956D1*
X863150Y3560814D1*
X864598Y3553535D1*
X865470Y3546166D1*
X865762Y3538751D1*
X865470Y3531335D1*
X864598Y3523966D1*
X863150Y3516687D1*
X861136Y3509545D1*
X858568Y3502583D1*
X855461Y3495843D1*
X851835Y3489369D1*
X847712Y3483198D1*
X843118Y3477371D1*
X838080Y3471921D1*
X832631Y3466884D1*
X826803Y3462290D1*
X820633Y3458167D1*
X814158Y3454541D1*
X807419Y3451434D1*
X800456Y3448865D1*
X793314Y3446851D1*
X786035Y3445403D1*
X778666Y3444531D1*
X771251Y3444240D1*
X763835Y3444531D1*
X756466Y3445403D1*
X749187Y3446851D1*
X742045Y3448865D1*
X735083Y3451434D1*
X728343Y3454541D1*
X721869Y3458167D1*
X715698Y3462290D1*
X709871Y3466884D1*
X704421Y3471921D1*
X699384Y3477371D1*
X694790Y3483198D1*
X690667Y3489369D1*
X687041Y3495843D1*
X683934Y3502583D1*
X681365Y3509545D1*
X679351Y3516687D1*
X677903Y3523966D1*
X677031Y3531335D1*
X676740Y3538751D1*
X677031Y3546166D1*
X677903Y3553535D1*
X679351Y3560814D1*
X681365Y3567956D1*
X683934Y3574919D1*
X687041Y3581658D1*
X690667Y3588133D1*
X694790Y3594303D1*
X699384Y3600131D1*
X703575Y3604665D1*
X262634Y3604686D1*
X262600Y1688792D1*
X268052Y1684241D1*
X272086Y1679518D1*
X275332Y1674221D1*
X277709Y1668482D1*
X279159Y1662442D1*
X279646Y1656249D1*
X279159Y1650057D1*
X277709Y1644016D1*
X275332Y1638277D1*
X272086Y1632981D1*
X268052Y1628257D1*
X263328Y1624223D1*
X258032Y1620977D1*
X252293Y1618600D1*
X246253Y1617150D1*
X240060Y1616663D1*
X233867Y1617150D1*
X227827Y1618600D1*
X222088Y1620977D1*
X216791Y1624223D1*
X212068Y1628257D1*
X208034Y1632981D1*
X204788Y1638277D1*
X202411Y1644016D1*
X200961Y1650057D1*
X200473Y1656249D1*
X200961Y1662442D1*
X202411Y1668482D1*
X204788Y1674221D1*
X208034Y1679518D1*
X212068Y1684241D1*
X217528Y1688768D1*
X217590Y3616795D1*
X131256Y3616891D1*
X81126D1*
X81153Y1862979D1*
X87865Y1863572D1*
X94058Y1863085D1*
X100098Y1861634D1*
X105837Y1859257D1*
X111133Y1856012D1*
X115857Y1851977D1*
X120384Y1846517D1*
X131185Y1846248D1*
X136284Y1844809D1*
X140907Y1842220D1*
X146038Y1837483D1*
X157002Y1826420D1*
X159946Y1822014D1*
X161780Y1817043D1*
X162402Y1811774D1*
X162403Y1776292D1*
X167855Y1771741D1*
X171889Y1767018D1*
X175135Y1761721D1*
X177512Y1755982D1*
X178962Y1749942D1*
X179449Y1743749D1*
X178962Y1737557D1*
X177512Y1731516D1*
X175135Y1725777D1*
X171889Y1720481D1*
X167855Y1715757D1*
X163131Y1711723D1*
X157835Y1708477D1*
X152096Y1706100D1*
X146056Y1704650D1*
X139863Y1704163D1*
X133670Y1704650D1*
X127630Y1706100D1*
X121891Y1708477D1*
X116594Y1711723D1*
X111871Y1715757D1*
X107837Y1720481D1*
X104591Y1725777D1*
X102214Y1731516D1*
X100764Y1737557D1*
X100276Y1743749D1*
X100764Y1749942D1*
X102214Y1755982D1*
X104591Y1761721D1*
X107837Y1767018D1*
X111871Y1771741D1*
X117331Y1776268D1*
X117323Y1797540D1*
X113574Y1793883D1*
X108549Y1790232D1*
X103014Y1787412D1*
X97106Y1785493D1*
X90971Y1784521D1*
X84759D1*
X81160Y1784988D1*
X81153Y1701500D1*
X86605Y1696938D1*
X90639Y1692215D1*
X93885Y1686918D1*
X96262Y1681179D1*
X97712Y1675139D1*
X98199Y1668946D1*
X97712Y1662754D1*
X96262Y1656713D1*
X93885Y1650974D1*
X90639Y1645678D1*
X86605Y1640954D1*
X81881Y1636920D1*
X76585Y1633674D1*
X70846Y1631297D1*
X64806Y1629847D1*
X58613Y1629360D1*
X52420Y1629847D1*
X46380Y1631297D1*
X42500Y1632730D1*
Y42522D1*
X5075640Y42500D1*
X5075610Y4091336D1*
X42471Y4091358D1*
X42500Y3642998D1*
X56180Y3656570D1*
X60585Y3659513D1*
X65556Y3661347D1*
X70825Y3661970D1*
X4588405Y3661901D1*
X4593602Y3660867D1*
X4598414Y3658649D1*
X4602580Y3655363D1*
X4623389Y3634456D1*
X4626333Y3630050D1*
X4628167Y3625079D1*
X4628789Y3619810D1*
X4628790Y3545070D1*
X4634242Y3540492D1*
X4638276Y3535768D1*
X4641522Y3530472D1*
X4643416Y3526043D1*
X4713356Y3595901D1*
X4717762Y3598844D1*
X4722733Y3600678D1*
X4728002Y3601301D1*
X4953346Y3601232D1*
X4958543Y3600198D1*
X4963355Y3597980D1*
X4967521Y3594694D1*
X4980921Y3581196D1*
X4983865Y3576790D1*
X4985699Y3571819D1*
X4986321Y3566550D1*
X4986322Y3149045D1*
X4990271Y3153480D1*
X4996131Y3158485D1*
X5002703Y3162512D1*
X5009823Y3165461D1*
X5017317Y3167260D1*
X5025000Y3167865D1*
X5032683Y3167260D1*
X5040177Y3165461D1*
X5047297Y3162512D1*
X5053869Y3158485D1*
X5059729Y3153480D1*
X5064734Y3147619D1*
X5068761Y3141048D1*
X5071710Y3133928D1*
X5073509Y3126434D1*
X5074114Y3118751D1*
X5073509Y3111068D1*
X5071710Y3103574D1*
X5068761Y3096453D1*
X5064734Y3089882D1*
X5059729Y3084022D1*
X5053869Y3079016D1*
X5047297Y3074990D1*
X5040177Y3072040D1*
X5032683Y3070241D1*
X5025000Y3069636D1*
X5017317Y3070241D1*
X5009823Y3072040D1*
X5002703Y3074990D1*
X4996131Y3079016D1*
X4990271Y3084022D1*
X4986320Y3088545D1*
X4986322Y2567865D1*
X5074114D1*
Y2469636D1*
X4986320D1*
X4986252Y1702674D1*
X4985218Y1697477D1*
X4983000Y1692665D1*
X4979715Y1688500D1*
X4966215Y1675098D1*
X4961810Y1672154D1*
X4956839Y1670320D1*
X4951570Y1669698D1*
X4009940D1*
X4005357Y1664245D1*
X4000633Y1660211D1*
X3995337Y1656965D1*
X3989598Y1654588D1*
X3983558Y1653138D1*
X3977365Y1652651D1*
X3971172Y1653138D1*
X3965132Y1654588D1*
X3959393Y1656965D1*
X3954096Y1660211D1*
X3949373Y1664245D1*
X3945339Y1668969D1*
X3942093Y1674265D1*
X3939716Y1680004D1*
X3938266Y1686045D1*
X3937778Y1692237D1*
X3938266Y1698430D1*
X3939716Y1704470D1*
X3942093Y1710209D1*
X3945339Y1715506D1*
X3949373Y1720229D1*
X3954096Y1724264D1*
X3959393Y1727509D1*
X3965132Y1729886D1*
X3971172Y1731337D1*
X3977365Y1731824D1*
X3983558Y1731337D1*
X3989598Y1729886D1*
X3995337Y1727509D1*
X4000633Y1724264D1*
X4005357Y1720229D1*
X4009884Y1714769D1*
X4941250Y1714777D1*
X4941242Y2472400D1*
X4936465Y2470994D1*
X4928853Y2469788D1*
X4921147D1*
X4913535Y2470994D1*
X4906205Y2473375D1*
X4899338Y2476874D1*
X4893103Y2481404D1*
X4887653Y2486854D1*
X4883123Y2493089D1*
X4879624Y2499955D1*
X4877243Y2507285D1*
X4876037Y2514897D1*
Y2522604D1*
X4877243Y2530216D1*
X4878212Y2533652D1*
X4865850Y2546025D1*
X4868761Y2541048D1*
X4871710Y2533928D1*
X4873509Y2526434D1*
X4874114Y2518751D1*
X4873509Y2511068D1*
X4871710Y2503574D1*
X4868761Y2496453D1*
X4865345Y2490796D1*
X4869227Y2488117D1*
X4883933Y2473411D1*
X4886877Y2469005D1*
X4888711Y2464034D1*
X4889333Y2458765D1*
X4889264Y2031775D1*
X4888230Y2026578D1*
X4886012Y2021766D1*
X4882727Y2017601D1*
X4869228Y2004200D1*
X4864823Y2001256D1*
X4859852Y1999422D1*
X4854583Y1998800D1*
X2412994D1*
X1716272Y1302061D1*
X1716919Y1294997D1*
X1716432Y1288805D1*
X1714982Y1282764D1*
X1712605Y1277025D1*
X1709359Y1271729D1*
X1705325Y1267005D1*
X1700601Y1262971D1*
X1695305Y1259725D1*
X1689566Y1257348D1*
X1683526Y1255898D1*
X1677333Y1255411D1*
X1671140Y1255898D1*
X1665100Y1257348D1*
X1659361Y1259725D1*
X1654064Y1262971D1*
X1649341Y1267005D1*
X1645307Y1271729D1*
X1642061Y1277025D1*
X1639684Y1282764D1*
X1638234Y1288805D1*
X1637746Y1294997D1*
X1638234Y1301190D1*
X1639684Y1307230D1*
X1642061Y1312969D1*
X1645307Y1318266D1*
X1649341Y1322989D1*
X1654064Y1327024D1*
X1659361Y1330269D1*
X1665100Y1332646D1*
X1671140Y1334097D1*
X1677333Y1334584D1*
X1684395Y1333924D1*
X2383688Y2033228D1*
X1653399Y2033279D1*
X1648203Y2034313D1*
X1643391Y2036531D1*
X1639225Y2039816D1*
X1625824Y2053316D1*
X1622880Y2057721D1*
X1621525Y2060995D1*
X1620565Y2062438D1*
X1616736Y2064996D1*
X1595461Y2086272D1*
X1594505Y2087484D1*
X1592993Y2087479D1*
X1590997Y2085142D1*
X1569557Y2064044D1*
X1565540Y2061794D1*
X1561109Y2060544D1*
X1558045Y2060303D1*
X1527967Y2060544D1*
X1523536Y2061794D1*
X1519519Y2064044D1*
X1517178Y2066044D1*
X1501015Y2082206D1*
X1500754Y2074139D1*
X1499504Y2069708D1*
X1497254Y2065691D1*
X1494129Y2062310D1*
X1490300Y2059751D1*
X1485981Y2058158D1*
X1481408Y2057617D1*
X1409281Y2057677D1*
X1404765Y2058575D1*
X1400584Y2060503D1*
X1396968Y2063353D1*
X1394117Y2066969D1*
X1392189Y2071151D1*
X1391291Y2075667D1*
Y2149331D1*
X1392189Y2153847D1*
X1394117Y2158028D1*
X1396968Y2161644D1*
X1400584Y2164494D1*
X1404765Y2166422D1*
X1409281Y2167320D1*
X1482945D1*
X1487461Y2166422D1*
X1491642Y2164494D1*
X1495258Y2161644D1*
X1498109Y2158028D1*
X1500036Y2153847D1*
X1500935Y2149331D1*
X1500995Y2142806D1*
X1518311Y2160001D1*
X1522139Y2162559D1*
X1526459Y2164153D1*
X1531031Y2164694D1*
X1561109Y2164453D1*
X1565540Y2163203D1*
X1569557Y2160954D1*
X1571895Y2158958D1*
X1592996Y2137513D1*
X1594508Y2137518D1*
X1596504Y2139855D1*
X1617944Y2160954D1*
X1621961Y2163203D1*
X1626393Y2164453D1*
X1629457Y2164694D1*
X1659534Y2164453D1*
X1663965Y2163203D1*
X1667983Y2160954D1*
X1670320Y2158957D1*
X1691418Y2137518D1*
X1693668Y2133501D1*
X1694918Y2129069D1*
X1695159Y2126005D1*
X1694918Y2095928D1*
X1693668Y2091497D1*
X1691418Y2087479D1*
X1689422Y2085142D1*
X1682727Y2078289D1*
X2409992D1*
X2410041Y2149331D1*
X2410939Y2153847D1*
X2412866Y2158028D1*
X2415717Y2161644D1*
X2419333Y2164494D1*
X2423514Y2166422D1*
X2428030Y2167320D1*
X2501694D1*
X2506210Y2166422D1*
X2510392Y2164494D1*
X2514007Y2161644D1*
X2516858Y2158028D1*
X2518786Y2153847D1*
X2519684Y2149331D1*
X2520187Y2143214D1*
X2538268Y2160954D1*
X2542285Y2163203D1*
X2546717Y2164453D1*
X2549781Y2164694D1*
X2579858Y2164453D1*
X2584289Y2163203D1*
X2588307Y2160954D1*
X2590644Y2158958D1*
X2611746Y2137513D1*
X2613258Y2137518D1*
X2615254Y2139855D1*
X2636693Y2160954D1*
X2640711Y2163203D1*
X2645142Y2164453D1*
X2648206Y2164694D1*
X2678283Y2164453D1*
X2682715Y2163203D1*
X2686732Y2160954D1*
X2689069Y2158957D1*
X2710167Y2137518D1*
X2712419Y2133495D1*
X2716826Y2130734D1*
X2719516Y2128437D1*
X2757450Y2090503D1*
X3010782Y2090582D1*
X3005811Y2092416D1*
X3001405Y2095359D1*
X2876686Y2219980D1*
X2795566Y2301100D1*
X2671534Y2301181D1*
X2667018Y2302079D1*
X2662837Y2304007D1*
X2659221Y2306857D1*
X2656370Y2310473D1*
X2654443Y2314655D1*
X2653544Y2319171D1*
X2653484Y2448419D1*
X2474654Y2448438D1*
X2474600Y2319047D1*
X2473630Y2314168D1*
X2471547Y2309650D1*
X2468467Y2305744D1*
X2464561Y2302664D1*
X2460043Y2300582D1*
X2455164Y2299611D1*
X2318740Y2299546D1*
X2313800Y2300130D1*
X2309133Y2301852D1*
X2304997Y2304616D1*
X2301620Y2308269D1*
X2299189Y2312609D1*
X2297839Y2317397D1*
X2297579Y2320707D1*
Y2448419D1*
X1808644Y2448438D1*
X1808612Y2319171D1*
X1807713Y2314655D1*
X1805786Y2310473D1*
X1802935Y2306857D1*
X1799319Y2304007D1*
X1795138Y2302079D1*
X1790622Y2301181D1*
X1654322Y2301121D1*
X1649749Y2301662D1*
X1645429Y2303256D1*
X1641601Y2305814D1*
X1638476Y2309195D1*
X1636226Y2313212D1*
X1634976Y2317643D1*
X1634735Y2320707D1*
Y2448419D1*
X1543675Y2448438D1*
X1543653Y2257570D1*
X1549105Y2252990D1*
X1553139Y2248267D1*
X1556385Y2242970D1*
X1558762Y2237231D1*
X1560212Y2231191D1*
X1560699Y2224998D1*
X1560212Y2218806D1*
X1558762Y2212765D1*
X1556385Y2207026D1*
X1553139Y2201730D1*
X1549105Y2197006D1*
X1544381Y2192972D1*
X1539085Y2189726D1*
X1533346Y2187349D1*
X1527306Y2185899D1*
X1521113Y2185412D1*
X1514920Y2185899D1*
X1508880Y2187349D1*
X1503141Y2189726D1*
X1497844Y2192972D1*
X1493121Y2197006D1*
X1489087Y2201730D1*
X1485841Y2207026D1*
X1483464Y2212765D1*
X1482014Y2218806D1*
X1481526Y2224998D1*
X1482014Y2231191D1*
X1483464Y2237231D1*
X1485841Y2242970D1*
X1489087Y2248267D1*
X1493121Y2252990D1*
X1498581Y2257517D1*
X1498643Y2460541D1*
X1499676Y2465737D1*
X1501895Y2470549D1*
X1505175Y2474710D1*
X1518679Y2488117D1*
X1523085Y2491060D1*
X1528056Y2492894D1*
X1533318Y2493517D1*
X3682888D1*
X3679624Y2499955D1*
X3677243Y2507285D1*
X3676037Y2514897D1*
Y2522604D1*
X3677243Y2530216D1*
X3678681Y2534988D1*
X1182559Y2534993D1*
X1177995Y2529540D1*
X1173271Y2525506D1*
X1167975Y2522260D1*
X1162236Y2519883D1*
X1156196Y2518433D1*
X1150003Y2517946D1*
X1143810Y2518433D1*
X1137770Y2519883D1*
X1132031Y2522260D1*
X1126734Y2525506D1*
X1122011Y2529540D1*
X1117977Y2534264D1*
X1114731Y2539560D1*
X1112354Y2545299D1*
X1110904Y2551340D1*
X1110416Y2557532D1*
X1110904Y2563725D1*
X1112354Y2569765D1*
X1114731Y2575504D1*
X1117977Y2580801D1*
X1122011Y2585524D1*
X1126734Y2589559D1*
X1132031Y2592804D1*
X1137770Y2595181D1*
X1143810Y2596632D1*
X1150003Y2597119D1*
X1156196Y2596632D1*
X1162236Y2595181D1*
X1167975Y2592804D1*
X1173271Y2589559D1*
X1177995Y2585524D1*
X1182522Y2580064D1*
X4287987Y2580003D1*
X4293183Y2578969D1*
X4297995Y2576751D1*
X4302156Y2573470D1*
X4310098Y2565528D1*
X4317317Y2567260D1*
X4325000Y2567865D1*
X4332683Y2567260D1*
X4340177Y2565461D1*
X4341237Y2565070D1*
X4341242Y2581039D1*
X4335790Y2585623D1*
X4331756Y2590347D1*
X4328510Y2595643D1*
X4326133Y2601382D1*
X4324683Y2607423D1*
X4324195Y2613615D1*
X4324784Y2620320D1*
X1530366Y2620397D1*
X1525169Y2621431D1*
X1520357Y2623649D1*
X1516191Y2626934D1*
X948606Y3194519D1*
X943433Y3193006D1*
X935345Y3191725D1*
X927156D1*
X919068Y3193006D1*
X911280Y3195537D1*
X903983Y3199254D1*
X897358Y3204068D1*
X891568Y3209858D1*
X886754Y3216483D1*
X883037Y3223780D1*
X880506Y3231568D1*
X879225Y3239656D1*
Y3247845D1*
X880506Y3255933D1*
X883037Y3263722D1*
X886754Y3271018D1*
X891568Y3277643D1*
X897358Y3283433D1*
X903983Y3288247D1*
X911280Y3291965D1*
X919068Y3294495D1*
X927156Y3295776D1*
X935345D1*
X943433Y3294495D1*
X951222Y3291965D1*
X958518Y3288247D1*
X965143Y3283433D1*
X970933Y3277643D1*
X975747Y3271018D1*
X979465Y3263722D1*
X981235Y3258629D1*
X983477Y3264754D1*
X986898Y3271251D1*
X991197Y3277204D1*
X996289Y3282495D1*
X1002074Y3287019D1*
X1008435Y3290686D1*
X1015249Y3293423D1*
X1022379Y3295177D1*
X1029685Y3295914D1*
X1037022Y3295617D1*
X1044245Y3294293D1*
X1051211Y3291969D1*
X1057781Y3288690D1*
X1063826Y3284522D1*
X1069226Y3279546D1*
X1073874Y3273861D1*
X1077679Y3267580D1*
X1080564Y3260828D1*
X1081248Y3258689D1*
X1083037Y3263722D1*
X1086754Y3271018D1*
X1091568Y3277643D1*
X1097358Y3283433D1*
X1103983Y3288247D1*
X1111280Y3291965D1*
X1119068Y3294495D1*
X1127156Y3295776D1*
X1135345D1*
X1143433Y3294495D1*
X1151222Y3291965D1*
X1158518Y3288247D1*
X1165143Y3283433D1*
X1170933Y3277643D1*
X1175747Y3271018D1*
X1179465Y3263722D1*
X1181995Y3255933D1*
X1183276Y3247845D1*
Y3239656D1*
X1181995Y3231568D1*
X1179465Y3223780D1*
X1175747Y3216483D1*
X1170933Y3209858D1*
X1165143Y3204068D1*
X1158518Y3199254D1*
X1151222Y3195537D1*
X1143433Y3193006D1*
X1135345Y3191725D1*
X1127156D1*
X1119068Y3193006D1*
X1111280Y3195537D1*
X1103983Y3199254D1*
X1097358Y3204068D1*
X1091568Y3209858D1*
X1086754Y3216483D1*
X1083037Y3223780D1*
X1081267Y3228872D1*
X1078849Y3222353D1*
X1075374Y3215884D1*
X1071026Y3209967D1*
X1065891Y3204719D1*
X1060069Y3200243D1*
X1053677Y3196629D1*
X1046841Y3193948D1*
X1039697Y3192252D1*
X1032385Y3191577D1*
X1025050Y3191934D1*
X1017839Y3193317D1*
X1011365Y3195508D1*
X1541472Y2665405D1*
X3924353Y2665407D1*
X3919385Y2667089D1*
X3913850Y2669909D1*
X3908824Y2673560D1*
X3904432Y2677953D1*
X3900781Y2682978D1*
X3897961Y2688513D1*
X3896041Y2694421D1*
X3895069Y2700556D1*
Y2706768D1*
X3896041Y2712904D1*
X3897961Y2718811D1*
X3900781Y2724346D1*
X3904432Y2729372D1*
X3908824Y2733764D1*
X3913850Y2737415D1*
X3919385Y2740236D1*
X3925293Y2742155D1*
X3931428Y2743127D1*
X3937640D1*
X3943775Y2742155D1*
X3949683Y2740236D1*
X3955218Y2737415D1*
X3960243Y2733764D1*
X3964636Y2729372D1*
X3967053Y2726194D1*
X4566925Y2726132D1*
X4572122Y2725099D1*
X4576934Y2722881D1*
X4581099Y2719595D1*
X4594501Y2706096D1*
X4597445Y2701690D1*
X4599279Y2696719D1*
X4599901Y2691450D1*
Y2560947D1*
X4606205Y2564126D1*
X4613535Y2566508D1*
X4621147Y2567713D1*
X4628853D1*
X4636465Y2566508D1*
X4643795Y2564126D1*
X4650662Y2560627D1*
X4656897Y2556097D1*
X4662347Y2550648D1*
X4666877Y2544413D1*
X4670376Y2537546D1*
X4672757Y2530216D1*
X4673963Y2522604D1*
Y2514897D1*
X4672757Y2507285D1*
X4670376Y2499955D1*
X4666877Y2493089D1*
X4662347Y2486854D1*
X4656897Y2481404D1*
X4650662Y2476874D1*
X4643795Y2473375D1*
X4636465Y2470994D1*
X4628853Y2469788D1*
X4621147D1*
X4613535Y2470994D1*
X4606205Y2473375D1*
X4599903Y2476557D1*
X4599901Y2251266D1*
X4605354Y2246741D1*
X4609388Y2242018D1*
X4612634Y2236721D1*
X4615011Y2230982D1*
X4616461Y2224942D1*
X4616948Y2218749D1*
X4616461Y2212557D1*
X4615011Y2206516D1*
X4612634Y2200777D1*
X4609388Y2195481D1*
X4605354Y2190757D1*
X4600630Y2186723D1*
X4595334Y2183477D1*
X4589595Y2181100D1*
X4583555Y2179650D1*
X4577362Y2179163D1*
X4571169Y2179650D1*
X4565129Y2181100D1*
X4559390Y2183477D1*
X4554093Y2186723D1*
X4549370Y2190757D1*
X4545336Y2195481D1*
X4542090Y2200777D1*
X4539713Y2206516D1*
X4538263Y2212557D1*
X4537775Y2218749D1*
X4538263Y2224942D1*
X4539713Y2230982D1*
X4542090Y2236721D1*
X4545336Y2242018D1*
X4549370Y2246741D1*
X4554830Y2251268D1*
X4554822Y2479735D1*
X4550662Y2476874D1*
X4543795Y2473375D1*
X4536465Y2470994D1*
X4528853Y2469788D1*
X4521147D1*
X4513535Y2470994D1*
X4509385Y2472202D1*
X4511130Y2468261D1*
X4512100Y2463382D1*
X4512165Y2326958D1*
X4511581Y2322018D1*
X4509859Y2317351D1*
X4507095Y2313215D1*
X4503442Y2309838D1*
X4499102Y2307407D1*
X4494314Y2306057D1*
X4491004Y2305797D1*
X4354580Y2305862D1*
X4349701Y2306832D1*
X4345183Y2308915D1*
X4341277Y2311995D1*
X4338197Y2315901D1*
X4336114Y2320419D1*
X4335144Y2325298D1*
X4335079Y2448426D1*
X3852392Y2448438D1*
X3852421Y2342544D1*
X3856248Y2345211D1*
X3861783Y2348032D1*
X3867691Y2349951D1*
X3873826Y2350923D1*
X3880038D1*
X3886173Y2349951D1*
X3892081Y2348032D1*
X3897616Y2345211D1*
X3902641Y2341560D1*
X3907034Y2337168D1*
X3909451Y2333990D1*
X4044403Y2333998D1*
X4048948Y2339450D1*
X4053671Y2343485D1*
X4058968Y2346730D1*
X4064707Y2349107D1*
X4070747Y2350558D1*
X4076940Y2351045D1*
X4083133Y2350558D1*
X4089173Y2349107D1*
X4094912Y2346730D1*
X4100208Y2343485D1*
X4104932Y2339450D1*
X4108966Y2334727D1*
X4112212Y2329430D1*
X4114589Y2323691D1*
X4116039Y2317651D1*
X4116526Y2311458D1*
X4116039Y2305266D1*
X4114589Y2299225D1*
X4112212Y2293486D1*
X4108966Y2288190D1*
X4104932Y2283466D1*
X4100208Y2279432D1*
X4094912Y2276186D1*
X4089173Y2273809D1*
X4083133Y2272359D1*
X4076940Y2271872D1*
X4070747Y2272359D1*
X4064707Y2273809D1*
X4058968Y2276186D1*
X4053671Y2279432D1*
X4048948Y2283466D1*
X4044421Y2288927D1*
X3909468Y2288919D1*
X3904924Y2283466D1*
X3900200Y2279432D1*
X3894904Y2276186D1*
X3889165Y2273809D1*
X3883125Y2272359D1*
X3876932Y2271872D1*
X3870739Y2272359D1*
X3864699Y2273809D1*
X3858960Y2276186D1*
X3853663Y2279432D1*
X3848940Y2283466D1*
X3844906Y2288190D1*
X3841660Y2293486D1*
X3839283Y2299225D1*
X3838508Y2301972D1*
X3834371Y2301181D1*
X3788015Y2301121D1*
X3787992Y2191767D1*
X4453627Y2191724D1*
X4458823Y2190690D1*
X4463635Y2188472D1*
X4467796Y2185191D1*
X4479341Y2173646D1*
X4539194Y2173571D1*
X4543710Y2172673D1*
X4547891Y2170745D1*
X4551507Y2167894D1*
X4554358Y2164279D1*
X4556285Y2160097D1*
X4557184Y2155581D1*
X4557244Y2154039D1*
X4560824Y2152602D1*
X4575768Y2167204D1*
X4579785Y2169454D1*
X4584217Y2170704D1*
X4587281Y2170945D1*
X4617358Y2170704D1*
X4621789Y2169454D1*
X4625807Y2167204D1*
X4628144Y2165208D1*
X4649246Y2143764D1*
X4650758Y2143769D1*
X4652754Y2146106D1*
X4674193Y2167204D1*
X4678211Y2169454D1*
X4682642Y2170704D1*
X4685706Y2170945D1*
X4715783Y2170704D1*
X4720215Y2169454D1*
X4724232Y2167204D1*
X4726569Y2165208D1*
X4747668Y2143769D1*
X4749917Y2139751D1*
X4751167Y2135320D1*
X4751408Y2132256D1*
X4751167Y2102179D1*
X4749917Y2097747D1*
X4747668Y2093730D1*
X4745671Y2091393D1*
X4724232Y2070294D1*
X4721606Y2068686D1*
X4720037Y2065578D1*
X4717448Y2060956D1*
X4712709Y2055825D1*
X4701639Y2044854D1*
X4709449Y2043879D1*
X4844266D1*
X4844254Y2307376D1*
X4709034Y2307432D1*
X4704518Y2308330D1*
X4700337Y2310258D1*
X4696721Y2313108D1*
X4693871Y2316724D1*
X4691943Y2320905D1*
X4691045Y2325421D1*
X4690984Y2461722D1*
X4691525Y2466294D1*
X4693119Y2470614D1*
X4695677Y2474442D1*
X4697855Y2476619D1*
X4696131Y2479016D1*
X4690271Y2484022D1*
X4685266Y2489882D1*
X4681239Y2496453D1*
X4678290Y2503574D1*
X4676491Y2511068D1*
X4675886Y2518751D1*
X4676491Y2526434D1*
X4678290Y2533928D1*
X4681239Y2541048D1*
X4685266Y2547619D1*
X4690271Y2553480D1*
X4696131Y2558485D1*
X4702703Y2562512D1*
X4709823Y2565461D1*
X4717317Y2567260D1*
X4725000Y2567865D1*
X4732683Y2567260D1*
X4740177Y2565461D1*
X4747297Y2562512D1*
X4752428Y2559447D1*
X4506224Y2805651D1*
X3566479Y2805631D1*
X3561920Y2800178D1*
X3557196Y2796144D1*
X3551900Y2792898D1*
X3546161Y2790521D1*
X3540121Y2789071D1*
X3533928Y2788584D1*
X3527735Y2789071D1*
X3521695Y2790521D1*
X3515956Y2792898D1*
X3510659Y2796144D1*
X3505936Y2800178D1*
X3501902Y2804902D1*
X3498656Y2810198D1*
X3496279Y2815937D1*
X3494829Y2821978D1*
X3494341Y2828170D1*
X3494829Y2834363D1*
X3496279Y2840403D1*
X3498656Y2846142D1*
X3501902Y2851439D1*
X3505936Y2856162D1*
X3510659Y2860197D1*
X3515755Y2863330D1*
X2470976Y2863397D1*
X2465779Y2864431D1*
X2460967Y2866649D1*
X2456802Y2869934D1*
X1819895Y3506841D1*
X1812111Y3505550D1*
X1805115D1*
X1798204Y3506644D1*
X1791550Y3508806D1*
X1785316Y3511982D1*
X1779656Y3516095D1*
X1774709Y3521042D1*
X1770597Y3526702D1*
X1767420Y3532936D1*
X1765258Y3539590D1*
X1764164Y3546500D1*
Y3553497D1*
X1765258Y3560407D1*
X1767420Y3567061D1*
X1770597Y3573295D1*
X1774709Y3578955D1*
X1779656Y3583903D1*
X1785316Y3588015D1*
X1791550Y3591191D1*
X1798204Y3593353D1*
X1805115Y3594448D1*
X1812111D1*
X1819021Y3593353D1*
X1825675Y3591191D1*
X1831909Y3588015D1*
X1837570Y3583903D1*
X1842517Y3578955D1*
X1846629Y3573295D1*
X1849806Y3567061D1*
X1851968Y3560407D1*
X1853062Y3553497D1*
Y3546500D1*
X1673213Y3594585D2*
X1753200D1*
Y3505412D1*
X1664026D1*
Y3594585D1*
X1673213D1*
X3434311Y3540251D2*
X3433217Y3533341D1*
X3431055Y3526687D1*
X3427879Y3520453D1*
X3423766Y3514793D1*
X3418819Y3509845D1*
X3413159Y3505733D1*
X3406925Y3502557D1*
X3400271Y3500395D1*
X3393360Y3499300D1*
X3386364D1*
X3379454Y3500395D1*
X3372800Y3502557D1*
X3366566Y3505733D1*
X3360906Y3509845D1*
X3355958Y3514793D1*
X3351846Y3520453D1*
X3348670Y3526687D1*
X3346508Y3533341D1*
X3345413Y3540251D1*
Y3547248D1*
X3346508Y3554158D1*
X3348670Y3560812D1*
X3351846Y3567046D1*
X3355958Y3572706D1*
X3360906Y3577653D1*
X3366566Y3581766D1*
X3372800Y3584942D1*
X3379454Y3587104D1*
X3386364Y3588199D1*
X3393360D1*
X3400271Y3587104D1*
X3406925Y3584942D1*
X3413159Y3581766D1*
X3418819Y3577653D1*
X3423766Y3572706D1*
X3427879Y3567046D1*
X3431055Y3560812D1*
X3433217Y3554158D1*
X3434311Y3547248D1*
Y3540251D1*
X3254462Y3588336D2*
X3334449D1*
Y3499162D1*
X3245276D1*
Y3588336D1*
X3254462D1*
X2456257Y3908311D2*
X2452641Y3901666D1*
X2448288Y3895752D1*
X2443186Y3890470D1*
X2437426Y3885914D1*
X2431111Y3882166D1*
X2424353Y3879293D1*
X2417272Y3877345D1*
X2409995Y3876357D1*
X2402652Y3876347D1*
X2395372Y3877316D1*
X2388287Y3879245D1*
X2381521Y3882101D1*
X2375196Y3885832D1*
X2369424Y3890372D1*
X2364308Y3895641D1*
X2359939Y3901543D1*
X2356396Y3907976D1*
X2353740Y3914822D1*
X2352021Y3921962D1*
X2351267Y3929266D1*
X2351492Y3936607D1*
X2352694Y3943851D1*
X2354849Y3950872D1*
X2357920Y3957542D1*
X2361852Y3963744D1*
X2366575Y3969368D1*
X2372005Y3974312D1*
X2378045Y3978489D1*
X2384587Y3981825D1*
X2391516Y3984259D1*
X2398706Y3985749D1*
X2406032Y3986269D1*
X2413361Y3985808D1*
X2420563Y3984375D1*
X2427511Y3981996D1*
X2434079Y3978712D1*
X2440152Y3974583D1*
X2445621Y3969682D1*
X2450389Y3964097D1*
X2454370Y3957926D1*
X2456258Y3954178D1*
X2459358Y3959997D1*
X2464433Y3966982D1*
X2470538Y3973087D1*
X2477523Y3978161D1*
X2485215Y3982081D1*
X2493426Y3984749D1*
X2501954Y3986099D1*
X2510587D1*
X2519114Y3984749D1*
X2527325Y3982081D1*
X2535018Y3978161D1*
X2542003Y3973087D1*
X2548108Y3966982D1*
X2553182Y3959997D1*
X2556247Y3954159D1*
X2559358Y3959997D1*
X2564433Y3966982D1*
X2570538Y3973087D1*
X2577523Y3978161D1*
X2585215Y3982081D1*
X2593426Y3984749D1*
X2601954Y3986099D1*
X2610587D1*
X2619114Y3984749D1*
X2627325Y3982081D1*
X2635018Y3978161D1*
X2642003Y3973087D1*
X2648108Y3966982D1*
X2653182Y3959997D1*
X2656247Y3954159D1*
X2659358Y3959997D1*
X2664433Y3966982D1*
X2670538Y3973087D1*
X2677523Y3978161D1*
X2685215Y3982081D1*
X2693426Y3984749D1*
X2701954Y3986099D1*
X2710587D1*
X2719114Y3984749D1*
X2727325Y3982081D1*
X2735018Y3978161D1*
X2742003Y3973087D1*
X2748108Y3966982D1*
X2753182Y3959997D1*
X2757102Y3952304D1*
X2759770Y3944093D1*
X2761120Y3935566D1*
Y3926933D1*
X2759770Y3918405D1*
X2757102Y3910194D1*
X2753182Y3902502D1*
X2748108Y3895517D1*
X2742003Y3889412D1*
X2735018Y3884337D1*
X2727325Y3880418D1*
X2719114Y3877750D1*
X2710587Y3876399D1*
X2701954D1*
X2693426Y3877750D1*
X2685215Y3880418D1*
X2677523Y3884337D1*
X2670538Y3889412D1*
X2664433Y3895517D1*
X2659358Y3902502D1*
X2656294Y3908340D1*
X2653182Y3902502D1*
X2648108Y3895517D1*
X2642003Y3889412D1*
X2635018Y3884337D1*
X2627325Y3880418D1*
X2619114Y3877750D1*
X2610587Y3876399D1*
X2601954D1*
X2593426Y3877750D1*
X2585215Y3880418D1*
X2577523Y3884337D1*
X2570538Y3889412D1*
X2564433Y3895517D1*
X2559358Y3902502D1*
X2556294Y3908340D1*
X2553182Y3902502D1*
X2548108Y3895517D1*
X2542003Y3889412D1*
X2535018Y3884337D1*
X2527325Y3880418D1*
X2519114Y3877750D1*
X2510587Y3876399D1*
X2501954D1*
X2493426Y3877750D1*
X2485215Y3880418D1*
X2477523Y3884337D1*
X2470538Y3889412D1*
X2464433Y3895517D1*
X2459358Y3902502D1*
X2456280Y3908371D1*
X2197141Y3894323D2*
X2195365Y3883111D1*
X2191857Y3872314D1*
X2186703Y3862200D1*
X2180031Y3853016D1*
X2172004Y3844989D1*
X2162820Y3838317D1*
X2152705Y3833163D1*
X2141909Y3829655D1*
X2130697Y3827879D1*
X2119345D1*
X2108133Y3829655D1*
X2097337Y3833163D1*
X2087222Y3838317D1*
X2078038Y3844989D1*
X2070011Y3853016D1*
X2063339Y3862200D1*
X2058185Y3872314D1*
X2054677Y3883111D1*
X2052901Y3894323D1*
Y3905675D1*
X2054677Y3916887D1*
X2058185Y3927683D1*
X2063339Y3937798D1*
X2070011Y3946981D1*
X2078038Y3955008D1*
X2087222Y3961681D1*
X2097337Y3966834D1*
X2108133Y3970342D1*
X2119345Y3972118D1*
X2130697D1*
X2141909Y3970342D1*
X2152705Y3966834D1*
X2162820Y3961681D1*
X2172004Y3955008D1*
X2180031Y3946981D1*
X2186703Y3937798D1*
X2191857Y3927683D1*
X2195365Y3916887D1*
X2197141Y3905675D1*
Y3894323D1*
X3065890D2*
X3064114Y3883111D1*
X3060606Y3872314D1*
X3055452Y3862200D1*
X3048780Y3853016D1*
X3040753Y3844989D1*
X3031569Y3838317D1*
X3021455Y3833163D1*
X3010658Y3829655D1*
X2999446Y3827879D1*
X2988094D1*
X2976882Y3829655D1*
X2966086Y3833163D1*
X2955971Y3838317D1*
X2946788Y3844989D1*
X2938761Y3853016D1*
X2932088Y3862200D1*
X2926935Y3872314D1*
X2923427Y3883111D1*
X2921651Y3894323D1*
Y3905675D1*
X2923427Y3916887D1*
X2926935Y3927683D1*
X2932088Y3937798D1*
X2938761Y3946981D1*
X2946788Y3955008D1*
X2955971Y3961681D1*
X2966086Y3966834D1*
X2976882Y3970342D1*
X2988094Y3972118D1*
X2999446D1*
X3010658Y3970342D1*
X3021455Y3966834D1*
X3031569Y3961681D1*
X3040753Y3955008D1*
X3048780Y3946981D1*
X3055452Y3937798D1*
X3060606Y3927683D1*
X3064114Y3916887D1*
X3065890Y3905675D1*
Y3894323D1*
X2197141Y3006823D2*
X2195365Y2995611D1*
X2191857Y2984814D1*
X2186703Y2974700D1*
X2180031Y2965516D1*
X2172004Y2957489D1*
X2162820Y2950817D1*
X2152705Y2945663D1*
X2141909Y2942155D1*
X2130697Y2940379D1*
X2119345D1*
X2108133Y2942155D1*
X2097337Y2945663D1*
X2087222Y2950817D1*
X2078038Y2957489D1*
X2070011Y2965516D1*
X2063339Y2974700D1*
X2058185Y2984814D1*
X2054677Y2995611D1*
X2052901Y3006823D1*
Y3018175D1*
X2054677Y3029387D1*
X2058185Y3040183D1*
X2063339Y3050298D1*
X2070011Y3059481D1*
X2078038Y3067508D1*
X2087222Y3074181D1*
X2097337Y3079334D1*
X2108133Y3082842D1*
X2119345Y3084618D1*
X2130697D1*
X2141909Y3082842D1*
X2152705Y3079334D1*
X2162820Y3074181D1*
X2172004Y3067508D1*
X2180031Y3059481D1*
X2186703Y3050298D1*
X2191857Y3040183D1*
X2195365Y3029387D1*
X2197141Y3018175D1*
Y3006823D1*
X3065890D2*
X3064114Y2995611D1*
X3060606Y2984814D1*
X3055452Y2974700D1*
X3048780Y2965516D1*
X3040753Y2957489D1*
X3031569Y2950817D1*
X3021455Y2945663D1*
X3010658Y2942155D1*
X2999446Y2940379D1*
X2988094D1*
X2976882Y2942155D1*
X2966086Y2945663D1*
X2955971Y2950817D1*
X2946788Y2957489D1*
X2938761Y2965516D1*
X2932088Y2974700D1*
X2926935Y2984814D1*
X2923427Y2995611D1*
X2921651Y3006823D1*
Y3018175D1*
X2923427Y3029387D1*
X2926935Y3040183D1*
X2932088Y3050298D1*
X2938761Y3059481D1*
X2946788Y3067508D1*
X2955971Y3074181D1*
X2966086Y3079334D1*
X2976882Y3082842D1*
X2988094Y3084618D1*
X2999446D1*
X3010658Y3082842D1*
X3021455Y3079334D1*
X3031569Y3074181D1*
X3040753Y3067508D1*
X3048780Y3059481D1*
X3055452Y3050298D1*
X3060606Y3040183D1*
X3064114Y3029387D1*
X3065890Y3018175D1*
Y3006823D1*
X2598513Y2151088D2*
X2606396Y2143205D1*
X2618613Y2143214D1*
X2626487Y2151088D1*
X2703629Y2080600D2*
X2686732Y2064044D1*
X2684106Y2062435D1*
X2682537Y2059329D1*
X2679948Y2054706D1*
X2675210Y2049575D1*
X2669517Y2043883D1*
X4217585Y2043879D1*
X4215020Y2046064D1*
X4187545Y2073539D1*
X4180463Y2072911D1*
X4174270Y2073398D1*
X4168230Y2074848D1*
X4162491Y2077225D1*
X4157194Y2080471D1*
X4152471Y2084505D1*
X4147944Y2089966D1*
X3736683Y2089959D1*
X3734215Y2086272D1*
X3712940Y2064996D1*
X3709106Y2062435D1*
X3707537Y2059325D1*
X3704948Y2054702D1*
X3701351Y2050811D1*
X3696945Y2047867D1*
X3691974Y2046033D1*
X3686706Y2045411D1*
X2746357Y2045480D1*
X2741161Y2046514D1*
X2736349Y2048732D1*
X2732183Y2052017D1*
X2703591Y2080609D1*
X2691290Y2068261D1*
X2696939Y2151088D2*
X2704821Y2143205D1*
X2827421Y2448402D2*
Y2332998D1*
X3025380Y2135038D1*
X3434991D1*
X3435221Y2150858D1*
X3436471Y2155289D1*
X3438721Y2159307D1*
X3441846Y2162688D1*
X3445675Y2165246D1*
X3449995Y2166839D1*
X3454567Y2167381D1*
X3526694Y2167320D1*
X3531210Y2166422D1*
X3535391Y2164494D1*
X3539007Y2161644D1*
X3541858Y2158028D1*
X3543786Y2153847D1*
X3544684Y2149331D1*
X3544744Y2147788D1*
X3548324Y2146351D1*
X3563268Y2160954D1*
X3567285Y2163203D1*
X3571717Y2164453D1*
X3574787Y2164694D1*
X3604858Y2164453D1*
X3609289Y2163203D1*
X3613307Y2160954D1*
X3615644Y2158957D1*
X3636746Y2137513D1*
X3638258Y2137518D1*
X3640254Y2139855D1*
X3661693Y2160954D1*
X3665711Y2163203D1*
X3670142Y2164453D1*
X3673206Y2164694D1*
X3703283Y2164453D1*
X3707715Y2163203D1*
X3711732Y2160954D1*
X3714069Y2158958D1*
X3735168Y2137518D1*
X3736025Y2136234D1*
X3741831Y2135038D1*
X4147932Y2135037D1*
X4152471Y2140489D1*
X4157194Y2144524D1*
X4160616Y2146719D1*
X3775889Y2146783D1*
X3770693Y2147817D1*
X3765881Y2150035D1*
X3761715Y2153320D1*
X3748313Y2166820D1*
X3745370Y2171226D1*
X3743536Y2176197D1*
X3742913Y2181465D1*
Y2301132D1*
X3696534Y2301181D1*
X3692018Y2302079D1*
X3687837Y2304007D1*
X3684221Y2306857D1*
X3681370Y2310473D1*
X3679443Y2314655D1*
X3678545Y2319171D1*
X3678484Y2448419D1*
X3499650Y2448438D1*
X3499600Y2319047D1*
X3498630Y2314168D1*
X3496547Y2309651D1*
X3493467Y2305744D1*
X3489561Y2302664D1*
X3485043Y2300582D1*
X3480164Y2299611D1*
X3343740Y2299546D1*
X3338800Y2300131D1*
X3334133Y2301852D1*
X3329997Y2304616D1*
X3326620Y2308269D1*
X3324189Y2312609D1*
X3322839Y2317397D1*
X3322579Y2320707D1*
Y2448419D1*
X2827396Y2448438D1*
X1579764Y2151088D2*
X1587647Y2143205D1*
X1599863Y2143214D1*
X1607737Y2151088D1*
X1678189D2*
X1686072Y2143205D1*
X1695159Y2121492D2*
Y2105732D1*
X1597637Y2084010D2*
X1613377Y2068270D1*
X1634735Y2447591D2*
Y2321619D1*
X1455916Y2446285D2*
X1455851Y2319047D1*
X1454880Y2314168D1*
X1452798Y2309650D1*
X1449718Y2305744D1*
X1445811Y2302664D1*
X1441294Y2300581D1*
X1436415Y2299611D1*
X1299991Y2299546D1*
X1295051Y2300131D1*
X1290384Y2301852D1*
X1286248Y2304616D1*
X1282871Y2308269D1*
X1280440Y2312609D1*
X1279090Y2317397D1*
X1278829Y2320707D1*
X1278895Y2457131D1*
X1279865Y2462010D1*
X1281948Y2466528D1*
X1285027Y2470435D1*
X1288934Y2473514D1*
X1293452Y2475597D1*
X1298331Y2476567D1*
X1434755Y2476633D1*
X1439695Y2476048D1*
X1444362Y2474326D1*
X1448498Y2471563D1*
X1451875Y2467910D1*
X1454305Y2463569D1*
X1455656Y2458782D1*
X1455916Y2455471D1*
Y2446285D1*
X1278830Y2447591D2*
Y2321619D1*
X4782880Y2493522D2*
X4779624Y2499955D1*
X4777243Y2507285D1*
X4776037Y2514897D1*
Y2522604D1*
X4777243Y2530216D1*
X4778212Y2533652D1*
X4765850Y2546025D1*
X4768761Y2541048D1*
X4771710Y2533928D1*
X4773509Y2526434D1*
X4774114Y2518751D1*
X4773509Y2511068D1*
X4771788Y2503849D1*
X4782120Y2493507D1*
X4810098Y2565539D2*
X4817317Y2567260D1*
X4825000Y2567865D1*
X4832683Y2567260D1*
X4840177Y2565461D1*
X4847297Y2562512D1*
X4852428Y2559447D1*
X4548524Y2863351D1*
X3552157Y2863328D1*
X3557196Y2860197D1*
X3561920Y2856162D1*
X3566447Y2850702D1*
X4517349Y2850641D1*
X4522545Y2849607D1*
X4527357Y2847389D1*
X4531518Y2844108D1*
X4810099Y2565528D1*
X4491499Y2482887D2*
X4487653Y2486854D1*
X4483123Y2493089D1*
X4479624Y2499955D1*
X4477243Y2507285D1*
X4476037Y2514897D1*
Y2522604D1*
X4477243Y2530216D1*
X4479624Y2537546D1*
X4483123Y2544413D1*
X4487653Y2550648D1*
X4493103Y2556097D1*
X4499338Y2560627D1*
X4506205Y2564126D1*
X4513535Y2566508D1*
X4521147Y2567713D1*
X4528853D1*
X4536465Y2566508D1*
X4543795Y2564126D1*
X4550662Y2560627D1*
X4554827Y2557729D1*
X4554822Y2681117D1*
X3967075Y2681123D1*
X3962526Y2675670D1*
X3957802Y2671636D1*
X3952506Y2668390D1*
X3946767Y2666013D1*
X3944628Y2665410D1*
X4414562Y2665338D1*
X4419759Y2664304D1*
X4424571Y2662086D1*
X4428737Y2658800D1*
X4442139Y2645300D1*
X4445083Y2640894D1*
X4446917Y2635923D1*
X4447540Y2630661D1*
Y2562374D1*
X4453869Y2558485D1*
X4459729Y2553480D1*
X4464734Y2547619D1*
X4468761Y2541048D1*
X4471710Y2533928D1*
X4473509Y2526434D1*
X4474114Y2518751D1*
X4473509Y2511068D1*
X4471710Y2503574D1*
X4468761Y2496453D1*
X4464734Y2489882D1*
X4459729Y2484022D1*
X4458501Y2482887D1*
X4491010Y2482883D1*
X4386320Y2548956D2*
X4390271Y2553480D1*
X4396131Y2558485D1*
X4402453Y2562372D1*
X4402275Y2604374D1*
X4400355Y2598466D1*
X4397535Y2592931D1*
X4393884Y2587906D1*
X4389491Y2583513D1*
X4386313Y2581097D1*
X4386322Y2548988D1*
X4282880Y2493522D2*
X4279624Y2499955D1*
X4277243Y2507285D1*
X4276037Y2514897D1*
Y2522604D1*
X4277243Y2530216D1*
X4278212Y2533652D1*
X4271710Y2533928D1*
X4273509Y2526434D1*
X4274114Y2518751D1*
X4273509Y2511068D1*
X4271710Y2503574D1*
X4268761Y2496453D1*
X4267120Y2493522D1*
X4282872Y2493517D1*
X4182880Y2493522D2*
X4179624Y2499955D1*
X4177243Y2507285D1*
X4176037Y2514897D1*
Y2522604D1*
X4177243Y2530216D1*
X4178681Y2534988D1*
X4171353Y2534993D1*
X4172757Y2530216D1*
X4173963Y2522604D1*
Y2514897D1*
X4172757Y2507285D1*
X4170376Y2499955D1*
X4167120Y2493522D1*
X4182899Y2493517D1*
X4082880Y2493522D2*
X4079624Y2499955D1*
X4077243Y2507285D1*
X4076037Y2514897D1*
Y2522604D1*
X4077243Y2530216D1*
X4078681Y2534988D1*
X4071380Y2534993D1*
X4073509Y2526434D1*
X4074114Y2518751D1*
X4073509Y2511068D1*
X4071710Y2503574D1*
X4068761Y2496453D1*
X4067120Y2493522D1*
X4082853Y2493517D1*
X3982880Y2493522D2*
X3979624Y2499955D1*
X3977243Y2507285D1*
X3976037Y2514897D1*
Y2522604D1*
X3977243Y2530216D1*
X3978681Y2534988D1*
X3971335Y2534993D1*
X3972757Y2530216D1*
X3973963Y2522604D1*
Y2514897D1*
X3972757Y2507285D1*
X3970376Y2499955D1*
X3967120Y2493522D1*
X3982880Y2493517D1*
X3882880Y2493522D2*
X3879624Y2499955D1*
X3877243Y2507285D1*
X3876037Y2514897D1*
Y2522604D1*
X3877243Y2530216D1*
X3878681Y2534988D1*
X3871361Y2534993D1*
X3873509Y2526434D1*
X3874114Y2518751D1*
X3873509Y2511068D1*
X3871710Y2503574D1*
X3868761Y2496453D1*
X3867120Y2493522D1*
X3882835Y2493517D1*
X3782880Y2493522D2*
X3779624Y2499955D1*
X3777243Y2507285D1*
X3776037Y2514897D1*
Y2522604D1*
X3777243Y2530216D1*
X3778681Y2534988D1*
X3771316Y2534993D1*
X3772757Y2530216D1*
X3773963Y2522604D1*
Y2514897D1*
X3772757Y2507285D1*
X3770376Y2499955D1*
X3767120Y2493522D1*
X3782862Y2493517D1*
X3773963Y3114897D2*
X3772757Y3107285D1*
X3770376Y3099955D1*
X3766877Y3093089D1*
X3762347Y3086854D1*
X3756897Y3081404D1*
X3750662Y3076874D1*
X3743795Y3073375D1*
X3736465Y3070994D1*
X3728853Y3069788D1*
X3721147D1*
X3713535Y3070994D1*
X3706205Y3073375D1*
X3699338Y3076874D1*
X3693103Y3081404D1*
X3687653Y3086854D1*
X3683123Y3093089D1*
X3679624Y3099955D1*
X3677243Y3107285D1*
X3676037Y3114897D1*
Y3122604D1*
X3677243Y3130216D1*
X3679624Y3137546D1*
X3683123Y3144413D1*
X3687653Y3150648D1*
X3693103Y3156097D1*
X3699338Y3160627D1*
X3706205Y3164126D1*
X3713535Y3166508D1*
X3721147Y3167713D1*
X3728853D1*
X3736465Y3166508D1*
X3743795Y3164126D1*
X3750662Y3160627D1*
X3756897Y3156097D1*
X3762347Y3150648D1*
X3766877Y3144413D1*
X3770376Y3137546D1*
X3772757Y3130216D1*
X3773963Y3122604D1*
Y3114897D1*
X3873963D2*
X3872757Y3107285D1*
X3870376Y3099955D1*
X3866877Y3093089D1*
X3862347Y3086854D1*
X3856897Y3081404D1*
X3850662Y3076874D1*
X3843795Y3073375D1*
X3836465Y3070994D1*
X3828853Y3069788D1*
X3821147D1*
X3813535Y3070994D1*
X3806205Y3073375D1*
X3799338Y3076874D1*
X3793103Y3081404D1*
X3787653Y3086854D1*
X3783123Y3093089D1*
X3779624Y3099955D1*
X3777243Y3107285D1*
X3776037Y3114897D1*
Y3122604D1*
X3777243Y3130216D1*
X3779624Y3137546D1*
X3783123Y3144413D1*
X3787653Y3150648D1*
X3793103Y3156097D1*
X3799338Y3160627D1*
X3806205Y3164126D1*
X3813535Y3166508D1*
X3821147Y3167713D1*
X3828853D1*
X3836465Y3166508D1*
X3839902Y3165539D1*
X3874916Y3200445D1*
X3879322Y3203388D1*
X3884293Y3205222D1*
X3889562Y3205845D1*
X4059466D1*
X4059498Y3225045D1*
X4055811Y3227497D1*
X4038515Y3244707D1*
X4038254Y3236641D1*
X4037004Y3232209D1*
X4034754Y3228192D1*
X4031629Y3224811D1*
X4027800Y3222253D1*
X4023481Y3220659D1*
X4018908Y3220118D1*
X3946781Y3220178D1*
X3942265Y3221077D1*
X3938084Y3223004D1*
X3934468Y3225855D1*
X3931617Y3229471D1*
X3929690Y3233652D1*
X3928791Y3238168D1*
Y3311832D1*
X3929690Y3316348D1*
X3931617Y3320529D1*
X3934468Y3324145D1*
X3938084Y3326996D1*
X3942265Y3328923D1*
X3946781Y3329822D1*
X4020445D1*
X4024961Y3328923D1*
X4029142Y3326996D1*
X4032758Y3324145D1*
X4035609Y3320529D1*
X4037536Y3316348D1*
X4038434Y3311832D1*
X4038495Y3310289D1*
X4042075Y3308852D1*
X4057019Y3323455D1*
X4061036Y3325705D1*
X4065467Y3326955D1*
X4068531Y3327196D1*
X4098609Y3326955D1*
X4103040Y3325705D1*
X4107057Y3323455D1*
X4109395Y3321459D1*
X4130496Y3300014D1*
X4132008Y3300019D1*
X4134004Y3302356D1*
X4155444Y3323455D1*
X4158070Y3325063D1*
X4159027Y3326010D1*
X4161245Y3330822D1*
X4164525Y3334983D1*
X4178030Y3348389D1*
X4182435Y3351332D1*
X4187406Y3353166D1*
X4192668Y3353789D1*
X4234329D1*
X4238916Y3359241D1*
X4243639Y3363276D1*
X4248936Y3366521D1*
X4254675Y3368898D1*
X4260715Y3370349D1*
X4266908Y3370836D1*
X4273101Y3370349D1*
X4279141Y3368898D1*
X4284880Y3366521D1*
X4290176Y3363276D1*
X4294900Y3359241D1*
X4298934Y3354518D1*
X4302180Y3349221D1*
X4304557Y3343482D1*
X4306007Y3337442D1*
X4306494Y3331249D1*
X4306007Y3325057D1*
X4304557Y3319016D1*
X4302180Y3313277D1*
X4298934Y3307981D1*
X4294900Y3303257D1*
X4290176Y3299223D1*
X4284880Y3295977D1*
X4279141Y3293600D1*
X4273101Y3292150D1*
X4266908Y3291663D1*
X4260715Y3292150D1*
X4254675Y3293600D1*
X4248936Y3295977D1*
X4243639Y3299223D1*
X4238916Y3303257D1*
X4234389Y3308718D1*
X4220581Y3308710D1*
X4228918Y3300019D1*
X4231168Y3296002D1*
X4232418Y3291571D1*
X4232659Y3288507D1*
X4232418Y3258429D1*
X4231168Y3253998D1*
X4228918Y3249981D1*
X4226922Y3247644D1*
X4205483Y3226545D1*
X4201465Y3224295D1*
X4197034Y3223045D1*
X4193970Y3222804D1*
X4163893Y3223045D1*
X4159461Y3224295D1*
X4155444Y3226545D1*
X4153103Y3228546D1*
X4132005Y3249986D1*
X4130493Y3249981D1*
X4128497Y3247643D1*
X4107057Y3226545D1*
X4105773Y3225688D1*
X4104578Y3219882D1*
X4104508Y3193744D1*
X4103475Y3188547D1*
X4101256Y3183736D1*
X4097976Y3179575D1*
X4084469Y3166166D1*
X4080064Y3163222D1*
X4075093Y3161388D1*
X4069831Y3160766D1*
X4050662Y3160627D1*
X4056897Y3156097D1*
X4062347Y3150648D1*
X4066877Y3144413D1*
X4070376Y3137546D1*
X4072757Y3130216D1*
X4073963Y3122604D1*
Y3114897D1*
X4072757Y3107285D1*
X4070376Y3099955D1*
X4066877Y3093089D1*
X4062347Y3086854D1*
X4056897Y3081404D1*
X4050662Y3076874D1*
X4043795Y3073375D1*
X4036465Y3070994D1*
X4028853Y3069788D1*
X4021147D1*
X4013535Y3070994D1*
X4006205Y3073375D1*
X3999338Y3076874D1*
X3993103Y3081404D1*
X3987653Y3086854D1*
X3983123Y3093089D1*
X3979624Y3099955D1*
X3977243Y3107285D1*
X3976037Y3114897D1*
Y3122604D1*
X3977243Y3130216D1*
X3979624Y3137546D1*
X3983123Y3144413D1*
X3987653Y3150648D1*
X3993103Y3156097D1*
X3999588Y3160767D1*
X3950662Y3160627D1*
X3956897Y3156097D1*
X3962347Y3150648D1*
X3966877Y3144413D1*
X3970376Y3137546D1*
X3972757Y3130216D1*
X3973963Y3122604D1*
Y3114897D1*
X3972757Y3107285D1*
X3970376Y3099955D1*
X3966877Y3093089D1*
X3962347Y3086854D1*
X3956897Y3081404D1*
X3950662Y3076874D1*
X3943795Y3073375D1*
X3936465Y3070994D1*
X3928853Y3069788D1*
X3921147D1*
X3913535Y3070994D1*
X3906205Y3073375D1*
X3899338Y3076874D1*
X3893103Y3081404D1*
X3887653Y3086854D1*
X3883123Y3093089D1*
X3879624Y3099955D1*
X3877243Y3107285D1*
X3876037Y3114897D1*
Y3122604D1*
X3877243Y3130216D1*
X3879624Y3137546D1*
X3883123Y3144413D1*
X3884303Y3146179D1*
X3871771Y3133645D1*
X3873509Y3126434D1*
X3874114Y3118751D1*
X3873963Y3114897D1*
X3897572Y3159447D2*
X3899588Y3160767D1*
X4173963Y3114897D2*
X4172757Y3107285D1*
X4170376Y3099955D1*
X4166877Y3093089D1*
X4162347Y3086854D1*
X4156897Y3081404D1*
X4150662Y3076874D1*
X4143795Y3073375D1*
X4136465Y3070994D1*
X4128853Y3069788D1*
X4121147D1*
X4113535Y3070994D1*
X4106205Y3073375D1*
X4099338Y3076874D1*
X4093103Y3081404D1*
X4087653Y3086854D1*
X4083123Y3093089D1*
X4079624Y3099955D1*
X4077243Y3107285D1*
X4076037Y3114897D1*
Y3122604D1*
X4077243Y3130216D1*
X4079624Y3137546D1*
X4083123Y3144413D1*
X4087653Y3150648D1*
X4093103Y3156097D1*
X4099338Y3160627D1*
X4106205Y3164126D1*
X4113535Y3166508D1*
X4121147Y3167713D1*
X4128853D1*
X4136465Y3166508D1*
X4143795Y3164126D1*
X4150662Y3160627D1*
X4156897Y3156097D1*
X4162347Y3150648D1*
X4166877Y3144413D1*
X4170376Y3137546D1*
X4172757Y3130216D1*
X4173963Y3122604D1*
Y3114897D1*
X4273963D2*
X4272757Y3107285D1*
X4270376Y3099955D1*
X4266877Y3093089D1*
X4262347Y3086854D1*
X4256897Y3081404D1*
X4250662Y3076874D1*
X4243795Y3073375D1*
X4236465Y3070994D1*
X4228853Y3069788D1*
X4221147D1*
X4213535Y3070994D1*
X4206205Y3073375D1*
X4199338Y3076874D1*
X4193103Y3081404D1*
X4187653Y3086854D1*
X4183123Y3093089D1*
X4179624Y3099955D1*
X4177243Y3107285D1*
X4176037Y3114897D1*
Y3122604D1*
X4177243Y3130216D1*
X4179624Y3137546D1*
X4183123Y3144413D1*
X4187653Y3150648D1*
X4193103Y3156097D1*
X4199338Y3160627D1*
X4206205Y3164126D1*
X4213535Y3166508D1*
X4221147Y3167713D1*
X4228853D1*
X4236465Y3166508D1*
X4243795Y3164126D1*
X4250662Y3160627D1*
X4256897Y3156097D1*
X4262347Y3150648D1*
X4266877Y3144413D1*
X4270376Y3137546D1*
X4272757Y3130216D1*
X4273963Y3122604D1*
Y3114897D1*
X4347547Y3162372D2*
X4353869Y3158485D1*
X4359729Y3153480D1*
X4363680Y3148956D1*
X4363679Y3193404D1*
X4359508Y3197008D1*
X4355474Y3201732D1*
X4352228Y3207028D1*
X4349851Y3212767D1*
X4348401Y3218808D1*
X4347913Y3225000D1*
X4348401Y3231193D1*
X4349851Y3237233D1*
X4352228Y3242972D1*
X4355474Y3248269D1*
X4359508Y3252992D1*
X4364231Y3257027D1*
X4369528Y3260272D1*
X4373456Y3261981D1*
X4347507Y3261982D1*
X4347540Y3162403D1*
X4447547Y3162372D2*
X4453869Y3158485D1*
X4454969Y3157618D1*
X4454970Y3173742D1*
X4449518Y3178258D1*
X4447532Y3180407D1*
X4447540Y3162402D1*
X4500061Y3161032D2*
X4506205Y3164126D1*
X4513535Y3166508D1*
X4521147Y3167713D1*
X4528853D1*
X4536465Y3166508D1*
X4541407Y3165007D1*
X4541867Y3167644D1*
X4541101Y3169677D1*
X4535566Y3172497D1*
X4530540Y3176148D1*
X4526148Y3180541D1*
X4522497Y3185566D1*
X4519677Y3191101D1*
X4517757Y3197009D1*
X4516892Y3202240D1*
X4516003Y3197009D1*
X4514083Y3191101D1*
X4511263Y3185566D1*
X4507612Y3180541D1*
X4503219Y3176148D1*
X4500041Y3173732D1*
X4500050Y3161072D1*
X4673963Y3114897D2*
X4672757Y3107285D1*
X4670376Y3099955D1*
X4666877Y3093089D1*
X4662347Y3086854D1*
X4656897Y3081404D1*
X4650662Y3076874D1*
X4643795Y3073375D1*
X4636465Y3070994D1*
X4628853Y3069788D1*
X4621147D1*
X4613535Y3070994D1*
X4606205Y3073375D1*
X4599338Y3076874D1*
X4593103Y3081404D1*
X4587653Y3086854D1*
X4584002Y3091773D1*
X4582017Y3088457D1*
X4579715Y3085763D1*
X4563963Y3070010D1*
X4564585Y3062922D1*
X4564098Y3056730D1*
X4562648Y3050689D1*
X4560271Y3044950D1*
X4559743Y3044008D1*
X4718376Y3044009D1*
X4752303Y3077929D1*
X4747297Y3074990D1*
X4740177Y3072040D1*
X4732683Y3070241D1*
X4725000Y3069636D1*
X4717317Y3070241D1*
X4709823Y3072040D1*
X4702703Y3074990D1*
X4696131Y3079016D1*
X4690271Y3084022D1*
X4685266Y3089882D1*
X4681239Y3096453D1*
X4678290Y3103574D1*
X4676491Y3111068D1*
X4675886Y3118751D1*
X4676491Y3126434D1*
X4678290Y3133928D1*
X4681239Y3141048D1*
X4685266Y3147619D1*
X4690271Y3153480D1*
X4696131Y3158485D1*
X4702703Y3162512D1*
X4709823Y3165461D1*
X4717317Y3167260D1*
X4725000Y3167865D1*
X4732683Y3167260D1*
X4740177Y3165461D1*
X4747297Y3162512D1*
X4753869Y3158485D1*
X4759729Y3153480D1*
X4764734Y3147619D1*
X4768761Y3141048D1*
X4771710Y3133928D1*
X4773509Y3126434D1*
X4774114Y3118751D1*
X4773509Y3111068D1*
X4771710Y3103574D1*
X4768761Y3096453D1*
X4765697Y3091322D1*
X4778184Y3103811D1*
X4776491Y3111068D1*
X4775886Y3118751D1*
X4776491Y3126434D1*
X4778290Y3133928D1*
X4781239Y3141048D1*
X4785266Y3147619D1*
X4790271Y3153480D1*
X4796131Y3158485D1*
X4802453Y3162372D1*
X4802460Y3183952D1*
X4799359Y3183711D1*
X4669853D1*
X4670786Y3177686D1*
Y3171474D1*
X4669815Y3165339D1*
X4667895Y3159431D1*
X4665075Y3153896D1*
X4662589Y3150349D1*
X4666877Y3144413D1*
X4670376Y3137546D1*
X4672757Y3130216D1*
X4673963Y3122604D1*
Y3114897D1*
X298970Y491422D2*
X301745Y506511D1*
X303559Y510743D1*
X311363Y524036D1*
X314515Y527392D1*
X326395Y537214D1*
X330505Y539290D1*
X345031Y544458D1*
X349603Y545003D1*
X365015Y544889D1*
X369497Y543838D1*
X383944Y538460D1*
X387797Y535939D1*
X399533Y525945D1*
X402291Y522258D1*
X409901Y508852D1*
X411232Y504444D1*
X413776Y489568D1*
X413833Y411706D1*
X413085Y406047D1*
X410754Y393487D1*
X408940Y389255D1*
X401136Y375962D1*
X397984Y372605D1*
X386103Y362783D1*
X383411Y361288D1*
X405200Y361121D1*
X439470D1*
X441458Y366276D1*
X443979Y370129D1*
X453974Y381865D1*
X457660Y384623D1*
X471066Y392233D1*
X475474Y393564D1*
X490350Y396108D1*
X568213Y396165D1*
X573872Y395417D1*
X586432Y393086D1*
X590664Y391272D1*
X603957Y383468D1*
X607313Y380316D1*
X617136Y368435D1*
X619212Y364326D1*
X624379Y349800D1*
X624924Y345228D1*
X624811Y329816D1*
X623759Y325333D1*
X618382Y310886D1*
X615861Y307033D1*
X605866Y295298D1*
X602180Y292539D1*
X588774Y284929D1*
X584366Y283598D1*
X569490Y281055D1*
X491627Y280997D1*
X485968Y281746D1*
X473408Y284077D1*
X469176Y285891D1*
X455207Y294217D1*
X452972Y296336D1*
X442704Y308727D1*
X440628Y312837D1*
X439458Y316043D1*
X366686Y316111D1*
X361490Y317145D1*
X356678Y319363D1*
X352517Y322643D1*
X339110Y336148D1*
X336166Y340554D1*
X334332Y345525D1*
X333710Y350787D1*
Y359507D1*
X328554Y361537D1*
X324701Y364058D1*
X312966Y374052D1*
X310207Y377739D1*
X302597Y391145D1*
X301266Y395553D1*
X298723Y410429D1*
Y489503D1*
X298905Y491036D1*
X391868Y532530D2*
X397906Y527472D1*
X413836Y438818D2*
Y415184D1*
X776437Y445249D2*
X774951Y435868D1*
X772016Y426834D1*
X767703Y418371D1*
X762120Y410687D1*
X755404Y403970D1*
X747719Y398387D1*
X739256Y394075D1*
X730223Y391140D1*
X720841Y389654D1*
X711343D1*
X701961Y391140D1*
X692927Y394075D1*
X684464Y398387D1*
X676780Y403970D1*
X670063Y410687D1*
X664480Y418371D1*
X660168Y426834D1*
X657233Y435868D1*
X655747Y445249D1*
Y454748D1*
X657233Y464129D1*
X660168Y473163D1*
X664480Y481626D1*
X670063Y489311D1*
X676780Y496027D1*
X684464Y501610D1*
X692927Y505922D1*
X701961Y508858D1*
X711343Y510344D1*
X720841D1*
X730223Y508858D1*
X739256Y505922D1*
X747719Y501610D1*
X755404Y496027D1*
X762120Y489311D1*
X767703Y481626D1*
X772016Y473163D1*
X774951Y464129D1*
X776437Y454748D1*
Y445249D1*
X573872Y716382D2*
X587247Y713790D1*
X590072Y712564D1*
X603957Y704432D1*
X607313Y701280D1*
X617136Y689400D1*
X619212Y685290D1*
X624379Y670765D1*
X624924Y666193D1*
X624810Y650781D1*
X623759Y646298D1*
X618382Y631851D1*
X615861Y627998D1*
X605866Y616262D1*
X602180Y613504D1*
X588774Y605894D1*
X584366Y604563D1*
X569490Y602020D1*
X491627Y601962D1*
X485968Y602710D1*
X473408Y605042D1*
X469176Y606855D1*
X455883Y614659D1*
X452527Y617811D1*
X442704Y629692D1*
X440628Y633802D1*
X435461Y648327D1*
X434916Y652899D1*
X435029Y668311D1*
X436081Y672794D1*
X441458Y687241D1*
X443979Y691094D1*
X453973Y702830D1*
X457660Y705588D1*
X471066Y713198D1*
X475474Y714529D1*
X490350Y717072D1*
X568213Y717130D1*
X573872Y716382D1*
X3564661Y249413D2*
X3552101Y251745D1*
X3547869Y253559D1*
X3533900Y261885D1*
X3531665Y264004D1*
X3521397Y276395D1*
X3519321Y280505D1*
X3514154Y295031D1*
X3513609Y299603D1*
X3513722Y315015D1*
X3514774Y319497D1*
X3520151Y333944D1*
X3522672Y337797D1*
X3532666Y349533D1*
X3536353Y352291D1*
X3549759Y359901D1*
X3554167Y361232D1*
X3569043Y363776D1*
X3646906Y363833D1*
X3652565Y363085D1*
X3665125Y360754D1*
X3669357Y358940D1*
X3682650Y351136D1*
X3686006Y347984D1*
X3695829Y336103D1*
X3697323Y333411D1*
X3697490Y342653D1*
Y389482D1*
X3692335Y391458D1*
X3688482Y393979D1*
X3676746Y403974D1*
X3673988Y407660D1*
X3666378Y421066D1*
X3665047Y425474D1*
X3662504Y440350D1*
X3662446Y518213D1*
X3663194Y523872D1*
X3665526Y536432D1*
X3667340Y540664D1*
X3675144Y553957D1*
X3678296Y557313D1*
X3690176Y567136D1*
X3694286Y569212D1*
X3708811Y574379D1*
X3713383Y574924D1*
X3728796Y574811D1*
X3733278Y573759D1*
X3747725Y568382D1*
X3751578Y565861D1*
X3763314Y555866D1*
X3766072Y552180D1*
X3773682Y538774D1*
X3775013Y534366D1*
X3777557Y519490D1*
X3777614Y441627D1*
X3776866Y435968D1*
X3774535Y423408D1*
X3772721Y419176D1*
X3764917Y405883D1*
X3761765Y402526D1*
X3749884Y392704D1*
X3745775Y390628D1*
X3742569Y389458D1*
X3742570Y334625D1*
X3969392Y334616D1*
X3973948Y340068D1*
X3978671Y344103D1*
X3983968Y347348D1*
X3989707Y349725D1*
X3995747Y351176D1*
X4001940Y351663D1*
X4008133Y351176D1*
X4014173Y349725D1*
X4019912Y347348D1*
X4025208Y344103D1*
X4029932Y340068D1*
X4034459Y334608D1*
X4269744Y334616D1*
X4290956Y355721D1*
X4295361Y358664D1*
X4300332Y360498D1*
X4305601Y361121D1*
X4404455D1*
X4400918Y363118D1*
X4387966Y374052D1*
X4385207Y377739D1*
X4377597Y391145D1*
X4376266Y395553D1*
X4373723Y410429D1*
X4373665Y488291D1*
X4374414Y493951D1*
X4376745Y506511D1*
X4378559Y510743D1*
X4386363Y524036D1*
X4389515Y527392D1*
X4401395Y537214D1*
X4405505Y539291D1*
X4420031Y544458D1*
X4424603Y545003D1*
X4440015Y544889D1*
X4444497Y543838D1*
X4458945Y538460D1*
X4462797Y535939D1*
X4474533Y525945D1*
X4477291Y522258D1*
X4484902Y508852D1*
X4486232Y504444D1*
X4488776Y489568D1*
X4488833Y411706D1*
X4488085Y406047D1*
X4485493Y392671D1*
X4484267Y389847D1*
X4476136Y375962D1*
X4472984Y372605D1*
X4461103Y362783D1*
X4458411Y361288D1*
X4480135Y361121D1*
X4514476D1*
X4516458Y366277D1*
X4518979Y370129D1*
X4528973Y381865D1*
X4532660Y384623D1*
X4546066Y392234D1*
X4550474Y393564D1*
X4565350Y396108D1*
X4643213Y396165D1*
X4648872Y395417D1*
X4661432Y393086D1*
X4665664Y391272D1*
X4679633Y382945D1*
X4681868Y380827D1*
X4692136Y368435D1*
X4694212Y364326D1*
X4699379Y349800D1*
X4699924Y345228D1*
X4699810Y329816D1*
X4698759Y325333D1*
X4693382Y310886D1*
X4690861Y307033D1*
X4680866Y295298D1*
X4677180Y292539D1*
X4663774Y284929D1*
X4659366Y283598D1*
X4644490Y281055D1*
X4566627Y280997D1*
X4560968Y281746D1*
X4548408Y284077D1*
X4544176Y285891D1*
X4530883Y293695D1*
X4527527Y296847D1*
X4517704Y308727D1*
X4515628Y312837D1*
X4514458Y316043D1*
X4314940Y316042D1*
X4293727Y294937D1*
X4289322Y291993D1*
X4284351Y290159D1*
X4279089Y289537D1*
X4034466D1*
X4029932Y284084D1*
X4025208Y280050D1*
X4019912Y276804D1*
X4014173Y274427D1*
X4008133Y272977D1*
X4001940Y272490D1*
X3995747Y272977D1*
X3989707Y274427D1*
X3983968Y276804D1*
X3978671Y280050D1*
X3973948Y284084D1*
X3969421Y289545D1*
X3730465Y289606D1*
X3725269Y290640D1*
X3720457Y292858D1*
X3716296Y296138D1*
X3704087Y308347D1*
X3703621Y307617D1*
X3703503Y297484D1*
X3702452Y293001D1*
X3697075Y278554D1*
X3694553Y274701D1*
X3684559Y262966D1*
X3680873Y260207D1*
X3667466Y252597D1*
X3663059Y251266D1*
X3648182Y248723D1*
X3570320Y248665D1*
X3564661Y249413D1*
X3668958Y661343D2*
X3667472Y651961D1*
X3664537Y642927D1*
X3660224Y634464D1*
X3654641Y626780D1*
X3647925Y620063D1*
X3640240Y614480D1*
X3631777Y610168D1*
X3622744Y607233D1*
X3613362Y605747D1*
X3603864D1*
X3594482Y607233D1*
X3585448Y610168D1*
X3576985Y614480D1*
X3569301Y620063D1*
X3562584Y626780D1*
X3557001Y634464D1*
X3552689Y642927D1*
X3549754Y651961D1*
X3548268Y661343D1*
Y670841D1*
X3549754Y680223D1*
X3552689Y689256D1*
X3557001Y697719D1*
X3562584Y705404D1*
X3569301Y712120D1*
X3576985Y717703D1*
X3585448Y722016D1*
X3594482Y724951D1*
X3603864Y726437D1*
X3613362D1*
X3622744Y724951D1*
X3631777Y722016D1*
X3640240Y717703D1*
X3647925Y712120D1*
X3654641Y705404D1*
X3660224Y697719D1*
X3664537Y689256D1*
X3667472Y680223D1*
X3668958Y670841D1*
Y661343D1*
X3342230Y523872D2*
X3344561Y536432D1*
X3346375Y540664D1*
X3354179Y553957D1*
X3357331Y557313D1*
X3369212Y567136D1*
X3373321Y569212D1*
X3387847Y574379D1*
X3392419Y574924D1*
X3407831Y574811D1*
X3412314Y573759D1*
X3426761Y568382D1*
X3430614Y565861D1*
X3442349Y555866D1*
X3445108Y552180D1*
X3452718Y538774D1*
X3454049Y534366D1*
X3456592Y519490D1*
X3456650Y441627D1*
X3455901Y435968D1*
X3453570Y423408D1*
X3451756Y419176D1*
X3443952Y405883D1*
X3440800Y402526D1*
X3428197Y392247D1*
X3425442Y390871D1*
X3410284Y385461D1*
X3405712Y384916D1*
X3390300Y385029D1*
X3385818Y386081D1*
X3371370Y391458D1*
X3367518Y393979D1*
X3355782Y403974D1*
X3353024Y407660D1*
X3345414Y421066D1*
X3344083Y425474D1*
X3341539Y440350D1*
X3341482Y518213D1*
X3342230Y523872D1*
X3341479Y515972D2*
Y445118D1*
X3456652Y468740D2*
Y445106D1*
X3662444Y515972D2*
Y445118D1*
X3777617Y468740D2*
Y445106D1*
X3623513Y2151088D2*
X3631396Y2143205D1*
X3678484Y2447591D2*
Y2384611D1*
X3852421Y2439729D2*
Y2384599D1*
X3322579Y2447591D2*
Y2384611D1*
X3499665Y2439730D2*
Y2384599D1*
X457360Y2051369D2*
X394419Y2051429D1*
X389903Y2052327D1*
X385721Y2054255D1*
X382105Y2057105D1*
X379255Y2060721D1*
X377327Y2064903D1*
X376429Y2069419D1*
Y2143083D1*
X377327Y2147599D1*
X379255Y2151780D1*
X382105Y2155396D1*
X385721Y2158246D1*
X389903Y2160174D1*
X394419Y2161072D1*
X468083D1*
X472599Y2160174D1*
X476780Y2158246D1*
X480396Y2155396D1*
X483246Y2151780D1*
X485174Y2147599D1*
X486072Y2143083D1*
X486576Y2136965D1*
X504657Y2154705D1*
X508674Y2156955D1*
X513105Y2158205D1*
X516169Y2158446D1*
X546246Y2158205D1*
X550678Y2156955D1*
X554695Y2154706D1*
X557032Y2152709D1*
X577182Y2132473D1*
X578372Y2132196D1*
X580529Y2134721D1*
X600851Y2154951D1*
X604987Y2157715D1*
X609654Y2159436D1*
X614594Y2160021D1*
X643268Y2159956D1*
X648147Y2158985D1*
X652664Y2156903D1*
X656571Y2153823D1*
X676801Y2133501D1*
X679565Y2129364D1*
X681287Y2124697D1*
X681872Y2119757D1*
X681806Y2091084D1*
X680836Y2086205D1*
X678753Y2081687D1*
X675669Y2077776D1*
X655351Y2057550D1*
X651215Y2054787D1*
X646548Y2053065D1*
X641608Y2052480D1*
X612934Y2052545D1*
X608055Y2053516D1*
X603538Y2055599D1*
X599631Y2058678D1*
X579401Y2079001D1*
X578368Y2080311D1*
X577179Y2080024D1*
X555903Y2058748D1*
X552075Y2056190D1*
X547755Y2054596D1*
X543182Y2054055D1*
X513105Y2054296D1*
X508674Y2055546D1*
X504656Y2057796D1*
X502319Y2059792D1*
X486153Y2075958D1*
X485891Y2067891D1*
X484642Y2063460D1*
X482392Y2059443D1*
X479266Y2056062D1*
X475438Y2053504D1*
X471118Y2051910D1*
X466546Y2051369D1*
X457360D1*
X376369Y2133666D2*
Y2078560D1*
X564902Y2144840D2*
X572784Y2136957D1*
X575010Y2077770D2*
X559254Y2062013D1*
X666675Y2068783D2*
X658792Y2060900D1*
X793810Y2449187D2*
X793749Y2312923D1*
X792851Y2308407D1*
X790924Y2304225D1*
X788073Y2300609D1*
X784457Y2297759D1*
X780276Y2295831D1*
X775760Y2294933D1*
X639459Y2294873D1*
X634887Y2295414D1*
X630567Y2297007D1*
X626739Y2299565D1*
X623613Y2302947D1*
X621364Y2306964D1*
X620114Y2311395D1*
X619873Y2314459D1*
X619933Y2450760D1*
X620831Y2455276D1*
X622759Y2459457D1*
X625609Y2463073D1*
X629225Y2465924D1*
X633407Y2467851D1*
X637923Y2468749D1*
X774223Y2468810D1*
X778796Y2468269D1*
X783115Y2466675D1*
X786944Y2464117D1*
X790069Y2460736D1*
X792319Y2456719D1*
X793569Y2452287D1*
X793810Y2449217D1*
Y2401973D1*
X619873Y2441343D2*
Y2394111D1*
X441054Y2449187D2*
X440989Y2312799D1*
X440018Y2307920D1*
X437936Y2303402D1*
X434856Y2299496D1*
X430949Y2296416D1*
X426432Y2294334D1*
X421553Y2293363D1*
X285129Y2293298D1*
X280189Y2293883D1*
X275521Y2295604D1*
X271385Y2298368D1*
X268009Y2302021D1*
X265578Y2306361D1*
X264228Y2311149D1*
X263967Y2314459D1*
X264032Y2450883D1*
X265003Y2455762D1*
X267085Y2460280D1*
X270165Y2464187D1*
X274072Y2467266D1*
X278589Y2469349D1*
X283468Y2470319D1*
X419892Y2470385D1*
X424832Y2469800D1*
X429500Y2468078D1*
X433636Y2465314D1*
X437012Y2461662D1*
X439443Y2457321D1*
X440793Y2452533D1*
X441054Y2449217D1*
Y2401973D1*
X263967Y2441343D2*
Y2394111D1*
X4373663Y486050D2*
Y430944D1*
X4488836Y438818D2*
Y430932D1*
X4851437Y445249D2*
X4849951Y435868D1*
X4847016Y426834D1*
X4842703Y418371D1*
X4837120Y410687D1*
X4830404Y403970D1*
X4822719Y398387D1*
X4814256Y394075D1*
X4805223Y391140D1*
X4795841Y389654D1*
X4786343D1*
X4776961Y391140D1*
X4767927Y394075D1*
X4759464Y398387D1*
X4751780Y403970D1*
X4745063Y410687D1*
X4739480Y418371D1*
X4735168Y426834D1*
X4732233Y435868D1*
X4730747Y445249D1*
Y454748D1*
X4732233Y464129D1*
X4735168Y473163D1*
X4739480Y481626D1*
X4745063Y489311D1*
X4751780Y496027D1*
X4759464Y501610D1*
X4767927Y505922D1*
X4776961Y508858D1*
X4786343Y510344D1*
X4795841D1*
X4805223Y508858D1*
X4814256Y505922D1*
X4822719Y501610D1*
X4830404Y496027D1*
X4837120Y489311D1*
X4842703Y481626D1*
X4847016Y473163D1*
X4849951Y464129D1*
X4851437Y454748D1*
Y445249D1*
X4648872Y716382D2*
X4661432Y714050D1*
X4665664Y712236D1*
X4678957Y704432D1*
X4682313Y701281D1*
X4692136Y689400D1*
X4694212Y685290D1*
X4699379Y670765D1*
X4699924Y666193D1*
X4699811Y650781D1*
X4698759Y646298D1*
X4693382Y631851D1*
X4690861Y627998D1*
X4680866Y616262D1*
X4677180Y613504D1*
X4663774Y605894D1*
X4659366Y604563D1*
X4644490Y602020D1*
X4566627Y601962D1*
X4560968Y602710D1*
X4548408Y605042D1*
X4544176Y606855D1*
X4530207Y615182D1*
X4527972Y617300D1*
X4517704Y629692D1*
X4515628Y633802D1*
X4514458Y637008D1*
X3841125Y637005D1*
X3836609Y631552D1*
X3831885Y627518D1*
X3826589Y624272D1*
X3820850Y621895D1*
X3814810Y620445D1*
X3808617Y619958D1*
X3802424Y620445D1*
X3796384Y621895D1*
X3790645Y624272D1*
X3785348Y627518D1*
X3780625Y631552D1*
X3776591Y636276D1*
X3773345Y641572D1*
X3770968Y647311D1*
X3769518Y653352D1*
X3769030Y659544D1*
X3769518Y665737D1*
X3770968Y671777D1*
X3773345Y677516D1*
X3776591Y682813D1*
X3780625Y687536D1*
X3785348Y691571D1*
X3790645Y694816D1*
X3796384Y697193D1*
X3802424Y698644D1*
X3808617Y699131D1*
X3814810Y698644D1*
X3820850Y697193D1*
X3826589Y694816D1*
X3831885Y691571D1*
X3836609Y687536D1*
X3841136Y682076D1*
X4514423Y682085D1*
X4516458Y687241D1*
X4518979Y691094D1*
X4528974Y702830D1*
X4532660Y705588D1*
X4546066Y713198D1*
X4550474Y714529D1*
X4565350Y717072D1*
X4643213Y717130D1*
X4648872Y716382D1*
X1320388Y493161D2*
X1322858Y506511D1*
X1324672Y510743D1*
X1332476Y524036D1*
X1335628Y527392D1*
X1347508Y537214D1*
X1351618Y539291D1*
X1366143Y544458D1*
X1370715Y545003D1*
X1386128Y544889D1*
X1390610Y543838D1*
X1405057Y538460D1*
X1408910Y535939D1*
X1420646Y525945D1*
X1423404Y522258D1*
X1431014Y508852D1*
X1432345Y504444D1*
X1434889Y489568D1*
X1434946Y411706D1*
X1434019Y405027D1*
X1431867Y393487D1*
X1430053Y389255D1*
X1422249Y375962D1*
X1419097Y372605D1*
X1406494Y362326D1*
X1401381Y360077D1*
X1388581Y355540D1*
X1384009Y354995D1*
X1368597Y355108D1*
X1364114Y356159D1*
X1349667Y361537D1*
X1345814Y364058D1*
X1334078Y374052D1*
X1331320Y377739D1*
X1323710Y391145D1*
X1322379Y395553D1*
X1319836Y410429D1*
X1319778Y488291D1*
X1320388Y493161D1*
X1360653Y357416D2*
X1351725Y360656D1*
X1319776Y486050D2*
Y415196D1*
X1434949Y438818D2*
Y415184D1*
X1797550Y445249D2*
X1796064Y435868D1*
X1793129Y426834D1*
X1788816Y418371D1*
X1783233Y410687D1*
X1776517Y403970D1*
X1768832Y398387D1*
X1760369Y394075D1*
X1751336Y391140D1*
X1741954Y389654D1*
X1732455D1*
X1723074Y391140D1*
X1714040Y394075D1*
X1705577Y398387D1*
X1697893Y403970D1*
X1691176Y410687D1*
X1685593Y418371D1*
X1681281Y426834D1*
X1678346Y435868D1*
X1676860Y445249D1*
Y454748D1*
X1678346Y464129D1*
X1681281Y473163D1*
X1685593Y481626D1*
X1691176Y489311D1*
X1697893Y496027D1*
X1705577Y501610D1*
X1714040Y505922D1*
X1723074Y508858D1*
X1732455Y510344D1*
X1741954D1*
X1751336Y508858D1*
X1760369Y505922D1*
X1768832Y501610D1*
X1776517Y496027D1*
X1783233Y489311D1*
X1788816Y481626D1*
X1793129Y473163D1*
X1796064Y464129D1*
X1797550Y454748D1*
Y445249D1*
X1594985Y716382D2*
X1607545Y714050D1*
X1611777Y712236D1*
X1625070Y704432D1*
X1628426Y701280D1*
X1638249Y689400D1*
X1640325Y685290D1*
X1645492Y670765D1*
X1646037Y666193D1*
X1645923Y650781D1*
X1644872Y646298D1*
X1639495Y631851D1*
X1636973Y627998D1*
X1626979Y616262D1*
X1623292Y613504D1*
X1609886Y605894D1*
X1605479Y604563D1*
X1590602Y602020D1*
X1512740Y601962D1*
X1507081Y602710D1*
X1494521Y605042D1*
X1490289Y606855D1*
X1476996Y614659D1*
X1473639Y617811D1*
X1463817Y629692D1*
X1461741Y633802D1*
X1456574Y648327D1*
X1456029Y652899D1*
X1456142Y668311D1*
X1457193Y672794D1*
X1462968Y687998D1*
X1464666Y690567D1*
X1475086Y702830D1*
X1478773Y705588D1*
X1492179Y713198D1*
X1496587Y714529D1*
X1511463Y717072D1*
X1589325Y717130D1*
X1594985Y716382D1*
X1595257Y396968D2*
X1607991Y394596D1*
X1612563Y392636D1*
X1626005Y384735D1*
X1629632Y381329D1*
X1639561Y369306D1*
X1641804Y364866D1*
X1647023Y350169D1*
X1647612Y345229D1*
X1647488Y329639D1*
X1646352Y324796D1*
X1640476Y309368D1*
X1638641Y306592D1*
X1628064Y294156D1*
X1624081Y291176D1*
X1610516Y283486D1*
X1605753Y282048D1*
X1590726Y279485D1*
X1512714Y279423D1*
X1506809Y280195D1*
X1494075Y282567D1*
X1489503Y284526D1*
X1476060Y292428D1*
X1472434Y295833D1*
X1462505Y307857D1*
X1460262Y312297D1*
X1455043Y326994D1*
X1454454Y331933D1*
X1454577Y347524D1*
X1455713Y352367D1*
X1461161Y366978D1*
X1463885Y371140D1*
X1474001Y383007D1*
X1477985Y385986D1*
X1491550Y393677D1*
X1496312Y395115D1*
X1511340Y397678D1*
X1589352Y397740D1*
X1595257Y396968D1*
X2326638Y499411D2*
X2329109Y512761D1*
X2330922Y516993D1*
X2338726Y530286D1*
X2341878Y533643D1*
X2353759Y543465D1*
X2357868Y545541D1*
X2372394Y550709D1*
X2376966Y551253D1*
X2392378Y551140D1*
X2396861Y550089D1*
X2411308Y544711D1*
X2415161Y542190D1*
X2426897Y532196D1*
X2429655Y528509D1*
X2437265Y515103D1*
X2438596Y510695D1*
X2441139Y495819D1*
X2441197Y417957D1*
X2440270Y411278D1*
X2438117Y399737D1*
X2436303Y395505D1*
X2428499Y382212D1*
X2425347Y378856D1*
X2413467Y369034D1*
X2409357Y366957D1*
X2394832Y361790D1*
X2390260Y361245D1*
X2374847Y361359D1*
X2370365Y362410D1*
X2355918Y367788D1*
X2352065Y370309D1*
X2339754Y380935D1*
X2336651Y385580D1*
X2329961Y397396D1*
X2328630Y401804D1*
X2326087Y416680D1*
X2326029Y494542D1*
X2326638Y499411D1*
X2326026Y492301D2*
Y421447D1*
X2441199Y445069D2*
Y421435D1*
X2803800Y451500D2*
X2802314Y442119D1*
X2799379Y433085D1*
X2795067Y424622D1*
X2789484Y416937D1*
X2782767Y410221D1*
X2775083Y404638D1*
X2766620Y400326D1*
X2757586Y397390D1*
X2748205Y395904D1*
X2738706D1*
X2729325Y397390D1*
X2720291Y400326D1*
X2711828Y404638D1*
X2704143Y410221D1*
X2697427Y416937D1*
X2691844Y424622D1*
X2687532Y433085D1*
X2684596Y442119D1*
X2683110Y451500D1*
Y460999D1*
X2684596Y470380D1*
X2687532Y479414D1*
X2691844Y487877D1*
X2697427Y495561D1*
X2704143Y502278D1*
X2711828Y507861D1*
X2720291Y512173D1*
X2729325Y515108D1*
X2738706Y516594D1*
X2748205D1*
X2757586Y515108D1*
X2766620Y512173D1*
X2775083Y507861D1*
X2782767Y502278D1*
X2789484Y495561D1*
X2795067Y487877D1*
X2799379Y479414D1*
X2802314Y470380D1*
X2803800Y460999D1*
Y451500D1*
X2598707Y723076D2*
X2613795Y720301D1*
X2618027Y718487D1*
X2631320Y710683D1*
X2634677Y707531D1*
X2644499Y695651D1*
X2646575Y691541D1*
X2651743Y677015D1*
X2652287Y672443D1*
X2652174Y657031D1*
X2651123Y652548D1*
X2645745Y638101D1*
X2643224Y634249D1*
X2633230Y622513D1*
X2629543Y619755D1*
X2616137Y612144D1*
X2611729Y610814D1*
X2596853Y608270D1*
X2518991Y608213D1*
X2513331Y608961D1*
X2500772Y611292D1*
X2496540Y613106D1*
X2483247Y620910D1*
X2479890Y624062D1*
X2470068Y635942D1*
X2467992Y640052D1*
X2462824Y654578D1*
X2462279Y659150D1*
X2462393Y674562D1*
X2463444Y679045D1*
X2468822Y693492D1*
X2471343Y697345D1*
X2481337Y709080D1*
X2485024Y711839D1*
X2498430Y719449D1*
X2502838Y720780D1*
X2517714Y723323D1*
X2596787D1*
X2598321Y723141D1*
X2601508Y403219D2*
X2614241Y400847D1*
X2618814Y398887D1*
X2632256Y390985D1*
X2635882Y387580D1*
X2645812Y375557D1*
X2648055Y371116D1*
X2653274Y356420D1*
X2653862Y351480D1*
X2653739Y335890D1*
X2652603Y331047D1*
X2647155Y316435D1*
X2644431Y312273D1*
X2634315Y300407D1*
X2630332Y297427D1*
X2616766Y289736D1*
X2612004Y288298D1*
X2596977Y285736D1*
X2517656D1*
X2501937Y288410D1*
X2497225Y290005D1*
X2483685Y297745D1*
X2479803Y300855D1*
X2469727Y312760D1*
X2467143Y317010D1*
X2461746Y331646D1*
X2460771Y336524D1*
X2460706Y352117D1*
X2461459Y357034D1*
X2466731Y371713D1*
X2469120Y376076D1*
X2479094Y388066D1*
X2482831Y391349D1*
X2496305Y399205D1*
X2500939Y401012D1*
X2517590Y403928D1*
X2595602Y403991D1*
X2601508Y403219D1*
X865827Y1332504D2*
X864265Y1322637D1*
X861178Y1313137D1*
X856642Y1304236D1*
X850771Y1296154D1*
X843707Y1289090D1*
X835625Y1283218D1*
X826724Y1278683D1*
X817224Y1275596D1*
X807357Y1274034D1*
X797367D1*
X787501Y1275596D1*
X778000Y1278683D1*
X769099Y1283218D1*
X761017Y1289090D1*
X753954Y1296154D1*
X748082Y1304236D1*
X743547Y1313137D1*
X740460Y1322637D1*
X738897Y1332504D1*
Y1342494D1*
X740460Y1352360D1*
X743547Y1361861D1*
X748082Y1370762D1*
X753954Y1378843D1*
X761017Y1385907D1*
X769099Y1391779D1*
X778000Y1396314D1*
X787501Y1399401D1*
X797367Y1400964D1*
X807357D1*
X817224Y1399401D1*
X826724Y1396314D1*
X835625Y1391779D1*
X843707Y1385907D1*
X850771Y1378843D1*
X856642Y1370762D1*
X861178Y1361861D1*
X864265Y1352360D1*
X865827Y1342494D1*
Y1332504D1*
Y1135653D2*
X864265Y1125787D1*
X861178Y1116286D1*
X856642Y1107385D1*
X850771Y1099304D1*
X843707Y1092240D1*
X835625Y1086368D1*
X826724Y1081833D1*
X817224Y1078746D1*
X807357Y1077183D1*
X797367D1*
X787501Y1078746D1*
X778000Y1081833D1*
X769099Y1086368D1*
X761017Y1092240D1*
X753954Y1099304D1*
X748082Y1107385D1*
X743547Y1116286D1*
X740460Y1125787D1*
X738897Y1135653D1*
Y1145643D1*
X740460Y1155510D1*
X743547Y1165010D1*
X748082Y1173911D1*
X753954Y1181993D1*
X761017Y1189057D1*
X769099Y1194929D1*
X778000Y1199464D1*
X787501Y1202551D1*
X797367Y1204113D1*
X807357D1*
X817224Y1202551D1*
X826724Y1199464D1*
X835625Y1194929D1*
X843707Y1189057D1*
X850771Y1181993D1*
X856642Y1173911D1*
X861178Y1165010D1*
X864265Y1155510D1*
X865827Y1145643D1*
Y1135653D1*
X1356548Y1138811D2*
X1355896Y1131495D1*
X1354386Y1124308D1*
X1352037Y1117349D1*
X1348883Y1110716D1*
X1344967Y1104501D1*
X1340346Y1098793D1*
X1335082Y1093671D1*
X1329250Y1089206D1*
X1322932Y1085460D1*
X1316216Y1082488D1*
X1309195Y1080329D1*
X1301969Y1079014D1*
X1294638Y1078562D1*
X1287305Y1078979D1*
X1280073Y1080258D1*
X1273042Y1082383D1*
X1266312Y1085324D1*
X1259975Y1089038D1*
X1254122Y1093475D1*
X1248834Y1098572D1*
X1244184Y1104258D1*
X1240239Y1110453D1*
X1237053Y1117071D1*
X1234670Y1124018D1*
X1233125Y1131199D1*
X1232438Y1138511D1*
X1232620Y1145854D1*
X1233668Y1153123D1*
X1235567Y1160219D1*
X1238290Y1167040D1*
X1241800Y1173492D1*
X1246047Y1179484D1*
X1250972Y1184933D1*
X1256506Y1189762D1*
X1262572Y1193903D1*
X1269084Y1197300D1*
X1275952Y1199903D1*
X1283079Y1201678D1*
X1290366Y1202598D1*
X1297711Y1202651D1*
X1305010Y1201837D1*
X1312163Y1200166D1*
X1319068Y1197662D1*
X1325629Y1194361D1*
X1331754Y1190307D1*
X1337357Y1185559D1*
X1342361Y1180182D1*
X1346695Y1174252D1*
X1350298Y1167852D1*
X1353120Y1161071D1*
X1355121Y1154004D1*
X1356274Y1146751D1*
X1356548Y1138811D1*
X1356383Y1332627D2*
X1354859Y1323005D1*
X1351849Y1313739D1*
X1347426Y1305059D1*
X1341699Y1297177D1*
X1334810Y1290288D1*
X1326928Y1284561D1*
X1318248Y1280138D1*
X1308982Y1277128D1*
X1299359Y1275603D1*
X1289617D1*
X1279994Y1277128D1*
X1270729Y1280138D1*
X1262048Y1284561D1*
X1254166Y1290288D1*
X1247277Y1297177D1*
X1241551Y1305059D1*
X1237128Y1313739D1*
X1234117Y1323005D1*
X1232593Y1332627D1*
Y1342370D1*
X1234117Y1351993D1*
X1237128Y1361258D1*
X1241551Y1369939D1*
X1247277Y1377821D1*
X1254166Y1384710D1*
X1262048Y1390436D1*
X1270729Y1394859D1*
X1279994Y1397870D1*
X1289617Y1399394D1*
X1299359D1*
X1308982Y1397870D1*
X1318248Y1394859D1*
X1326928Y1390436D1*
X1334810Y1384710D1*
X1341699Y1377821D1*
X1347426Y1369939D1*
X1351849Y1361258D1*
X1354859Y1351993D1*
X1356383Y1342370D1*
Y1332627D1*
X3915827Y1332505D2*
X3914265Y1322639D1*
X3911178Y1313138D1*
X3906642Y1304237D1*
X3900771Y1296155D1*
X3893707Y1289091D1*
X3885625Y1283220D1*
X3876724Y1278685D1*
X3867224Y1275598D1*
X3857357Y1274035D1*
X3847367D1*
X3837501Y1275598D1*
X3828000Y1278685D1*
X3819099Y1283220D1*
X3811017Y1289091D1*
X3803954Y1296155D1*
X3798082Y1304237D1*
X3793547Y1313138D1*
X3790460Y1322639D1*
X3788897Y1332505D1*
Y1342495D1*
X3790460Y1352361D1*
X3793547Y1361862D1*
X3798082Y1370763D1*
X3803954Y1378845D1*
X3811017Y1385909D1*
X3819099Y1391780D1*
X3828000Y1396315D1*
X3837501Y1399402D1*
X3847367Y1400965D1*
X3857357D1*
X3867224Y1399402D1*
X3876724Y1396315D1*
X3885625Y1391780D1*
X3893707Y1385909D1*
X3900771Y1378845D1*
X3906642Y1370763D1*
X3911178Y1361862D1*
X3914265Y1352361D1*
X3915827Y1342495D1*
Y1332505D1*
Y1135655D2*
X3914265Y1125788D1*
X3911178Y1116287D1*
X3906642Y1107387D1*
X3900771Y1099305D1*
X3893707Y1092241D1*
X3885625Y1086369D1*
X3876724Y1081834D1*
X3867224Y1078747D1*
X3857357Y1077184D1*
X3847367D1*
X3837501Y1078747D1*
X3828000Y1081834D1*
X3819099Y1086369D1*
X3811017Y1092241D1*
X3803954Y1099305D1*
X3798082Y1107387D1*
X3793547Y1116287D1*
X3790460Y1125788D1*
X3788897Y1135655D1*
Y1145644D1*
X3790460Y1155511D1*
X3793547Y1165012D1*
X3798082Y1173913D1*
X3803954Y1181994D1*
X3804285Y1182353D1*
X2880605Y1182364D1*
X2876849Y1176908D1*
X2879859Y1167642D1*
X2881383Y1158020D1*
Y1148277D1*
X2879859Y1138654D1*
X2876849Y1129389D1*
X2872426Y1120708D1*
X2866699Y1112826D1*
X2859810Y1105937D1*
X2851928Y1100211D1*
X2843248Y1095788D1*
X2833982Y1092777D1*
X2824359Y1091253D1*
X2814617D1*
X2804994Y1092777D1*
X2795729Y1095788D1*
X2787048Y1100211D1*
X2779166Y1105937D1*
X2772277Y1112826D1*
X2766551Y1120708D1*
X2762128Y1129389D1*
X2759815Y1136180D1*
X2735048Y1111418D1*
X2735699Y1104359D1*
X2735212Y1098167D1*
X2733762Y1092126D1*
X2731385Y1086387D1*
X2728139Y1081091D1*
X2724105Y1076367D1*
X2719381Y1072333D1*
X2714085Y1069087D1*
X2708346Y1066710D1*
X2702306Y1065260D1*
X2696113Y1064773D1*
X2689920Y1065260D1*
X2683880Y1066710D1*
X2678141Y1069087D1*
X2672844Y1072333D1*
X2668121Y1076367D1*
X2664087Y1081091D1*
X2660841Y1086387D1*
X2658464Y1092126D1*
X2657014Y1098167D1*
X2656526Y1104359D1*
X2657014Y1110552D1*
X2658464Y1116592D1*
X2660841Y1122331D1*
X2664087Y1127628D1*
X2668121Y1132351D1*
X2672844Y1136386D1*
X2678141Y1139631D1*
X2683880Y1142008D1*
X2689920Y1143459D1*
X2696113Y1143946D1*
X2703175Y1143286D1*
X2811270Y1251295D1*
X2815676Y1254238D1*
X2820647Y1256072D1*
X2825916Y1256695D1*
X4311909D1*
X4316495Y1262147D1*
X4321218Y1266182D1*
X4326515Y1269427D1*
X4332254Y1271804D1*
X4338294Y1273255D1*
X4344487Y1273742D1*
X4350680Y1273255D1*
X4356720Y1271804D1*
X4362459Y1269427D1*
X4367755Y1266182D1*
X4372479Y1262147D1*
X4376513Y1257424D1*
X4379759Y1252127D1*
X4382136Y1246388D1*
X4383586Y1240348D1*
X4384073Y1234155D1*
X4383586Y1227963D1*
X4382136Y1221922D1*
X4379759Y1216183D1*
X4376513Y1210887D1*
X4372479Y1206163D1*
X4367755Y1202129D1*
X4363916Y1199618D1*
X4370744Y1196911D1*
X4377204Y1193417D1*
X4383207Y1189184D1*
X4388667Y1184272D1*
X4393510Y1178750D1*
X4397666Y1172694D1*
X4401078Y1166190D1*
X4403698Y1159329D1*
X4405490Y1152206D1*
X4406428Y1144921D1*
X4406466Y1136977D1*
X4405599Y1129684D1*
X4403876Y1122544D1*
X4401322Y1115657D1*
X4397973Y1109121D1*
X4393876Y1103025D1*
X4389087Y1097456D1*
X4383674Y1092491D1*
X4377713Y1088201D1*
X4371287Y1084644D1*
X4364485Y1081872D1*
X4357404Y1079921D1*
X4350142Y1078821D1*
X4342801Y1078586D1*
X4335484Y1079219D1*
X4328292Y1080713D1*
X4321328Y1083045D1*
X4314687Y1086183D1*
X4308463Y1090083D1*
X4302744Y1094691D1*
X4297609Y1099942D1*
X4293130Y1105763D1*
X4289369Y1112073D1*
X4286380Y1118782D1*
X4284204Y1125797D1*
X4282872Y1133020D1*
X4282402Y1140349D1*
X4282801Y1147683D1*
X4284064Y1154919D1*
X4286171Y1161955D1*
X4289095Y1168692D1*
X4292795Y1175038D1*
X4297217Y1180902D1*
X4302302Y1186202D1*
X4307976Y1190865D1*
X4314162Y1194826D1*
X4320772Y1198028D1*
X4325114Y1199629D1*
X4321218Y1202129D1*
X4316495Y1206163D1*
X4311968Y1211624D1*
X4303184Y1211616D1*
X4303778Y1204903D1*
X4303291Y1198711D1*
X4301841Y1192670D1*
X4299464Y1186931D1*
X4296218Y1181635D1*
X4292184Y1176911D1*
X4287460Y1172877D1*
X4282164Y1169631D1*
X4276425Y1167254D1*
X4270385Y1165804D1*
X4264192Y1165317D1*
X4257999Y1165804D1*
X4251959Y1167254D1*
X4246220Y1169631D1*
X4240923Y1172877D1*
X4236200Y1176911D1*
X4231673Y1182372D1*
X3900434Y1182364D1*
X3903865Y1178069D1*
X3909085Y1169551D1*
X3912908Y1160322D1*
X3915240Y1150608D1*
X3916024Y1140650D1*
X3915827Y1135655D1*
X4406383Y1332629D2*
X4404859Y1323006D1*
X4401849Y1313740D1*
X4397426Y1305060D1*
X4391699Y1297178D1*
X4384810Y1290289D1*
X4376928Y1284562D1*
X4368248Y1280139D1*
X4358982Y1277129D1*
X4349359Y1275605D1*
X4339617D1*
X4329994Y1277129D1*
X4320729Y1280139D1*
X4312048Y1284562D1*
X4304166Y1290289D1*
X4297277Y1297178D1*
X4291551Y1305060D1*
X4287128Y1313740D1*
X4284117Y1323006D1*
X4282593Y1332629D1*
Y1342371D1*
X4284117Y1351994D1*
X4287128Y1361260D1*
X4291551Y1369940D1*
X4297277Y1377822D1*
X4304166Y1384711D1*
X4312048Y1390438D1*
X4320729Y1394861D1*
X4329994Y1397871D1*
X4339617Y1399395D1*
X4349359D1*
X4358982Y1397871D1*
X4368248Y1394861D1*
X4376928Y1390438D1*
X4384810Y1384711D1*
X4391699Y1377822D1*
X4397426Y1369940D1*
X4401849Y1361260D1*
X4404859Y1351994D1*
X4406383Y1342371D1*
Y1332629D1*
X2390827Y1345004D2*
X2389265Y1335137D1*
X2386178Y1325637D1*
X2381642Y1316736D1*
X2375771Y1308654D1*
X2368707Y1301590D1*
X2360625Y1295718D1*
X2351724Y1291183D1*
X2342224Y1288096D1*
X2332357Y1286534D1*
X2322367D1*
X2312501Y1288096D1*
X2303000Y1291183D1*
X2294099Y1295718D1*
X2286017Y1301590D1*
X2278954Y1308654D1*
X2273082Y1316736D1*
X2268547Y1325637D1*
X2265460Y1335137D1*
X2263897Y1345004D1*
Y1354994D1*
X2265460Y1364860D1*
X2268547Y1374361D1*
X2273082Y1383262D1*
X2278954Y1391343D1*
X2286017Y1398407D1*
X2294099Y1404279D1*
X2303000Y1408814D1*
X2312501Y1411901D1*
X2322367Y1413464D1*
X2332357D1*
X2342224Y1411901D1*
X2351724Y1408814D1*
X2360625Y1404279D1*
X2368707Y1398407D1*
X2375771Y1391343D1*
X2381642Y1383262D1*
X2386178Y1374361D1*
X2389265Y1364860D1*
X2390827Y1354994D1*
Y1345004D1*
Y1148153D2*
X2389265Y1138287D1*
X2386178Y1128786D1*
X2381642Y1119885D1*
X2375771Y1111804D1*
X2368707Y1104740D1*
X2360625Y1098868D1*
X2351724Y1094333D1*
X2342224Y1091246D1*
X2332357Y1089683D1*
X2322367D1*
X2312501Y1091246D1*
X2303000Y1094333D1*
X2294099Y1098868D1*
X2286017Y1104740D1*
X2278954Y1111804D1*
X2273082Y1119885D1*
X2268547Y1128786D1*
X2265460Y1138287D1*
X2263897Y1148153D1*
Y1158143D1*
X2265460Y1168010D1*
X2268547Y1177510D1*
X2273082Y1186411D1*
X2278954Y1194493D1*
X2286017Y1201557D1*
X2294099Y1207429D1*
X2303000Y1211964D1*
X2312501Y1215051D1*
X2322367Y1216613D1*
X2332357D1*
X2342224Y1215051D1*
X2351724Y1211964D1*
X2360625Y1207429D1*
X2368707Y1201557D1*
X2375771Y1194493D1*
X2381642Y1186411D1*
X2386178Y1177510D1*
X2389265Y1168010D1*
X2390827Y1158143D1*
Y1148153D1*
X2881548Y1348162D2*
X2880896Y1340846D1*
X2879386Y1333658D1*
X2877037Y1326699D1*
X2873883Y1320066D1*
X2869967Y1313852D1*
X2865346Y1308144D1*
X2860082Y1303021D1*
X2854250Y1298556D1*
X2847932Y1294811D1*
X2841216Y1291838D1*
X2834195Y1289679D1*
X2826969Y1288364D1*
X2819638Y1287912D1*
X2812305Y1288329D1*
X2805073Y1289609D1*
X2798042Y1291734D1*
X2791312Y1294674D1*
X2784975Y1298388D1*
X2779122Y1302825D1*
X2773834Y1307922D1*
X2769184Y1313608D1*
X2765239Y1319803D1*
X2762053Y1326421D1*
X2759670Y1333369D1*
X2758125Y1340549D1*
X2757438Y1347862D1*
X2757620Y1355204D1*
X2758668Y1362474D1*
X2760567Y1369569D1*
X2763290Y1376390D1*
X2766800Y1382842D1*
X2771047Y1388834D1*
X2775972Y1394283D1*
X2781506Y1399112D1*
X2787572Y1403254D1*
X2794084Y1406650D1*
X2800952Y1409254D1*
X2808079Y1411028D1*
X2815366Y1411948D1*
X2822711Y1412002D1*
X2830010Y1411187D1*
X2837163Y1409516D1*
X2844068Y1407013D1*
X2850629Y1403711D1*
X2856754Y1399658D1*
X2862357Y1394910D1*
X2867361Y1389533D1*
X2871695Y1383603D1*
X2875298Y1377203D1*
X2878120Y1370422D1*
X2880121Y1363355D1*
X2881274Y1356101D1*
X2881548Y1348162D1*
X1183405Y3811914D2*
X1182631Y3804612D1*
X1180839Y3797491D1*
X1178066Y3790691D1*
X1174366Y3784349D1*
X1169812Y3778588D1*
X1168684Y3777393D1*
X3772713Y3777395D1*
X3777247Y3782847D1*
X3781970Y3786882D1*
X3787267Y3790127D1*
X3793006Y3792504D1*
X3799046Y3793955D1*
X3805239Y3794442D1*
X3811432Y3793955D1*
X3817472Y3792504D1*
X3823211Y3790127D1*
X3828507Y3786882D1*
X3833231Y3782847D1*
X3837265Y3778124D1*
X3840511Y3772827D1*
X3842888Y3767088D1*
X3844338Y3761048D1*
X3844825Y3754855D1*
X3844338Y3748663D1*
X3842888Y3742622D1*
X3840511Y3736883D1*
X3837265Y3731587D1*
X3833231Y3726863D1*
X3828507Y3722829D1*
X3823211Y3719583D1*
X3817472Y3717206D1*
X3811432Y3715756D1*
X3805239Y3715269D1*
X3799046Y3715756D1*
X3793006Y3717206D1*
X3787267Y3719583D1*
X3781970Y3722829D1*
X3777247Y3726863D1*
X3772720Y3732324D1*
X988378Y3732385D1*
X983181Y3733419D1*
X978369Y3735637D1*
X974208Y3738917D1*
X948606Y3764520D1*
X943433Y3763006D1*
X935345Y3761725D1*
X927156D1*
X919068Y3763006D1*
X911280Y3765537D1*
X903983Y3769254D1*
X897358Y3774068D1*
X891568Y3779858D1*
X886754Y3786483D1*
X883037Y3793780D1*
X880506Y3801568D1*
X879225Y3809656D1*
Y3817845D1*
X880506Y3825933D1*
X883037Y3833722D1*
X886754Y3841018D1*
X891568Y3847643D1*
X897358Y3853433D1*
X903983Y3858247D1*
X911280Y3861965D1*
X919068Y3864495D1*
X927156Y3865776D1*
X935345D1*
X943433Y3864495D1*
X951222Y3861965D1*
X958518Y3858247D1*
X965143Y3853433D1*
X970933Y3847643D1*
X975747Y3841018D1*
X979465Y3833722D1*
X981995Y3825933D1*
X983276Y3817845D1*
Y3809656D1*
X981995Y3801568D1*
X980445Y3796438D1*
X999484Y3777393D1*
X1093815Y3777395D1*
X1089454Y3782503D1*
X1085482Y3788679D1*
X1082416Y3795351D1*
X1080316Y3802388D1*
X1079226Y3809649D1*
X1079165Y3816992D1*
X1080136Y3824270D1*
X1082118Y3831341D1*
X1085073Y3838063D1*
X1088943Y3844304D1*
X1093650Y3849939D1*
X1099102Y3854859D1*
X1105190Y3858964D1*
X1111794Y3862174D1*
X1118783Y3864426D1*
X1126019Y3865674D1*
X1133359Y3865894D1*
X1140657Y3865082D1*
X1147769Y3863254D1*
X1154554Y3860445D1*
X1160877Y3856712D1*
X1166614Y3852129D1*
X1171650Y3846785D1*
X1175887Y3840788D1*
X1179240Y3834255D1*
X1181643Y3827316D1*
X1183048Y3820109D1*
X1183437Y3813751D1*
X1183405Y3811914D1*
X4219927Y2109391D2*
X4219389Y2105435D1*
X4240323Y2084513D1*
X4447452Y2084537D1*
X4447450Y2141786D1*
X4442502Y2146734D1*
X4200346Y2146714D1*
X4206172Y2142599D1*
X4210565Y2138207D1*
X4214216Y2133181D1*
X4217036Y2127646D1*
X4218956Y2121739D1*
X4219927Y2115603D1*
Y2109391D1*
X4041329Y3528061D2*
X4036802Y3522600D1*
X4032078Y3518566D1*
X4026782Y3515320D1*
X4021043Y3512943D1*
X4015003Y3511493D1*
X4008810Y3511006D1*
X4002617Y3511493D1*
X3996577Y3512943D1*
X3993407Y3514136D1*
X3993351Y3481548D1*
X3992380Y3476669D1*
X3990298Y3472152D1*
X3987213Y3468241D1*
X3992890Y3467675D1*
X4179882D1*
X4176928Y3470488D1*
X4174370Y3474317D1*
X4172776Y3478636D1*
X4172235Y3483209D1*
Y3528028D1*
X4041350Y3528052D1*
X3993407Y3587049D2*
X3999569Y3589085D1*
X4005704Y3590057D1*
X4011916D1*
X4018051Y3589085D1*
X4023959Y3587166D1*
X4029494Y3584345D1*
X4034519Y3580694D1*
X4038912Y3576302D1*
X4041329Y3573124D1*
X4172262Y3573131D1*
X4172235Y3604677D1*
X3993441Y3604686D1*
X3993416Y3594344D1*
X4889935Y3442644D2*
X4889274Y3449706D1*
X4889700Y3455381D1*
X4834128Y3399815D1*
X4834106Y3386845D1*
X4889929Y3442650D1*
X4586424Y3478266D2*
X4582982Y3480474D1*
X4578258Y3484508D1*
X4574224Y3489232D1*
X4570978Y3494528D1*
X4568601Y3500267D1*
X4567151Y3506307D1*
X4566663Y3512500D1*
X4567151Y3518693D1*
X4568601Y3524733D1*
X4570978Y3530472D1*
X4574224Y3535768D1*
X4578258Y3540492D1*
X4583719Y3545019D1*
X4583710Y3558539D1*
X4578830Y3557056D1*
X4572695Y3556084D1*
X4566483D1*
X4560348Y3557056D1*
X4554440Y3558975D1*
X4548905Y3561795D1*
X4543879Y3565446D1*
X4539487Y3569839D1*
X4535836Y3574864D1*
X4533016Y3580399D1*
X4531096Y3586307D1*
X4530124Y3592442D1*
Y3598654D1*
X4530663Y3602610D1*
X4519539Y3604686D1*
X4346183D1*
X4346112Y3481672D1*
X4345213Y3477156D1*
X4343286Y3472975D1*
X4340435Y3469359D1*
X4339301Y3468311D1*
X4341971Y3467675D1*
X4418512D1*
X4434044Y3483174D1*
X4433416Y3490257D1*
X4433904Y3496450D1*
X4435354Y3502490D1*
X4437731Y3508229D1*
X4440977Y3513526D1*
X4445011Y3518249D1*
X4449734Y3522284D1*
X4455031Y3525529D1*
X4460770Y3527906D1*
X4466810Y3529357D1*
X4473003Y3529844D1*
X4479196Y3529357D1*
X4485236Y3527906D1*
X4490975Y3525529D1*
X4496271Y3522284D1*
X4500995Y3518249D1*
X4505029Y3513526D1*
X4508275Y3508229D1*
X4510652Y3502490D1*
X4512102Y3496450D1*
X4512300Y3494774D1*
X4517976Y3493378D1*
X4523715Y3491001D1*
X4529011Y3487756D1*
X4533735Y3483721D1*
X4538262Y3478261D1*
X4586375Y3478269D1*
X4516507Y3212955D2*
X4516867Y3210261D1*
X4517252Y3212955D1*
X4401544Y3261981D2*
X4405472Y3260272D1*
X4410768Y3257027D1*
X4415492Y3252992D1*
X4418902Y3249060D1*
X4423959Y3253740D1*
X4428582Y3256329D1*
X4433682Y3257768D1*
X4437215Y3258045D1*
X4511883D1*
X4508799Y3261990D1*
X4401621Y3261982D1*
X360577Y2059393D2*
X359606Y2053258D1*
X357686Y2047350D1*
X354866Y2041815D1*
X351215Y2036790D1*
X346822Y2032397D1*
X343644Y2029981D1*
X343653Y1768644D1*
X426545Y1685768D1*
X433613Y1686411D1*
X439806Y1685924D1*
X445846Y1684473D1*
X451585Y1682096D1*
X456881Y1678851D1*
X461605Y1674816D1*
X465639Y1670093D1*
X468885Y1664796D1*
X471262Y1659057D1*
X472712Y1653017D1*
X473199Y1646824D1*
X472712Y1640632D1*
X471262Y1634591D1*
X468885Y1628852D1*
X465639Y1623556D1*
X461605Y1618832D1*
X456881Y1614798D1*
X451585Y1611552D1*
X445846Y1609175D1*
X439806Y1607725D1*
X433613Y1607238D1*
X427420Y1607725D1*
X421380Y1609175D1*
X415641Y1611552D1*
X410344Y1614798D1*
X405621Y1618832D1*
X401587Y1623556D1*
X398341Y1628852D1*
X395964Y1634591D1*
X394514Y1640632D1*
X394026Y1646824D1*
X394687Y1653886D1*
X303974Y1744686D1*
X301030Y1749092D1*
X299196Y1754063D1*
X298573Y1759324D1*
Y2029927D1*
X293121Y2034507D1*
X289087Y2039231D1*
X285841Y2044527D1*
X283464Y2050266D1*
X282014Y2056307D1*
X281526Y2062499D1*
X282014Y2068692D1*
X283464Y2074732D1*
X285841Y2080471D1*
X289087Y2085768D1*
X293121Y2090491D1*
X297844Y2094526D1*
X303141Y2097771D1*
X308880Y2100148D1*
X314920Y2101599D1*
X321113Y2102086D1*
X327306Y2101599D1*
X333346Y2100148D1*
X339085Y2097771D1*
X344381Y2094526D1*
X349105Y2090491D1*
X353139Y2085768D1*
X356385Y2080471D1*
X358762Y2074732D1*
X360212Y2068692D1*
X360699Y2062499D1*
X360577Y2059393D1*
X4447481Y2138291D2*
X4447480Y2098933D1*
X4734439Y2157338D2*
X4742321Y2149456D1*
X4663978Y2157330D2*
X4656112Y2149464D1*
X4751408Y2127742D2*
Y2111982D1*
X4690984Y2453842D2*
Y2343618D1*
X4512165Y2453854D2*
Y2343605D1*
X4335079Y2445967D2*
Y2343618D1*
X3928731Y3302415D2*
Y3247309D1*
X4145229Y3313580D2*
X4137363Y3305715D1*
X4232659Y3283993D2*
Y3276107D1*
X4346172Y3602230D2*
Y3515604D1*
X4172235Y3602218D2*
Y3578608D1*
Y3523478D2*
Y3515616D1*
X3816330Y3602218D2*
X3816329Y3515617D1*
X4771200Y1225000D2*
D15*
X4825000D1*
X4771200Y1325000D2*
X4825000D1*
X4771200Y1425000D2*
X4825000D1*
X4925000Y1225000D2*
X4978800D1*
X4925000Y1325000D2*
X4978800D1*
X4925000Y1425000D2*
X4978800D1*
X2406251Y3986233D2*
Y3876266D1*
X2351267Y3931249D2*
X2406251D1*
X5025000Y2567829D2*
Y2469672D1*
Y2518751D2*
X5074079D1*
X1377362Y545043D2*
Y354954D1*
X1319746Y449999D2*
X1434979D1*
X2383613Y551294D2*
Y361205D1*
X2325996Y456249D2*
X2441229D1*
X1294488Y1202699D2*
Y1078598D1*
X1232437Y1140648D2*
X1356539D1*
X4344488Y1140650D2*
Y1078599D1*
X4282437Y1140650D2*
X4406539D1*
X2819488Y1412049D2*
Y1287948D1*
X2757437Y1349999D2*
X2881539D1*
X1031251Y3295901D2*
Y3191600D1*
X1131251Y3865901D2*
Y3813751D1*
X1079100D2*
X1183401D1*
D115*
X4825000Y1125000D3*
Y1225000D3*
Y1325000D3*
Y1425000D3*
Y1525000D3*
X4925000Y1125000D3*
Y1225000D3*
Y1325000D3*
Y1425000D3*
Y1525000D3*
D28*
X1808613Y3549999D3*
D29*
X1708613D3*
D28*
X3389862Y3543749D3*
D29*
X3289862D3*
D30*
X2406251Y3931249D3*
X2506270D3*
X2606270D3*
X2706270D3*
D116*
X2464862Y2112499D3*
D117*
X2563287D3*
X2661713D3*
D118*
X2740453Y2388089D3*
X2386122D3*
D116*
X1446113Y2112499D3*
D117*
X1544538D3*
X1642963D3*
D118*
X1721703Y2388089D3*
X1367373D3*
D36*
X5025000Y2518751D3*
D37*
X4925000D3*
X4825000D3*
X4725000D3*
X4625000D3*
X4525000D3*
X4425000D3*
X4325000D3*
X4225000D3*
X4125000D3*
X4025000D3*
X3925000D3*
X3825000D3*
X3725000D3*
Y3118751D3*
X3825000D3*
X3925000D3*
X4025000D3*
X4125000D3*
X4225000D3*
X4325000D3*
X4425000D3*
X4525000D3*
X4625000D3*
X4725000D3*
X4825000D3*
X4925000D3*
X5025000D3*
D119*
X356249Y449999D3*
D46*
X716092D3*
D120*
X529920Y659546D3*
Y338581D3*
D123*
X3608613Y306249D3*
D46*
Y666092D3*
D119*
X3399066Y479920D3*
X3720030D3*
D116*
X3489862Y2112499D3*
D117*
X3588287D3*
X3686713D3*
D118*
X3765453Y2388089D3*
X3411122D3*
D116*
X431251Y2106251D3*
D117*
X529676D3*
X628101D3*
D118*
X706841Y2381841D3*
X352510D3*
D119*
X4431249Y449999D3*
D46*
X4791092D3*
D120*
X4604920Y659546D3*
Y338581D3*
D119*
X1377362Y449999D3*
D46*
X1737205D3*
D120*
X1551033Y659546D3*
Y338581D3*
D119*
X2383613Y456249D3*
D46*
X2743455D3*
D120*
X2557283Y665797D3*
Y344832D3*
D52*
X802362Y1337499D3*
Y1140648D3*
X1294488D3*
Y1337499D3*
X3852362Y1337500D3*
Y1140650D3*
X4344488D3*
Y1337500D3*
X2327362Y1349999D3*
Y1153148D3*
X2819488D3*
Y1349999D3*
D53*
X1031251Y3243751D3*
X1131251Y3813751D3*
D54*
X1291251Y3538751D3*
X771251D3*
D53*
X931251Y3813751D3*
X1131251Y3243751D3*
X931251D3*
D116*
X4502362Y2118749D3*
D117*
X4600787D3*
X4699213D3*
D118*
X4777953Y2394340D3*
X4423622D3*
D116*
X3983613Y3275000D3*
D117*
X4082038D3*
X4180463D3*
D118*
X4259203Y3550591D3*
X3904873D3*
M02*
