G04 DipTrace 3.3.1.3*
G04 TopPaste.gbr*
%MOIN*%
G04 #@! TF.FileFunction,Paste,Top*
G04 #@! TF.Part,Single*
%AMOUTLINE0*
4,1,8,
-0.014159,0.034184,
-0.034184,0.014159,
-0.034184,-0.014159,
-0.014159,-0.034184,
0.014159,-0.034184,
0.034184,-0.014159,
0.034184,0.014159,
0.014159,0.034184,
-0.014159,0.034184,
0*%
%AMOUTLINE1*
4,1,4,
0.035295,0.035295,
0.035295,-0.035295,
-0.035295,-0.035295,
-0.035295,0.035295,
0.035295,0.035295,
0*%
%AMOUTLINE2*
4,1,8,
-0.013507,-0.032609,
-0.032609,-0.013507,
-0.032609,0.013507,
-0.013507,0.032609,
0.013507,0.032609,
0.032609,0.013507,
0.032609,-0.013507,
0.013507,-0.032609,
-0.013507,-0.032609,
0*%
%AMOUTLINE3*
4,1,4,
0.067382,0.067382,
0.067382,-0.067382,
-0.067382,-0.067382,
-0.067382,0.067382,
0.067382,0.067382,
0*%
%AMOUTLINE4*
4,1,20,
-0.038,0.037967,
-0.035719,0.050966,
-0.029131,0.0624,
-0.019029,0.070892,
-0.006631,0.075417,
0.006566,0.075428,
0.018971,0.070925,
0.029088,0.062451,
0.035697,0.051028,
0.038,0.038033,
0.038,-0.037967,
0.035719,-0.050966,
0.029131,-0.0624,
0.019029,-0.070892,
0.006631,-0.075417,
-0.006566,-0.075428,
-0.018971,-0.070925,
-0.029088,-0.062451,
-0.035697,-0.051028,
-0.038,-0.038033,
-0.038,0.037967,
0*%
%AMOUTLINE7*
4,1,20,
0.037624,0.034063,
0.049602,0.031961,
0.059833,0.026066,
0.067432,0.017027,
0.071481,0.005934,
0.07149,-0.005875,
0.067461,-0.016975,
0.059879,-0.026028,
0.049657,-0.031941,
0.037687,-0.034063,
-0.037624,-0.034063,
-0.049602,-0.031961,
-0.059833,-0.026066,
-0.067432,-0.017027,
-0.071481,-0.005934,
-0.07149,0.005875,
-0.067461,0.016975,
-0.059879,0.026028,
-0.049657,0.031941,
-0.037687,0.034063,
0.037624,0.034063,
0*%
%AMOUTLINE8*
4,1,20,
-0.037967,-0.038,
-0.050966,-0.035719,
-0.0624,-0.029131,
-0.070892,-0.019029,
-0.075417,-0.006631,
-0.075428,0.006566,
-0.070925,0.018971,
-0.062451,0.029088,
-0.051028,0.035697,
-0.038033,0.038,
0.037967,0.038,
0.050966,0.035719,
0.0624,0.029131,
0.070892,0.019029,
0.075417,0.006631,
0.075428,-0.006566,
0.070925,-0.018971,
0.062451,-0.029088,
0.051028,-0.035697,
0.038033,-0.038,
-0.037967,-0.038,
0*%
%AMOUTLINE10*
4,1,20,
-0.034063,0.037624,
-0.031961,0.049602,
-0.026066,0.059833,
-0.017027,0.067432,
-0.005934,0.071481,
0.005875,0.07149,
0.016975,0.067461,
0.026028,0.059879,
0.031941,0.049657,
0.034063,0.037687,
0.034063,-0.037624,
0.031961,-0.049602,
0.026066,-0.059833,
0.017027,-0.067432,
0.005934,-0.071481,
-0.005875,-0.07149,
-0.016975,-0.067461,
-0.026028,-0.059879,
-0.031941,-0.049657,
-0.034063,-0.037687,
-0.034063,0.037624,
0*%
%ADD30C,0.070866*%
%ADD52C,0.085*%
%ADD53C,0.065199*%
%ADD54C,0.146699*%
%ADD91C,0.051181*%
%ADD92R,0.051181X0.051181*%
%ADD97C,0.062992*%
%ADD99R,0.042126X0.042126*%
%ADD101C,0.042126*%
%ADD115OUTLINE0*%
%ADD116OUTLINE1*%
%ADD117OUTLINE2*%
%ADD118OUTLINE3*%
%ADD119OUTLINE4*%
%ADD122OUTLINE7*%
%ADD123OUTLINE8*%
%ADD125OUTLINE10*%
%FSLAX26Y26*%
G04*
G70*
G90*
G75*
G01*
G04 TopPaste*
%LPD*%
D115*
X4825000Y1125000D3*
Y1225000D3*
Y1325000D3*
Y1425000D3*
Y1525000D3*
X4925000Y1125000D3*
Y1225000D3*
Y1325000D3*
Y1425000D3*
Y1525000D3*
D101*
X1808613Y3549999D3*
D99*
X1708613D3*
D101*
X3389862Y3543749D3*
D99*
X3289862D3*
D97*
X2406251Y3931249D3*
X2506270D3*
X2606270D3*
X2706270D3*
D116*
X2464862Y2112499D3*
D117*
X2563287D3*
X2661713D3*
D118*
X2740453Y2388089D3*
X2386122D3*
D116*
X1446113Y2112499D3*
D117*
X1544538D3*
X1642963D3*
D118*
X1721703Y2388089D3*
X1367373D3*
D92*
X5025000Y2518751D3*
D91*
X4925000D3*
X4825000D3*
X4725000D3*
X4625000D3*
X4525000D3*
X4425000D3*
X4325000D3*
X4225000D3*
X4125000D3*
X4025000D3*
X3925000D3*
X3825000D3*
X3725000D3*
Y3118751D3*
X3825000D3*
X3925000D3*
X4025000D3*
X4125000D3*
X4225000D3*
X4325000D3*
X4425000D3*
X4525000D3*
X4625000D3*
X4725000D3*
X4825000D3*
X4925000D3*
X5025000D3*
D119*
X356249Y449999D3*
D30*
X716092D3*
D122*
X529920Y659546D3*
Y338581D3*
D123*
X3608613Y306249D3*
D30*
Y666092D3*
D125*
X3399066Y479920D3*
X3720030D3*
D116*
X3489862Y2112499D3*
D117*
X3588287D3*
X3686713D3*
D118*
X3765453Y2388089D3*
X3411122D3*
D116*
X431251Y2106251D3*
D117*
X529676D3*
X628101D3*
D118*
X706841Y2381841D3*
X352510D3*
D119*
X4431249Y449999D3*
D30*
X4791092D3*
D122*
X4604920Y659546D3*
Y338581D3*
D119*
X1377362Y449999D3*
D30*
X1737205D3*
D122*
X1551033Y659546D3*
Y338581D3*
D119*
X2383613Y456249D3*
D30*
X2743455D3*
D122*
X2557283Y665797D3*
Y344832D3*
D52*
X802362Y1337499D3*
Y1140648D3*
X1294488D3*
Y1337499D3*
X3852362Y1337500D3*
Y1140650D3*
X4344488D3*
Y1337500D3*
X2327362Y1349999D3*
Y1153148D3*
X2819488D3*
Y1349999D3*
D53*
X1031251Y3243751D3*
X1131251Y3813751D3*
D54*
X1291251Y3538751D3*
X771251D3*
D53*
X931251Y3813751D3*
X1131251Y3243751D3*
X931251D3*
D116*
X4502362Y2118749D3*
D117*
X4600787D3*
X4699213D3*
D118*
X4777953Y2394340D3*
X4423622D3*
D116*
X3983613Y3275000D3*
D117*
X4082038D3*
X4180463D3*
D118*
X4259203Y3550591D3*
X3904873D3*
M02*
