G04 DipTrace 3.3.1.3*
G04 TopSilk.gbr*
%MOIN*%
G04 #@! TF.FileFunction,Legend,Top*
G04 #@! TF.Part,Single*
%ADD10C,0.009843*%
%ADD31C,0.008*%
%ADD32C,0.002*%
%ADD45C,0.005*%
%ADD51C,0.027559*%
%ADD112C,0.003088*%
%FSLAX26Y26*%
G04*
G70*
G90*
G75*
G01*
G04 TopSilk*
%LPD*%
X1658619Y3475061D2*
D10*
Y3624936D1*
X1658844Y3474761D2*
G03X1658844Y3625236I99796J75238D01*
G01*
X3239869Y3468812D2*
Y3618687D1*
X3240094Y3468512D2*
G03X3240094Y3618987I99796J75238D01*
G01*
X2012520Y4006230D2*
X3100020D1*
Y2906230D1*
X2012520D1*
Y4006230D1*
X2401886Y2600689D2*
D31*
X2724689D1*
Y2155831D2*
X2401886D1*
Y2579017D2*
X2380219D1*
X2401886Y2600689D2*
Y2579017D1*
Y2177451D2*
Y2155831D1*
X2380219Y2177451D2*
X2401886D1*
X2724689D2*
X2746355D1*
X2724689Y2155831D2*
Y2177451D1*
Y2579017D2*
Y2600689D1*
X2746355Y2579017D2*
X2724689D1*
X2380219Y2492432D2*
Y2579017D1*
Y2177451D2*
Y2303454D1*
X2746355Y2579017D2*
Y2492432D1*
Y2303454D2*
Y2177451D1*
X2508264Y2388075D2*
D32*
G02X2508264Y2388075I55023J0D01*
G01*
X2523279Y2388101D2*
G02X2523279Y2388101I40008J0D01*
G01*
X1383137Y2600689D2*
D31*
X1705939D1*
Y2155831D2*
X1383137D1*
Y2579017D2*
X1361470D1*
X1383137Y2600689D2*
Y2579017D1*
Y2177451D2*
Y2155831D1*
X1361470Y2177451D2*
X1383137D1*
X1705939D2*
X1727606D1*
X1705939Y2155831D2*
Y2177451D1*
Y2579017D2*
Y2600689D1*
X1727606Y2579017D2*
X1705939D1*
X1361470Y2492432D2*
Y2579017D1*
Y2177451D2*
Y2303454D1*
X1727606Y2579017D2*
Y2492432D1*
Y2303454D2*
Y2177451D1*
X1489515Y2388075D2*
D32*
G02X1489515Y2388075I55023J0D01*
G01*
X1504530Y2388101D2*
G02X1504530Y2388101I40008J0D01*
G01*
X333727Y299999D2*
D45*
Y699999D1*
X508743D1*
X533708D1*
X558716D1*
X733732D1*
Y299999D1*
X333727D1*
X421257Y474999D2*
D10*
G02X421257Y474999I112495J0D01*
G01*
X3758613Y283727D2*
D45*
X3358613D1*
Y458743D1*
Y483708D1*
Y508716D1*
Y683732D1*
X3758613D1*
Y283727D1*
X3471093Y483751D2*
D10*
G02X3471093Y483751I112520J0D01*
G01*
X3426886Y2600689D2*
D31*
X3749689D1*
Y2155831D2*
X3426886D1*
Y2579017D2*
X3405219D1*
X3426886Y2600689D2*
Y2579017D1*
Y2177451D2*
Y2155831D1*
X3405219Y2177451D2*
X3426886D1*
X3749689D2*
X3771355D1*
X3749689Y2155831D2*
Y2177451D1*
Y2579017D2*
Y2600689D1*
X3771355Y2579017D2*
X3749689D1*
X3405219Y2492432D2*
Y2579017D1*
Y2177451D2*
Y2303454D1*
X3771355Y2579017D2*
Y2492432D1*
Y2303454D2*
Y2177451D1*
X3533264Y2388075D2*
D32*
G02X3533264Y2388075I55023J0D01*
G01*
X3548279Y2388101D2*
G02X3548279Y2388101I40008J0D01*
G01*
X368275Y2594441D2*
D31*
X691077D1*
Y2149583D2*
X368275D1*
Y2572769D2*
X346608D1*
X368275Y2594441D2*
Y2572769D1*
Y2171203D2*
Y2149583D1*
X346608Y2171203D2*
X368275D1*
X691077D2*
X712744D1*
X691077Y2149583D2*
Y2171203D1*
Y2572769D2*
Y2594441D1*
X712744Y2572769D2*
X691077D1*
X346608Y2486184D2*
Y2572769D1*
Y2171203D2*
Y2297206D1*
X712744Y2572769D2*
Y2486184D1*
Y2297206D2*
Y2171203D1*
X474653Y2381827D2*
D32*
G02X474653Y2381827I55023J0D01*
G01*
X489668Y2381853D2*
G02X489668Y2381853I40008J0D01*
G01*
X4408727Y299999D2*
D45*
Y699999D1*
X4583743D1*
X4608708D1*
X4633716D1*
X4808732D1*
Y299999D1*
X4408727D1*
X4496257Y474999D2*
D10*
G02X4496257Y474999I112495J0D01*
G01*
X1354840Y299999D2*
D45*
Y699999D1*
X1529856D1*
X1554821D1*
X1579829D1*
X1754845D1*
Y299999D1*
X1354840D1*
X1442369Y474999D2*
D10*
G02X1442369Y474999I112495J0D01*
G01*
X2361090Y306249D2*
D45*
Y706249D1*
X2536106D1*
X2561071D1*
X2586080D1*
X2761096D1*
Y306249D1*
X2361090D1*
X2448620Y481249D2*
D10*
G02X2448620Y481249I112495J0D01*
G01*
X812208Y1396538D2*
D31*
Y1435940D1*
X851568Y1475294D2*
X1245283D1*
X1284643Y1435940D2*
Y1396538D1*
Y1278428D2*
Y1199719D1*
Y1081609D2*
Y1042207D1*
X1245283Y1002853D2*
X851568D1*
X812208Y1042207D2*
Y1081609D1*
Y1199719D2*
Y1278428D1*
Y1435940D2*
G02X851568Y1475294I39383J-29D01*
G01*
X1245283D2*
G02X1284643Y1435940I-23J-39383D01*
G01*
Y1042207D2*
G02X1245283Y1002853I-39383J29D01*
G01*
X851568D2*
G02X812208Y1042207I23J39383D01*
G01*
X910608Y1239073D2*
G02X910608Y1239073I137818J0D01*
G01*
X859474Y1416239D2*
D51*
G02X859474Y1416239I11802J0D01*
G01*
X1213772D2*
G02X1213772Y1416239I11802J0D01*
G01*
Y1061908D2*
G02X1213772Y1061908I11802J0D01*
G01*
X859474D2*
G02X859474Y1061908I11802J0D01*
G01*
X3862208Y1396539D2*
D31*
Y1435941D1*
X3901568Y1475295D2*
X4295283D1*
X4334643Y1435941D2*
Y1396539D1*
Y1278429D2*
Y1199720D1*
Y1081610D2*
Y1042209D1*
X4295283Y1002854D2*
X3901568D1*
X3862208Y1042209D2*
Y1081610D1*
Y1199720D2*
Y1278429D1*
Y1435941D2*
G02X3901568Y1475295I39383J-29D01*
G01*
X4295283D2*
G02X4334643Y1435941I-23J-39383D01*
G01*
Y1042209D2*
G02X4295283Y1002854I-39383J29D01*
G01*
X3901568D2*
G02X3862208Y1042209I23J39383D01*
G01*
X3960608Y1239075D2*
G02X3960608Y1239075I137818J0D01*
G01*
X3909474Y1416240D2*
D51*
G02X3909474Y1416240I11802J0D01*
G01*
X4263772D2*
G02X4263772Y1416240I11802J0D01*
G01*
Y1061909D2*
G02X4263772Y1061909I11802J0D01*
G01*
X3909474D2*
G02X3909474Y1061909I11802J0D01*
G01*
X2337208Y1409038D2*
D31*
Y1448440D1*
X2376568Y1487794D2*
X2770283D1*
X2809643Y1448440D2*
Y1409038D1*
Y1290928D2*
Y1212219D1*
Y1094109D2*
Y1054707D1*
X2770283Y1015353D2*
X2376568D1*
X2337208Y1054707D2*
Y1094109D1*
Y1212219D2*
Y1290928D1*
Y1448440D2*
G02X2376568Y1487794I39383J-29D01*
G01*
X2770283D2*
G02X2809643Y1448440I-23J-39383D01*
G01*
Y1054707D2*
G02X2770283Y1015353I-39383J29D01*
G01*
X2376568D2*
G02X2337208Y1054707I23J39383D01*
G01*
X2435608Y1251573D2*
G02X2435608Y1251573I137818J0D01*
G01*
X2384474Y1428739D2*
D51*
G02X2384474Y1428739I11802J0D01*
G01*
X2738772D2*
G02X2738772Y1428739I11802J0D01*
G01*
Y1074408D2*
G02X2738772Y1074408I11802J0D01*
G01*
X2384474D2*
G02X2384474Y1074408I11802J0D01*
G01*
X1281263Y3788738D2*
D31*
Y3638767D1*
Y3438743D2*
Y3288772D1*
X781238D1*
Y3438743D1*
Y3638767D2*
Y3788738D1*
X881243D1*
X1281263D2*
X1181258D1*
X1081253D2*
X981248D1*
X4439386Y2606940D2*
X4762189D1*
Y2162082D2*
X4439386D1*
Y2585267D2*
X4417719D1*
X4439386Y2606940D2*
Y2585267D1*
Y2183702D2*
Y2162082D1*
X4417719Y2183702D2*
X4439386D1*
X4762189D2*
X4783855D1*
X4762189Y2162082D2*
Y2183702D1*
Y2585267D2*
Y2606940D1*
X4783855Y2585267D2*
X4762189D1*
X4417719Y2498683D2*
Y2585267D1*
Y2183702D2*
Y2309705D1*
X4783855Y2585267D2*
Y2498683D1*
Y2309705D2*
Y2183702D1*
X4545764Y2394326D2*
D32*
G02X4545764Y2394326I55023J0D01*
G01*
X4560779Y2394352D2*
G02X4560779Y2394352I40008J0D01*
G01*
X3920637Y3763190D2*
D31*
X4243439D1*
Y3318332D2*
X3920637D1*
Y3741518D2*
X3898970D1*
X3920637Y3763190D2*
Y3741518D1*
Y3339952D2*
Y3318332D1*
X3898970Y3339952D2*
X3920637D1*
X4243439D2*
X4265106D1*
X4243439Y3318332D2*
Y3339952D1*
Y3741518D2*
Y3763190D1*
X4265106Y3741518D2*
X4243439D1*
X3898970Y3654933D2*
Y3741518D1*
Y3339952D2*
Y3465955D1*
X4265106Y3741518D2*
Y3654933D1*
Y3465955D2*
Y3339952D1*
X4027015Y3550577D2*
D32*
G02X4027015Y3550577I55023J0D01*
G01*
X4042030Y3550603D2*
G02X4042030Y3550603I40008J0D01*
G01*
X1758934Y3704267D2*
D112*
Y3684171D1*
X1765633D1*
X1768507Y3685144D1*
X1770430Y3687045D1*
X1771381Y3688969D1*
X1772332Y3691821D1*
Y3696618D1*
X1771381Y3699492D1*
X1770430Y3701393D1*
X1768507Y3703317D1*
X1765633Y3704267D1*
X1758934D1*
X1778507Y3700421D2*
X1780431Y3701393D1*
X1783305Y3704245D1*
Y3684171D1*
X3335884Y3698018D2*
Y3677922D1*
X3342582D1*
X3345456Y3678895D1*
X3347380Y3680796D1*
X3348330Y3682719D1*
X3349281Y3685571D1*
Y3690369D1*
X3348330Y3693243D1*
X3347380Y3695144D1*
X3345456Y3697067D1*
X3342582Y3698018D1*
X3335884D1*
X3356429Y3693221D2*
Y3694171D1*
X3357380Y3696095D1*
X3358331Y3697045D1*
X3360254Y3697996D1*
X3364079D1*
X3365980Y3697045D1*
X3366931Y3696095D1*
X3367903Y3694171D1*
Y3692270D1*
X3366931Y3690347D1*
X3365029Y3687495D1*
X3355457Y3677922D1*
X3368854D1*
X2534299Y4035519D2*
Y4015423D1*
X2540997D1*
X2543871Y4016396D1*
X2545795Y4018297D1*
X2546745Y4020220D1*
X2547696Y4023072D1*
Y4027870D1*
X2546745Y4030744D1*
X2545795Y4032645D1*
X2543871Y4034568D1*
X2540997Y4035519D1*
X2534299D1*
X2567269Y4032645D2*
X2565368Y4034568D1*
X2562494Y4035519D1*
X2558669D1*
X2555795Y4034568D1*
X2553872Y4032645D1*
Y4030744D1*
X2554844Y4028820D1*
X2555795Y4027870D1*
X2557696Y4026919D1*
X2563444Y4024996D1*
X2565368Y4024045D1*
X2566318Y4023072D1*
X2567269Y4021171D1*
Y4018297D1*
X2565368Y4016396D1*
X2562494Y4015423D1*
X2558669D1*
X2555795Y4016396D1*
X2553872Y4018297D1*
X2573445Y4031672D2*
X2575368Y4032645D1*
X2578242Y4035497D1*
Y4015423D1*
X2518688Y2629978D2*
X2506241D1*
Y2609882D1*
Y2620406D2*
X2513891D1*
X2524864Y2629978D2*
X2538261Y2609882D1*
Y2629978D2*
X2524864Y2609882D1*
X2544437Y2606566D2*
X2562609D1*
X2568785Y2629978D2*
Y2609882D1*
X2580259D1*
X2598859Y2629978D2*
X2586435D1*
Y2609882D1*
X2598859D1*
X2586435Y2620406D2*
X2594084D1*
X2605035Y2629978D2*
X2612684Y2609882D1*
X2620334Y2629978D1*
X1499928D2*
X1487481D1*
Y2609882D1*
Y2620406D2*
X1495130D1*
X1506103Y2629978D2*
X1519501Y2609882D1*
Y2629978D2*
X1506103Y2609882D1*
X1525676Y2606566D2*
X1543849D1*
X1563422Y2627104D2*
X1561521Y2629028D1*
X1558647Y2629978D1*
X1554822D1*
X1551948Y2629028D1*
X1550025Y2627104D1*
Y2625203D1*
X1550997Y2623280D1*
X1551948Y2622329D1*
X1553849Y2621378D1*
X1559597Y2619455D1*
X1561521Y2618504D1*
X1562471Y2617532D1*
X1563422Y2615630D1*
Y2612756D1*
X1561521Y2610855D1*
X1558647Y2609882D1*
X1554822D1*
X1551948Y2610855D1*
X1550025Y2612756D1*
X1582022Y2629978D2*
X1569598D1*
Y2609882D1*
X1582022D1*
X1569598Y2620406D2*
X1577247D1*
X1594897Y2629978D2*
Y2609882D1*
X1588198Y2629978D2*
X1601595D1*
X497710Y729288D2*
Y709192D1*
X517283Y729288D2*
Y709192D1*
X503885Y729288D1*
Y709192D1*
X523458Y718765D2*
X532080D1*
X534932Y719715D1*
X535905Y720688D1*
X536856Y722589D1*
Y725463D1*
X535905Y727365D1*
X534932Y728337D1*
X532080Y729288D1*
X523458D1*
Y709192D1*
X543031Y729288D2*
Y714940D1*
X543982Y712066D1*
X545905Y710165D1*
X548779Y709192D1*
X550681D1*
X553555Y710165D1*
X555478Y712066D1*
X556429Y714940D1*
Y729288D1*
X569303D2*
Y709192D1*
X562604Y729288D2*
X576002D1*
X3520653Y734751D2*
Y714655D1*
X3532127D1*
X3538303Y711339D2*
X3556476D1*
X3576999Y729976D2*
X3576049Y731877D1*
X3574125Y733801D1*
X3572224Y734751D1*
X3568399D1*
X3566476Y733801D1*
X3564575Y731877D1*
X3563602Y729976D1*
X3562651Y727102D1*
Y722304D1*
X3563602Y719453D1*
X3564575Y717529D1*
X3566476Y715628D1*
X3568399Y714655D1*
X3572224D1*
X3574125Y715628D1*
X3576049Y717529D1*
X3576999Y719453D1*
X3583175Y734751D2*
Y714655D1*
X3596572Y734751D2*
Y714655D1*
X3583175Y725178D2*
X3596572D1*
X3530291Y2629978D2*
Y2609882D1*
X3541765D1*
X3547940Y2619455D2*
X3556562D1*
X3559414Y2620406D1*
X3560387Y2621378D1*
X3561338Y2623280D1*
Y2626154D1*
X3560387Y2628055D1*
X3559414Y2629028D1*
X3556562Y2629978D1*
X3547940D1*
Y2609882D1*
X3567513Y2606566D2*
X3585686D1*
X3591862Y2629978D2*
X3599511Y2609882D1*
X3607160Y2629978D1*
X3619084D2*
X3617161Y2629028D1*
X3615259Y2627104D1*
X3614287Y2625203D1*
X3613336Y2622329D1*
Y2617532D1*
X3614287Y2614680D1*
X3615259Y2612756D1*
X3617161Y2610855D1*
X3619084Y2609882D1*
X3622909D1*
X3624810Y2610855D1*
X3626733Y2612756D1*
X3627684Y2614680D1*
X3628635Y2617532D1*
Y2622329D1*
X3627684Y2625203D1*
X3626733Y2627104D1*
X3624810Y2629028D1*
X3622909Y2629978D1*
X3619084D1*
X3634810D2*
Y2609882D1*
X3646284D1*
X507704Y2614157D2*
X516304D1*
X519178Y2615130D1*
X520151Y2616081D1*
X521101Y2617982D1*
Y2619906D1*
X520151Y2621807D1*
X519178Y2622780D1*
X516304Y2623730D1*
X507704D1*
Y2603634D1*
X514403Y2614157D2*
X521101Y2603634D1*
X527277Y2619883D2*
X529201Y2620856D1*
X532075Y2623708D1*
Y2603634D1*
X540174Y2623708D2*
X550675D1*
X544949Y2616059D1*
X547823D1*
X549724Y2615108D1*
X550675Y2614157D1*
X551648Y2611283D1*
Y2609382D1*
X550675Y2606508D1*
X548774Y2604585D1*
X545900Y2603634D1*
X543026D1*
X540174Y2604585D1*
X539223Y2605558D1*
X538250Y2607459D1*
X4572934Y719715D2*
X4581534D1*
X4584408Y720688D1*
X4585381Y721639D1*
X4586332Y723540D1*
Y725463D1*
X4585381Y727365D1*
X4584408Y728337D1*
X4581534Y729288D1*
X4572934D1*
Y709192D1*
X4579633Y719715D2*
X4586332Y709192D1*
X4592507Y705876D2*
X4610680D1*
X4631204Y724513D2*
X4630253Y726414D1*
X4628330Y728337D1*
X4626429Y729288D1*
X4622604D1*
X4620680Y728337D1*
X4618779Y726414D1*
X4617806Y724513D1*
X4616856Y721639D1*
Y716841D1*
X4617806Y713989D1*
X4618779Y712066D1*
X4620680Y710165D1*
X4622604Y709192D1*
X4626429D1*
X4628330Y710165D1*
X4630253Y712066D1*
X4631204Y713989D1*
X4637379Y729288D2*
Y709192D1*
X4650777Y729288D2*
Y709192D1*
X4637379Y719715D2*
X4650777D1*
X1531708D2*
X1540308D1*
X1543182Y720688D1*
X1544155Y721639D1*
X1545105Y723540D1*
Y725463D1*
X1544155Y727365D1*
X1543182Y728337D1*
X1540308Y729288D1*
X1531708D1*
Y709192D1*
X1538407Y719715D2*
X1545105Y709192D1*
X1563705Y729288D2*
X1551281D1*
Y709192D1*
X1563705D1*
X1551281Y719715D2*
X1558930D1*
X1584229Y724513D2*
X1583279Y726414D1*
X1581355Y728337D1*
X1579454Y729288D1*
X1575629D1*
X1573706Y728337D1*
X1571805Y726414D1*
X1570832Y724513D1*
X1569881Y721639D1*
Y716841D1*
X1570832Y713989D1*
X1571805Y712066D1*
X1573706Y710165D1*
X1575629Y709192D1*
X1579454D1*
X1581355Y710165D1*
X1583279Y712066D1*
X1584229Y713989D1*
X2540608Y732665D2*
X2538706Y734588D1*
X2535832Y735539D1*
X2532008D1*
X2529134Y734588D1*
X2527210Y732665D1*
Y730763D1*
X2528183Y728840D1*
X2529134Y727889D1*
X2531035Y726939D1*
X2536783Y725015D1*
X2538706Y724065D1*
X2539657Y723092D1*
X2540608Y721191D1*
Y718317D1*
X2538706Y716415D1*
X2535832Y715443D1*
X2532008D1*
X2529134Y716415D1*
X2527210Y718317D1*
X2553482Y735539D2*
Y715443D1*
X2546783Y735539D2*
X2560181D1*
X2572104D2*
X2570181Y734588D1*
X2568280Y732665D1*
X2567307Y730763D1*
X2566356Y727889D1*
Y723092D1*
X2567307Y720240D1*
X2568280Y718317D1*
X2570181Y716415D1*
X2572104Y715443D1*
X2575929D1*
X2577830Y716415D1*
X2579754Y718317D1*
X2580704Y720240D1*
X2581655Y723092D1*
Y727889D1*
X2580704Y730763D1*
X2579754Y732665D1*
X2577830Y734588D1*
X2575929Y735539D1*
X2572104D1*
X2587831Y725015D2*
X2596453D1*
X2599305Y725966D1*
X2600277Y726939D1*
X2601228Y728840D1*
Y731714D1*
X2600277Y733615D1*
X2599305Y734588D1*
X2596453Y735539D1*
X2587831D1*
Y715443D1*
X1036977Y1501709D2*
X1035076Y1503633D1*
X1032201Y1504583D1*
X1028377D1*
X1025503Y1503633D1*
X1023579Y1501709D1*
Y1499808D1*
X1024552Y1497885D1*
X1025503Y1496934D1*
X1027404Y1495983D1*
X1033152Y1494060D1*
X1035076Y1493109D1*
X1036026Y1492137D1*
X1036977Y1490235D1*
Y1487361D1*
X1035076Y1485460D1*
X1032201Y1484487D1*
X1028377D1*
X1025503Y1485460D1*
X1023579Y1487361D1*
X1043152Y1504583D2*
X1047950Y1484487D1*
X1052725Y1504583D1*
X1057500Y1484487D1*
X1062298Y1504583D1*
X1068474Y1500736D2*
X1070397Y1501709D1*
X1073271Y1504561D1*
Y1484487D1*
X4082677Y1501710D2*
X4080776Y1503634D1*
X4077902Y1504585D1*
X4074077D1*
X4071203Y1503634D1*
X4069279Y1501710D1*
Y1499809D1*
X4070252Y1497886D1*
X4071203Y1496935D1*
X4073104Y1495985D1*
X4078852Y1494061D1*
X4080776Y1493111D1*
X4081726Y1492138D1*
X4082677Y1490237D1*
Y1487363D1*
X4080776Y1485461D1*
X4077902Y1484489D1*
X4074077D1*
X4071203Y1485461D1*
X4069279Y1487363D1*
X4088853Y1504585D2*
X4093650Y1484489D1*
X4098425Y1504585D1*
X4103200Y1484489D1*
X4107998Y1504585D1*
X4115146Y1499787D2*
Y1500738D1*
X4116097Y1502661D1*
X4117048Y1503612D1*
X4118971Y1504562D1*
X4122796D1*
X4124697Y1503612D1*
X4125648Y1502661D1*
X4126620Y1500738D1*
Y1498836D1*
X4125648Y1496913D1*
X4123746Y1494061D1*
X4114174Y1484489D1*
X4127571D1*
X2557677Y1514209D2*
X2555776Y1516133D1*
X2552902Y1517083D1*
X2549077D1*
X2546203Y1516133D1*
X2544279Y1514209D1*
Y1512308D1*
X2545252Y1510385D1*
X2546203Y1509434D1*
X2548104Y1508483D1*
X2553852Y1506560D1*
X2555776Y1505609D1*
X2556726Y1504637D1*
X2557677Y1502735D1*
Y1499861D1*
X2555776Y1497960D1*
X2552902Y1496987D1*
X2549077D1*
X2546203Y1497960D1*
X2544279Y1499861D1*
X2563853Y1517083D2*
X2568650Y1496987D1*
X2573425Y1517083D1*
X2578200Y1496987D1*
X2582998Y1517083D1*
X2591097Y1517061D2*
X2601598D1*
X2595872Y1509412D1*
X2598746D1*
X2600648Y1508461D1*
X2601598Y1507511D1*
X2602571Y1504637D1*
Y1502735D1*
X2601598Y1499861D1*
X2599697Y1497938D1*
X2596823Y1496987D1*
X2593949D1*
X2591097Y1497938D1*
X2590146Y1498911D1*
X2589174Y1500812D1*
X1019065Y3875640D2*
Y3861292D1*
X1020016Y3858418D1*
X1021939Y3856516D1*
X1024813Y3855544D1*
X1026715D1*
X1029589Y3856516D1*
X1031512Y3858418D1*
X1032463Y3861292D1*
Y3875640D1*
X1038638Y3871793D2*
X1040562Y3872766D1*
X1043436Y3875618D1*
Y3855544D1*
X4573576Y2636229D2*
X4581225Y2616133D1*
X4588875Y2636229D1*
X4600798D2*
X4598875Y2635278D1*
X4596974Y2633355D1*
X4596001Y2631454D1*
X4595050Y2628580D1*
Y2623782D1*
X4596001Y2620930D1*
X4596974Y2619007D1*
X4598875Y2617106D1*
X4600798Y2616133D1*
X4604623D1*
X4606524Y2617106D1*
X4608448Y2619007D1*
X4609398Y2620930D1*
X4610349Y2623782D1*
Y2628580D1*
X4609398Y2631454D1*
X4608448Y2633355D1*
X4606524Y2635278D1*
X4604623Y2636229D1*
X4600798D1*
X4616525D2*
Y2616133D1*
X4627999D1*
X4052892Y3792480D2*
X4057690Y3772384D1*
X4062465Y3792480D1*
X4067240Y3772384D1*
X4072038Y3792480D1*
X4078213Y3772384D2*
X4091611Y3792457D1*
X4097786Y3792480D2*
Y3772384D1*
X4104485D1*
X4107359Y3773356D1*
X4109283Y3775258D1*
X4110233Y3777181D1*
X4111184Y3780033D1*
Y3784830D1*
X4110233Y3787704D1*
X4109283Y3789606D1*
X4107359Y3791529D1*
X4104485Y3792480D1*
X4097786D1*
M02*
